# Exact connected-component conservative convex envelope; metres.
v -0.08099096268415451 -0.041000001132488251 -0.10763230919837952
v -0.08099096268415451 0.041000001132488251 -0.10763230919837952
v -0.080990269780158997 -0.041765365749597549 -0.10748007148504257
v -0.080990269780158997 0.041765365749597549 -0.10748007148504257
v -0.080988295376300812 -0.042414214462041855 -0.10704652965068817
v -0.080988295376300812 0.042414214462041855 -0.10704652965068817
v -0.080985337495803833 -0.042847760021686554 -0.10639768838882446
v -0.080985337495803833 0.042847760021686554 -0.10639768838882446
v -0.08098185807466507 -0.043000001460313797 -0.10563232749700546
v -0.08098185807466507 0.043000001460313797 -0.10563232749700546
v -0.080917321145534515 -0.043000001460313797 -0.091460905969142914
v -0.080917321145534515 0.043000001460313797 -0.091460905969142914
v -0.080913834273815155 -0.042847760021686554 -0.090695545077323914
v -0.080913834273815155 0.042847760021686554 -0.090695545077323914
v -0.080910883843898773 -0.042414214462041855 -0.090046703815460205
v -0.080910883843898773 0.042414214462041855 -0.090046703815460205
v -0.08090045303106308 -0.040124747902154922 -0.087757259607315063
v -0.08090045303106308 0.040124747902154922 -0.087757259607315063
v -0.080889299511909485 -0.037675000727176666 -0.085307538509368896
v -0.080889299511909485 0.037675000727176666 -0.085307538509368896
v -0.080858908593654633 -0.017000000923871994 -0.07863260805606842
v -0.080858908593654633 0.017000000923871994 -0.07863260805606842
v -0.080836936831474304 -0.021428942680358887 -0.073807656764984131
v -0.080836936831474304 0.021428942680358887 -0.073807656764984131
v -0.080830104649066925 -0.024675000458955765 -0.072307676076889038
v -0.080830104649066925 0.024675000458955765 -0.072307676076889038
v -0.080829694867134094 -0.024585787206888199 -0.072218462824821472
v -0.080829694867134094 0.024585787206888199 -0.072218462824821472
v -0.080827720463275909 -0.023936940357089043 -0.071784920990467072
v -0.080827720463275909 0.023936940357089043 -0.071784920990467072
v -0.080827027559280396 -0.023171572014689445 -0.071632683277130127
v -0.080827027559280396 0.023171572014689445 -0.071632683277130127
v -0.073991037905216217 -0.041000001132488251 -0.10766418278217316
v -0.073991037905216217 0.041000001132488251 -0.10766418278217316
v -0.073990345001220703 -0.041765365749597549 -0.10751194506883621
v -0.073990345001220703 0.041765365749597549 -0.10751194506883621
v -0.073988370597362518 -0.042414214462041855 -0.10707840323448181
v -0.073988370597362518 0.042414214462041855 -0.10707840323448181
v -0.07398541271686554 -0.042847760021686554 -0.1064295619726181
v -0.07398541271686554 0.042847760021686554 -0.1064295619726181
v -0.073981925845146179 -0.043000001460313797 -0.1056642010807991
v -0.073981925845146179 0.043000001460313797 -0.1056642010807991
v -0.073917396366596222 -0.043000001460313797 -0.091492779552936554
v -0.073917396366596222 0.043000001460313797 -0.091492779552936554
v -0.073913909494876862 -0.042847760021686554 -0.090727418661117554
v -0.073913909494876862 0.042847760021686554 -0.090727418661117554
v -0.073910951614379883 -0.042414214462041855 -0.090078577399253845
v -0.073910951614379883 0.042414214462041855 -0.090078577399253845
v -0.073910549283027649 0.042325001209974289 -0.089989364147186279
v -0.073889374732971191 -0.037675000727176666 -0.085339412093162537
v -0.073889374732971191 0.037675000727176666 -0.085339412093162537
v -0.073829770088195801 -0.024585787206888199 -0.072250336408615112
v -0.073829770088195801 0.024585787206888199 -0.072250336408615112
v -0.073827795684337616 -0.023936940357089043 -0.071816794574260712
v -0.073827795684337616 0.023936940357089043 -0.071816794574260712
v -0.073827102780342102 -0.023171572014689445 -0.071664556860923767
v -0.073827102780342102 0.023171572014689445 -0.071664556860923767
v -0.069741077721118927 -0.014299037866294384 -0.10768353939056396
v -0.069741077721118927 0.014299037866294384 -0.10768353939056396
v -0.064991123974323273 -0.02199999988079071 -0.10770516842603683
v -0.064991123974323273 0.02199999988079071 -0.10770516842603683
v -0.064989902079105377 -0.023000000044703484 -0.10743722319602966
v -0.064989902079105377 0.023000000044703484 -0.10743722319602966
v -0.064986571669578552 -0.023732051253318787 -0.10670518130064011
v -0.064986571669578552 0.023732051253318787 -0.10670518130064011
v -0.064982019364833832 -0.024000000208616257 -0.10570518672466278
v -0.064982019364833832 0.024000000208616257 -0.10570518672466278
v -0.064977467060089111 -0.024000000208616257 -0.10470519959926605
v -0.064977467060089111 0.024000000208616257 -0.10470519959926605
v -0.064972907304763794 -0.023732051253318787 -0.10370520502328873
v -0.064972907304763794 0.023732051253318787 -0.10370520502328873
v -0.064969576895236969 -0.023000000044703484 -0.10297316312789917
v -0.064969576895236969 0.023000000044703484 -0.10297316312789917
v -0.064968355000019073 -0.02199999988079071 -0.102705217897892
v -0.064968355000019073 0.02199999988079071 -0.102705217897892
f 1 2 59
f 1 3 2
f 1 33 35
f 1 35 3
f 1 58 60
f 1 59 58
f 1 60 33
f 2 3 4
f 2 4 36
f 2 34 61
f 2 36 34
f 2 61 59
f 3 5 9
f 3 9 10
f 3 10 4
f 3 35 5
f 4 6 36
f 4 10 6
f 5 7 9
f 5 35 37
f 5 37 7
f 6 8 40
f 6 10 8
f 6 38 36
f 6 40 38
f 7 37 39
f 7 39 9
f 8 10 40
f 9 11 15
f 9 15 23
f 9 21 22
f 9 22 10
f 9 23 21
f 9 39 41
f 9 41 11
f 10 12 42
f 10 16 12
f 10 22 24
f 10 24 16
f 10 42 40
f 11 13 15
f 11 41 43
f 11 43 45
f 11 45 13
f 12 14 46
f 12 16 14
f 12 44 42
f 12 46 44
f 13 45 47
f 13 47 15
f 14 16 48
f 14 48 46
f 15 17 19
f 15 19 25
f 15 25 23
f 15 47 17
f 16 18 49
f 16 20 18
f 16 24 26
f 16 26 20
f 16 49 48
f 17 27 19
f 17 47 50
f 17 50 52
f 17 52 27
f 18 20 28
f 18 28 53
f 18 51 49
f 18 53 51
f 19 27 25
f 20 26 28
f 21 23 22
f 22 23 24
f 23 25 26
f 23 26 24
f 25 27 29
f 25 29 31
f 25 31 26
f 26 30 28
f 26 31 32
f 26 32 30
f 27 52 54
f 27 54 29
f 28 30 53
f 29 54 56
f 29 56 31
f 30 32 57
f 30 55 53
f 30 57 55
f 31 56 57
f 31 57 32
f 33 60 35
f 34 36 61
f 35 60 62
f 35 62 37
f 36 38 63
f 36 63 61
f 37 62 64
f 37 64 39
f 38 40 65
f 38 65 63
f 39 64 66
f 39 66 41
f 40 42 67
f 40 67 65
f 41 66 43
f 42 44 67
f 43 66 68
f 43 68 45
f 44 46 69
f 44 69 67
f 45 68 70
f 45 70 47
f 46 48 71
f 46 71 69
f 47 52 50
f 47 70 52
f 48 49 51
f 48 51 53
f 48 53 71
f 52 70 72
f 52 72 54
f 53 55 73
f 53 73 71
f 54 72 74
f 54 74 56
f 55 57 75
f 55 75 73
f 56 74 57
f 57 74 75
f 58 59 60
f 59 61 60
f 60 61 63
f 60 63 62
f 62 63 71
f 62 70 64
f 62 71 70
f 63 65 71
f 64 70 66
f 65 67 71
f 66 70 68
f 67 69 71
f 70 71 74
f 70 74 72
f 71 73 75
f 71 75 74
