# Exact connected-component conservative convex envelope; metres.
v -0.05080002173781395 0.061031792312860489 -0.06576935201883316
v -0.05080002173781395 0.090468205511569977 -0.06576935201883316
v -0.050626974552869797 0.061031792312860489 -0.027769748121500015
v -0.050626974552869797 0.090468205511569977 -0.027769748121500015
v -0.050482481718063354 0.058531790971755981 -0.065770797431468964
v -0.050482481718063354 0.092968210577964783 -0.065770797431468964
v -0.050326433032751083 0.068708039820194244 0.038229569792747498
v -0.050326433032751083 0.08279196172952652 0.038229566067457199
v -0.050309441983699799 0.05853179469704628 -0.027771195396780968
v -0.050309441983699799 0.092968210577964783 -0.027771193534135818
v -0.050230193883180618 0.057704336941242218 -0.065771952271461487
v -0.050230193883180618 0.093795664608478546 -0.065771952271461487
v -0.045744061470031738 0.059338673949241638 0.056308887898921967
v -0.045744061470031738 0.061549998819828033 0.056308891624212265
v -0.045744061470031738 0.084761321544647217 0.056308887898921967
v -0.04550495371222496 0.04145905002951622 -0.00098403461743146181
v -0.045503489673137665 0.11012347787618637 -0.00066256459103897214
v -0.045469313859939575 0.039849713444709778 0.0068422346375882626
v -0.045466449111700058 0.11173915863037109 0.0074719330295920372
v -0.045433100312948227 0.039250001311302185 0.014795104973018169
v -0.045433100312948227 0.11225000023841858 0.014795104973018169
v -0.045258183032274246 0.039250001311302185 0.053206644952297211
v -0.045258183032274246 0.11225000023841858 0.053206644952297211
v -0.045246798545122147 0.039919871836900711 0.05570661649107933
v -0.045246798545122147 0.11158012598752975 0.05570661649107933
v -0.045238465070724487 0.041749998927116394 0.057536721229553223
v -0.045238465070724487 0.10975000262260437 0.057536724954843521
v -0.045235414057970047 0.044250000268220901 0.058206591755151749
v -0.045235414057970047 0.10724999755620956 0.058206591755151749
v -0.039469372481107712 0.039849713444709778 0.0068149128928780556
v -0.039466504007577896 0.11173915863037109 0.0074446108192205429
v -0.039433158934116364 0.039250001311302185 0.014767782762646675
v -0.039433158934116364 0.11225000023841858 0.014767782762646675
v -0.039258241653442383 0.039250001311302185 0.053179323673248291
v -0.039258241653442383 0.11225000023841858 0.053179323673248291
v -0.039246857166290283 0.039919871836900711 0.055679295212030411
v -0.031878001987934113 0.058952871710062027 -0.07195630669593811
v -0.03187798336148262 0.10195287317037582 -0.071952417492866516
v -0.031194940209388733 0.058939322829246521 0.078042134642601013
v -0.031194921582937241 0.10193932056427002 0.07804601639509201
v -0.028721466660499573 0.10924999415874481 0.061231423169374466
v -0.025338908657431602 0.10924999415874481 0.061216022819280624
v -0.025210117921233177 0.042483974248170853 0.063715465366840363
v -0.024957846850156784 0.042916987091302872 0.064214311540126801
v -0.024710122495889664 0.042350001633167267 0.063713178038597107
v -0.024707846343517303 0.04284999892115593 0.064213179051876068
v 0.0054126125760376453 0.10924999415874481 0.061075989156961441
v 0.025289356708526611 0.042350001633167267 0.063485495746135712
v 0.025291632860898972 0.04284999892115593 0.063985496759414673
v 0.025541631504893303 0.042916987091302872 0.063984356820583344
v 0.025789352133870125 0.042483974248170853 0.063483215868473053
v 0.029277930036187172 0.10924999415874481 0.060967311263084412
v 0.031121348962187767 0.058952871710062027 -0.072243191301822662
v 0.031121367588639259 0.10195287317037582 -0.072239309549331665
v 0.031804405152797699 0.058939322829246521 0.077755250036716461
v 0.031804420053958893 0.10193932056427002 0.077759139239788055
v 0.039495628327131271 0.041376523673534393 -0.0010496310424059629
v 0.039532672613859177 0.03976084291934967 0.007084868848323822
v 0.03975231945514679 0.039919871836900711 0.055319555103778839
v 0.045494101941585541 0.11004095524549484 -0.0013984206598252058
v 0.045495565980672836 0.041376523673534393 -0.0010769532527774572
v 0.045529741793870926 0.11165028810501099 0.0064278487116098404
v 0.045532610267400742 0.03976084291934967 0.0070575466379523277
v 0.045565959066152573 0.039250001311302185 0.014380719512701035
v 0.045565959066152573 0.11225000023841858 0.014380719512701035
v 0.045740872621536255 0.039250001311302185 0.052792258560657501
v 0.045740872621536255 0.11225000023841858 0.052792258560657501
v 0.045752257108688354 0.039919871836900711 0.055292230099439621
v 0.045752257108688354 0.11158012598752975 0.055292230099439621
v 0.045760590583086014 0.041749998927116394 0.057122338563203812
v 0.045760590583086014 0.10975000262260437 0.057122338563203812
v 0.045763641595840454 0.044250000268220901 0.057792205363512039
v 0.045763641595840454 0.052749998867511749 0.057792209088802338
v 0.045763641595840454 0.10724999755620956 0.057792205363512039
v 0.04625498503446579 0.059338673949241638 0.055889945477247238
v 0.04625498503446579 0.082549996674060822 0.055889949202537537
v 0.04625498503446579 0.084761321544647217 0.055889949202537537
v 0.049629103392362595 0.057704336941242218 -0.066226683557033539
v 0.049629103392362595 0.093795664608478546 -0.066226683557033539
v 0.049881394952535629 0.058531790971755981 -0.066227830946445465
v 0.049881394952535629 0.092968210577964783 -0.066227830946445465
v 0.050054434686899185 0.05853179469704628 -0.028228225186467171
v 0.050054434686899185 0.092968210577964783 -0.028228225186467171
v 0.050198931246995926 0.061031792312860489 -0.066229276359081268
v 0.050198931246995926 0.090468205511569977 -0.066229276359081268
v 0.05037197470664978 0.061031792312860489 -0.028229670599102974
v 0.05037197470664978 0.090468205511569977 -0.028229670599102974
v 0.050672516226768494 0.068708039820194244 0.03776964545249939
v 0.050672516226768494 0.08279196172952652 0.03776964545249939
f 1 2 37
f 1 3 7
f 1 5 9
f 1 7 2
f 1 9 3
f 1 37 5
f 2 4 10
f 2 6 38
f 2 7 8
f 2 8 4
f 2 10 6
f 2 38 37
f 3 9 7
f 4 8 10
f 5 11 20
f 5 20 9
f 5 37 11
f 6 10 21
f 6 12 38
f 6 21 12
f 7 9 22
f 7 13 14
f 7 14 15
f 7 15 8
f 7 22 24
f 7 24 26
f 7 26 28
f 7 28 13
f 8 15 29
f 8 23 10
f 8 25 23
f 8 27 25
f 8 29 27
f 9 20 22
f 10 23 21
f 11 16 18
f 11 18 20
f 11 37 16
f 12 17 38
f 12 19 17
f 12 21 19
f 13 28 14
f 14 28 29
f 14 29 15
f 16 37 57
f 16 57 18
f 17 19 38
f 18 30 63
f 18 57 61
f 18 58 20
f 18 61 30
f 18 63 58
f 19 21 33
f 19 31 54
f 19 33 31
f 19 54 38
f 20 32 22
f 20 58 63
f 20 63 32
f 21 23 35
f 21 35 33
f 22 32 34
f 22 34 24
f 23 25 35
f 24 34 36
f 24 36 45
f 24 43 26
f 24 45 43
f 25 27 40
f 25 40 41
f 25 41 42
f 25 42 47
f 25 47 69
f 25 69 35
f 26 39 28
f 26 43 44
f 26 44 39
f 27 29 40
f 28 39 40
f 28 40 29
f 30 61 63
f 31 33 65
f 31 62 54
f 31 65 62
f 32 63 64
f 32 64 66
f 32 66 34
f 33 35 65
f 34 59 36
f 34 66 59
f 35 67 65
f 35 69 67
f 36 48 45
f 36 59 48
f 37 38 54
f 37 53 57
f 37 54 53
f 39 44 46
f 39 46 49
f 39 49 55
f 39 55 56
f 39 56 40
f 40 42 41
f 40 56 42
f 42 56 47
f 43 45 46
f 43 46 44
f 45 48 46
f 46 48 49
f 47 52 69
f 47 56 52
f 48 51 49
f 48 59 68
f 48 68 51
f 49 50 55
f 49 51 50
f 50 51 70
f 50 70 55
f 51 68 70
f 52 56 69
f 53 54 85
f 53 61 57
f 53 78 61
f 53 80 78
f 53 84 80
f 53 85 84
f 54 60 79
f 54 62 60
f 54 79 81
f 54 81 85
f 55 70 72
f 55 72 56
f 56 71 69
f 56 72 73
f 56 73 74
f 56 74 71
f 59 66 68
f 60 62 79
f 61 78 63
f 62 65 79
f 63 78 64
f 64 78 80
f 64 80 82
f 64 82 66
f 65 67 83
f 65 81 79
f 65 83 81
f 66 82 88
f 66 88 68
f 67 69 89
f 67 89 83
f 68 88 70
f 69 71 89
f 70 88 72
f 71 74 89
f 72 75 73
f 72 88 75
f 73 75 76
f 73 76 77
f 73 77 74
f 74 77 89
f 75 88 76
f 76 88 77
f 77 88 89
f 80 84 86
f 80 86 82
f 81 83 87
f 81 87 85
f 82 86 88
f 83 89 87
f 84 85 87
f 84 87 86
f 86 87 88
f 87 89 88
