# Exact connected-component conservative convex envelope; metres.
v -0.12511542439460754 -0.24017025530338287 -0.13486072421073914
v -0.12511521577835083 -0.24321277439594269 -0.13481377065181732
v -0.12511228024959564 -0.23720653355121613 -0.13417117297649384
v -0.12510597705841064 -0.23449723422527313 -0.13278596103191376
v -0.12510396540164948 -0.27017784118652344 -0.13234388828277588
v -0.12510386109352112 -0.27297136187553406 -0.13232284784317017
v -0.12510025501251221 -0.27565005421638489 -0.13152988255023956
v -0.1250968724489212 -0.23220290243625641 -0.13078717887401581
v -0.12509341537952423 -0.27800488471984863 -0.13002687692642212
v -0.12508551776409149 -0.23045951128005981 -0.12829327583312988
v -0.12508386373519897 -0.27985203266143799 -0.1279311329126358
v -0.12507258355617523 -0.2293703705072403 -0.12545202672481537
v -0.12507249414920807 -0.27149999141693115 -0.12543176114559174
v -0.12507237493991852 -0.28104737401008606 -0.12540620565414429
v -0.1250598132610321 -0.28149762749671936 -0.12264915555715561
v -0.12504717707633972 -0.2811676561832428 -0.11987513303756714
v -0.12503546476364136 -0.28008317947387695 -0.11730064451694489
v -0.12503416836261749 -0.23023447394371033 -0.11701541393995285
v -0.12502555549144745 -0.27832883596420288 -0.1151265949010849
v -0.12488507479429245 -0.21675144135951996 -0.084276005625724792
v -0.12487440556287766 -0.21581791341304779 -0.081933647394180298
v -0.12486301362514496 -0.21549999713897705 -0.079432234168052673
v -0.12484998255968094 -0.21591845154762268 -0.076569750905036926
v -0.1248469203710556 -0.22196446359157562 -0.075896739959716797
v -0.12484025210142136 -0.22550000250339508 -0.074432291090488434
v -0.12483803927898407 -0.21713879704475403 -0.073946826159954071
v -0.12482975423336029 -0.23232883214950562 -0.072127044200897217
v -0.12482818216085434 -0.21905890107154846 -0.071782983839511871
v -0.12482224404811859 -0.22995193302631378 -0.070477984845638275
v -0.1248212456703186 -0.22151806950569153 -0.070259317755699158
v -0.12481814622879028 -0.22720244526863098 -0.069578319787979126
v -0.12481780350208282 -0.2243104875087738 -0.069503337144851685
v -0.11711549013853073 -0.24017025530338287 -0.13489715754985809
v -0.11711527407169342 -0.24321277439594269 -0.13485018908977509
v -0.11711235344409943 -0.23720653355121613 -0.13420760631561279
v -0.11710604280233383 -0.23449723422527313 -0.13282239437103271
v -0.1171039342880249 -0.27297136187553406 -0.13235928118228912
v -0.11710032075643539 -0.27565005421638489 -0.13156631588935852
v -0.11709693819284439 -0.23220290243625641 -0.13082361221313477
v -0.11709348112344742 -0.27800488471984863 -0.13006331026554108
v -0.11709203571081161 -0.2520790696144104 -0.12974725663661957
v -0.11708558350801468 -0.23045951128005981 -0.12832970917224884
v -0.11708393692970276 -0.27985203266143799 -0.12796756625175476
v -0.11707498878240585 -0.23796446621417999 -0.12600371241569519
v -0.11707264930009842 -0.2293703705072403 -0.12548844516277313
v -0.11707244068384171 -0.28104737401008606 -0.12544263899326324
v -0.11707071959972382 -0.27300000190734863 -0.12506626546382904
v -0.11707071959972382 -0.27000001072883606 -0.12506626546382904
v -0.11705987900495529 -0.28149762749671936 -0.12268558144569397
v -0.11704725027084351 -0.2811676561832428 -0.1199115663766861
v -0.11703552305698395 -0.28008317947387695 -0.11733707040548325
v -0.11702562868595123 -0.27832883596420288 -0.11516302824020386
v -0.11701076477766037 -0.24817563593387604 -0.11190018057823181
v -0.11689440160989761 -0.21824121475219727 -0.086346819996833801
v -0.1168791800737381 -0.22903552651405334 -0.083004161715507507
v -0.1168791800737381 -0.22196446359157562 -0.083004161715507507
v -0.11687447130680084 -0.21581791341304779 -0.081970073282718658
v -0.11686308681964874 -0.21549999713897705 -0.079468667507171631
v -0.11685004830360413 -0.21591845154762268 -0.076606176793575287
v -0.11684204638004303 -0.22741341590881348 -0.074849314987659454
v -0.11683810502290726 -0.21713879704475403 -0.073983259499073029
v -0.11682981997728348 -0.23232883214950562 -0.072163470089435577
v -0.11682824790477753 -0.21905890107154846 -0.071819417178630829
v -0.11682230979204178 -0.22995193302631378 -0.070514418184757233
v -0.11682131141424179 -0.22151806950569153 -0.070295743644237518
v -0.11681821197271347 -0.22720244526863098 -0.069614753127098083
v -0.11681786924600601 -0.2243104875087738 -0.069539770483970642
f 1 2 4
f 1 3 35
f 1 4 3
f 1 33 2
f 1 35 33
f 2 5 9
f 2 6 5
f 2 9 13
f 2 12 4
f 2 13 18
f 2 18 12
f 2 33 34
f 2 34 37
f 2 37 6
f 3 4 35
f 4 8 36
f 4 10 8
f 4 12 10
f 4 36 35
f 5 6 7
f 5 7 9
f 6 37 7
f 7 37 38
f 7 38 9
f 8 10 42
f 8 39 36
f 8 42 39
f 9 11 14
f 9 14 13
f 9 38 40
f 9 40 43
f 9 43 11
f 10 12 42
f 11 43 14
f 12 18 20
f 12 20 21
f 12 21 57
f 12 45 42
f 12 57 45
f 13 14 17
f 13 17 27
f 13 25 18
f 13 27 25
f 14 15 17
f 14 43 46
f 14 46 15
f 15 16 17
f 15 46 49
f 15 49 16
f 16 49 50
f 16 50 51
f 16 51 17
f 17 19 27
f 17 51 19
f 18 23 20
f 18 24 26
f 18 25 24
f 18 26 23
f 19 51 52
f 19 52 62
f 19 62 27
f 20 23 21
f 21 22 58
f 21 23 22
f 21 58 57
f 22 23 59
f 22 59 58
f 23 26 59
f 24 25 26
f 25 27 29
f 25 29 31
f 25 31 26
f 26 28 63
f 26 30 28
f 26 31 30
f 26 61 59
f 26 63 61
f 27 62 29
f 28 30 65
f 28 65 63
f 29 62 64
f 29 64 66
f 29 66 31
f 30 31 32
f 30 32 65
f 31 66 67
f 31 67 32
f 32 67 65
f 33 35 36
f 33 36 39
f 33 39 34
f 34 38 37
f 34 39 44
f 34 41 38
f 34 44 41
f 38 41 47
f 38 43 40
f 38 47 49
f 38 49 43
f 39 42 57
f 39 54 44
f 39 57 54
f 41 44 54
f 41 48 47
f 41 53 48
f 41 54 53
f 42 45 57
f 43 49 46
f 47 48 54
f 47 51 49
f 47 54 55
f 47 55 51
f 48 53 54
f 49 51 50
f 51 55 63
f 51 60 67
f 51 62 52
f 51 63 60
f 51 64 62
f 51 66 64
f 51 67 66
f 54 56 55
f 54 57 63
f 54 63 56
f 55 56 63
f 57 58 59
f 57 59 63
f 59 61 63
f 60 63 67
f 63 65 67
