# Exact connected-component conservative convex envelope; metres.
v 0.064007528126239777 -0.02199999988079071 -0.1082925945520401
v 0.064007528126239777 0.02199999988079071 -0.1082925945520401
v 0.064008750021457672 -0.023000000044703484 -0.10802464932203293
v 0.064008750021457672 0.023000000044703484 -0.10802464932203293
v 0.064012087881565094 -0.023732051253318787 -0.10729260742664337
v 0.064012087881565094 0.023732051253318787 -0.10729260742664337
v 0.064013674855232239 -0.019999999552965164 -0.10694260895252228
v 0.064013674855232239 0.019999999552965164 -0.10694260895252228
v 0.064016640186309814 -0.024000000208616257 -0.10629261285066605
v 0.064016640186309814 0.024000000208616257 -0.10629261285066605
v 0.064021192491054535 -0.024000000208616257 -0.10529262572526932
v 0.064021192491054535 0.024000000208616257 -0.10529262572526932
v 0.064025744795799255 -0.023732051253318787 -0.10429263114929199
v 0.064025744795799255 0.023732051253318787 -0.10429263114929199
v 0.06402907520532608 -0.023000000044703484 -0.10356058925390244
v 0.06402907520532608 0.023000000044703484 -0.10356058925390244
v 0.064030297100543976 -0.02199999988079071 -0.10329264402389526
v 0.064030297100543976 0.02199999988079071 -0.10329264402389526
v 0.070257470011711121 -0.014299037866294384 -0.10832105576992035
v 0.070257470011711121 0.014299037866294384 -0.10832105576992035
v 0.073007442057132721 -0.041000001132488251 -0.10833357274532318
v 0.073007442057132721 0.041000001132488251 -0.10833357274532318
v 0.073008663952350616 -0.041999999433755875 -0.10806562751531601
v 0.073008663952350616 0.041999999433755875 -0.10806562751531601
v 0.073011994361877441 -0.042732052505016327 -0.10733358561992645
v 0.073011994361877441 0.042732052505016327 -0.10733358561992645
v 0.073016546666622162 -0.043000001460313797 -0.10633359849452972
v 0.073016546666622162 0.043000001460313797 -0.10633359849452972
v 0.073081083595752716 -0.043000001460313797 -0.092162169516086578
v 0.073081083595752716 0.043000001460313797 -0.092162169516086578
v 0.073084563016891479 -0.042847760021686554 -0.091396808624267578
v 0.073084563016891479 0.042847760021686554 -0.091396808624267578
v 0.073087520897388458 -0.042414214462041855 -0.090747974812984467
v 0.073087520897388458 0.042414214462041855 -0.090747974812984467
v 0.073087923228740692 0.042325001209974289 -0.090658761560916901
v 0.073097944259643555 -0.040124747902154922 -0.088458530604839325
v 0.07316870242357254 -0.024585787206888199 -0.072919726371765137
v 0.07316870242357254 0.024585787206888199 -0.072919726371765137
v 0.073170676827430725 -0.023936940357089043 -0.072486191987991333
v 0.073170676827430725 0.023936940357089043 -0.072486191987991333
v 0.073171369731426239 -0.023171572014689445 -0.072333946824073792
v 0.073171369731426239 0.023171572014689445 -0.072333946824073792
v 0.080007366836071014 -0.041000001132488251 -0.10836545377969742
v 0.080007366836071014 0.041000001132488251 -0.10836545377969742
v 0.08000858873128891 -0.041999999433755875 -0.10809750854969025
v 0.08000858873128891 0.041999999433755875 -0.10809750854969025
v 0.080011919140815735 -0.042732052505016327 -0.10736546665430069
v 0.080011919140815735 0.042732052505016327 -0.10736546665430069
v 0.080016471445560455 -0.043000001460313797 -0.10636547207832336
v 0.080016471445560455 0.043000001460313797 -0.10636547207832336
v 0.080021031200885773 -0.021649999544024467 -0.10536548495292664
v 0.080021031200885773 0.021649999544024467 -0.10536548495292664
v 0.080029338598251343 -0.043000001460313797 -0.10354050248861313
v 0.080029338598251343 0.043000001460313797 -0.10354050248861313
v 0.080042317509651184 -0.043000001460313797 -0.10069052875041962
v 0.080042317509651184 0.043000001460313797 -0.10069052875041962
v 0.0800657719373703 -0.041428942233324051 -0.09554058313369751
v 0.0800657719373703 0.041428942233324051 -0.09554058313369751
v 0.08008100837469101 -0.043000001460313797 -0.092194043099880219
v 0.08008100837469101 0.043000001460313797 -0.092194043099880219
v 0.08008449524641037 -0.042847760021686554 -0.091428689658641815
v 0.08008449524641037 0.042847760021686554 -0.091428689658641815
v 0.080087445676326752 -0.042414214462041855 -0.090779848396778107
v 0.080087445676326752 0.042414214462041855 -0.090779848396778107
v 0.080097876489162445 -0.040124747902154922 -0.088490404188632965
v 0.080097876489162445 0.040124747902154922 -0.088490404188632965
v 0.080149330198764801 -0.028824999928474426 -0.077190771698951721
v 0.080149330198764801 0.028824999928474426 -0.077190771698951721
v 0.080164149403572083 -0.02082500047981739 -0.073936864733695984
v 0.080164149403572083 0.02082500047981739 -0.073936864733695984
v 0.080168634653091431 -0.024585787206888199 -0.072951607406139374
v 0.080168634653091431 0.024585787206888199 -0.072951607406139374
v 0.080170609056949615 -0.023936940357089043 -0.072518065571784973
v 0.080170609056949615 0.023936940357089043 -0.072518065571784973
v 0.080171301960945129 -0.023171572014689445 -0.072365827858448029
v 0.080171301960945129 0.023171572014689445 -0.072365827858448029
f 1 2 19
f 1 3 15
f 1 7 2
f 1 15 7
f 1 19 43
f 1 21 3
f 1 43 21
f 2 4 22
f 2 7 8
f 2 8 16
f 2 16 4
f 2 20 19
f 2 22 44
f 2 44 20
f 3 5 9
f 3 9 11
f 3 11 15
f 3 21 23
f 3 23 25
f 3 25 5
f 4 6 26
f 4 10 6
f 4 12 10
f 4 16 12
f 4 24 22
f 4 26 24
f 5 25 27
f 5 27 9
f 6 10 28
f 6 28 26
f 7 15 16
f 7 16 8
f 9 27 11
f 10 12 28
f 11 13 15
f 11 27 29
f 11 29 31
f 11 31 13
f 12 14 32
f 12 16 14
f 12 30 28
f 12 32 30
f 13 31 33
f 13 33 15
f 14 16 35
f 14 34 32
f 14 35 34
f 15 17 16
f 15 33 36
f 15 36 37
f 15 37 39
f 15 39 17
f 16 17 18
f 16 18 40
f 16 38 35
f 16 40 38
f 17 39 41
f 17 41 42
f 17 42 18
f 18 42 40
f 19 20 43
f 20 44 43
f 21 43 45
f 21 45 23
f 22 24 46
f 22 46 44
f 23 45 47
f 23 47 25
f 24 26 46
f 25 47 27
f 26 28 48
f 26 48 46
f 27 47 49
f 27 49 59
f 27 59 29
f 28 30 60
f 28 50 48
f 28 60 50
f 29 59 31
f 30 32 60
f 31 59 61
f 31 61 63
f 31 63 33
f 32 34 64
f 32 62 60
f 32 64 62
f 33 63 65
f 33 65 36
f 34 35 64
f 35 38 66
f 35 66 64
f 36 65 37
f 37 65 67
f 37 67 71
f 37 71 73
f 37 73 39
f 38 40 74
f 38 68 66
f 38 72 68
f 38 74 72
f 39 73 41
f 40 42 74
f 41 73 75
f 41 75 76
f 41 76 42
f 42 76 74
f 43 44 46
f 43 46 45
f 45 46 51
f 45 51 57
f 45 53 47
f 45 55 53
f 45 57 61
f 45 61 55
f 46 48 54
f 46 52 51
f 46 54 56
f 46 56 62
f 46 58 52
f 46 62 58
f 47 53 49
f 48 50 54
f 49 53 59
f 50 60 54
f 51 52 58
f 51 58 57
f 53 55 59
f 54 60 56
f 55 61 59
f 56 60 62
f 57 58 70
f 57 65 61
f 57 69 65
f 57 70 69
f 58 62 66
f 58 66 70
f 61 65 63
f 62 64 66
f 65 69 73
f 65 71 67
f 65 73 71
f 66 68 72
f 66 72 74
f 66 74 70
f 69 70 74
f 69 74 73
f 73 74 76
f 73 76 75
