# https://github.com/mikedh/trimesh
v -0.10314525 -0.02222928 -0.00680000
v -0.10314525 -0.02222928 0.00120000
v -0.10716757 -0.02104167 0.00120000
v -0.10716757 -0.02104167 -0.00680000
v -0.11135291 -0.02131075 -0.00680000
v -0.11135291 -0.02131075 0.00120000
v -0.11519004 -0.02300367 -0.00680000
v -0.11519004 -0.02300367 0.00120000
v -0.11821025 -0.02591362 -0.00680000
v -0.11821025 -0.02591362 0.00120000
v -0.12004463 -0.02968518 -0.00680000
v -0.12004463 -0.02968518 0.00120000
v -0.12046909 -0.03385762 -0.00680000
v -0.12046909 -0.03385762 0.00120000
v -0.11943182 -0.03792131 -0.00680000
v -0.11943182 -0.03792131 0.00120000
v -0.11705948 -0.04137986 -0.00680000
v -0.11705948 -0.04137986 0.00120000
v -0.11364189 -0.04381081 -0.00680000
v -0.11364189 -0.04381081 0.00120000
v 0.00834848 -0.10163252 0.00120000
v 0.01239390 -0.10273893 -0.00680000
v 0.01239390 -0.10273893 0.00120000
v 0.01657298 -0.10238566 -0.00680000
v 0.01657298 -0.10238566 0.00120000
v 0.02037525 -0.10061585 0.00120000
v 0.02037525 -0.10061585 -0.00680000
v 0.02333628 -0.09764570 -0.00680000
v 0.02333628 -0.09764570 0.00120000
v 0.02509437 -0.09383799 -0.00680000
v 0.02509437 -0.09383799 0.00120000
v 0.02543477 -0.08965784 -0.00680000
v 0.02543477 -0.08965784 0.00120000
v 0.02431590 -0.08561586 0.00120000
v 0.02431590 -0.08561586 -0.00680000
v 0.02187444 -0.08220576 -0.00680000
v 0.02187444 -0.08220576 0.00120000
v 0.01840860 -0.07984409 -0.00680000
v 0.01840860 -0.07984409 0.00120000
v 0.00834848 -0.10163252 -0.00680000
f 40 21 20
f 20 19 40
f 8 5 7
f 6 5 8
f 37 36 38
f 38 39 37
f 2 38 1
f 2 39 38
f 23 40 22
f 21 40 23
f 22 24 23
f 23 24 25
f 32 35 34
f 34 33 32
f 34 35 36
f 36 37 34
f 18 19 20
f 18 17 19
f 15 17 18
f 18 16 15
f 14 11 13
f 12 11 14
f 13 15 14
f 15 16 14
f 31 30 32
f 32 33 31
f 28 30 31
f 31 29 28
f 32 30 27
f 27 9 7
f 13 11 27
f 19 17 27
f 1 38 27
f 27 15 13
f 27 30 28
f 22 40 27
f 38 36 27
f 27 35 32
f 27 40 19
f 7 5 27
f 27 24 22
f 36 35 27
f 27 17 15
f 27 4 1
f 11 9 27
f 5 4 27
f 10 9 11
f 10 11 12
f 10 8 7
f 7 9 10
f 3 5 6
f 3 4 5
f 3 2 1
f 1 4 3
f 12 14 26
f 26 10 12
f 6 8 26
f 20 21 26
f 21 23 26
f 33 34 26
f 26 31 33
f 26 37 39
f 39 2 26
f 26 18 20
f 26 23 25
f 26 3 6
f 26 34 37
f 16 18 26
f 26 14 16
f 29 31 26
f 8 10 26
f 2 3 26
f 25 24 26
f 24 27 26
f 28 29 26
f 26 27 28

