# https://github.com/mikedh/trimesh
v 0.00427889 -0.04328904 0.00000000
v -0.00675520 -0.04297229 0.00000000
v -0.01735429 -0.03988833 0.00000000
v -0.02683584 -0.03423576 0.00000000
v -0.03458931 -0.02637859 0.00000000
v -0.04011539 -0.01682276 0.00000000
v -0.04152225 -0.01296738 0.00000000
v -0.04305825 -0.00618363 0.00000000
v -0.04322837 0.00485369 0.00000000
v -0.04061479 0.01557846 0.00000000
v -0.03538584 0.02530005 0.00000000
v -0.00807635 0.04274368 0.00000000
v 0.00294273 0.04340035 0.00000000
v -0.01857536 0.03933454 0.00000000
v -0.02787820 0.03339245 0.00000000
v 0.23233280 -0.02003113 0.00000000
v 0.23963737 -0.00465041 0.00000000
v 0.20929377 -0.02999169 0.00000000
v 0.21783401 -0.02895908 0.00000000
v 0.20999999 0.03000000 0.00000000
v 0.21851356 0.02876663 0.00000000
v 0.22632711 0.02516795 0.00000000
v 0.23279816 0.01949984 0.00000000
v 0.23739465 0.01222837 0.00000000
v 0.23973863 0.00395143 0.00000000
v 0.00294273 0.04340035 -0.01500000
v 0.23973863 0.00395143 -0.01500000
v 0.23963737 -0.00465041 -0.01500000
v 0.23709919 -0.01286988 -0.01500000
v 0.23233280 -0.02003113 -0.01500000
v 0.22573011 -0.02554533 -0.01500000
v 0.21783401 -0.02895908 -0.01500000
v 0.23739465 0.01222837 -0.01500000
v 0.23279816 0.01949984 -0.01500000
v 0.22632711 0.02516795 -0.01500000
v 0.20999999 0.03000000 -0.01500000
v -0.03066067 -0.03085730 -0.01500000
v -0.02683584 -0.03423576 -0.01500000
v -0.01735429 -0.03988833 -0.01500000
v -0.03458931 -0.02637859 -0.01500000
v -0.04152225 -0.01296738 -0.01500000
v -0.04011539 -0.01682276 -0.01500000
v -0.04120988 0.01392825 -0.01500000
v -0.04322837 0.00485369 -0.01500000
v -0.04305825 -0.00618363 -0.01500000
v -0.04061479 0.01557846 -0.01500000
v -0.01857536 0.03933454 -0.01500000
v -0.02787820 0.03339245 -0.01500000
v -0.03538584 0.02530005 -0.01500000
v -0.00807635 0.04274368 -0.01500000
v 0.01834172 -0.05712776 -0.01500000
v 0.01428145 -0.05746289 -0.01500000
v 0.01048942 -0.05597341 -0.01500000
v 0.22573011 -0.02554533 0.00000000
v 0.23709919 -0.01286988 0.00000000
v 0.21851356 0.02876663 -0.01500000
v 0.01834172 -0.05712776 -0.01000000
v 0.01428145 -0.05746289 -0.01000000
v 0.01048942 -0.05597341 -0.01000000
f 4 37 38
f 1 58 18
f 2 58 1
f 3 58 2
f 59 58 3
f 19 18 57
f 57 18 58
f 5 37 4
f 37 5 40
f 6 8 7
f 43 44 9
f 43 10 46
f 9 10 43
f 12 26 50
f 13 26 12
f 17 28 27
f 17 27 25
f 32 31 54
f 54 19 32
f 54 31 30
f 30 16 54
f 57 51 32
f 32 19 57
f 52 51 57
f 57 58 52
f 5 2 6
f 4 3 5
f 3 2 5
f 48 49 11
f 11 15 48
f 36 20 21
f 21 56 36
f 36 26 13
f 13 20 36
f 30 29 55
f 55 16 30
f 55 29 28
f 28 17 55
f 55 17 25
f 55 23 22
f 25 24 55
f 22 18 55
f 55 24 23
f 19 54 55
f 55 18 19
f 55 54 16
f 52 58 53
f 58 59 53
f 1 18 8
f 8 20 13
f 8 18 22
f 21 20 8
f 8 22 21
f 6 2 8
f 8 2 1
f 25 27 33
f 33 24 25
f 23 24 33
f 33 34 23
f 21 22 35
f 35 56 21
f 22 23 35
f 23 34 35
f 48 15 47
f 15 14 47
f 47 12 50
f 47 14 12
f 39 3 4
f 4 38 39
f 39 53 59
f 39 59 3
f 45 8 9
f 9 44 45
f 41 7 45
f 45 7 8
f 42 7 41
f 6 7 42
f 42 5 6
f 42 40 5
f 10 11 49
f 49 46 10
f 15 11 10
f 12 14 10
f 10 8 13
f 10 14 15
f 9 8 10
f 13 12 10
f 43 51 52
f 43 42 41
f 43 31 32
f 56 35 43
f 43 36 56
f 27 28 43
f 43 29 30
f 43 39 38
f 37 40 43
f 30 31 43
f 32 51 43
f 43 38 37
f 43 49 48
f 50 26 43
f 28 29 43
f 52 53 43
f 43 33 27
f 26 36 43
f 48 47 43
f 43 45 44
f 34 33 43
f 43 35 34
f 43 46 49
f 43 47 50
f 53 39 43
f 41 45 43
f 40 42 43

