# https://github.com/mikedh/trimesh
v 0.14105302 0.06285930 0.00800000
v 0.14467686 0.06594768 0.00800000
v 0.14926633 0.06721534 0.00800000
v 0.15396158 0.06642478 0.00800000
v 0.15788290 0.06372412 0.00800000
v 0.16029559 0.05961934 0.00800000
v 0.16074765 0.05487952 0.00800000
v 0.15915436 0.05039269 0.00800000
v 0.00789791 -0.10026252 0.00800000
v 0.01228570 -0.10172301 0.00800000
v 0.01688602 -0.10125100 0.00800000
v 0.02088581 -0.09892990 0.00800000
v 0.12079762 -0.00814096 0.00800000
v 0.12263177 -0.00598118 0.00800000
v 0.00477520 -0.08407448 0.00800000
v 0.00278545 -0.08824901 0.00800000
v 0.00268731 -0.09287245 0.00800000
v 0.00449815 -0.09712764 0.00800000
v 0.14105302 0.06285930 -0.00000000
v 0.14467686 0.06594768 -0.00000000
v 0.14926633 0.06721534 -0.00000000
v 0.15396158 0.06642478 -0.00000000
v 0.15788290 0.06372412 -0.00000000
v 0.16029559 0.05961934 -0.00000000
v 0.16074765 0.05487952 -0.00000000
v 0.15915436 0.05039269 -0.00000000
v 0.15581422 0.04699949 -0.00000000
v 0.14001262 0.06164099 -0.00000000
v 0.12079762 -0.00814096 -0.00000000
v 0.02088581 -0.09892990 -0.00000000
v 0.12263177 -0.00598118 -0.00000000
v 0.01688602 -0.10125100 -0.00000000
v 0.01228570 -0.10172301 -0.00000000
v 0.00789791 -0.10026252 -0.00000000
v 0.00449815 -0.09712764 -0.00000000
v 0.00268731 -0.09287245 -0.00000000
v 0.00278545 -0.08824901 -0.00000000
v 0.00477520 -0.08407448 -0.00000000
v 0.06049120 -0.04983507 -0.00000000
v 0.12450646 -0.00242047 -0.00000000
f 21 22 20
f 28 19 20
f 28 38 19
f 20 38 28
f 37 38 36
f 27 26 40
f 40 32 39
f 40 31 29
f 26 31 40
f 1 2 19
f 19 2 20
f 7 25 6
f 25 24 6
f 15 1 38
f 1 19 38
f 21 2 3
f 20 2 21
f 3 4 21
f 4 22 21
f 5 6 23
f 23 6 24
f 23 4 5
f 23 22 4
f 26 24 25
f 27 24 26
f 7 8 26
f 26 25 7
f 13 12 30
f 29 13 30
f 17 16 37
f 37 36 17
f 37 16 15
f 15 38 37
f 31 14 13
f 31 13 29
f 31 8 14
f 31 26 8
f 17 36 18
f 36 35 18
f 18 35 34
f 34 9 18
f 7 6 10
f 10 8 7
f 10 4 3
f 10 16 17
f 3 2 10
f 10 1 15
f 15 16 10
f 5 4 10
f 10 12 13
f 10 2 1
f 13 14 10
f 14 8 10
f 10 6 5
f 10 11 12
f 17 18 10
f 10 18 9
f 32 30 12
f 12 11 32
f 30 32 40
f 29 30 40
f 40 39 22
f 22 23 40
f 40 23 24
f 40 24 27
f 33 9 34
f 33 10 9
f 11 10 33
f 33 32 11
f 34 35 33
f 33 35 36
f 22 39 33
f 33 38 20
f 36 38 33
f 20 22 33
f 39 32 33

