# https://github.com/mikedh/trimesh
v 0.15072757 0.06719323 -0.00800000
v 0.15072757 0.06719323 0.00000000
v 0.14730628 0.06693621 -0.00800000
v 0.14730628 0.06693621 0.00000000
v 0.14413059 0.06563766 -0.00800000
v 0.14413059 0.06563766 0.00000000
v 0.14150944 0.06342388 0.00000000
v 0.14150944 0.06342388 -0.00800000
v 0.13969782 0.06051024 -0.00800000
v 0.13887197 0.05718019 -0.00800000
v 0.13969782 0.06051024 0.00000000
v 0.13887197 0.05718019 0.00000000
v 0.13911223 0.05375769 0.00000000
v 0.13911223 0.05375769 -0.00800000
v 0.14039524 0.05057568 -0.00800000
v 0.14039524 0.05057568 0.00000000
v 0.14259616 0.04794373 -0.00800000
v 0.14259616 0.04794373 0.00000000
v 0.14550090 0.04611788 -0.00800000
v 0.14882687 0.04527574 -0.00800000
v 0.14882687 0.04527574 0.00000000
v 0.15225050 0.04549925 0.00000000
v 0.24668054 0.04523266 -0.00800000
v 0.24668054 0.04523266 0.00000000
v 0.25012124 0.04586736 -0.00800000
v 0.25012124 0.04586736 0.00000000
v 0.25318861 0.04755040 -0.00800000
v 0.25318861 0.04755040 0.00000000
v 0.25557229 0.05011152 -0.00800000
v 0.25557229 0.05011152 0.00000000
v 0.25703117 0.05329163 -0.00800000
v 0.25741762 0.05676899 -0.00800000
v 0.25703117 0.05329163 0.00000000
v 0.25741762 0.05676899 0.00000000
v 0.25669256 0.06019179 -0.00800000
v 0.25669256 0.06019179 0.00000000
v 0.25492933 0.06321378 -0.00800000
v 0.25230634 0.06552921 -0.00800000
v 0.24908893 0.06690384 -0.00800000
v 0.24908893 0.06690384 0.00000000
v 0.24560261 0.06719861 -0.00800000
v 0.24560261 0.06719861 0.00000000
v 0.14302911 0.06044129 0.00000000
v 0.25492933 0.06321378 0.00000000
v 0.25230634 0.06552921 0.00000000
v 0.14550090 0.04611788 0.00000000
f 36 33 34
f 30 33 28
f 21 18 46
f 43 22 28
f 11 12 7
f 7 12 43
f 6 2 4
f 24 20 23
f 21 20 24
f 26 25 27
f 26 27 28
f 26 24 23
f 23 25 26
f 32 35 34
f 34 35 36
f 34 31 32
f 34 33 31
f 27 29 30
f 28 27 30
f 30 29 31
f 31 33 30
f 46 20 21
f 46 19 20
f 17 19 46
f 46 18 17
f 22 26 28
f 24 26 22
f 21 24 22
f 1 2 42
f 42 41 1
f 4 2 1
f 1 3 4
f 10 14 12
f 12 14 13
f 12 9 10
f 11 9 12
f 40 39 41
f 40 41 42
f 38 39 40
f 40 45 38
f 2 43 44
f 42 2 44
f 44 43 28
f 44 33 36
f 44 40 42
f 28 33 44
f 45 40 44
f 36 35 44
f 35 37 44
f 44 37 38
f 38 45 44
f 16 12 13
f 16 18 21
f 21 22 16
f 22 43 16
f 43 12 16
f 14 15 16
f 13 14 16
f 17 18 16
f 16 15 17
f 4 3 6
f 3 5 6
f 6 43 2
f 6 7 43
f 8 25 23
f 8 29 27
f 20 19 8
f 32 31 8
f 23 20 8
f 38 37 8
f 8 14 10
f 8 35 32
f 27 25 8
f 17 15 8
f 31 29 8
f 41 39 8
f 8 19 17
f 10 9 8
f 8 39 38
f 8 37 35
f 8 1 41
f 8 15 14
f 3 1 8
f 8 5 3
f 8 9 11
f 11 7 8
f 8 6 5
f 7 6 8

