# Exact connected-component conservative convex envelope; metres.
v -0.075568430125713348 -0.014982129447162151 1.8998980166884394e-10
v -0.075568430125713348 -0.014982129447162151 0.014999999664723873
v -0.07541222870349884 -0.019924769178032875 1.8998974615769271e-10
v -0.07541222870349884 -0.019924769178032875 0.014999999664723873
v -0.073543727397918701 -0.010470511391758919 1.8998980166884394e-10
v -0.073543727397918701 -0.010470511391758919 0.014999999664723873
v -0.073106668889522552 -0.024299535900354385 1.8998974615769271e-10
v -0.073106668889522552 -0.024299535900354385 0.014999999664723873
v -0.069747291505336761 -0.0073017175309360027 1.8998974615769271e-10
v -0.069747291505336761 -0.0073017175309360027 0.014999999664723873
v -0.069117709994316101 -0.027222273871302605 1.8998980166884394e-10
v -0.069117709994316101 -0.027222273871302605 0.014999999664723873
v -0.065116092562675476 -0.0049561187624931335 1.8998980166884394e-10
v -0.064251542091369629 -0.028102293610572815 1.8998974615769271e-10
v -0.064251542091369629 -0.028102293610572815 0.014999999664723873
v -0.063894234597682953 -0.0043372809886932373 0.014999999664723873
v -0.016454648226499557 0.019689746201038361 0.014999999664723873
v -0.01129574328660965 0.02230260893702507 1.8998974615769271e-10
v -0.01129574328660965 0.02230260893702507 0.014999999664723873
v -0.0035459485370665789 0.024747246876358986 1.8998980166884394e-10
v -0.0035459485370665789 0.024747246876358986 0.014999999664723873
v 0.23538827896118164 -0.010864561423659325 0.050299998372793198
v 0.23554360866546631 -0.012129008769989014 0.050299998372793198
v 0.23620963096618652 -0.013214996084570885 0.050299998372793198
v 0.23761285841464996 -0.034139163792133331 0.032349999994039536
v 0.23950593173503876 -0.015958836302161217 0.050299998372793198
v 0.23963131010532379 0.01496768556535244 0.050299998372793198
v 0.23975586891174316 -0.016120413318276405 0.050299998372793198
v 0.24018295109272003 0.016116010025143623 0.050299998372793198
v 0.24095164239406586 -0.016559820622205734 0.050299998372793198
v 0.24116137623786926 0.016931885853409767 0.050299998372793198
v 0.24142627418041229 0.017067551612854004 0.050299998372793198
v 0.24222195148468018 -0.016463382169604301 0.050299998372793198
v 0.24367263913154602 -0.026248134672641754 0.040849998593330383
v 0.24545066058635712 0.018550293520092964 0.050299998372793198
v 0.24672417342662811 0.018584113568067551 0.050299998372793198
v 0.24700938165187836 0.00023699447046965361 -0.013100000098347664
v 0.24729155004024506 -0.0012900709407404065 -0.013100000098347664
v 0.24752853810787201 0.0017005543923005462 -0.013100000098347664
v 0.24789687991142273 0.018086405470967293 0.050299998372793198
v 0.24801017343997955 -0.02993394248187542 1.8998969064654148e-10
v 0.24829944968223572 -0.0024714593309909105 -0.013100000098347664
v 0.2484629899263382 0.018215266987681389 -0.0080926176160573959
v 0.24870993196964264 0.0027084571775048971 -0.013100000098347664
v 0.24950142204761505 -0.030995991080999374 0.036350000649690628
v 0.24974325299263 -0.0032398472540080547 -0.013033012859523296
v 0.24976301193237305 -0.0029906220734119415 -0.013100000098347664
v 0.25018298625946045 0.029999436810612679 1.8998974615769271e-10
v 0.25023698806762695 0.0029906225390732288 -0.013100000098347664
v 0.25025674700737 0.003239847719669342 -0.013033012859523296
v 0.25069868564605713 0.036493316292762756 0.022699998691678047
v 0.25069868564605713 0.036493316292762756 0.032349999994039536
v 0.25126484036445618 0.029973326250910759 1.8998969064654148e-10
v 0.25129008293151855 -0.0027084567118436098 -0.013100000098347664
v 0.25139757990837097 -0.0029341632034629583 -0.013033012859523296
v 0.25153699517250061 -0.018215272575616837 -0.0080926176160573959
v 0.25170055031776428 0.0024714600294828415 -0.013100000098347664
v 0.25184226036071777 0.0026774175930768251 -0.013033012859523296
v 0.25232794880867004 -0.029909536242485046 1.8998969064654148e-10
v 0.25247147679328918 -0.001700553810223937 -0.013100000098347664
v 0.25267741084098816 -0.0018422702560201287 -0.013033012859523296
v 0.25270846486091614 0.0012900715228170156 -0.013100000098347664
v 0.25293415784835815 0.0013975740876048803 -0.013033012859523296
v 0.25299063324928284 -0.0002369939029449597 -0.013100000098347664
v 0.25303161144256592 -0.026829265058040619 0.040849998593330383
v 0.25323984026908875 -0.00025674281641840935 -0.013033012859523296
v 0.25332066416740417 -0.017970787361264229 -0.0081000002101063728
v 0.25380924344062805 0.017873607575893402 -0.0081000002101063728
v 0.25382125377655029 0.036299426108598709 0.022699998691678047
v 0.25382125377655029 0.036299426108598709 0.032349999994039536
v 0.25382938981056213 -0.02975459024310112 1.8998969064654148e-10
v 0.25438675284385681 0.017745841294527054 -0.0080926176160573959
v 0.25452864170074463 0.036033522337675095 0.022699998691678047
v 0.25452864170074463 0.036033522337675095 0.032349999994039536
v 0.25505203008651733 -0.017568424344062805 -0.0080920187756419182
v 0.25507387518882751 -0.017561724409461021 -0.0080926176160573959
v 0.25529149174690247 0.029529649764299393 1.8998969064654148e-10
v 0.25632736086845398 0.026248132809996605 0.040849998593330383
v 0.25642755627632141 0.029303355142474174 1.8998969064654148e-10
v 0.25682222843170166 0.029213987290859222 1.8998974615769271e-10
v 0.25777655839920044 0.016543392091989517 -0.0080926176160573959
v 0.25806865096092224 -0.03540932759642601 0.022699998691678047
v 0.25806865096092224 -0.03540932759642601 0.032349999994039536
v 0.25882434844970703 -0.035417243838310242 0.022699998691678047
v 0.25882434844970703 -0.035417243838310242 0.032349999994039536
v 0.25984376668930054 -0.035147547721862793 0.02669999934732914
v 0.25994500517845154 -0.015332087874412537 -0.0081000002101063728
v 0.26011568307876587 -0.035070262849330902 0.032349999994039536
v 0.26026120781898499 -0.03502795472741127 0.022699998691678047
v 0.26033660769462585 -0.024943023920059204 0.040849998593330383
v 0.26035919785499573 0.015055320225656033 -0.0081000002101063728
v 0.2604387104511261 -0.015006384812295437 -0.0080926176160573959
v 0.26107263565063477 -0.034779977053403854 0.02669999934732914
v 0.26182487607002258 -0.03453146293759346 0.022699998691678047
v 0.26182487607002258 -0.03453146293759346 0.032349999994039536
v 0.26202493906021118 -0.024174386635422707 0.040849998593330383
v 0.26245513558387756 -0.034114416688680649 0.022699998691678047
v 0.26245513558387756 -0.034114416688680649 0.032349999994039536
v 0.26267194747924805 0.013174975290894508 -0.0080926176160573959
v 0.26317498087882996 -0.012671953998506069 -0.0080926176160573959
v 0.26374730467796326 -0.026664797216653824 1.8998969064654148e-10
v 0.26492318511009216 0.022501096129417419 0.040849998593330383
v 0.26500639319419861 0.010438724420964718 -0.0080926176160573959
v 0.2650553286075592 -0.010359209030866623 -0.0081000002101063728
v 0.26533210277557373 0.0099450116977095604 -0.0081000002101063728
v 0.26637634634971619 0.025135928764939308 1.8998969064654148e-10
v 0.26654338836669922 -0.0077765509486198425 -0.0080926176160573959
v 0.26671484112739563 -0.0072218440473079681 0.050299998372793198
v 0.26756173372268677 0.0050738840363919735 -0.0080926176160573959
v 0.26773223280906677 -0.0064551006071269512 0.050299998372793198
v 0.26774585247039795 -0.004386750515550375 -0.0080926176160573959
v 0.26787358522415161 -0.0038092457689344883 -0.0081000002101063728
v 0.26797080039978027 0.0033206518273800611 -0.0081000002101063728
v 0.26814672350883484 0.0014957009116187692 0.050299998372793198
v 0.26821526885032654 0.0015370117034763098 -0.0080926176160573959
v 0.26833969354629517 -0.0053353053517639637 0.050299998372793198
v 0.26864469051361084 -0.024766422808170319 0.036350000649690628
v 0.26886540651321411 0.00044380608596839011 0.050299998372793198
v 0.26906779408454895 -0.0011087057646363974 0.050299998372793198
v 0.26908275485038757 -0.00081146811135113239 0.050299998372793198
v 0.26956787705421448 -0.018603719770908356 0.040849998593330383
v 0.27171900868415833 0.016040090471506119 0.040849998593330383
v 0.27201688289642334 -0.020377837121486664 1.8998969064654148e-10
v 0.27331638336181641 0.027843665331602097 0.022699998691678047
v 0.27331638336181641 0.027843665331602097 0.032349999994039536
v 0.27396693825721741 0.018044006079435349 1.8998974615769271e-10
v 0.27399268746376038 0.027506392449140549 0.022699998691678047
v 0.27399268746376038 0.027506392449140549 0.032349999994039536
v 0.27589523792266846 0.007644405122846365 0.040849998593330383
v 0.27626007795333862 0.025350721552968025 0.022699998691678047
v 0.27626007795333862 0.025350721552968025 0.032349999994039536
v 0.27663105726242065 0.024692315608263016 0.022699998691678047
v 0.27663105726242065 0.024692315608263016 0.032349999994039536
v 0.27763622999191284 -0.011672161519527435 1.8998969064654148e-10
v 0.27764660120010376 -0.011647521518170834 1.8998969064654148e-10
v 0.27868381142616272 0.0087885633111000061 1.8998969064654148e-10
v 0.27894163131713867 -0.021938692778348923 0.022699998691678047
v 0.27894163131713867 -0.021938692778348923 0.032349999994039536
v 0.27952560782432556 -0.021459007635712624 0.022699998691678047
v 0.27952560782432556 -0.021459007635712624 0.032349999994039536
v 0.27996143698692322 -0.0015206417301669717 1.8998974615769271e-10
v 0.28125479817390442 -0.018851742148399353 0.022699998691678047
v 0.28125479817390442 -0.018851742148399353 0.032349999994039536
v 0.28146952390670776 -0.018127148970961571 0.022699998691678047
v 0.28146952390670776 -0.018127148970961571 0.032349999994039536
v 0.28575894236564636 0.0063420082442462444 0.022699998691678047
v 0.28575894236564636 0.0063420082442462444 0.032349999994039536
v 0.28606021404266357 0.0056489217095077038 0.022699998691678047
v 0.28606021404266357 0.0056489217095077038 0.032349999994039536
v 0.28627249598503113 0.0017972942441701889 0.022699998691678047
v 0.28627249598503113 0.0017972942441701889 0.032349999994039536
v 0.28641149401664734 0.0025401317980140448 0.022699998691678047
v 0.28641149401664734 0.0025401317980140448 0.032349999994039536
f 1 2 5
f 1 3 2
f 1 5 39
f 1 37 3
f 1 39 37
f 2 3 4
f 2 4 22
f 2 6 5
f 2 22 27
f 2 27 6
f 3 7 4
f 3 37 38
f 3 38 7
f 4 7 8
f 4 8 23
f 4 23 22
f 5 6 9
f 5 9 44
f 5 44 39
f 6 10 9
f 6 27 29
f 6 29 10
f 7 11 8
f 7 38 42
f 7 42 11
f 8 11 12
f 8 12 26
f 8 24 23
f 8 26 24
f 9 10 13
f 9 13 44
f 10 16 13
f 10 29 31
f 10 31 32
f 10 32 16
f 11 14 15
f 11 15 12
f 11 42 47
f 11 47 14
f 12 15 30
f 12 28 26
f 12 30 28
f 13 16 17
f 13 17 19
f 13 18 44
f 13 19 18
f 14 41 84
f 14 46 56
f 14 47 46
f 14 56 41
f 14 82 15
f 14 84 82
f 15 25 34
f 15 34 30
f 15 82 83
f 15 83 25
f 16 32 17
f 17 32 19
f 18 19 21
f 18 20 44
f 18 21 20
f 19 32 35
f 19 35 21
f 20 21 52
f 20 43 50
f 20 48 43
f 20 49 44
f 20 50 49
f 20 51 48
f 20 52 51
f 21 35 52
f 22 23 35
f 22 35 27
f 23 24 35
f 24 26 35
f 25 45 34
f 25 83 45
f 26 28 35
f 27 35 29
f 28 30 35
f 29 35 31
f 30 33 35
f 30 34 65
f 30 65 33
f 31 35 32
f 33 65 90
f 33 90 108
f 33 108 35
f 34 45 65
f 35 36 52
f 35 40 36
f 35 108 110
f 35 110 116
f 35 114 40
f 35 116 119
f 35 118 114
f 35 119 120
f 35 120 118
f 36 40 78
f 36 70 52
f 36 78 70
f 37 39 49
f 37 49 38
f 38 49 42
f 39 44 49
f 40 102 78
f 40 114 102
f 41 56 59
f 41 59 84
f 42 49 47
f 43 48 53
f 43 53 68
f 43 68 50
f 45 83 65
f 46 47 54
f 46 54 55
f 46 55 67
f 46 67 56
f 47 49 54
f 48 51 53
f 49 50 57
f 49 57 62
f 49 60 54
f 49 62 64
f 49 64 60
f 50 58 57
f 50 68 72
f 50 72 81
f 50 81 58
f 51 52 69
f 51 69 53
f 52 70 69
f 53 69 77
f 53 77 68
f 54 60 55
f 55 60 61
f 55 61 100
f 55 76 67
f 55 87 76
f 55 92 87
f 55 100 92
f 56 67 71
f 56 71 59
f 57 58 62
f 58 63 62
f 58 81 91
f 58 91 99
f 58 99 103
f 58 103 63
f 59 71 84
f 60 64 66
f 60 66 61
f 61 66 111
f 61 104 100
f 61 107 104
f 61 111 107
f 62 63 66
f 62 66 64
f 63 103 105
f 63 105 109
f 63 109 113
f 63 113 66
f 65 83 85
f 65 85 90
f 66 112 111
f 66 113 115
f 66 115 112
f 67 75 71
f 67 76 75
f 68 77 79
f 68 79 80
f 68 80 72
f 69 70 74
f 69 73 80
f 69 74 73
f 69 79 77
f 69 80 79
f 70 78 74
f 71 75 76
f 71 76 101
f 71 89 84
f 71 101 89
f 72 80 81
f 73 74 124
f 73 106 80
f 73 124 106
f 74 78 102
f 74 102 125
f 74 125 124
f 76 87 101
f 80 106 81
f 81 106 91
f 82 84 85
f 82 85 83
f 84 86 85
f 84 89 86
f 85 86 88
f 85 88 90
f 86 89 88
f 87 92 101
f 88 89 93
f 88 93 95
f 88 95 90
f 89 94 93
f 89 101 94
f 90 95 96
f 90 96 108
f 91 106 99
f 92 100 123
f 92 123 101
f 93 94 95
f 94 97 98
f 94 98 95
f 94 101 97
f 95 98 96
f 96 98 117
f 96 117 121
f 96 121 108
f 97 101 137
f 97 137 138
f 97 138 98
f 98 138 117
f 99 106 126
f 99 126 103
f 100 104 123
f 101 123 137
f 102 114 122
f 102 122 131
f 102 128 125
f 102 131 128
f 103 126 105
f 104 107 134
f 104 134 123
f 105 126 136
f 105 136 109
f 106 124 127
f 106 127 126
f 107 111 135
f 107 135 134
f 108 121 110
f 109 136 113
f 110 121 140
f 110 140 143
f 110 143 116
f 111 112 135
f 112 115 141
f 112 141 135
f 113 136 115
f 114 118 122
f 115 136 141
f 116 143 145
f 116 145 151
f 116 151 153
f 116 153 119
f 117 138 121
f 118 120 149
f 118 129 122
f 118 147 129
f 118 149 147
f 119 153 120
f 120 153 149
f 121 138 140
f 122 129 133
f 122 133 131
f 123 134 142
f 123 139 137
f 123 142 139
f 124 125 128
f 124 128 127
f 126 127 130
f 126 130 132
f 126 132 136
f 127 128 131
f 127 131 130
f 129 147 133
f 130 131 133
f 130 133 132
f 132 133 146
f 132 146 136
f 133 147 146
f 134 135 142
f 135 141 150
f 135 144 142
f 135 150 144
f 136 146 148
f 136 148 141
f 137 139 138
f 138 139 140
f 139 142 143
f 139 143 140
f 141 148 152
f 141 152 150
f 142 144 143
f 143 144 145
f 144 150 151
f 144 151 145
f 146 147 148
f 147 149 148
f 148 149 153
f 148 153 152
f 150 152 151
f 151 152 153
