# https://github.com/mikedh/trimesh
v -0.10068265 -0.03009809 -0.00120000
v -0.10068265 -0.03009809 0.00680000
v -0.10473678 -0.02902405 0.00680000
v -0.10473678 -0.02902405 -0.00120000
v -0.10891289 -0.02941071 -0.00120000
v -0.10891289 -0.02941071 0.00680000
v -0.11270091 -0.03121085 -0.00120000
v -0.11270091 -0.03121085 0.00680000
v -0.11563810 -0.03420458 -0.00120000
v -0.11563810 -0.03420458 0.00680000
v -0.11736570 -0.03802621 -0.00120000
v -0.11736570 -0.03802621 0.00680000
v -0.11767268 -0.04220895 -0.00120000
v -0.11767268 -0.04220895 0.00680000
v -0.11652154 -0.04624186 -0.00120000
v -0.11652154 -0.04624186 0.00680000
v -0.11405291 -0.04963234 -0.00120000
v -0.11405291 -0.04963234 0.00680000
v -0.11056831 -0.05196624 -0.00120000
v -0.11056831 -0.05196624 0.00680000
v 0.01299966 -0.10633495 0.00680000
v 0.01707458 -0.10732719 -0.00120000
v 0.01707458 -0.10732719 0.00680000
v 0.02124208 -0.10685655 -0.00120000
v 0.02124208 -0.10685655 0.00680000
v 0.02499308 -0.10498053 -0.00120000
v 0.02499308 -0.10498053 0.00680000
v 0.02786942 -0.10192829 0.00680000
v 0.02786942 -0.10192829 -0.00120000
v 0.02951975 -0.09807266 -0.00120000
v 0.02951975 -0.09807266 0.00680000
v 0.02974248 -0.09388459 -0.00120000
v 0.02974248 -0.09388459 0.00680000
v 0.02851040 -0.08987565 0.00680000
v 0.02851040 -0.08987565 -0.00120000
v 0.02597402 -0.08653555 -0.00120000
v 0.02597402 -0.08653555 0.00680000
v 0.02244315 -0.08427228 -0.00120000
v 0.02244315 -0.08427228 0.00680000
v 0.01299966 -0.10633495 -0.00120000
f 40 21 20
f 20 19 40
f 8 5 7
f 6 5 8
f 37 36 38
f 38 39 37
f 2 38 1
f 2 39 38
f 23 40 22
f 21 40 23
f 22 24 23
f 23 24 25
f 32 35 34
f 34 33 32
f 34 35 36
f 36 37 34
f 18 19 20
f 18 17 19
f 15 17 18
f 18 16 15
f 14 11 13
f 12 11 14
f 13 15 14
f 15 16 14
f 32 30 29
f 29 9 7
f 13 11 29
f 19 17 29
f 1 38 29
f 29 15 13
f 29 4 1
f 22 40 29
f 38 36 29
f 29 35 32
f 29 40 19
f 7 5 29
f 29 24 22
f 36 35 29
f 29 17 15
f 26 24 29
f 11 9 29
f 5 4 29
f 27 24 26
f 25 24 27
f 26 29 27
f 27 29 28
f 31 30 32
f 32 33 31
f 31 29 30
f 28 29 31
f 10 9 11
f 10 11 12
f 10 8 7
f 7 9 10
f 25 27 3
f 3 10 12
f 6 8 3
f 20 21 3
f 21 23 3
f 33 34 3
f 3 31 33
f 3 37 39
f 39 2 3
f 3 18 20
f 3 23 25
f 12 14 3
f 3 34 37
f 16 18 3
f 3 14 16
f 3 27 28
f 28 31 3
f 8 10 3
f 3 5 6
f 3 4 5
f 3 2 1
f 1 4 3

