# https://github.com/mikedh/trimesh
v -0.01735429 -0.03988833 -0.00000000
v -0.00675520 -0.04297229 -0.00000000
v 0.00427889 -0.04328904 -0.00000000
v -0.04152225 -0.01296738 -0.00000000
v -0.03458931 -0.02637859 -0.00000000
v -0.04011539 -0.01682276 -0.00000000
v -0.02683584 -0.03423576 -0.00000000
v -0.04305825 -0.00618363 -0.00000000
v -0.04322837 0.00485369 -0.00000000
v -0.04120988 0.01392825 -0.00000000
v 0.00294273 0.04340035 -0.00000000
v -0.00807635 0.04274368 -0.00000000
v -0.01857536 0.03933454 -0.00000000
v -0.03538584 0.02530005 -0.00000000
v -0.04061479 0.01557846 -0.00000000
v -0.02787820 0.03339245 -0.00000000
v 0.23739465 0.01222837 -0.00000000
v 0.23973863 0.00395143 -0.00000000
v 0.23963737 -0.00465041 -0.00000000
v 0.23709919 -0.01286988 -0.00000000
v 0.23233280 -0.02003113 -0.00000000
v 0.22573011 -0.02554533 -0.00000000
v 0.21783401 -0.02895908 -0.00000000
v 0.20929377 -0.02999169 -0.00000000
v 0.20999999 0.03000000 -0.00000000
v 0.21851356 0.02876663 -0.00000000
v 0.22632711 0.02516795 -0.00000000
v 0.23279816 0.01949984 -0.00000000
v -0.01735429 -0.03988833 0.01500000
v 0.20999999 0.03000000 0.01500000
v 0.21851356 0.02876663 0.01500000
v 0.22632711 0.02516795 0.01500000
v 0.23279816 0.01949984 0.01500000
v 0.23739465 0.01222837 0.01500000
v 0.23973863 0.00395143 0.01500000
v 0.23963737 -0.00465041 0.01500000
v 0.23709919 -0.01286988 0.01500000
v 0.23233280 -0.02003113 0.01500000
v 0.22573011 -0.02554533 0.01500000
v 0.21783401 -0.02895908 0.01500000
v 0.00294273 0.04340035 0.01500000
v -0.00807635 0.04274368 0.01500000
v -0.01857536 0.03933454 0.01500000
v -0.02787820 0.03339245 0.01500000
v -0.04305825 -0.00618363 0.01500000
v -0.04322837 0.00485369 0.01500000
v -0.04061479 0.01557846 0.01500000
v -0.03538584 0.02530005 0.01500000
v -0.04011539 -0.01682276 0.01500000
v -0.02683584 -0.03423576 0.01500000
v -0.03458931 -0.02637859 0.01500000
v 0.01048942 -0.05597341 0.01500000
v 0.01428145 -0.05746289 0.01500000
v 0.01048942 -0.05597341 0.01000000
v 0.01428145 -0.05746289 0.01000000
v 0.01834172 -0.05712776 0.01500000
v 0.01834172 -0.05712776 0.01000000
f 24 55 3
f 3 55 2
f 2 55 1
f 1 55 54
f 57 24 23
f 55 24 57
f 4 6 49
f 8 4 45
f 45 4 49
f 10 46 47
f 9 46 10
f 47 15 10
f 26 25 30
f 31 26 30
f 30 25 11
f 11 41 30
f 43 13 16
f 43 16 44
f 40 56 57
f 57 23 40
f 57 56 53
f 53 55 57
f 32 27 26
f 32 26 31
f 28 27 32
f 32 33 28
f 16 14 48
f 44 16 48
f 14 15 48
f 48 15 47
f 42 41 11
f 11 12 42
f 42 12 13
f 13 43 42
f 52 55 53
f 52 54 55
f 28 33 17
f 33 34 17
f 35 19 18
f 36 19 35
f 18 17 35
f 35 17 34
f 50 51 5
f 7 50 5
f 5 51 49
f 49 6 5
f 9 8 45
f 45 46 9
f 40 23 39
f 23 22 39
f 39 22 21
f 21 38 39
f 3 2 20
f 26 27 20
f 20 24 3
f 20 8 9
f 20 22 23
f 11 25 20
f 18 19 20
f 20 12 11
f 20 1 7
f 20 14 16
f 20 25 26
f 16 13 20
f 7 5 20
f 20 27 28
f 6 4 20
f 13 12 20
f 9 10 20
f 23 24 20
f 20 2 1
f 20 17 18
f 20 15 14
f 21 22 20
f 28 17 20
f 20 4 8
f 20 5 6
f 20 10 15
f 20 37 38
f 20 38 21
f 36 37 20
f 20 19 36
f 29 45 49
f 53 56 29
f 36 35 29
f 31 30 29
f 29 43 44
f 29 37 36
f 29 56 40
f 29 32 31
f 29 52 53
f 49 51 29
f 29 30 41
f 44 48 29
f 41 42 29
f 33 32 29
f 29 34 33
f 29 51 50
f 47 46 29
f 29 48 47
f 29 42 43
f 38 37 29
f 40 39 29
f 29 35 34
f 46 45 29
f 29 39 38
f 7 1 29
f 29 50 7
f 54 52 29
f 1 54 29

