# https://github.com/mikedh/trimesh
v 0.13809042 0.06408092 0.00000000
v 0.14156623 0.06733499 0.00000000
v 0.14609158 0.06881538 0.00000000
v 0.15081859 0.06824473 0.00000000
v 0.15486163 0.06572994 0.00000000
v 0.15746319 0.06174219 0.00000000
v 0.15813588 0.05702861 0.00000000
v 0.15675363 0.05247234 0.00000000
v 0.01269019 -0.10507520 0.00000000
v 0.01714134 -0.10632941 0.00000000
v 0.02171464 -0.10564330 0.00000000
v 0.02560179 -0.10313813 0.00000000
v 0.12116935 -0.00778699 0.00000000
v 0.12290075 -0.00554399 0.00000000
v 0.00881569 -0.08905048 0.00000000
v 0.00702285 -0.09331328 0.00000000
v 0.00714052 -0.09793627 0.00000000
v 0.00914789 -0.10210235 0.00000000
v 0.13809042 0.06408092 -0.00800000
v 0.14156623 0.06733499 -0.00800000
v 0.14609158 0.06881538 -0.00800000
v 0.15081859 0.06824473 -0.00800000
v 0.15746319 0.06174219 -0.00800000
v 0.15813588 0.05702861 -0.00800000
v 0.15675363 0.05247234 -0.00800000
v 0.02171464 -0.10564330 -0.00800000
v 0.02560179 -0.10313813 -0.00800000
v 0.12116935 -0.00778699 -0.00800000
v 0.12290075 -0.00554399 -0.00800000
v 0.01269019 -0.10507520 -0.00800000
v 0.00914789 -0.10210235 -0.00800000
v 0.00714052 -0.09793627 -0.00800000
v 0.00702285 -0.09331328 -0.00800000
v 0.00881569 -0.08905048 -0.00800000
v 0.01714134 -0.10632941 -0.00800000
v 0.15486163 0.06572994 -0.00800000
f 16 1 15
f 17 18 16
f 1 2 20
f 19 1 20
f 28 13 12
f 12 27 28
f 34 1 19
f 34 15 1
f 34 33 16
f 16 15 34
f 25 24 7
f 7 8 25
f 3 4 21
f 21 4 22
f 21 2 3
f 21 20 2
f 9 18 31
f 31 30 9
f 10 11 16
f 16 18 10
f 10 18 9
f 26 27 12
f 12 11 26
f 6 13 7
f 6 4 3
f 3 2 6
f 6 1 16
f 12 13 6
f 6 2 1
f 16 11 6
f 6 11 12
f 5 4 6
f 24 23 6
f 7 24 6
f 36 4 5
f 22 4 36
f 5 6 36
f 36 6 23
f 7 13 14
f 14 8 7
f 16 33 32
f 32 17 16
f 32 31 18
f 18 17 32
f 9 30 35
f 35 10 9
f 11 10 35
f 35 26 11
f 29 21 22
f 19 20 29
f 27 26 29
f 29 35 30
f 29 34 19
f 24 25 29
f 29 28 27
f 22 36 29
f 33 34 29
f 29 23 24
f 20 21 29
f 30 31 29
f 29 32 33
f 29 36 23
f 31 32 29
f 26 35 29
f 13 28 29
f 29 14 13
f 29 25 8
f 8 14 29

