# https://github.com/mikedh/trimesh
v 0.14806469 0.06883156 -0.00000000
v 0.14464340 0.06857455 -0.00000000
v 0.14806469 0.06883156 0.00800000
v 0.14464340 0.06857455 0.00800000
v 0.14146771 0.06727599 -0.00000000
v 0.14146771 0.06727599 0.00800000
v 0.13884656 0.06506222 -0.00000000
v 0.13884656 0.06506222 0.00800000
v 0.13703494 0.06214858 -0.00000000
v 0.13703494 0.06214858 0.00800000
v 0.13620909 0.05881853 -0.00000000
v 0.13620909 0.05881853 0.00800000
v 0.13773236 0.05221403 -0.00000000
v 0.13773236 0.05221403 0.00800000
v 0.13993327 0.04958208 -0.00000000
v 0.13993327 0.04958208 0.00800000
v 0.14283802 0.04775622 0.00800000
v 0.14283802 0.04775622 -0.00000000
v 0.14616399 0.04691408 -0.00000000
v 0.14616399 0.04691408 0.00800000
v 0.24401766 0.04687101 -0.00000000
v 0.24745837 0.04750570 -0.00000000
v 0.24401766 0.04687101 0.00800000
v 0.25052571 0.04918874 -0.00000000
v 0.24745837 0.04750570 0.00800000
v 0.25290942 0.05174987 -0.00000000
v 0.25290942 0.05174987 0.00800000
v 0.25436828 0.05492997 -0.00000000
v 0.25436828 0.05492997 0.00800000
v 0.25475472 0.05840733 -0.00000000
v 0.25475472 0.05840733 0.00800000
v 0.25402966 0.06183013 0.00800000
v 0.25402966 0.06183013 -0.00000000
v 0.25226644 0.06485212 -0.00000000
v 0.25226644 0.06485212 0.00800000
v 0.24964346 0.06716755 0.00800000
v 0.24964346 0.06716755 -0.00000000
v 0.24642605 0.06854218 -0.00000000
v 0.24642605 0.06854218 0.00800000
v 0.24293973 0.06883695 -0.00000000
v 0.24293973 0.06883695 0.00800000
v 0.25052571 0.04918874 0.00800000
v 0.13644935 0.05539603 0.00800000
v 0.13644935 0.05539603 -0.00000000
f 40 2 1
f 23 19 21
f 23 20 19
f 20 17 18
f 19 20 18
f 1 3 41
f 41 40 1
f 4 3 1
f 1 2 4
f 30 37 33
f 33 37 34
f 34 37 36
f 35 34 36
f 15 18 16
f 16 18 17
f 32 33 34
f 32 34 35
f 30 33 32
f 32 31 30
f 26 28 29
f 27 26 29
f 29 28 30
f 30 31 29
f 25 23 21
f 21 22 25
f 9 37 30
f 21 19 9
f 9 22 21
f 15 13 9
f 9 5 2
f 9 2 40
f 19 18 9
f 30 28 9
f 26 24 9
f 9 18 15
f 7 5 9
f 9 28 26
f 9 44 11
f 40 38 9
f 9 24 22
f 9 38 37
f 9 13 44
f 11 44 12
f 12 44 43
f 12 9 11
f 10 9 12
f 2 5 6
f 4 2 6
f 42 26 27
f 42 24 26
f 22 24 42
f 42 25 22
f 39 40 41
f 39 38 40
f 39 36 37
f 37 38 39
f 44 13 14
f 43 44 14
f 15 16 14
f 14 13 15
f 20 23 8
f 41 3 8
f 8 16 17
f 8 12 43
f 8 17 20
f 8 3 4
f 8 32 35
f 27 29 8
f 8 42 27
f 35 36 8
f 8 39 41
f 4 6 8
f 31 32 8
f 8 29 31
f 23 25 8
f 10 12 8
f 43 14 8
f 25 42 8
f 36 39 8
f 8 14 16
f 7 9 8
f 8 9 10
f 8 5 7
f 8 6 5

