# Exact connected-component conservative convex envelope; metres.
v 0.21840471029281616 0.0031304559670388699 -0.030350001528859138
v 0.21840471029281616 0.0031304559670388699 -0.02971000038087368
v 0.21910016238689423 -0.0072981426492333412 -0.030350001528859138
v 0.21910016238689423 -0.0072981426492333412 -0.02971000038087368
v 0.22113308310508728 0.013219813816249371 -0.030350001528859138
v 0.22113308310508728 0.013219813816249371 -0.02971000038087368
v 0.22314411401748657 -0.016935862600803375 -0.030350001528859138
v 0.22314411401748657 -0.016935862600803375 -0.02971000038087368
v 0.22698962688446045 0.02187659777700901 -0.030350001528859138
v 0.22698962688446045 0.02187659777700901 -0.02971000038087368
v 0.23009829223155975 -0.024738330394029617 -0.030350001528859138
v 0.23009829223155975 -0.024738330394029617 -0.02971000038087368
v 0.23321415483951569 -0.026949912309646606 -0.02971000038087368
v 0.23533973097801208 0.028162719681859016 -0.030350001528859138
v 0.23533973097801208 0.028162719681859016 -0.02971000038087368
v 0.23920914530754089 -0.029860006645321846 -0.030350001528859138
v 0.23920914530754089 -0.029860006645321846 -0.02971000038087368
v 0.24527846276760101 0.031396966427564621 -0.030350001528859138
v 0.24527846276760101 0.031396966427564621 -0.02971000038087368
v 0.24948935210704803 -0.031745892018079758 -0.030350001528859138
v 0.24948935210704803 -0.031745892018079758 -0.02971000038087368
v 0.25572887063026428 0.031228877604007721 -0.030350001528859138
v 0.25572887063026428 0.031228877604007721 -0.02971000038087368
v 0.25982490181922913 -0.030191618949174881 -0.030350001528859138
v 0.25982490181922913 -0.030191618949174881 -0.02971000038087368
v 0.26555848121643066 0.027676640078425407 -0.030350001528859138
v 0.26555848121643066 0.027676640078425407 -0.02971000038087368
v 0.26678583025932312 0.026949912309646606 -0.02971000038087368
v 0.26909574866294861 -0.025365613400936127 -0.030350001528859138
v 0.26909574866294861 -0.025365613400936127 -0.02971000038087368
v 0.27301034331321716 -0.021876603364944458 -0.030350001528859138
v 0.27370205521583557 0.021125219762325287 -0.030350001528859138
v 0.27370205521583557 0.021125219762325287 -0.02971000038087368
v 0.27629730105400085 -0.017790848389267921 -0.030350001528859138
v 0.27629730105400085 -0.017790848389267921 -0.02971000038087368
v 0.27927717566490173 0.012284549884498119 -0.030350001528859138
v 0.27927717566490173 0.012284549884498119 -0.02971000038087368
v 0.28064912557601929 -0.0082881730049848557 -0.030350001528859138
v 0.28064912557601929 -0.0082881730049848557 -0.02971000038087368
v 0.28167963027954102 0.0021126545034348965 -0.030350001528859138
v 0.28167963027954102 0.0021126545034348965 -0.02971000038087368
f 1 2 6
f 1 3 2
f 1 5 36
f 1 6 5
f 1 36 3
f 2 3 4
f 2 4 28
f 2 28 6
f 3 7 8
f 3 8 4
f 3 36 7
f 4 8 28
f 5 6 9
f 5 9 36
f 6 10 9
f 6 28 10
f 7 11 8
f 7 36 11
f 8 11 12
f 8 12 28
f 9 10 15
f 9 14 36
f 9 15 14
f 10 28 15
f 11 13 12
f 11 16 13
f 11 36 16
f 12 13 28
f 13 16 17
f 13 17 28
f 14 15 18
f 14 18 36
f 15 19 18
f 15 28 19
f 16 20 21
f 16 21 17
f 16 36 20
f 17 21 28
f 18 19 23
f 18 22 36
f 18 23 22
f 19 28 23
f 20 24 21
f 20 36 24
f 21 24 25
f 21 25 28
f 22 23 27
f 22 26 36
f 22 27 26
f 23 28 27
f 24 29 30
f 24 30 25
f 24 36 29
f 25 30 28
f 26 27 28
f 26 28 32
f 26 32 36
f 28 30 35
f 28 33 32
f 28 35 39
f 28 37 33
f 28 39 41
f 28 41 37
f 29 31 30
f 29 36 31
f 30 31 35
f 31 34 35
f 31 36 34
f 32 33 37
f 32 37 36
f 34 36 38
f 34 38 39
f 34 39 35
f 36 37 40
f 36 40 38
f 37 41 40
f 38 40 39
f 39 40 41
