# Exact connected-component conservative convex envelope; metres.
v -0.075568430125713348 -0.014982129447162151 -0.014999999664723873
v -0.075568430125713348 -0.014982129447162151 1.8998910777945355e-10
v -0.07541222870349884 -0.019924769178032875 -0.014999999664723873
v -0.07541222870349884 -0.019924769178032875 1.8998910777945355e-10
v -0.073543727397918701 -0.010470511391758919 -0.014999999664723873
v -0.073543727397918701 -0.010470511391758919 1.8998912165724136e-10
v -0.073106668889522552 -0.024299535900354385 -0.014999999664723873
v -0.073106668889522552 -0.024299535900354385 1.8998910777945355e-10
v -0.069747291505336761 -0.0073017175309360027 -0.014999999664723873
v -0.069747291505336761 -0.0073017175309360027 1.8998910777945355e-10
v -0.069117709994316101 -0.027222273871302605 -0.014999999664723873
v -0.069117709994316101 -0.027222273871302605 1.8998910777945355e-10
v -0.065116092562675476 -0.0049561187624931335 1.8998910777945355e-10
v -0.064251542091369629 -0.028102293610572815 -0.014999999664723873
v -0.064251542091369629 -0.028102293610572815 1.8998910777945355e-10
v -0.063894234597682953 -0.0043372809886932373 -0.014999999664723873
v -0.01129574328660965 0.02230260893702507 -0.014999999664723873
v -0.01129574328660965 0.02230260893702507 1.8998912165724136e-10
v -0.0035459485370665789 0.024747246876358986 -0.014999999664723873
v -0.0035459485370665789 0.024747246876358986 1.8998913553502916e-10
v 0.23538827896118164 -0.010864561423659325 -0.050300002098083496
v 0.23554360866546631 -0.012129008769989014 -0.050300002098083496
v 0.23620963096618652 -0.013214996084570885 -0.050300002098083496
v 0.23761285841464996 -0.034139163792133331 -0.032349999994039536
v 0.23950593173503876 -0.015958836302161217 -0.050300002098083496
v 0.23963131010532379 0.01496768556535244 -0.050300002098083496
v 0.23975586891174316 -0.016120413318276405 -0.050300002098083496
v 0.24018295109272003 0.016116010025143623 -0.050300002098083496
v 0.24095164239406586 -0.016559820622205734 -0.050300002098083496
v 0.24116137623786926 0.016931885853409767 -0.050300002098083496
v 0.24142627418041229 0.017067551612854004 -0.050300002098083496
v 0.24222195148468018 -0.016463382169604301 -0.050300002098083496
v 0.24367263913154602 -0.026248134672641754 -0.040850002318620682
v 0.24545066058635712 0.018550293520092964 -0.050300002098083496
v 0.24672417342662811 0.018584113568067551 -0.050300002098083496
v 0.24700938165187836 0.00023699447046965361 0.013100001029670238
v 0.24729155004024506 -0.0012900709407404065 0.013100001029670238
v 0.24752853810787201 0.0017005543923005462 0.013100001029670238
v 0.24789687991142273 0.018086405470967293 -0.050300002098083496
v 0.24801017343997955 -0.02993394248187542 1.8998916329060478e-10
v 0.24829944968223572 -0.0024714593309909105 0.013100001029670238
v 0.2484629899263382 0.018215266987681389 0.0080926185473799706
v 0.24870993196964264 0.0027084571775048971 0.013100001029670238
v 0.24950142204761505 -0.030995991080999374 -0.036350000649690628
v 0.24974325299263 -0.0032398472540080547 0.013033012859523296
v 0.24976301193237305 -0.0029906220734119415 0.013100001029670238
v 0.25023698806762695 0.0029906225390732288 0.013100001029670238
v 0.25025674700737 0.003239847719669342 0.013033012859523296
v 0.25069868564605713 0.036493316292762756 -0.032349999994039536
v 0.25069868564605713 0.036493316292762756 -0.022700000554323196
v 0.25126484036445618 0.029973326250910759 1.8998917716839259e-10
v 0.25129008293151855 -0.0027084567118436098 0.013100001029670238
v 0.25139757990837097 -0.0029341632034629583 0.013033012859523296
v 0.25153699517250061 -0.018215272575616837 0.0080926185473799706
v 0.25170055031776428 0.0024714600294828415 0.013100001029670238
v 0.25184226036071777 0.0026774175930768251 0.013033012859523296
v 0.25247147679328918 -0.001700553810223937 0.013100001029670238
v 0.25267741084098816 -0.0018422702560201287 0.013033012859523296
v 0.25270846486091614 0.0012900715228170156 0.013100001029670238
v 0.25293415784835815 0.0013975740876048803 0.013033012859523296
v 0.25299063324928284 -0.0002369939029449597 0.013100001029670238
v 0.25303161144256592 -0.026829265058040619 -0.040850002318620682
v 0.25323984026908875 -0.00025674281641840935 0.013033012859523296
v 0.25332066416740417 -0.017970787361264229 0.0081000002101063728
v 0.25380924344062805 0.017873607575893402 0.0081000002101063728
v 0.25382125377655029 0.036299426108598709 -0.032349999994039536
v 0.25382125377655029 0.036299426108598709 -0.022700000554323196
v 0.25382938981056213 -0.02975459024310112 1.8998917716839259e-10
v 0.25438675284385681 0.017745841294527054 0.0080926185473799706
v 0.25452864170074463 0.036033522337675095 -0.032349999994039536
v 0.25452864170074463 0.036033522337675095 -0.022700000554323196
v 0.25507387518882751 -0.017561724409461021 0.0080926185473799706
v 0.25529149174690247 0.029529649764299393 1.8998916329060478e-10
v 0.25540915131568909 0.029508329927921295 1.8998916329060478e-10
v 0.25632736086845398 0.026248132809996605 -0.040850002318620682
v 0.25642755627632141 0.029303355142474174 1.8998916329060478e-10
v 0.25682222843170166 0.029213987290859222 1.8998919104618039e-10
v 0.25716239213943481 0.029132463037967682 1.8998917716839259e-10
v 0.25722932815551758 -0.029115919023752213 1.8998916329060478e-10
v 0.25777655839920044 0.016543392091989517 0.0080926185473799706
v 0.25806865096092224 -0.03540932759642601 -0.032349999994039536
v 0.25806865096092224 -0.03540932759642601 -0.022700000554323196
v 0.25882434844970703 -0.035417243838310242 -0.032349999994039536
v 0.25882434844970703 -0.035417243838310242 -0.022700000554323196
v 0.25938594341278076 0.028493927791714668 1.8998919104618039e-10
v 0.25984376668930054 -0.035147547721862793 -0.026700001209974289
v 0.25994500517845154 -0.015332087874412537 0.0081000002101063728
v 0.26011568307876587 -0.035070262849330902 -0.032349999994039536
v 0.26026120781898499 -0.03502795472741127 -0.022700000554323196
v 0.26033660769462585 -0.024943023920059204 -0.040850002318620682
v 0.26035919785499573 0.015055320225656033 0.0081000002101063728
v 0.2604387104511261 -0.015006384812295437 0.0080926185473799706
v 0.26083412766456604 -0.034855004400014877 -0.026850000023841858
v 0.26107263565063477 -0.034779977053403854 -0.026700001209974289
v 0.26182487607002258 -0.03453146293759346 -0.032349999994039536
v 0.26182487607002258 -0.03453146293759346 -0.022700000554323196
v 0.26202493906021118 -0.024174386635422707 -0.040850002318620682
v 0.26245513558387756 -0.034114416688680649 -0.032349999994039536
v 0.26245513558387756 -0.034114416688680649 -0.022700000554323196
v 0.26267194747924805 0.013174975290894508 0.0080926185473799706
v 0.26304930448532104 -0.027013253420591354 1.8998919104618039e-10
v 0.26317498087882996 -0.012671953998506069 0.0080926185473799706
v 0.26374730467796326 -0.026664797216653824 1.8998916329060478e-10
v 0.26492318511009216 0.022501096129417419 -0.040850002318620682
v 0.26500639319419861 0.010438724420964718 0.0080926185473799706
v 0.2650553286075592 -0.010359209030866623 0.0081000002101063728
v 0.26533210277557373 0.0099450116977095604 0.0081000002101063728
v 0.26603040099143982 0.02535797655582428 1.8998916329060478e-10
v 0.26637634634971619 0.025135928764939308 1.899892049239682e-10
v 0.26654338836669922 -0.0077765509486198425 0.0080926185473799706
v 0.26671484112739563 -0.0072218440473079681 -0.050300002098083496
v 0.26756173372268677 0.0050738840363919735 0.0080926185473799706
v 0.26773223280906677 -0.0064551006071269512 -0.050300002098083496
v 0.26774585247039795 -0.004386750515550375 0.0080926185473799706
v 0.26787358522415161 -0.0038092457689344883 0.0081000002101063728
v 0.26797080039978027 0.0033206518273800611 0.0081000002101063728
v 0.26814672350883484 0.0014957009116187692 -0.050300002098083496
v 0.26821526885032654 0.0015370117034763098 0.0080926185473799706
v 0.26833969354629517 -0.0053353053517639637 -0.050300002098083496
v 0.26864469051361084 -0.024766422808170319 -0.036350000649690628
v 0.26886540651321411 0.00044380608596839011 -0.050300002098083496
v 0.26906779408454895 -0.0011087057646363974 -0.050300002098083496
v 0.26908275485038757 -0.00081146811135113239 -0.050300002098083496
v 0.26956787705421448 -0.018603719770908356 -0.040850002318620682
v 0.27171900868415833 0.016040090471506119 -0.040850002318620682
v 0.27201688289642334 -0.020377837121486664 1.8998917716839259e-10
v 0.27331638336181641 0.027843665331602097 -0.032349999994039536
v 0.27331638336181641 0.027843665331602097 -0.022700000554323196
v 0.27396693825721741 0.018044006079435349 1.8998919104618039e-10
v 0.27399268746376038 0.027506392449140549 -0.032349999994039536
v 0.27399268746376038 0.027506392449140549 -0.022700000554323196
v 0.27589523792266846 0.007644405122846365 -0.040850002318620682
v 0.27626007795333862 0.025350721552968025 -0.032349999994039536
v 0.27626007795333862 0.025350721552968025 -0.022700000554323196
v 0.27663105726242065 0.024692315608263016 -0.032349999994039536
v 0.27663105726242065 0.024692315608263016 -0.022700000554323196
v 0.27764660120010376 -0.011647521518170834 1.8998917716839259e-10
v 0.27868381142616272 0.0087885633111000061 1.8998919104618039e-10
v 0.27894163131713867 -0.021938692778348923 -0.032349999994039536
v 0.27894163131713867 -0.021938692778348923 -0.022700000554323196
v 0.27916684746742249 -0.0070211123675107956 1.8998919104618039e-10
v 0.27936470508575439 -0.0061412141658365726 1.8998919104618039e-10
v 0.27952560782432556 -0.021459007635712624 -0.032349999994039536
v 0.27952560782432556 -0.021459007635712624 -0.022700000554323196
v 0.27957591414451599 -0.0050264494493603706 1.8998919104618039e-10
v 0.27968540787696838 -0.0043331100605428219 1.8998916329060478e-10
v 0.27996143698692322 -0.0015206417301669717 1.8998917716839259e-10
v 0.28125479817390442 -0.018851742148399353 -0.032349999994039536
v 0.28125479817390442 -0.018851742148399353 -0.022700000554323196
v 0.28146952390670776 -0.018127148970961571 -0.032349999994039536
v 0.28146952390670776 -0.018127148970961571 -0.022700000554323196
v 0.28575894236564636 0.0063420082442462444 -0.032349999994039536
v 0.28575894236564636 0.0063420082442462444 -0.022700000554323196
v 0.28606021404266357 0.0056489217095077038 -0.032349999994039536
v 0.28606021404266357 0.0056489217095077038 -0.022700000554323196
v 0.28627249598503113 0.0017972942441701889 -0.032349999994039536
v 0.28627249598503113 0.0017972942441701889 -0.022700000554323196
v 0.28641149401664734 0.0025401317980140448 -0.032349999994039536
v 0.28641149401664734 0.0025401317980140448 -0.022700000554323196
f 1 2 5
f 1 3 2
f 1 5 26
f 1 21 3
f 1 26 21
f 2 3 4
f 2 4 36
f 2 6 5
f 2 36 38
f 2 38 6
f 3 7 8
f 3 8 4
f 3 21 22
f 3 22 7
f 4 8 37
f 4 37 36
f 5 6 9
f 5 9 28
f 5 28 26
f 6 10 9
f 6 38 43
f 6 43 10
f 7 11 8
f 7 22 23
f 7 23 25
f 7 25 11
f 8 11 12
f 8 12 41
f 8 41 37
f 9 10 13
f 9 13 16
f 9 16 31
f 9 30 28
f 9 31 30
f 10 43 13
f 11 14 15
f 11 15 12
f 11 25 27
f 11 27 29
f 11 29 14
f 12 15 46
f 12 46 41
f 13 17 16
f 13 18 17
f 13 43 18
f 14 24 81
f 14 29 33
f 14 33 24
f 14 81 15
f 15 40 54
f 15 45 46
f 15 54 45
f 15 81 82
f 15 82 84
f 15 84 40
f 16 17 31
f 17 18 19
f 17 19 34
f 17 34 31
f 18 20 19
f 18 43 20
f 19 20 49
f 19 49 34
f 20 42 51
f 20 43 47
f 20 47 48
f 20 48 42
f 20 50 49
f 20 51 50
f 21 26 27
f 21 27 22
f 22 27 23
f 23 27 25
f 24 33 44
f 24 44 81
f 26 28 27
f 27 28 30
f 27 30 31
f 27 31 34
f 27 32 29
f 27 34 35
f 27 35 39
f 27 39 117
f 27 111 32
f 27 113 111
f 27 117 121
f 27 119 113
f 27 121 123
f 27 122 119
f 27 123 122
f 29 32 62
f 29 62 33
f 32 90 62
f 32 111 90
f 33 62 44
f 34 49 35
f 35 49 66
f 35 66 75
f 35 75 39
f 36 37 55
f 36 55 38
f 37 41 55
f 38 55 43
f 39 75 104
f 39 104 117
f 40 68 54
f 40 84 68
f 41 46 55
f 42 48 65
f 42 65 51
f 43 55 47
f 44 62 81
f 45 52 46
f 45 53 52
f 45 54 64
f 45 64 53
f 46 52 55
f 47 55 48
f 48 55 56
f 48 56 80
f 48 69 65
f 48 80 69
f 49 50 67
f 49 67 66
f 50 51 67
f 51 65 73
f 51 73 67
f 52 53 57
f 52 57 55
f 53 58 57
f 53 64 72
f 53 72 87
f 53 87 92
f 53 92 102
f 53 102 58
f 54 68 64
f 55 57 61
f 55 59 56
f 55 61 59
f 56 59 60
f 56 60 105
f 56 91 80
f 56 100 91
f 56 105 100
f 57 58 63
f 57 63 61
f 58 102 106
f 58 106 110
f 58 110 114
f 58 114 63
f 59 61 63
f 59 63 60
f 60 63 116
f 60 107 105
f 60 112 107
f 60 116 112
f 62 83 81
f 62 90 83
f 63 114 115
f 63 115 118
f 63 118 116
f 64 68 79
f 64 79 72
f 65 69 78
f 65 74 73
f 65 76 74
f 65 77 76
f 65 78 77
f 66 67 71
f 66 70 75
f 66 71 70
f 67 73 74
f 67 74 76
f 67 76 77
f 67 77 78
f 67 78 85
f 67 85 71
f 68 84 79
f 69 80 85
f 69 85 78
f 70 71 127
f 70 104 75
f 70 127 104
f 71 85 128
f 71 128 127
f 72 79 101
f 72 101 87
f 79 84 89
f 79 89 96
f 79 96 101
f 80 91 108
f 80 108 85
f 81 83 84
f 81 84 82
f 83 86 84
f 83 88 86
f 83 90 88
f 84 86 89
f 85 108 128
f 86 88 89
f 87 101 103
f 87 103 92
f 88 90 95
f 88 93 89
f 88 95 93
f 89 93 94
f 89 94 96
f 90 97 95
f 90 111 97
f 91 100 109
f 91 109 108
f 92 103 126
f 92 126 102
f 93 95 94
f 94 95 96
f 95 97 98
f 95 98 99
f 95 99 96
f 96 99 103
f 96 103 101
f 97 111 124
f 97 120 98
f 97 124 120
f 98 120 139
f 98 139 99
f 99 139 140
f 99 140 103
f 100 105 129
f 100 129 109
f 102 126 106
f 103 140 126
f 104 125 117
f 104 127 130
f 104 130 133
f 104 133 125
f 105 107 129
f 106 126 137
f 106 137 110
f 107 112 138
f 107 138 129
f 108 109 131
f 108 131 128
f 109 129 131
f 110 137 114
f 111 113 124
f 112 116 138
f 113 119 148
f 113 143 124
f 113 148 143
f 114 137 141
f 114 141 115
f 115 141 142
f 115 142 145
f 115 145 146
f 115 146 147
f 115 147 118
f 116 118 138
f 117 125 121
f 118 147 138
f 119 122 158
f 119 150 148
f 119 156 150
f 119 158 156
f 120 124 139
f 121 125 132
f 121 132 152
f 121 152 154
f 121 154 123
f 122 123 158
f 123 154 158
f 124 143 139
f 125 133 135
f 125 135 132
f 126 140 144
f 126 144 149
f 126 149 137
f 127 128 131
f 127 131 130
f 129 134 131
f 129 136 134
f 129 138 136
f 130 131 133
f 131 134 133
f 132 135 152
f 133 134 135
f 134 136 135
f 135 136 153
f 135 153 152
f 136 138 153
f 137 149 141
f 138 147 155
f 138 155 153
f 139 143 144
f 139 144 140
f 141 149 151
f 141 151 157
f 141 157 142
f 142 157 145
f 143 148 149
f 143 149 144
f 145 157 159
f 145 159 146
f 146 159 147
f 147 159 155
f 148 150 149
f 149 150 151
f 150 156 157
f 150 157 151
f 152 153 154
f 153 155 154
f 154 155 158
f 155 159 158
f 156 158 159
f 156 159 157
