mtllib wheelbipeV14_2_right_front2_link_visuals_right_front2_link_node_STL_BINARY__mesh.mtl
v -0.11482178419828415 2.235173712783478e-10 -0.08437629044055939
v -0.11482178419828415 0.008949999697506428 -0.08437629044055939
v -0.1161484494805336 2.235173712783478e-10 -0.08131830394268036
v -0.1161484494805336 2.235173712783478e-10 -0.08131830394268036
v -0.11482178419828415 0.008949999697506428 -0.08437629044055939
v -0.1161484494805336 0.008949999697506428 -0.08131830394268036
v -0.1161484494805336 2.235173712783478e-10 -0.08131830394268036
v -0.1161484494805336 0.008949999697506428 -0.08131830394268036
v -0.1160169243812561 2.235173712783478e-10 -0.07798753678798676
v -0.1160169243812561 2.235173712783478e-10 -0.07798753678798676
v -0.1161484494805336 0.008949999697506428 -0.08131830394268036
v -0.1160169243812561 0.008949999697506428 -0.07798753678798676
v -0.1160169243812561 2.235173712783478e-10 -0.07798753678798676
v -0.1160169243812561 0.008949999697506428 -0.07798753678798676
v -0.1144532635807991 2.235173712783478e-10 -0.075043685734272
v -0.1144532635807991 2.235173712783478e-10 -0.075043685734272
v -0.1160169243812561 0.008949999697506428 -0.07798753678798676
v -0.1144532635807991 0.008949999697506428 -0.075043685734272
v -0.1144532635807991 2.235173712783478e-10 -0.075043685734272
v -0.1144532635807991 0.008949999697506428 -0.075043685734272
v -0.11176715791225433 2.235173712783478e-10 -0.07306981831789017
v -0.11176715791225433 2.235173712783478e-10 -0.07306981831789017
v -0.1144532635807991 0.008949999697506428 -0.075043685734272
v -0.11176715791225433 0.008949999697506428 -0.07306981831789017
v -0.11176715791225433 2.235173712783478e-10 -0.07306981831789017
v -0.11176715791225433 0.008949999697506428 -0.07306981831789017
v -0.10849063843488693 2.235173712783478e-10 -0.07245687395334244
v -0.10849063843488693 2.235173712783478e-10 -0.07245687395334244
v -0.11176715791225433 0.008949999697506428 -0.07306981831789017
v -0.10849063843488693 0.008949999697506428 -0.07245687395334244
v -0.10849063843488693 2.235173712783478e-10 -0.07245687395334244
v -0.10849063843488693 0.008949999697506428 -0.07245687395334244
v -0.10527264326810837 2.235173712783478e-10 -0.07332626730203629
v -0.10527264326810837 2.235173712783478e-10 -0.07332626730203629
v -0.10849063843488693 0.008949999697506428 -0.07245687395334244
v -0.10527264326810837 0.008949999697506428 -0.07332626730203629
v -0.10527264326810837 2.235173712783478e-10 -0.07332626730203629
v -0.10527264326810837 0.008949999697506428 -0.07332626730203629
v -0.10275054723024368 2.235173712783478e-10 -0.07550579309463501
v -0.10275054723024368 2.235173712783478e-10 -0.07550579309463501
v -0.10527264326810837 0.008949999697506428 -0.07332626730203629
v -0.10275054723024368 0.008949999697506428 -0.07550579309463501
v -0.10275054723024368 2.235173712783478e-10 -0.07550579309463501
v -0.10275054723024368 0.008949999697506428 -0.07550579309463501
v -0.10142388194799423 2.235173712783478e-10 -0.07856377959251404
v -0.10142388194799423 2.235173712783478e-10 -0.07856377959251404
v -0.10275054723024368 0.008949999697506428 -0.07550579309463501
v -0.10142388194799423 0.008949999697506428 -0.07856377959251404
v -0.10142388194799423 2.235173712783478e-10 -0.07856377959251404
v -0.10142388194799423 0.008949999697506428 -0.07856377959251404
v -0.10155539959669113 2.235173712783478e-10 -0.08189454674720764
v -0.10155539959669113 2.235173712783478e-10 -0.08189454674720764
v -0.10142388194799423 0.008949999697506428 -0.07856377959251404
v -0.10155539959669113 0.008949999697506428 -0.08189454674720764
v -0.10155539959669113 2.235173712783478e-10 -0.08189454674720764
v -0.10155539959669113 0.008949999697506428 -0.08189454674720764
v -0.10311906784772873 2.235173712783478e-10 -0.0848383978009224
v -0.10311906784772873 2.235173712783478e-10 -0.0848383978009224
v -0.10155539959669113 0.008949999697506428 -0.08189454674720764
v -0.10311906784772873 0.008949999697506428 -0.0848383978009224
v -0.10311906784772873 2.235173712783478e-10 -0.0848383978009224
v -0.10311906784772873 0.008949999697506428 -0.0848383978009224
v -0.1058051660656929 2.235173712783478e-10 -0.08681227266788483
v -0.1058051660656929 2.235173712783478e-10 -0.08681227266788483
v -0.10311906784772873 0.008949999697506428 -0.0848383978009224
v -0.1058051660656929 0.008949999697506428 -0.08681227266788483
v -0.1058051660656929 2.235173712783478e-10 -0.08681227266788483
v -0.1058051660656929 0.008949999697506428 -0.08681227266788483
v -0.1090816929936409 2.235173712783478e-10 -0.08742520958185196
v -0.1090816929936409 2.235173712783478e-10 -0.08742520958185196
v -0.1058051660656929 0.008949999697506428 -0.08681227266788483
v -0.1090816929936409 0.008949999697506428 -0.08742520958185196
v -0.1090816929936409 2.235173712783478e-10 -0.08742520958185196
v -0.1090816929936409 0.008949999697506428 -0.08742520958185196
v -0.11229968816041946 2.235173712783478e-10 -0.08655581623315811
v -0.11229968816041946 2.235173712783478e-10 -0.08655581623315811
v -0.1090816929936409 0.008949999697506428 -0.08742520958185196
v -0.11229968816041946 0.008949999697506428 -0.08655581623315811
v -0.11229968816041946 2.235173712783478e-10 -0.08655581623315811
v -0.11229968816041946 0.008949999697506428 -0.08655581623315811
v -0.11482178419828415 2.235173712783478e-10 -0.08437629044055939
v -0.11482178419828415 2.235173712783478e-10 -0.08437629044055939
v -0.11229968816041946 0.008949999697506428 -0.08655581623315811
v -0.11482178419828415 0.008949999697506428 -0.08437629044055939
v -0.006031585857272148 2.2351742678949904e-10 -0.004432284738868475
v -0.006031585857272148 0.008949999697506428 -0.004432284738868475
v -0.007357371971011162 2.2351742678949904e-10 -0.0013763450551778078
v -0.007357371971011162 2.2351742678949904e-10 -0.0013763450551778078
v -0.006031585857272148 0.008949999697506428 -0.004432284738868475
v -0.007357371971011162 0.008949999697506428 -0.0013763450551778078
v -0.007357371971011162 2.2351742678949904e-10 -0.0013763450551778078
v -0.007357371971011162 0.008949999697506428 -0.0013763450551778078
v -0.0072259302251040936 2.2351742678949904e-10 0.0019522040383890271
v -0.0072259302251040936 2.2351742678949904e-10 0.0019522040383890271
v -0.007357371971011162 0.008949999697506428 -0.0013763450551778078
v -0.0072259302251040936 0.008949999697506428 0.0019522040383890271
v -0.0072259302251040936 2.2351742678949904e-10 0.0019522040383890271
v -0.0072259302251040936 0.008949999697506428 0.0019522040383890271
v -0.005663316696882248 2.2351742678949904e-10 0.004894085694104433
v -0.005663316696882248 2.2351742678949904e-10 0.004894085694104433
v -0.0072259302251040936 0.008949999697506428 0.0019522040383890271
v -0.005663316696882248 0.008949999697506428 0.004894085694104433
v -0.005663316696882248 2.2351742678949904e-10 0.004894085694104433
v -0.005663316696882248 0.008949999697506428 0.004894085694104433
v -0.0029790063854306936 2.2351742678949904e-10 0.006866639479994774
v -0.0029790063854306936 2.2351742678949904e-10 0.006866639479994774
v -0.005663316696882248 0.008949999697506428 0.004894085694104433
v -0.0029790063854306936 0.008949999697506428 0.006866639479994774
v -0.0029790063854306936 2.2351742678949904e-10 0.006866639479994774
v -0.0029790063854306936 0.008949999697506428 0.006866639479994774
v 0.00029533609631471336 2.2351742678949904e-10 0.0074791740626096725
v 0.00029533609631471336 2.2351742678949904e-10 0.0074791740626096725
v -0.0029790063854306936 0.008949999697506428 0.006866639479994774
v 0.00029533609631471336 0.008949999697506428 0.0074791740626096725
v 0.00029533609631471336 2.2351742678949904e-10 0.0074791740626096725
v 0.00029533609631471336 0.008949999697506428 0.0074791740626096725
v 0.003511174116283655 2.2351742678949904e-10 0.006610359065234661
v 0.003511174116283655 2.2351742678949904e-10 0.006610359065234661
v 0.00029533609631471336 0.008949999697506428 0.0074791740626096725
v 0.003511174116283655 0.008949999697506428 0.006610359065234661
v 0.003511174116283655 2.2351742678949904e-10 0.006610359065234661
v 0.003511174116283655 0.008949999697506428 0.006610359065234661
v 0.006031582597643137 2.2351742678949904e-10 0.004432282410562038
v 0.006031582597643137 2.2351742678949904e-10 0.004432282410562038
v 0.003511174116283655 0.008949999697506428 0.006610359065234661
v 0.006031582597643137 0.008949999697506428 0.004432282410562038
v 0.006031582597643137 2.2351742678949904e-10 0.004432282410562038
v 0.006031582597643137 0.008949999697506428 0.004432282410562038
v 0.007357368711382151 2.2351742678949904e-10 0.0013763426104560494
v 0.007357368711382151 2.2351742678949904e-10 0.0013763426104560494
v 0.006031582597643137 0.008949999697506428 0.004432282410562038
v 0.007357368711382151 0.008949999697506428 0.0013763426104560494
v 0.007357368711382151 2.2351742678949904e-10 0.0013763426104560494
v 0.007357368711382151 0.008949999697506428 0.0013763426104560494
v 0.007225938607007265 2.2351742678949904e-10 -0.0019521976355463266
v 0.007225938607007265 2.2351742678949904e-10 -0.0019521976355463266
v 0.007357368711382151 0.008949999697506428 0.0013763426104560494
v 0.007225938607007265 0.008949999697506428 -0.0019521976355463266
v 0.007225938607007265 2.2351742678949904e-10 -0.0019521976355463266
v 0.007225938607007265 0.008949999697506428 -0.0019521976355463266
v 0.005663313437253237 2.2351742678949904e-10 -0.00489408802241087
v 0.005663313437253237 2.2351742678949904e-10 -0.00489408802241087
v 0.007225938607007265 0.008949999697506428 -0.0019521976355463266
v 0.005663313437253237 0.008949999697506428 -0.00489408802241087
v 0.005663313437253237 2.2351742678949904e-10 -0.00489408802241087
v 0.005663313437253237 0.008949999697506428 -0.00489408802241087
v 0.002979002892971039 2.2351742678949904e-10 -0.00686664180830121
v 0.002979002892971039 2.2351742678949904e-10 -0.00686664180830121
v 0.005663313437253237 0.008949999697506428 -0.00489408802241087
v 0.002979002892971039 0.008949999697506428 -0.00686664180830121
v 0.002979002892971039 2.2351742678949904e-10 -0.00686664180830121
v 0.002979002892971039 0.008949999697506428 -0.00686664180830121
v -0.0002953274524770677 2.2351742678949904e-10 -0.00747916754335165
v -0.0002953274524770677 2.2351742678949904e-10 -0.00747916754335165
v 0.002979002892971039 0.008949999697506428 -0.00686664180830121
v -0.0002953274524770677 0.008949999697506428 -0.00747916754335165
v -0.0002953274524770677 2.2351742678949904e-10 -0.00747916754335165
v -0.0002953274524770677 0.008949999697506428 -0.00747916754335165
v -0.00351117760874331 2.2351742678949904e-10 -0.006610361393541098
v -0.00351117760874331 2.2351742678949904e-10 -0.006610361393541098
v -0.0002953274524770677 0.008949999697506428 -0.00747916754335165
v -0.00351117760874331 0.008949999697506428 -0.006610361393541098
v -0.00351117760874331 2.2351742678949904e-10 -0.006610361393541098
v -0.00351117760874331 0.008949999697506428 -0.006610361393541098
v -0.006031585857272148 2.2351742678949904e-10 -0.004432284738868475
v -0.006031585857272148 2.2351742678949904e-10 -0.004432284738868475
v -0.00351117760874331 0.008949999697506428 -0.006610361393541098
v -0.006031585857272148 0.008949999697506428 -0.004432284738868475
v -0.09276371449232101 0.009999999776482582 -0.07685378193855286
v -0.007732265628874302 0.009999999776482582 -0.014368788339197636
v -0.09276371449232101 2.235173712783478e-10 -0.07685378193855286
v -0.09276371449232101 2.235173712783478e-10 -0.07685378193855286
v -0.007732265628874302 0.009999999776482582 -0.014368788339197636
v -0.007732265628874302 2.2351739903392343e-10 -0.014368788339197636
v -0.10105390101671219 2.235173712783478e-10 -0.06557225435972214
v -0.016022447496652603 2.2351742678949904e-10 -0.0030872602947056293
v -0.10105390101671219 0.009999999776482582 -0.06557225435972214
v -0.10105390101671219 0.009999999776482582 -0.06557225435972214
v -0.016022447496652603 2.2351742678949904e-10 -0.0030872602947056293
v -0.016022447496652603 0.009999999776482582 -0.0030872602947056293
v -0.00351117760874331 2.2351742678949904e-10 -0.006610361393541098
v -0.10527264326810837 2.235173712783478e-10 -0.07332626730203629
v -0.0002953274524770677 2.2351742678949904e-10 -0.00747916754335165
v -0.0002953274524770677 2.2351742678949904e-10 -0.00747916754335165
v -0.10527264326810837 2.235173712783478e-10 -0.07332626730203629
v -0.10275054723024368 2.235173712783478e-10 -0.07550579309463501
v -0.0002953274524770677 2.2351742678949904e-10 -0.00747916754335165
v -0.10275054723024368 2.235173712783478e-10 -0.07550579309463501
v 0.002979002892971039 2.2351742678949904e-10 -0.00686664180830121
v -0.0029790063854306936 2.2351742678949904e-10 0.006866639479994774
v -0.007514197379350662 2.2351742678949904e-10 0.00998933706432581
v -0.005663316696882248 2.2351742678949904e-10 0.004894085694104433
v -0.005663316696882248 2.2351742678949904e-10 0.004894085694104433
v -0.007514197379350662 2.2351742678949904e-10 0.00998933706432581
v -0.010494505055248737 2.2351742678949904e-10 0.006790828425437212
v -0.005663316696882248 2.2351742678949904e-10 0.004894085694104433
v -0.010494505055248737 2.2351742678949904e-10 0.006790828425437212
v -0.0072259302251040936 2.2351742678949904e-10 0.0019522040383890271
v -0.0072259302251040936 2.2351742678949904e-10 0.0019522040383890271
v -0.010494505055248737 2.2351742678949904e-10 0.006790828425437212
v -0.012191113084554672 2.2351742678949904e-10 0.0027616536244750023
v -0.0072259302251040936 2.2351742678949904e-10 0.0019522040383890271
v -0.012191113084554672 2.2351742678949904e-10 0.0027616536244750023
v -0.007357371971011162 2.2351742678949904e-10 -0.0013763450551778078
v -0.1058051660656929 2.235173712783478e-10 -0.08681227266788483
v -0.10127197206020355 2.235173712783478e-10 -0.08993038535118103
v -0.10311906784772873 2.235173712783478e-10 -0.0848383978009224
v -0.10311906784772873 2.235173712783478e-10 -0.0848383978009224
v -0.10127197206020355 2.235173712783478e-10 -0.08993038535118103
v -0.09829165786504745 2.235173712783478e-10 -0.08673187345266342
v -0.10311906784772873 2.235173712783478e-10 -0.0848383978009224
v -0.09829165786504745 2.235173712783478e-10 -0.08673187345266342
v -0.10155539959669113 2.235173712783478e-10 -0.08189454674720764
v -0.10155539959669113 2.235173712783478e-10 -0.08189454674720764
v -0.09829165786504745 2.235173712783478e-10 -0.08673187345266342
v -0.09659504890441895 2.235173712783478e-10 -0.08270269632339478
v -0.10155539959669113 2.235173712783478e-10 -0.08189454674720764
v -0.09659504890441895 2.235173712783478e-10 -0.08270269632339478
v -0.10142388194799423 2.235173712783478e-10 -0.07856377959251404
v 0.007357368711382151 2.2351742678949904e-10 0.0013763426104560494
v 0.011211984790861607 2.2351742678949904e-10 0.005526443012058735
v 0.006031582597643137 2.2351742678949904e-10 0.004432282410562038
v 0.006031582597643137 2.2351742678949904e-10 0.004432282410562038
v 0.011211984790861607 2.2351742678949904e-10 0.005526443012058735
v 0.00862319115549326 2.2351742678949904e-10 0.009049350395798683
v 0.006031582597643137 2.2351742678949904e-10 0.004432282410562038
v 0.00862319115549326 2.2351742678949904e-10 0.009049350395798683
v 0.003511174116283655 2.2351742678949904e-10 0.006610359065234661
v 0.003511174116283655 2.2351742678949904e-10 0.006610359065234661
v 0.00862319115549326 2.2351742678949904e-10 0.009049350395798683
v 0.004979591816663742 2.2351742678949904e-10 0.011465325951576233
v 0.003511174116283655 2.2351742678949904e-10 0.006610359065234661
v 0.004979591816663742 2.2351742678949904e-10 0.011465325951576233
v 0.00029533609631471336 2.2351742678949904e-10 0.0074791740626096725
v 0.00029533609631471336 2.2351742678949904e-10 0.0074791740626096725
v 0.004979591816663742 2.2351742678949904e-10 0.011465325951576233
v 0.000726887199562043 2.2351742678949904e-10 0.012478848919272423
v 0.00029533609631471336 2.2351742678949904e-10 0.0074791740626096725
v 0.000726887199562043 2.2351742678949904e-10 0.012478848919272423
v -0.0029790063854306936 2.2351742678949904e-10 0.006866639479994774
v -0.0029790063854306936 2.2351742678949904e-10 0.006866639479994774
v 0.000726887199562043 2.2351742678949904e-10 0.012478848919272423
v -0.003614731365814805 2.2351742678949904e-10 0.011965940706431866
v -0.0029790063854306936 2.2351742678949904e-10 0.006866639479994774
v -0.003614731365814805 2.2351742678949904e-10 0.011965940706431866
v -0.007514197379350662 2.2351742678949904e-10 0.00998933706432581
v -0.1161484494805336 2.235173712783478e-10 -0.08131830394268036
v -0.11999814212322235 2.235173712783478e-10 -0.08546748012304306
v -0.11482178419828415 2.235173712783478e-10 -0.08437629044055939
v -0.11482178419828415 2.235173712783478e-10 -0.08437629044055939
v -0.11999814212322235 2.235173712783478e-10 -0.08546748012304306
v -0.117409348487854 2.235173712783478e-10 -0.08899039030075073
v -0.11482178419828415 2.235173712783478e-10 -0.08437629044055939
v -0.117409348487854 2.235173712783478e-10 -0.08899039030075073
v -0.11229968816041946 2.235173712783478e-10 -0.08655581623315811
v -0.11229968816041946 2.235173712783478e-10 -0.08655581623315811
v -0.117409348487854 2.235173712783478e-10 -0.08899039030075073
v -0.11376575380563736 2.235173712783478e-10 -0.09140636771917343
v -0.11229968816041946 2.235173712783478e-10 -0.08655581623315811
v -0.11376575380563736 2.235173712783478e-10 -0.09140636771917343
v -0.1090816929936409 2.235173712783478e-10 -0.08742520958185196
v -0.1090816929936409 2.235173712783478e-10 -0.08742520958185196
v -0.11376575380563736 2.235173712783478e-10 -0.09140636771917343
v -0.1095130518078804 2.235173712783478e-10 -0.09241989254951477
v -0.1090816929936409 2.235173712783478e-10 -0.08742520958185196
v -0.1095130518078804 2.235173712783478e-10 -0.09241989254951477
v -0.1058051660656929 2.235173712783478e-10 -0.08681227266788483
v -0.1058051660656929 2.235173712783478e-10 -0.08681227266788483
v -0.1095130518078804 2.235173712783478e-10 -0.09241989254951477
v -0.10517142713069916 2.235173712783478e-10 -0.09190697968006134
v -0.1058051660656929 2.235173712783478e-10 -0.08681227266788483
v -0.10517142713069916 2.235173712783478e-10 -0.09190697968006134
v -0.10127197206020355 2.235173712783478e-10 -0.08993038535118103
v -0.09659504890441895 2.235173712783478e-10 -0.08270269632339478
v -0.09520723670721054 2.235173712783478e-10 -0.07943246513605118
v -0.10142388194799423 2.235173712783478e-10 -0.07856377959251404
v -0.10142388194799423 2.235173712783478e-10 -0.07856377959251404
v -0.09520723670721054 2.235173712783478e-10 -0.07943246513605118
v -0.09276371449232101 2.235173712783478e-10 -0.07685378193855286
v -0.10142388194799423 2.235173712783478e-10 -0.07856377959251404
v -0.09276371449232101 2.235173712783478e-10 -0.07685378193855286
v -0.10275054723024368 2.235173712783478e-10 -0.07550579309463501
v -0.10275054723024368 2.235173712783478e-10 -0.07550579309463501
v -0.09276371449232101 2.235173712783478e-10 -0.07685378193855286
v -0.007732265628874302 2.2351739903392343e-10 -0.014368788339197636
v -0.10275054723024368 2.235173712783478e-10 -0.07550579309463501
v -0.007732265628874302 2.2351739903392343e-10 -0.014368788339197636
v 0.002979002892971039 2.2351742678949904e-10 -0.00686664180830121
v 0.002979002892971039 2.2351742678949904e-10 -0.00686664180830121
v -0.007732265628874302 2.2351739903392343e-10 -0.014368788339197636
v -0.00454142177477479 2.2351742678949904e-10 -0.012807086110115051
v 0.002979002892971039 2.2351742678949904e-10 -0.00686664180830121
v -0.00454142177477479 2.2351742678949904e-10 -0.012807086110115051
v -0.0010059465421363711 2.2351742678949904e-10 -0.012459455989301205
v -0.0010059465421363711 2.2351742678949904e-10 -0.012459455989301205
v 0.003346062498167157 2.2351742678949904e-10 -0.012043830007314682
v 0.002979002892971039 2.2351742678949904e-10 -0.00686664180830121
v 0.002979002892971039 2.2351742678949904e-10 -0.00686664180830121
v 0.003346062498167157 2.2351742678949904e-10 -0.012043830007314682
v 0.007288773078471422 2.2351742678949904e-10 -0.01015498861670494
v 0.002979002892971039 2.2351742678949904e-10 -0.00686664180830121
v 0.007288773078471422 2.2351742678949904e-10 -0.01015498861670494
v 0.005663313437253237 2.2351742678949904e-10 -0.00489408802241087
v 0.005663313437253237 2.2351742678949904e-10 -0.00489408802241087
v 0.007288773078471422 2.2351742678949904e-10 -0.01015498861670494
v 0.010339919477701187 2.2351742678949904e-10 -0.00702396547421813
v 0.005663313437253237 2.2351742678949904e-10 -0.00489408802241087
v 0.010339919477701187 2.2351742678949904e-10 -0.00702396547421813
v 0.007225938607007265 2.2351742678949904e-10 -0.0019521976355463266
v 0.007225938607007265 2.2351742678949904e-10 -0.0019521976355463266
v 0.010339919477701187 2.2351742678949904e-10 -0.00702396547421813
v 0.012126265093684196 2.2351742678949904e-10 -0.0030337655916810036
v 0.007225938607007265 2.2351742678949904e-10 -0.0019521976355463266
v 0.012126265093684196 2.2351742678949904e-10 -0.0030337655916810036
v 0.007357368711382151 2.2351742678949904e-10 0.0013763426104560494
v 0.007357368711382151 2.2351742678949904e-10 0.0013763426104560494
v 0.012126265093684196 2.2351742678949904e-10 -0.0030337655916810036
v 0.012429308146238327 2.2351742678949904e-10 0.0013275288511067629
v 0.007357368711382151 2.2351742678949904e-10 0.0013763426104560494
v 0.012429308146238327 2.2351742678949904e-10 0.0013275288511067629
v 0.011211984790861607 2.2351742678949904e-10 0.005526443012058735
v -0.006031585857272148 2.2351742678949904e-10 -0.004432284738868475
v -0.11176715791225433 2.235173712783478e-10 -0.07306981831789017
v -0.00351117760874331 2.2351742678949904e-10 -0.006610361393541098
v -0.00351117760874331 2.2351742678949904e-10 -0.006610361393541098
v -0.11176715791225433 2.235173712783478e-10 -0.07306981831789017
v -0.10849063843488693 2.235173712783478e-10 -0.07245687395334244
v -0.00351117760874331 2.2351742678949904e-10 -0.006610361393541098
v -0.10849063843488693 2.235173712783478e-10 -0.07245687395334244
v -0.10527264326810837 2.235173712783478e-10 -0.07332626730203629
v -0.012191113084554672 2.2351742678949904e-10 0.0027616536244750023
v -0.013578929007053375 2.2351742678949904e-10 -0.0005085753509774804
v -0.007357371971011162 2.2351742678949904e-10 -0.0013763450551778078
v -0.007357371971011162 2.2351742678949904e-10 -0.0013763450551778078
v -0.013578929007053375 2.2351742678949904e-10 -0.0005085753509774804
v -0.016022447496652603 2.2351742678949904e-10 -0.0030872602947056293
v -0.007357371971011162 2.2351742678949904e-10 -0.0013763450551778078
v -0.016022447496652603 2.2351742678949904e-10 -0.0030872602947056293
v -0.006031585857272148 2.2351742678949904e-10 -0.004432284738868475
v -0.006031585857272148 2.2351742678949904e-10 -0.004432284738868475
v -0.016022447496652603 2.2351742678949904e-10 -0.0030872602947056293
v -0.10105390101671219 2.235173712783478e-10 -0.06557225435972214
v -0.006031585857272148 2.2351742678949904e-10 -0.004432284738868475
v -0.10105390101671219 2.235173712783478e-10 -0.06557225435972214
v -0.11176715791225433 2.235173712783478e-10 -0.07306981831789017
v -0.11176715791225433 2.235173712783478e-10 -0.07306981831789017
v -0.10105390101671219 2.235173712783478e-10 -0.06557225435972214
v -0.10424474626779556 2.235173712783478e-10 -0.06713395565748215
v -0.11176715791225433 2.235173712783478e-10 -0.07306981831789017
v -0.10424474626779556 2.235173712783478e-10 -0.06713395565748215
v -0.10778021812438965 2.235173712783478e-10 -0.06748158484697342
v -0.10778021812438965 2.235173712783478e-10 -0.06748158484697342
v -0.112132228910923 2.235173712783478e-10 -0.06789721548557281
v -0.11176715791225433 2.235173712783478e-10 -0.07306981831789017
v -0.11176715791225433 2.235173712783478e-10 -0.07306981831789017
v -0.112132228910923 2.235173712783478e-10 -0.06789721548557281
v -0.11607494205236435 2.235173712783478e-10 -0.06978605687618256
v -0.11176715791225433 2.235173712783478e-10 -0.07306981831789017
v -0.11607494205236435 2.235173712783478e-10 -0.06978605687618256
v -0.1144532635807991 2.235173712783478e-10 -0.075043685734272
v -0.1144532635807991 2.235173712783478e-10 -0.075043685734272
v -0.11607494205236435 2.235173712783478e-10 -0.06978605687618256
v -0.1191260814666748 2.235173712783478e-10 -0.07291707396507263
v -0.1144532635807991 2.235173712783478e-10 -0.075043685734272
v -0.1191260814666748 2.235173712783478e-10 -0.07291707396507263
v -0.1160169243812561 2.235173712783478e-10 -0.07798753678798676
v -0.1160169243812561 2.235173712783478e-10 -0.07798753678798676
v -0.1191260814666748 2.235173712783478e-10 -0.07291707396507263
v -0.12091242522001266 2.235173712783478e-10 -0.07690727710723877
v -0.1160169243812561 2.235173712783478e-10 -0.07798753678798676
v -0.12091242522001266 2.235173712783478e-10 -0.07690727710723877
v -0.1161484494805336 2.235173712783478e-10 -0.08131830394268036
v -0.1161484494805336 2.235173712783478e-10 -0.08131830394268036
v -0.12091242522001266 2.235173712783478e-10 -0.07690727710723877
v -0.12121547013521194 2.235173712783478e-10 -0.08126857131719589
v -0.1161484494805336 2.235173712783478e-10 -0.08131830394268036
v -0.12121547013521194 2.235173712783478e-10 -0.08126857131719589
v -0.11999814212322235 2.235173712783478e-10 -0.08546748012304306
v -0.09659504890441895 0.009999999776482582 -0.08270269632339478
v -0.09829165786504745 0.009999999776482582 -0.08673187345266342
v -0.10127197206020355 0.009999999776482582 -0.08993038535118103
v -0.012191113084554672 0.009999999776482582 0.0027616536244750023
v -0.010494505055248737 0.009999999776482582 0.006790828425437212
v -0.007514197379350662 0.009999999776482582 0.00998933706432581
v -0.09387843310832977 0.009999999776482582 -0.06898616254329681
v -0.09226228296756744 0.009999999776482582 -0.07028046995401382
v -0.10077349096536636 0.009999999776482582 -0.08345666527748108
v -0.10077349096536636 0.009999999776482582 -0.08345666527748108
v -0.09226228296756744 0.009999999776482582 -0.07028046995401382
v -0.10127197206020355 0.009999999776482582 -0.08993038535118103
v -0.10077349096536636 0.009999999776482582 -0.08345666527748108
v -0.10127197206020355 0.009999999776482582 -0.08993038535118103
v -0.10289616137742996 0.009999999776482582 -0.08641177415847778
v -0.09659504890441895 0.009999999776482582 -0.08270269632339478
v -0.10127197206020355 0.009999999776482582 -0.08993038535118103
v -0.09520723670721054 0.009999999776482582 -0.07943246513605118
v -0.09520723670721054 0.009999999776482582 -0.07943246513605118
v -0.10127197206020355 0.009999999776482582 -0.08993038535118103
v -0.09226228296756744 0.009999999776482582 -0.07028046995401382
v -0.09520723670721054 0.009999999776482582 -0.07943246513605118
v -0.09226228296756744 0.009999999776482582 -0.07028046995401382
v -0.09276371449232101 0.009999999776482582 -0.07685378193855286
v -0.10077349096536636 0.009999999776482582 -0.08345666527748108
v -0.10003629326820374 0.009999999776482582 -0.07989367842674255
v -0.09387843310832977 0.009999999776482582 -0.06898616254329681
v -0.09387843310832977 0.009999999776482582 -0.06898616254329681
v -0.10003629326820374 0.009999999776482582 -0.07989367842674255
v -0.10081202536821365 0.009999999776482582 -0.07633887976408005
v -0.09387843310832977 0.009999999776482582 -0.06898616254329681
v -0.10081202536821365 0.009999999776482582 -0.07633887976408005
v -0.0946309044957161 0.009999999776482582 -0.06705717742443085
v -0.0946309044957161 0.009999999776482582 -0.06705717742443085
v -0.10081202536821365 0.009999999776482582 -0.07633887976408005
v -0.1029665544629097 0.009999999776482582 -0.07340692728757858
v -0.0946309044957161 0.009999999776482582 -0.06705717742443085
v -0.1029665544629097 0.009999999776482582 -0.07340692728757858
v -0.10612735152244568 0.009999999776482582 -0.07160478085279465
v -0.11583711951971054 0.009999999776482582 -0.08512240648269653
v -0.11999814212322235 0.009999999776482582 -0.08546748012304306
v -0.11733498424291611 0.009999999776482582 -0.08180657029151917
v -0.11733498424291611 0.009999999776482582 -0.08180657029151917
v -0.11999814212322235 0.009999999776482582 -0.08546748012304306
v -0.12121547013521194 0.009999999776482582 -0.08126857131719589
v -0.11733498424291611 0.009999999776482582 -0.08180657029151917
v -0.12121547013521194 0.009999999776482582 -0.08126857131719589
v -0.11735467612743378 0.009999999776482582 -0.07816816866397858
v -0.11735467612743378 0.009999999776482582 -0.07816816866397858
v -0.12121547013521194 0.009999999776482582 -0.08126857131719589
v -0.12091242522001266 0.009999999776482582 -0.07690727710723877
v -0.11735467612743378 0.009999999776482582 -0.07816816866397858
v -0.12091242522001266 0.009999999776482582 -0.07690727710723877
v -0.11589279770851135 0.009999999776482582 -0.07483631372451782
v -0.11589279770851135 0.009999999776482582 -0.07483631372451782
v -0.12091242522001266 0.009999999776482582 -0.07690727710723877
v -0.1191260814666748 0.009999999776482582 -0.07291707396507263
v -0.11589279770851135 0.009999999776482582 -0.07483631372451782
v -0.1191260814666748 0.009999999776482582 -0.07291707396507263
v -0.11320211738348007 0.009999999776482582 -0.07238711416721344
v -0.11320211738348007 0.009999999776482582 -0.07238711416721344
v -0.1191260814666748 0.009999999776482582 -0.07291707396507263
v -0.11607494205236435 0.009999999776482582 -0.06978605687618256
v -0.11320211738348007 0.009999999776482582 -0.07238711416721344
v -0.11607494205236435 0.009999999776482582 -0.06978605687618256
v -0.10974787920713425 0.009999999776482582 -0.07124405354261398
v -0.10289616137742996 0.009999999776482582 -0.08641177415847778
v -0.10127197206020355 0.009999999776482582 -0.08993038535118103
v -0.10603725910186768 0.009999999776482582 -0.08824802935123444
v -0.10603725910186768 0.009999999776482582 -0.08824802935123444
v -0.10127197206020355 0.009999999776482582 -0.08993038535118103
v -0.10517142713069916 0.009999999776482582 -0.09190697968006134
v -0.10603725910186768 0.009999999776482582 -0.08824802935123444
v -0.10517142713069916 0.009999999776482582 -0.09190697968006134
v -0.10965367406606674 0.009999999776482582 -0.08864793181419373
v -0.10965367406606674 0.009999999776482582 -0.08864793181419373
v -0.10517142713069916 0.009999999776482582 -0.09190697968006134
v -0.1095130518078804 0.009999999776482582 -0.09241989254951477
v -0.10965367406606674 0.009999999776482582 -0.08864793181419373
v -0.1095130518078804 0.009999999776482582 -0.09241989254951477
v -0.11312007904052734 0.009999999776482582 -0.0875423327088356
v -0.11312007904052734 0.009999999776482582 -0.0875423327088356
v -0.1095130518078804 0.009999999776482582 -0.09241989254951477
v -0.11376575380563736 0.009999999776482582 -0.09140636771917343
v -0.11312007904052734 0.009999999776482582 -0.0875423327088356
v -0.11376575380563736 0.009999999776482582 -0.09140636771917343
v -0.11583711951971054 0.009999999776482582 -0.08512240648269653
v -0.11583711951971054 0.009999999776482582 -0.08512240648269653
v -0.11376575380563736 0.009999999776482582 -0.09140636771917343
v -0.117409348487854 0.009999999776482582 -0.08899039030075073
v -0.11583711951971054 0.009999999776482582 -0.08512240648269653
v -0.117409348487854 0.009999999776482582 -0.08899039030075073
v -0.11999814212322235 0.009999999776482582 -0.08546748012304306
v -0.016022447496652603 0.009999999776482582 -0.0030872602947056293
v -0.013578929007053375 0.009999999776482582 -0.0005085753509774804
v -0.01652388647198677 0.009999999776482582 -0.009660572744905949
v -0.012191113084554672 0.009999999776482582 0.0027616536244750023
v -0.007514197379350662 0.009999999776482582 0.00998933706432581
v -0.013578929007053375 0.009999999776482582 -0.0005085753509774804
v -0.09226228296756744 0.009999999776482582 -0.07028046995401382
v -0.09021549671888351 0.009999999776482582 -0.07059330493211746
v -0.09276371449232101 0.009999999776482582 -0.07685378193855286
v -0.09276371449232101 0.009999999776482582 -0.07685378193855286
v -0.09021549671888351 0.009999999776482582 -0.07059330493211746
v -0.08828651160001755 0.009999999776482582 -0.06984082609415054
v -0.09276371449232101 0.009999999776482582 -0.07685378193855286
v -0.08828651160001755 0.009999999776482582 -0.06984082609415054
v -0.007732265628874302 0.009999999776482582 -0.014368788339197636
v -0.007732265628874302 0.009999999776482582 -0.014368788339197636
v -0.08828651160001755 0.009999999776482582 -0.06984082609415054
v -0.01576240547001362 0.009999999776482582 -0.01654680259525776
v -0.007732265628874302 0.009999999776482582 -0.014368788339197636
v -0.01576240547001362 0.009999999776482582 -0.01654680259525776
v -0.014468091540038586 0.009999999776482582 -0.014930648729205132
v -0.014907735399901867 0.009999999776482582 -0.010954884812235832
v -0.008548823185265064 0.009999999776482582 -0.0018655332969501615
v -0.01415526308119297 0.009999999776482582 -0.012883867137134075
v -0.01415526308119297 0.009999999776482582 -0.012883867137134075
v -0.008548823185265064 0.009999999776482582 -0.0018655332969501615
v -0.007050956133753061 0.009999999776482582 -0.005181364715099335
v -0.01415526308119297 0.009999999776482582 -0.012883867137134075
v -0.007050956133753061 0.009999999776482582 -0.005181364715099335
v -0.014468091540038586 0.009999999776482582 -0.014930648729205132
v -0.014468091540038586 0.009999999776482582 -0.014930648729205132
v -0.007050956133753061 0.009999999776482582 -0.005181364715099335
v -0.004333922173827887 0.009999999776482582 -0.007601296994835138
v -0.014468091540038586 0.009999999776482582 -0.014930648729205132
v -0.004333922173827887 0.009999999776482582 -0.007601296994835138
v -0.007732265628874302 0.009999999776482582 -0.014368788339197636
v -0.007514197379350662 0.009999999776482582 0.00998933706432581
v -0.00441595446318388 0.009999999776482582 0.0075539289973676205
v -0.007106635719537735 0.009999999776482582 0.005104726646095514
v -0.11607494205236435 0.009999999776482582 -0.06978605687618256
v -0.112132228910923 0.009999999776482582 -0.06789721548557281
v -0.10778021812438965 0.009999999776482582 -0.06748158484697342
v -0.10105390101671219 0.009999999776482582 -0.06557225435972214
v -0.09431806951761246 0.009999999776482582 -0.06501039117574692
v -0.10424474626779556 0.009999999776482582 -0.06713395565748215
v -0.10424474626779556 0.009999999776482582 -0.06713395565748215
v -0.09431806951761246 0.009999999776482582 -0.06501039117574692
v -0.0946309044957161 0.009999999776482582 -0.06705717742443085
v -0.00441595446318388 0.009999999776482582 0.0075539289973676205
v -0.007514197379350662 0.009999999776482582 0.00998933706432581
v -0.0009617143077775836 0.009999999776482582 0.00869698915630579
v -0.013578929007053375 0.009999999776482582 -0.0005085753509774804
v -0.007514197379350662 0.009999999776482582 0.00998933706432581
v -0.01652388647198677 0.009999999776482582 -0.009660572744905949
v -0.01652388647198677 0.009999999776482582 -0.009660572744905949
v -0.007514197379350662 0.009999999776482582 0.00998933706432581
v -0.007106635719537735 0.009999999776482582 0.005104726646095514
v -0.01652388647198677 0.009999999776482582 -0.009660572744905949
v -0.007106635719537735 0.009999999776482582 0.005104726646095514
v -0.014907735399901867 0.009999999776482582 -0.010954884812235832
v -0.014907735399901867 0.009999999776482582 -0.010954884812235832
v -0.007106635719537735 0.009999999776482582 0.005104726646095514
v -0.008568518795073032 0.009999999776482582 0.001772867632098496
v -0.014907735399901867 0.009999999776482582 -0.010954884812235832
v -0.008568518795073032 0.009999999776482582 0.001772867632098496
v -0.008548823185265064 0.009999999776482582 -0.0018655332969501615
v -0.01652388647198677 0.009999999776482582 -0.009660572744905949
v -0.018570667132735252 0.009999999776482582 -0.009347740560770035
v -0.016022447496652603 0.009999999776482582 -0.0030872602947056293
v -0.016022447496652603 0.009999999776482582 -0.0030872602947056293
v -0.018570667132735252 0.009999999776482582 -0.009347740560770035
v -0.02049965411424637 0.009999999776482582 -0.01010021474212408
v -0.016022447496652603 0.009999999776482582 -0.0030872602947056293
v -0.02049965411424637 0.009999999776482582 -0.01010021474212408
v -0.10105390101671219 0.009999999776482582 -0.06557225435972214
v -0.10105390101671219 0.009999999776482582 -0.06557225435972214
v -0.02049965411424637 0.009999999776482582 -0.01010021474212408
v -0.09302376210689545 0.009999999776482582 -0.06339424103498459
v -0.10105390101671219 0.009999999776482582 -0.06557225435972214
v -0.09302376210689545 0.009999999776482582 -0.06339424103498459
v -0.09431806951761246 0.009999999776482582 -0.06501039117574692
v -0.10612735152244568 0.009999999776482582 -0.07160478085279465
v -0.10974787920713425 0.009999999776482582 -0.07124405354261398
v -0.0946309044957161 0.009999999776482582 -0.06705717742443085
v -0.0946309044957161 0.009999999776482582 -0.06705717742443085
v -0.10974787920713425 0.009999999776482582 -0.07124405354261398
v -0.11607494205236435 0.009999999776482582 -0.06978605687618256
v -0.0946309044957161 0.009999999776482582 -0.06705717742443085
v -0.11607494205236435 0.009999999776482582 -0.06978605687618256
v -0.10424474626779556 0.009999999776482582 -0.06713395565748215
v -0.10424474626779556 0.009999999776482582 -0.06713395565748215
v -0.11607494205236435 0.009999999776482582 -0.06978605687618256
v -0.10778021812438965 0.009999999776482582 -0.06748158484697342
v -0.007514197379350662 0.009999999776482582 0.00998933706432581
v -0.003614731365814805 0.009999999776482582 0.011965940706431866
v -0.0009617143077775836 0.009999999776482582 0.00869698915630579
v -0.0009617143077775836 0.009999999776482582 0.00869698915630579
v -0.003614731365814805 0.009999999776482582 0.011965940706431866
v 0.000726887199562043 0.009999999776482582 0.012478848919272423
v -0.0009617143077775836 0.009999999776482582 0.00869698915630579
v 0.000726887199562043 0.009999999776482582 0.012478848919272423
v 0.0026588074397295713 0.009999999776482582 0.008336254395544529
v 0.0026588074397295713 0.009999999776482582 0.008336254395544529
v 0.000726887199562043 0.009999999776482582 0.012478848919272423
v 0.004979591816663742 0.009999999776482582 0.011465325951576233
v 0.0026588074397295713 0.009999999776482582 0.008336254395544529
v 0.004979591816663742 0.009999999776482582 0.011465325951576233
v 0.005819603800773621 0.009999999776482582 0.006534110754728317
v 0.005819603800773621 0.009999999776482582 0.006534110754728317
v 0.004979591816663742 0.009999999776482582 0.011465325951576233
v 0.00862319115549326 0.009999999776482582 0.009049350395798683
v 0.005819603800773621 0.009999999776482582 0.006534110754728317
v 0.00862319115549326 0.009999999776482582 0.009049350395798683
v 0.00797413568943739 0.009999999776482582 0.0036021589767187834
v 0.00797413568943739 0.009999999776482582 0.0036021589767187834
v 0.00862319115549326 0.009999999776482582 0.009049350395798683
v 0.011211984790861607 0.009999999776482582 0.005526443012058735
v 0.00797413568943739 0.009999999776482582 0.0036021589767187834
v 0.011211984790861607 0.009999999776482582 0.005526443012058735
v 0.008749865926802158 0.009999999776482582 4.735973197966814e-05
v 0.008749865926802158 0.009999999776482582 4.735973197966814e-05
v 0.011211984790861607 0.009999999776482582 0.005526443012058735
v 0.012429308146238327 0.009999999776482582 0.0013275288511067629
v 0.008749865926802158 0.009999999776482582 4.735973197966814e-05
v 0.012429308146238327 0.009999999776482582 0.0013275288511067629
v 0.008012671023607254 0.009999999776482582 -0.0035156237427145243
v 0.012429308146238327 0.009999999776482582 0.0013275288511067629
v 0.012126265093684196 0.009999999776482582 -0.0030337655916810036
v 0.008012671023607254 0.009999999776482582 -0.0035156237427145243
v 0.008012671023607254 0.009999999776482582 -0.0035156237427145243
v 0.012126265093684196 0.009999999776482582 -0.0030337655916810036
v 0.010339919477701187 0.009999999776482582 -0.00702396547421813
v 0.008012671023607254 0.009999999776482582 -0.0035156237427145243
v 0.010339919477701187 0.009999999776482582 -0.00702396547421813
v 0.0058900052681565285 0.009999999776482582 -0.006470729596912861
v 0.0058900052681565285 0.009999999776482582 -0.006470729596912861
v 0.010339919477701187 0.009999999776482582 -0.00702396547421813
v 0.007288773078471422 0.009999999776482582 -0.01015498861670494
v 0.0058900052681565285 0.009999999776482582 -0.006470729596912861
v 0.007288773078471422 0.009999999776482582 -0.01015498861670494
v 0.00274890405125916 0.009999999776482582 -0.008306986652314663
v 0.00274890405125916 0.009999999776482582 -0.008306986652314663
v 0.007288773078471422 0.009999999776482582 -0.01015498861670494
v 0.003346062498167157 0.009999999776482582 -0.012043830007314682
v 0.00274890405125916 0.009999999776482582 -0.008306986652314663
v 0.003346062498167157 0.009999999776482582 -0.012043830007314682
v -0.0008675114368088543 0.009999999776482582 -0.008706893771886826
v -0.0008675114368088543 0.009999999776482582 -0.008706893771886826
v 0.003346062498167157 0.009999999776482582 -0.012043830007314682
v -0.0010059465421363711 0.009999999776482582 -0.012459455989301205
v -0.0008675114368088543 0.009999999776482582 -0.008706893771886826
v -0.0010059465421363711 0.009999999776482582 -0.012459455989301205
v -0.004333922173827887 0.009999999776482582 -0.007601296994835138
v -0.004333922173827887 0.009999999776482582 -0.007601296994835138
v -0.0010059465421363711 0.009999999776482582 -0.012459455989301205
v -0.00454142177477479 0.009999999776482582 -0.012807086110115051
v -0.004333922173827887 0.009999999776482582 -0.007601296994835138
v -0.00454142177477479 0.009999999776482582 -0.012807086110115051
v -0.007732265628874302 0.009999999776482582 -0.014368788339197636
v -0.09659504890441895 0.009999999776482582 -0.08270269632339478
v -0.09659504890441895 2.235173712783478e-10 -0.08270269632339478
v -0.09829165786504745 2.235173712783478e-10 -0.08673187345266342
v -0.09659504890441895 0.009999999776482582 -0.08270269632339478
v -0.09829165786504745 2.235173712783478e-10 -0.08673187345266342
v -0.09829165786504745 0.009999999776482582 -0.08673187345266342
v -0.09829165786504745 0.009999999776482582 -0.08673187345266342
v -0.09829165786504745 2.235173712783478e-10 -0.08673187345266342
v -0.10127197206020355 2.235173712783478e-10 -0.08993038535118103
v -0.09829165786504745 0.009999999776482582 -0.08673187345266342
v -0.10127197206020355 2.235173712783478e-10 -0.08993038535118103
v -0.10127197206020355 0.009999999776482582 -0.08993038535118103
v -0.10127197206020355 0.009999999776482582 -0.08993038535118103
v -0.10127197206020355 2.235173712783478e-10 -0.08993038535118103
v -0.10517142713069916 2.235173712783478e-10 -0.09190697968006134
v -0.10127197206020355 0.009999999776482582 -0.08993038535118103
v -0.10517142713069916 2.235173712783478e-10 -0.09190697968006134
v -0.10517142713069916 0.009999999776482582 -0.09190697968006134
v -0.10517142713069916 0.009999999776482582 -0.09190697968006134
v -0.10517142713069916 2.235173712783478e-10 -0.09190697968006134
v -0.1095130518078804 2.235173712783478e-10 -0.09241989254951477
v -0.10517142713069916 0.009999999776482582 -0.09190697968006134
v -0.1095130518078804 2.235173712783478e-10 -0.09241989254951477
v -0.1095130518078804 0.009999999776482582 -0.09241989254951477
v -0.1095130518078804 0.009999999776482582 -0.09241989254951477
v -0.1095130518078804 2.235173712783478e-10 -0.09241989254951477
v -0.11376575380563736 2.235173712783478e-10 -0.09140636771917343
v -0.1095130518078804 0.009999999776482582 -0.09241989254951477
v -0.11376575380563736 2.235173712783478e-10 -0.09140636771917343
v -0.11376575380563736 0.009999999776482582 -0.09140636771917343
v -0.11376575380563736 0.009999999776482582 -0.09140636771917343
v -0.11376575380563736 2.235173712783478e-10 -0.09140636771917343
v -0.117409348487854 2.235173712783478e-10 -0.08899039030075073
v -0.11376575380563736 0.009999999776482582 -0.09140636771917343
v -0.117409348487854 2.235173712783478e-10 -0.08899039030075073
v -0.117409348487854 0.009999999776482582 -0.08899039030075073
v -0.117409348487854 0.009999999776482582 -0.08899039030075073
v -0.117409348487854 2.235173712783478e-10 -0.08899039030075073
v -0.11999814212322235 2.235173712783478e-10 -0.08546748012304306
v -0.117409348487854 0.009999999776482582 -0.08899039030075073
v -0.11999814212322235 2.235173712783478e-10 -0.08546748012304306
v -0.11999814212322235 0.009999999776482582 -0.08546748012304306
v -0.11999814212322235 0.009999999776482582 -0.08546748012304306
v -0.11999814212322235 2.235173712783478e-10 -0.08546748012304306
v -0.12121547013521194 2.235173712783478e-10 -0.08126857131719589
v -0.11999814212322235 0.009999999776482582 -0.08546748012304306
v -0.12121547013521194 2.235173712783478e-10 -0.08126857131719589
v -0.12121547013521194 0.009999999776482582 -0.08126857131719589
v -0.12121547013521194 0.009999999776482582 -0.08126857131719589
v -0.12121547013521194 2.235173712783478e-10 -0.08126857131719589
v -0.12091242522001266 2.235173712783478e-10 -0.07690727710723877
v -0.12121547013521194 0.009999999776482582 -0.08126857131719589
v -0.12091242522001266 2.235173712783478e-10 -0.07690727710723877
v -0.12091242522001266 0.009999999776482582 -0.07690727710723877
v -0.12091242522001266 0.009999999776482582 -0.07690727710723877
v -0.12091242522001266 2.235173712783478e-10 -0.07690727710723877
v -0.1191260814666748 2.235173712783478e-10 -0.07291707396507263
v -0.12091242522001266 0.009999999776482582 -0.07690727710723877
v -0.1191260814666748 2.235173712783478e-10 -0.07291707396507263
v -0.1191260814666748 0.009999999776482582 -0.07291707396507263
v -0.1191260814666748 0.009999999776482582 -0.07291707396507263
v -0.1191260814666748 2.235173712783478e-10 -0.07291707396507263
v -0.11607494205236435 2.235173712783478e-10 -0.06978605687618256
v -0.1191260814666748 0.009999999776482582 -0.07291707396507263
v -0.11607494205236435 2.235173712783478e-10 -0.06978605687618256
v -0.11607494205236435 0.009999999776482582 -0.06978605687618256
v -0.11607494205236435 0.009999999776482582 -0.06978605687618256
v -0.11607494205236435 2.235173712783478e-10 -0.06978605687618256
v -0.112132228910923 2.235173712783478e-10 -0.06789721548557281
v -0.11607494205236435 0.009999999776482582 -0.06978605687618256
v -0.112132228910923 2.235173712783478e-10 -0.06789721548557281
v -0.112132228910923 0.009999999776482582 -0.06789721548557281
v -0.112132228910923 0.009999999776482582 -0.06789721548557281
v -0.112132228910923 2.235173712783478e-10 -0.06789721548557281
v -0.10778021812438965 2.235173712783478e-10 -0.06748158484697342
v -0.112132228910923 0.009999999776482582 -0.06789721548557281
v -0.10778021812438965 2.235173712783478e-10 -0.06748158484697342
v -0.10778021812438965 0.009999999776482582 -0.06748158484697342
v -0.012191113084554672 0.009999999776482582 0.0027616536244750023
v -0.012191113084554672 2.2351742678949904e-10 0.0027616536244750023
v -0.010494505055248737 2.2351742678949904e-10 0.006790828425437212
v -0.012191113084554672 0.009999999776482582 0.0027616536244750023
v -0.010494505055248737 2.2351742678949904e-10 0.006790828425437212
v -0.010494505055248737 0.009999999776482582 0.006790828425437212
v -0.010494505055248737 0.009999999776482582 0.006790828425437212
v -0.010494505055248737 2.2351742678949904e-10 0.006790828425437212
v -0.007514197379350662 2.2351742678949904e-10 0.00998933706432581
v -0.010494505055248737 0.009999999776482582 0.006790828425437212
v -0.007514197379350662 2.2351742678949904e-10 0.00998933706432581
v -0.007514197379350662 0.009999999776482582 0.00998933706432581
v -0.007514197379350662 0.009999999776482582 0.00998933706432581
v -0.007514197379350662 2.2351742678949904e-10 0.00998933706432581
v -0.003614731365814805 2.2351742678949904e-10 0.011965940706431866
v -0.007514197379350662 0.009999999776482582 0.00998933706432581
v -0.003614731365814805 2.2351742678949904e-10 0.011965940706431866
v -0.003614731365814805 0.009999999776482582 0.011965940706431866
v -0.003614731365814805 0.009999999776482582 0.011965940706431866
v -0.003614731365814805 2.2351742678949904e-10 0.011965940706431866
v 0.000726887199562043 2.2351742678949904e-10 0.012478848919272423
v -0.003614731365814805 0.009999999776482582 0.011965940706431866
v 0.000726887199562043 2.2351742678949904e-10 0.012478848919272423
v 0.000726887199562043 0.009999999776482582 0.012478848919272423
v 0.000726887199562043 0.009999999776482582 0.012478848919272423
v 0.000726887199562043 2.2351742678949904e-10 0.012478848919272423
v 0.004979591816663742 2.2351742678949904e-10 0.011465325951576233
v 0.000726887199562043 0.009999999776482582 0.012478848919272423
v 0.004979591816663742 2.2351742678949904e-10 0.011465325951576233
v 0.004979591816663742 0.009999999776482582 0.011465325951576233
v 0.004979591816663742 0.009999999776482582 0.011465325951576233
v 0.004979591816663742 2.2351742678949904e-10 0.011465325951576233
v 0.00862319115549326 2.2351742678949904e-10 0.009049350395798683
v 0.004979591816663742 0.009999999776482582 0.011465325951576233
v 0.00862319115549326 2.2351742678949904e-10 0.009049350395798683
v 0.00862319115549326 0.009999999776482582 0.009049350395798683
v 0.00862319115549326 0.009999999776482582 0.009049350395798683
v 0.00862319115549326 2.2351742678949904e-10 0.009049350395798683
v 0.011211984790861607 2.2351742678949904e-10 0.005526443012058735
v 0.00862319115549326 0.009999999776482582 0.009049350395798683
v 0.011211984790861607 2.2351742678949904e-10 0.005526443012058735
v 0.011211984790861607 0.009999999776482582 0.005526443012058735
v 0.011211984790861607 0.009999999776482582 0.005526443012058735
v 0.011211984790861607 2.2351742678949904e-10 0.005526443012058735
v 0.012429308146238327 2.2351742678949904e-10 0.0013275288511067629
v 0.011211984790861607 0.009999999776482582 0.005526443012058735
v 0.012429308146238327 2.2351742678949904e-10 0.0013275288511067629
v 0.012429308146238327 0.009999999776482582 0.0013275288511067629
v 0.012429308146238327 0.009999999776482582 0.0013275288511067629
v 0.012429308146238327 2.2351742678949904e-10 0.0013275288511067629
v 0.012126265093684196 2.2351742678949904e-10 -0.0030337655916810036
v 0.012429308146238327 0.009999999776482582 0.0013275288511067629
v 0.012126265093684196 2.2351742678949904e-10 -0.0030337655916810036
v 0.012126265093684196 0.009999999776482582 -0.0030337655916810036
v 0.012126265093684196 0.009999999776482582 -0.0030337655916810036
v 0.012126265093684196 2.2351742678949904e-10 -0.0030337655916810036
v 0.010339919477701187 2.2351742678949904e-10 -0.00702396547421813
v 0.012126265093684196 0.009999999776482582 -0.0030337655916810036
v 0.010339919477701187 2.2351742678949904e-10 -0.00702396547421813
v 0.010339919477701187 0.009999999776482582 -0.00702396547421813
v 0.010339919477701187 0.009999999776482582 -0.00702396547421813
v 0.010339919477701187 2.2351742678949904e-10 -0.00702396547421813
v 0.007288773078471422 2.2351742678949904e-10 -0.01015498861670494
v 0.010339919477701187 0.009999999776482582 -0.00702396547421813
v 0.007288773078471422 2.2351742678949904e-10 -0.01015498861670494
v 0.007288773078471422 0.009999999776482582 -0.01015498861670494
v 0.007288773078471422 0.009999999776482582 -0.01015498861670494
v 0.007288773078471422 2.2351742678949904e-10 -0.01015498861670494
v 0.003346062498167157 2.2351742678949904e-10 -0.012043830007314682
v 0.007288773078471422 0.009999999776482582 -0.01015498861670494
v 0.003346062498167157 2.2351742678949904e-10 -0.012043830007314682
v 0.003346062498167157 0.009999999776482582 -0.012043830007314682
v 0.003346062498167157 0.009999999776482582 -0.012043830007314682
v 0.003346062498167157 2.2351742678949904e-10 -0.012043830007314682
v -0.0010059465421363711 2.2351742678949904e-10 -0.012459455989301205
v 0.003346062498167157 0.009999999776482582 -0.012043830007314682
v -0.0010059465421363711 2.2351742678949904e-10 -0.012459455989301205
v -0.0010059465421363711 0.009999999776482582 -0.012459455989301205
v -0.007050956133753061 0.008949999697506428 -0.005181364715099335
v -0.007050956133753061 0.009999999776482582 -0.005181364715099335
v -0.008548823185265064 0.008949999697506428 -0.0018655332969501615
v -0.008548823185265064 0.008949999697506428 -0.0018655332969501615
v -0.007050956133753061 0.009999999776482582 -0.005181364715099335
v -0.008548823185265064 0.009999999776482582 -0.0018655332969501615
v -0.008548823185265064 0.008949999697506428 -0.0018655332969501615
v -0.008548823185265064 0.009999999776482582 -0.0018655332969501615
v -0.008568518795073032 0.008949999697506428 0.001772867632098496
v -0.008568518795073032 0.008949999697506428 0.001772867632098496
v -0.008548823185265064 0.009999999776482582 -0.0018655332969501615
v -0.008568518795073032 0.009999999776482582 0.001772867632098496
v -0.008568518795073032 0.008949999697506428 0.001772867632098496
v -0.008568518795073032 0.009999999776482582 0.001772867632098496
v -0.007106635719537735 0.008949999697506428 0.005104726646095514
v -0.007106635719537735 0.008949999697506428 0.005104726646095514
v -0.008568518795073032 0.009999999776482582 0.001772867632098496
v -0.007106635719537735 0.009999999776482582 0.005104726646095514
v -0.007106635719537735 0.008949999697506428 0.005104726646095514
v -0.007106635719537735 0.009999999776482582 0.005104726646095514
v -0.00441595446318388 0.008949999697506428 0.0075539289973676205
v -0.00441595446318388 0.008949999697506428 0.0075539289973676205
v -0.007106635719537735 0.009999999776482582 0.005104726646095514
v -0.00441595446318388 0.009999999776482582 0.0075539289973676205
v -0.00441595446318388 0.008949999697506428 0.0075539289973676205
v -0.00441595446318388 0.009999999776482582 0.0075539289973676205
v -0.0009617143077775836 0.008949999697506428 0.00869698915630579
v -0.0009617143077775836 0.008949999697506428 0.00869698915630579
v -0.00441595446318388 0.009999999776482582 0.0075539289973676205
v -0.0009617143077775836 0.009999999776482582 0.00869698915630579
v -0.0009617143077775836 0.008949999697506428 0.00869698915630579
v -0.0009617143077775836 0.009999999776482582 0.00869698915630579
v 0.0026588074397295713 0.008949999697506428 0.008336254395544529
v 0.0026588074397295713 0.008949999697506428 0.008336254395544529
v -0.0009617143077775836 0.009999999776482582 0.00869698915630579
v 0.0026588074397295713 0.009999999776482582 0.008336254395544529
v 0.0026588074397295713 0.008949999697506428 0.008336254395544529
v 0.0026588074397295713 0.009999999776482582 0.008336254395544529
v 0.005819603800773621 0.008949999697506428 0.006534110754728317
v 0.005819603800773621 0.008949999697506428 0.006534110754728317
v 0.0026588074397295713 0.009999999776482582 0.008336254395544529
v 0.005819603800773621 0.009999999776482582 0.006534110754728317
v 0.005819603800773621 0.008949999697506428 0.006534110754728317
v 0.005819603800773621 0.009999999776482582 0.006534110754728317
v 0.00797413568943739 0.008949999697506428 0.0036021589767187834
v 0.00797413568943739 0.008949999697506428 0.0036021589767187834
v 0.005819603800773621 0.009999999776482582 0.006534110754728317
v 0.00797413568943739 0.009999999776482582 0.0036021589767187834
v 0.00797413568943739 0.008949999697506428 0.0036021589767187834
v 0.00797413568943739 0.009999999776482582 0.0036021589767187834
v 0.008749865926802158 0.008949999697506428 4.735973197966814e-05
v 0.008749865926802158 0.008949999697506428 4.735973197966814e-05
v 0.00797413568943739 0.009999999776482582 0.0036021589767187834
v 0.008749865926802158 0.009999999776482582 4.735973197966814e-05
v 0.008749865926802158 0.008949999697506428 4.735973197966814e-05
v 0.008749865926802158 0.009999999776482582 4.735973197966814e-05
v 0.008012671023607254 0.008949999697506428 -0.0035156237427145243
v 0.008012671023607254 0.008949999697506428 -0.0035156237427145243
v 0.008749865926802158 0.009999999776482582 4.735973197966814e-05
v 0.008012671023607254 0.009999999776482582 -0.0035156237427145243
v 0.008012671023607254 0.008949999697506428 -0.0035156237427145243
v 0.008012671023607254 0.009999999776482582 -0.0035156237427145243
v 0.0058900052681565285 0.008949999697506428 -0.006470729596912861
v 0.0058900052681565285 0.008949999697506428 -0.006470729596912861
v 0.008012671023607254 0.009999999776482582 -0.0035156237427145243
v 0.0058900052681565285 0.009999999776482582 -0.006470729596912861
v 0.0058900052681565285 0.008949999697506428 -0.006470729596912861
v 0.0058900052681565285 0.009999999776482582 -0.006470729596912861
v 0.00274890405125916 0.008949999697506428 -0.008306986652314663
v 0.00274890405125916 0.008949999697506428 -0.008306986652314663
v 0.0058900052681565285 0.009999999776482582 -0.006470729596912861
v 0.00274890405125916 0.009999999776482582 -0.008306986652314663
v 0.00274890405125916 0.008949999697506428 -0.008306986652314663
v 0.00274890405125916 0.009999999776482582 -0.008306986652314663
v -0.0008675114368088543 0.008949999697506428 -0.008706893771886826
v -0.0008675114368088543 0.008949999697506428 -0.008706893771886826
v 0.00274890405125916 0.009999999776482582 -0.008306986652314663
v -0.0008675114368088543 0.009999999776482582 -0.008706893771886826
v -0.0008675114368088543 0.008949999697506428 -0.008706893771886826
v -0.0008675114368088543 0.009999999776482582 -0.008706893771886826
v -0.004333922173827887 0.008949999697506428 -0.007601296994835138
v -0.004333922173827887 0.008949999697506428 -0.007601296994835138
v -0.0008675114368088543 0.009999999776482582 -0.008706893771886826
v -0.004333922173827887 0.009999999776482582 -0.007601296994835138
v -0.004333922173827887 0.008949999697506428 -0.007601296994835138
v -0.004333922173827887 0.009999999776482582 -0.007601296994835138
v -0.007050956133753061 0.008949999697506428 -0.005181364715099335
v -0.007050956133753061 0.008949999697506428 -0.005181364715099335
v -0.004333922173827887 0.009999999776482582 -0.007601296994835138
v -0.007050956133753061 0.009999999776482582 -0.005181364715099335
v 0.0026588074397295713 0.008949999697506428 0.008336254395544529
v 0.005819603800773621 0.008949999697506428 0.006534110754728317
v 0.006031582597643137 0.008949999697506428 0.004432282410562038
v 0.006031582597643137 0.008949999697506428 0.004432282410562038
v 0.005819603800773621 0.008949999697506428 0.006534110754728317
v 0.00797413568943739 0.008949999697506428 0.0036021589767187834
v 0.006031582597643137 0.008949999697506428 0.004432282410562038
v 0.00797413568943739 0.008949999697506428 0.0036021589767187834
v 0.007357368711382151 0.008949999697506428 0.0013763426104560494
v 0.007357368711382151 0.008949999697506428 0.0013763426104560494
v 0.00797413568943739 0.008949999697506428 0.0036021589767187834
v 0.008749865926802158 0.008949999697506428 4.735973197966814e-05
v 0.007357368711382151 0.008949999697506428 0.0013763426104560494
v 0.008749865926802158 0.008949999697506428 4.735973197966814e-05
v 0.007225938607007265 0.008949999697506428 -0.0019521976355463266
v 0.007225938607007265 0.008949999697506428 -0.0019521976355463266
v 0.008749865926802158 0.008949999697506428 4.735973197966814e-05
v 0.008012671023607254 0.008949999697506428 -0.0035156237427145243
v 0.007225938607007265 0.008949999697506428 -0.0019521976355463266
v 0.008012671023607254 0.008949999697506428 -0.0035156237427145243
v 0.005663313437253237 0.008949999697506428 -0.00489408802241087
v 0.005663313437253237 0.008949999697506428 -0.00489408802241087
v 0.008012671023607254 0.008949999697506428 -0.0035156237427145243
v 0.0058900052681565285 0.008949999697506428 -0.006470729596912861
v 0.005663313437253237 0.008949999697506428 -0.00489408802241087
v 0.0058900052681565285 0.008949999697506428 -0.006470729596912861
v 0.002979002892971039 0.008949999697506428 -0.00686664180830121
v 0.002979002892971039 0.008949999697506428 -0.00686664180830121
v 0.0058900052681565285 0.008949999697506428 -0.006470729596912861
v 0.00274890405125916 0.008949999697506428 -0.008306986652314663
v 0.002979002892971039 0.008949999697506428 -0.00686664180830121
v 0.00274890405125916 0.008949999697506428 -0.008306986652314663
v -0.0002953274524770677 0.008949999697506428 -0.00747916754335165
v -0.0002953274524770677 0.008949999697506428 -0.00747916754335165
v 0.00274890405125916 0.008949999697506428 -0.008306986652314663
v -0.0008675114368088543 0.008949999697506428 -0.008706893771886826
v -0.0002953274524770677 0.008949999697506428 -0.00747916754335165
v -0.0008675114368088543 0.008949999697506428 -0.008706893771886826
v -0.00351117760874331 0.008949999697506428 -0.006610361393541098
v -0.00351117760874331 0.008949999697506428 -0.006610361393541098
v -0.0008675114368088543 0.008949999697506428 -0.008706893771886826
v -0.004333922173827887 0.008949999697506428 -0.007601296994835138
v -0.00351117760874331 0.008949999697506428 -0.006610361393541098
v -0.004333922173827887 0.008949999697506428 -0.007601296994835138
v -0.006031585857272148 0.008949999697506428 -0.004432284738868475
v -0.006031585857272148 0.008949999697506428 -0.004432284738868475
v -0.004333922173827887 0.008949999697506428 -0.007601296994835138
v -0.007050956133753061 0.008949999697506428 -0.005181364715099335
v -0.006031585857272148 0.008949999697506428 -0.004432284738868475
v -0.007050956133753061 0.008949999697506428 -0.005181364715099335
v -0.007357371971011162 0.008949999697506428 -0.0013763450551778078
v -0.007357371971011162 0.008949999697506428 -0.0013763450551778078
v -0.007050956133753061 0.008949999697506428 -0.005181364715099335
v -0.008548823185265064 0.008949999697506428 -0.0018655332969501615
v -0.007357371971011162 0.008949999697506428 -0.0013763450551778078
v -0.008548823185265064 0.008949999697506428 -0.0018655332969501615
v -0.0072259302251040936 0.008949999697506428 0.0019522040383890271
v -0.0072259302251040936 0.008949999697506428 0.0019522040383890271
v -0.008548823185265064 0.008949999697506428 -0.0018655332969501615
v -0.008568518795073032 0.008949999697506428 0.001772867632098496
v -0.0072259302251040936 0.008949999697506428 0.0019522040383890271
v -0.008568518795073032 0.008949999697506428 0.001772867632098496
v -0.005663316696882248 0.008949999697506428 0.004894085694104433
v -0.005663316696882248 0.008949999697506428 0.004894085694104433
v -0.008568518795073032 0.008949999697506428 0.001772867632098496
v -0.007106635719537735 0.008949999697506428 0.005104726646095514
v -0.005663316696882248 0.008949999697506428 0.004894085694104433
v -0.007106635719537735 0.008949999697506428 0.005104726646095514
v -0.0029790063854306936 0.008949999697506428 0.006866639479994774
v -0.0029790063854306936 0.008949999697506428 0.006866639479994774
v -0.007106635719537735 0.008949999697506428 0.005104726646095514
v -0.00441595446318388 0.008949999697506428 0.0075539289973676205
v -0.0029790063854306936 0.008949999697506428 0.006866639479994774
v -0.00441595446318388 0.008949999697506428 0.0075539289973676205
v 0.00029533609631471336 0.008949999697506428 0.0074791740626096725
v 0.00029533609631471336 0.008949999697506428 0.0074791740626096725
v -0.00441595446318388 0.008949999697506428 0.0075539289973676205
v -0.0009617143077775836 0.008949999697506428 0.00869698915630579
v 0.00029533609631471336 0.008949999697506428 0.0074791740626096725
v -0.0009617143077775836 0.008949999697506428 0.00869698915630579
v 0.003511174116283655 0.008949999697506428 0.006610359065234661
v 0.003511174116283655 0.008949999697506428 0.006610359065234661
v -0.0009617143077775836 0.008949999697506428 0.00869698915630579
v 0.0026588074397295713 0.008949999697506428 0.008336254395544529
v 0.003511174116283655 0.008949999697506428 0.006610359065234661
v 0.0026588074397295713 0.008949999697506428 0.008336254395544529
v 0.006031582597643137 0.008949999697506428 0.004432282410562038
v -0.11583711951971054 0.008949999697506428 -0.08512240648269653
v -0.11583711951971054 0.009999999776482582 -0.08512240648269653
v -0.11733498424291611 0.008949999697506428 -0.08180657029151917
v -0.11733498424291611 0.008949999697506428 -0.08180657029151917
v -0.11583711951971054 0.009999999776482582 -0.08512240648269653
v -0.11733498424291611 0.009999999776482582 -0.08180657029151917
v -0.11733498424291611 0.008949999697506428 -0.08180657029151917
v -0.11733498424291611 0.009999999776482582 -0.08180657029151917
v -0.11735467612743378 0.008949999697506428 -0.07816816866397858
v -0.11735467612743378 0.008949999697506428 -0.07816816866397858
v -0.11733498424291611 0.009999999776482582 -0.08180657029151917
v -0.11735467612743378 0.009999999776482582 -0.07816816866397858
v -0.11735467612743378 0.008949999697506428 -0.07816816866397858
v -0.11735467612743378 0.009999999776482582 -0.07816816866397858
v -0.11589279770851135 0.008949999697506428 -0.07483631372451782
v -0.11589279770851135 0.008949999697506428 -0.07483631372451782
v -0.11735467612743378 0.009999999776482582 -0.07816816866397858
v -0.11589279770851135 0.009999999776482582 -0.07483631372451782
v -0.11589279770851135 0.008949999697506428 -0.07483631372451782
v -0.11589279770851135 0.009999999776482582 -0.07483631372451782
v -0.11320211738348007 0.008949999697506428 -0.07238711416721344
v -0.11320211738348007 0.008949999697506428 -0.07238711416721344
v -0.11589279770851135 0.009999999776482582 -0.07483631372451782
v -0.11320211738348007 0.009999999776482582 -0.07238711416721344
v -0.11320211738348007 0.008949999697506428 -0.07238711416721344
v -0.11320211738348007 0.009999999776482582 -0.07238711416721344
v -0.10974787920713425 0.008949999697506428 -0.07124405354261398
v -0.10974787920713425 0.008949999697506428 -0.07124405354261398
v -0.11320211738348007 0.009999999776482582 -0.07238711416721344
v -0.10974787920713425 0.009999999776482582 -0.07124405354261398
v -0.10974787920713425 0.008949999697506428 -0.07124405354261398
v -0.10974787920713425 0.009999999776482582 -0.07124405354261398
v -0.10612735152244568 0.008949999697506428 -0.07160478085279465
v -0.10612735152244568 0.008949999697506428 -0.07160478085279465
v -0.10974787920713425 0.009999999776482582 -0.07124405354261398
v -0.10612735152244568 0.009999999776482582 -0.07160478085279465
v -0.10612735152244568 0.008949999697506428 -0.07160478085279465
v -0.10612735152244568 0.009999999776482582 -0.07160478085279465
v -0.1029665544629097 0.008949999697506428 -0.07340692728757858
v -0.1029665544629097 0.008949999697506428 -0.07340692728757858
v -0.10612735152244568 0.009999999776482582 -0.07160478085279465
v -0.1029665544629097 0.009999999776482582 -0.07340692728757858
v -0.1029665544629097 0.008949999697506428 -0.07340692728757858
v -0.1029665544629097 0.009999999776482582 -0.07340692728757858
v -0.10081202536821365 0.008949999697506428 -0.07633887976408005
v -0.10081202536821365 0.008949999697506428 -0.07633887976408005
v -0.1029665544629097 0.009999999776482582 -0.07340692728757858
v -0.10081202536821365 0.009999999776482582 -0.07633887976408005
v -0.10081202536821365 0.008949999697506428 -0.07633887976408005
v -0.10081202536821365 0.009999999776482582 -0.07633887976408005
v -0.10003629326820374 0.008949999697506428 -0.07989367842674255
v -0.10003629326820374 0.008949999697506428 -0.07989367842674255
v -0.10081202536821365 0.009999999776482582 -0.07633887976408005
v -0.10003629326820374 0.009999999776482582 -0.07989367842674255
v -0.10003629326820374 0.008949999697506428 -0.07989367842674255
v -0.10003629326820374 0.009999999776482582 -0.07989367842674255
v -0.10077349096536636 0.008949999697506428 -0.08345666527748108
v -0.10077349096536636 0.008949999697506428 -0.08345666527748108
v -0.10003629326820374 0.009999999776482582 -0.07989367842674255
v -0.10077349096536636 0.009999999776482582 -0.08345666527748108
v -0.10077349096536636 0.008949999697506428 -0.08345666527748108
v -0.10077349096536636 0.009999999776482582 -0.08345666527748108
v -0.10289616137742996 0.008949999697506428 -0.08641177415847778
v -0.10289616137742996 0.008949999697506428 -0.08641177415847778
v -0.10077349096536636 0.009999999776482582 -0.08345666527748108
v -0.10289616137742996 0.009999999776482582 -0.08641177415847778
v -0.10289616137742996 0.008949999697506428 -0.08641177415847778
v -0.10289616137742996 0.009999999776482582 -0.08641177415847778
v -0.10603725910186768 0.008949999697506428 -0.08824802935123444
v -0.10603725910186768 0.008949999697506428 -0.08824802935123444
v -0.10289616137742996 0.009999999776482582 -0.08641177415847778
v -0.10603725910186768 0.009999999776482582 -0.08824802935123444
v -0.10603725910186768 0.008949999697506428 -0.08824802935123444
v -0.10603725910186768 0.009999999776482582 -0.08824802935123444
v -0.10965367406606674 0.008949999697506428 -0.08864793181419373
v -0.10965367406606674 0.008949999697506428 -0.08864793181419373
v -0.10603725910186768 0.009999999776482582 -0.08824802935123444
v -0.10965367406606674 0.009999999776482582 -0.08864793181419373
v -0.10965367406606674 0.008949999697506428 -0.08864793181419373
v -0.10965367406606674 0.009999999776482582 -0.08864793181419373
v -0.11312007904052734 0.008949999697506428 -0.0875423327088356
v -0.11312007904052734 0.008949999697506428 -0.0875423327088356
v -0.10965367406606674 0.009999999776482582 -0.08864793181419373
v -0.11312007904052734 0.009999999776482582 -0.0875423327088356
v -0.11312007904052734 0.008949999697506428 -0.0875423327088356
v -0.11312007904052734 0.009999999776482582 -0.0875423327088356
v -0.11583711951971054 0.008949999697506428 -0.08512240648269653
v -0.11583711951971054 0.008949999697506428 -0.08512240648269653
v -0.11312007904052734 0.009999999776482582 -0.0875423327088356
v -0.11583711951971054 0.009999999776482582 -0.08512240648269653
v -0.10612735152244568 0.008949999697506428 -0.07160478085279465
v -0.1029665544629097 0.008949999697506428 -0.07340692728757858
v -0.10275054723024368 0.008949999697506428 -0.07550579309463501
v -0.10275054723024368 0.008949999697506428 -0.07550579309463501
v -0.1029665544629097 0.008949999697506428 -0.07340692728757858
v -0.10081202536821365 0.008949999697506428 -0.07633887976408005
v -0.10275054723024368 0.008949999697506428 -0.07550579309463501
v -0.10081202536821365 0.008949999697506428 -0.07633887976408005
v -0.10142388194799423 0.008949999697506428 -0.07856377959251404
v -0.10142388194799423 0.008949999697506428 -0.07856377959251404
v -0.10081202536821365 0.008949999697506428 -0.07633887976408005
v -0.10003629326820374 0.008949999697506428 -0.07989367842674255
v -0.10142388194799423 0.008949999697506428 -0.07856377959251404
v -0.10003629326820374 0.008949999697506428 -0.07989367842674255
v -0.10155539959669113 0.008949999697506428 -0.08189454674720764
v -0.10155539959669113 0.008949999697506428 -0.08189454674720764
v -0.10003629326820374 0.008949999697506428 -0.07989367842674255
v -0.10077349096536636 0.008949999697506428 -0.08345666527748108
v -0.10155539959669113 0.008949999697506428 -0.08189454674720764
v -0.10077349096536636 0.008949999697506428 -0.08345666527748108
v -0.10311906784772873 0.008949999697506428 -0.0848383978009224
v -0.10311906784772873 0.008949999697506428 -0.0848383978009224
v -0.10077349096536636 0.008949999697506428 -0.08345666527748108
v -0.10289616137742996 0.008949999697506428 -0.08641177415847778
v -0.10311906784772873 0.008949999697506428 -0.0848383978009224
v -0.10289616137742996 0.008949999697506428 -0.08641177415847778
v -0.1058051660656929 0.008949999697506428 -0.08681227266788483
v -0.1058051660656929 0.008949999697506428 -0.08681227266788483
v -0.10289616137742996 0.008949999697506428 -0.08641177415847778
v -0.10603725910186768 0.008949999697506428 -0.08824802935123444
v -0.1058051660656929 0.008949999697506428 -0.08681227266788483
v -0.10603725910186768 0.008949999697506428 -0.08824802935123444
v -0.1090816929936409 0.008949999697506428 -0.08742520958185196
v -0.1090816929936409 0.008949999697506428 -0.08742520958185196
v -0.10603725910186768 0.008949999697506428 -0.08824802935123444
v -0.10965367406606674 0.008949999697506428 -0.08864793181419373
v -0.1090816929936409 0.008949999697506428 -0.08742520958185196
v -0.10965367406606674 0.008949999697506428 -0.08864793181419373
v -0.11229968816041946 0.008949999697506428 -0.08655581623315811
v -0.11229968816041946 0.008949999697506428 -0.08655581623315811
v -0.10965367406606674 0.008949999697506428 -0.08864793181419373
v -0.11312007904052734 0.008949999697506428 -0.0875423327088356
v -0.11229968816041946 0.008949999697506428 -0.08655581623315811
v -0.11312007904052734 0.008949999697506428 -0.0875423327088356
v -0.11482178419828415 0.008949999697506428 -0.08437629044055939
v -0.11482178419828415 0.008949999697506428 -0.08437629044055939
v -0.11312007904052734 0.008949999697506428 -0.0875423327088356
v -0.11583711951971054 0.008949999697506428 -0.08512240648269653
v -0.11482178419828415 0.008949999697506428 -0.08437629044055939
v -0.11583711951971054 0.008949999697506428 -0.08512240648269653
v -0.1161484494805336 0.008949999697506428 -0.08131830394268036
v -0.1161484494805336 0.008949999697506428 -0.08131830394268036
v -0.11583711951971054 0.008949999697506428 -0.08512240648269653
v -0.11733498424291611 0.008949999697506428 -0.08180657029151917
v -0.1161484494805336 0.008949999697506428 -0.08131830394268036
v -0.11733498424291611 0.008949999697506428 -0.08180657029151917
v -0.1160169243812561 0.008949999697506428 -0.07798753678798676
v -0.1160169243812561 0.008949999697506428 -0.07798753678798676
v -0.11733498424291611 0.008949999697506428 -0.08180657029151917
v -0.11735467612743378 0.008949999697506428 -0.07816816866397858
v -0.1160169243812561 0.008949999697506428 -0.07798753678798676
v -0.11735467612743378 0.008949999697506428 -0.07816816866397858
v -0.1144532635807991 0.008949999697506428 -0.075043685734272
v -0.1144532635807991 0.008949999697506428 -0.075043685734272
v -0.11735467612743378 0.008949999697506428 -0.07816816866397858
v -0.11589279770851135 0.008949999697506428 -0.07483631372451782
v -0.1144532635807991 0.008949999697506428 -0.075043685734272
v -0.11589279770851135 0.008949999697506428 -0.07483631372451782
v -0.11176715791225433 0.008949999697506428 -0.07306981831789017
v -0.11176715791225433 0.008949999697506428 -0.07306981831789017
v -0.11589279770851135 0.008949999697506428 -0.07483631372451782
v -0.11320211738348007 0.008949999697506428 -0.07238711416721344
v -0.11176715791225433 0.008949999697506428 -0.07306981831789017
v -0.11320211738348007 0.008949999697506428 -0.07238711416721344
v -0.10849063843488693 0.008949999697506428 -0.07245687395334244
v -0.10849063843488693 0.008949999697506428 -0.07245687395334244
v -0.11320211738348007 0.008949999697506428 -0.07238711416721344
v -0.10974787920713425 0.008949999697506428 -0.07124405354261398
v -0.10849063843488693 0.008949999697506428 -0.07245687395334244
v -0.10974787920713425 0.008949999697506428 -0.07124405354261398
v -0.10527264326810837 0.008949999697506428 -0.07332626730203629
v -0.10527264326810837 0.008949999697506428 -0.07332626730203629
v -0.10974787920713425 0.008949999697506428 -0.07124405354261398
v -0.10612735152244568 0.008949999697506428 -0.07160478085279465
v -0.10527264326810837 0.008949999697506428 -0.07332626730203629
v -0.10612735152244568 0.008949999697506428 -0.07160478085279465
v -0.10275054723024368 0.008949999697506428 -0.07550579309463501
v -0.02049965411424637 0.0029999997932463884 -0.01010021474212408
v -0.02049965411424637 0.009999999776482582 -0.01010021474212408
v -0.018570667132735252 0.0029999997932463884 -0.009347740560770035
v -0.018570667132735252 0.0029999997932463884 -0.009347740560770035
v -0.02049965411424637 0.009999999776482582 -0.01010021474212408
v -0.018570667132735252 0.009999999776482582 -0.009347740560770035
v -0.018570667132735252 0.0029999997932463884 -0.009347740560770035
v -0.018570667132735252 0.009999999776482582 -0.009347740560770035
v -0.01652388647198677 0.0029999997932463884 -0.009660572744905949
v -0.01652388647198677 0.0029999997932463884 -0.009660572744905949
v -0.018570667132735252 0.009999999776482582 -0.009347740560770035
v -0.01652388647198677 0.009999999776482582 -0.009660572744905949
v -0.01652388647198677 0.0029999997932463884 -0.009660572744905949
v -0.01652388647198677 0.009999999776482582 -0.009660572744905949
v -0.014907735399901867 0.0029999997932463884 -0.010954884812235832
v -0.014907735399901867 0.0029999997932463884 -0.010954884812235832
v -0.01652388647198677 0.009999999776482582 -0.009660572744905949
v -0.014907735399901867 0.009999999776482582 -0.010954884812235832
v -0.014907735399901867 0.0029999997932463884 -0.010954884812235832
v -0.014907735399901867 0.009999999776482582 -0.010954884812235832
v -0.01415526308119297 0.0029999997932463884 -0.012883867137134075
v -0.01415526308119297 0.0029999997932463884 -0.012883867137134075
v -0.014907735399901867 0.009999999776482582 -0.010954884812235832
v -0.01415526308119297 0.009999999776482582 -0.012883867137134075
v -0.01415526308119297 0.0029999997932463884 -0.012883867137134075
v -0.01415526308119297 0.009999999776482582 -0.012883867137134075
v -0.014468091540038586 0.0029999997932463884 -0.014930648729205132
v -0.014468091540038586 0.0029999997932463884 -0.014930648729205132
v -0.01415526308119297 0.009999999776482582 -0.012883867137134075
v -0.014468091540038586 0.009999999776482582 -0.014930648729205132
v -0.014468091540038586 0.0029999997932463884 -0.014930648729205132
v -0.014468091540038586 0.009999999776482582 -0.014930648729205132
v -0.01576240547001362 0.0029999997932463884 -0.01654680259525776
v -0.01576240547001362 0.0029999997932463884 -0.01654680259525776
v -0.014468091540038586 0.009999999776482582 -0.014930648729205132
v -0.01576240547001362 0.009999999776482582 -0.01654680259525776
v -0.02049965411424637 0.0029999997932463884 -0.01010021474212408
v -0.09302376210689545 0.0029999997932463884 -0.06339424103498459
v -0.02049965411424637 0.009999999776482582 -0.01010021474212408
v -0.02049965411424637 0.009999999776482582 -0.01010021474212408
v -0.09302376210689545 0.0029999997932463884 -0.06339424103498459
v -0.09302376210689545 0.009999999776482582 -0.06339424103498459
v -0.08828651160001755 0.0029999997932463884 -0.06984082609415054
v -0.08828651160001755 0.009999999776482582 -0.06984082609415054
v -0.09021549671888351 0.0029999997932463884 -0.07059330493211746
v -0.09021549671888351 0.0029999997932463884 -0.07059330493211746
v -0.08828651160001755 0.009999999776482582 -0.06984082609415054
v -0.09021549671888351 0.009999999776482582 -0.07059330493211746
v -0.09021549671888351 0.0029999997932463884 -0.07059330493211746
v -0.09021549671888351 0.009999999776482582 -0.07059330493211746
v -0.09226228296756744 0.0029999997932463884 -0.07028046995401382
v -0.09226228296756744 0.0029999997932463884 -0.07028046995401382
v -0.09021549671888351 0.009999999776482582 -0.07059330493211746
v -0.09226228296756744 0.009999999776482582 -0.07028046995401382
v -0.09226228296756744 0.0029999997932463884 -0.07028046995401382
v -0.09226228296756744 0.009999999776482582 -0.07028046995401382
v -0.09387843310832977 0.0029999997932463884 -0.06898616254329681
v -0.09387843310832977 0.0029999997932463884 -0.06898616254329681
v -0.09226228296756744 0.009999999776482582 -0.07028046995401382
v -0.09387843310832977 0.009999999776482582 -0.06898616254329681
v -0.09387843310832977 0.0029999997932463884 -0.06898616254329681
v -0.09387843310832977 0.009999999776482582 -0.06898616254329681
v -0.0946309044957161 0.0029999997932463884 -0.06705717742443085
v -0.0946309044957161 0.0029999997932463884 -0.06705717742443085
v -0.09387843310832977 0.009999999776482582 -0.06898616254329681
v -0.0946309044957161 0.009999999776482582 -0.06705717742443085
v -0.0946309044957161 0.0029999997932463884 -0.06705717742443085
v -0.0946309044957161 0.009999999776482582 -0.06705717742443085
v -0.09431806951761246 0.0029999997932463884 -0.06501039117574692
v -0.09431806951761246 0.0029999997932463884 -0.06501039117574692
v -0.0946309044957161 0.009999999776482582 -0.06705717742443085
v -0.09431806951761246 0.009999999776482582 -0.06501039117574692
v -0.09431806951761246 0.0029999997932463884 -0.06501039117574692
v -0.09431806951761246 0.009999999776482582 -0.06501039117574692
v -0.09302376210689545 0.0029999997932463884 -0.06339424103498459
v -0.09302376210689545 0.0029999997932463884 -0.06339424103498459
v -0.09431806951761246 0.009999999776482582 -0.06501039117574692
v -0.09302376210689545 0.009999999776482582 -0.06339424103498459
v -0.08828651160001755 0.0029999997932463884 -0.06984082609415054
v -0.01576240547001362 0.0029999997932463884 -0.01654680259525776
v -0.08828651160001755 0.009999999776482582 -0.06984082609415054
v -0.08828651160001755 0.009999999776482582 -0.06984082609415054
v -0.01576240547001362 0.0029999997932463884 -0.01654680259525776
v -0.01576240547001362 0.009999999776482582 -0.01654680259525776
v -0.0946309044957161 0.0029999997932463884 -0.06705717742443085
v -0.09431806951761246 0.0029999997932463884 -0.06501039117574692
v -0.09302376210689545 0.0029999997932463884 -0.06339424103498459
v -0.014468091540038586 0.0029999997932463884 -0.014930648729205132
v -0.01576240547001362 0.0029999997932463884 -0.01654680259525776
v -0.02049965411424637 0.0029999997932463884 -0.01010021474212408
v -0.09226228296756744 0.0029999997932463884 -0.07028046995401382
v -0.09387843310832977 0.0029999997932463884 -0.06898616254329681
v -0.0946309044957161 0.0029999997932463884 -0.06705717742443085
v -0.02049965411424637 0.0029999997932463884 -0.01010021474212408
v -0.01576240547001362 0.0029999997932463884 -0.01654680259525776
v -0.09302376210689545 0.0029999997932463884 -0.06339424103498459
v -0.09302376210689545 0.0029999997932463884 -0.06339424103498459
v -0.01576240547001362 0.0029999997932463884 -0.01654680259525776
v -0.08828651160001755 0.0029999997932463884 -0.06984082609415054
v -0.09302376210689545 0.0029999997932463884 -0.06339424103498459
v -0.08828651160001755 0.0029999997932463884 -0.06984082609415054
v -0.0946309044957161 0.0029999997932463884 -0.06705717742443085
v -0.0946309044957161 0.0029999997932463884 -0.06705717742443085
v -0.08828651160001755 0.0029999997932463884 -0.06984082609415054
v -0.09021549671888351 0.0029999997932463884 -0.07059330493211746
v -0.0946309044957161 0.0029999997932463884 -0.06705717742443085
v -0.09021549671888351 0.0029999997932463884 -0.07059330493211746
v -0.09226228296756744 0.0029999997932463884 -0.07028046995401382
v -0.014907735399901867 0.0029999997932463884 -0.010954884812235832
v -0.01415526308119297 0.0029999997932463884 -0.012883867137134075
v -0.01652388647198677 0.0029999997932463884 -0.009660572744905949
v -0.01652388647198677 0.0029999997932463884 -0.009660572744905949
v -0.01415526308119297 0.0029999997932463884 -0.012883867137134075
v -0.014468091540038586 0.0029999997932463884 -0.014930648729205132
v -0.01652388647198677 0.0029999997932463884 -0.009660572744905949
v -0.014468091540038586 0.0029999997932463884 -0.014930648729205132
v -0.018570667132735252 0.0029999997932463884 -0.009347740560770035
v -0.018570667132735252 0.0029999997932463884 -0.009347740560770035
v -0.014468091540038586 0.0029999997932463884 -0.014930648729205132
v -0.02049965411424637 0.0029999997932463884 -0.01010021474212408
v -0.09276371449232101 0.009999999776482582 -0.07685378193855286
v -0.09276371449232101 2.235173712783478e-10 -0.07685378193855286
v -0.09520723670721054 0.009999999776482582 -0.07943246513605118
v -0.09520723670721054 0.009999999776482582 -0.07943246513605118
v -0.09276371449232101 2.235173712783478e-10 -0.07685378193855286
v -0.09520723670721054 2.235173712783478e-10 -0.07943246513605118
v -0.09520723670721054 0.009999999776482582 -0.07943246513605118
v -0.09520723670721054 2.235173712783478e-10 -0.07943246513605118
v -0.09659504890441895 0.009999999776482582 -0.08270269632339478
v -0.09659504890441895 0.009999999776482582 -0.08270269632339478
v -0.09520723670721054 2.235173712783478e-10 -0.07943246513605118
v -0.09659504890441895 2.235173712783478e-10 -0.08270269632339478
v -0.0010059465421363711 0.009999999776482582 -0.012459455989301205
v -0.0010059465421363711 2.2351742678949904e-10 -0.012459455989301205
v -0.00454142177477479 0.009999999776482582 -0.012807086110115051
v -0.00454142177477479 0.009999999776482582 -0.012807086110115051
v -0.0010059465421363711 2.2351742678949904e-10 -0.012459455989301205
v -0.00454142177477479 2.2351742678949904e-10 -0.012807086110115051
v -0.00454142177477479 0.009999999776482582 -0.012807086110115051
v -0.00454142177477479 2.2351742678949904e-10 -0.012807086110115051
v -0.007732265628874302 0.009999999776482582 -0.014368788339197636
v -0.007732265628874302 0.009999999776482582 -0.014368788339197636
v -0.00454142177477479 2.2351742678949904e-10 -0.012807086110115051
v -0.007732265628874302 2.2351739903392343e-10 -0.014368788339197636
v -0.10778021812438965 0.009999999776482582 -0.06748158484697342
v -0.10778021812438965 2.235173712783478e-10 -0.06748158484697342
v -0.10424474626779556 0.009999999776482582 -0.06713395565748215
v -0.10424474626779556 0.009999999776482582 -0.06713395565748215
v -0.10778021812438965 2.235173712783478e-10 -0.06748158484697342
v -0.10424474626779556 2.235173712783478e-10 -0.06713395565748215
v -0.10424474626779556 0.009999999776482582 -0.06713395565748215
v -0.10424474626779556 2.235173712783478e-10 -0.06713395565748215
v -0.10105390101671219 0.009999999776482582 -0.06557225435972214
v -0.10105390101671219 0.009999999776482582 -0.06557225435972214
v -0.10424474626779556 2.235173712783478e-10 -0.06713395565748215
v -0.10105390101671219 2.235173712783478e-10 -0.06557225435972214
v -0.016022447496652603 0.009999999776482582 -0.0030872602947056293
v -0.016022447496652603 2.2351742678949904e-10 -0.0030872602947056293
v -0.013578929007053375 0.009999999776482582 -0.0005085753509774804
v -0.013578929007053375 0.009999999776482582 -0.0005085753509774804
v -0.016022447496652603 2.2351742678949904e-10 -0.0030872602947056293
v -0.013578929007053375 2.2351742678949904e-10 -0.0005085753509774804
v -0.013578929007053375 0.009999999776482582 -0.0005085753509774804
v -0.013578929007053375 2.2351742678949904e-10 -0.0005085753509774804
v -0.012191113084554672 0.009999999776482582 0.0027616536244750023
v -0.012191113084554672 0.009999999776482582 0.0027616536244750023
v -0.013578929007053375 2.2351742678949904e-10 -0.0005085753509774804
v -0.012191113084554672 2.2351742678949904e-10 0.0027616536244750023
usemtl material_EDEDED
f 1 2 3
f 4 5 6
f 7 8 9
f 10 11 12
f 13 14 15
f 16 17 18
f 19 20 21
f 22 23 24
f 25 26 27
f 28 29 30
f 31 32 33
f 34 35 36
f 37 38 39
f 40 41 42
f 43 44 45
f 46 47 48
f 49 50 51
f 52 53 54
f 55 56 57
f 58 59 60
f 61 62 63
f 64 65 66
f 67 68 69
f 70 71 72
f 73 74 75
f 76 77 78
f 79 80 81
f 82 83 84
f 85 86 87
f 88 89 90
f 91 92 93
f 94 95 96
f 97 98 99
f 100 101 102
f 103 104 105
f 106 107 108
f 109 110 111
f 112 113 114
f 115 116 117
f 118 119 120
f 121 122 123
f 124 125 126
f 127 128 129
f 130 131 132
f 133 134 135
f 136 137 138
f 139 140 141
f 142 143 144
f 145 146 147
f 148 149 150
f 151 152 153
f 154 155 156
f 157 158 159
f 160 161 162
f 163 164 165
f 166 167 168
f 169 170 171
f 172 173 174
f 175 176 177
f 178 179 180
f 181 182 183
f 184 185 186
f 187 188 189
f 190 191 192
f 193 194 195
f 196 197 198
f 199 200 201
f 202 203 204
f 205 206 207
f 208 209 210
f 211 212 213
f 214 215 216
f 217 218 219
f 220 221 222
f 223 224 225
f 226 227 228
f 229 230 231
f 232 233 234
f 235 236 237
f 238 239 240
f 241 242 243
f 244 245 246
f 247 248 249
f 250 251 252
f 253 254 255
f 256 257 258
f 259 260 261
f 262 263 264
f 265 266 267
f 268 269 270
f 271 272 273
f 274 275 276
f 277 278 279
f 280 281 282
f 283 284 285
f 286 287 288
f 289 290 291
f 292 293 294
f 295 296 297
f 298 299 300
f 301 302 303
f 304 305 306
f 307 308 309
f 310 311 312
f 313 314 315
f 316 317 318
f 319 320 321
f 322 323 324
f 325 326 327
f 328 329 330
f 331 332 333
f 334 335 336
f 337 338 339
f 340 341 342
f 343 344 345
f 346 347 348
f 349 350 351
f 352 353 354
f 355 356 357
f 358 359 360
f 361 362 363
f 364 365 366
f 367 368 369
f 370 371 372
f 373 374 375
f 376 377 378
f 379 380 381
f 382 383 384
f 385 386 387
f 388 389 390
f 391 392 393
f 394 395 396
f 397 398 399
f 400 401 402
f 403 404 405
f 406 407 408
f 409 410 411
f 412 413 414
f 415 416 417
f 418 419 420
f 421 422 423
f 424 425 426
f 427 428 429
f 430 431 432
f 433 434 435
f 436 437 438
f 439 440 441
f 442 443 444
f 445 446 447
f 448 449 450
f 451 452 453
f 454 455 456
f 457 458 459
f 460 461 462
f 463 464 465
f 466 467 468
f 469 470 471
f 472 473 474
f 475 476 477
f 478 479 480
f 481 482 483
f 484 485 486
f 487 488 489
f 490 491 492
f 493 494 495
f 496 497 498
f 499 500 501
f 502 503 504
f 505 506 507
f 508 509 510
f 511 512 513
f 514 515 516
f 517 518 519
f 520 521 522
f 523 524 525
f 526 527 528
f 529 530 531
f 532 533 534
f 535 536 537
f 538 539 540
f 541 542 543
f 544 545 546
f 547 548 549
f 550 551 552
f 553 554 555
f 556 557 558
f 559 560 561
f 562 563 564
f 565 566 567
f 568 569 570
f 571 572 573
f 574 575 576
f 577 578 579
f 580 581 582
f 583 584 585
f 586 587 588
f 589 590 591
f 592 593 594
f 595 596 597
f 598 599 600
f 601 602 603
f 604 605 606
f 607 608 609
f 610 611 612
f 613 614 615
f 616 617 618
f 619 620 621
f 622 623 624
f 625 626 627
f 628 629 630
f 631 632 633
f 634 635 636
f 637 638 639
f 640 641 642
f 643 644 645
f 646 647 648
f 649 650 651
f 652 653 654
f 655 656 657
f 658 659 660
f 661 662 663
f 664 665 666
f 667 668 669
f 670 671 672
f 673 674 675
f 676 677 678
f 679 680 681
f 682 683 684
f 685 686 687
f 688 689 690
f 691 692 693
f 694 695 696
f 697 698 699
f 700 701 702
f 703 704 705
f 706 707 708
f 709 710 711
f 712 713 714
f 715 716 717
f 718 719 720
f 721 722 723
f 724 725 726
f 727 728 729
f 730 731 732
f 733 734 735
f 736 737 738
f 739 740 741
f 742 743 744
f 745 746 747
f 748 749 750
f 751 752 753
f 754 755 756
f 757 758 759
f 760 761 762
f 763 764 765
f 766 767 768
f 769 770 771
f 772 773 774
f 775 776 777
f 778 779 780
f 781 782 783
f 784 785 786
f 787 788 789
f 790 791 792
f 793 794 795
f 796 797 798
f 799 800 801
f 802 803 804
f 805 806 807
f 808 809 810
f 811 812 813
f 814 815 816
f 817 818 819
f 820 821 822
f 823 824 825
f 826 827 828
f 829 830 831
f 832 833 834
f 835 836 837
f 838 839 840
f 841 842 843
f 844 845 846
f 847 848 849
f 850 851 852
f 853 854 855
f 856 857 858
f 859 860 861
f 862 863 864
f 865 866 867
f 868 869 870
f 871 872 873
f 874 875 876
f 877 878 879
f 880 881 882
f 883 884 885
f 886 887 888
f 889 890 891
f 892 893 894
f 895 896 897
f 898 899 900
f 901 902 903
f 904 905 906
f 907 908 909
f 910 911 912
f 913 914 915
f 916 917 918
f 919 920 921
f 922 923 924
f 925 926 927
f 928 929 930
f 931 932 933
f 934 935 936
f 937 938 939
f 940 941 942
f 943 944 945
f 946 947 948
f 949 950 951
f 952 953 954
f 955 956 957
f 958 959 960
f 961 962 963
f 964 965 966
f 967 968 969
f 970 971 972
f 973 974 975
f 976 977 978
f 979 980 981
f 982 983 984
f 985 986 987
f 988 989 990
f 991 992 993
f 994 995 996
f 997 998 999
f 1000 1001 1002
f 1003 1004 1005
f 1006 1007 1008
f 1009 1010 1011
f 1012 1013 1014
f 1015 1016 1017
f 1018 1019 1020
f 1021 1022 1023
f 1024 1025 1026
f 1027 1028 1029
f 1030 1031 1032
f 1033 1034 1035
f 1036 1037 1038
f 1039 1040 1041
f 1042 1043 1044
f 1045 1046 1047
f 1048 1049 1050
f 1051 1052 1053
f 1054 1055 1056
f 1057 1058 1059
f 1060 1061 1062
f 1063 1064 1065
f 1066 1067 1068
f 1069 1070 1071
f 1072 1073 1074
f 1075 1076 1077
f 1078 1079 1080
f 1081 1082 1083
f 1084 1085 1086
f 1087 1088 1089
f 1090 1091 1092
f 1093 1094 1095
f 1096 1097 1098
f 1099 1100 1101
f 1102 1103 1104
f 1105 1106 1107
f 1108 1109 1110
f 1111 1112 1113
f 1114 1115 1116
f 1117 1118 1119
f 1120 1121 1122
f 1123 1124 1125
f 1126 1127 1128
f 1129 1130 1131
f 1132 1133 1134
f 1135 1136 1137
f 1138 1139 1140
f 1141 1142 1143
f 1144 1145 1146
f 1147 1148 1149
f 1150 1151 1152
f 1153 1154 1155
f 1156 1157 1158
f 1159 1160 1161
f 1162 1163 1164
f 1165 1166 1167
f 1168 1169 1170
f 1171 1172 1173
f 1174 1175 1176
f 1177 1178 1179
f 1180 1181 1182
f 1183 1184 1185
f 1186 1187 1188
f 1189 1190 1191
f 1192 1193 1194
f 1195 1196 1197
f 1198 1199 1200
f 1201 1202 1203
f 1204 1205 1206
f 1207 1208 1209
f 1210 1211 1212
f 1213 1214 1215
f 1216 1217 1218
f 1219 1220 1221
f 1222 1223 1224
f 1225 1226 1227
f 1228 1229 1230
f 1231 1232 1233
f 1234 1235 1236
f 1237 1238 1239
f 1240 1241 1242
f 1243 1244 1245
f 1246 1247 1248
f 1249 1250 1251
f 1252 1253 1254
f 1255 1256 1257
f 1258 1259 1260
f 1261 1262 1263
f 1264 1265 1266
f 1267 1268 1269
f 1270 1271 1272
f 1273 1274 1275
f 1276 1277 1278
f 1279 1280 1281
f 1282 1283 1284
f 1285 1286 1287
f 1288 1289 1290
f 1291 1292 1293
f 1294 1295 1296
f 1297 1298 1299
f 1300 1301 1302
f 1303 1304 1305
f 1306 1307 1308
