mtllib wheelbipeV14_2_right_spring1_link_visuals_right_spring1_link_node_STL_BINARY__mesh.mtl
v -0.0009932011598721147 1.9419640895357304e-10 -0.007433945778757334
v -0.0009932011598721147 0.005499999970197678 -0.007433945778757334
v 0.0005741067579947412 0.005499999970197678 -0.007477994542568922
v -0.0009932011598721147 1.9419640895357304e-10 -0.007433945778757334
v 0.0005741067579947412 0.005499999970197678 -0.007477994542568922
v 0.0005741067579947412 1.9419640895357304e-10 -0.007477994542568922
v 0.0005741067579947412 1.9419640895357304e-10 -0.007477994542568922
v 0.0005741067579947412 0.005499999970197678 -0.007477994542568922
v 0.002116323681548238 0.005499999970197678 -0.007195218466222286
v 0.0005741067579947412 1.9419640895357304e-10 -0.007477994542568922
v 0.002116323681548238 0.005499999970197678 -0.007195218466222286
v 0.002116323681548238 1.9419640895357304e-10 -0.007195218466222286
v 0.002116323681548238 1.9419640895357304e-10 -0.007195218466222286
v 0.002116323681548238 0.005499999970197678 -0.007195218466222286
v 0.003566046943888068 0.005499999970197678 -0.006597977597266436
v 0.002116323681548238 1.9419640895357304e-10 -0.007195218466222286
v 0.003566046943888068 0.005499999970197678 -0.006597977597266436
v 0.003566046943888068 1.9419640895357304e-10 -0.006597977597266436
v 0.003566046943888068 1.9419640895357304e-10 -0.006597977597266436
v 0.003566046943888068 0.005499999970197678 -0.006597977597266436
v 0.004859918262809515 0.005499999970197678 -0.005712373182177544
v 0.003566046943888068 1.9419640895357304e-10 -0.006597977597266436
v 0.004859918262809515 0.005499999970197678 -0.005712373182177544
v 0.004859918262809515 1.9419640895357304e-10 -0.005712373182177544
v 0.004859918262809515 1.9419640895357304e-10 -0.005712373182177544
v 0.004859918262809515 0.005499999970197678 -0.005712373182177544
v 0.00594138540327549 0.005499999970197678 -0.004577110055834055
v 0.004859918262809515 1.9419640895357304e-10 -0.005712373182177544
v 0.00594138540327549 0.005499999970197678 -0.004577110055834055
v 0.00594138540327549 1.9419640895357304e-10 -0.004577110055834055
v 0.00594138540327549 1.9419640895357304e-10 -0.004577110055834055
v 0.00594138540327549 0.005499999970197678 -0.004577110055834055
v 0.006763187702745199 0.005499999970197678 -0.003241805825382471
v 0.00594138540327549 1.9419640895357304e-10 -0.004577110055834055
v 0.006763187702745199 0.005499999970197678 -0.003241805825382471
v 0.006763187702745199 1.9419640895357304e-10 -0.003241805825382471
v 0.006763187702745199 1.9419640895357304e-10 -0.003241805825382471
v 0.006763187702745199 0.005499999970197678 -0.003241805825382471
v 0.007289403583854437 0.005499999970197678 -0.0017648187931627035
v 0.006763187702745199 1.9419640895357304e-10 -0.003241805825382471
v 0.007289403583854437 0.005499999970197678 -0.0017648187931627035
v 0.007289403583854437 1.9419640895357304e-10 -0.0017648187931627035
v 0.007289403583854437 1.9419640895357304e-10 -0.0017648187931627035
v 0.007289403583854437 0.005499999970197678 -0.0017648187931627035
v 0.007497039157897234 0.005499999970197678 -0.00021070089132990688
v 0.007289403583854437 1.9419640895357304e-10 -0.0017648187931627035
v 0.007497039157897234 0.005499999970197678 -0.00021070089132990688
v 0.007497039157897234 1.9419640895357304e-10 -0.00021070089132990688
v 0.007497039157897234 1.9419640895357304e-10 -0.00021070089132990688
v 0.007497039157897234 0.005499999970197678 -0.00021070089132990688
v 0.007377019617706537 0.005499999970197678 0.0013526254333555698
v 0.007497039157897234 1.9419640895357304e-10 -0.00021070089132990688
v 0.007377019617706537 0.005499999970197678 0.0013526254333555698
v 0.007377019617706537 1.9419640895357304e-10 0.0013526254333555698
v 0.007377019617706537 1.9419640895357304e-10 0.0013526254333555698
v 0.007377019617706537 0.005499999970197678 0.0013526254333555698
v 0.006934586446732283 0.005499999970197678 0.002856835722923279
v 0.007377019617706537 1.9419640895357304e-10 0.0013526254333555698
v 0.006934586446732283 0.005499999970197678 0.002856835722923279
v 0.006934586446732283 1.9419640895357304e-10 0.002856835722923279
v 0.006934586446732283 1.9419640895357304e-10 0.002856835722923279
v 0.006934586446732283 0.005499999970197678 0.002856835722923279
v 0.00618908042088151 0.005499999970197678 0.004236188717186451
v 0.006934586446732283 1.9419640895357304e-10 0.002856835722923279
v 0.00618908042088151 0.005499999970197678 0.004236188717186451
v 0.00618908042088151 1.9419640895357304e-10 0.004236188717186451
v 0.00618908042088151 1.9419640895357304e-10 0.004236188717186451
v 0.00618908042088151 0.005499999970197678 0.004236188717186451
v 0.005173079669475555 0.005499999970197678 0.005430399905890226
v 0.00618908042088151 1.9419640895357304e-10 0.004236188717186451
v 0.005173079669475555 0.005499999970197678 0.005430399905890226
v 0.005173079669475555 1.9419640895357304e-10 0.005430399905890226
v 0.005173079669475555 1.9419640895357304e-10 0.005430399905890226
v 0.005173079669475555 0.005499999970197678 0.005430399905890226
v 0.003930991515517235 0.005499999970197678 0.006387276109308004
v 0.005173079669475555 1.9419640895357304e-10 0.005430399905890226
v 0.003930991515517235 0.005499999970197678 0.006387276109308004
v 0.003930991515517235 1.9419640895357304e-10 0.006387276109308004
v 0.003930991515517235 1.9419640895357304e-10 0.006387276109308004
v 0.003930991515517235 0.005499999970197678 0.006387276109308004
v 0.0025171006564050913 0.005499999970197678 0.0070649986155331135
v 0.003930991515517235 1.9419640895357304e-10 0.006387276109308004
v 0.0025171006564050913 0.005499999970197678 0.0070649986155331135
v 0.0025171006564050913 1.9419640895357304e-10 0.0070649986155331135
v 0.0025171006564050913 1.9419640895357304e-10 0.0070649986155331135
v 0.0025171006564050913 0.005499999970197678 0.0070649986155331135
v 0.0009932003449648619 0.005499999970197678 0.007433945778757334
v 0.0025171006564050913 1.9419640895357304e-10 0.0070649986155331135
v 0.0009932003449648619 0.005499999970197678 0.007433945778757334
v 0.0009932003449648619 1.9419640895357304e-10 0.007433945778757334
v 0.0017940750112757087 1.9419640895357304e-10 0.0024665347300469875
v 0.000895985693205148 1.9419640895357304e-10 0.002915426157414913
v 0.000895985693205148 0.005499999970197678 0.002915426157414913
v 0.000895985693205148 0.005499999970197678 0.002915426157414913
v 0.000895985693205148 1.9419640895357304e-10 0.002915426157414913
v 0.00040390121284872293 1.9419640895357304e-10 0.0030231380369514227
v 0.000895985693205148 0.005499999970197678 0.002915426157414913
v 0.00040390121284872293 1.9419640895357304e-10 0.0030231380369514227
v -9.919882722897455e-05 0.005499999970197678 0.0030483861919492483
v -9.919882722897455e-05 0.005499999970197678 0.0030483861919492483
v 0.00040390121284872293 1.9419640895357304e-10 0.0030231380369514227
v -9.919882722897455e-05 1.9419640895357304e-10 0.0030483861919492483
v -9.919882722897455e-05 0.005499999970197678 0.0030483861919492483
v -9.919882722897455e-05 1.9419640895357304e-10 0.0030483861919492483
v -0.0010836340952664614 0.005499999970197678 0.0028510065749287605
v -0.0010836340952664614 0.005499999970197678 0.0028510065749287605
v -9.919882722897455e-05 1.9419640895357304e-10 0.0030483861919492483
v -0.0010836340952664614 1.9419640895357304e-10 0.0028510065749287605
v -0.0010836340952664614 0.005499999970197678 0.0028510065749287605
v -0.0010836340952664614 1.9419640895357304e-10 0.0028510065749287605
v -0.001950638834387064 0.005499999970197678 0.0023446755949407816
v -0.001950638834387064 0.005499999970197678 0.0023446755949407816
v -0.0010836340952664614 1.9419640895357304e-10 0.0028510065749287605
v -0.001950638834387064 1.9419640895357304e-10 0.0023446755949407816
v -0.001950638834387064 0.005499999970197678 0.0023446755949407816
v -0.001950638834387064 1.9419640895357304e-10 0.0023446755949407816
v -0.0026062645483762026 0.005499999970197678 0.0015842631692066789
v -0.0026062645483762026 0.005499999970197678 0.0015842631692066789
v -0.001950638834387064 1.9419640895357304e-10 0.0023446755949407816
v -0.0026062645483762026 1.9419640895357304e-10 0.0015842631692066789
v -0.0026062645483762026 0.005499999970197678 0.0015842631692066789
v -0.0026062645483762026 1.9419640895357304e-10 0.0015842631692066789
v -0.002979458076879382 0.005499999970197678 0.0006521707982756197
v -0.002979458076879382 0.005499999970197678 0.0006521707982756197
v -0.0026062645483762026 1.9419640895357304e-10 0.0015842631692066789
v -0.002979458076879382 1.9419640895357304e-10 0.0006521707982756197
v -0.002979458076879382 0.005499999970197678 0.0006521707982756197
v -0.002979458076879382 1.9419640895357304e-10 0.0006521707982756197
v -0.0030297820921987295 0.005499999970197678 -0.00035059420042671263
v -0.0030297820921987295 0.005499999970197678 -0.00035059420042671263
v -0.002979458076879382 1.9419640895357304e-10 0.0006521707982756197
v -0.0030297820921987295 1.9419640895357304e-10 -0.00035059420042671263
v -0.0030297820921987295 0.005499999970197678 -0.00035059420042671263
v -0.0030297820921987295 1.9419640895357304e-10 -0.00035059420042671263
v -0.002751782536506653 0.005499999970197678 -0.001315366942435503
v -0.002751782536506653 0.005499999970197678 -0.001315366942435503
v -0.0030297820921987295 1.9419640895357304e-10 -0.00035059420042671263
v -0.002751782536506653 1.9419640895357304e-10 -0.001315366942435503
v -0.002751782536506653 0.005499999970197678 -0.001315366942435503
v -0.002751782536506653 1.9419640895357304e-10 -0.001315366942435503
v -0.0021755844354629517 0.005499999970197678 -0.002137599280104041
v -0.0021755844354629517 0.005499999970197678 -0.002137599280104041
v -0.002751782536506653 1.9419640895357304e-10 -0.001315366942435503
v -0.0021755844354629517 1.9419640895357304e-10 -0.002137599280104041
v -0.0021755844354629517 0.005499999970197678 -0.002137599280104041
v -0.0021755844354629517 1.9419640895357304e-10 -0.002137599280104041
v -0.0013636285439133644 0.005499999970197678 -0.002728189341723919
v -0.0013636285439133644 0.005499999970197678 -0.002728189341723919
v -0.0021755844354629517 1.9419640895357304e-10 -0.002137599280104041
v -0.0013636285439133644 1.9419640895357304e-10 -0.002728189341723919
v -0.0013636285439133644 0.005499999970197678 -0.002728189341723919
v -0.0013636285439133644 1.9419640895357304e-10 -0.002728189341723919
v -0.00040390208596363664 0.005499999970197678 -0.003023137804120779
v -0.00040390208596363664 0.005499999970197678 -0.003023137804120779
v -0.0013636285439133644 1.9419640895357304e-10 -0.002728189341723919
v -0.00040390208596363664 1.9419640895357304e-10 -0.003023137804120779
v -0.00040390208596363664 0.005499999970197678 -0.003023137804120779
v -0.00040390208596363664 1.9419640895357304e-10 -0.003023137804120779
v 0.0005995933897793293 0.005499999970197678 -0.002990482607856393
v 0.0005995933897793293 0.005499999970197678 -0.002990482607856393
v -0.00040390208596363664 1.9419640895357304e-10 -0.003023137804120779
v 0.0005995933897793293 1.9419640895357304e-10 -0.002990482607856393
v 0.0005995933897793293 0.005499999970197678 -0.002990482607856393
v 0.0005995933897793293 1.9419640895357304e-10 -0.002990482607856393
v 0.0015381152043119073 0.005499999970197678 -0.002633762313053012
v 0.0015381152043119073 0.005499999970197678 -0.002633762313053012
v 0.0005995933897793293 1.9419640895357304e-10 -0.002990482607856393
v 0.0015381152043119073 1.9419640895357304e-10 -0.002633762313053012
v 0.0015381152043119073 0.005499999970197678 -0.002633762313053012
v 0.0015381152043119073 1.9419640895357304e-10 -0.002633762313053012
v 0.002309957053512335 0.005499999970197678 -0.00199163262732327
v 0.002309957053512335 0.005499999970197678 -0.00199163262732327
v 0.0015381152043119073 1.9419640895357304e-10 -0.002633762313053012
v 0.002309957053512335 1.9419640895357304e-10 -0.00199163262732327
v 0.002309957053512335 0.005499999970197678 -0.00199163262732327
v 0.002309957053512335 1.9419640895357304e-10 -0.00199163262732327
v 0.0028314790688455105 0.005499999970197678 -0.0011336789466440678
v 0.0028314790688455105 0.005499999970197678 -0.0011336789466440678
v 0.002309957053512335 1.9419640895357304e-10 -0.00199163262732327
v 0.0028314790688455105 1.9419640895357304e-10 -0.0011336789466440678
v 0.0028314790688455105 0.005499999970197678 -0.0011336789466440678
v 0.0028314790688455105 1.9419640895357304e-10 -0.0011336789466440678
v 0.0030461668502539396 0.005499999970197678 -0.00015287342830561101
v 0.0030461668502539396 0.005499999970197678 -0.00015287342830561101
v 0.0028314790688455105 1.9419640895357304e-10 -0.0011336789466440678
v 0.0030461668502539396 1.9419640895357304e-10 -0.00015287342830561101
v 0.0030461668502539396 0.005499999970197678 -0.00015287342830561101
v 0.0030461668502539396 1.9419640895357304e-10 -0.00015287342830561101
v 0.0029307545628398657 0.005499999970197678 0.000844498339574784
v 0.0029307545628398657 0.005499999970197678 0.000844498339574784
v 0.0030461668502539396 1.9419640895357304e-10 -0.00015287342830561101
v 0.0029307545628398657 1.9419640895357304e-10 0.000844498339574784
v 0.0029307545628398657 0.005499999970197678 0.000844498339574784
v 0.0029307545628398657 1.9419640895357304e-10 0.000844498339574784
v 0.002497750101611018 0.005499999970197678 0.0017503555864095688
v 0.002497750101611018 0.005499999970197678 0.0017503555864095688
v 0.0029307545628398657 1.9419640895357304e-10 0.000844498339574784
v 0.002497750101611018 1.9419640895357304e-10 0.0017503555864095688
v 0.002497750101611018 0.005499999970197678 0.0017503555864095688
v 0.002497750101611018 1.9419640895357304e-10 0.0017503555864095688
v 0.0017940750112757087 0.005499999970197678 0.0024665347300469875
v 0.0017940750112757087 0.005499999970197678 0.0024665347300469875
v 0.002497750101611018 1.9419640895357304e-10 0.0017503555864095688
v 0.0017940750112757087 1.9419640895357304e-10 0.0024665347300469875
v 0.0017940750112757087 0.005499999970197678 0.0024665347300469875
v 0.0017940750112757087 1.9419640895357304e-10 0.0024665347300469875
v 0.000895985693205148 0.005499999970197678 0.002915426157414913
v -0.00891872774809599 0.009999999776482582 0.008758213371038437
v -0.024777811020612717 0.009999999776482582 0.010877042077481747
v -0.00891872774809599 0.005499999970197678 0.008758213371038437
v -0.00891872774809599 0.005499999970197678 0.008758213371038437
v -0.024777811020612717 0.009999999776482582 0.010877042077481747
v -0.024777811020612717 1.9419640895357304e-10 0.010877042077481747
v -0.00891872774809599 0.005499999970197678 0.008758213371038437
v -0.024777811020612717 1.9419640895357304e-10 0.010877042077481747
v 0.0009932003449648619 0.005499999970197678 0.007433945778757334
v 0.0009932003449648619 0.005499999970197678 0.007433945778757334
v -0.024777811020612717 1.9419640895357304e-10 0.010877042077481747
v 0.0009932003449648619 1.9419640895357304e-10 0.007433945778757334
v -0.0009932011598721147 0.005499999970197678 -0.007433945778757334
v -0.0009932011598721147 1.9419640895357304e-10 -0.007433945778757334
v -0.010905128903687 0.005499999970197678 -0.006109678186476231
v -0.010905128903687 0.005499999970197678 -0.006109678186476231
v -0.0009932011598721147 1.9419640895357304e-10 -0.007433945778757334
v -0.026764214038848877 1.9419640895357304e-10 -0.003990849945694208
v -0.010905128903687 0.005499999970197678 -0.006109678186476231
v -0.026764214038848877 1.9419640895357304e-10 -0.003990849945694208
v -0.010905128903687 0.009999999776482582 -0.006109678186476231
v -0.010905128903687 0.009999999776482582 -0.006109678186476231
v -0.026764214038848877 1.9419640895357304e-10 -0.003990849945694208
v -0.026764214038848877 0.009999999776482582 -0.003990849945694208
v 0.002497750101611018 1.9419640895357304e-10 0.0017503555864095688
v 0.0029307545628398657 1.9419640895357304e-10 0.000844498339574784
v 0.006934586446732283 1.9419640895357304e-10 0.002856835722923279
v -0.0010836340952664614 1.9419640895357304e-10 0.0028510065749287605
v 0.0009932003449648619 1.9419640895357304e-10 0.007433945778757334
v -0.001950638834387064 1.9419640895357304e-10 0.0023446755949407816
v -0.001950638834387064 1.9419640895357304e-10 0.0023446755949407816
v 0.0009932003449648619 1.9419640895357304e-10 0.007433945778757334
v -0.024777811020612717 1.9419640895357304e-10 0.010877042077481747
v -0.001950638834387064 1.9419640895357304e-10 0.0023446755949407816
v -0.024777811020612717 1.9419640895357304e-10 0.010877042077481747
v -0.0026062645483762026 1.9419640895357304e-10 0.0015842631692066789
v 0.006934586446732283 1.9419640895357304e-10 0.002856835722923279
v 0.00618908042088151 1.9419640895357304e-10 0.004236188717186451
v 0.002497750101611018 1.9419640895357304e-10 0.0017503555864095688
v 0.002497750101611018 1.9419640895357304e-10 0.0017503555864095688
v 0.00618908042088151 1.9419640895357304e-10 0.004236188717186451
v 0.005173079669475555 1.9419640895357304e-10 0.005430399905890226
v 0.002497750101611018 1.9419640895357304e-10 0.0017503555864095688
v 0.005173079669475555 1.9419640895357304e-10 0.005430399905890226
v 0.0017940750112757087 1.9419640895357304e-10 0.0024665347300469875
v 0.0017940750112757087 1.9419640895357304e-10 0.0024665347300469875
v 0.005173079669475555 1.9419640895357304e-10 0.005430399905890226
v 0.003930991515517235 1.9419640895357304e-10 0.006387276109308004
v 0.0017940750112757087 1.9419640895357304e-10 0.0024665347300469875
v 0.003930991515517235 1.9419640895357304e-10 0.006387276109308004
v 0.000895985693205148 1.9419640895357304e-10 0.002915426157414913
v 0.000895985693205148 1.9419640895357304e-10 0.002915426157414913
v 0.003930991515517235 1.9419640895357304e-10 0.006387276109308004
v 0.0025171006564050913 1.9419640895357304e-10 0.0070649986155331135
v 0.000895985693205148 1.9419640895357304e-10 0.002915426157414913
v 0.0025171006564050913 1.9419640895357304e-10 0.0070649986155331135
v 0.00040390121284872293 1.9419640895357304e-10 0.0030231380369514227
v 0.00040390121284872293 1.9419640895357304e-10 0.0030231380369514227
v 0.0025171006564050913 1.9419640895357304e-10 0.0070649986155331135
v 0.0009932003449648619 1.9419640895357304e-10 0.007433945778757334
v 0.00040390121284872293 1.9419640895357304e-10 0.0030231380369514227
v 0.0009932003449648619 1.9419640895357304e-10 0.007433945778757334
v -9.919882722897455e-05 1.9419640895357304e-10 0.0030483861919492483
v -9.919882722897455e-05 1.9419640895357304e-10 0.0030483861919492483
v 0.0009932003449648619 1.9419640895357304e-10 0.007433945778757334
v -0.0010836340952664614 1.9419640895357304e-10 0.0028510065749287605
v 0.0015381152043119073 1.9419640895357304e-10 -0.002633762313053012
v 0.004859918262809515 1.9419640895357304e-10 -0.005712373182177544
v 0.002309957053512335 1.9419640895357304e-10 -0.00199163262732327
v 0.002309957053512335 1.9419640895357304e-10 -0.00199163262732327
v 0.004859918262809515 1.9419640895357304e-10 -0.005712373182177544
v 0.00594138540327549 1.9419640895357304e-10 -0.004577110055834055
v 0.002309957053512335 1.9419640895357304e-10 -0.00199163262732327
v 0.00594138540327549 1.9419640895357304e-10 -0.004577110055834055
v 0.0028314790688455105 1.9419640895357304e-10 -0.0011336789466440678
v 0.00594138540327549 1.9419640895357304e-10 -0.004577110055834055
v 0.006763187702745199 1.9419640895357304e-10 -0.003241805825382471
v 0.0028314790688455105 1.9419640895357304e-10 -0.0011336789466440678
v 0.0028314790688455105 1.9419640895357304e-10 -0.0011336789466440678
v 0.006763187702745199 1.9419640895357304e-10 -0.003241805825382471
v 0.007289403583854437 1.9419640895357304e-10 -0.0017648187931627035
v 0.0028314790688455105 1.9419640895357304e-10 -0.0011336789466440678
v 0.007289403583854437 1.9419640895357304e-10 -0.0017648187931627035
v 0.0030461668502539396 1.9419640895357304e-10 -0.00015287342830561101
v 0.0030461668502539396 1.9419640895357304e-10 -0.00015287342830561101
v 0.007289403583854437 1.9419640895357304e-10 -0.0017648187931627035
v 0.007497039157897234 1.9419640895357304e-10 -0.00021070089132990688
v 0.0030461668502539396 1.9419640895357304e-10 -0.00015287342830561101
v 0.007497039157897234 1.9419640895357304e-10 -0.00021070089132990688
v 0.0029307545628398657 1.9419640895357304e-10 0.000844498339574784
v 0.0029307545628398657 1.9419640895357304e-10 0.000844498339574784
v 0.007497039157897234 1.9419640895357304e-10 -0.00021070089132990688
v 0.007377019617706537 1.9419640895357304e-10 0.0013526254333555698
v 0.0029307545628398657 1.9419640895357304e-10 0.000844498339574784
v 0.007377019617706537 1.9419640895357304e-10 0.0013526254333555698
v 0.006934586446732283 1.9419640895357304e-10 0.002856835722923279
v -0.0021755844354629517 1.9419640895357304e-10 -0.002137599280104041
v -0.026764214038848877 1.9419640895357304e-10 -0.003990849945694208
v -0.0013636285439133644 1.9419640895357304e-10 -0.002728189341723919
v -0.0013636285439133644 1.9419640895357304e-10 -0.002728189341723919
v -0.026764214038848877 1.9419640895357304e-10 -0.003990849945694208
v -0.0009932011598721147 1.9419640895357304e-10 -0.007433945778757334
v -0.0013636285439133644 1.9419640895357304e-10 -0.002728189341723919
v -0.0009932011598721147 1.9419640895357304e-10 -0.007433945778757334
v -0.00040390208596363664 1.9419640895357304e-10 -0.003023137804120779
v -0.00040390208596363664 1.9419640895357304e-10 -0.003023137804120779
v -0.0009932011598721147 1.9419640895357304e-10 -0.007433945778757334
v 0.0005741067579947412 1.9419640895357304e-10 -0.007477994542568922
v -0.00040390208596363664 1.9419640895357304e-10 -0.003023137804120779
v 0.0005741067579947412 1.9419640895357304e-10 -0.007477994542568922
v 0.0005995933897793293 1.9419640895357304e-10 -0.002990482607856393
v 0.0005995933897793293 1.9419640895357304e-10 -0.002990482607856393
v 0.0005741067579947412 1.9419640895357304e-10 -0.007477994542568922
v 0.002116323681548238 1.9419640895357304e-10 -0.007195218466222286
v 0.0005995933897793293 1.9419640895357304e-10 -0.002990482607856393
v 0.002116323681548238 1.9419640895357304e-10 -0.007195218466222286
v 0.0015381152043119073 1.9419640895357304e-10 -0.002633762313053012
v 0.0015381152043119073 1.9419640895357304e-10 -0.002633762313053012
v 0.002116323681548238 1.9419640895357304e-10 -0.007195218466222286
v 0.003566046943888068 1.9419640895357304e-10 -0.006597977597266436
v 0.0015381152043119073 1.9419640895357304e-10 -0.002633762313053012
v 0.003566046943888068 1.9419640895357304e-10 -0.006597977597266436
v 0.004859918262809515 1.9419640895357304e-10 -0.005712373182177544
v -0.0021755844354629517 1.9419640895357304e-10 -0.002137599280104041
v -0.002751782536506653 1.9419640895357304e-10 -0.001315366942435503
v -0.026764214038848877 1.9419640895357304e-10 -0.003990849945694208
v -0.026764214038848877 1.9419640895357304e-10 -0.003990849945694208
v -0.002751782536506653 1.9419640895357304e-10 -0.001315366942435503
v -0.0030297820921987295 1.9419640895357304e-10 -0.00035059420042671263
v -0.026764214038848877 1.9419640895357304e-10 -0.003990849945694208
v -0.0030297820921987295 1.9419640895357304e-10 -0.00035059420042671263
v -0.024777811020612717 1.9419640895357304e-10 0.010877042077481747
v -0.024777811020612717 1.9419640895357304e-10 0.010877042077481747
v -0.0030297820921987295 1.9419640895357304e-10 -0.00035059420042671263
v -0.002979458076879382 1.9419640895357304e-10 0.0006521707982756197
v -0.024777811020612717 1.9419640895357304e-10 0.010877042077481747
v -0.002979458076879382 1.9419640895357304e-10 0.0006521707982756197
v -0.0026062645483762026 1.9419640895357304e-10 0.0015842631692066789
v -0.009051154367625713 0.010999999940395355 0.00776702119037509
v -0.010772702284157276 0.010999999940395355 -0.005118485540151596
v -0.02491023950278759 0.010999999940395355 0.009885849431157112
v -0.02491023950278759 0.010999999940395355 0.009885849431157112
v -0.010772702284157276 0.010999999940395355 -0.005118485540151596
v -0.026631787419319153 0.010999999940395355 -0.0029996572993695736
v -0.00891872774809599 0.005499999970197678 0.008758213371038437
v -0.010905128903687 0.005499999970197678 -0.006109678186476231
v -0.010905128903687 0.009999999776482582 -0.006109678186476231
v -0.009051154367625713 0.010999999940395355 0.00776702119037509
v -0.008984941057860851 0.01086602546274662 0.008262617513537407
v -0.008936469443142414 0.010499999858438969 0.00862541887909174
v -0.008936469443142414 0.010499999858438969 0.00862541887909174
v -0.00891872774809599 0.009999999776482582 0.008758213371038437
v -0.009051154367625713 0.010999999940395355 0.00776702119037509
v -0.009051154367625713 0.010999999940395355 0.00776702119037509
v -0.00891872774809599 0.009999999776482582 0.008758213371038437
v -0.00891872774809599 0.005499999970197678 0.008758213371038437
v -0.009051154367625713 0.010999999940395355 0.00776702119037509
v -0.00891872774809599 0.005499999970197678 0.008758213371038437
v -0.010772702284157276 0.010999999940395355 -0.005118485540151596
v -0.010772702284157276 0.010999999940395355 -0.005118485540151596
v -0.00891872774809599 0.005499999970197678 0.008758213371038437
v -0.010905128903687 0.009999999776482582 -0.006109678186476231
v -0.010772702284157276 0.010999999940395355 -0.005118485540151596
v -0.010905128903687 0.009999999776482582 -0.006109678186476231
v -0.010838915593922138 0.01086602546274662 -0.005614081863313913
v -0.010838915593922138 0.01086602546274662 -0.005614081863313913
v -0.010905128903687 0.009999999776482582 -0.006109678186476231
v -0.010887387208640575 0.010499999858438969 -0.005976883694529533
v -0.025447051972150803 0.003595940535888076 0.005867886357009411
v -0.025546478107571602 0.002904783934354782 0.005123702343553305
v -0.024777811020612717 1.9419640895357304e-10 0.010877042077481747
v -0.02491023950278759 0.010999999940395355 0.009885849431157112
v -0.025546478107571602 0.008095216006040573 0.005123702343553305
v -0.02484402433037758 0.01086602546274662 0.010381446219980717
v -0.02484402433037758 0.01086602546274662 0.010381446219980717
v -0.025546478107571602 0.008095216006040573 0.005123702343553305
v -0.025447051972150803 0.007404059171676636 0.005867886357009411
v -0.02484402433037758 0.01086602546274662 0.010381446219980717
v -0.025447051972150803 0.007404059171676636 0.005867886357009411
v -0.02479555457830429 0.010499999858438969 0.01074424758553505
v -0.02479555457830429 0.010499999858438969 0.01074424758553505
v -0.025447051972150803 0.007404059171676636 0.005867886357009411
v -0.02538273297250271 0.006506568286567926 0.006349306553602219
v -0.02479555457830429 0.010499999858438969 0.01074424758553505
v -0.02538273297250271 0.006506568286567926 0.006349306553602219
v -0.024777811020612717 0.009999999776482582 0.010877042077481747
v -0.024777811020612717 0.009999999776482582 0.010877042077481747
v -0.02538273297250271 0.006506568286567926 0.006349306553602219
v -0.025360489264130592 0.005499999970197678 0.006515793967992067
v -0.024777811020612717 0.009999999776482582 0.010877042077481747
v -0.025360489264130592 0.005499999970197678 0.006515793967992067
v -0.024777811020612717 1.9419640895357304e-10 0.010877042077481747
v -0.024777811020612717 1.9419640895357304e-10 0.010877042077481747
v -0.025360489264130592 0.005499999970197678 0.006515793967992067
v -0.02538273297250271 0.004493431653827429 0.006349306553602219
v -0.024777811020612717 1.9419640895357304e-10 0.010877042077481747
v -0.02538273297250271 0.004493431653827429 0.006349306553602219
v -0.025447051972150803 0.003595940535888076 0.005867886357009411
v -0.02604905143380165 0.00321925594471395 0.0013620145618915558
v -0.02613205648958683 0.004024562891572714 0.0007407391094602644
v -0.026764214038848877 1.9419640895357304e-10 -0.003990849945694208
v -0.026764214038848877 1.9419640895357304e-10 -0.003990849945694208
v -0.02613205648958683 0.004024562891572714 0.0007407391094602644
v -0.026175936684012413 0.004989756736904383 0.0004123058752156794
v -0.026764214038848877 1.9419640895357304e-10 -0.003990849945694208
v -0.026175936684012413 0.004989756736904383 0.0004123058752156794
v -0.026764214038848877 0.009999999776482582 -0.003990849945694208
v -0.02604905143380165 0.007780744228512049 0.0013620145618915558
v -0.02593591809272766 0.008338897489011288 0.0022088075056672096
v -0.026631787419319153 0.010999999940395355 -0.0029996572993695736
v -0.025546478107571602 0.002904783934354782 0.005123702343553305
v -0.025670235976576805 0.0024948592763394117 0.004197398666292429
v -0.024777811020612717 1.9419640895357304e-10 0.010877042077481747
v -0.024777811020612717 1.9419640895357304e-10 0.010877042077481747
v -0.025670235976576805 0.0024948592763394117 0.004197398666292429
v -0.0258049126714468 0.002410588087514043 0.003189354669302702
v -0.024777811020612717 1.9419640895357304e-10 0.010877042077481747
v -0.0258049126714468 0.002410588087514043 0.003189354669302702
v -0.026764214038848877 1.9419640895357304e-10 -0.003990849945694208
v -0.026764214038848877 1.9419640895357304e-10 -0.003990849945694208
v -0.0258049126714468 0.002410588087514043 0.003189354669302702
v -0.02593591809272766 0.002661102684214711 0.0022088075056672096
v -0.026764214038848877 1.9419640895357304e-10 -0.003990849945694208
v -0.02593591809272766 0.002661102684214711 0.0022088075056672096
v -0.02604905143380165 0.00321925594471395 0.0013620145618915558
v -0.02593591809272766 0.008338897489011288 0.0022088075056672096
v -0.0258049126714468 0.008589412085711956 0.003189354669302702
v -0.026631787419319153 0.010999999940395355 -0.0029996572993695736
v -0.026631787419319153 0.010999999940395355 -0.0029996572993695736
v -0.0258049126714468 0.008589412085711956 0.003189354669302702
v -0.025771012529730797 0.00860000029206276 0.0034430960658937693
v -0.026631787419319153 0.010999999940395355 -0.0029996572993695736
v -0.025771012529730797 0.00860000029206276 0.0034430960658937693
v -0.02491023950278759 0.010999999940395355 0.009885849431157112
v -0.02491023950278759 0.010999999940395355 0.009885849431157112
v -0.025771012529730797 0.00860000029206276 0.0034430960658937693
v -0.025670235976576805 0.0085051404312253 0.004197398666292429
v -0.02491023950278759 0.010999999940395355 0.009885849431157112
v -0.025670235976576805 0.0085051404312253 0.004197398666292429
v -0.025546478107571602 0.008095216006040573 0.005123702343553305
v -0.026175936684012413 0.004989756736904383 0.0004123058752156794
v -0.026175936684012413 0.0060102432034909725 0.0004123058752156794
v -0.026764214038848877 0.009999999776482582 -0.003990849945694208
v -0.026764214038848877 0.009999999776482582 -0.003990849945694208
v -0.026175936684012413 0.0060102432034909725 0.0004123058752156794
v -0.02613205648958683 0.006975437048822641 0.0007407391094602644
v -0.026764214038848877 0.009999999776482582 -0.003990849945694208
v -0.02613205648958683 0.006975437048822641 0.0007407391094602644
v -0.026746472343802452 0.010499999858438969 -0.0038580552209168673
v -0.026746472343802452 0.010499999858438969 -0.0038580552209168673
v -0.02613205648958683 0.006975437048822641 0.0007407391094602644
v -0.02604905143380165 0.007780744228512049 0.0013620145618915558
v -0.026746472343802452 0.010499999858438969 -0.0038580552209168673
v -0.02604905143380165 0.007780744228512049 0.0013620145618915558
v -0.026698000729084015 0.01086602546274662 -0.003495253622531891
v -0.026698000729084015 0.01086602546274662 -0.003495253622531891
v -0.02604905143380165 0.007780744228512049 0.0013620145618915558
v -0.026631787419319153 0.010999999940395355 -0.0029996572993695736
v -0.010492597706615925 0.005499999970197678 0.004529392346739769
v -0.010514841414988041 0.006506568286567926 0.00436290493234992
v -0.01090312097221613 0.005499999970197678 0.0014566945610567927
v -0.010678586550056934 0.002904783934354782 0.00313730095513165
v -0.010579160414636135 0.003595940535888076 0.0038814847357571125
v -0.01090312097221613 0.005499999970197678 0.0014566945610567927
v -0.01090312097221613 0.005499999970197678 0.0014566945610567927
v -0.010579160414636135 0.003595940535888076 0.0038814847357571125
v -0.010514841414988041 0.004493431653827429 0.00436290493234992
v -0.01090312097221613 0.005499999970197678 0.0014566945610567927
v -0.010514841414988041 0.004493431653827429 0.00436290493234992
v -0.010492597706615925 0.005499999970197678 0.004529392346739769
v -0.011068026535212994 0.002661102684214711 0.00022240594262257218
v -0.010937022045254707 0.002410588087514043 0.0012029531644657254
v -0.01090312097221613 0.005499999970197678 0.0014566945610567927
v -0.01090312097221613 0.005499999970197678 0.0014566945610567927
v -0.010937022045254707 0.002410588087514043 0.0012029531644657254
v -0.010802343487739563 0.0024948592763394117 0.0022109972778707743
v -0.01090312097221613 0.005499999970197678 0.0014566945610567927
v -0.010802343487739563 0.0024948592763394117 0.0022109972778707743
v -0.010678586550056934 0.002904783934354782 0.00313730095513165
v -0.011308045126497746 0.004989756736904383 -0.001574095687828958
v -0.011264164932072163 0.004024562891572714 -0.0012456623371690512
v -0.01090312097221613 0.005499999970197678 0.0014566945610567927
v -0.01090312097221613 0.005499999970197678 0.0014566945610567927
v -0.011264164932072163 0.004024562891572714 -0.0012456623371690512
v -0.011181160807609558 0.00321925594471395 -0.0006243870011530817
v -0.01090312097221613 0.005499999970197678 0.0014566945610567927
v -0.011181160807609558 0.00321925594471395 -0.0006243870011530817
v -0.011068026535212994 0.002661102684214711 0.00022240594262257218
v -0.011181160807609558 0.007780744228512049 -0.0006243870011530817
v -0.011264164932072163 0.006975437048822641 -0.0012456623371690512
v -0.01090312097221613 0.005499999970197678 0.0014566945610567927
v -0.01090312097221613 0.005499999970197678 0.0014566945610567927
v -0.011264164932072163 0.006975437048822641 -0.0012456623371690512
v -0.011308045126497746 0.0060102432034909725 -0.001574095687828958
v -0.01090312097221613 0.005499999970197678 0.0014566945610567927
v -0.011308045126497746 0.0060102432034909725 -0.001574095687828958
v -0.011308045126497746 0.004989756736904383 -0.001574095687828958
v -0.010802343487739563 0.0085051404312253 0.0022109972778707743
v -0.010937022045254707 0.008589412085711956 0.0012029531644657254
v -0.01090312097221613 0.005499999970197678 0.0014566945610567927
v -0.01090312097221613 0.005499999970197678 0.0014566945610567927
v -0.010937022045254707 0.008589412085711956 0.0012029531644657254
v -0.011068026535212994 0.008338897489011288 0.00022240594262257218
v -0.01090312097221613 0.005499999970197678 0.0014566945610567927
v -0.011068026535212994 0.008338897489011288 0.00022240594262257218
v -0.011181160807609558 0.007780744228512049 -0.0006243870011530817
v -0.010514841414988041 0.006506568286567926 0.00436290493234992
v -0.010579160414636135 0.007404059171676636 0.0038814847357571125
v -0.01090312097221613 0.005499999970197678 0.0014566945610567927
v -0.01090312097221613 0.005499999970197678 0.0014566945610567927
v -0.010579160414636135 0.007404059171676636 0.0038814847357571125
v -0.010678586550056934 0.008095216006040573 0.00313730095513165
v -0.01090312097221613 0.005499999970197678 0.0014566945610567927
v -0.010678586550056934 0.008095216006040573 0.00313730095513165
v -0.010802343487739563 0.0085051404312253 0.0022109972778707743
v -0.025546478107571602 0.008095216006040573 0.005123702343553305
v -0.025670235976576805 0.0085051404312253 0.004197398666292429
v -0.010802343487739563 0.0085051404312253 0.0022109972778707743
v -0.010802343487739563 0.0085051404312253 0.0022109972778707743
v -0.025670235976576805 0.0085051404312253 0.004197398666292429
v -0.025771012529730797 0.00860000029206276 0.0034430960658937693
v -0.010802343487739563 0.0085051404312253 0.0022109972778707743
v -0.025771012529730797 0.00860000029206276 0.0034430960658937693
v -0.010937022045254707 0.008589412085711956 0.0012029531644657254
v -0.010937022045254707 0.008589412085711956 0.0012029531644657254
v -0.025771012529730797 0.00860000029206276 0.0034430960658937693
v -0.0258049126714468 0.008589412085711956 0.003189354669302702
v -0.010937022045254707 0.008589412085711956 0.0012029531644657254
v -0.0258049126714468 0.008589412085711956 0.003189354669302702
v -0.011068026535212994 0.008338897489011288 0.00022240594262257218
v -0.011068026535212994 0.008338897489011288 0.00022240594262257218
v -0.0258049126714468 0.008589412085711956 0.003189354669302702
v -0.02593591809272766 0.008338897489011288 0.0022088075056672096
v -0.011068026535212994 0.008338897489011288 0.00022240594262257218
v -0.02593591809272766 0.008338897489011288 0.0022088075056672096
v -0.011181160807609558 0.007780744228512049 -0.0006243870011530817
v -0.011181160807609558 0.007780744228512049 -0.0006243870011530817
v -0.02593591809272766 0.008338897489011288 0.0022088075056672096
v -0.02604905143380165 0.007780744228512049 0.0013620145618915558
v -0.011181160807609558 0.007780744228512049 -0.0006243870011530817
v -0.02604905143380165 0.007780744228512049 0.0013620145618915558
v -0.011264164932072163 0.006975437048822641 -0.0012456623371690512
v -0.011264164932072163 0.006975437048822641 -0.0012456623371690512
v -0.02604905143380165 0.007780744228512049 0.0013620145618915558
v -0.02613205648958683 0.006975437048822641 0.0007407391094602644
v -0.011264164932072163 0.006975437048822641 -0.0012456623371690512
v -0.02613205648958683 0.006975437048822641 0.0007407391094602644
v -0.011308045126497746 0.0060102432034909725 -0.001574095687828958
v -0.011308045126497746 0.0060102432034909725 -0.001574095687828958
v -0.02613205648958683 0.006975437048822641 0.0007407391094602644
v -0.026175936684012413 0.0060102432034909725 0.0004123058752156794
v -0.011308045126497746 0.0060102432034909725 -0.001574095687828958
v -0.026175936684012413 0.0060102432034909725 0.0004123058752156794
v -0.011308045126497746 0.004989756736904383 -0.001574095687828958
v -0.011308045126497746 0.004989756736904383 -0.001574095687828958
v -0.026175936684012413 0.0060102432034909725 0.0004123058752156794
v -0.026175936684012413 0.004989756736904383 0.0004123058752156794
v -0.011308045126497746 0.004989756736904383 -0.001574095687828958
v -0.026175936684012413 0.004989756736904383 0.0004123058752156794
v -0.011264164932072163 0.004024562891572714 -0.0012456623371690512
v -0.011264164932072163 0.004024562891572714 -0.0012456623371690512
v -0.026175936684012413 0.004989756736904383 0.0004123058752156794
v -0.02613205648958683 0.004024562891572714 0.0007407391094602644
v -0.011264164932072163 0.004024562891572714 -0.0012456623371690512
v -0.02613205648958683 0.004024562891572714 0.0007407391094602644
v -0.011181160807609558 0.00321925594471395 -0.0006243870011530817
v -0.011181160807609558 0.00321925594471395 -0.0006243870011530817
v -0.02613205648958683 0.004024562891572714 0.0007407391094602644
v -0.02604905143380165 0.00321925594471395 0.0013620145618915558
v -0.011181160807609558 0.00321925594471395 -0.0006243870011530817
v -0.02604905143380165 0.00321925594471395 0.0013620145618915558
v -0.011068026535212994 0.002661102684214711 0.00022240594262257218
v -0.011068026535212994 0.002661102684214711 0.00022240594262257218
v -0.02604905143380165 0.00321925594471395 0.0013620145618915558
v -0.02593591809272766 0.002661102684214711 0.0022088075056672096
v -0.011068026535212994 0.002661102684214711 0.00022240594262257218
v -0.02593591809272766 0.002661102684214711 0.0022088075056672096
v -0.010937022045254707 0.002410588087514043 0.0012029531644657254
v -0.010937022045254707 0.002410588087514043 0.0012029531644657254
v -0.02593591809272766 0.002661102684214711 0.0022088075056672096
v -0.0258049126714468 0.002410588087514043 0.003189354669302702
v -0.010937022045254707 0.002410588087514043 0.0012029531644657254
v -0.0258049126714468 0.002410588087514043 0.003189354669302702
v -0.010802343487739563 0.0024948592763394117 0.0022109972778707743
v -0.010802343487739563 0.0024948592763394117 0.0022109972778707743
v -0.0258049126714468 0.002410588087514043 0.003189354669302702
v -0.025670235976576805 0.0024948592763394117 0.004197398666292429
v -0.010802343487739563 0.0024948592763394117 0.0022109972778707743
v -0.025670235976576805 0.0024948592763394117 0.004197398666292429
v -0.010678586550056934 0.002904783934354782 0.00313730095513165
v -0.010678586550056934 0.002904783934354782 0.00313730095513165
v -0.025670235976576805 0.0024948592763394117 0.004197398666292429
v -0.025546478107571602 0.002904783934354782 0.005123702343553305
v -0.010678586550056934 0.002904783934354782 0.00313730095513165
v -0.025546478107571602 0.002904783934354782 0.005123702343553305
v -0.010579160414636135 0.003595940535888076 0.0038814847357571125
v -0.010579160414636135 0.003595940535888076 0.0038814847357571125
v -0.025546478107571602 0.002904783934354782 0.005123702343553305
v -0.025447051972150803 0.003595940535888076 0.005867886357009411
v -0.010579160414636135 0.003595940535888076 0.0038814847357571125
v -0.025447051972150803 0.003595940535888076 0.005867886357009411
v -0.010514841414988041 0.004493431653827429 0.00436290493234992
v -0.010514841414988041 0.004493431653827429 0.00436290493234992
v -0.025447051972150803 0.003595940535888076 0.005867886357009411
v -0.02538273297250271 0.004493431653827429 0.006349306553602219
v -0.010514841414988041 0.004493431653827429 0.00436290493234992
v -0.02538273297250271 0.004493431653827429 0.006349306553602219
v -0.010492597706615925 0.005499999970197678 0.004529392346739769
v -0.010492597706615925 0.005499999970197678 0.004529392346739769
v -0.02538273297250271 0.004493431653827429 0.006349306553602219
v -0.025360489264130592 0.005499999970197678 0.006515793967992067
v -0.010492597706615925 0.005499999970197678 0.004529392346739769
v -0.025360489264130592 0.005499999970197678 0.006515793967992067
v -0.010514841414988041 0.006506568286567926 0.00436290493234992
v -0.010514841414988041 0.006506568286567926 0.00436290493234992
v -0.025360489264130592 0.005499999970197678 0.006515793967992067
v -0.02538273297250271 0.006506568286567926 0.006349306553602219
v -0.010514841414988041 0.006506568286567926 0.00436290493234992
v -0.02538273297250271 0.006506568286567926 0.006349306553602219
v -0.010579160414636135 0.007404059171676636 0.0038814847357571125
v -0.010579160414636135 0.007404059171676636 0.0038814847357571125
v -0.02538273297250271 0.006506568286567926 0.006349306553602219
v -0.025447051972150803 0.007404059171676636 0.005867886357009411
v -0.010579160414636135 0.007404059171676636 0.0038814847357571125
v -0.025447051972150803 0.007404059171676636 0.005867886357009411
v -0.010678586550056934 0.008095216006040573 0.00313730095513165
v -0.010678586550056934 0.008095216006040573 0.00313730095513165
v -0.025447051972150803 0.007404059171676636 0.005867886357009411
v -0.025546478107571602 0.008095216006040573 0.005123702343553305
v -0.010678586550056934 0.008095216006040573 0.00313730095513165
v -0.025546478107571602 0.008095216006040573 0.005123702343553305
v -0.010802343487739563 0.0085051404312253 0.0022109972778707743
v -0.009051154367625713 0.010999999940395355 0.00776702119037509
v -0.02491023950278759 0.010999999940395355 0.009885849431157112
v -0.02484402433037758 0.01086602546274662 0.010381446219980717
v -0.009051154367625713 0.010999999940395355 0.00776702119037509
v -0.02484402433037758 0.01086602546274662 0.010381446219980717
v -0.008984941057860851 0.01086602546274662 0.008262617513537407
v -0.008984941057860851 0.01086602546274662 0.008262617513537407
v -0.02484402433037758 0.01086602546274662 0.010381446219980717
v -0.02479555457830429 0.010499999858438969 0.01074424758553505
v -0.008984941057860851 0.01086602546274662 0.008262617513537407
v -0.02479555457830429 0.010499999858438969 0.01074424758553505
v -0.008936469443142414 0.010499999858438969 0.00862541887909174
v -0.008936469443142414 0.010499999858438969 0.00862541887909174
v -0.02479555457830429 0.010499999858438969 0.01074424758553505
v -0.024777811020612717 0.009999999776482582 0.010877042077481747
v -0.008936469443142414 0.010499999858438969 0.00862541887909174
v -0.024777811020612717 0.009999999776482582 0.010877042077481747
v -0.00891872774809599 0.009999999776482582 0.008758213371038437
v -0.026631787419319153 0.010999999940395355 -0.0029996572993695736
v -0.010772702284157276 0.010999999940395355 -0.005118485540151596
v -0.010838915593922138 0.01086602546274662 -0.005614081863313913
v -0.026631787419319153 0.010999999940395355 -0.0029996572993695736
v -0.010838915593922138 0.01086602546274662 -0.005614081863313913
v -0.026698000729084015 0.01086602546274662 -0.003495253622531891
v -0.026698000729084015 0.01086602546274662 -0.003495253622531891
v -0.010838915593922138 0.01086602546274662 -0.005614081863313913
v -0.010887387208640575 0.010499999858438969 -0.005976883694529533
v -0.026698000729084015 0.01086602546274662 -0.003495253622531891
v -0.010887387208640575 0.010499999858438969 -0.005976883694529533
v -0.026746472343802452 0.010499999858438969 -0.0038580552209168673
v -0.026746472343802452 0.010499999858438969 -0.0038580552209168673
v -0.010887387208640575 0.010499999858438969 -0.005976883694529533
v -0.010905128903687 0.009999999776482582 -0.006109678186476231
v -0.026746472343802452 0.010499999858438969 -0.0038580552209168673
v -0.010905128903687 0.009999999776482582 -0.006109678186476231
v -0.026764214038848877 0.009999999776482582 -0.003990849945694208
v 0.0030461668502539396 0.005499999970197678 -0.00015287342830561101
v 0.0029307545628398657 0.005499999970197678 0.000844498339574784
v 0.007377019617706537 0.005499999970197678 0.0013526254333555698
v -0.0009932011598721147 0.005499999970197678 -0.007433945778757334
v -0.00040390208596363664 0.005499999970197678 -0.003023137804120779
v 0.0005741067579947412 0.005499999970197678 -0.007477994542568922
v 0.0005741067579947412 0.005499999970197678 -0.007477994542568922
v -0.00040390208596363664 0.005499999970197678 -0.003023137804120779
v 0.0005995933897793293 0.005499999970197678 -0.002990482607856393
v 0.007377019617706537 0.005499999970197678 0.0013526254333555698
v 0.0029307545628398657 0.005499999970197678 0.000844498339574784
v 0.006934586446732283 0.005499999970197678 0.002856835722923279
v 0.006934586446732283 0.005499999970197678 0.002856835722923279
v 0.0029307545628398657 0.005499999970197678 0.000844498339574784
v 0.002497750101611018 0.005499999970197678 0.0017503555864095688
v 0.006934586446732283 0.005499999970197678 0.002856835722923279
v 0.002497750101611018 0.005499999970197678 0.0017503555864095688
v 0.00618908042088151 0.005499999970197678 0.004236188717186451
v -0.0030297820921987295 0.005499999970197678 -0.00035059420042671263
v -0.010905128903687 0.005499999970197678 -0.006109678186476231
v -0.002979458076879382 0.005499999970197678 0.0006521707982756197
v -0.002979458076879382 0.005499999970197678 0.0006521707982756197
v -0.010905128903687 0.005499999970197678 -0.006109678186476231
v -0.00891872774809599 0.005499999970197678 0.008758213371038437
v -0.002979458076879382 0.005499999970197678 0.0006521707982756197
v -0.00891872774809599 0.005499999970197678 0.008758213371038437
v -0.0026062645483762026 0.005499999970197678 0.0015842631692066789
v -0.0026062645483762026 0.005499999970197678 0.0015842631692066789
v -0.00891872774809599 0.005499999970197678 0.008758213371038437
v -0.001950638834387064 0.005499999970197678 0.0023446755949407816
v 0.002309957053512335 0.005499999970197678 -0.00199163262732327
v 0.004859918262809515 0.005499999970197678 -0.005712373182177544
v 0.0015381152043119073 0.005499999970197678 -0.002633762313053012
v 0.0015381152043119073 0.005499999970197678 -0.002633762313053012
v 0.004859918262809515 0.005499999970197678 -0.005712373182177544
v 0.003566046943888068 0.005499999970197678 -0.006597977597266436
v 0.0015381152043119073 0.005499999970197678 -0.002633762313053012
v 0.003566046943888068 0.005499999970197678 -0.006597977597266436
v 0.0005995933897793293 0.005499999970197678 -0.002990482607856393
v 0.0005995933897793293 0.005499999970197678 -0.002990482607856393
v 0.003566046943888068 0.005499999970197678 -0.006597977597266436
v 0.002116323681548238 0.005499999970197678 -0.007195218466222286
v 0.0005995933897793293 0.005499999970197678 -0.002990482607856393
v 0.002116323681548238 0.005499999970197678 -0.007195218466222286
v 0.0005741067579947412 0.005499999970197678 -0.007477994542568922
v 0.007377019617706537 0.005499999970197678 0.0013526254333555698
v 0.007497039157897234 0.005499999970197678 -0.00021070089132990688
v 0.0030461668502539396 0.005499999970197678 -0.00015287342830561101
v 0.0030461668502539396 0.005499999970197678 -0.00015287342830561101
v 0.007497039157897234 0.005499999970197678 -0.00021070089132990688
v 0.007289403583854437 0.005499999970197678 -0.0017648187931627035
v 0.0030461668502539396 0.005499999970197678 -0.00015287342830561101
v 0.007289403583854437 0.005499999970197678 -0.0017648187931627035
v 0.0028314790688455105 0.005499999970197678 -0.0011336789466440678
v 0.0028314790688455105 0.005499999970197678 -0.0011336789466440678
v 0.007289403583854437 0.005499999970197678 -0.0017648187931627035
v 0.006763187702745199 0.005499999970197678 -0.003241805825382471
v 0.0028314790688455105 0.005499999970197678 -0.0011336789466440678
v 0.006763187702745199 0.005499999970197678 -0.003241805825382471
v 0.002309957053512335 0.005499999970197678 -0.00199163262732327
v 0.002309957053512335 0.005499999970197678 -0.00199163262732327
v 0.006763187702745199 0.005499999970197678 -0.003241805825382471
v 0.00594138540327549 0.005499999970197678 -0.004577110055834055
v 0.002309957053512335 0.005499999970197678 -0.00199163262732327
v 0.00594138540327549 0.005499999970197678 -0.004577110055834055
v 0.004859918262809515 0.005499999970197678 -0.005712373182177544
v 0.00618908042088151 0.005499999970197678 0.004236188717186451
v 0.002497750101611018 0.005499999970197678 0.0017503555864095688
v 0.005173079669475555 0.005499999970197678 0.005430399905890226
v 0.005173079669475555 0.005499999970197678 0.005430399905890226
v 0.002497750101611018 0.005499999970197678 0.0017503555864095688
v 0.0017940750112757087 0.005499999970197678 0.0024665347300469875
v 0.005173079669475555 0.005499999970197678 0.005430399905890226
v 0.0017940750112757087 0.005499999970197678 0.0024665347300469875
v 0.003930991515517235 0.005499999970197678 0.006387276109308004
v 0.003930991515517235 0.005499999970197678 0.006387276109308004
v 0.0017940750112757087 0.005499999970197678 0.0024665347300469875
v 0.0025171006564050913 0.005499999970197678 0.0070649986155331135
v 0.0025171006564050913 0.005499999970197678 0.0070649986155331135
v 0.0017940750112757087 0.005499999970197678 0.0024665347300469875
v 0.000895985693205148 0.005499999970197678 0.002915426157414913
v 0.0025171006564050913 0.005499999970197678 0.0070649986155331135
v 0.000895985693205148 0.005499999970197678 0.002915426157414913
v 0.0009932003449648619 0.005499999970197678 0.007433945778757334
v 0.0009932003449648619 0.005499999970197678 0.007433945778757334
v 0.000895985693205148 0.005499999970197678 0.002915426157414913
v -9.919882722897455e-05 0.005499999970197678 0.0030483861919492483
v 0.0009932003449648619 0.005499999970197678 0.007433945778757334
v -9.919882722897455e-05 0.005499999970197678 0.0030483861919492483
v -0.00891872774809599 0.005499999970197678 0.008758213371038437
v -0.00891872774809599 0.005499999970197678 0.008758213371038437
v -9.919882722897455e-05 0.005499999970197678 0.0030483861919492483
v -0.0010836340952664614 0.005499999970197678 0.0028510065749287605
v -0.00891872774809599 0.005499999970197678 0.008758213371038437
v -0.0010836340952664614 0.005499999970197678 0.0028510065749287605
v -0.001950638834387064 0.005499999970197678 0.0023446755949407816
v -0.0030297820921987295 0.005499999970197678 -0.00035059420042671263
v -0.002751782536506653 0.005499999970197678 -0.001315366942435503
v -0.010905128903687 0.005499999970197678 -0.006109678186476231
v -0.010905128903687 0.005499999970197678 -0.006109678186476231
v -0.002751782536506653 0.005499999970197678 -0.001315366942435503
v -0.0021755844354629517 0.005499999970197678 -0.002137599280104041
v -0.010905128903687 0.005499999970197678 -0.006109678186476231
v -0.0021755844354629517 0.005499999970197678 -0.002137599280104041
v -0.0009932011598721147 0.005499999970197678 -0.007433945778757334
v -0.0009932011598721147 0.005499999970197678 -0.007433945778757334
v -0.0021755844354629517 0.005499999970197678 -0.002137599280104041
v -0.0013636285439133644 0.005499999970197678 -0.002728189341723919
v -0.0009932011598721147 0.005499999970197678 -0.007433945778757334
v -0.0013636285439133644 0.005499999970197678 -0.002728189341723919
v -0.00040390208596363664 0.005499999970197678 -0.003023137804120779
v -0.10667674243450165 0.004448492545634508 0.01708703115582466
v -0.010511265136301517 0.005994210485368967 0.0043896459974348545
v -0.10665696859359741 0.005994210485368967 0.017235042527318
v -0.10665696859359741 0.005994210485368967 0.017235042527318
v -0.010511265136301517 0.005994210485368967 0.0043896459974348545
v -0.010596486739814281 0.007407505065202713 0.0037517761811614037
v -0.10665696859359741 0.005994210485368967 0.017235042527318
v -0.010596486739814281 0.007407505065202713 0.0037517761811614037
v -0.10674218833446503 0.007407505065202713 0.016597174108028412
v -0.10674218833446503 0.007407505065202713 0.016597174108028412
v -0.010596486739814281 0.007407505065202713 0.0037517761811614037
v -0.010763870552182198 0.008309685625135899 0.0024989410303533077
v -0.10674218833446503 0.007407505065202713 0.016597174108028412
v -0.010763870552182198 0.008309685625135899 0.0024989410303533077
v -0.10690957307815552 0.008309685625135899 0.015344338491559029
v -0.10690957307815552 0.008309685625135899 0.015344338491559029
v -0.010763870552182198 0.008309685625135899 0.0024989410303533077
v -0.010968565009534359 0.00845901295542717 0.0009668363491073251
v -0.10690957307815552 0.008309685625135899 0.015344338491559029
v -0.010968565009534359 0.00845901295542717 0.0009668363491073251
v -0.1071142703294754 0.00845901295542717 0.013812233693897724
v -0.1071142703294754 0.00845901295542717 0.013812233693897724
v -0.010968565009534359 0.00845901295542717 0.0009668363491073251
v -0.011155722662806511 0.007815474644303322 -0.00043401107541285455
v -0.1071142703294754 0.00845901295542717 0.013812233693897724
v -0.011155722662806511 0.007815474644303322 -0.00043401107541285455
v -0.10730142891407013 0.007815474644303322 0.012411385774612427
v -0.10730142891407013 0.007815474644303322 0.012411385774612427
v -0.011155722662806511 0.007815474644303322 -0.00043401107541285455
v -0.011275195516645908 0.006551507860422134 -0.0013282457366585732
v -0.10730142891407013 0.007815474644303322 0.012411385774612427
v -0.011275195516645908 0.006551507860422134 -0.0013282457366585732
v -0.1074208989739418 0.006551507860422134 0.01151715125888586
v -0.1074208989739418 0.006551507860422134 0.01151715125888586
v -0.011275195516645908 0.006551507860422134 -0.0013282457366585732
v -0.011294970288872719 0.005005789455026388 -0.0014762579230591655
v -0.1074208989739418 0.006551507860422134 0.01151715125888586
v -0.011294970288872719 0.005005789455026388 -0.0014762579230591655
v -0.10744067281484604 0.005005789455026388 0.011369138956069946
v -0.10744067281484604 0.005005789455026388 0.011369138956069946
v -0.011294970288872719 0.005005789455026388 -0.0014762579230591655
v -0.011209748685359955 0.003592495108023286 -0.0008383880485780537
v -0.10744067281484604 0.005005789455026388 0.011369138956069946
v -0.011209748685359955 0.003592495108023286 -0.0008383880485780537
v -0.10735545307397842 0.003592495108023286 0.012007009238004684
v -0.10735545307397842 0.003592495108023286 0.012007009238004684
v -0.011209748685359955 0.003592495108023286 -0.0008383880485780537
v -0.011042365804314613 0.0026903145480901003 0.00041444727685302496
v -0.10735545307397842 0.003592495108023286 0.012007009238004684
v -0.011042365804314613 0.0026903145480901003 0.00041444727685302496
v -0.10718806833028793 0.0026903145480901003 0.013259844854474068
v -0.10718806833028793 0.0026903145480901003 0.013259844854474068
v -0.011042365804314613 0.0026903145480901003 0.00041444727685302496
v -0.010837671346962452 0.0025409874506294727 0.0019465518416836858
v -0.10718806833028793 0.0026903145480901003 0.013259844854474068
v -0.010837671346962452 0.0025409874506294727 0.0019465518416836858
v -0.10698337852954865 0.0025409874506294727 0.014791948720812798
v -0.10698337852954865 0.0025409874506294727 0.014791948720812798
v -0.010837671346962452 0.0025409874506294727 0.0019465518416836858
v -0.010650512762367725 0.0031845250632613897 0.003347399178892374
v -0.10698337852954865 0.0025409874506294727 0.014791948720812798
v -0.010650512762367725 0.0031845250632613897 0.003347399178892374
v -0.10679621994495392 0.0031845250632613897 0.01619279570877552
v -0.10679621994495392 0.0031845250632613897 0.01619279570877552
v -0.010650512762367725 0.0031845250632613897 0.003347399178892374
v -0.010531039908528328 0.004448492545634508 0.004241634160280228
v -0.10679621994495392 0.0031845250632613897 0.01619279570877552
v -0.010531039908528328 0.004448492545634508 0.004241634160280228
v -0.10667674243450165 0.004448492545634508 0.01708703115582466
v -0.10667674243450165 0.004448492545634508 0.01708703115582466
v -0.010531039908528328 0.004448492545634508 0.004241634160280228
v -0.010511265136301517 0.005994210485368967 0.0043896459974348545
v -0.011209748685359955 0.003592495108023286 -0.0008383880485780537
v -0.011294970288872719 0.005005789455026388 -0.0014762579230591655
v -0.010903118178248405 0.005499999970197678 0.0014566940953955054
v -0.010903118178248405 0.005499999970197678 0.0014566940953955054
v -0.011294970288872719 0.005005789455026388 -0.0014762579230591655
v -0.011275195516645908 0.006551507860422134 -0.0013282457366585732
v -0.010903118178248405 0.005499999970197678 0.0014566940953955054
v -0.011275195516645908 0.006551507860422134 -0.0013282457366585732
v -0.011155722662806511 0.007815474644303322 -0.00043401107541285455
v -0.010650512762367725 0.0031845250632613897 0.003347399178892374
v -0.010837671346962452 0.0025409874506294727 0.0019465518416836858
v -0.010903118178248405 0.005499999970197678 0.0014566940953955054
v -0.010903118178248405 0.005499999970197678 0.0014566940953955054
v -0.010837671346962452 0.0025409874506294727 0.0019465518416836858
v -0.011042365804314613 0.0026903145480901003 0.00041444727685302496
v -0.010903118178248405 0.005499999970197678 0.0014566940953955054
v -0.011042365804314613 0.0026903145480901003 0.00041444727685302496
v -0.011209748685359955 0.003592495108023286 -0.0008383880485780537
v -0.010596486739814281 0.007407505065202713 0.0037517761811614037
v -0.010511265136301517 0.005994210485368967 0.0043896459974348545
v -0.010903118178248405 0.005499999970197678 0.0014566940953955054
v -0.010903118178248405 0.005499999970197678 0.0014566940953955054
v -0.010511265136301517 0.005994210485368967 0.0043896459974348545
v -0.010531039908528328 0.004448492545634508 0.004241634160280228
v -0.010903118178248405 0.005499999970197678 0.0014566940953955054
v -0.010531039908528328 0.004448492545634508 0.004241634160280228
v -0.010650512762367725 0.0031845250632613897 0.003347399178892374
v -0.011155722662806511 0.007815474644303322 -0.00043401107541285455
v -0.010968565009534359 0.00845901295542717 0.0009668363491073251
v -0.010903118178248405 0.005499999970197678 0.0014566940953955054
v -0.010903118178248405 0.005499999970197678 0.0014566940953955054
v -0.010968565009534359 0.00845901295542717 0.0009668363491073251
v -0.010763870552182198 0.008309685625135899 0.0024989410303533077
v -0.010903118178248405 0.005499999970197678 0.0014566940953955054
v -0.010763870552182198 0.008309685625135899 0.0024989410303533077
v -0.010596486739814281 0.007407505065202713 0.0037517761811614037
v -0.1071142703294754 0.00845901295542717 0.013812233693897724
v -0.10730142891407013 0.007815474644303322 0.012411385774612427
v -0.10704882442951202 0.005499999970197678 0.014302091673016548
v -0.10704882442951202 0.005499999970197678 0.014302091673016548
v -0.10730142891407013 0.007815474644303322 0.012411385774612427
v -0.1074208989739418 0.006551507860422134 0.01151715125888586
v -0.10704882442951202 0.005499999970197678 0.014302091673016548
v -0.1074208989739418 0.006551507860422134 0.01151715125888586
v -0.10744067281484604 0.005005789455026388 0.011369138956069946
v -0.10665696859359741 0.005994210485368967 0.017235042527318
v -0.10674218833446503 0.007407505065202713 0.016597174108028412
v -0.10704882442951202 0.005499999970197678 0.014302091673016548
v -0.10704882442951202 0.005499999970197678 0.014302091673016548
v -0.10674218833446503 0.007407505065202713 0.016597174108028412
v -0.10690957307815552 0.008309685625135899 0.015344338491559029
v -0.10704882442951202 0.005499999970197678 0.014302091673016548
v -0.10690957307815552 0.008309685625135899 0.015344338491559029
v -0.1071142703294754 0.00845901295542717 0.013812233693897724
v -0.10698337852954865 0.0025409874506294727 0.014791948720812798
v -0.10679621994495392 0.0031845250632613897 0.01619279570877552
v -0.10704882442951202 0.005499999970197678 0.014302091673016548
v -0.10704882442951202 0.005499999970197678 0.014302091673016548
v -0.10679621994495392 0.0031845250632613897 0.01619279570877552
v -0.10667674243450165 0.004448492545634508 0.01708703115582466
v -0.10704882442951202 0.005499999970197678 0.014302091673016548
v -0.10667674243450165 0.004448492545634508 0.01708703115582466
v -0.10665696859359741 0.005994210485368967 0.017235042527318
v -0.10744067281484604 0.005005789455026388 0.011369138956069946
v -0.10735545307397842 0.003592495108023286 0.012007009238004684
v -0.10704882442951202 0.005499999970197678 0.014302091673016548
v -0.10704882442951202 0.005499999970197678 0.014302091673016548
v -0.10735545307397842 0.003592495108023286 0.012007009238004684
v -0.10718806833028793 0.0026903145480901003 0.013259844854474068
v -0.10704882442951202 0.005499999970197678 0.014302091673016548
v -0.10718806833028793 0.0026903145480901003 0.013259844854474068
v -0.10698337852954865 0.0025409874506294727 0.014791948720812798
usemtl material_DDDDE3
f 1 2 3
f 4 5 6
f 7 8 9
f 10 11 12
f 13 14 15
f 16 17 18
f 19 20 21
f 22 23 24
f 25 26 27
f 28 29 30
f 31 32 33
f 34 35 36
f 37 38 39
f 40 41 42
f 43 44 45
f 46 47 48
f 49 50 51
f 52 53 54
f 55 56 57
f 58 59 60
f 61 62 63
f 64 65 66
f 67 68 69
f 70 71 72
f 73 74 75
f 76 77 78
f 79 80 81
f 82 83 84
f 85 86 87
f 88 89 90
f 91 92 93
f 94 95 96
f 97 98 99
f 100 101 102
f 103 104 105
f 106 107 108
f 109 110 111
f 112 113 114
f 115 116 117
f 118 119 120
f 121 122 123
f 124 125 126
f 127 128 129
f 130 131 132
f 133 134 135
f 136 137 138
f 139 140 141
f 142 143 144
f 145 146 147
f 148 149 150
f 151 152 153
f 154 155 156
f 157 158 159
f 160 161 162
f 163 164 165
f 166 167 168
f 169 170 171
f 172 173 174
f 175 176 177
f 178 179 180
f 181 182 183
f 184 185 186
f 187 188 189
f 190 191 192
f 193 194 195
f 196 197 198
f 199 200 201
f 202 203 204
f 205 206 207
f 208 209 210
f 211 212 213
f 214 215 216
f 217 218 219
f 220 221 222
f 223 224 225
f 226 227 228
f 229 230 231
f 232 233 234
f 235 236 237
f 238 239 240
f 241 242 243
f 244 245 246
f 247 248 249
f 250 251 252
f 253 254 255
f 256 257 258
f 259 260 261
f 262 263 264
f 265 266 267
f 268 269 270
f 271 272 273
f 274 275 276
f 277 278 279
f 280 281 282
f 283 284 285
f 286 287 288
f 289 290 291
f 292 293 294
f 295 296 297
f 298 299 300
f 301 302 303
f 304 305 306
f 307 308 309
f 310 311 312
f 313 314 315
f 316 317 318
f 319 320 321
f 322 323 324
f 325 326 327
f 328 329 330
f 331 332 333
f 334 335 336
f 337 338 339
f 340 341 342
f 343 344 345
f 346 347 348
f 349 350 351
f 352 353 354
f 355 356 357
f 358 359 360
f 361 362 363
f 364 365 366
f 367 368 369
f 370 371 372
f 373 374 375
f 376 377 378
f 379 380 381
f 382 383 384
f 385 386 387
f 388 389 390
f 391 392 393
f 394 395 396
f 397 398 399
f 400 401 402
f 403 404 405
f 406 407 408
f 409 410 411
f 412 413 414
f 415 416 417
f 418 419 420
f 421 422 423
f 424 425 426
f 427 428 429
f 430 431 432
f 433 434 435
f 436 437 438
f 439 440 441
f 442 443 444
f 445 446 447
f 448 449 450
f 451 452 453
f 454 455 456
f 457 458 459
f 460 461 462
f 463 464 465
f 466 467 468
f 469 470 471
f 472 473 474
f 475 476 477
f 478 479 480
f 481 482 483
f 484 485 486
f 487 488 489
f 490 491 492
f 493 494 495
f 496 497 498
f 499 500 501
f 502 503 504
f 505 506 507
f 508 509 510
f 511 512 513
f 514 515 516
f 517 518 519
f 520 521 522
f 523 524 525
f 526 527 528
f 529 530 531
f 532 533 534
f 535 536 537
f 538 539 540
f 541 542 543
f 544 545 546
f 547 548 549
f 550 551 552
f 553 554 555
f 556 557 558
f 559 560 561
f 562 563 564
f 565 566 567
f 568 569 570
f 571 572 573
f 574 575 576
f 577 578 579
f 580 581 582
f 583 584 585
f 586 587 588
f 589 590 591
f 592 593 594
f 595 596 597
f 598 599 600
f 601 602 603
f 604 605 606
f 607 608 609
f 610 611 612
f 613 614 615
f 616 617 618
f 619 620 621
f 622 623 624
f 625 626 627
f 628 629 630
f 631 632 633
f 634 635 636
f 637 638 639
f 640 641 642
f 643 644 645
f 646 647 648
f 649 650 651
f 652 653 654
f 655 656 657
f 658 659 660
f 661 662 663
f 664 665 666
f 667 668 669
f 670 671 672
f 673 674 675
f 676 677 678
f 679 680 681
f 682 683 684
f 685 686 687
f 688 689 690
f 691 692 693
f 694 695 696
f 697 698 699
f 700 701 702
f 703 704 705
f 706 707 708
f 709 710 711
f 712 713 714
f 715 716 717
f 718 719 720
f 721 722 723
f 724 725 726
f 727 728 729
f 730 731 732
f 733 734 735
f 736 737 738
f 739 740 741
f 742 743 744
f 745 746 747
f 748 749 750
f 751 752 753
f 754 755 756
f 757 758 759
f 760 761 762
f 763 764 765
f 766 767 768
f 769 770 771
f 772 773 774
f 775 776 777
f 778 779 780
f 781 782 783
f 784 785 786
f 787 788 789
f 790 791 792
f 793 794 795
f 796 797 798
f 799 800 801
f 802 803 804
f 805 806 807
f 808 809 810
f 811 812 813
f 814 815 816
f 817 818 819
f 820 821 822
f 823 824 825
f 826 827 828
f 829 830 831
f 832 833 834
f 835 836 837
f 838 839 840
f 841 842 843
f 844 845 846
f 847 848 849
f 850 851 852
f 853 854 855
f 856 857 858
f 859 860 861
f 862 863 864
f 865 866 867
f 868 869 870
f 871 872 873
f 874 875 876
f 877 878 879
f 880 881 882
f 883 884 885
f 886 887 888
f 889 890 891
f 892 893 894
f 895 896 897
f 898 899 900
f 901 902 903
f 904 905 906
f 907 908 909
f 910 911 912
f 913 914 915
f 916 917 918
f 919 920 921
f 922 923 924
f 925 926 927
f 928 929 930
