mtllib wheelbipeV14_2_left_front2_link_visuals_left_front2_link_node_STL_BINARY__mesh.mtl
v 0.0060356175526976585 -2.2351742678949904e-10 0.004435247741639614
v 0.0060356175526976585 -0.008949999697506428 0.004435247741639614
v 0.003513521747663617 -2.2351742678949904e-10 0.006614776328206062
v 0.003513521747663617 -2.2351742678949904e-10 0.006614776328206062
v 0.0060356175526976585 -0.008949999697506428 0.004435247741639614
v 0.003513521747663617 -0.008949999697506428 0.006614776328206062
v 0.003513521747663617 -2.2351742678949904e-10 0.006614776328206062
v 0.003513521747663617 -0.008949999697506428 0.006614776328206062
v 0.00029552989872172475 -2.2351742678949904e-10 0.0074841673485934734
v 0.00029552989872172475 -2.2351742678949904e-10 0.0074841673485934734
v 0.003513521747663617 -0.008949999697506428 0.006614776328206062
v 0.00029552989872172475 -0.008949999697506428 0.0074841673485934734
v 0.00029552989872172475 -2.2351742678949904e-10 0.0074841673485934734
v 0.00029552989872172475 -0.008949999697506428 0.0074841673485934734
v -0.0029809954576194286 -2.2351742678949904e-10 0.006871227640658617
v -0.0029809954576194286 -2.2351742678949904e-10 0.006871227640658617
v 0.00029552989872172475 -0.008949999697506428 0.0074841673485934734
v -0.0029809954576194286 -0.008949999697506428 0.006871227640658617
v -0.0029809954576194286 -2.2351742678949904e-10 0.006871227640658617
v -0.0029809954576194286 -0.008949999697506428 0.006871227640658617
v -0.005667097866535187 -2.2351742678949904e-10 0.004897356498986483
v -0.005667097866535187 -2.2351742678949904e-10 0.004897356498986483
v -0.0029809954576194286 -0.008949999697506428 0.006871227640658617
v -0.005667097866535187 -0.008949999697506428 0.004897356498986483
v -0.005667097866535187 -2.2351742678949904e-10 0.004897356498986483
v -0.005667097866535187 -0.008949999697506428 0.004897356498986483
v -0.007230762392282486 -2.2351742678949904e-10 0.001953504281118512
v -0.007230762392282486 -2.2351742678949904e-10 0.001953504281118512
v -0.005667097866535187 -0.008949999697506428 0.004897356498986483
v -0.007230762392282486 -0.008949999697506428 0.001953504281118512
v -0.007230762392282486 -2.2351742678949904e-10 0.001953504281118512
v -0.007230762392282486 -0.008949999697506428 0.001953504281118512
v -0.007362285163253546 -2.2351742678949904e-10 -0.0013772635720670223
v -0.007362285163253546 -2.2351742678949904e-10 -0.0013772635720670223
v -0.007230762392282486 -0.008949999697506428 0.001953504281118512
v -0.007362285163253546 -0.008949999697506428 -0.0013772635720670223
v -0.007362285163253546 -2.2351742678949904e-10 -0.0013772635720670223
v -0.007362285163253546 -0.008949999697506428 -0.0013772635720670223
v -0.0060356175526976585 -2.2351742678949904e-10 -0.004435247741639614
v -0.0060356175526976585 -2.2351742678949904e-10 -0.004435247741639614
v -0.007362285163253546 -0.008949999697506428 -0.0013772635720670223
v -0.0060356175526976585 -0.008949999697506428 -0.004435247741639614
v -0.0060356175526976585 -2.2351742678949904e-10 -0.004435247741639614
v -0.0060356175526976585 -0.008949999697506428 -0.004435247741639614
v -0.003513521747663617 -2.2351742678949904e-10 -0.006614776328206062
v -0.003513521747663617 -2.2351742678949904e-10 -0.006614776328206062
v -0.0060356175526976585 -0.008949999697506428 -0.004435247741639614
v -0.003513521747663617 -0.008949999697506428 -0.006614776328206062
v -0.003513521747663617 -2.2351742678949904e-10 -0.006614776328206062
v -0.003513521747663617 -0.008949999697506428 -0.006614776328206062
v -0.00029552989872172475 -2.2351742678949904e-10 -0.0074841673485934734
v -0.00029552989872172475 -2.2351742678949904e-10 -0.0074841673485934734
v -0.003513521747663617 -0.008949999697506428 -0.006614776328206062
v -0.00029552989872172475 -0.008949999697506428 -0.0074841673485934734
v -0.00029552989872172475 -2.2351742678949904e-10 -0.0074841673485934734
v -0.00029552989872172475 -0.008949999697506428 -0.0074841673485934734
v 0.0029809954576194286 -2.2351742678949904e-10 -0.006871227640658617
v 0.0029809954576194286 -2.2351742678949904e-10 -0.006871227640658617
v -0.00029552989872172475 -0.008949999697506428 -0.0074841673485934734
v 0.0029809954576194286 -0.008949999697506428 -0.006871227640658617
v 0.0029809954576194286 -2.2351742678949904e-10 -0.006871227640658617
v 0.0029809954576194286 -0.008949999697506428 -0.006871227640658617
v 0.005667097866535187 -2.2351742678949904e-10 -0.004897356498986483
v 0.005667097866535187 -2.2351742678949904e-10 -0.004897356498986483
v 0.0029809954576194286 -0.008949999697506428 -0.006871227640658617
v 0.005667097866535187 -0.008949999697506428 -0.004897356498986483
v 0.005667097866535187 -2.2351742678949904e-10 -0.004897356498986483
v 0.005667097866535187 -0.008949999697506428 -0.004897356498986483
v 0.007230762392282486 -2.2351742678949904e-10 -0.001953504281118512
v 0.007230762392282486 -2.2351742678949904e-10 -0.001953504281118512
v 0.005667097866535187 -0.008949999697506428 -0.004897356498986483
v 0.007230762392282486 -0.008949999697506428 -0.001953504281118512
v 0.007230762392282486 -2.2351742678949904e-10 -0.001953504281118512
v 0.007230762392282486 -0.008949999697506428 -0.001953504281118512
v 0.007362285163253546 -2.2351742678949904e-10 0.0013772635720670223
v 0.007362285163253546 -2.2351742678949904e-10 0.0013772635720670223
v 0.007230762392282486 -0.008949999697506428 -0.001953504281118512
v 0.007362285163253546 -0.008949999697506428 0.0013772635720670223
v 0.007362285163253546 -2.2351742678949904e-10 0.0013772635720670223
v 0.007362285163253546 -0.008949999697506428 0.0013772635720670223
v 0.0060356175526976585 -2.2351742678949904e-10 0.004435247741639614
v 0.0060356175526976585 -2.2351742678949904e-10 0.004435247741639614
v 0.007362285163253546 -0.008949999697506428 0.0013772635720670223
v 0.0060356175526976585 -0.008949999697506428 0.004435247741639614
v -0.10275457799434662 -2.2351731576719658e-10 -0.07550875842571259
v -0.10275457799434662 -0.008949999697506428 -0.07550875842571259
v -0.1052749902009964 -2.2351731576719658e-10 -0.07333067804574966
v -0.1052749902009964 -2.2351731576719658e-10 -0.07333067804574966
v -0.10275457799434662 -0.008949999697506428 -0.07550875842571259
v -0.1052749902009964 -0.008949999697506428 -0.07333067804574966
v -0.1052749902009964 -2.2351731576719658e-10 -0.07333067804574966
v -0.1052749902009964 -0.008949999697506428 -0.07333067804574966
v -0.10849083960056305 -2.2351731576719658e-10 -0.07246187329292297
v -0.10849083960056305 -2.2351731576719658e-10 -0.07246187329292297
v -0.1052749902009964 -0.008949999697506428 -0.07333067804574966
v -0.10849083960056305 -0.008949999697506428 -0.07246187329292297
v -0.10849083960056305 -2.2351731576719658e-10 -0.07246187329292297
v -0.10849083960056305 -0.008949999697506428 -0.07246187329292297
v -0.11176516860723495 -2.2351731576719658e-10 -0.07307440042495728
v -0.11176516860723495 -2.2351731576719658e-10 -0.07307440042495728
v -0.10849083960056305 -0.008949999697506428 -0.07246187329292297
v -0.11176516860723495 -0.008949999697506428 -0.07307440042495728
v -0.11176516860723495 -2.2351731576719658e-10 -0.07307440042495728
v -0.11176516860723495 -0.008949999697506428 -0.07307440042495728
v -0.11444947868585587 -2.2351731576719658e-10 -0.07504695653915405
v -0.11444947868585587 -2.2351731576719658e-10 -0.07504695653915405
v -0.11176516860723495 -0.008949999697506428 -0.07307440042495728
v -0.11444947868585587 -0.008949999697506428 -0.07504695653915405
v -0.11444947868585587 -2.2351731576719658e-10 -0.07504695653915405
v -0.11444947868585587 -0.008949999697506428 -0.07504695653915405
v -0.1160121038556099 -2.2351731576719658e-10 -0.07798884809017181
v -0.1160121038556099 -2.2351731576719658e-10 -0.07798884809017181
v -0.11444947868585587 -0.008949999697506428 -0.07504695653915405
v -0.1160121038556099 -0.008949999697506428 -0.07798884809017181
v -0.1160121038556099 -2.2351731576719658e-10 -0.07798884809017181
v -0.1160121038556099 -0.008949999697506428 -0.07798884809017181
v -0.11614353209733963 -2.2351731576719658e-10 -0.08131738752126694
v -0.11614353209733963 -2.2351731576719658e-10 -0.08131738752126694
v -0.1160121038556099 -0.008949999697506428 -0.07798884809017181
v -0.11614353209733963 -0.008949999697506428 -0.08131738752126694
v -0.11614353209733963 -2.2351731576719658e-10 -0.08131738752126694
v -0.11614353209733963 -0.008949999697506428 -0.08131738752126694
v -0.11481774598360062 -2.2351731576719658e-10 -0.08437332510948181
v -0.11481774598360062 -2.2351731576719658e-10 -0.08437332510948181
v -0.11614353209733963 -0.008949999697506428 -0.08131738752126694
v -0.11481774598360062 -0.008949999697506428 -0.08437332510948181
v -0.11481774598360062 -2.2351731576719658e-10 -0.08437332510948181
v -0.11481774598360062 -0.008949999697506428 -0.08437332510948181
v -0.11229734122753143 -2.2351731576719658e-10 -0.08655140548944473
v -0.11229734122753143 -2.2351731576719658e-10 -0.08655140548944473
v -0.11481774598360062 -0.008949999697506428 -0.08437332510948181
v -0.11229734122753143 -0.008949999697506428 -0.08655140548944473
v -0.11229734122753143 -2.2351731576719658e-10 -0.08655140548944473
v -0.11229734122753143 -0.008949999697506428 -0.08655140548944473
v -0.10908149927854538 -2.2351731576719658e-10 -0.08742021769285202
v -0.10908149927854538 -2.2351731576719658e-10 -0.08742021769285202
v -0.11229734122753143 -0.008949999697506428 -0.08655140548944473
v -0.10908149927854538 -0.008949999697506428 -0.08742021769285202
v -0.10908149927854538 -2.2351731576719658e-10 -0.08742021769285202
v -0.10908149927854538 -0.008949999697506428 -0.08742021769285202
v -0.10580715537071228 -2.2351731576719658e-10 -0.08680768311023712
v -0.10580715537071228 -2.2351731576719658e-10 -0.08680768311023712
v -0.10908149927854538 -0.008949999697506428 -0.08742021769285202
v -0.10580715537071228 -0.008949999697506428 -0.08680768311023712
v -0.10580715537071228 -2.2351731576719658e-10 -0.08680768311023712
v -0.10580715537071228 -0.008949999697506428 -0.08680768311023712
v -0.10312284529209137 -2.2351731576719658e-10 -0.08483512699604034
v -0.10312284529209137 -2.2351731576719658e-10 -0.08483512699604034
v -0.10580715537071228 -0.008949999697506428 -0.08680768311023712
v -0.10312284529209137 -0.008949999697506428 -0.08483512699604034
v -0.10312284529209137 -2.2351731576719658e-10 -0.08483512699604034
v -0.10312284529209137 -0.008949999697506428 -0.08483512699604034
v -0.10156023502349854 -2.2351731576719658e-10 -0.08189325034618378
v -0.10156023502349854 -2.2351731576719658e-10 -0.08189325034618378
v -0.10312284529209137 -0.008949999697506428 -0.08483512699604034
v -0.10156023502349854 -0.008949999697506428 -0.08189325034618378
v -0.10156023502349854 -2.2351731576719658e-10 -0.08189325034618378
v -0.10156023502349854 -0.008949999697506428 -0.08189325034618378
v -0.1014287918806076 -2.2351731576719658e-10 -0.07856469601392746
v -0.1014287918806076 -2.2351731576719658e-10 -0.07856469601392746
v -0.10156023502349854 -0.008949999697506428 -0.08189325034618378
v -0.1014287918806076 -0.008949999697506428 -0.07856469601392746
v -0.1014287918806076 -2.2351731576719658e-10 -0.07856469601392746
v -0.1014287918806076 -0.008949999697506428 -0.07856469601392746
v -0.10275457799434662 -2.2351731576719658e-10 -0.07550875842571259
v -0.10275457799434662 -2.2351731576719658e-10 -0.07550875842571259
v -0.1014287918806076 -0.008949999697506428 -0.07856469601392746
v -0.10275457799434662 -0.008949999697506428 -0.07550875842571259
v -0.007732264697551727 -0.009999999776482582 -0.014368788339197636
v -0.09276371449232101 -0.009999999776482582 -0.07685378193855286
v -0.007732264697551727 -2.2351742678949904e-10 -0.014368788339197636
v -0.007732264697551727 -2.2351742678949904e-10 -0.014368788339197636
v -0.09276371449232101 -0.009999999776482582 -0.07685378193855286
v -0.09276371449232101 -2.235173435227722e-10 -0.07685378193855286
v -0.016022447496652603 -2.2351742678949904e-10 -0.0030872595962136984
v -0.10105390101671219 -2.2351731576719658e-10 -0.06557225435972214
v -0.016022447496652603 -0.009999999776482582 -0.0030872595962136984
v -0.016022447496652603 -0.009999999776482582 -0.0030872595962136984
v -0.10105390101671219 -2.2351731576719658e-10 -0.06557225435972214
v -0.10105390101671219 -0.009999999776482582 -0.06557225435972214
v -0.1014287918806076 -2.2351731576719658e-10 -0.07856469601392746
v -0.007362285163253546 -2.2351742678949904e-10 -0.0013772635720670223
v -0.10156023502349854 -2.2351731576719658e-10 -0.08189325034618378
v -0.10156023502349854 -2.2351731576719658e-10 -0.08189325034618378
v -0.007362285163253546 -2.2351742678949904e-10 -0.0013772635720670223
v -0.0060356175526976585 -2.2351742678949904e-10 -0.004435247741639614
v -0.10156023502349854 -2.2351731576719658e-10 -0.08189325034618378
v -0.0060356175526976585 -2.2351742678949904e-10 -0.004435247741639614
v -0.10312284529209137 -2.2351731576719658e-10 -0.08483512699604034
v -0.11444947868585587 -2.2351731576719658e-10 -0.07504695653915405
v -0.11607493460178375 -2.2351731576719658e-10 -0.06978605687618256
v -0.11176516860723495 -2.2351731576719658e-10 -0.07307440042495728
v -0.11176516860723495 -2.2351731576719658e-10 -0.07307440042495728
v -0.11607493460178375 -2.2351731576719658e-10 -0.06978605687618256
v -0.112132228910923 -2.2351731576719658e-10 -0.06789721548557281
v -0.11176516860723495 -2.2351731576719658e-10 -0.07307440042495728
v -0.112132228910923 -2.2351731576719658e-10 -0.06789721548557281
v -0.10849083960056305 -2.2351731576719658e-10 -0.07246187329292297
v -0.10849083960056305 -2.2351731576719658e-10 -0.07246187329292297
v -0.112132228910923 -2.2351731576719658e-10 -0.06789721548557281
v -0.10778021812438965 -2.2351731576719658e-10 -0.06748158484697342
v -0.10849083960056305 -2.2351731576719658e-10 -0.07246187329292297
v -0.10778021812438965 -2.2351731576719658e-10 -0.06748158484697342
v -0.1052749902009964 -2.2351731576719658e-10 -0.07333067804574966
v 0.005667097866535187 -2.2351742678949904e-10 -0.004897356498986483
v 0.007288776338100433 -2.2351742678949904e-10 -0.010154986754059792
v 0.0029809954576194286 -2.2351742678949904e-10 -0.006871227640658617
v 0.0029809954576194286 -2.2351742678949904e-10 -0.006871227640658617
v 0.007288776338100433 -2.2351742678949904e-10 -0.010154986754059792
v 0.0033460615668445826 -2.2351742678949904e-10 -0.012043830938637257
v 0.0029809954576194286 -2.2351742678949904e-10 -0.006871227640658617
v 0.0033460615668445826 -2.2351742678949904e-10 -0.012043830938637257
v -0.00029552989872172475 -2.2351742678949904e-10 -0.0074841673485934734
v -0.00029552989872172475 -2.2351742678949904e-10 -0.0074841673485934734
v 0.0033460615668445826 -2.2351742678949904e-10 -0.012043830938637257
v -0.0010059478227049112 -2.2351742678949904e-10 -0.01245945692062378
v -0.00029552989872172475 -2.2351742678949904e-10 -0.0074841673485934734
v -0.0010059478227049112 -2.2351742678949904e-10 -0.01245945692062378
v -0.003513521747663617 -2.2351742678949904e-10 -0.006614776328206062
v -0.11229734122753143 -2.2351731576719658e-10 -0.08655140548944473
v -0.1174093559384346 -2.2351731576719658e-10 -0.08899039030075073
v -0.11481774598360062 -2.2351731576719658e-10 -0.08437332510948181
v -0.11481774598360062 -2.2351731576719658e-10 -0.08437332510948181
v -0.1174093559384346 -2.2351731576719658e-10 -0.08899039030075073
v -0.11999814957380295 -2.2351731576719658e-10 -0.08546748757362366
v -0.11481774598360062 -2.2351731576719658e-10 -0.08437332510948181
v -0.11999814957380295 -2.2351731576719658e-10 -0.08546748757362366
v -0.11614353209733963 -2.2351731576719658e-10 -0.08131738752126694
v -0.11614353209733963 -2.2351731576719658e-10 -0.08131738752126694
v -0.11999814957380295 -2.2351731576719658e-10 -0.08546748757362366
v -0.12121547013521194 -2.2351731576719658e-10 -0.08126857131719589
v -0.11614353209733963 -2.2351731576719658e-10 -0.08131738752126694
v -0.12121547013521194 -2.2351731576719658e-10 -0.08126857131719589
v -0.1160121038556099 -2.2351731576719658e-10 -0.07798884809017181
v -0.1160121038556099 -2.2351731576719658e-10 -0.07798884809017181
v -0.12121547013521194 -2.2351731576719658e-10 -0.08126857131719589
v -0.12091243267059326 -2.2351731576719658e-10 -0.07690727710723877
v -0.1160121038556099 -2.2351731576719658e-10 -0.07798884809017181
v -0.12091243267059326 -2.2351731576719658e-10 -0.07690727710723877
v -0.11444947868585587 -2.2351731576719658e-10 -0.07504695653915405
v -0.11444947868585587 -2.2351731576719658e-10 -0.07504695653915405
v -0.12091243267059326 -2.2351731576719658e-10 -0.07690727710723877
v -0.1191260814666748 -2.2351731576719658e-10 -0.07291707396507263
v -0.11444947868585587 -2.2351731576719658e-10 -0.07504695653915405
v -0.1191260814666748 -2.2351731576719658e-10 -0.07291707396507263
v -0.11607493460178375 -2.2351731576719658e-10 -0.06978605687618256
v 0.003513521747663617 -2.2351742678949904e-10 0.006614776328206062
v 0.008623185567557812 -2.2351742678949904e-10 0.009049346670508385
v 0.0060356175526976585 -2.2351742678949904e-10 0.004435247741639614
v 0.0060356175526976585 -2.2351742678949904e-10 0.004435247741639614
v 0.008623185567557812 -2.2351742678949904e-10 0.009049346670508385
v 0.011211979202926159 -2.2351742678949904e-10 0.005526438355445862
v 0.0060356175526976585 -2.2351742678949904e-10 0.004435247741639614
v 0.011211979202926159 -2.2351742678949904e-10 0.005526438355445862
v 0.007362285163253546 -2.2351742678949904e-10 0.0013772635720670223
v 0.007362285163253546 -2.2351742678949904e-10 0.0013772635720670223
v 0.011211979202926159 -2.2351742678949904e-10 0.005526438355445862
v 0.012429307214915752 -2.2351742678949904e-10 0.0013275283854454756
v 0.007362285163253546 -2.2351742678949904e-10 0.0013772635720670223
v 0.012429307214915752 -2.2351742678949904e-10 0.0013275283854454756
v 0.007230762392282486 -2.2351742678949904e-10 -0.001953504281118512
v 0.007230762392282486 -2.2351742678949904e-10 -0.001953504281118512
v 0.012429307214915752 -2.2351742678949904e-10 0.0013275283854454756
v 0.012126263231039047 -2.2351742678949904e-10 -0.003033767221495509
v 0.007230762392282486 -2.2351742678949904e-10 -0.001953504281118512
v 0.012126263231039047 -2.2351742678949904e-10 -0.003033767221495509
v 0.005667097866535187 -2.2351742678949904e-10 -0.004897356498986483
v 0.005667097866535187 -2.2351742678949904e-10 -0.004897356498986483
v 0.012126263231039047 -2.2351742678949904e-10 -0.003033767221495509
v 0.010339916683733463 -2.2351742678949904e-10 -0.007023967336863279
v 0.005667097866535187 -2.2351742678949904e-10 -0.004897356498986483
v 0.010339916683733463 -2.2351742678949904e-10 -0.007023967336863279
v 0.007288776338100433 -2.2351742678949904e-10 -0.010154986754059792
v -0.0010059478227049112 -2.2351742678949904e-10 -0.01245945692062378
v -0.004541419912129641 -2.2351742678949904e-10 -0.012807085178792477
v -0.003513521747663617 -2.2351742678949904e-10 -0.006614776328206062
v -0.003513521747663617 -2.2351742678949904e-10 -0.006614776328206062
v -0.004541419912129641 -2.2351742678949904e-10 -0.012807085178792477
v -0.007732264697551727 -2.2351742678949904e-10 -0.014368788339197636
v -0.003513521747663617 -2.2351742678949904e-10 -0.006614776328206062
v -0.007732264697551727 -2.2351742678949904e-10 -0.014368788339197636
v -0.0060356175526976585 -2.2351742678949904e-10 -0.004435247741639614
v -0.0060356175526976585 -2.2351742678949904e-10 -0.004435247741639614
v -0.007732264697551727 -2.2351742678949904e-10 -0.014368788339197636
v -0.09276371449232101 -2.235173435227722e-10 -0.07685378193855286
v -0.0060356175526976585 -2.2351742678949904e-10 -0.004435247741639614
v -0.09276371449232101 -2.235173435227722e-10 -0.07685378193855286
v -0.10312284529209137 -2.2351731576719658e-10 -0.08483512699604034
v -0.10312284529209137 -2.2351731576719658e-10 -0.08483512699604034
v -0.09276371449232101 -2.235173435227722e-10 -0.07685378193855286
v -0.09520723670721054 -2.235173435227722e-10 -0.07943246513605118
v -0.10312284529209137 -2.2351731576719658e-10 -0.08483512699604034
v -0.09520723670721054 -2.235173435227722e-10 -0.07943246513605118
v -0.09659504890441895 -2.235173435227722e-10 -0.08270269632339478
v -0.09659504890441895 -2.235173435227722e-10 -0.08270269632339478
v -0.09829165786504745 -2.235173435227722e-10 -0.08673187345266342
v -0.10312284529209137 -2.2351731576719658e-10 -0.08483512699604034
v -0.10312284529209137 -2.2351731576719658e-10 -0.08483512699604034
v -0.09829165786504745 -2.235173435227722e-10 -0.08673187345266342
v -0.10127196460962296 -2.2351731576719658e-10 -0.08993037790060043
v -0.10312284529209137 -2.2351731576719658e-10 -0.08483512699604034
v -0.10127196460962296 -2.2351731576719658e-10 -0.08993037790060043
v -0.10580715537071228 -2.2351731576719658e-10 -0.08680768311023712
v -0.10580715537071228 -2.2351731576719658e-10 -0.08680768311023712
v -0.10127196460962296 -2.2351731576719658e-10 -0.08993037790060043
v -0.10517143458127975 -2.2351731576719658e-10 -0.09190698713064194
v -0.10580715537071228 -2.2351731576719658e-10 -0.08680768311023712
v -0.10517143458127975 -2.2351731576719658e-10 -0.09190698713064194
v -0.10908149927854538 -2.2351731576719658e-10 -0.08742021769285202
v -0.10908149927854538 -2.2351731576719658e-10 -0.08742021769285202
v -0.10517143458127975 -2.2351731576719658e-10 -0.09190698713064194
v -0.1095130518078804 -2.2351731576719658e-10 -0.09241989254951477
v -0.10908149927854538 -2.2351731576719658e-10 -0.08742021769285202
v -0.1095130518078804 -2.2351731576719658e-10 -0.09241989254951477
v -0.11229734122753143 -2.2351731576719658e-10 -0.08655140548944473
v -0.11229734122753143 -2.2351731576719658e-10 -0.08655140548944473
v -0.1095130518078804 -2.2351731576719658e-10 -0.09241989254951477
v -0.11376575380563736 -2.2351731576719658e-10 -0.09140636771917343
v -0.11229734122753143 -2.2351731576719658e-10 -0.08655140548944473
v -0.11376575380563736 -2.2351731576719658e-10 -0.09140636771917343
v -0.1174093559384346 -2.2351731576719658e-10 -0.08899039030075073
v -0.10275457799434662 -2.2351731576719658e-10 -0.07550875842571259
v -0.005667097866535187 -2.2351742678949904e-10 0.004897356498986483
v -0.1014287918806076 -2.2351731576719658e-10 -0.07856469601392746
v -0.1014287918806076 -2.2351731576719658e-10 -0.07856469601392746
v -0.005667097866535187 -2.2351742678949904e-10 0.004897356498986483
v -0.007230762392282486 -2.2351742678949904e-10 0.001953504281118512
v -0.1014287918806076 -2.2351731576719658e-10 -0.07856469601392746
v -0.007230762392282486 -2.2351742678949904e-10 0.001953504281118512
v -0.007362285163253546 -2.2351742678949904e-10 -0.0013772635720670223
v -0.10778021812438965 -2.2351731576719658e-10 -0.06748158484697342
v -0.10424474626779556 -2.2351731576719658e-10 -0.06713395565748215
v -0.1052749902009964 -2.2351731576719658e-10 -0.07333067804574966
v -0.1052749902009964 -2.2351731576719658e-10 -0.07333067804574966
v -0.10424474626779556 -2.2351731576719658e-10 -0.06713395565748215
v -0.10105390101671219 -2.2351731576719658e-10 -0.06557225435972214
v -0.1052749902009964 -2.2351731576719658e-10 -0.07333067804574966
v -0.10105390101671219 -2.2351731576719658e-10 -0.06557225435972214
v -0.10275457799434662 -2.2351731576719658e-10 -0.07550875842571259
v -0.10275457799434662 -2.2351731576719658e-10 -0.07550875842571259
v -0.10105390101671219 -2.2351731576719658e-10 -0.06557225435972214
v -0.016022447496652603 -2.2351742678949904e-10 -0.0030872595962136984
v -0.10275457799434662 -2.2351731576719658e-10 -0.07550875842571259
v -0.016022447496652603 -2.2351742678949904e-10 -0.0030872595962136984
v -0.005667097866535187 -2.2351742678949904e-10 0.004897356498986483
v -0.005667097866535187 -2.2351742678949904e-10 0.004897356498986483
v -0.016022447496652603 -2.2351742678949904e-10 -0.0030872595962136984
v -0.013578927144408226 -2.2351742678949904e-10 -0.0005085741286166012
v -0.005667097866535187 -2.2351742678949904e-10 0.004897356498986483
v -0.013578927144408226 -2.2351742678949904e-10 -0.0005085741286166012
v -0.012191114015877247 -2.2351742678949904e-10 0.0027616526931524277
v -0.012191114015877247 -2.2351742678949904e-10 0.0027616526931524277
v -0.010494505986571312 -2.2351742678949904e-10 0.006790827494114637
v -0.005667097866535187 -2.2351742678949904e-10 0.004897356498986483
v -0.005667097866535187 -2.2351742678949904e-10 0.004897356498986483
v -0.010494505986571312 -2.2351742678949904e-10 0.006790827494114637
v -0.007514194119721651 -2.2351742678949904e-10 0.009989338926970959
v -0.005667097866535187 -2.2351742678949904e-10 0.004897356498986483
v -0.007514194119721651 -2.2351742678949904e-10 0.009989338926970959
v -0.0029809954576194286 -2.2351742678949904e-10 0.006871227640658617
v -0.0029809954576194286 -2.2351742678949904e-10 0.006871227640658617
v -0.007514194119721651 -2.2351742678949904e-10 0.009989338926970959
v -0.003614734159782529 -2.2351742678949904e-10 0.011965938843786716
v -0.0029809954576194286 -2.2351742678949904e-10 0.006871227640658617
v -0.003614734159782529 -2.2351742678949904e-10 0.011965938843786716
v 0.00029552989872172475 -2.2351742678949904e-10 0.0074841673485934734
v 0.00029552989872172475 -2.2351742678949904e-10 0.0074841673485934734
v -0.003614734159782529 -2.2351742678949904e-10 0.011965938843786716
v 0.000726885162293911 -2.2351742678949904e-10 0.012478847056627274
v 0.00029552989872172475 -2.2351742678949904e-10 0.0074841673485934734
v 0.000726885162293911 -2.2351742678949904e-10 0.012478847056627274
v 0.003513521747663617 -2.2351742678949904e-10 0.006614776328206062
v 0.003513521747663617 -2.2351742678949904e-10 0.006614776328206062
v 0.000726885162293911 -2.2351742678949904e-10 0.012478847056627274
v 0.0049795908853411674 -2.2351742678949904e-10 0.011465325020253658
v 0.003513521747663617 -2.2351742678949904e-10 0.006614776328206062
v 0.0049795908853411674 -2.2351742678949904e-10 0.011465325020253658
v 0.008623185567557812 -2.2351742678949904e-10 0.009049346670508385
v -0.0010059478227049112 -0.009999999776482582 -0.01245945692062378
v 0.0033460615668445826 -0.009999999776482582 -0.012043830938637257
v 0.007288776338100433 -0.009999999776482582 -0.010154986754059792
v -0.10778021812438965 -0.009999999776482582 -0.06748158484697342
v -0.112132228910923 -0.009999999776482582 -0.06789721548557281
v -0.11607493460178375 -0.009999999776482582 -0.06978605687618256
v -0.014907733537256718 -0.009999999776482582 -0.010954883880913258
v -0.014155261218547821 -0.009999999776482582 -0.0128838662058115
v 0.0009617152391001582 -0.009999999776482582 -0.008696988224983215
v 0.0009617152391001582 -0.009999999776482582 -0.008696988224983215
v -0.014155261218547821 -0.009999999776482582 -0.0128838662058115
v 0.007288776338100433 -0.009999999776482582 -0.010154986754059792
v 0.0009617152391001582 -0.009999999776482582 -0.008696988224983215
v 0.007288776338100433 -0.009999999776482582 -0.010154986754059792
v 0.00441595446318388 -0.009999999776482582 -0.007553929463028908
v -0.0010059478227049112 -0.009999999776482582 -0.01245945692062378
v 0.007288776338100433 -0.009999999776482582 -0.010154986754059792
v -0.004541419912129641 -0.009999999776482582 -0.012807085178792477
v -0.004541419912129641 -0.009999999776482582 -0.012807085178792477
v 0.007288776338100433 -0.009999999776482582 -0.010154986754059792
v -0.014155261218547821 -0.009999999776482582 -0.0128838662058115
v -0.004541419912129641 -0.009999999776482582 -0.012807085178792477
v -0.014155261218547821 -0.009999999776482582 -0.0128838662058115
v -0.007732264697551727 -0.009999999776482582 -0.014368788339197636
v 0.0009617152391001582 -0.009999999776482582 -0.008696988224983215
v -0.0026588132604956627 -0.009999999776482582 -0.008336259052157402
v -0.014907733537256718 -0.009999999776482582 -0.010954883880913258
v -0.014907733537256718 -0.009999999776482582 -0.010954883880913258
v -0.0026588132604956627 -0.009999999776482582 -0.008336259052157402
v -0.005819608457386494 -0.009999999776482582 -0.006534114480018616
v -0.014907733537256718 -0.009999999776482582 -0.010954883880913258
v -0.005819608457386494 -0.009999999776482582 -0.006534114480018616
v -0.01652388460934162 -0.009999999776482582 -0.009660571813583374
v -0.01652388460934162 -0.009999999776482582 -0.009660571813583374
v -0.005819608457386494 -0.009999999776482582 -0.006534114480018616
v -0.007974140346050262 -0.009999999776482582 -0.003602162469178438
v -0.01652388460934162 -0.009999999776482582 -0.009660571813583374
v -0.007974140346050262 -0.009999999776482582 -0.003602162469178438
v -0.008749871514737606 -0.009999999776482582 -4.736399932880886e-05
v 0.007050955202430487 -0.009999999776482582 0.00518136378377676
v 0.008623185567557812 -0.009999999776482582 0.009049346670508385
v 0.0043339175172150135 -0.009999999776482582 0.00760129326954484
v 0.0043339175172150135 -0.009999999776482582 0.00760129326954484
v 0.008623185567557812 -0.009999999776482582 0.009049346670508385
v 0.0049795908853411674 -0.009999999776482582 0.011465325020253658
v 0.0043339175172150135 -0.009999999776482582 0.00760129326954484
v 0.0049795908853411674 -0.009999999776482582 0.011465325020253658
v 0.0008675063727423549 -0.009999999776482582 0.008706890046596527
v 0.0008675063727423549 -0.009999999776482582 0.008706890046596527
v 0.0049795908853411674 -0.009999999776482582 0.011465325020253658
v 0.000726885162293911 -0.009999999776482582 0.012478847056627274
v 0.0008675063727423549 -0.009999999776482582 0.008706890046596527
v 0.000726885162293911 -0.009999999776482582 0.012478847056627274
v -0.0027489049825817347 -0.009999999776482582 0.008306985720992088
v -0.0027489049825817347 -0.009999999776482582 0.008306985720992088
v 0.000726885162293911 -0.009999999776482582 0.012478847056627274
v -0.003614734159782529 -0.009999999776482582 0.011965938843786716
v -0.0027489049825817347 -0.009999999776482582 0.008306985720992088
v -0.003614734159782529 -0.009999999776482582 0.011965938843786716
v -0.0058900052681565285 -0.009999999776482582 0.0064707291312515736
v -0.0058900052681565285 -0.009999999776482582 0.0064707291312515736
v -0.003614734159782529 -0.009999999776482582 0.011965938843786716
v -0.007514194119721651 -0.009999999776482582 0.009989338926970959
v -0.0058900052681565285 -0.009999999776482582 0.0064707291312515736
v -0.007514194119721651 -0.009999999776482582 0.009989338926970959
v -0.00801267009228468 -0.009999999776482582 0.0035156244412064552
v 0.00441595446318388 -0.009999999776482582 -0.007553929463028908
v 0.007288776338100433 -0.009999999776482582 -0.010154986754059792
v 0.00710663478821516 -0.009999999776482582 -0.005104727111756802
v 0.00710663478821516 -0.009999999776482582 -0.005104727111756802
v 0.007288776338100433 -0.009999999776482582 -0.010154986754059792
v 0.010339916683733463 -0.009999999776482582 -0.007023967336863279
v 0.00710663478821516 -0.009999999776482582 -0.005104727111756802
v 0.010339916683733463 -0.009999999776482582 -0.007023967336863279
v 0.00856851413846016 -0.009999999776482582 -0.0017728713573887944
v 0.00856851413846016 -0.009999999776482582 -0.0017728713573887944
v 0.010339916683733463 -0.009999999776482582 -0.007023967336863279
v 0.012126263231039047 -0.009999999776482582 -0.003033767221495509
v 0.00856851413846016 -0.009999999776482582 -0.0017728713573887944
v 0.012126263231039047 -0.009999999776482582 -0.003033767221495509
v 0.008548818528652191 -0.009999999776482582 0.0018655298044905066
v 0.008548818528652191 -0.009999999776482582 0.0018655298044905066
v 0.012126263231039047 -0.009999999776482582 -0.003033767221495509
v 0.012429307214915752 -0.009999999776482582 0.0013275283854454756
v 0.008548818528652191 -0.009999999776482582 0.0018655298044905066
v 0.012429307214915752 -0.009999999776482582 0.0013275283854454756
v 0.007050955202430487 -0.009999999776482582 0.00518136378377676
v 0.007050955202430487 -0.009999999776482582 0.00518136378377676
v 0.012429307214915752 -0.009999999776482582 0.0013275283854454756
v 0.011211979202926159 -0.009999999776482582 0.005526438355445862
v 0.007050955202430487 -0.009999999776482582 0.00518136378377676
v 0.011211979202926159 -0.009999999776482582 0.005526438355445862
v 0.008623185567557812 -0.009999999776482582 0.009049346670508385
v -0.10105390101671219 -0.009999999776482582 -0.06557225435972214
v -0.10424474626779556 -0.009999999776482582 -0.06713395565748215
v -0.0946309044957161 -0.009999999776482582 -0.06705717742443085
v -0.10778021812438965 -0.009999999776482582 -0.06748158484697342
v -0.11607493460178375 -0.009999999776482582 -0.06978605687618256
v -0.10424474626779556 -0.009999999776482582 -0.06713395565748215
v -0.014155261218547821 -0.009999999776482582 -0.0128838662058115
v -0.014468093402683735 -0.009999999776482582 -0.014930649660527706
v -0.007732264697551727 -0.009999999776482582 -0.014368788339197636
v -0.007732264697551727 -0.009999999776482582 -0.014368788339197636
v -0.014468093402683735 -0.009999999776482582 -0.014930649660527706
v -0.01576240547001362 -0.009999999776482582 -0.01654680073261261
v -0.007732264697551727 -0.009999999776482582 -0.014368788339197636
v -0.01576240547001362 -0.009999999776482582 -0.01654680073261261
v -0.09276371449232101 -0.009999999776482582 -0.07685378193855286
v -0.09276371449232101 -0.009999999776482582 -0.07685378193855286
v -0.01576240547001362 -0.009999999776482582 -0.01654680073261261
v -0.08828651160001755 -0.009999999776482582 -0.06984082609415054
v -0.09276371449232101 -0.009999999776482582 -0.07685378193855286
v -0.08828651160001755 -0.009999999776482582 -0.06984082609415054
v -0.09021549671888351 -0.009999999776482582 -0.07059330493211746
v -0.09387842565774918 -0.009999999776482582 -0.06898615509271622
v -0.10445224493741989 -0.009999999776482582 -0.0723397433757782
v -0.09226227551698685 -0.009999999776482582 -0.07028046995401382
v -0.09226227551698685 -0.009999999776482582 -0.07028046995401382
v -0.10445224493741989 -0.009999999776482582 -0.0723397433757782
v -0.10173521190881729 -0.009999999776482582 -0.07475967705249786
v -0.09226227551698685 -0.009999999776482582 -0.07028046995401382
v -0.10173521190881729 -0.009999999776482582 -0.07475967705249786
v -0.09021549671888351 -0.009999999776482582 -0.07059330493211746
v -0.09021549671888351 -0.009999999776482582 -0.07059330493211746
v -0.10173521190881729 -0.009999999776482582 -0.07475967705249786
v -0.10023733973503113 -0.009999999776482582 -0.07807551324367523
v -0.09021549671888351 -0.009999999776482582 -0.07059330493211746
v -0.10023733973503113 -0.009999999776482582 -0.07807551324367523
v -0.09276371449232101 -0.009999999776482582 -0.07685378193855286
v -0.11607493460178375 -0.009999999776482582 -0.06978605687618256
v -0.11467617005109787 -0.009999999776482582 -0.07347031682729721
v -0.11153507232666016 -0.009999999776482582 -0.07163405418395996
v -0.007514194119721651 -0.009999999776482582 0.009989338926970959
v -0.010494505986571312 -0.009999999776482582 0.006790827494114637
v -0.012191114015877247 -0.009999999776482582 0.0027616526931524277
v -0.016022447496652603 -0.009999999776482582 -0.0030872595962136984
v -0.0185706689953804 -0.009999999776482582 -0.00934774149209261
v -0.013578927144408226 -0.009999999776482582 -0.0005085741286166012
v -0.013578927144408226 -0.009999999776482582 -0.0005085741286166012
v -0.0185706689953804 -0.009999999776482582 -0.00934774149209261
v -0.01652388460934162 -0.009999999776482582 -0.009660571813583374
v -0.11467617005109787 -0.009999999776482582 -0.07347031682729721
v -0.11607493460178375 -0.009999999776482582 -0.06978605687618256
v -0.11679883301258087 -0.009999999776482582 -0.07642541825771332
v -0.10424474626779556 -0.009999999776482582 -0.06713395565748215
v -0.11607493460178375 -0.009999999776482582 -0.06978605687618256
v -0.0946309044957161 -0.009999999776482582 -0.06705717742443085
v -0.0946309044957161 -0.009999999776482582 -0.06705717742443085
v -0.11607493460178375 -0.009999999776482582 -0.06978605687618256
v -0.11153507232666016 -0.009999999776482582 -0.07163405418395996
v -0.0946309044957161 -0.009999999776482582 -0.06705717742443085
v -0.11153507232666016 -0.009999999776482582 -0.07163405418395996
v -0.09387842565774918 -0.009999999776482582 -0.06898615509271622
v -0.09387842565774918 -0.009999999776482582 -0.06898615509271622
v -0.11153507232666016 -0.009999999776482582 -0.07163405418395996
v -0.1079186499118805 -0.009999999776482582 -0.07123415172100067
v -0.09387842565774918 -0.009999999776482582 -0.06898615509271622
v -0.1079186499118805 -0.009999999776482582 -0.07123415172100067
v -0.10445224493741989 -0.009999999776482582 -0.0723397433757782
v -0.0946309044957161 -0.009999999776482582 -0.06705717742443085
v -0.09431807696819305 -0.009999999776482582 -0.06501039117574692
v -0.10105390101671219 -0.009999999776482582 -0.06557225435972214
v -0.10105390101671219 -0.009999999776482582 -0.06557225435972214
v -0.09431807696819305 -0.009999999776482582 -0.06501039117574692
v -0.09302376210689545 -0.009999999776482582 -0.06339424103498459
v -0.10105390101671219 -0.009999999776482582 -0.06557225435972214
v -0.09302376210689545 -0.009999999776482582 -0.06339424103498459
v -0.016022447496652603 -0.009999999776482582 -0.0030872595962136984
v -0.016022447496652603 -0.009999999776482582 -0.0030872595962136984
v -0.09302376210689545 -0.009999999776482582 -0.06339424103498459
v -0.02049965225160122 -0.009999999776482582 -0.010100213810801506
v -0.016022447496652603 -0.009999999776482582 -0.0030872595962136984
v -0.02049965225160122 -0.009999999776482582 -0.010100213810801506
v -0.0185706689953804 -0.009999999776482582 -0.00934774149209261
v -0.008749871514737606 -0.009999999776482582 -4.736399932880886e-05
v -0.00801267009228468 -0.009999999776482582 0.0035156244412064552
v -0.01652388460934162 -0.009999999776482582 -0.009660571813583374
v -0.01652388460934162 -0.009999999776482582 -0.009660571813583374
v -0.00801267009228468 -0.009999999776482582 0.0035156244412064552
v -0.007514194119721651 -0.009999999776482582 0.009989338926970959
v -0.01652388460934162 -0.009999999776482582 -0.009660571813583374
v -0.007514194119721651 -0.009999999776482582 0.009989338926970959
v -0.013578927144408226 -0.009999999776482582 -0.0005085741286166012
v -0.013578927144408226 -0.009999999776482582 -0.0005085741286166012
v -0.007514194119721651 -0.009999999776482582 0.009989338926970959
v -0.012191114015877247 -0.009999999776482582 0.0027616526931524277
v -0.11607493460178375 -0.009999999776482582 -0.06978605687618256
v -0.1191260814666748 -0.009999999776482582 -0.07291707396507263
v -0.11679883301258087 -0.009999999776482582 -0.07642541825771332
v -0.11679883301258087 -0.009999999776482582 -0.07642541825771332
v -0.1191260814666748 -0.009999999776482582 -0.07291707396507263
v -0.12091243267059326 -0.009999999776482582 -0.07690727710723877
v -0.11679883301258087 -0.009999999776482582 -0.07642541825771332
v -0.12091243267059326 -0.009999999776482582 -0.07690727710723877
v -0.1175360307097435 -0.009999999776482582 -0.07998840510845184
v -0.1175360307097435 -0.009999999776482582 -0.07998840510845184
v -0.12091243267059326 -0.009999999776482582 -0.07690727710723877
v -0.12121547013521194 -0.009999999776482582 -0.08126857131719589
v -0.1175360307097435 -0.009999999776482582 -0.07998840510845184
v -0.12121547013521194 -0.009999999776482582 -0.08126857131719589
v -0.11676029860973358 -0.009999999776482582 -0.08354320377111435
v -0.11676029860973358 -0.009999999776482582 -0.08354320377111435
v -0.12121547013521194 -0.009999999776482582 -0.08126857131719589
v -0.11999814957380295 -0.009999999776482582 -0.08546748757362366
v -0.11676029860973358 -0.009999999776482582 -0.08354320377111435
v -0.11999814957380295 -0.009999999776482582 -0.08546748757362366
v -0.11460576951503754 -0.009999999776482582 -0.08647515624761581
v -0.11460576951503754 -0.009999999776482582 -0.08647515624761581
v -0.11999814957380295 -0.009999999776482582 -0.08546748757362366
v -0.1174093559384346 -0.009999999776482582 -0.08899039030075073
v -0.11460576951503754 -0.009999999776482582 -0.08647515624761581
v -0.1174093559384346 -0.009999999776482582 -0.08899039030075073
v -0.11144497245550156 -0.009999999776482582 -0.08827729523181915
v -0.11144497245550156 -0.009999999776482582 -0.08827729523181915
v -0.1174093559384346 -0.009999999776482582 -0.08899039030075073
v -0.11376575380563736 -0.009999999776482582 -0.09140636771917343
v -0.11144497245550156 -0.009999999776482582 -0.08827729523181915
v -0.11376575380563736 -0.009999999776482582 -0.09140636771917343
v -0.10782445222139359 -0.009999999776482582 -0.08863802999258041
v -0.11376575380563736 -0.009999999776482582 -0.09140636771917343
v -0.1095130518078804 -0.009999999776482582 -0.09241989254951477
v -0.10782445222139359 -0.009999999776482582 -0.08863802999258041
v -0.10782445222139359 -0.009999999776482582 -0.08863802999258041
v -0.1095130518078804 -0.009999999776482582 -0.09241989254951477
v -0.10517143458127975 -0.009999999776482582 -0.09190698713064194
v -0.10782445222139359 -0.009999999776482582 -0.08863802999258041
v -0.10517143458127975 -0.009999999776482582 -0.09190698713064194
v -0.10437020659446716 -0.009999999776482582 -0.08749496936798096
v -0.10437020659446716 -0.009999999776482582 -0.08749496936798096
v -0.10517143458127975 -0.009999999776482582 -0.09190698713064194
v -0.10127196460962296 -0.009999999776482582 -0.08993037790060043
v -0.10437020659446716 -0.009999999776482582 -0.08749496936798096
v -0.10127196460962296 -0.009999999776482582 -0.08993037790060043
v -0.10167952626943588 -0.009999999776482582 -0.08504576981067657
v -0.10167952626943588 -0.009999999776482582 -0.08504576981067657
v -0.10127196460962296 -0.009999999776482582 -0.08993037790060043
v -0.09829165786504745 -0.009999999776482582 -0.08673187345266342
v -0.10167952626943588 -0.009999999776482582 -0.08504576981067657
v -0.09829165786504745 -0.009999999776482582 -0.08673187345266342
v -0.10021764785051346 -0.009999999776482582 -0.08171390742063522
v -0.10021764785051346 -0.009999999776482582 -0.08171390742063522
v -0.09829165786504745 -0.009999999776482582 -0.08673187345266342
v -0.09659504890441895 -0.009999999776482582 -0.08270269632339478
v -0.10021764785051346 -0.009999999776482582 -0.08171390742063522
v -0.09659504890441895 -0.009999999776482582 -0.08270269632339478
v -0.10023733973503113 -0.009999999776482582 -0.07807551324367523
v -0.10023733973503113 -0.009999999776482582 -0.07807551324367523
v -0.09659504890441895 -0.009999999776482582 -0.08270269632339478
v -0.09520723670721054 -0.009999999776482582 -0.07943246513605118
v -0.10023733973503113 -0.009999999776482582 -0.07807551324367523
v -0.09520723670721054 -0.009999999776482582 -0.07943246513605118
v -0.09276371449232101 -0.009999999776482582 -0.07685378193855286
v -0.0010059478227049112 -0.009999999776482582 -0.01245945692062378
v -0.0010059478227049112 -2.2351742678949904e-10 -0.01245945692062378
v 0.0033460615668445826 -2.2351742678949904e-10 -0.012043830938637257
v -0.0010059478227049112 -0.009999999776482582 -0.01245945692062378
v 0.0033460615668445826 -2.2351742678949904e-10 -0.012043830938637257
v 0.0033460615668445826 -0.009999999776482582 -0.012043830938637257
v 0.0033460615668445826 -0.009999999776482582 -0.012043830938637257
v 0.0033460615668445826 -2.2351742678949904e-10 -0.012043830938637257
v 0.007288776338100433 -2.2351742678949904e-10 -0.010154986754059792
v 0.0033460615668445826 -0.009999999776482582 -0.012043830938637257
v 0.007288776338100433 -2.2351742678949904e-10 -0.010154986754059792
v 0.007288776338100433 -0.009999999776482582 -0.010154986754059792
v 0.007288776338100433 -0.009999999776482582 -0.010154986754059792
v 0.007288776338100433 -2.2351742678949904e-10 -0.010154986754059792
v 0.010339916683733463 -2.2351742678949904e-10 -0.007023967336863279
v 0.007288776338100433 -0.009999999776482582 -0.010154986754059792
v 0.010339916683733463 -2.2351742678949904e-10 -0.007023967336863279
v 0.010339916683733463 -0.009999999776482582 -0.007023967336863279
v 0.010339916683733463 -0.009999999776482582 -0.007023967336863279
v 0.010339916683733463 -2.2351742678949904e-10 -0.007023967336863279
v 0.012126263231039047 -2.2351742678949904e-10 -0.003033767221495509
v 0.010339916683733463 -0.009999999776482582 -0.007023967336863279
v 0.012126263231039047 -2.2351742678949904e-10 -0.003033767221495509
v 0.012126263231039047 -0.009999999776482582 -0.003033767221495509
v 0.012126263231039047 -0.009999999776482582 -0.003033767221495509
v 0.012126263231039047 -2.2351742678949904e-10 -0.003033767221495509
v 0.012429307214915752 -2.2351742678949904e-10 0.0013275283854454756
v 0.012126263231039047 -0.009999999776482582 -0.003033767221495509
v 0.012429307214915752 -2.2351742678949904e-10 0.0013275283854454756
v 0.012429307214915752 -0.009999999776482582 0.0013275283854454756
v 0.012429307214915752 -0.009999999776482582 0.0013275283854454756
v 0.012429307214915752 -2.2351742678949904e-10 0.0013275283854454756
v 0.011211979202926159 -2.2351742678949904e-10 0.005526438355445862
v 0.012429307214915752 -0.009999999776482582 0.0013275283854454756
v 0.011211979202926159 -2.2351742678949904e-10 0.005526438355445862
v 0.011211979202926159 -0.009999999776482582 0.005526438355445862
v 0.011211979202926159 -0.009999999776482582 0.005526438355445862
v 0.011211979202926159 -2.2351742678949904e-10 0.005526438355445862
v 0.008623185567557812 -2.2351742678949904e-10 0.009049346670508385
v 0.011211979202926159 -0.009999999776482582 0.005526438355445862
v 0.008623185567557812 -2.2351742678949904e-10 0.009049346670508385
v 0.008623185567557812 -0.009999999776482582 0.009049346670508385
v 0.008623185567557812 -0.009999999776482582 0.009049346670508385
v 0.008623185567557812 -2.2351742678949904e-10 0.009049346670508385
v 0.0049795908853411674 -2.2351742678949904e-10 0.011465325020253658
v 0.008623185567557812 -0.009999999776482582 0.009049346670508385
v 0.0049795908853411674 -2.2351742678949904e-10 0.011465325020253658
v 0.0049795908853411674 -0.009999999776482582 0.011465325020253658
v 0.0049795908853411674 -0.009999999776482582 0.011465325020253658
v 0.0049795908853411674 -2.2351742678949904e-10 0.011465325020253658
v 0.000726885162293911 -2.2351742678949904e-10 0.012478847056627274
v 0.0049795908853411674 -0.009999999776482582 0.011465325020253658
v 0.000726885162293911 -2.2351742678949904e-10 0.012478847056627274
v 0.000726885162293911 -0.009999999776482582 0.012478847056627274
v 0.000726885162293911 -0.009999999776482582 0.012478847056627274
v 0.000726885162293911 -2.2351742678949904e-10 0.012478847056627274
v -0.003614734159782529 -2.2351742678949904e-10 0.011965938843786716
v 0.000726885162293911 -0.009999999776482582 0.012478847056627274
v -0.003614734159782529 -2.2351742678949904e-10 0.011965938843786716
v -0.003614734159782529 -0.009999999776482582 0.011965938843786716
v -0.003614734159782529 -0.009999999776482582 0.011965938843786716
v -0.003614734159782529 -2.2351742678949904e-10 0.011965938843786716
v -0.007514194119721651 -2.2351742678949904e-10 0.009989338926970959
v -0.003614734159782529 -0.009999999776482582 0.011965938843786716
v -0.007514194119721651 -2.2351742678949904e-10 0.009989338926970959
v -0.007514194119721651 -0.009999999776482582 0.009989338926970959
v -0.007514194119721651 -0.009999999776482582 0.009989338926970959
v -0.007514194119721651 -2.2351742678949904e-10 0.009989338926970959
v -0.010494505986571312 -2.2351742678949904e-10 0.006790827494114637
v -0.007514194119721651 -0.009999999776482582 0.009989338926970959
v -0.010494505986571312 -2.2351742678949904e-10 0.006790827494114637
v -0.010494505986571312 -0.009999999776482582 0.006790827494114637
v -0.010494505986571312 -0.009999999776482582 0.006790827494114637
v -0.010494505986571312 -2.2351742678949904e-10 0.006790827494114637
v -0.012191114015877247 -2.2351742678949904e-10 0.0027616526931524277
v -0.010494505986571312 -0.009999999776482582 0.006790827494114637
v -0.012191114015877247 -2.2351742678949904e-10 0.0027616526931524277
v -0.012191114015877247 -0.009999999776482582 0.0027616526931524277
v -0.10778021812438965 -0.009999999776482582 -0.06748158484697342
v -0.10778021812438965 -2.2351731576719658e-10 -0.06748158484697342
v -0.112132228910923 -2.2351731576719658e-10 -0.06789721548557281
v -0.10778021812438965 -0.009999999776482582 -0.06748158484697342
v -0.112132228910923 -2.2351731576719658e-10 -0.06789721548557281
v -0.112132228910923 -0.009999999776482582 -0.06789721548557281
v -0.112132228910923 -0.009999999776482582 -0.06789721548557281
v -0.112132228910923 -2.2351731576719658e-10 -0.06789721548557281
v -0.11607493460178375 -2.2351731576719658e-10 -0.06978605687618256
v -0.112132228910923 -0.009999999776482582 -0.06789721548557281
v -0.11607493460178375 -2.2351731576719658e-10 -0.06978605687618256
v -0.11607493460178375 -0.009999999776482582 -0.06978605687618256
v -0.11607493460178375 -0.009999999776482582 -0.06978605687618256
v -0.11607493460178375 -2.2351731576719658e-10 -0.06978605687618256
v -0.1191260814666748 -2.2351731576719658e-10 -0.07291707396507263
v -0.11607493460178375 -0.009999999776482582 -0.06978605687618256
v -0.1191260814666748 -2.2351731576719658e-10 -0.07291707396507263
v -0.1191260814666748 -0.009999999776482582 -0.07291707396507263
v -0.1191260814666748 -0.009999999776482582 -0.07291707396507263
v -0.1191260814666748 -2.2351731576719658e-10 -0.07291707396507263
v -0.12091243267059326 -2.2351731576719658e-10 -0.07690727710723877
v -0.1191260814666748 -0.009999999776482582 -0.07291707396507263
v -0.12091243267059326 -2.2351731576719658e-10 -0.07690727710723877
v -0.12091243267059326 -0.009999999776482582 -0.07690727710723877
v -0.12091243267059326 -0.009999999776482582 -0.07690727710723877
v -0.12091243267059326 -2.2351731576719658e-10 -0.07690727710723877
v -0.12121547013521194 -2.2351731576719658e-10 -0.08126857131719589
v -0.12091243267059326 -0.009999999776482582 -0.07690727710723877
v -0.12121547013521194 -2.2351731576719658e-10 -0.08126857131719589
v -0.12121547013521194 -0.009999999776482582 -0.08126857131719589
v -0.12121547013521194 -0.009999999776482582 -0.08126857131719589
v -0.12121547013521194 -2.2351731576719658e-10 -0.08126857131719589
v -0.11999814957380295 -2.2351731576719658e-10 -0.08546748757362366
v -0.12121547013521194 -0.009999999776482582 -0.08126857131719589
v -0.11999814957380295 -2.2351731576719658e-10 -0.08546748757362366
v -0.11999814957380295 -0.009999999776482582 -0.08546748757362366
v -0.11999814957380295 -0.009999999776482582 -0.08546748757362366
v -0.11999814957380295 -2.2351731576719658e-10 -0.08546748757362366
v -0.1174093559384346 -2.2351731576719658e-10 -0.08899039030075073
v -0.11999814957380295 -0.009999999776482582 -0.08546748757362366
v -0.1174093559384346 -2.2351731576719658e-10 -0.08899039030075073
v -0.1174093559384346 -0.009999999776482582 -0.08899039030075073
v -0.1174093559384346 -0.009999999776482582 -0.08899039030075073
v -0.1174093559384346 -2.2351731576719658e-10 -0.08899039030075073
v -0.11376575380563736 -2.2351731576719658e-10 -0.09140636771917343
v -0.1174093559384346 -0.009999999776482582 -0.08899039030075073
v -0.11376575380563736 -2.2351731576719658e-10 -0.09140636771917343
v -0.11376575380563736 -0.009999999776482582 -0.09140636771917343
v -0.11376575380563736 -0.009999999776482582 -0.09140636771917343
v -0.11376575380563736 -2.2351731576719658e-10 -0.09140636771917343
v -0.1095130518078804 -2.2351731576719658e-10 -0.09241989254951477
v -0.11376575380563736 -0.009999999776482582 -0.09140636771917343
v -0.1095130518078804 -2.2351731576719658e-10 -0.09241989254951477
v -0.1095130518078804 -0.009999999776482582 -0.09241989254951477
v -0.1095130518078804 -0.009999999776482582 -0.09241989254951477
v -0.1095130518078804 -2.2351731576719658e-10 -0.09241989254951477
v -0.10517143458127975 -2.2351731576719658e-10 -0.09190698713064194
v -0.1095130518078804 -0.009999999776482582 -0.09241989254951477
v -0.10517143458127975 -2.2351731576719658e-10 -0.09190698713064194
v -0.10517143458127975 -0.009999999776482582 -0.09190698713064194
v -0.10517143458127975 -0.009999999776482582 -0.09190698713064194
v -0.10517143458127975 -2.2351731576719658e-10 -0.09190698713064194
v -0.10127196460962296 -2.2351731576719658e-10 -0.08993037790060043
v -0.10517143458127975 -0.009999999776482582 -0.09190698713064194
v -0.10127196460962296 -2.2351731576719658e-10 -0.08993037790060043
v -0.10127196460962296 -0.009999999776482582 -0.08993037790060043
v -0.10127196460962296 -0.009999999776482582 -0.08993037790060043
v -0.10127196460962296 -2.2351731576719658e-10 -0.08993037790060043
v -0.09829165786504745 -2.235173435227722e-10 -0.08673187345266342
v -0.10127196460962296 -0.009999999776482582 -0.08993037790060043
v -0.09829165786504745 -2.235173435227722e-10 -0.08673187345266342
v -0.09829165786504745 -0.009999999776482582 -0.08673187345266342
v -0.09829165786504745 -0.009999999776482582 -0.08673187345266342
v -0.09829165786504745 -2.235173435227722e-10 -0.08673187345266342
v -0.09659504890441895 -2.235173435227722e-10 -0.08270269632339478
v -0.09829165786504745 -0.009999999776482582 -0.08673187345266342
v -0.09659504890441895 -2.235173435227722e-10 -0.08270269632339478
v -0.09659504890441895 -0.009999999776482582 -0.08270269632339478
v -0.10173521190881729 -0.008949999697506428 -0.07475967705249786
v -0.10173521190881729 -0.009999999776482582 -0.07475967705249786
v -0.10445224493741989 -0.008949999697506428 -0.0723397433757782
v -0.10445224493741989 -0.008949999697506428 -0.0723397433757782
v -0.10173521190881729 -0.009999999776482582 -0.07475967705249786
v -0.10445224493741989 -0.009999999776482582 -0.0723397433757782
v -0.10445224493741989 -0.008949999697506428 -0.0723397433757782
v -0.10445224493741989 -0.009999999776482582 -0.0723397433757782
v -0.1079186499118805 -0.008949999697506428 -0.07123415172100067
v -0.1079186499118805 -0.008949999697506428 -0.07123415172100067
v -0.10445224493741989 -0.009999999776482582 -0.0723397433757782
v -0.1079186499118805 -0.009999999776482582 -0.07123415172100067
v -0.1079186499118805 -0.008949999697506428 -0.07123415172100067
v -0.1079186499118805 -0.009999999776482582 -0.07123415172100067
v -0.11153507232666016 -0.008949999697506428 -0.07163405418395996
v -0.11153507232666016 -0.008949999697506428 -0.07163405418395996
v -0.1079186499118805 -0.009999999776482582 -0.07123415172100067
v -0.11153507232666016 -0.009999999776482582 -0.07163405418395996
v -0.11153507232666016 -0.008949999697506428 -0.07163405418395996
v -0.11153507232666016 -0.009999999776482582 -0.07163405418395996
v -0.11467617005109787 -0.008949999697506428 -0.07347031682729721
v -0.11467617005109787 -0.008949999697506428 -0.07347031682729721
v -0.11153507232666016 -0.009999999776482582 -0.07163405418395996
v -0.11467617005109787 -0.009999999776482582 -0.07347031682729721
v -0.11467617005109787 -0.008949999697506428 -0.07347031682729721
v -0.11467617005109787 -0.009999999776482582 -0.07347031682729721
v -0.11679883301258087 -0.008949999697506428 -0.07642541825771332
v -0.11679883301258087 -0.008949999697506428 -0.07642541825771332
v -0.11467617005109787 -0.009999999776482582 -0.07347031682729721
v -0.11679883301258087 -0.009999999776482582 -0.07642541825771332
v -0.11679883301258087 -0.008949999697506428 -0.07642541825771332
v -0.11679883301258087 -0.009999999776482582 -0.07642541825771332
v -0.1175360307097435 -0.008949999697506428 -0.07998840510845184
v -0.1175360307097435 -0.008949999697506428 -0.07998840510845184
v -0.11679883301258087 -0.009999999776482582 -0.07642541825771332
v -0.1175360307097435 -0.009999999776482582 -0.07998840510845184
v -0.1175360307097435 -0.008949999697506428 -0.07998840510845184
v -0.1175360307097435 -0.009999999776482582 -0.07998840510845184
v -0.11676029860973358 -0.008949999697506428 -0.08354320377111435
v -0.11676029860973358 -0.008949999697506428 -0.08354320377111435
v -0.1175360307097435 -0.009999999776482582 -0.07998840510845184
v -0.11676029860973358 -0.009999999776482582 -0.08354320377111435
v -0.11676029860973358 -0.008949999697506428 -0.08354320377111435
v -0.11676029860973358 -0.009999999776482582 -0.08354320377111435
v -0.11460576951503754 -0.008949999697506428 -0.08647515624761581
v -0.11460576951503754 -0.008949999697506428 -0.08647515624761581
v -0.11676029860973358 -0.009999999776482582 -0.08354320377111435
v -0.11460576951503754 -0.009999999776482582 -0.08647515624761581
v -0.11460576951503754 -0.008949999697506428 -0.08647515624761581
v -0.11460576951503754 -0.009999999776482582 -0.08647515624761581
v -0.11144497245550156 -0.008949999697506428 -0.08827729523181915
v -0.11144497245550156 -0.008949999697506428 -0.08827729523181915
v -0.11460576951503754 -0.009999999776482582 -0.08647515624761581
v -0.11144497245550156 -0.009999999776482582 -0.08827729523181915
v -0.11144497245550156 -0.008949999697506428 -0.08827729523181915
v -0.11144497245550156 -0.009999999776482582 -0.08827729523181915
v -0.10782445222139359 -0.008949999697506428 -0.08863802999258041
v -0.10782445222139359 -0.008949999697506428 -0.08863802999258041
v -0.11144497245550156 -0.009999999776482582 -0.08827729523181915
v -0.10782445222139359 -0.009999999776482582 -0.08863802999258041
v -0.10782445222139359 -0.008949999697506428 -0.08863802999258041
v -0.10782445222139359 -0.009999999776482582 -0.08863802999258041
v -0.10437020659446716 -0.008949999697506428 -0.08749496936798096
v -0.10437020659446716 -0.008949999697506428 -0.08749496936798096
v -0.10782445222139359 -0.009999999776482582 -0.08863802999258041
v -0.10437020659446716 -0.009999999776482582 -0.08749496936798096
v -0.10437020659446716 -0.008949999697506428 -0.08749496936798096
v -0.10437020659446716 -0.009999999776482582 -0.08749496936798096
v -0.10167952626943588 -0.008949999697506428 -0.08504576981067657
v -0.10167952626943588 -0.008949999697506428 -0.08504576981067657
v -0.10437020659446716 -0.009999999776482582 -0.08749496936798096
v -0.10167952626943588 -0.009999999776482582 -0.08504576981067657
v -0.10167952626943588 -0.008949999697506428 -0.08504576981067657
v -0.10167952626943588 -0.009999999776482582 -0.08504576981067657
v -0.10021764785051346 -0.008949999697506428 -0.08171390742063522
v -0.10021764785051346 -0.008949999697506428 -0.08171390742063522
v -0.10167952626943588 -0.009999999776482582 -0.08504576981067657
v -0.10021764785051346 -0.009999999776482582 -0.08171390742063522
v -0.10021764785051346 -0.008949999697506428 -0.08171390742063522
v -0.10021764785051346 -0.009999999776482582 -0.08171390742063522
v -0.10023733973503113 -0.008949999697506428 -0.07807551324367523
v -0.10023733973503113 -0.008949999697506428 -0.07807551324367523
v -0.10021764785051346 -0.009999999776482582 -0.08171390742063522
v -0.10023733973503113 -0.009999999776482582 -0.07807551324367523
v -0.10023733973503113 -0.008949999697506428 -0.07807551324367523
v -0.10023733973503113 -0.009999999776482582 -0.07807551324367523
v -0.10173521190881729 -0.008949999697506428 -0.07475967705249786
v -0.10173521190881729 -0.008949999697506428 -0.07475967705249786
v -0.10023733973503113 -0.009999999776482582 -0.07807551324367523
v -0.10173521190881729 -0.009999999776482582 -0.07475967705249786
v -0.1175360307097435 -0.008949999697506428 -0.07998840510845184
v -0.11676029860973358 -0.008949999697506428 -0.08354320377111435
v -0.11481774598360062 -0.008949999697506428 -0.08437332510948181
v -0.11481774598360062 -0.008949999697506428 -0.08437332510948181
v -0.11676029860973358 -0.008949999697506428 -0.08354320377111435
v -0.11460576951503754 -0.008949999697506428 -0.08647515624761581
v -0.11481774598360062 -0.008949999697506428 -0.08437332510948181
v -0.11460576951503754 -0.008949999697506428 -0.08647515624761581
v -0.11229734122753143 -0.008949999697506428 -0.08655140548944473
v -0.11229734122753143 -0.008949999697506428 -0.08655140548944473
v -0.11460576951503754 -0.008949999697506428 -0.08647515624761581
v -0.11144497245550156 -0.008949999697506428 -0.08827729523181915
v -0.11229734122753143 -0.008949999697506428 -0.08655140548944473
v -0.11144497245550156 -0.008949999697506428 -0.08827729523181915
v -0.10908149927854538 -0.008949999697506428 -0.08742021769285202
v -0.10908149927854538 -0.008949999697506428 -0.08742021769285202
v -0.11144497245550156 -0.008949999697506428 -0.08827729523181915
v -0.10782445222139359 -0.008949999697506428 -0.08863802999258041
v -0.10908149927854538 -0.008949999697506428 -0.08742021769285202
v -0.10782445222139359 -0.008949999697506428 -0.08863802999258041
v -0.10580715537071228 -0.008949999697506428 -0.08680768311023712
v -0.10580715537071228 -0.008949999697506428 -0.08680768311023712
v -0.10782445222139359 -0.008949999697506428 -0.08863802999258041
v -0.10437020659446716 -0.008949999697506428 -0.08749496936798096
v -0.10580715537071228 -0.008949999697506428 -0.08680768311023712
v -0.10437020659446716 -0.008949999697506428 -0.08749496936798096
v -0.10312284529209137 -0.008949999697506428 -0.08483512699604034
v -0.10312284529209137 -0.008949999697506428 -0.08483512699604034
v -0.10437020659446716 -0.008949999697506428 -0.08749496936798096
v -0.10167952626943588 -0.008949999697506428 -0.08504576981067657
v -0.10312284529209137 -0.008949999697506428 -0.08483512699604034
v -0.10167952626943588 -0.008949999697506428 -0.08504576981067657
v -0.10156023502349854 -0.008949999697506428 -0.08189325034618378
v -0.10156023502349854 -0.008949999697506428 -0.08189325034618378
v -0.10167952626943588 -0.008949999697506428 -0.08504576981067657
v -0.10021764785051346 -0.008949999697506428 -0.08171390742063522
v -0.10156023502349854 -0.008949999697506428 -0.08189325034618378
v -0.10021764785051346 -0.008949999697506428 -0.08171390742063522
v -0.1014287918806076 -0.008949999697506428 -0.07856469601392746
v -0.1014287918806076 -0.008949999697506428 -0.07856469601392746
v -0.10021764785051346 -0.008949999697506428 -0.08171390742063522
v -0.10023733973503113 -0.008949999697506428 -0.07807551324367523
v -0.1014287918806076 -0.008949999697506428 -0.07856469601392746
v -0.10023733973503113 -0.008949999697506428 -0.07807551324367523
v -0.10275457799434662 -0.008949999697506428 -0.07550875842571259
v -0.10275457799434662 -0.008949999697506428 -0.07550875842571259
v -0.10023733973503113 -0.008949999697506428 -0.07807551324367523
v -0.10173521190881729 -0.008949999697506428 -0.07475967705249786
v -0.10275457799434662 -0.008949999697506428 -0.07550875842571259
v -0.10173521190881729 -0.008949999697506428 -0.07475967705249786
v -0.1052749902009964 -0.008949999697506428 -0.07333067804574966
v -0.1052749902009964 -0.008949999697506428 -0.07333067804574966
v -0.10173521190881729 -0.008949999697506428 -0.07475967705249786
v -0.10445224493741989 -0.008949999697506428 -0.0723397433757782
v -0.1052749902009964 -0.008949999697506428 -0.07333067804574966
v -0.10445224493741989 -0.008949999697506428 -0.0723397433757782
v -0.10849083960056305 -0.008949999697506428 -0.07246187329292297
v -0.10849083960056305 -0.008949999697506428 -0.07246187329292297
v -0.10445224493741989 -0.008949999697506428 -0.0723397433757782
v -0.1079186499118805 -0.008949999697506428 -0.07123415172100067
v -0.10849083960056305 -0.008949999697506428 -0.07246187329292297
v -0.1079186499118805 -0.008949999697506428 -0.07123415172100067
v -0.11176516860723495 -0.008949999697506428 -0.07307440042495728
v -0.11176516860723495 -0.008949999697506428 -0.07307440042495728
v -0.1079186499118805 -0.008949999697506428 -0.07123415172100067
v -0.11153507232666016 -0.008949999697506428 -0.07163405418395996
v -0.11176516860723495 -0.008949999697506428 -0.07307440042495728
v -0.11153507232666016 -0.008949999697506428 -0.07163405418395996
v -0.11444947868585587 -0.008949999697506428 -0.07504695653915405
v -0.11444947868585587 -0.008949999697506428 -0.07504695653915405
v -0.11153507232666016 -0.008949999697506428 -0.07163405418395996
v -0.11467617005109787 -0.008949999697506428 -0.07347031682729721
v -0.11444947868585587 -0.008949999697506428 -0.07504695653915405
v -0.11467617005109787 -0.008949999697506428 -0.07347031682729721
v -0.1160121038556099 -0.008949999697506428 -0.07798884809017181
v -0.1160121038556099 -0.008949999697506428 -0.07798884809017181
v -0.11467617005109787 -0.008949999697506428 -0.07347031682729721
v -0.11679883301258087 -0.008949999697506428 -0.07642541825771332
v -0.1160121038556099 -0.008949999697506428 -0.07798884809017181
v -0.11679883301258087 -0.008949999697506428 -0.07642541825771332
v -0.11614353209733963 -0.008949999697506428 -0.08131738752126694
v -0.11614353209733963 -0.008949999697506428 -0.08131738752126694
v -0.11679883301258087 -0.008949999697506428 -0.07642541825771332
v -0.1175360307097435 -0.008949999697506428 -0.07998840510845184
v -0.11614353209733963 -0.008949999697506428 -0.08131738752126694
v -0.1175360307097435 -0.008949999697506428 -0.07998840510845184
v -0.11481774598360062 -0.008949999697506428 -0.08437332510948181
v 0.007050955202430487 -0.008949999697506428 0.00518136378377676
v 0.007050955202430487 -0.009999999776482582 0.00518136378377676
v 0.0043339175172150135 -0.008949999697506428 0.00760129326954484
v 0.0043339175172150135 -0.008949999697506428 0.00760129326954484
v 0.007050955202430487 -0.009999999776482582 0.00518136378377676
v 0.0043339175172150135 -0.009999999776482582 0.00760129326954484
v 0.0043339175172150135 -0.008949999697506428 0.00760129326954484
v 0.0043339175172150135 -0.009999999776482582 0.00760129326954484
v 0.0008675063727423549 -0.008949999697506428 0.008706890046596527
v 0.0008675063727423549 -0.008949999697506428 0.008706890046596527
v 0.0043339175172150135 -0.009999999776482582 0.00760129326954484
v 0.0008675063727423549 -0.009999999776482582 0.008706890046596527
v 0.0008675063727423549 -0.008949999697506428 0.008706890046596527
v 0.0008675063727423549 -0.009999999776482582 0.008706890046596527
v -0.0027489049825817347 -0.008949999697506428 0.008306985720992088
v -0.0027489049825817347 -0.008949999697506428 0.008306985720992088
v 0.0008675063727423549 -0.009999999776482582 0.008706890046596527
v -0.0027489049825817347 -0.009999999776482582 0.008306985720992088
v -0.0027489049825817347 -0.008949999697506428 0.008306985720992088
v -0.0027489049825817347 -0.009999999776482582 0.008306985720992088
v -0.0058900052681565285 -0.008949999697506428 0.0064707291312515736
v -0.0058900052681565285 -0.008949999697506428 0.0064707291312515736
v -0.0027489049825817347 -0.009999999776482582 0.008306985720992088
v -0.0058900052681565285 -0.009999999776482582 0.0064707291312515736
v -0.0058900052681565285 -0.008949999697506428 0.0064707291312515736
v -0.0058900052681565285 -0.009999999776482582 0.0064707291312515736
v -0.00801267009228468 -0.008949999697506428 0.0035156244412064552
v -0.00801267009228468 -0.008949999697506428 0.0035156244412064552
v -0.0058900052681565285 -0.009999999776482582 0.0064707291312515736
v -0.00801267009228468 -0.009999999776482582 0.0035156244412064552
v -0.00801267009228468 -0.008949999697506428 0.0035156244412064552
v -0.00801267009228468 -0.009999999776482582 0.0035156244412064552
v -0.008749871514737606 -0.008949999697506428 -4.736399932880886e-05
v -0.008749871514737606 -0.008949999697506428 -4.736399932880886e-05
v -0.00801267009228468 -0.009999999776482582 0.0035156244412064552
v -0.008749871514737606 -0.009999999776482582 -4.736399932880886e-05
v -0.008749871514737606 -0.008949999697506428 -4.736399932880886e-05
v -0.008749871514737606 -0.009999999776482582 -4.736399932880886e-05
v -0.007974140346050262 -0.008949999697506428 -0.003602162469178438
v -0.007974140346050262 -0.008949999697506428 -0.003602162469178438
v -0.008749871514737606 -0.009999999776482582 -4.736399932880886e-05
v -0.007974140346050262 -0.009999999776482582 -0.003602162469178438
v -0.007974140346050262 -0.008949999697506428 -0.003602162469178438
v -0.007974140346050262 -0.009999999776482582 -0.003602162469178438
v -0.005819608457386494 -0.008949999697506428 -0.006534114480018616
v -0.005819608457386494 -0.008949999697506428 -0.006534114480018616
v -0.007974140346050262 -0.009999999776482582 -0.003602162469178438
v -0.005819608457386494 -0.009999999776482582 -0.006534114480018616
v -0.005819608457386494 -0.008949999697506428 -0.006534114480018616
v -0.005819608457386494 -0.009999999776482582 -0.006534114480018616
v -0.0026588132604956627 -0.008949999697506428 -0.008336259052157402
v -0.0026588132604956627 -0.008949999697506428 -0.008336259052157402
v -0.005819608457386494 -0.009999999776482582 -0.006534114480018616
v -0.0026588132604956627 -0.009999999776482582 -0.008336259052157402
v -0.0026588132604956627 -0.008949999697506428 -0.008336259052157402
v -0.0026588132604956627 -0.009999999776482582 -0.008336259052157402
v 0.0009617152391001582 -0.008949999697506428 -0.008696988224983215
v 0.0009617152391001582 -0.008949999697506428 -0.008696988224983215
v -0.0026588132604956627 -0.009999999776482582 -0.008336259052157402
v 0.0009617152391001582 -0.009999999776482582 -0.008696988224983215
v 0.0009617152391001582 -0.008949999697506428 -0.008696988224983215
v 0.0009617152391001582 -0.009999999776482582 -0.008696988224983215
v 0.00441595446318388 -0.008949999697506428 -0.007553929463028908
v 0.00441595446318388 -0.008949999697506428 -0.007553929463028908
v 0.0009617152391001582 -0.009999999776482582 -0.008696988224983215
v 0.00441595446318388 -0.009999999776482582 -0.007553929463028908
v 0.00441595446318388 -0.008949999697506428 -0.007553929463028908
v 0.00441595446318388 -0.009999999776482582 -0.007553929463028908
v 0.00710663478821516 -0.008949999697506428 -0.005104727111756802
v 0.00710663478821516 -0.008949999697506428 -0.005104727111756802
v 0.00441595446318388 -0.009999999776482582 -0.007553929463028908
v 0.00710663478821516 -0.009999999776482582 -0.005104727111756802
v 0.00710663478821516 -0.008949999697506428 -0.005104727111756802
v 0.00710663478821516 -0.009999999776482582 -0.005104727111756802
v 0.00856851413846016 -0.008949999697506428 -0.0017728713573887944
v 0.00856851413846016 -0.008949999697506428 -0.0017728713573887944
v 0.00710663478821516 -0.009999999776482582 -0.005104727111756802
v 0.00856851413846016 -0.009999999776482582 -0.0017728713573887944
v 0.00856851413846016 -0.008949999697506428 -0.0017728713573887944
v 0.00856851413846016 -0.009999999776482582 -0.0017728713573887944
v 0.008548818528652191 -0.008949999697506428 0.0018655298044905066
v 0.008548818528652191 -0.008949999697506428 0.0018655298044905066
v 0.00856851413846016 -0.009999999776482582 -0.0017728713573887944
v 0.008548818528652191 -0.009999999776482582 0.0018655298044905066
v 0.008548818528652191 -0.008949999697506428 0.0018655298044905066
v 0.008548818528652191 -0.009999999776482582 0.0018655298044905066
v 0.007050955202430487 -0.008949999697506428 0.00518136378377676
v 0.007050955202430487 -0.008949999697506428 0.00518136378377676
v 0.008548818528652191 -0.009999999776482582 0.0018655298044905066
v 0.007050955202430487 -0.009999999776482582 0.00518136378377676
v -0.008749871514737606 -0.008949999697506428 -4.736399932880886e-05
v -0.007974140346050262 -0.008949999697506428 -0.003602162469178438
v -0.0060356175526976585 -0.008949999697506428 -0.004435247741639614
v -0.0060356175526976585 -0.008949999697506428 -0.004435247741639614
v -0.007974140346050262 -0.008949999697506428 -0.003602162469178438
v -0.005819608457386494 -0.008949999697506428 -0.006534114480018616
v -0.0060356175526976585 -0.008949999697506428 -0.004435247741639614
v -0.005819608457386494 -0.008949999697506428 -0.006534114480018616
v -0.003513521747663617 -0.008949999697506428 -0.006614776328206062
v -0.003513521747663617 -0.008949999697506428 -0.006614776328206062
v -0.005819608457386494 -0.008949999697506428 -0.006534114480018616
v -0.0026588132604956627 -0.008949999697506428 -0.008336259052157402
v -0.003513521747663617 -0.008949999697506428 -0.006614776328206062
v -0.0026588132604956627 -0.008949999697506428 -0.008336259052157402
v -0.00029552989872172475 -0.008949999697506428 -0.0074841673485934734
v -0.00029552989872172475 -0.008949999697506428 -0.0074841673485934734
v -0.0026588132604956627 -0.008949999697506428 -0.008336259052157402
v 0.0009617152391001582 -0.008949999697506428 -0.008696988224983215
v -0.00029552989872172475 -0.008949999697506428 -0.0074841673485934734
v 0.0009617152391001582 -0.008949999697506428 -0.008696988224983215
v 0.0029809954576194286 -0.008949999697506428 -0.006871227640658617
v 0.0029809954576194286 -0.008949999697506428 -0.006871227640658617
v 0.0009617152391001582 -0.008949999697506428 -0.008696988224983215
v 0.00441595446318388 -0.008949999697506428 -0.007553929463028908
v 0.0029809954576194286 -0.008949999697506428 -0.006871227640658617
v 0.00441595446318388 -0.008949999697506428 -0.007553929463028908
v 0.005667097866535187 -0.008949999697506428 -0.004897356498986483
v 0.005667097866535187 -0.008949999697506428 -0.004897356498986483
v 0.00441595446318388 -0.008949999697506428 -0.007553929463028908
v 0.00710663478821516 -0.008949999697506428 -0.005104727111756802
v 0.005667097866535187 -0.008949999697506428 -0.004897356498986483
v 0.00710663478821516 -0.008949999697506428 -0.005104727111756802
v 0.007230762392282486 -0.008949999697506428 -0.001953504281118512
v 0.007230762392282486 -0.008949999697506428 -0.001953504281118512
v 0.00710663478821516 -0.008949999697506428 -0.005104727111756802
v 0.00856851413846016 -0.008949999697506428 -0.0017728713573887944
v 0.007230762392282486 -0.008949999697506428 -0.001953504281118512
v 0.00856851413846016 -0.008949999697506428 -0.0017728713573887944
v 0.007362285163253546 -0.008949999697506428 0.0013772635720670223
v 0.007362285163253546 -0.008949999697506428 0.0013772635720670223
v 0.00856851413846016 -0.008949999697506428 -0.0017728713573887944
v 0.008548818528652191 -0.008949999697506428 0.0018655298044905066
v 0.007362285163253546 -0.008949999697506428 0.0013772635720670223
v 0.008548818528652191 -0.008949999697506428 0.0018655298044905066
v 0.0060356175526976585 -0.008949999697506428 0.004435247741639614
v 0.0060356175526976585 -0.008949999697506428 0.004435247741639614
v 0.008548818528652191 -0.008949999697506428 0.0018655298044905066
v 0.007050955202430487 -0.008949999697506428 0.00518136378377676
v 0.0060356175526976585 -0.008949999697506428 0.004435247741639614
v 0.007050955202430487 -0.008949999697506428 0.00518136378377676
v 0.003513521747663617 -0.008949999697506428 0.006614776328206062
v 0.003513521747663617 -0.008949999697506428 0.006614776328206062
v 0.007050955202430487 -0.008949999697506428 0.00518136378377676
v 0.0043339175172150135 -0.008949999697506428 0.00760129326954484
v 0.003513521747663617 -0.008949999697506428 0.006614776328206062
v 0.0043339175172150135 -0.008949999697506428 0.00760129326954484
v 0.00029552989872172475 -0.008949999697506428 0.0074841673485934734
v 0.00029552989872172475 -0.008949999697506428 0.0074841673485934734
v 0.0043339175172150135 -0.008949999697506428 0.00760129326954484
v 0.0008675063727423549 -0.008949999697506428 0.008706890046596527
v 0.00029552989872172475 -0.008949999697506428 0.0074841673485934734
v 0.0008675063727423549 -0.008949999697506428 0.008706890046596527
v -0.0029809954576194286 -0.008949999697506428 0.006871227640658617
v -0.0029809954576194286 -0.008949999697506428 0.006871227640658617
v 0.0008675063727423549 -0.008949999697506428 0.008706890046596527
v -0.0027489049825817347 -0.008949999697506428 0.008306985720992088
v -0.0029809954576194286 -0.008949999697506428 0.006871227640658617
v -0.0027489049825817347 -0.008949999697506428 0.008306985720992088
v -0.005667097866535187 -0.008949999697506428 0.004897356498986483
v -0.005667097866535187 -0.008949999697506428 0.004897356498986483
v -0.0027489049825817347 -0.008949999697506428 0.008306985720992088
v -0.0058900052681565285 -0.008949999697506428 0.0064707291312515736
v -0.005667097866535187 -0.008949999697506428 0.004897356498986483
v -0.0058900052681565285 -0.008949999697506428 0.0064707291312515736
v -0.007230762392282486 -0.008949999697506428 0.001953504281118512
v -0.007230762392282486 -0.008949999697506428 0.001953504281118512
v -0.0058900052681565285 -0.008949999697506428 0.0064707291312515736
v -0.00801267009228468 -0.008949999697506428 0.0035156244412064552
v -0.007230762392282486 -0.008949999697506428 0.001953504281118512
v -0.00801267009228468 -0.008949999697506428 0.0035156244412064552
v -0.007362285163253546 -0.008949999697506428 -0.0013772635720670223
v -0.007362285163253546 -0.008949999697506428 -0.0013772635720670223
v -0.00801267009228468 -0.008949999697506428 0.0035156244412064552
v -0.008749871514737606 -0.008949999697506428 -4.736399932880886e-05
v -0.007362285163253546 -0.008949999697506428 -0.0013772635720670223
v -0.008749871514737606 -0.008949999697506428 -4.736399932880886e-05
v -0.0060356175526976585 -0.008949999697506428 -0.004435247741639614
v -0.09302376210689545 -0.0029999997932463884 -0.06339424103498459
v -0.09302376210689545 -0.009999999776482582 -0.06339424103498459
v -0.09431807696819305 -0.0029999997932463884 -0.06501039117574692
v -0.09431807696819305 -0.0029999997932463884 -0.06501039117574692
v -0.09302376210689545 -0.009999999776482582 -0.06339424103498459
v -0.09431807696819305 -0.009999999776482582 -0.06501039117574692
v -0.09431807696819305 -0.0029999997932463884 -0.06501039117574692
v -0.09431807696819305 -0.009999999776482582 -0.06501039117574692
v -0.0946309044957161 -0.0029999997932463884 -0.06705717742443085
v -0.0946309044957161 -0.0029999997932463884 -0.06705717742443085
v -0.09431807696819305 -0.009999999776482582 -0.06501039117574692
v -0.0946309044957161 -0.009999999776482582 -0.06705717742443085
v -0.0946309044957161 -0.0029999997932463884 -0.06705717742443085
v -0.0946309044957161 -0.009999999776482582 -0.06705717742443085
v -0.09387842565774918 -0.0029999997932463884 -0.06898615509271622
v -0.09387842565774918 -0.0029999997932463884 -0.06898615509271622
v -0.0946309044957161 -0.009999999776482582 -0.06705717742443085
v -0.09387842565774918 -0.009999999776482582 -0.06898615509271622
v -0.09387842565774918 -0.0029999997932463884 -0.06898615509271622
v -0.09387842565774918 -0.009999999776482582 -0.06898615509271622
v -0.09226227551698685 -0.0029999997932463884 -0.07028046995401382
v -0.09226227551698685 -0.0029999997932463884 -0.07028046995401382
v -0.09387842565774918 -0.009999999776482582 -0.06898615509271622
v -0.09226227551698685 -0.009999999776482582 -0.07028046995401382
v -0.09226227551698685 -0.0029999997932463884 -0.07028046995401382
v -0.09226227551698685 -0.009999999776482582 -0.07028046995401382
v -0.09021549671888351 -0.0029999997932463884 -0.07059330493211746
v -0.09021549671888351 -0.0029999997932463884 -0.07059330493211746
v -0.09226227551698685 -0.009999999776482582 -0.07028046995401382
v -0.09021549671888351 -0.009999999776482582 -0.07059330493211746
v -0.09021549671888351 -0.0029999997932463884 -0.07059330493211746
v -0.09021549671888351 -0.009999999776482582 -0.07059330493211746
v -0.08828651160001755 -0.0029999997932463884 -0.06984082609415054
v -0.08828651160001755 -0.0029999997932463884 -0.06984082609415054
v -0.09021549671888351 -0.009999999776482582 -0.07059330493211746
v -0.08828651160001755 -0.009999999776482582 -0.06984082609415054
v -0.09302376210689545 -0.0029999997932463884 -0.06339424103498459
v -0.02049965225160122 -0.0029999997932463884 -0.010100213810801506
v -0.09302376210689545 -0.009999999776482582 -0.06339424103498459
v -0.09302376210689545 -0.009999999776482582 -0.06339424103498459
v -0.02049965225160122 -0.0029999997932463884 -0.010100213810801506
v -0.02049965225160122 -0.009999999776482582 -0.010100213810801506
v -0.01576240547001362 -0.0029999997932463884 -0.01654680073261261
v -0.01576240547001362 -0.009999999776482582 -0.01654680073261261
v -0.014468093402683735 -0.0029999997932463884 -0.014930649660527706
v -0.014468093402683735 -0.0029999997932463884 -0.014930649660527706
v -0.01576240547001362 -0.009999999776482582 -0.01654680073261261
v -0.014468093402683735 -0.009999999776482582 -0.014930649660527706
v -0.014468093402683735 -0.0029999997932463884 -0.014930649660527706
v -0.014468093402683735 -0.009999999776482582 -0.014930649660527706
v -0.014155261218547821 -0.0029999997932463884 -0.0128838662058115
v -0.014155261218547821 -0.0029999997932463884 -0.0128838662058115
v -0.014468093402683735 -0.009999999776482582 -0.014930649660527706
v -0.014155261218547821 -0.009999999776482582 -0.0128838662058115
v -0.014155261218547821 -0.0029999997932463884 -0.0128838662058115
v -0.014155261218547821 -0.009999999776482582 -0.0128838662058115
v -0.014907733537256718 -0.0029999997932463884 -0.010954883880913258
v -0.014907733537256718 -0.0029999997932463884 -0.010954883880913258
v -0.014155261218547821 -0.009999999776482582 -0.0128838662058115
v -0.014907733537256718 -0.009999999776482582 -0.010954883880913258
v -0.014907733537256718 -0.0029999997932463884 -0.010954883880913258
v -0.014907733537256718 -0.009999999776482582 -0.010954883880913258
v -0.01652388460934162 -0.0029999997932463884 -0.009660571813583374
v -0.01652388460934162 -0.0029999997932463884 -0.009660571813583374
v -0.014907733537256718 -0.009999999776482582 -0.010954883880913258
v -0.01652388460934162 -0.009999999776482582 -0.009660571813583374
v -0.01652388460934162 -0.0029999997932463884 -0.009660571813583374
v -0.01652388460934162 -0.009999999776482582 -0.009660571813583374
v -0.0185706689953804 -0.0029999997932463884 -0.00934774149209261
v -0.0185706689953804 -0.0029999997932463884 -0.00934774149209261
v -0.01652388460934162 -0.009999999776482582 -0.009660571813583374
v -0.0185706689953804 -0.009999999776482582 -0.00934774149209261
v -0.0185706689953804 -0.0029999997932463884 -0.00934774149209261
v -0.0185706689953804 -0.009999999776482582 -0.00934774149209261
v -0.02049965225160122 -0.0029999997932463884 -0.010100213810801506
v -0.02049965225160122 -0.0029999997932463884 -0.010100213810801506
v -0.0185706689953804 -0.009999999776482582 -0.00934774149209261
v -0.02049965225160122 -0.009999999776482582 -0.010100213810801506
v -0.01576240547001362 -0.0029999997932463884 -0.01654680073261261
v -0.08828651160001755 -0.0029999997932463884 -0.06984082609415054
v -0.01576240547001362 -0.009999999776482582 -0.01654680073261261
v -0.01576240547001362 -0.009999999776482582 -0.01654680073261261
v -0.08828651160001755 -0.0029999997932463884 -0.06984082609415054
v -0.08828651160001755 -0.009999999776482582 -0.06984082609415054
v -0.01652388460934162 -0.0029999997932463884 -0.009660571813583374
v -0.0185706689953804 -0.0029999997932463884 -0.00934774149209261
v -0.02049965225160122 -0.0029999997932463884 -0.010100213810801506
v -0.09021549671888351 -0.0029999997932463884 -0.07059330493211746
v -0.08828651160001755 -0.0029999997932463884 -0.06984082609415054
v -0.09302376210689545 -0.0029999997932463884 -0.06339424103498459
v -0.014155261218547821 -0.0029999997932463884 -0.0128838662058115
v -0.014907733537256718 -0.0029999997932463884 -0.010954883880913258
v -0.01652388460934162 -0.0029999997932463884 -0.009660571813583374
v -0.09302376210689545 -0.0029999997932463884 -0.06339424103498459
v -0.08828651160001755 -0.0029999997932463884 -0.06984082609415054
v -0.02049965225160122 -0.0029999997932463884 -0.010100213810801506
v -0.02049965225160122 -0.0029999997932463884 -0.010100213810801506
v -0.08828651160001755 -0.0029999997932463884 -0.06984082609415054
v -0.01576240547001362 -0.0029999997932463884 -0.01654680073261261
v -0.02049965225160122 -0.0029999997932463884 -0.010100213810801506
v -0.01576240547001362 -0.0029999997932463884 -0.01654680073261261
v -0.01652388460934162 -0.0029999997932463884 -0.009660571813583374
v -0.01652388460934162 -0.0029999997932463884 -0.009660571813583374
v -0.01576240547001362 -0.0029999997932463884 -0.01654680073261261
v -0.014468093402683735 -0.0029999997932463884 -0.014930649660527706
v -0.01652388460934162 -0.0029999997932463884 -0.009660571813583374
v -0.014468093402683735 -0.0029999997932463884 -0.014930649660527706
v -0.014155261218547821 -0.0029999997932463884 -0.0128838662058115
v -0.09387842565774918 -0.0029999997932463884 -0.06898615509271622
v -0.09226227551698685 -0.0029999997932463884 -0.07028046995401382
v -0.0946309044957161 -0.0029999997932463884 -0.06705717742443085
v -0.0946309044957161 -0.0029999997932463884 -0.06705717742443085
v -0.09226227551698685 -0.0029999997932463884 -0.07028046995401382
v -0.09021549671888351 -0.0029999997932463884 -0.07059330493211746
v -0.0946309044957161 -0.0029999997932463884 -0.06705717742443085
v -0.09021549671888351 -0.0029999997932463884 -0.07059330493211746
v -0.09431807696819305 -0.0029999997932463884 -0.06501039117574692
v -0.09431807696819305 -0.0029999997932463884 -0.06501039117574692
v -0.09021549671888351 -0.0029999997932463884 -0.07059330493211746
v -0.09302376210689545 -0.0029999997932463884 -0.06339424103498459
v -0.007732264697551727 -0.009999999776482582 -0.014368788339197636
v -0.007732264697551727 -2.2351742678949904e-10 -0.014368788339197636
v -0.004541419912129641 -0.009999999776482582 -0.012807085178792477
v -0.004541419912129641 -0.009999999776482582 -0.012807085178792477
v -0.007732264697551727 -2.2351742678949904e-10 -0.014368788339197636
v -0.004541419912129641 -2.2351742678949904e-10 -0.012807085178792477
v -0.004541419912129641 -0.009999999776482582 -0.012807085178792477
v -0.004541419912129641 -2.2351742678949904e-10 -0.012807085178792477
v -0.0010059478227049112 -0.009999999776482582 -0.01245945692062378
v -0.0010059478227049112 -0.009999999776482582 -0.01245945692062378
v -0.004541419912129641 -2.2351742678949904e-10 -0.012807085178792477
v -0.0010059478227049112 -2.2351742678949904e-10 -0.01245945692062378
v -0.09659504890441895 -0.009999999776482582 -0.08270269632339478
v -0.09659504890441895 -2.235173435227722e-10 -0.08270269632339478
v -0.09520723670721054 -0.009999999776482582 -0.07943246513605118
v -0.09520723670721054 -0.009999999776482582 -0.07943246513605118
v -0.09659504890441895 -2.235173435227722e-10 -0.08270269632339478
v -0.09520723670721054 -2.235173435227722e-10 -0.07943246513605118
v -0.09520723670721054 -0.009999999776482582 -0.07943246513605118
v -0.09520723670721054 -2.235173435227722e-10 -0.07943246513605118
v -0.09276371449232101 -0.009999999776482582 -0.07685378193855286
v -0.09276371449232101 -0.009999999776482582 -0.07685378193855286
v -0.09520723670721054 -2.235173435227722e-10 -0.07943246513605118
v -0.09276371449232101 -2.235173435227722e-10 -0.07685378193855286
v -0.012191114015877247 -0.009999999776482582 0.0027616526931524277
v -0.012191114015877247 -2.2351742678949904e-10 0.0027616526931524277
v -0.013578927144408226 -0.009999999776482582 -0.0005085741286166012
v -0.013578927144408226 -0.009999999776482582 -0.0005085741286166012
v -0.012191114015877247 -2.2351742678949904e-10 0.0027616526931524277
v -0.013578927144408226 -2.2351742678949904e-10 -0.0005085741286166012
v -0.013578927144408226 -0.009999999776482582 -0.0005085741286166012
v -0.013578927144408226 -2.2351742678949904e-10 -0.0005085741286166012
v -0.016022447496652603 -0.009999999776482582 -0.0030872595962136984
v -0.016022447496652603 -0.009999999776482582 -0.0030872595962136984
v -0.013578927144408226 -2.2351742678949904e-10 -0.0005085741286166012
v -0.016022447496652603 -2.2351742678949904e-10 -0.0030872595962136984
v -0.10105390101671219 -0.009999999776482582 -0.06557225435972214
v -0.10105390101671219 -2.2351731576719658e-10 -0.06557225435972214
v -0.10424474626779556 -0.009999999776482582 -0.06713395565748215
v -0.10424474626779556 -0.009999999776482582 -0.06713395565748215
v -0.10105390101671219 -2.2351731576719658e-10 -0.06557225435972214
v -0.10424474626779556 -2.2351731576719658e-10 -0.06713395565748215
v -0.10424474626779556 -0.009999999776482582 -0.06713395565748215
v -0.10424474626779556 -2.2351731576719658e-10 -0.06713395565748215
v -0.10778021812438965 -0.009999999776482582 -0.06748158484697342
v -0.10778021812438965 -0.009999999776482582 -0.06748158484697342
v -0.10424474626779556 -2.2351731576719658e-10 -0.06713395565748215
v -0.10778021812438965 -2.2351731576719658e-10 -0.06748158484697342
usemtl material_EDEDED
f 1 2 3
f 4 5 6
f 7 8 9
f 10 11 12
f 13 14 15
f 16 17 18
f 19 20 21
f 22 23 24
f 25 26 27
f 28 29 30
f 31 32 33
f 34 35 36
f 37 38 39
f 40 41 42
f 43 44 45
f 46 47 48
f 49 50 51
f 52 53 54
f 55 56 57
f 58 59 60
f 61 62 63
f 64 65 66
f 67 68 69
f 70 71 72
f 73 74 75
f 76 77 78
f 79 80 81
f 82 83 84
f 85 86 87
f 88 89 90
f 91 92 93
f 94 95 96
f 97 98 99
f 100 101 102
f 103 104 105
f 106 107 108
f 109 110 111
f 112 113 114
f 115 116 117
f 118 119 120
f 121 122 123
f 124 125 126
f 127 128 129
f 130 131 132
f 133 134 135
f 136 137 138
f 139 140 141
f 142 143 144
f 145 146 147
f 148 149 150
f 151 152 153
f 154 155 156
f 157 158 159
f 160 161 162
f 163 164 165
f 166 167 168
f 169 170 171
f 172 173 174
f 175 176 177
f 178 179 180
f 181 182 183
f 184 185 186
f 187 188 189
f 190 191 192
f 193 194 195
f 196 197 198
f 199 200 201
f 202 203 204
f 205 206 207
f 208 209 210
f 211 212 213
f 214 215 216
f 217 218 219
f 220 221 222
f 223 224 225
f 226 227 228
f 229 230 231
f 232 233 234
f 235 236 237
f 238 239 240
f 241 242 243
f 244 245 246
f 247 248 249
f 250 251 252
f 253 254 255
f 256 257 258
f 259 260 261
f 262 263 264
f 265 266 267
f 268 269 270
f 271 272 273
f 274 275 276
f 277 278 279
f 280 281 282
f 283 284 285
f 286 287 288
f 289 290 291
f 292 293 294
f 295 296 297
f 298 299 300
f 301 302 303
f 304 305 306
f 307 308 309
f 310 311 312
f 313 314 315
f 316 317 318
f 319 320 321
f 322 323 324
f 325 326 327
f 328 329 330
f 331 332 333
f 334 335 336
f 337 338 339
f 340 341 342
f 343 344 345
f 346 347 348
f 349 350 351
f 352 353 354
f 355 356 357
f 358 359 360
f 361 362 363
f 364 365 366
f 367 368 369
f 370 371 372
f 373 374 375
f 376 377 378
f 379 380 381
f 382 383 384
f 385 386 387
f 388 389 390
f 391 392 393
f 394 395 396
f 397 398 399
f 400 401 402
f 403 404 405
f 406 407 408
f 409 410 411
f 412 413 414
f 415 416 417
f 418 419 420
f 421 422 423
f 424 425 426
f 427 428 429
f 430 431 432
f 433 434 435
f 436 437 438
f 439 440 441
f 442 443 444
f 445 446 447
f 448 449 450
f 451 452 453
f 454 455 456
f 457 458 459
f 460 461 462
f 463 464 465
f 466 467 468
f 469 470 471
f 472 473 474
f 475 476 477
f 478 479 480
f 481 482 483
f 484 485 486
f 487 488 489
f 490 491 492
f 493 494 495
f 496 497 498
f 499 500 501
f 502 503 504
f 505 506 507
f 508 509 510
f 511 512 513
f 514 515 516
f 517 518 519
f 520 521 522
f 523 524 525
f 526 527 528
f 529 530 531
f 532 533 534
f 535 536 537
f 538 539 540
f 541 542 543
f 544 545 546
f 547 548 549
f 550 551 552
f 553 554 555
f 556 557 558
f 559 560 561
f 562 563 564
f 565 566 567
f 568 569 570
f 571 572 573
f 574 575 576
f 577 578 579
f 580 581 582
f 583 584 585
f 586 587 588
f 589 590 591
f 592 593 594
f 595 596 597
f 598 599 600
f 601 602 603
f 604 605 606
f 607 608 609
f 610 611 612
f 613 614 615
f 616 617 618
f 619 620 621
f 622 623 624
f 625 626 627
f 628 629 630
f 631 632 633
f 634 635 636
f 637 638 639
f 640 641 642
f 643 644 645
f 646 647 648
f 649 650 651
f 652 653 654
f 655 656 657
f 658 659 660
f 661 662 663
f 664 665 666
f 667 668 669
f 670 671 672
f 673 674 675
f 676 677 678
f 679 680 681
f 682 683 684
f 685 686 687
f 688 689 690
f 691 692 693
f 694 695 696
f 697 698 699
f 700 701 702
f 703 704 705
f 706 707 708
f 709 710 711
f 712 713 714
f 715 716 717
f 718 719 720
f 721 722 723
f 724 725 726
f 727 728 729
f 730 731 732
f 733 734 735
f 736 737 738
f 739 740 741
f 742 743 744
f 745 746 747
f 748 749 750
f 751 752 753
f 754 755 756
f 757 758 759
f 760 761 762
f 763 764 765
f 766 767 768
f 769 770 771
f 772 773 774
f 775 776 777
f 778 779 780
f 781 782 783
f 784 785 786
f 787 788 789
f 790 791 792
f 793 794 795
f 796 797 798
f 799 800 801
f 802 803 804
f 805 806 807
f 808 809 810
f 811 812 813
f 814 815 816
f 817 818 819
f 820 821 822
f 823 824 825
f 826 827 828
f 829 830 831
f 832 833 834
f 835 836 837
f 838 839 840
f 841 842 843
f 844 845 846
f 847 848 849
f 850 851 852
f 853 854 855
f 856 857 858
f 859 860 861
f 862 863 864
f 865 866 867
f 868 869 870
f 871 872 873
f 874 875 876
f 877 878 879
f 880 881 882
f 883 884 885
f 886 887 888
f 889 890 891
f 892 893 894
f 895 896 897
f 898 899 900
f 901 902 903
f 904 905 906
f 907 908 909
f 910 911 912
f 913 914 915
f 916 917 918
f 919 920 921
f 922 923 924
f 925 926 927
f 928 929 930
f 931 932 933
f 934 935 936
f 937 938 939
f 940 941 942
f 943 944 945
f 946 947 948
f 949 950 951
f 952 953 954
f 955 956 957
f 958 959 960
f 961 962 963
f 964 965 966
f 967 968 969
f 970 971 972
f 973 974 975
f 976 977 978
f 979 980 981
f 982 983 984
f 985 986 987
f 988 989 990
f 991 992 993
f 994 995 996
f 997 998 999
f 1000 1001 1002
f 1003 1004 1005
f 1006 1007 1008
f 1009 1010 1011
f 1012 1013 1014
f 1015 1016 1017
f 1018 1019 1020
f 1021 1022 1023
f 1024 1025 1026
f 1027 1028 1029
f 1030 1031 1032
f 1033 1034 1035
f 1036 1037 1038
f 1039 1040 1041
f 1042 1043 1044
f 1045 1046 1047
f 1048 1049 1050
f 1051 1052 1053
f 1054 1055 1056
f 1057 1058 1059
f 1060 1061 1062
f 1063 1064 1065
f 1066 1067 1068
f 1069 1070 1071
f 1072 1073 1074
f 1075 1076 1077
f 1078 1079 1080
f 1081 1082 1083
f 1084 1085 1086
f 1087 1088 1089
f 1090 1091 1092
f 1093 1094 1095
f 1096 1097 1098
f 1099 1100 1101
f 1102 1103 1104
f 1105 1106 1107
f 1108 1109 1110
f 1111 1112 1113
f 1114 1115 1116
f 1117 1118 1119
f 1120 1121 1122
f 1123 1124 1125
f 1126 1127 1128
f 1129 1130 1131
f 1132 1133 1134
f 1135 1136 1137
f 1138 1139 1140
f 1141 1142 1143
f 1144 1145 1146
f 1147 1148 1149
f 1150 1151 1152
f 1153 1154 1155
f 1156 1157 1158
f 1159 1160 1161
f 1162 1163 1164
f 1165 1166 1167
f 1168 1169 1170
f 1171 1172 1173
f 1174 1175 1176
f 1177 1178 1179
f 1180 1181 1182
f 1183 1184 1185
f 1186 1187 1188
f 1189 1190 1191
f 1192 1193 1194
f 1195 1196 1197
f 1198 1199 1200
f 1201 1202 1203
f 1204 1205 1206
f 1207 1208 1209
f 1210 1211 1212
f 1213 1214 1215
f 1216 1217 1218
f 1219 1220 1221
f 1222 1223 1224
f 1225 1226 1227
f 1228 1229 1230
f 1231 1232 1233
f 1234 1235 1236
f 1237 1238 1239
f 1240 1241 1242
f 1243 1244 1245
f 1246 1247 1248
f 1249 1250 1251
f 1252 1253 1254
f 1255 1256 1257
f 1258 1259 1260
f 1261 1262 1263
f 1264 1265 1266
f 1267 1268 1269
f 1270 1271 1272
f 1273 1274 1275
f 1276 1277 1278
f 1279 1280 1281
f 1282 1283 1284
f 1285 1286 1287
f 1288 1289 1290
f 1291 1292 1293
f 1294 1295 1296
f 1297 1298 1299
f 1300 1301 1302
f 1303 1304 1305
f 1306 1307 1308
