mtllib wheelbipeV14_2_left_spring1_link_visuals_left_spring1_link_node_STL_BINARY__mesh.mtl
v -0.10739727318286896 -0.004059003200381994 0.011694005690515041
v -0.01130029745399952 -0.0055676898919045925 -0.0015161271439865232
v -0.10744599997997284 -0.0055676898919045925 0.011329269967973232
v -0.10744599997997284 -0.0055676898919045925 0.011329269967973232
v -0.01130029745399952 -0.0055676898919045925 -0.0015161271439865232
v -0.011242602951824665 -0.007058239076286554 -0.0010842978954315186
v -0.10744599997997284 -0.0055676898919045925 0.011329269967973232
v -0.011242602951824665 -0.007058239076286554 -0.0010842978954315186
v -0.10738831013441086 -0.007058239076286554 0.011761099100112915
v -0.10738831013441086 -0.007058239076286554 0.011761099100112915
v -0.011242602951824665 -0.007058239076286554 -0.0010842978954315186
v -0.011093944311141968 -0.008131260052323341 2.8388245482346974e-05
v -0.10738831013441086 -0.007058239076286554 0.011761099100112915
v -0.011093944311141968 -0.008131260052323341 2.8388245482346974e-05
v -0.10723964869976044 -0.008131260052323341 0.012873785570263863
v -0.10723964869976044 -0.008131260052323341 0.012873785570263863
v -0.011093944311141968 -0.008131260052323341 2.8388245482346974e-05
v -0.010894154198467731 -0.008499235846102238 0.0015237878542393446
v -0.10723964869976044 -0.008131260052323341 0.012873785570263863
v -0.010894154198467731 -0.008499235846102238 0.0015237878542393446
v -0.10703985393047333 -0.008499235846102238 0.014369185082614422
v -0.10703985393047333 -0.008499235846102238 0.014369185082614422
v -0.010894154198467731 -0.008499235846102238 0.0015237878542393446
v -0.010696765035390854 -0.00806356966495514 0.003001209581270814
v -0.10703985393047333 -0.008499235846102238 0.014369185082614422
v -0.010696765035390854 -0.00806356966495514 0.003001209581270814
v -0.10684246569871902 -0.00806356966495514 0.015846606343984604
v -0.10684246569871902 -0.00806356966495514 0.015846606343984604
v -0.010696765035390854 -0.00806356966495514 0.003001209581270814
v -0.010554668493568897 -0.006940997205674648 0.004064779728651047
v -0.10684246569871902 -0.00806356966495514 0.015846606343984604
v -0.010554668493568897 -0.006940997205674648 0.004064779728651047
v -0.10670037567615509 -0.006940997205674648 0.01691017672419548
v -0.10670037567615509 -0.006940997205674648 0.01691017672419548
v -0.010554668493568897 -0.006940997205674648 0.004064779728651047
v -0.010505938902497292 -0.005432310048490763 0.004429515451192856
v -0.10670037567615509 -0.006940997205674648 0.01691017672419548
v -0.010505938902497292 -0.005432310048490763 0.004429515451192856
v -0.10665164142847061 -0.005432310048490763 0.01727491244673729
v -0.10665164142847061 -0.005432310048490763 0.01727491244673729
v -0.010505938902497292 -0.005432310048490763 0.004429515451192856
v -0.010563632473349571 -0.003941760864108801 0.003997685853391886
v -0.10665164142847061 -0.005432310048490763 0.01727491244673729
v -0.010563632473349571 -0.003941760864108801 0.003997685853391886
v -0.10670933872461319 -0.003941760864108801 0.016843082383275032
v -0.10670933872461319 -0.003941760864108801 0.016843082383275032
v -0.010563632473349571 -0.003941760864108801 0.003997685853391886
v -0.010712291114032269 -0.002868740353733301 0.0028849998489022255
v -0.10670933872461319 -0.003941760864108801 0.016843082383275032
v -0.010712291114032269 -0.002868740353733301 0.0028849998489022255
v -0.10685799270868301 -0.002868740353733301 0.015730397775769234
v -0.10685799270868301 -0.002868740353733301 0.015730397775769234
v -0.010712291114032269 -0.002868740353733301 0.0028849998489022255
v -0.01091208215802908 -0.002500763861462474 0.0013896003365516663
v -0.10685799270868301 -0.002868740353733301 0.015730397775769234
v -0.01091208215802908 -0.002500763861462474 0.0013896003365516663
v -0.10705778747797012 -0.002500763861462474 0.0142349973320961
v -0.10705778747797012 -0.002500763861462474 0.0142349973320961
v -0.01091208215802908 -0.002500763861462474 0.0013896003365516663
v -0.011109470389783382 -0.002936430275440216 -8.782133227214217e-05
v -0.10705778747797012 -0.002500763861462474 0.0142349973320961
v -0.011109470389783382 -0.002936430275440216 -8.782133227214217e-05
v -0.10725517570972443 -0.002936430275440216 0.012757576070725918
v -0.10725517570972443 -0.002936430275440216 0.012757576070725918
v -0.011109470389783382 -0.002936430275440216 -8.782133227214217e-05
v -0.011251566931605339 -0.004059003200381994 -0.001151391537860036
v -0.10725517570972443 -0.002936430275440216 0.012757576070725918
v -0.011251566931605339 -0.004059003200381994 -0.001151391537860036
v -0.10739727318286896 -0.004059003200381994 0.011694005690515041
v -0.10739727318286896 -0.004059003200381994 0.011694005690515041
v -0.011251566931605339 -0.004059003200381994 -0.001151391537860036
v -0.01130029745399952 -0.0055676898919045925 -0.0015161271439865232
v -0.010563632473349571 -0.003941760864108801 0.003997685853391886
v -0.010505938902497292 -0.005432310048490763 0.004429515451192856
v -0.010903118178248405 -0.005499999970197678 0.0014566940953955054
v -0.010903118178248405 -0.005499999970197678 0.0014566940953955054
v -0.010505938902497292 -0.005432310048490763 0.004429515451192856
v -0.010554668493568897 -0.006940997205674648 0.004064779728651047
v -0.010903118178248405 -0.005499999970197678 0.0014566940953955054
v -0.010554668493568897 -0.006940997205674648 0.004064779728651047
v -0.010696765035390854 -0.00806356966495514 0.003001209581270814
v -0.011109470389783382 -0.002936430275440216 -8.782133227214217e-05
v -0.01091208215802908 -0.002500763861462474 0.0013896003365516663
v -0.010903118178248405 -0.005499999970197678 0.0014566940953955054
v -0.010903118178248405 -0.005499999970197678 0.0014566940953955054
v -0.01091208215802908 -0.002500763861462474 0.0013896003365516663
v -0.010712291114032269 -0.002868740353733301 0.0028849998489022255
v -0.010903118178248405 -0.005499999970197678 0.0014566940953955054
v -0.010712291114032269 -0.002868740353733301 0.0028849998489022255
v -0.010563632473349571 -0.003941760864108801 0.003997685853391886
v -0.011242602951824665 -0.007058239076286554 -0.0010842978954315186
v -0.01130029745399952 -0.0055676898919045925 -0.0015161271439865232
v -0.010903118178248405 -0.005499999970197678 0.0014566940953955054
v -0.010903118178248405 -0.005499999970197678 0.0014566940953955054
v -0.01130029745399952 -0.0055676898919045925 -0.0015161271439865232
v -0.011251566931605339 -0.004059003200381994 -0.001151391537860036
v -0.010903118178248405 -0.005499999970197678 0.0014566940953955054
v -0.011251566931605339 -0.004059003200381994 -0.001151391537860036
v -0.011109470389783382 -0.002936430275440216 -8.782133227214217e-05
v -0.010696765035390854 -0.00806356966495514 0.003001209581270814
v -0.010894154198467731 -0.008499235846102238 0.0015237878542393446
v -0.010903118178248405 -0.005499999970197678 0.0014566940953955054
v -0.010903118178248405 -0.005499999970197678 0.0014566940953955054
v -0.010894154198467731 -0.008499235846102238 0.0015237878542393446
v -0.011093944311141968 -0.008131260052323341 2.8388245482346974e-05
v -0.010903118178248405 -0.005499999970197678 0.0014566940953955054
v -0.011093944311141968 -0.008131260052323341 2.8388245482346974e-05
v -0.011242602951824665 -0.007058239076286554 -0.0010842978954315186
v -0.10703985393047333 -0.008499235846102238 0.014369185082614422
v -0.10684246569871902 -0.00806356966495514 0.015846606343984604
v -0.10704882442951202 -0.005499999970197678 0.014302091673016548
v -0.10704882442951202 -0.005499999970197678 0.014302091673016548
v -0.10684246569871902 -0.00806356966495514 0.015846606343984604
v -0.10670037567615509 -0.006940997205674648 0.01691017672419548
v -0.10704882442951202 -0.005499999970197678 0.014302091673016548
v -0.10670037567615509 -0.006940997205674648 0.01691017672419548
v -0.10665164142847061 -0.005432310048490763 0.01727491244673729
v -0.10744599997997284 -0.0055676898919045925 0.011329269967973232
v -0.10738831013441086 -0.007058239076286554 0.011761099100112915
v -0.10704882442951202 -0.005499999970197678 0.014302091673016548
v -0.10704882442951202 -0.005499999970197678 0.014302091673016548
v -0.10738831013441086 -0.007058239076286554 0.011761099100112915
v -0.10723964869976044 -0.008131260052323341 0.012873785570263863
v -0.10704882442951202 -0.005499999970197678 0.014302091673016548
v -0.10723964869976044 -0.008131260052323341 0.012873785570263863
v -0.10703985393047333 -0.008499235846102238 0.014369185082614422
v -0.10705778747797012 -0.002500763861462474 0.0142349973320961
v -0.10725517570972443 -0.002936430275440216 0.012757576070725918
v -0.10704882442951202 -0.005499999970197678 0.014302091673016548
v -0.10704882442951202 -0.005499999970197678 0.014302091673016548
v -0.10725517570972443 -0.002936430275440216 0.012757576070725918
v -0.10739727318286896 -0.004059003200381994 0.011694005690515041
v -0.10704882442951202 -0.005499999970197678 0.014302091673016548
v -0.10739727318286896 -0.004059003200381994 0.011694005690515041
v -0.10744599997997284 -0.0055676898919045925 0.011329269967973232
v -0.10665164142847061 -0.005432310048490763 0.01727491244673729
v -0.10670933872461319 -0.003941760864108801 0.016843082383275032
v -0.10704882442951202 -0.005499999970197678 0.014302091673016548
v -0.10704882442951202 -0.005499999970197678 0.014302091673016548
v -0.10670933872461319 -0.003941760864108801 0.016843082383275032
v -0.10685799270868301 -0.002868740353733301 0.015730397775769234
v -0.10704882442951202 -0.005499999970197678 0.014302091673016548
v -0.10685799270868301 -0.002868740353733301 0.015730397775769234
v -0.10705778747797012 -0.002500763861462474 0.0142349973320961
v 0.0009932003449648619 -1.9371496073894434e-10 0.007433945778757334
v 0.0009932003449648619 -0.005499999970197678 0.007433945778757334
v 0.0025171006564050913 -0.005499999970197678 0.0070649986155331135
v 0.0009932003449648619 -1.9371496073894434e-10 0.007433945778757334
v 0.0025171006564050913 -0.005499999970197678 0.0070649986155331135
v 0.0025171006564050913 -1.9371496073894434e-10 0.0070649986155331135
v 0.0025171006564050913 -1.9371496073894434e-10 0.0070649986155331135
v 0.0025171006564050913 -0.005499999970197678 0.0070649986155331135
v 0.003930991515517235 -0.005499999970197678 0.006387276109308004
v 0.0025171006564050913 -1.9371496073894434e-10 0.0070649986155331135
v 0.003930991515517235 -0.005499999970197678 0.006387276109308004
v 0.003930991515517235 -1.9371496073894434e-10 0.006387276109308004
v 0.003930991515517235 -1.9371496073894434e-10 0.006387276109308004
v 0.003930991515517235 -0.005499999970197678 0.006387276109308004
v 0.005173079669475555 -0.005499999970197678 0.005430399905890226
v 0.003930991515517235 -1.9371496073894434e-10 0.006387276109308004
v 0.005173079669475555 -0.005499999970197678 0.005430399905890226
v 0.005173079669475555 -1.9371496073894434e-10 0.005430399905890226
v 0.005173079669475555 -1.9371496073894434e-10 0.005430399905890226
v 0.005173079669475555 -0.005499999970197678 0.005430399905890226
v 0.00618908042088151 -0.005499999970197678 0.004236188717186451
v 0.005173079669475555 -1.9371496073894434e-10 0.005430399905890226
v 0.00618908042088151 -0.005499999970197678 0.004236188717186451
v 0.00618908042088151 -1.9371496073894434e-10 0.004236188717186451
v 0.00618908042088151 -1.9371496073894434e-10 0.004236188717186451
v 0.00618908042088151 -0.005499999970197678 0.004236188717186451
v 0.006934586446732283 -0.005499999970197678 0.002856835722923279
v 0.00618908042088151 -1.9371496073894434e-10 0.004236188717186451
v 0.006934586446732283 -0.005499999970197678 0.002856835722923279
v 0.006934586446732283 -1.9371496073894434e-10 0.002856835722923279
v 0.006934586446732283 -1.9371496073894434e-10 0.002856835722923279
v 0.006934586446732283 -0.005499999970197678 0.002856835722923279
v 0.007377019617706537 -0.005499999970197678 0.0013526254333555698
v 0.006934586446732283 -1.9371496073894434e-10 0.002856835722923279
v 0.007377019617706537 -0.005499999970197678 0.0013526254333555698
v 0.007377019617706537 -1.9371496073894434e-10 0.0013526254333555698
v 0.007377019617706537 -1.9371496073894434e-10 0.0013526254333555698
v 0.007377019617706537 -0.005499999970197678 0.0013526254333555698
v 0.007497039157897234 -0.005499999970197678 -0.00021070089132990688
v 0.007377019617706537 -1.9371496073894434e-10 0.0013526254333555698
v 0.007497039157897234 -0.005499999970197678 -0.00021070089132990688
v 0.007497039157897234 -1.9371496073894434e-10 -0.00021070089132990688
v 0.007497039157897234 -1.9371496073894434e-10 -0.00021070089132990688
v 0.007497039157897234 -0.005499999970197678 -0.00021070089132990688
v 0.007289403583854437 -0.005499999970197678 -0.0017648187931627035
v 0.007497039157897234 -1.9371496073894434e-10 -0.00021070089132990688
v 0.007289403583854437 -0.005499999970197678 -0.0017648187931627035
v 0.007289403583854437 -1.9371496073894434e-10 -0.0017648187931627035
v 0.007289403583854437 -1.9371496073894434e-10 -0.0017648187931627035
v 0.007289403583854437 -0.005499999970197678 -0.0017648187931627035
v 0.006763187702745199 -0.005499999970197678 -0.003241805825382471
v 0.007289403583854437 -1.9371496073894434e-10 -0.0017648187931627035
v 0.006763187702745199 -0.005499999970197678 -0.003241805825382471
v 0.006763187702745199 -1.9371496073894434e-10 -0.003241805825382471
v 0.006763187702745199 -1.9371496073894434e-10 -0.003241805825382471
v 0.006763187702745199 -0.005499999970197678 -0.003241805825382471
v 0.00594138540327549 -0.005499999970197678 -0.004577110055834055
v 0.006763187702745199 -1.9371496073894434e-10 -0.003241805825382471
v 0.00594138540327549 -0.005499999970197678 -0.004577110055834055
v 0.00594138540327549 -1.9371496073894434e-10 -0.004577110055834055
v 0.00594138540327549 -1.9371496073894434e-10 -0.004577110055834055
v 0.00594138540327549 -0.005499999970197678 -0.004577110055834055
v 0.004859918262809515 -0.005499999970197678 -0.005712373182177544
v 0.00594138540327549 -1.9371496073894434e-10 -0.004577110055834055
v 0.004859918262809515 -0.005499999970197678 -0.005712373182177544
v 0.004859918262809515 -1.9371496073894434e-10 -0.005712373182177544
v 0.004859918262809515 -1.9371496073894434e-10 -0.005712373182177544
v 0.004859918262809515 -0.005499999970197678 -0.005712373182177544
v 0.003566046943888068 -0.005499999970197678 -0.006597977597266436
v 0.004859918262809515 -1.9371496073894434e-10 -0.005712373182177544
v 0.003566046943888068 -0.005499999970197678 -0.006597977597266436
v 0.003566046943888068 -1.9371496073894434e-10 -0.006597977597266436
v 0.003566046943888068 -1.9371496073894434e-10 -0.006597977597266436
v 0.003566046943888068 -0.005499999970197678 -0.006597977597266436
v 0.002116323681548238 -0.005499999970197678 -0.007195218466222286
v 0.003566046943888068 -1.9371496073894434e-10 -0.006597977597266436
v 0.002116323681548238 -0.005499999970197678 -0.007195218466222286
v 0.002116323681548238 -1.9371496073894434e-10 -0.007195218466222286
v 0.002116323681548238 -1.9371496073894434e-10 -0.007195218466222286
v 0.002116323681548238 -0.005499999970197678 -0.007195218466222286
v 0.0005741067579947412 -0.005499999970197678 -0.007477994542568922
v 0.002116323681548238 -1.9371496073894434e-10 -0.007195218466222286
v 0.0005741067579947412 -0.005499999970197678 -0.007477994542568922
v 0.0005741067579947412 -1.9371496073894434e-10 -0.007477994542568922
v 0.0005741067579947412 -1.9371496073894434e-10 -0.007477994542568922
v 0.0005741067579947412 -0.005499999970197678 -0.007477994542568922
v -0.0009932011598721147 -0.005499999970197678 -0.007433945778757334
v 0.0005741067579947412 -1.9371496073894434e-10 -0.007477994542568922
v -0.0009932011598721147 -0.005499999970197678 -0.007433945778757334
v -0.0009932011598721147 -1.9371496073894434e-10 -0.007433945778757334
v 0.0010836331639438868 -1.9371496073894434e-10 -0.0028510065749287605
v 9.919978765537962e-05 -1.9371496073894434e-10 -0.003048386424779892
v 9.919978765537962e-05 -0.005499999970197678 -0.003048386424779892
v 9.919978765537962e-05 -0.005499999970197678 -0.003048386424779892
v 9.919978765537962e-05 -1.9371496073894434e-10 -0.003048386424779892
v -0.00040390208596363664 -1.9371496073894434e-10 -0.003023137804120779
v 9.919978765537962e-05 -0.005499999970197678 -0.003048386424779892
v -0.00040390208596363664 -1.9371496073894434e-10 -0.003023137804120779
v -0.0008959847618825734 -0.005499999970197678 -0.002915426390245557
v -0.0008959847618825734 -0.005499999970197678 -0.002915426390245557
v -0.00040390208596363664 -1.9371496073894434e-10 -0.003023137804120779
v -0.0008959847618825734 -1.9371496073894434e-10 -0.002915426390245557
v -0.0008959847618825734 -0.005499999970197678 -0.002915426390245557
v -0.0008959847618825734 -1.9371496073894434e-10 -0.002915426390245557
v -0.0017940759425982833 -0.005499999970197678 -0.0024665347300469875
v -0.0017940759425982833 -0.005499999970197678 -0.0024665347300469875
v -0.0008959847618825734 -1.9371496073894434e-10 -0.002915426390245557
v -0.0017940759425982833 -1.9371496073894434e-10 -0.0024665347300469875
v -0.0017940759425982833 -0.005499999970197678 -0.0024665347300469875
v -0.0017940759425982833 -1.9371496073894434e-10 -0.0024665347300469875
v -0.0024977491702884436 -0.005499999970197678 -0.0017503557028248906
v -0.0024977491702884436 -0.005499999970197678 -0.0017503557028248906
v -0.0017940759425982833 -1.9371496073894434e-10 -0.0024665347300469875
v -0.0024977491702884436 -1.9371496073894434e-10 -0.0017503557028248906
v -0.0024977491702884436 -0.005499999970197678 -0.0017503557028248906
v -0.0024977491702884436 -1.9371496073894434e-10 -0.0017503557028248906
v -0.0029307554941624403 -0.005499999970197678 -0.0008444982231594622
v -0.0029307554941624403 -0.005499999970197678 -0.0008444982231594622
v -0.0024977491702884436 -1.9371496073894434e-10 -0.0017503557028248906
v -0.0029307554941624403 -1.9371496073894434e-10 -0.0008444982231594622
v -0.0029307554941624403 -0.005499999970197678 -0.0008444982231594622
v -0.0029307554941624403 -1.9371496073894434e-10 -0.0008444982231594622
v -0.003046165918931365 -0.005499999970197678 0.00015287329733837396
v -0.003046165918931365 -0.005499999970197678 0.00015287329733837396
v -0.0029307554941624403 -1.9371496073894434e-10 -0.0008444982231594622
v -0.003046165918931365 -1.9371496073894434e-10 0.00015287329733837396
v -0.003046165918931365 -0.005499999970197678 0.00015287329733837396
v -0.003046165918931365 -1.9371496073894434e-10 0.00015287329733837396
v -0.002831478137522936 -0.005499999970197678 0.001133678830228746
v -0.002831478137522936 -0.005499999970197678 0.001133678830228746
v -0.003046165918931365 -1.9371496073894434e-10 0.00015287329733837396
v -0.002831478137522936 -1.9371496073894434e-10 0.001133678830228746
v -0.002831478137522936 -0.005499999970197678 0.001133678830228746
v -0.002831478137522936 -1.9371496073894434e-10 0.001133678830228746
v -0.00230995612218976 -0.005499999970197678 0.00199163262732327
v -0.00230995612218976 -0.005499999970197678 0.00199163262732327
v -0.002831478137522936 -1.9371496073894434e-10 0.001133678830228746
v -0.00230995612218976 -1.9371496073894434e-10 0.00199163262732327
v -0.00230995612218976 -0.005499999970197678 0.00199163262732327
v -0.00230995612218976 -1.9371496073894434e-10 0.00199163262732327
v -0.0015381142729893327 -0.005499999970197678 0.002633762313053012
v -0.0015381142729893327 -0.005499999970197678 0.002633762313053012
v -0.00230995612218976 -1.9371496073894434e-10 0.00199163262732327
v -0.0015381142729893327 -1.9371496073894434e-10 0.002633762313053012
v -0.0015381142729893327 -0.005499999970197678 0.002633762313053012
v -0.0015381142729893327 -1.9371496073894434e-10 0.002633762313053012
v -0.000599594262894243 -0.005499999970197678 0.002990482607856393
v -0.000599594262894243 -0.005499999970197678 0.002990482607856393
v -0.0015381142729893327 -1.9371496073894434e-10 0.002633762313053012
v -0.000599594262894243 -1.9371496073894434e-10 0.002990482607856393
v -0.000599594262894243 -0.005499999970197678 0.002990482607856393
v -0.000599594262894243 -1.9371496073894434e-10 0.002990482607856393
v 0.00040390121284872293 -0.005499999970197678 0.0030231380369514227
v 0.00040390121284872293 -0.005499999970197678 0.0030231380369514227
v -0.000599594262894243 -1.9371496073894434e-10 0.002990482607856393
v 0.00040390121284872293 -1.9371496073894434e-10 0.0030231380369514227
v 0.00040390121284872293 -0.005499999970197678 0.0030231380369514227
v 0.00040390121284872293 -1.9371496073894434e-10 0.0030231380369514227
v 0.0013636276125907898 -0.005499999970197678 0.0027281895745545626
v 0.0013636276125907898 -0.005499999970197678 0.0027281895745545626
v 0.00040390121284872293 -1.9371496073894434e-10 0.0030231380369514227
v 0.0013636276125907898 -1.9371496073894434e-10 0.0027281895745545626
v 0.0013636276125907898 -0.005499999970197678 0.0027281895745545626
v 0.0013636276125907898 -1.9371496073894434e-10 0.0027281895745545626
v 0.00217558559961617 -0.005499999970197678 0.0021375990472733974
v 0.00217558559961617 -0.005499999970197678 0.0021375990472733974
v 0.0013636276125907898 -1.9371496073894434e-10 0.0027281895745545626
v 0.00217558559961617 -1.9371496073894434e-10 0.0021375990472733974
v 0.00217558559961617 -0.005499999970197678 0.0021375990472733974
v 0.00217558559961617 -1.9371496073894434e-10 0.0021375990472733974
v 0.0027517834678292274 -0.005499999970197678 0.0013153667096048594
v 0.0027517834678292274 -0.005499999970197678 0.0013153667096048594
v 0.00217558559961617 -1.9371496073894434e-10 0.0021375990472733974
v 0.0027517834678292274 -1.9371496073894434e-10 0.0013153667096048594
v 0.0027517834678292274 -0.005499999970197678 0.0013153667096048594
v 0.0027517834678292274 -1.9371496073894434e-10 0.0013153667096048594
v 0.003029783256351948 -0.005499999970197678 0.0003505940840113908
v 0.003029783256351948 -0.005499999970197678 0.0003505940840113908
v 0.0027517834678292274 -1.9371496073894434e-10 0.0013153667096048594
v 0.003029783256351948 -1.9371496073894434e-10 0.0003505940840113908
v 0.003029783256351948 -0.005499999970197678 0.0003505940840113908
v 0.003029783256351948 -1.9371496073894434e-10 0.0003505940840113908
v 0.0029794590082019567 -0.005499999970197678 -0.0006521709146909416
v 0.0029794590082019567 -0.005499999970197678 -0.0006521709146909416
v 0.003029783256351948 -1.9371496073894434e-10 0.0003505940840113908
v 0.0029794590082019567 -1.9371496073894434e-10 -0.0006521709146909416
v 0.0029794590082019567 -0.005499999970197678 -0.0006521709146909416
v 0.0029794590082019567 -1.9371496073894434e-10 -0.0006521709146909416
v 0.002606263617053628 -0.005499999970197678 -0.001584263052791357
v 0.002606263617053628 -0.005499999970197678 -0.001584263052791357
v 0.0029794590082019567 -1.9371496073894434e-10 -0.0006521709146909416
v 0.002606263617053628 -1.9371496073894434e-10 -0.001584263052791357
v 0.002606263617053628 -0.005499999970197678 -0.001584263052791357
v 0.002606263617053628 -1.9371496073894434e-10 -0.001584263052791357
v 0.0019506397657096386 -0.005499999970197678 -0.0023446758277714252
v 0.0019506397657096386 -0.005499999970197678 -0.0023446758277714252
v 0.002606263617053628 -1.9371496073894434e-10 -0.001584263052791357
v 0.0019506397657096386 -1.9371496073894434e-10 -0.0023446758277714252
v 0.0019506397657096386 -0.005499999970197678 -0.0023446758277714252
v 0.0019506397657096386 -1.9371496073894434e-10 -0.0023446758277714252
v 0.0010836331639438868 -0.005499999970197678 -0.0028510065749287605
v 0.0010836331639438868 -0.005499999970197678 -0.0028510065749287605
v 0.0019506397657096386 -1.9371496073894434e-10 -0.0023446758277714252
v 0.0010836331639438868 -1.9371496073894434e-10 -0.0028510065749287605
v 0.0010836331639438868 -0.005499999970197678 -0.0028510065749287605
v 0.0010836331639438868 -1.9371496073894434e-10 -0.0028510065749287605
v 9.919978765537962e-05 -0.005499999970197678 -0.003048386424779892
v -0.010905128903687 -0.009999999776482582 -0.006109678186476231
v -0.026764214038848877 -0.009999999776482582 -0.003990849945694208
v -0.010905128903687 -0.005499999970197678 -0.006109678186476231
v -0.010905128903687 -0.005499999970197678 -0.006109678186476231
v -0.026764214038848877 -0.009999999776482582 -0.003990849945694208
v -0.026764214038848877 -1.9371496073894434e-10 -0.003990849945694208
v -0.010905128903687 -0.005499999970197678 -0.006109678186476231
v -0.026764214038848877 -1.9371496073894434e-10 -0.003990849945694208
v -0.0009932011598721147 -0.005499999970197678 -0.007433945778757334
v -0.0009932011598721147 -0.005499999970197678 -0.007433945778757334
v -0.026764214038848877 -1.9371496073894434e-10 -0.003990849945694208
v -0.0009932011598721147 -1.9371496073894434e-10 -0.007433945778757334
v 0.0009932003449648619 -0.005499999970197678 0.007433945778757334
v 0.0009932003449648619 -1.9371496073894434e-10 0.007433945778757334
v -0.00891872774809599 -0.005499999970197678 0.008758213371038437
v -0.00891872774809599 -0.005499999970197678 0.008758213371038437
v 0.0009932003449648619 -1.9371496073894434e-10 0.007433945778757334
v -0.024777811020612717 -1.9371496073894434e-10 0.010877042077481747
v -0.00891872774809599 -0.005499999970197678 0.008758213371038437
v -0.024777811020612717 -1.9371496073894434e-10 0.010877042077481747
v -0.00891872774809599 -0.009999999776482582 0.008758213371038437
v -0.00891872774809599 -0.009999999776482582 0.008758213371038437
v -0.024777811020612717 -1.9371496073894434e-10 0.010877042077481747
v -0.024777811020612717 -0.009999999776482582 0.010877042077481747
v 0.0019506397657096386 -1.9371496073894434e-10 -0.0023446758277714252
v 0.002606263617053628 -1.9371496073894434e-10 -0.001584263052791357
v 0.00594138540327549 -1.9371496073894434e-10 -0.004577110055834055
v -0.0017940759425982833 -1.9371496073894434e-10 -0.0024665347300469875
v -0.0009932011598721147 -1.9371496073894434e-10 -0.007433945778757334
v -0.0024977491702884436 -1.9371496073894434e-10 -0.0017503557028248906
v -0.0024977491702884436 -1.9371496073894434e-10 -0.0017503557028248906
v -0.0009932011598721147 -1.9371496073894434e-10 -0.007433945778757334
v -0.026764214038848877 -1.9371496073894434e-10 -0.003990849945694208
v -0.0024977491702884436 -1.9371496073894434e-10 -0.0017503557028248906
v -0.026764214038848877 -1.9371496073894434e-10 -0.003990849945694208
v -0.0029307554941624403 -1.9371496073894434e-10 -0.0008444982231594622
v 0.00594138540327549 -1.9371496073894434e-10 -0.004577110055834055
v 0.004859918262809515 -1.9371496073894434e-10 -0.005712373182177544
v 0.0019506397657096386 -1.9371496073894434e-10 -0.0023446758277714252
v 0.0019506397657096386 -1.9371496073894434e-10 -0.0023446758277714252
v 0.004859918262809515 -1.9371496073894434e-10 -0.005712373182177544
v 0.003566046943888068 -1.9371496073894434e-10 -0.006597977597266436
v 0.0019506397657096386 -1.9371496073894434e-10 -0.0023446758277714252
v 0.003566046943888068 -1.9371496073894434e-10 -0.006597977597266436
v 0.0010836331639438868 -1.9371496073894434e-10 -0.0028510065749287605
v 0.0010836331639438868 -1.9371496073894434e-10 -0.0028510065749287605
v 0.003566046943888068 -1.9371496073894434e-10 -0.006597977597266436
v 0.002116323681548238 -1.9371496073894434e-10 -0.007195218466222286
v 0.0010836331639438868 -1.9371496073894434e-10 -0.0028510065749287605
v 0.002116323681548238 -1.9371496073894434e-10 -0.007195218466222286
v 9.919978765537962e-05 -1.9371496073894434e-10 -0.003048386424779892
v 9.919978765537962e-05 -1.9371496073894434e-10 -0.003048386424779892
v 0.002116323681548238 -1.9371496073894434e-10 -0.007195218466222286
v 0.0005741067579947412 -1.9371496073894434e-10 -0.007477994542568922
v 9.919978765537962e-05 -1.9371496073894434e-10 -0.003048386424779892
v 0.0005741067579947412 -1.9371496073894434e-10 -0.007477994542568922
v -0.00040390208596363664 -1.9371496073894434e-10 -0.003023137804120779
v -0.00040390208596363664 -1.9371496073894434e-10 -0.003023137804120779
v 0.0005741067579947412 -1.9371496073894434e-10 -0.007477994542568922
v -0.0009932011598721147 -1.9371496073894434e-10 -0.007433945778757334
v -0.00040390208596363664 -1.9371496073894434e-10 -0.003023137804120779
v -0.0009932011598721147 -1.9371496073894434e-10 -0.007433945778757334
v -0.0008959847618825734 -1.9371496073894434e-10 -0.002915426390245557
v -0.0008959847618825734 -1.9371496073894434e-10 -0.002915426390245557
v -0.0009932011598721147 -1.9371496073894434e-10 -0.007433945778757334
v -0.0017940759425982833 -1.9371496073894434e-10 -0.0024665347300469875
v 0.00217558559961617 -1.9371496073894434e-10 0.0021375990472733974
v 0.00618908042088151 -1.9371496073894434e-10 0.004236188717186451
v 0.0027517834678292274 -1.9371496073894434e-10 0.0013153667096048594
v 0.0027517834678292274 -1.9371496073894434e-10 0.0013153667096048594
v 0.00618908042088151 -1.9371496073894434e-10 0.004236188717186451
v 0.006934586446732283 -1.9371496073894434e-10 0.002856835722923279
v 0.0027517834678292274 -1.9371496073894434e-10 0.0013153667096048594
v 0.006934586446732283 -1.9371496073894434e-10 0.002856835722923279
v 0.003029783256351948 -1.9371496073894434e-10 0.0003505940840113908
v 0.006934586446732283 -1.9371496073894434e-10 0.002856835722923279
v 0.007377019617706537 -1.9371496073894434e-10 0.0013526254333555698
v 0.003029783256351948 -1.9371496073894434e-10 0.0003505940840113908
v 0.003029783256351948 -1.9371496073894434e-10 0.0003505940840113908
v 0.007377019617706537 -1.9371496073894434e-10 0.0013526254333555698
v 0.007497039157897234 -1.9371496073894434e-10 -0.00021070089132990688
v 0.003029783256351948 -1.9371496073894434e-10 0.0003505940840113908
v 0.007497039157897234 -1.9371496073894434e-10 -0.00021070089132990688
v 0.0029794590082019567 -1.9371496073894434e-10 -0.0006521709146909416
v 0.0029794590082019567 -1.9371496073894434e-10 -0.0006521709146909416
v 0.007497039157897234 -1.9371496073894434e-10 -0.00021070089132990688
v 0.007289403583854437 -1.9371496073894434e-10 -0.0017648187931627035
v 0.0029794590082019567 -1.9371496073894434e-10 -0.0006521709146909416
v 0.007289403583854437 -1.9371496073894434e-10 -0.0017648187931627035
v 0.002606263617053628 -1.9371496073894434e-10 -0.001584263052791357
v 0.002606263617053628 -1.9371496073894434e-10 -0.001584263052791357
v 0.007289403583854437 -1.9371496073894434e-10 -0.0017648187931627035
v 0.006763187702745199 -1.9371496073894434e-10 -0.003241805825382471
v 0.002606263617053628 -1.9371496073894434e-10 -0.001584263052791357
v 0.006763187702745199 -1.9371496073894434e-10 -0.003241805825382471
v 0.00594138540327549 -1.9371496073894434e-10 -0.004577110055834055
v -0.0015381142729893327 -1.9371496073894434e-10 0.002633762313053012
v -0.024777811020612717 -1.9371496073894434e-10 0.010877042077481747
v -0.000599594262894243 -1.9371496073894434e-10 0.002990482607856393
v -0.000599594262894243 -1.9371496073894434e-10 0.002990482607856393
v -0.024777811020612717 -1.9371496073894434e-10 0.010877042077481747
v 0.0009932003449648619 -1.9371496073894434e-10 0.007433945778757334
v -0.000599594262894243 -1.9371496073894434e-10 0.002990482607856393
v 0.0009932003449648619 -1.9371496073894434e-10 0.007433945778757334
v 0.00040390121284872293 -1.9371496073894434e-10 0.0030231380369514227
v 0.00040390121284872293 -1.9371496073894434e-10 0.0030231380369514227
v 0.0009932003449648619 -1.9371496073894434e-10 0.007433945778757334
v 0.0025171006564050913 -1.9371496073894434e-10 0.0070649986155331135
v 0.00040390121284872293 -1.9371496073894434e-10 0.0030231380369514227
v 0.0025171006564050913 -1.9371496073894434e-10 0.0070649986155331135
v 0.0013636276125907898 -1.9371496073894434e-10 0.0027281895745545626
v 0.0013636276125907898 -1.9371496073894434e-10 0.0027281895745545626
v 0.0025171006564050913 -1.9371496073894434e-10 0.0070649986155331135
v 0.003930991515517235 -1.9371496073894434e-10 0.006387276109308004
v 0.0013636276125907898 -1.9371496073894434e-10 0.0027281895745545626
v 0.003930991515517235 -1.9371496073894434e-10 0.006387276109308004
v 0.00217558559961617 -1.9371496073894434e-10 0.0021375990472733974
v 0.00217558559961617 -1.9371496073894434e-10 0.0021375990472733974
v 0.003930991515517235 -1.9371496073894434e-10 0.006387276109308004
v 0.005173079669475555 -1.9371496073894434e-10 0.005430399905890226
v 0.00217558559961617 -1.9371496073894434e-10 0.0021375990472733974
v 0.005173079669475555 -1.9371496073894434e-10 0.005430399905890226
v 0.00618908042088151 -1.9371496073894434e-10 0.004236188717186451
v -0.0015381142729893327 -1.9371496073894434e-10 0.002633762313053012
v -0.00230995612218976 -1.9371496073894434e-10 0.00199163262732327
v -0.024777811020612717 -1.9371496073894434e-10 0.010877042077481747
v -0.024777811020612717 -1.9371496073894434e-10 0.010877042077481747
v -0.00230995612218976 -1.9371496073894434e-10 0.00199163262732327
v -0.002831478137522936 -1.9371496073894434e-10 0.001133678830228746
v -0.024777811020612717 -1.9371496073894434e-10 0.010877042077481747
v -0.002831478137522936 -1.9371496073894434e-10 0.001133678830228746
v -0.026764214038848877 -1.9371496073894434e-10 -0.003990849945694208
v -0.026764214038848877 -1.9371496073894434e-10 -0.003990849945694208
v -0.002831478137522936 -1.9371496073894434e-10 0.001133678830228746
v -0.003046165918931365 -1.9371496073894434e-10 0.00015287329733837396
v -0.026764214038848877 -1.9371496073894434e-10 -0.003990849945694208
v -0.003046165918931365 -1.9371496073894434e-10 0.00015287329733837396
v -0.0029307554941624403 -1.9371496073894434e-10 -0.0008444982231594622
v -0.010772702284157276 -0.010999999940395355 -0.005118485540151596
v -0.009051154367625713 -0.010999999940395355 0.00776702119037509
v -0.026631787419319153 -0.010999999940395355 -0.0029996572993695736
v -0.026631787419319153 -0.010999999940395355 -0.0029996572993695736
v -0.009051154367625713 -0.010999999940395355 0.00776702119037509
v -0.02491023950278759 -0.010999999940395355 0.009885849431157112
v -0.010905128903687 -0.005499999970197678 -0.006109678186476231
v -0.00891872774809599 -0.005499999970197678 0.008758213371038437
v -0.00891872774809599 -0.009999999776482582 0.008758213371038437
v -0.010772702284157276 -0.010999999940395355 -0.005118485540151596
v -0.010838915593922138 -0.01086602546274662 -0.005614081863313913
v -0.010887387208640575 -0.010499999858438969 -0.005976883694529533
v -0.010887387208640575 -0.010499999858438969 -0.005976883694529533
v -0.010905128903687 -0.009999999776482582 -0.006109678186476231
v -0.010772702284157276 -0.010999999940395355 -0.005118485540151596
v -0.010772702284157276 -0.010999999940395355 -0.005118485540151596
v -0.010905128903687 -0.009999999776482582 -0.006109678186476231
v -0.010905128903687 -0.005499999970197678 -0.006109678186476231
v -0.010772702284157276 -0.010999999940395355 -0.005118485540151596
v -0.010905128903687 -0.005499999970197678 -0.006109678186476231
v -0.009051154367625713 -0.010999999940395355 0.00776702119037509
v -0.009051154367625713 -0.010999999940395355 0.00776702119037509
v -0.010905128903687 -0.005499999970197678 -0.006109678186476231
v -0.00891872774809599 -0.009999999776482582 0.008758213371038437
v -0.009051154367625713 -0.010999999940395355 0.00776702119037509
v -0.00891872774809599 -0.009999999776482582 0.008758213371038437
v -0.008984941057860851 -0.01086602546274662 0.008262617513537407
v -0.008984941057860851 -0.01086602546274662 0.008262617513537407
v -0.00891872774809599 -0.009999999776482582 0.008758213371038437
v -0.008936469443142414 -0.010499999858438969 0.00862541887909174
v -0.02609497308731079 -0.003595940535888076 0.0010183058911934495
v -0.025995546951889992 -0.002904783934354782 0.001762489671818912
v -0.026764214038848877 -1.9371496073894434e-10 -0.003990849945694208
v -0.026631787419319153 -0.010999999940395355 -0.0029996572993695736
v -0.025995546951889992 -0.008095216006040573 0.001762489671818912
v -0.026698000729084015 -0.01086602546274662 -0.003495253622531891
v -0.026698000729084015 -0.01086602546274662 -0.003495253622531891
v -0.025995546951889992 -0.008095216006040573 0.001762489671818912
v -0.02609497308731079 -0.007404059171676636 0.0010183058911934495
v -0.026698000729084015 -0.01086602546274662 -0.003495253622531891
v -0.02609497308731079 -0.007404059171676636 0.0010183058911934495
v -0.026746472343802452 -0.010499999858438969 -0.0038580552209168673
v -0.026746472343802452 -0.010499999858438969 -0.0038580552209168673
v -0.02609497308731079 -0.007404059171676636 0.0010183058911934495
v -0.026159292086958885 -0.006506568286567926 0.0005368855781853199
v -0.026746472343802452 -0.010499999858438969 -0.0038580552209168673
v -0.026159292086958885 -0.006506568286567926 0.0005368855781853199
v -0.026764214038848877 -0.009999999776482582 -0.003990849945694208
v -0.026764214038848877 -0.009999999776482582 -0.003990849945694208
v -0.026159292086958885 -0.006506568286567926 0.0005368855781853199
v -0.026181535795331 -0.005499999970197678 0.0003703983093146235
v -0.026764214038848877 -0.009999999776482582 -0.003990849945694208
v -0.026181535795331 -0.005499999970197678 0.0003703983093146235
v -0.026764214038848877 -1.9371496073894434e-10 -0.003990849945694208
v -0.026764214038848877 -1.9371496073894434e-10 -0.003990849945694208
v -0.026181535795331 -0.005499999970197678 0.0003703983093146235
v -0.026159292086958885 -0.004493431653827429 0.0005368855781853199
v -0.026764214038848877 -1.9371496073894434e-10 -0.003990849945694208
v -0.026159292086958885 -0.004493431653827429 0.0005368855781853199
v -0.02609497308731079 -0.003595940535888076 0.0010183058911934495
v -0.025492973625659943 -0.00321925594471395 0.005524177569895983
v -0.025409968569874763 -0.004024562891572714 0.006145453080534935
v -0.024777811020612717 -1.9371496073894434e-10 0.010877042077481747
v -0.024777811020612717 -1.9371496073894434e-10 0.010877042077481747
v -0.025409968569874763 -0.004024562891572714 0.006145453080534935
v -0.02536608837544918 -0.004989756736904383 0.00647388631477952
v -0.024777811020612717 -1.9371496073894434e-10 0.010877042077481747
v -0.02536608837544918 -0.004989756736904383 0.00647388631477952
v -0.024777811020612717 -0.009999999776482582 0.010877042077481747
v -0.025492973625659943 -0.007780744228512049 0.005524177569895983
v -0.025606106966733932 -0.008338897489011288 0.004677384626120329
v -0.02491023950278759 -0.010999999940395355 0.009885849431157112
v -0.025995546951889992 -0.002904783934354782 0.001762489671818912
v -0.025871790945529938 -0.0024948592763394117 0.002688793232664466
v -0.026764214038848877 -1.9371496073894434e-10 -0.003990849945694208
v -0.026764214038848877 -1.9371496073894434e-10 -0.003990849945694208
v -0.025871790945529938 -0.0024948592763394117 0.002688793232664466
v -0.025737112388014793 -0.002410588087514043 0.0036968374624848366
v -0.026764214038848877 -1.9371496073894434e-10 -0.003990849945694208
v -0.025737112388014793 -0.002410588087514043 0.0036968374624848366
v -0.024777811020612717 -1.9371496073894434e-10 0.010877042077481747
v -0.024777811020612717 -1.9371496073894434e-10 0.010877042077481747
v -0.025737112388014793 -0.002410588087514043 0.0036968374624848366
v -0.025606106966733932 -0.002661102684214711 0.004677384626120329
v -0.024777811020612717 -1.9371496073894434e-10 0.010877042077481747
v -0.025606106966733932 -0.002661102684214711 0.004677384626120329
v -0.025492973625659943 -0.00321925594471395 0.005524177569895983
v -0.025606106966733932 -0.008338897489011288 0.004677384626120329
v -0.025737112388014793 -0.008589412085711956 0.0036968374624848366
v -0.02491023950278759 -0.010999999940395355 0.009885849431157112
v -0.02491023950278759 -0.010999999940395355 0.009885849431157112
v -0.025737112388014793 -0.008589412085711956 0.0036968374624848366
v -0.025771012529730797 -0.00860000029206276 0.0034430960658937693
v -0.02491023950278759 -0.010999999940395355 0.009885849431157112
v -0.025771012529730797 -0.00860000029206276 0.0034430960658937693
v -0.026631787419319153 -0.010999999940395355 -0.0029996572993695736
v -0.026631787419319153 -0.010999999940395355 -0.0029996572993695736
v -0.025771012529730797 -0.00860000029206276 0.0034430960658937693
v -0.025871790945529938 -0.0085051404312253 0.002688793232664466
v -0.026631787419319153 -0.010999999940395355 -0.0029996572993695736
v -0.025871790945529938 -0.0085051404312253 0.002688793232664466
v -0.025995546951889992 -0.008095216006040573 0.001762489671818912
v -0.02536608837544918 -0.004989756736904383 0.00647388631477952
v -0.02536608837544918 -0.0060102432034909725 0.00647388631477952
v -0.024777811020612717 -0.009999999776482582 0.010877042077481747
v -0.024777811020612717 -0.009999999776482582 0.010877042077481747
v -0.02536608837544918 -0.0060102432034909725 0.00647388631477952
v -0.025409968569874763 -0.006975437048822641 0.006145453080534935
v -0.024777811020612717 -0.009999999776482582 0.010877042077481747
v -0.025409968569874763 -0.006975437048822641 0.006145453080534935
v -0.02479555457830429 -0.010499999858438969 0.01074424758553505
v -0.02479555457830429 -0.010499999858438969 0.01074424758553505
v -0.025409968569874763 -0.006975437048822641 0.006145453080534935
v -0.025492973625659943 -0.007780744228512049 0.005524177569895983
v -0.02479555457830429 -0.010499999858438969 0.01074424758553505
v -0.025492973625659943 -0.007780744228512049 0.005524177569895983
v -0.02484402433037758 -0.01086602546274662 0.010381446219980717
v -0.02484402433037758 -0.01086602546274662 0.010381446219980717
v -0.025492973625659943 -0.007780744228512049 0.005524177569895983
v -0.02491023950278759 -0.010999999940395355 0.009885849431157112
v -0.011313644237816334 -0.005499999970197678 -0.0016160032246261835
v -0.011291400529444218 -0.006506568286567926 -0.0014495159266516566
v -0.01090312097221613 -0.005499999970197678 0.0014566945610567927
v -0.011127656325697899 -0.002904783934354782 -0.0002239118330180645
v -0.011227081529796124 -0.003595940535888076 -0.000968095613643527
v -0.01090312097221613 -0.005499999970197678 0.0014566945610567927
v -0.01090312097221613 -0.005499999970197678 0.0014566945610567927
v -0.011227081529796124 -0.003595940535888076 -0.000968095613643527
v -0.011291400529444218 -0.004493431653827429 -0.0014495159266516566
v -0.01090312097221613 -0.005499999970197678 0.0014566945610567927
v -0.011291400529444218 -0.004493431653827429 -0.0014495159266516566
v -0.011313644237816334 -0.005499999970197678 -0.0016160032246261835
v -0.01073821634054184 -0.002661102684214711 0.0026909830048680305
v -0.010869220830500126 -0.002410588087514043 0.00171043595764786
v -0.01090312097221613 -0.005499999970197678 0.0014566945610567927
v -0.01090312097221613 -0.005499999970197678 0.0014566945610567927
v -0.010869220830500126 -0.002410588087514043 0.00171043595764786
v -0.011003898456692696 -0.0024948592763394117 0.0007023918442428112
v -0.01090312097221613 -0.005499999970197678 0.0014566945610567927
v -0.011003898456692696 -0.0024948592763394117 0.0007023918442428112
v -0.011127656325697899 -0.002904783934354782 -0.0002239118330180645
v -0.010498196817934513 -0.004989756736904383 0.004487484693527222
v -0.010542077012360096 -0.004024562891572714 0.004159051459282637
v -0.01090312097221613 -0.005499999970197678 0.0014566945610567927
v -0.01090312097221613 -0.005499999970197678 0.0014566945610567927
v -0.010542077012360096 -0.004024562891572714 0.004159051459282637
v -0.0106250811368227 -0.00321925594471395 0.003537776181474328
v -0.01090312097221613 -0.005499999970197678 0.0014566945610567927
v -0.0106250811368227 -0.00321925594471395 0.003537776181474328
v -0.01073821634054184 -0.002661102684214711 0.0026909830048680305
v -0.0106250811368227 -0.007780744228512049 0.003537776181474328
v -0.010542077012360096 -0.006975437048822641 0.004159051459282637
v -0.01090312097221613 -0.005499999970197678 0.0014566945610567927
v -0.01090312097221613 -0.005499999970197678 0.0014566945610567927
v -0.010542077012360096 -0.006975437048822641 0.004159051459282637
v -0.010498196817934513 -0.0060102432034909725 0.004487484693527222
v -0.01090312097221613 -0.005499999970197678 0.0014566945610567927
v -0.010498196817934513 -0.0060102432034909725 0.004487484693527222
v -0.010498196817934513 -0.004989756736904383 0.004487484693527222
v -0.011003898456692696 -0.0085051404312253 0.0007023918442428112
v -0.010869220830500126 -0.008589412085711956 0.00171043595764786
v -0.01090312097221613 -0.005499999970197678 0.0014566945610567927
v -0.01090312097221613 -0.005499999970197678 0.0014566945610567927
v -0.010869220830500126 -0.008589412085711956 0.00171043595764786
v -0.01073821634054184 -0.008338897489011288 0.0026909830048680305
v -0.01090312097221613 -0.005499999970197678 0.0014566945610567927
v -0.01073821634054184 -0.008338897489011288 0.0026909830048680305
v -0.0106250811368227 -0.007780744228512049 0.003537776181474328
v -0.011291400529444218 -0.006506568286567926 -0.0014495159266516566
v -0.011227081529796124 -0.007404059171676636 -0.000968095613643527
v -0.01090312097221613 -0.005499999970197678 0.0014566945610567927
v -0.01090312097221613 -0.005499999970197678 0.0014566945610567927
v -0.011227081529796124 -0.007404059171676636 -0.000968095613643527
v -0.011127656325697899 -0.008095216006040573 -0.0002239118330180645
v -0.01090312097221613 -0.005499999970197678 0.0014566945610567927
v -0.011127656325697899 -0.008095216006040573 -0.0002239118330180645
v -0.011003898456692696 -0.0085051404312253 0.0007023918442428112
v -0.025995546951889992 -0.008095216006040573 0.001762489671818912
v -0.025871790945529938 -0.0085051404312253 0.002688793232664466
v -0.011003898456692696 -0.0085051404312253 0.0007023918442428112
v -0.011003898456692696 -0.0085051404312253 0.0007023918442428112
v -0.025871790945529938 -0.0085051404312253 0.002688793232664466
v -0.025771012529730797 -0.00860000029206276 0.0034430960658937693
v -0.011003898456692696 -0.0085051404312253 0.0007023918442428112
v -0.025771012529730797 -0.00860000029206276 0.0034430960658937693
v -0.010869220830500126 -0.008589412085711956 0.00171043595764786
v -0.010869220830500126 -0.008589412085711956 0.00171043595764786
v -0.025771012529730797 -0.00860000029206276 0.0034430960658937693
v -0.025737112388014793 -0.008589412085711956 0.0036968374624848366
v -0.010869220830500126 -0.008589412085711956 0.00171043595764786
v -0.025737112388014793 -0.008589412085711956 0.0036968374624848366
v -0.01073821634054184 -0.008338897489011288 0.0026909830048680305
v -0.01073821634054184 -0.008338897489011288 0.0026909830048680305
v -0.025737112388014793 -0.008589412085711956 0.0036968374624848366
v -0.025606106966733932 -0.008338897489011288 0.004677384626120329
v -0.01073821634054184 -0.008338897489011288 0.0026909830048680305
v -0.025606106966733932 -0.008338897489011288 0.004677384626120329
v -0.0106250811368227 -0.007780744228512049 0.003537776181474328
v -0.0106250811368227 -0.007780744228512049 0.003537776181474328
v -0.025606106966733932 -0.008338897489011288 0.004677384626120329
v -0.025492973625659943 -0.007780744228512049 0.005524177569895983
v -0.0106250811368227 -0.007780744228512049 0.003537776181474328
v -0.025492973625659943 -0.007780744228512049 0.005524177569895983
v -0.010542077012360096 -0.006975437048822641 0.004159051459282637
v -0.010542077012360096 -0.006975437048822641 0.004159051459282637
v -0.025492973625659943 -0.007780744228512049 0.005524177569895983
v -0.025409968569874763 -0.006975437048822641 0.006145453080534935
v -0.010542077012360096 -0.006975437048822641 0.004159051459282637
v -0.025409968569874763 -0.006975437048822641 0.006145453080534935
v -0.010498196817934513 -0.0060102432034909725 0.004487484693527222
v -0.010498196817934513 -0.0060102432034909725 0.004487484693527222
v -0.025409968569874763 -0.006975437048822641 0.006145453080534935
v -0.02536608837544918 -0.0060102432034909725 0.00647388631477952
v -0.010498196817934513 -0.0060102432034909725 0.004487484693527222
v -0.02536608837544918 -0.0060102432034909725 0.00647388631477952
v -0.010498196817934513 -0.004989756736904383 0.004487484693527222
v -0.010498196817934513 -0.004989756736904383 0.004487484693527222
v -0.02536608837544918 -0.0060102432034909725 0.00647388631477952
v -0.02536608837544918 -0.004989756736904383 0.00647388631477952
v -0.010498196817934513 -0.004989756736904383 0.004487484693527222
v -0.02536608837544918 -0.004989756736904383 0.00647388631477952
v -0.010542077012360096 -0.004024562891572714 0.004159051459282637
v -0.010542077012360096 -0.004024562891572714 0.004159051459282637
v -0.02536608837544918 -0.004989756736904383 0.00647388631477952
v -0.025409968569874763 -0.004024562891572714 0.006145453080534935
v -0.010542077012360096 -0.004024562891572714 0.004159051459282637
v -0.025409968569874763 -0.004024562891572714 0.006145453080534935
v -0.0106250811368227 -0.00321925594471395 0.003537776181474328
v -0.0106250811368227 -0.00321925594471395 0.003537776181474328
v -0.025409968569874763 -0.004024562891572714 0.006145453080534935
v -0.025492973625659943 -0.00321925594471395 0.005524177569895983
v -0.0106250811368227 -0.00321925594471395 0.003537776181474328
v -0.025492973625659943 -0.00321925594471395 0.005524177569895983
v -0.01073821634054184 -0.002661102684214711 0.0026909830048680305
v -0.01073821634054184 -0.002661102684214711 0.0026909830048680305
v -0.025492973625659943 -0.00321925594471395 0.005524177569895983
v -0.025606106966733932 -0.002661102684214711 0.004677384626120329
v -0.01073821634054184 -0.002661102684214711 0.0026909830048680305
v -0.025606106966733932 -0.002661102684214711 0.004677384626120329
v -0.010869220830500126 -0.002410588087514043 0.00171043595764786
v -0.010869220830500126 -0.002410588087514043 0.00171043595764786
v -0.025606106966733932 -0.002661102684214711 0.004677384626120329
v -0.025737112388014793 -0.002410588087514043 0.0036968374624848366
v -0.010869220830500126 -0.002410588087514043 0.00171043595764786
v -0.025737112388014793 -0.002410588087514043 0.0036968374624848366
v -0.011003898456692696 -0.0024948592763394117 0.0007023918442428112
v -0.011003898456692696 -0.0024948592763394117 0.0007023918442428112
v -0.025737112388014793 -0.002410588087514043 0.0036968374624848366
v -0.025871790945529938 -0.0024948592763394117 0.002688793232664466
v -0.011003898456692696 -0.0024948592763394117 0.0007023918442428112
v -0.025871790945529938 -0.0024948592763394117 0.002688793232664466
v -0.011127656325697899 -0.002904783934354782 -0.0002239118330180645
v -0.011127656325697899 -0.002904783934354782 -0.0002239118330180645
v -0.025871790945529938 -0.0024948592763394117 0.002688793232664466
v -0.025995546951889992 -0.002904783934354782 0.001762489671818912
v -0.011127656325697899 -0.002904783934354782 -0.0002239118330180645
v -0.025995546951889992 -0.002904783934354782 0.001762489671818912
v -0.011227081529796124 -0.003595940535888076 -0.000968095613643527
v -0.011227081529796124 -0.003595940535888076 -0.000968095613643527
v -0.025995546951889992 -0.002904783934354782 0.001762489671818912
v -0.02609497308731079 -0.003595940535888076 0.0010183058911934495
v -0.011227081529796124 -0.003595940535888076 -0.000968095613643527
v -0.02609497308731079 -0.003595940535888076 0.0010183058911934495
v -0.011291400529444218 -0.004493431653827429 -0.0014495159266516566
v -0.011291400529444218 -0.004493431653827429 -0.0014495159266516566
v -0.02609497308731079 -0.003595940535888076 0.0010183058911934495
v -0.026159292086958885 -0.004493431653827429 0.0005368855781853199
v -0.011291400529444218 -0.004493431653827429 -0.0014495159266516566
v -0.026159292086958885 -0.004493431653827429 0.0005368855781853199
v -0.011313644237816334 -0.005499999970197678 -0.0016160032246261835
v -0.011313644237816334 -0.005499999970197678 -0.0016160032246261835
v -0.026159292086958885 -0.004493431653827429 0.0005368855781853199
v -0.026181535795331 -0.005499999970197678 0.0003703983093146235
v -0.011313644237816334 -0.005499999970197678 -0.0016160032246261835
v -0.026181535795331 -0.005499999970197678 0.0003703983093146235
v -0.011291400529444218 -0.006506568286567926 -0.0014495159266516566
v -0.011291400529444218 -0.006506568286567926 -0.0014495159266516566
v -0.026181535795331 -0.005499999970197678 0.0003703983093146235
v -0.026159292086958885 -0.006506568286567926 0.0005368855781853199
v -0.011291400529444218 -0.006506568286567926 -0.0014495159266516566
v -0.026159292086958885 -0.006506568286567926 0.0005368855781853199
v -0.011227081529796124 -0.007404059171676636 -0.000968095613643527
v -0.011227081529796124 -0.007404059171676636 -0.000968095613643527
v -0.026159292086958885 -0.006506568286567926 0.0005368855781853199
v -0.02609497308731079 -0.007404059171676636 0.0010183058911934495
v -0.011227081529796124 -0.007404059171676636 -0.000968095613643527
v -0.02609497308731079 -0.007404059171676636 0.0010183058911934495
v -0.011127656325697899 -0.008095216006040573 -0.0002239118330180645
v -0.011127656325697899 -0.008095216006040573 -0.0002239118330180645
v -0.02609497308731079 -0.007404059171676636 0.0010183058911934495
v -0.025995546951889992 -0.008095216006040573 0.001762489671818912
v -0.011127656325697899 -0.008095216006040573 -0.0002239118330180645
v -0.025995546951889992 -0.008095216006040573 0.001762489671818912
v -0.011003898456692696 -0.0085051404312253 0.0007023918442428112
v -0.010772702284157276 -0.010999999940395355 -0.005118485540151596
v -0.026631787419319153 -0.010999999940395355 -0.0029996572993695736
v -0.026698000729084015 -0.01086602546274662 -0.003495253622531891
v -0.010772702284157276 -0.010999999940395355 -0.005118485540151596
v -0.026698000729084015 -0.01086602546274662 -0.003495253622531891
v -0.010838915593922138 -0.01086602546274662 -0.005614081863313913
v -0.010838915593922138 -0.01086602546274662 -0.005614081863313913
v -0.026698000729084015 -0.01086602546274662 -0.003495253622531891
v -0.026746472343802452 -0.010499999858438969 -0.0038580552209168673
v -0.010838915593922138 -0.01086602546274662 -0.005614081863313913
v -0.026746472343802452 -0.010499999858438969 -0.0038580552209168673
v -0.010887387208640575 -0.010499999858438969 -0.005976883694529533
v -0.010887387208640575 -0.010499999858438969 -0.005976883694529533
v -0.026746472343802452 -0.010499999858438969 -0.0038580552209168673
v -0.026764214038848877 -0.009999999776482582 -0.003990849945694208
v -0.010887387208640575 -0.010499999858438969 -0.005976883694529533
v -0.026764214038848877 -0.009999999776482582 -0.003990849945694208
v -0.010905128903687 -0.009999999776482582 -0.006109678186476231
v -0.02491023950278759 -0.010999999940395355 0.009885849431157112
v -0.009051154367625713 -0.010999999940395355 0.00776702119037509
v -0.008984941057860851 -0.01086602546274662 0.008262617513537407
v -0.02491023950278759 -0.010999999940395355 0.009885849431157112
v -0.008984941057860851 -0.01086602546274662 0.008262617513537407
v -0.02484402433037758 -0.01086602546274662 0.010381446219980717
v -0.02484402433037758 -0.01086602546274662 0.010381446219980717
v -0.008984941057860851 -0.01086602546274662 0.008262617513537407
v -0.008936469443142414 -0.010499999858438969 0.00862541887909174
v -0.02484402433037758 -0.01086602546274662 0.010381446219980717
v -0.008936469443142414 -0.010499999858438969 0.00862541887909174
v -0.02479555457830429 -0.010499999858438969 0.01074424758553505
v -0.02479555457830429 -0.010499999858438969 0.01074424758553505
v -0.008936469443142414 -0.010499999858438969 0.00862541887909174
v -0.00891872774809599 -0.009999999776482582 0.008758213371038437
v -0.02479555457830429 -0.010499999858438969 0.01074424758553505
v -0.00891872774809599 -0.009999999776482582 0.008758213371038437
v -0.024777811020612717 -0.009999999776482582 0.010877042077481747
v 0.0029794590082019567 -0.005499999970197678 -0.0006521709146909416
v 0.002606263617053628 -0.005499999970197678 -0.001584263052791357
v 0.006763187702745199 -0.005499999970197678 -0.003241805825382471
v 0.0009932003449648619 -0.005499999970197678 0.007433945778757334
v 0.00040390121284872293 -0.005499999970197678 0.0030231380369514227
v 0.0025171006564050913 -0.005499999970197678 0.0070649986155331135
v 0.0025171006564050913 -0.005499999970197678 0.0070649986155331135
v 0.00040390121284872293 -0.005499999970197678 0.0030231380369514227
v 0.0013636276125907898 -0.005499999970197678 0.0027281895745545626
v 0.006763187702745199 -0.005499999970197678 -0.003241805825382471
v 0.002606263617053628 -0.005499999970197678 -0.001584263052791357
v 0.00594138540327549 -0.005499999970197678 -0.004577110055834055
v 0.00594138540327549 -0.005499999970197678 -0.004577110055834055
v 0.002606263617053628 -0.005499999970197678 -0.001584263052791357
v 0.0019506397657096386 -0.005499999970197678 -0.0023446758277714252
v 0.00594138540327549 -0.005499999970197678 -0.004577110055834055
v 0.0019506397657096386 -0.005499999970197678 -0.0023446758277714252
v 0.004859918262809515 -0.005499999970197678 -0.005712373182177544
v -0.002831478137522936 -0.005499999970197678 0.001133678830228746
v -0.00891872774809599 -0.005499999970197678 0.008758213371038437
v -0.003046165918931365 -0.005499999970197678 0.00015287329733837396
v -0.003046165918931365 -0.005499999970197678 0.00015287329733837396
v -0.00891872774809599 -0.005499999970197678 0.008758213371038437
v -0.010905128903687 -0.005499999970197678 -0.006109678186476231
v -0.003046165918931365 -0.005499999970197678 0.00015287329733837396
v -0.010905128903687 -0.005499999970197678 -0.006109678186476231
v -0.0029307554941624403 -0.005499999970197678 -0.0008444982231594622
v -0.0029307554941624403 -0.005499999970197678 -0.0008444982231594622
v -0.010905128903687 -0.005499999970197678 -0.006109678186476231
v -0.0024977491702884436 -0.005499999970197678 -0.0017503557028248906
v 0.0027517834678292274 -0.005499999970197678 0.0013153667096048594
v 0.00618908042088151 -0.005499999970197678 0.004236188717186451
v 0.00217558559961617 -0.005499999970197678 0.0021375990472733974
v 0.00217558559961617 -0.005499999970197678 0.0021375990472733974
v 0.00618908042088151 -0.005499999970197678 0.004236188717186451
v 0.005173079669475555 -0.005499999970197678 0.005430399905890226
v 0.00217558559961617 -0.005499999970197678 0.0021375990472733974
v 0.005173079669475555 -0.005499999970197678 0.005430399905890226
v 0.0013636276125907898 -0.005499999970197678 0.0027281895745545626
v 0.0013636276125907898 -0.005499999970197678 0.0027281895745545626
v 0.005173079669475555 -0.005499999970197678 0.005430399905890226
v 0.003930991515517235 -0.005499999970197678 0.006387276109308004
v 0.0013636276125907898 -0.005499999970197678 0.0027281895745545626
v 0.003930991515517235 -0.005499999970197678 0.006387276109308004
v 0.0025171006564050913 -0.005499999970197678 0.0070649986155331135
v 0.006763187702745199 -0.005499999970197678 -0.003241805825382471
v 0.007289403583854437 -0.005499999970197678 -0.0017648187931627035
v 0.0029794590082019567 -0.005499999970197678 -0.0006521709146909416
v 0.0029794590082019567 -0.005499999970197678 -0.0006521709146909416
v 0.007289403583854437 -0.005499999970197678 -0.0017648187931627035
v 0.007497039157897234 -0.005499999970197678 -0.00021070089132990688
v 0.0029794590082019567 -0.005499999970197678 -0.0006521709146909416
v 0.007497039157897234 -0.005499999970197678 -0.00021070089132990688
v 0.003029783256351948 -0.005499999970197678 0.0003505940840113908
v 0.003029783256351948 -0.005499999970197678 0.0003505940840113908
v 0.007497039157897234 -0.005499999970197678 -0.00021070089132990688
v 0.007377019617706537 -0.005499999970197678 0.0013526254333555698
v 0.003029783256351948 -0.005499999970197678 0.0003505940840113908
v 0.007377019617706537 -0.005499999970197678 0.0013526254333555698
v 0.0027517834678292274 -0.005499999970197678 0.0013153667096048594
v 0.0027517834678292274 -0.005499999970197678 0.0013153667096048594
v 0.007377019617706537 -0.005499999970197678 0.0013526254333555698
v 0.006934586446732283 -0.005499999970197678 0.002856835722923279
v 0.0027517834678292274 -0.005499999970197678 0.0013153667096048594
v 0.006934586446732283 -0.005499999970197678 0.002856835722923279
v 0.00618908042088151 -0.005499999970197678 0.004236188717186451
v 0.004859918262809515 -0.005499999970197678 -0.005712373182177544
v 0.0019506397657096386 -0.005499999970197678 -0.0023446758277714252
v 0.003566046943888068 -0.005499999970197678 -0.006597977597266436
v 0.003566046943888068 -0.005499999970197678 -0.006597977597266436
v 0.0019506397657096386 -0.005499999970197678 -0.0023446758277714252
v 0.0010836331639438868 -0.005499999970197678 -0.0028510065749287605
v 0.003566046943888068 -0.005499999970197678 -0.006597977597266436
v 0.0010836331639438868 -0.005499999970197678 -0.0028510065749287605
v 0.002116323681548238 -0.005499999970197678 -0.007195218466222286
v 0.002116323681548238 -0.005499999970197678 -0.007195218466222286
v 0.0010836331639438868 -0.005499999970197678 -0.0028510065749287605
v 0.0005741067579947412 -0.005499999970197678 -0.007477994542568922
v 0.0005741067579947412 -0.005499999970197678 -0.007477994542568922
v 0.0010836331639438868 -0.005499999970197678 -0.0028510065749287605
v 9.919978765537962e-05 -0.005499999970197678 -0.003048386424779892
v 0.0005741067579947412 -0.005499999970197678 -0.007477994542568922
v 9.919978765537962e-05 -0.005499999970197678 -0.003048386424779892
v -0.0009932011598721147 -0.005499999970197678 -0.007433945778757334
v -0.0009932011598721147 -0.005499999970197678 -0.007433945778757334
v 9.919978765537962e-05 -0.005499999970197678 -0.003048386424779892
v -0.0008959847618825734 -0.005499999970197678 -0.002915426390245557
v -0.0009932011598721147 -0.005499999970197678 -0.007433945778757334
v -0.0008959847618825734 -0.005499999970197678 -0.002915426390245557
v -0.010905128903687 -0.005499999970197678 -0.006109678186476231
v -0.010905128903687 -0.005499999970197678 -0.006109678186476231
v -0.0008959847618825734 -0.005499999970197678 -0.002915426390245557
v -0.0017940759425982833 -0.005499999970197678 -0.0024665347300469875
v -0.010905128903687 -0.005499999970197678 -0.006109678186476231
v -0.0017940759425982833 -0.005499999970197678 -0.0024665347300469875
v -0.0024977491702884436 -0.005499999970197678 -0.0017503557028248906
v -0.002831478137522936 -0.005499999970197678 0.001133678830228746
v -0.00230995612218976 -0.005499999970197678 0.00199163262732327
v -0.00891872774809599 -0.005499999970197678 0.008758213371038437
v -0.00891872774809599 -0.005499999970197678 0.008758213371038437
v -0.00230995612218976 -0.005499999970197678 0.00199163262732327
v -0.0015381142729893327 -0.005499999970197678 0.002633762313053012
v -0.00891872774809599 -0.005499999970197678 0.008758213371038437
v -0.0015381142729893327 -0.005499999970197678 0.002633762313053012
v 0.0009932003449648619 -0.005499999970197678 0.007433945778757334
v 0.0009932003449648619 -0.005499999970197678 0.007433945778757334
v -0.0015381142729893327 -0.005499999970197678 0.002633762313053012
v -0.000599594262894243 -0.005499999970197678 0.002990482607856393
v 0.0009932003449648619 -0.005499999970197678 0.007433945778757334
v -0.000599594262894243 -0.005499999970197678 0.002990482607856393
v 0.00040390121284872293 -0.005499999970197678 0.0030231380369514227
usemtl material_DDDDE3
f 1 2 3
f 4 5 6
f 7 8 9
f 10 11 12
f 13 14 15
f 16 17 18
f 19 20 21
f 22 23 24
f 25 26 27
f 28 29 30
f 31 32 33
f 34 35 36
f 37 38 39
f 40 41 42
f 43 44 45
f 46 47 48
f 49 50 51
f 52 53 54
f 55 56 57
f 58 59 60
f 61 62 63
f 64 65 66
f 67 68 69
f 70 71 72
f 73 74 75
f 76 77 78
f 79 80 81
f 82 83 84
f 85 86 87
f 88 89 90
f 91 92 93
f 94 95 96
f 97 98 99
f 100 101 102
f 103 104 105
f 106 107 108
f 109 110 111
f 112 113 114
f 115 116 117
f 118 119 120
f 121 122 123
f 124 125 126
f 127 128 129
f 130 131 132
f 133 134 135
f 136 137 138
f 139 140 141
f 142 143 144
f 145 146 147
f 148 149 150
f 151 152 153
f 154 155 156
f 157 158 159
f 160 161 162
f 163 164 165
f 166 167 168
f 169 170 171
f 172 173 174
f 175 176 177
f 178 179 180
f 181 182 183
f 184 185 186
f 187 188 189
f 190 191 192
f 193 194 195
f 196 197 198
f 199 200 201
f 202 203 204
f 205 206 207
f 208 209 210
f 211 212 213
f 214 215 216
f 217 218 219
f 220 221 222
f 223 224 225
f 226 227 228
f 229 230 231
f 232 233 234
f 235 236 237
f 238 239 240
f 241 242 243
f 244 245 246
f 247 248 249
f 250 251 252
f 253 254 255
f 256 257 258
f 259 260 261
f 262 263 264
f 265 266 267
f 268 269 270
f 271 272 273
f 274 275 276
f 277 278 279
f 280 281 282
f 283 284 285
f 286 287 288
f 289 290 291
f 292 293 294
f 295 296 297
f 298 299 300
f 301 302 303
f 304 305 306
f 307 308 309
f 310 311 312
f 313 314 315
f 316 317 318
f 319 320 321
f 322 323 324
f 325 326 327
f 328 329 330
f 331 332 333
f 334 335 336
f 337 338 339
f 340 341 342
f 343 344 345
f 346 347 348
f 349 350 351
f 352 353 354
f 355 356 357
f 358 359 360
f 361 362 363
f 364 365 366
f 367 368 369
f 370 371 372
f 373 374 375
f 376 377 378
f 379 380 381
f 382 383 384
f 385 386 387
f 388 389 390
f 391 392 393
f 394 395 396
f 397 398 399
f 400 401 402
f 403 404 405
f 406 407 408
f 409 410 411
f 412 413 414
f 415 416 417
f 418 419 420
f 421 422 423
f 424 425 426
f 427 428 429
f 430 431 432
f 433 434 435
f 436 437 438
f 439 440 441
f 442 443 444
f 445 446 447
f 448 449 450
f 451 452 453
f 454 455 456
f 457 458 459
f 460 461 462
f 463 464 465
f 466 467 468
f 469 470 471
f 472 473 474
f 475 476 477
f 478 479 480
f 481 482 483
f 484 485 486
f 487 488 489
f 490 491 492
f 493 494 495
f 496 497 498
f 499 500 501
f 502 503 504
f 505 506 507
f 508 509 510
f 511 512 513
f 514 515 516
f 517 518 519
f 520 521 522
f 523 524 525
f 526 527 528
f 529 530 531
f 532 533 534
f 535 536 537
f 538 539 540
f 541 542 543
f 544 545 546
f 547 548 549
f 550 551 552
f 553 554 555
f 556 557 558
f 559 560 561
f 562 563 564
f 565 566 567
f 568 569 570
f 571 572 573
f 574 575 576
f 577 578 579
f 580 581 582
f 583 584 585
f 586 587 588
f 589 590 591
f 592 593 594
f 595 596 597
f 598 599 600
f 601 602 603
f 604 605 606
f 607 608 609
f 610 611 612
f 613 614 615
f 616 617 618
f 619 620 621
f 622 623 624
f 625 626 627
f 628 629 630
f 631 632 633
f 634 635 636
f 637 638 639
f 640 641 642
f 643 644 645
f 646 647 648
f 649 650 651
f 652 653 654
f 655 656 657
f 658 659 660
f 661 662 663
f 664 665 666
f 667 668 669
f 670 671 672
f 673 674 675
f 676 677 678
f 679 680 681
f 682 683 684
f 685 686 687
f 688 689 690
f 691 692 693
f 694 695 696
f 697 698 699
f 700 701 702
f 703 704 705
f 706 707 708
f 709 710 711
f 712 713 714
f 715 716 717
f 718 719 720
f 721 722 723
f 724 725 726
f 727 728 729
f 730 731 732
f 733 734 735
f 736 737 738
f 739 740 741
f 742 743 744
f 745 746 747
f 748 749 750
f 751 752 753
f 754 755 756
f 757 758 759
f 760 761 762
f 763 764 765
f 766 767 768
f 769 770 771
f 772 773 774
f 775 776 777
f 778 779 780
f 781 782 783
f 784 785 786
f 787 788 789
f 790 791 792
f 793 794 795
f 796 797 798
f 799 800 801
f 802 803 804
f 805 806 807
f 808 809 810
f 811 812 813
f 814 815 816
f 817 818 819
f 820 821 822
f 823 824 825
f 826 827 828
f 829 830 831
f 832 833 834
f 835 836 837
f 838 839 840
f 841 842 843
f 844 845 846
f 847 848 849
f 850 851 852
f 853 854 855
f 856 857 858
f 859 860 861
f 862 863 864
f 865 866 867
f 868 869 870
f 871 872 873
f 874 875 876
f 877 878 879
f 880 881 882
f 883 884 885
f 886 887 888
f 889 890 891
f 892 893 894
f 895 896 897
f 898 899 900
f 901 902 903
f 904 905 906
f 907 908 909
f 910 911 912
f 913 914 915
f 916 917 918
f 919 920 921
f 922 923 924
f 925 926 927
f 928 929 930
