# Exact connected-component conservative convex envelope; metres.
v -0.059983540326356888 0.0014053125632926822 0.01484999991953373
v -0.059983540326356888 0.0014053125632926822 0.026850000023841858
v -0.059953838586807251 -0.0023531231563538313 0.01484999991953373
v -0.059953838586807251 -0.0023531231563538313 0.026850000023841858
v -0.059821631759405136 0.0046230028383433819 0.01484999991953373
v -0.059821631759405136 0.0046230028383433819 0.026850000023841858
v -0.059660401195287704 -0.0023416075855493546 0.028704101219773293
v -0.059611499309539795 -0.0023396881297230721 0.012686881236732006
v -0.05952884629368782 0.0046003758907318115 0.028704101219773293
v -0.059480048716068268 0.0045966063626110554 0.012686881236732006
v -0.059432197362184525 -0.0082349227741360664 0.01484999991953373
v -0.059432197362184525 -0.0082349227741360664 0.026850000023841858
v -0.059275273233652115 -0.0092974286526441574 0.01484999991953373
v -0.059275273233652115 -0.0092974286526441574 0.026850000023841858
v -0.058985158801078796 -0.0092519242316484451 0.028704101219773293
v -0.058981340378522873 0.011009150184690952 0.01484999991953373
v -0.058981340378522873 0.011009150184690952 0.026850000023841858
v -0.058936804533004761 -0.0092443395406007767 0.012686881236732006
v -0.05888044461607933 0.0115366131067276 0.01484999991953373
v -0.05888044461607933 0.0115366131067276 0.026850000023841858
v -0.058808822184801102 -0.0023081826511770487 0.03037671186029911
v -0.058679141104221344 0.0045347120612859726 0.03037671186029911
v -0.058617986738681793 -0.0023006955161690712 0.010735503397881985
v -0.058592259883880615 0.011480147019028664 0.028704101219773293
v -0.058544233441352844 0.0114707350730896 0.012686881236732006
v -0.058488726615905762 0.0045199943706393242 0.010735503397881985
v -0.058143213391304016 -0.0091198636218905449 0.03037671186029911
v -0.057954538613557816 -0.0090902708470821381 0.010735503397881985
v -0.057795107364654541 -0.016116002574563026 0.01484999991953373
v -0.057795107364654541 -0.016116002574563026 0.026850000023841858
v -0.057755928486585617 0.011316281743347645 0.03037671186029911
v -0.057568509131669998 0.011279561556875706 0.010735503397881985
v -0.057512238621711731 -0.016037125140428543 0.028704101219773293
v -0.057482451200485229 -0.0022561228834092617 0.031704101711511612
v -0.057465091347694397 -0.016023978590965271 0.012686881236732006
v -0.057355698198080063 0.0044324374757707119 0.031704101711511612
v -0.057341594249010086 -0.017661876976490021 0.01484999991953373
v -0.057341594249010086 -0.017661876976490021 0.026850000023841858
v -0.057142995297908783 0.018294205889105797 0.01484999991953373
v -0.057142995297908783 0.018294205889105797 0.026850000023841858
v -0.057070557028055191 -0.0022399574518203735 0.0091868815943598747
v -0.056944705545902252 0.0044006742537021637 0.0091868815943598747
v -0.056863319128751755 0.018204668536782265 0.028704101219773293
v -0.056831859052181244 -0.0089141745120286942 0.031704101711511612
v -0.056816704571247101 0.018189745023846626 0.012686881236732006
v -0.05669131875038147 -0.015808215364813805 0.03037671186029911
v -0.056507352739572525 -0.015756916254758835 0.010735503397881985
v -0.05645330622792244 0.011061054654419422 0.031704101711511612
v -0.056451555341482162 0.020327858626842499 0.01484999991953373
v -0.056451555341482162 0.020327858626842499 0.026850000023841858
v -0.056424621492624283 -0.0088502997532486916 0.0091868815943598747
v -0.056051664054393768 0.017944816499948502 0.03037671186029911
v -0.056048780679702759 0.010981796309351921 0.0091868815943598747
v -0.055869773030281067 0.017886586487293243 0.010735503397881985
v -0.055811129510402679 -0.0021905291359871626 0.032556340098381042
v -0.055688060820102692 0.0043035605922341347 0.032556340098381042
v -0.055533364415168762 -0.022716635838150978 0.01484999991953373
v -0.055533364415168762 -0.022716635838150978 0.026850000023841858
v -0.055412709712982178 -0.015451677143573761 0.031704101711511612
v -0.055261563509702682 -0.022605450823903084 0.028704101219773293
v -0.055216263979673386 -0.022586919367313385 0.012686881236732006
v -0.055179450660943985 -0.0086549930274486542 0.032556340098381042
v -0.05512068048119545 -0.0021634283475577831 0.0081926044076681137
v -0.055015642195940018 -0.015340955927968025 0.0091868815943598747
v -0.054999131709337234 0.0042503201402723789 0.0081926044076681137
v -0.054811906069517136 0.010739450342953205 0.032556340098381042
v -0.054787479341030121 0.017540091648697853 0.031704101711511612
v -0.05463278666138649 0.024804404005408287 0.01484999991953373
v -0.05463278666138649 0.024804404005408287 0.026850000023841858
v -0.05449681356549263 -0.0085479207336902618 0.0081926044076681137
v -0.054472770541906357 -0.022282784804701805 0.03037671186029911
v -0.054394889622926712 0.017414409667253494 0.0091868815943598747
v -0.054365396499633789 0.024683006107807159 0.028704101219773293
v -0.054320830851793289 0.024662772193551064 0.012686881236732006
v -0.054296005517244339 -0.022210478782653809 0.010735503397881985
v -0.054133817553520203 0.010606591589748859 0.0081926044076681137
v -0.053958456963300705 -0.0021178124006837606 0.032850001007318497
v -0.053839467465877533 0.0041607022285461426 0.032850001007318497
v -0.053801562637090683 -0.015002413652837276 0.032556340098381042
v -0.053765866905450821 -0.026631396263837814 0.01484999991953373
v -0.053765866905450821 -0.026631396263837814 0.026850000023841858
v -0.053589392453432083 0.024330681189894676 0.03037671186029911
v -0.053415495902299881 0.024251729249954224 0.010735503397881985
v -0.053347744047641754 -0.0083676865324378014 0.032850001007318497
v -0.053244195878505707 -0.021780220791697502 0.031704101711511612
v -0.05319451168179512 0.017030108720064163 0.032556340098381042
v -0.05313597247004509 -0.014816815033555031 0.0081926044076681137
v -0.052992399781942368 0.010382948443293571 0.032850001007318497
v -0.052959222346544266 -0.0020785934757441282 0.0078500006347894669
v -0.05286267027258873 -0.021624151617288589 0.0091868815943598747
v -0.052842441946268082 0.0040836511179804802 0.0078500006347894669
v -0.052536427974700928 0.01681942492723465 0.0081926044076681137
v -0.052520625293254852 -0.029010061174631119 0.01484999991953373
v -0.052520625293254852 -0.029010061174631119 0.026850000023841858
v -0.052459705621004105 0.029120085760951042 0.01484999991953373
v -0.052459705621004105 0.029120085760951042 0.026850000023841858
v -0.052380744367837906 0.023781929165124893 0.031704101711511612
v -0.052359823137521744 -0.008212728425860405 0.0078500006347894669
v -0.052263572812080383 -0.02886807918548584 0.028704101219773293
v -0.052220728248357773 -0.028844412416219711 0.012686881236732006
v -0.052015595138072968 -0.014504401944577694 0.032850001007318497
v -0.052011057734489441 0.010190672241151333 0.0078500006347894669
v -0.052005402743816376 0.023611517623066902 0.0091868815943598747
v -0.051696103066205978 -0.021146953105926514 0.032556340098381042
v -0.05151757225394249 -0.028456021100282669 0.03037671186029911
v -0.051428694278001785 0.016464784741401672 0.032850001007318497
v -0.051383763551712036 0.03097916767001152 0.01484999991953373
v -0.051383763551712036 0.03097916767001152 0.026850000023841858
v -0.051350396126508713 -0.028363680467009544 0.010735503397881985
v -0.051132276654243469 0.030827544629573822 0.028704101219773293
v -0.051090359687805176 0.030802272260189056 0.012686881236732006
v -0.051056560128927231 -0.020885340869426727 0.0081926044076681137
v -0.051052343100309372 -0.014235801994800568 0.0078500006347894669
v -0.050857756286859512 0.023090464994311333 0.032556340098381042
v -0.050476312637329102 0.01615988090634346 0.0078500006347894669
v -0.050402421504259109 0.030387517064809799 0.03037671186029911
v -0.050355646759271622 -0.027814224362373352 0.031704101711511612
v -0.050238866358995438 0.030288908630609512 0.010735503397881985
v -0.050228580832481384 0.022804804146289825 0.0081926044076681137
v -0.049994818866252899 -0.027614917606115341 0.0091868815943598747
v -0.049980025738477707 -0.020444970577955246 0.032850001007318497
v -0.049265649169683456 0.029702158644795418 0.031704101711511612
v -0.04916951060295105 0.022323964163661003 0.032850001007318497
v -0.049054469913244247 -0.020066360011696815 0.0078500006347894669
v -0.048912633210420609 0.029489325359463692 0.0091868815943598747
v -0.048891540616750717 -0.027005517855286598 0.032556340098381042
v -0.048797637224197388 -0.034911178052425385 0.01484999991953373
v -0.048797637224197388 -0.034911178052425385 0.026850000023841858
v -0.048558805137872696 -0.034740310162305832 0.028704101219773293
v -0.04851900041103363 -0.034711834043264389 0.012686881236732006
v -0.048286691308021545 -0.026671424508094788 0.0081926044076681137
v -0.048258963972330093 0.021910557523369789 0.0078500006347894669
v -0.047865688800811768 -0.034244436770677567 0.03037671186029911
v -0.047833234071731567 0.028838558122515678 0.032556340098381042
v -0.047710362821817398 -0.034133311361074448 0.010735503397881985
v -0.04743986576795578 0.036734987050294876 0.01484999991953373
v -0.04743986576795578 0.036734987050294876 0.026850000023841858
v -0.047268562018871307 -0.026109056547284126 0.032850001007318497
v -0.047241479158401489 0.028481790795922279 0.0081926044076681137
v -0.047207679599523544 0.036555193364620209 0.028704101219773293
v -0.047168981283903122 0.036525227129459381 0.012686881236732006
v -0.047109175473451614 0.037158116698265076 0.01484999991953373
v -0.047109175473451614 0.037158116698265076 0.026850000023841858
v -0.046786129474639893 -0.03347209095954895 0.031704101711511612
v -0.046533845365047455 0.036033410578966141 0.03037671186029911
v -0.046450875699520111 -0.033232241868972778 0.0091868815943598747
v -0.046393223106861115 -0.025625556707382202 0.0078500006347894669
v -0.046382840722799301 0.035916481167078018 0.010735503397881985
v -0.046245388686656952 0.027881249785423279 0.032850001007318497
v -0.045484323054552078 0.035220716148614883 0.031704101711511612
v -0.04542580246925354 -0.032498877495527267 0.032556340098381042
v -0.045388992875814438 0.027364930137991905 0.0078500006347894669
v -0.045158401131629944 0.034968338906764984 0.0091868815943598747
v -0.044863831251859665 -0.032096825540065765 0.0081926044076681137
v -0.044414743781089783 -0.040340181440114975 0.01484999991953373
v -0.044414743781089783 -0.040340181440114975 0.026850000023841858
v -0.044197365641593933 -0.040142744779586792 0.028704101219773293
v -0.044161852449178696 0.034196663647890091 0.032556340098381042
v -0.044161133468151093 -0.040109835565090179 0.012686881236732006
v -0.043917875736951828 -0.031420063227415085 0.032850001007318497
v -0.043615516275167465 0.033773608505725861 0.0081926044076681137
v -0.043566498905420303 -0.039569754153490067 0.03037671186029911
v -0.043425127863883972 -0.039441350847482681 0.010735503397881985
v -0.043104581534862518 -0.030838208273053169 0.0078500006347894669
v -0.042854420840740204 0.04199402779340744 0.01484999991953373
v -0.042854420840740204 0.04199402779340744 0.026850000023841858
v -0.042695879936218262 0.033061489462852478 0.032850001007318497
v -0.042644679546356201 0.041788496077060699 0.028704101219773293
v -0.042609717696905136 0.041754242032766342 0.012686881236732006
v -0.042583905160427094 -0.03867730125784874 0.031704101711511612
v -0.042565573006868362 -0.04228677973151207 0.01484999991953373
v -0.042565573006868362 -0.04228677973151207 0.026850000023841858
v -0.04227876290678978 -0.038400154560804367 0.0091868815943598747
v -0.042035974562168121 0.041192017495632172 0.03037671186029911
v -0.04190521314740181 0.032449238002300262 0.0078500006347894669
v -0.04189956933259964 0.041058346629142761 0.010735503397881985
v -0.041345763951539993 -0.037552744150161743 0.032556340098381042
v -0.04108789935708046 0.040262974798679352 0.031704101711511612
v -0.04083426296710968 -0.037088170647621155 0.0081926044076681137
v -0.040793478488922119 0.03997446596622467 0.0091868815943598747
v -0.040538545697927475 0.044233772903680801 0.01484999991953373
v -0.040538545697927475 0.044233772903680801 0.026850000023841858
v -0.039973270148038864 -0.036306165158748627 0.032850001007318497
v -0.039893254637718201 0.039092313498258591 0.032556340098381042
v -0.039431221783161163 -0.045223653316497803 0.01484999991953373
v -0.039431221783161163 -0.045223653316497803 0.026850000023841858
v -0.039399724453687668 0.038608692586421967 0.0081926044076681137
v -0.039238229393959045 -0.04500231146812439 0.028704101219773293
v -0.039233025163412094 -0.035633828490972519 0.0078500006347894669
v -0.039206061512231827 -0.04496542364358902 0.012686881236732006
v -0.038678150624036789 -0.044359959661960602 0.03037671186029911
v -0.038568977266550064 0.037794627249240875 0.032850001007318497
v -0.038552641868591309 -0.044216010719537735 0.010735503397881985
v -0.037854738533496857 0.037094727158546448 0.0078500006347894669
v -0.037805806845426559 -0.043359469622373581 0.031704101711511612
v -0.037689443677663803 0.046685174107551575 0.01484999991953373
v -0.037689443677663803 0.046685174107551575 0.026850000023841858
v -0.037534903734922409 -0.04304877296090126 0.0091868815943598747
v -0.037504982203245163 0.046456683427095413 0.028704101219773293
v -0.037474237382411957 0.046418599784374237 0.012686881236732006
v -0.036969643086194992 0.045793566852807999 0.03037671186029911
v -0.036849673837423325 0.045644965022802353 0.010735503397881985
v -0.036706589162349701 -0.042098775506019592 0.032556340098381042
v -0.036252487450838089 -0.041577965021133423 0.0081926044076681137
v -0.036135829985141754 0.044760745018720627 0.031704101711511612
v -0.035876896232366562 0.044440004974603653 0.0091868815943598747
v -0.035488098859786987 -0.040701288729906082 0.032850001007318497
v -0.035231087356805801 -0.04856717586517334 0.01484999991953373
v -0.035231087356805801 -0.04856717586517334 0.026850000023841858
v -0.035085167735815048 0.04345930740237236 0.032556340098381042
v -0.034830909222364426 -0.039947561919689178 0.0078500006347894669
v -0.034651122987270355 0.04292166605591774 0.0081926044076681137
v -0.033920500427484512 0.042016658931970596 0.032850001007318497
v -0.033914454281330109 -0.049495551735162735 0.01484999991953373
v -0.033914454281330109 -0.049495551735162735 0.026850000023841858
v -0.033748466521501541 -0.049253303557634354 0.028704101219773293
v -0.033720798790454865 -0.049212928861379623 0.012686881236732006
v -0.033292341977357864 0.04123857244849205 0.0078500006347894669
v -0.033266745507717133 -0.04855027049779892 0.03037671186029911
v -0.033158794045448303 -0.048392724245786667 0.010735503397881985
v -0.032917983829975128 0.050163794308900833 0.01484999991953373
v -0.032917983829975128 0.050163794308900833 0.026850000023841858
v -0.032516449689865112 -0.047455273568630219 0.031704101711511612
v -0.032283451408147812 -0.047115225344896317 0.0091868815943598747
v -0.032014783471822739 0.050744984298944473 0.01484999991953373
v -0.032014783471822739 0.050744984298944473 0.026850000023841858
v -0.031858094036579132 0.050496622920036316 0.028704101219773293
v -0.031831979751586914 0.050455227494239807 0.012686881236732006
v -0.031571023166179657 -0.046075493097305298 0.032556340098381042
v -0.031403355300426483 0.049775842577219009 0.03037671186029911
v -0.031301453709602356 0.049614317715167999 0.010735503397881985
v -0.031180450692772865 -0.04550548642873764 0.0081926044076681137
v -0.03069508820772171 0.048653200268745422 0.031704101711511612
v -0.030523007735610008 -0.044545996934175491 0.032850001007318497
v -0.030475137755274773 0.048304568976163864 0.0091868815943598747
v -0.029957767575979233 -0.043721072375774384 0.0078500006347894669
v -0.029802616685628891 0.047238592058420181 0.032556340098381042
v -0.029433924704790115 0.046654194593429565 0.0081926044076681137
v -0.028813308104872704 0.045670486986637115 0.032850001007318497
v -0.028279727324843407 0.044824738055467606 0.0078500006347894669
v -0.027939053252339363 -0.053098108619451523 0.01484999991953373
v -0.027939053252339363 -0.053098108619451523 0.026850000023841858
v -0.027802310883998871 -0.052838228642940521 0.028704101219773293
v -0.027779519557952881 -0.052794914692640305 0.012686881236732006
v -0.027405465021729469 -0.052084024995565414 0.03037671186029911
v -0.027316534891724586 -0.051915012300014496 0.010735503397881985
v -0.026984130963683128 -0.053589709103107452 0.01484999991953373
v -0.026984130963683128 -0.053589709103107452 0.026850000023841858
v -0.026787364855408669 -0.050909329205751419 0.031704101711511612
v -0.026595417410135269 -0.050544530153274536 0.0091868815943598747
v -0.026008512824773788 -0.049429122358560562 0.032556340098381042
v -0.025907179340720177 0.054118555039167404 0.01484999991953373
v -0.025907179340720177 0.054118555039167404 0.026850000023841858
v -0.025780381634831429 0.053853683173656464 0.028704101219773293
v -0.025759248062968254 0.053809534758329391 0.012686881236732006
v -0.025686755776405334 -0.048817623406648636 0.0081926044076681137
v -0.025412397459149361 0.053084984421730042 0.03037671186029911
v -0.025329932570457458 0.052912723273038864 0.010735503397881985
v -0.025145148858428001 -0.04778829962015152 0.032850001007318497
v -0.024839246645569801 0.051887709647417068 0.031704101711511612
v -0.024679496884346008 -0.046903330832719803 0.0078500006347894669
v -0.024661257863044739 0.05151589959859848 0.0091868815943598747
v -0.024444866925477982 0.05479460209608078 0.01484999991953373
v -0.024444866925477982 0.05479460209608078 0.026850000023841858
v -0.024117037653923035 0.050379056483507156 0.032556340098381042
v -0.02381867915391922 0.049755804240703583 0.0081926044076681137
v -0.023316461592912674 0.048706699162721634 0.032850001007318497
v -0.022884676232933998 0.047804724425077438 0.0078500006347894669
v -0.021585823968052864 -0.05598260834813118 0.01484999991953373
v -0.021585823968052864 -0.05598260834813118 0.026850000023841858
v -0.021480176597833633 -0.055708605796098709 0.028704101219773293
v -0.021462569013237953 -0.055662941187620163 0.012686881236732006
v -0.021173572167754173 -0.054913431406021118 0.03037671186029911
v -0.02110486663877964 -0.054735235869884491 0.010735503397881985
v -0.020696023479104042 -0.05367492139339447 0.031704101711511612
v -0.020547725260257721 -0.053290307521820068 0.0091868815943598747
v -0.020094282925128937 -0.052114304155111313 0.032556340098381042
v -0.019845692440867424 -0.051469586789608002 0.0081926044076681137
v -0.019449222832918167 0.056760266423225403 0.01484999991953373
v -0.019449222832918167 0.056760266423225403 0.026850000023841858
v -0.019427243620157242 -0.050384346395730972 0.032850001007318497
v -0.019354032352566719 0.056482460349798203 0.028704101219773293
v -0.019338168203830719 0.056436162441968918 0.012686881236732006
v -0.019077775999903679 0.055676240473985672 0.03037671186029911
v -0.01906747929751873 -0.049451299011707306 0.0078500006347894669
v -0.019015869125723839 0.055495571345090866 0.010735503397881985
v -0.018647497519850731 0.054420523345470428 0.031704101711511612
v -0.01851387694478035 0.054030567407608032 0.0091868815943598747
v -0.018105315044522285 0.052838228642940521 0.032556340098381042
v -0.018038298934698105 -0.057224292308092117 0.01484999991953373
v -0.018038298934698105 -0.057224292308092117 0.026850000023841858
v -0.017881330102682114 0.052184555679559708 0.0081926044076681137
v -0.01750430092215538 0.051084239035844803 0.032850001007318497
v -0.017180148512125015 0.050138235092163086 0.0078500006347894669
v -0.015338639728724957 0.058006260544061661 0.01484999991953373
v -0.015338639728724957 0.058006260544061661 0.026850000023841858
v -0.014940685592591763 -0.058110032230615616 0.01484999991953373
v -0.014940685592591763 -0.058110032230615616 0.026850000023841858
v -0.014867560938000679 -0.057825621217489243 0.028704101219773293
v -0.014855371788144112 -0.057778220623731613 0.012686881236732006
v -0.014655343256890774 -0.057000230997800827 0.03037671186029911
v -0.014607788994908333 -0.056815262883901596 0.010735503397881985
v -0.01432480663061142 -0.055714651942253113 0.031704101711511612
v -0.014222162775695324 -0.055315420031547546 0.0091868815943598747
v -0.013908309862017632 -0.054094728082418442 0.032556340098381042
v -0.013736248016357422 -0.053425513207912445 0.0081926044076681137
v -0.013446616940200329 -0.052299026399850845 0.032850001007318497
v -0.013197606429457664 -0.051330529153347015 0.0078500006347894669
v -0.012728251516819 0.058634389191865921 0.01484999991953373
v -0.012728251516819 0.058634389191865921 0.026850000023841858
v -0.012665955349802971 0.058347415179014206 0.028704101219773293
v -0.012655571103096008 0.058299582451581955 0.012686881236732006
v -0.012485163286328316 0.057514574378728867 0.03037671186029911
v -0.012444647960364819 0.057327937334775925 0.010735503397881985
v -0.012203573249280453 0.056217394769191742 0.031704101711511612
v -0.012116127647459507 0.055814560502767563 0.0091868815943598747
v -0.011848749592900276 0.054582852870225906 0.032556340098381042
v -0.011702166870236397 0.053907599300146103 0.0081926044076681137
v -0.011455425061285496 0.052770949900150299 0.032850001007318497
v -0.011243287473917007 0.051793709397315979 0.0078500006347894669
v -0.0086252866312861443 -0.059376798570156097 0.01484999991953373
v -0.0086252866312861443 -0.059376798570156097 0.026850000023841858
v -0.0080934977158904076 -0.059451621025800705 0.01484999991953373
v -0.0080934977158904076 -0.059451621025800705 0.026850000023841858
v -0.008053886704146862 -0.059160642325878143 0.028704101219773293
v -0.0080472864210605621 -0.059112150222063065 0.012686881236732006
v -0.0079389279708266258 -0.058316197246313095 0.03037671186029911
v -0.0079131638631224632 -0.058126959949731827 0.010735503397881985
v -0.0077598737552762032 -0.057000938802957535 0.031704101711511612
v -0.0077042682096362114 -0.056592490524053574 0.0091868815943598747
v -0.0075342534109950066 -0.055343616753816605 0.032556340098381042
v -0.0074410447850823402 -0.054658949375152588 0.0081926044076681137
v -0.0072841509245336056 -0.053506460040807724 0.032850001007318497
v -0.007149258628487587 -0.052515596151351929 0.0078500006347894669
v -0.0058351489715278149 0.059715583920478821 0.01484999991953373
v -0.0058351489715278149 0.059715583920478821 0.026850000023841858
v -0.0058065913617610931 0.059423316270112991 0.028704101219773293
v -0.0058018313720822334 0.059374604374170303 0.012686881236732006
v -0.0057237064465880394 0.058575116097927094 0.03037671186029911
v -0.0057051340118050575 0.058385040611028671 0.010735503397881985
v -0.0055946148931980133 0.057254020124673843 0.031704101711511612
v -0.0055545270442962646 0.056843757629394531 0.0091868815943598747
v -0.0054319519549608231 0.055589340627193451 0.032556340098381042
v -0.0053647495806217194 0.054901629686355591 0.0081926044076681137
v -0.0052516339346766472 0.053744025528430939 0.032850001007318497
v -0.0051543819718062878 0.052748765796422958 0.0078500006347894669
v -0.001136861857958138 -0.059989225119352341 0.01484999991953373
v -0.001136861857958138 -0.059989225119352341 0.026850000023841858
v -0.0011312976712360978 -0.059695620089769363 0.028704101219773293
v -0.0011303703067824244 -0.059646684676408768 0.012686881236732006
v -0.0011151524959132075 -0.05884353443980217 0.03037671186029911
v -0.0011115313973277807 -0.058652587234973907 0.010735503397881985
v -0.0010899996850639582 -0.057516384869813919 0.031704101711511612
v -0.0010821865871548653 -0.057104244828224182 0.0091868815943598747
v -0.0010583061957731843 -0.055844075977802277 0.032556340098381042
v -0.0010452138958498836 -0.055153213441371918 0.0081926044076681137
v -0.0010231767082586884 -0.053990304470062256 0.032850001007318497
v -0.001004229998216033 -0.052990484982728958 0.0078500006347894669
v 0.001004229998216033 0.052990484982728958 0.0078500006347894669
v 0.0010111200390383601 -0.05999147891998291 0.01484999991953373
v 0.0010111200390383601 -0.05999147891998291 0.026850000023841858
v 0.0010231767082586884 0.053990304470062256 0.032850001007318497
v 0.0010452138958498836 0.055153213441371918 0.0081926044076681137
v 0.0010583061957731843 0.055844075977802277 0.032556340098381042
v 0.0010821865871548653 0.057104244828224182 0.0091868815943598747
v 0.0010899996850639582 0.057516384869813919 0.031704101711511612
v 0.0011115313973277807 0.058652587234973907 0.010735503397881985
v 0.0011151524959132075 0.05884353443980217 0.03037671186029911
v 0.0011303703067824244 0.059646684676408768 0.012686881236732006
v 0.0011312976712360978 0.059695620089769363 0.028704101219773293
v 0.001136861857958138 0.059989225119352341 0.01484999991953373
v 0.001136861857958138 0.059989225119352341 0.026850000023841858
v 0.0038194688968360424 0.059878308326005936 0.01484999991953373
v 0.0038194688968360424 0.059878308326005936 0.026850000023841858
v 0.0051543819718062878 -0.052748765796422958 0.0078500006347894669
v 0.0052516339346766472 -0.053744025528430939 0.032850001007318497
v 0.0053647495806217194 -0.054901629686355591 0.0081926044076681137
v 0.0054319519549608231 -0.055589340627193451 0.032556340098381042
v 0.0055545270442962646 -0.056843757629394531 0.0091868815943598747
v 0.0055946148931980133 -0.057254020124673843 0.031704101711511612
v 0.0057051340118050575 -0.058385040611028671 0.010735503397881985
v 0.0057237064465880394 -0.058575116097927094 0.03037671186029911
v 0.0058018313720822334 -0.059374604374170303 0.012686881236732006
v 0.0058065913617610931 -0.059423316270112991 0.028704101219773293
v 0.0058351489715278149 -0.059715583920478821 0.01484999991953373
v 0.0058351489715278149 -0.059715583920478821 0.026850000023841858
v 0.007149258628487587 0.052515596151351929 0.0078500006347894669
v 0.0072841509245336056 0.053506460040807724 0.032850001007318497
v 0.0074410447850823402 0.054658949375152588 0.0081926044076681137
v 0.0075342534109950066 0.055343616753816605 0.032556340098381042
v 0.0077042682096362114 0.056592490524053574 0.0091868815943598747
v 0.0077598737552762032 0.057000938802957535 0.031704101711511612
v 0.0079131638631224632 0.058126959949731827 0.010735503397881985
v 0.0079389279708266258 0.058316197246313095 0.03037671186029911
v 0.0080472864210605621 0.059112150222063065 0.012686881236732006
v 0.008053886704146862 0.059160642325878143 0.028704101219773293
v 0.0080934977158904076 0.059451621025800705 0.01484999991953373
v 0.0080934977158904076 0.059451621025800705 0.026850000023841858
v 0.010621336288750172 -0.059052411466836929 0.01484999991953373
v 0.010621336288750172 -0.059052411466836929 0.026850000023841858
v 0.011243287473917007 -0.051793709397315979 0.0078500006347894669
v 0.011455425061285496 -0.052770949900150299 0.032850001007318497
v 0.011702166870236397 -0.053907599300146103 0.0081926044076681137
v 0.011848749592900276 -0.054582852870225906 0.032556340098381042
v 0.012116127647459507 -0.055814560502767563 0.0091868815943598747
v 0.012203573249280453 -0.056217394769191742 0.031704101711511612
v 0.012444647960364819 -0.057327937334775925 0.010735503397881985
v 0.012485163286328316 -0.057514574378728867 0.03037671186029911
v 0.012655571103096008 -0.058299582451581955 0.012686881236732006
v 0.012665955349802971 -0.058347415179014206 0.028704101219773293
v 0.012728251516819 -0.058634389191865921 0.01484999991953373
v 0.012728251516819 -0.058634389191865921 0.026850000023841858
v 0.013197606429457664 0.051330529153347015 0.0078500006347894669
v 0.013375161215662956 0.058490213006734848 0.01484999991953373
v 0.013375161215662956 0.058490213006734848 0.026850000023841858
v 0.013446616940200329 0.052299026399850845 0.032850001007318497
v 0.013736248016357422 0.053425513207912445 0.0081926044076681137
v 0.013908309862017632 0.054094728082418442 0.032556340098381042
v 0.014222162775695324 0.055315420031547546 0.0091868815943598747
v 0.01432480663061142 0.055714651942253113 0.031704101711511612
v 0.014607788994908333 0.056815262883901596 0.010735503397881985
v 0.014655343256890774 0.057000230997800827 0.03037671186029911
v 0.014855371788144112 0.057778220623731613 0.012686881236732006
v 0.014867560938000679 0.057825621217489243 0.028704101219773293
v 0.014940685592591763 0.058110032230615616 0.01484999991953373
v 0.014940685592591763 0.058110032230615616 0.026850000023841858
v 0.017180148512125015 -0.050138235092163086 0.0078500006347894669
v 0.01750430092215538 -0.051084239035844803 0.032850001007318497
v 0.017881330102682114 -0.052184555679559708 0.0081926044076681137
v 0.018105315044522285 -0.052838228642940521 0.032556340098381042
v 0.01851387694478035 -0.054030567407608032 0.0091868815943598747
v 0.018647497519850731 -0.054420523345470428 0.031704101711511612
v 0.019015869125723839 -0.055495571345090866 0.010735503397881985
v 0.01906747929751873 0.049451299011707306 0.0078500006347894669
v 0.019077775999903679 -0.055676240473985672 0.03037671186029911
v 0.019338168203830719 -0.056436162441968918 0.012686881236732006
v 0.019354032352566719 -0.056482460349798203 0.028704101219773293
v 0.019427243620157242 0.050384346395730972 0.032850001007318497
v 0.019449222832918167 -0.056760266423225403 0.01484999991953373
v 0.019449222832918167 -0.056760266423225403 0.026850000023841858
v 0.019845692440867424 0.051469586789608002 0.0081926044076681137
v 0.019956463947892189 -0.056583914905786514 0.01484999991953373
v 0.019956463947892189 -0.056583914905786514 0.026850000023841858
v 0.020094282925128937 0.052114304155111313 0.032556340098381042
v 0.020547725260257721 0.053290307521820068 0.0091868815943598747
v 0.020696023479104042 0.05367492139339447 0.031704101711511612
v 0.02110486663877964 0.054735235869884491 0.010735503397881985
v 0.021173572167754173 0.054913431406021118 0.03037671186029911
v 0.021462569013237953 0.055662941187620163 0.012686881236732006
v 0.021480176597833633 0.055708605796098709 0.028704101219773293
v 0.021585823968052864 0.05598260834813118 0.01484999991953373
v 0.021585823968052864 0.05598260834813118 0.026850000023841858
v 0.022584445774555206 0.055587254464626312 0.01484999991953373
v 0.022584445774555206 0.055587254464626312 0.026850000023841858
v 0.022884676232933998 -0.047804724425077438 0.0078500006347894669
v 0.023316461592912674 -0.048706699162721634 0.032850001007318497
v 0.02381867915391922 -0.049755804240703583 0.0081926044076681137
v 0.024117037653923035 -0.050379056483507156 0.032556340098381042
v 0.024661257863044739 -0.05151589959859848 0.0091868815943598747
v 0.024679496884346008 0.046903330832719803 0.0078500006347894669
v 0.024839246645569801 -0.051887709647417068 0.031704101711511612
v 0.025145148858428001 0.04778829962015152 0.032850001007318497
v 0.025329932570457458 -0.052912723273038864 0.010735503397881985
v 0.025412397459149361 -0.053084984421730042 0.03037671186029911
v 0.025686755776405334 0.048817623406648636 0.0081926044076681137
v 0.025759248062968254 -0.053809534758329391 0.012686881236732006
v 0.025780381634831429 -0.053853683173656464 0.028704101219773293
v 0.025907179340720177 -0.054118555039167404 0.01484999991953373
v 0.025907179340720177 -0.054118555039167404 0.026850000023841858
v 0.026008512824773788 0.049429122358560562 0.032556340098381042
v 0.026595417410135269 0.050544530153274536 0.0091868815943598747
v 0.026787364855408669 0.050909329205751419 0.031704101711511612
v 0.027316534891724586 0.051915012300014496 0.010735503397881985
v 0.027405465021729469 0.052084024995565414 0.03037671186029911
v 0.027779519557952881 0.052794914692640305 0.012686881236732006
v 0.027802310883998871 0.052838228642940521 0.028704101219773293
v 0.027939053252339363 0.053098108619451523 0.01484999991953373
v 0.027939053252339363 0.053098108619451523 0.026850000023841858
v 0.028279727324843407 -0.044824738055467606 0.0078500006347894669
v 0.02877473272383213 -0.052649926394224167 0.01484999991953373
v 0.02877473272383213 -0.052649926394224167 0.026850000023841858
v 0.028813308104872704 -0.045670486986637115 0.032850001007318497
v 0.029433924704790115 -0.046654194593429565 0.0081926044076681137
v 0.029802616685628891 -0.047238592058420181 0.032556340098381042
v 0.029957767575979233 0.043721072375774384 0.0078500006347894669
v 0.030475137755274773 -0.048304568976163864 0.0091868815943598747
v 0.030523007735610008 0.044545996934175491 0.032850001007318497
v 0.03069508820772171 -0.048653200268745422 0.031704101711511612
v 0.031180450692772865 0.04550548642873764 0.0081926044076681137
v 0.031208807602524757 0.051244612783193588 0.01484999991953373
v 0.031208807602524757 0.051244612783193588 0.026850000023841858
v 0.031301453709602356 -0.049614317715167999 0.010735503397881985
v 0.031403355300426483 -0.049775842577219009 0.03037671186029911
v 0.031571023166179657 0.046075493097305298 0.032556340098381042
v 0.031831979751586914 -0.050455227494239807 0.012686881236732006
v 0.031858094036579132 -0.050496622920036316 0.028704101219773293
v 0.032014783471822739 -0.050744984298944473 0.01484999991953373
v 0.032014783471822739 -0.050744984298944473 0.026850000023841858
v 0.032283451408147812 0.047115225344896317 0.0091868815943598747
v 0.032516449689865112 0.047455273568630219 0.031704101711511612
v 0.033158794045448303 0.048392724245786667 0.010735503397881985
v 0.033266745507717133 0.04855027049779892 0.03037671186029911
v 0.033292341977357864 -0.04123857244849205 0.0078500006347894669
v 0.033720798790454865 0.049212928861379623 0.012686881236732006
v 0.033748466521501541 0.049253303557634354 0.028704101219773293
v 0.033914454281330109 0.049495551735162735 0.01484999991953373
v 0.033914454281330109 0.049495551735162735 0.026850000023841858
v 0.033920500427484512 -0.042016658931970596 0.032850001007318497
v 0.034651122987270355 -0.04292166605591774 0.0081926044076681137
v 0.034830909222364426 0.039947561919689178 0.0078500006347894669
v 0.035085167735815048 -0.04345930740237236 0.032556340098381042
v 0.035488098859786987 0.040701288729906082 0.032850001007318497
v 0.035876896232366562 -0.044440004974603653 0.0091868815943598747
v 0.036135829985141754 -0.044760745018720627 0.031704101711511612
v 0.036252487450838089 0.041577965021133423 0.0081926044076681137
v 0.036706589162349701 0.042098775506019592 0.032556340098381042
v 0.03684774786233902 -0.04735233262181282 0.01484999991953373
v 0.03684774786233902 -0.04735233262181282 0.026850000023841858
v 0.036849673837423325 -0.045644965022802353 0.010735503397881985
v 0.036969643086194992 -0.045793566852807999 0.03037671186029911
v 0.037474237382411957 -0.046418599784374237 0.012686881236732006
v 0.037504982203245163 -0.046456683427095413 0.028704101219773293
v 0.037534903734922409 0.04304877296090126 0.0091868815943598747
v 0.037689443677663803 -0.046685174107551575 0.01484999991953373
v 0.037689443677663803 -0.046685174107551575 0.026850000023841858
v 0.037805806845426559 0.043359469622373581 0.031704101711511612
v 0.037854738533496857 -0.037094727158546448 0.0078500006347894669
v 0.038552641868591309 0.044216010719537735 0.010735503397881985
v 0.038568977266550064 -0.037794627249240875 0.032850001007318497
v 0.038678150624036789 0.044359959661960602 0.03037671186029911
v 0.039024878293275833 0.045574765652418137 0.01484999991953373
v 0.039024878293275833 0.045574765652418137 0.026850000023841858
v 0.039206061512231827 0.04496542364358902 0.012686881236732006
v 0.039233025163412094 0.035633828490972519 0.0078500006347894669
v 0.039238229393959045 0.04500231146812439 0.028704101219773293
v 0.039399724453687668 -0.038608692586421967 0.0081926044076681137
v 0.039431221783161163 0.045223653316497803 0.01484999991953373
v 0.039431221783161163 0.045223653316497803 0.026850000023841858
v 0.039893254637718201 -0.039092313498258591 0.032556340098381042
v 0.039973270148038864 0.036306165158748627 0.032850001007318497
v 0.040793478488922119 -0.03997446596622467 0.0091868815943598747
v 0.04083426296710968 0.037088170647621155 0.0081926044076681137
v 0.04108789935708046 -0.040262974798679352 0.031704101711511612
v 0.041345763951539993 0.037552744150161743 0.032556340098381042
v 0.04189956933259964 -0.041058346629142761 0.010735503397881985
v 0.04190521314740181 -0.032449238002300262 0.0078500006347894669
v 0.042035974562168121 -0.041192017495632172 0.03037671186029911
v 0.04227876290678978 0.038400154560804367 0.0091868815943598747
v 0.042583905160427094 0.03867730125784874 0.031704101711511612
v 0.042609717696905136 -0.041754242032766342 0.012686881236732006
v 0.042644679546356201 -0.041788496077060699 0.028704101219773293
v 0.042695879936218262 -0.033061489462852478 0.032850001007318497
v 0.042854420840740204 -0.04199402779340744 0.01484999991953373
v 0.042854420840740204 -0.04199402779340744 0.026850000023841858
v 0.043104581534862518 0.030838208273053169 0.0078500006347894669
v 0.043425127863883972 0.039441350847482681 0.010735503397881985
v 0.043566498905420303 0.039569754153490067 0.03037671186029911
v 0.043615516275167465 -0.033773608505725861 0.0081926044076681137
v 0.043917875736951828 0.031420063227415085 0.032850001007318497
v 0.043966427445411682 -0.040828336030244827 0.01484999991953373
v 0.043966427445411682 -0.040828336030244827 0.026850000023841858
v 0.044161133468151093 0.040109835565090179 0.012686881236732006
v 0.044161852449178696 -0.034196663647890091 0.032556340098381042
v 0.044197365641593933 0.040142744779586792 0.028704101219773293
v 0.044414743781089783 0.040340181440114975 0.01484999991953373
v 0.044414743781089783 0.040340181440114975 0.026850000023841858
v 0.044863831251859665 0.032096825540065765 0.0081926044076681137
v 0.045158401131629944 -0.034968338906764984 0.0091868815943598747
v 0.045388992875814438 -0.027364930137991905 0.0078500006347894669
v 0.04542580246925354 0.032498877495527267 0.032556340098381042
v 0.045484323054552078 -0.035220716148614883 0.031704101711511612
v 0.045830219984054565 0.038724552839994431 0.01484999991953373
v 0.045830219984054565 0.038724552839994431 0.026850000023841858
v 0.046245388686656952 -0.027881249785423279 0.032850001007318497
v 0.046382840722799301 -0.035916481167078018 0.010735503397881985
v 0.046393223106861115 0.025625556707382202 0.0078500006347894669
v 0.046450875699520111 0.033232241868972778 0.0091868815943598747
v 0.046533845365047455 -0.036033410578966141 0.03037671186029911
v 0.046786129474639893 0.03347209095954895 0.031704101711511612
v 0.047168981283903122 -0.036525227129459381 0.012686881236732006
v 0.047207679599523544 -0.036555193364620209 0.028704101219773293
v 0.047241479158401489 -0.028481790795922279 0.0081926044076681137
v 0.047268562018871307 0.026109056547284126 0.032850001007318497
v 0.04743986576795578 -0.036734987050294876 0.01484999991953373
v 0.04743986576795578 -0.036734987050294876 0.026850000023841858
v 0.047710362821817398 0.034133311361074448 0.010735503397881985
v 0.047833234071731567 -0.028838558122515678 0.032556340098381042
v 0.047865688800811768 0.034244436770677567 0.03037671186029911
v 0.048258963972330093 -0.021910557523369789 0.0078500006347894669
v 0.048286691308021545 0.026671424508094788 0.0081926044076681137
v 0.04851900041103363 0.034711834043264389 0.012686881236732006
v 0.048558805137872696 0.034740310162305832 0.028704101219773293
v 0.048797637224197388 0.034911178052425385 0.01484999991953373
v 0.048797637224197388 0.034911178052425385 0.026850000023841858
v 0.048891540616750717 0.027005517855286598 0.032556340098381042
v 0.048912633210420609 -0.029489325359463692 0.0091868815943598747
v 0.049054469913244247 0.020066360011696815 0.0078500006347894669
v 0.04916951060295105 -0.022323964163661003 0.032850001007318497
v 0.049265649169683456 -0.029702158644795418 0.031704101711511612
v 0.04994640126824379 -0.033246912062168121 0.01484999991953373
v 0.04994640126824379 -0.033246912062168121 0.026850000023841858
v 0.049980025738477707 0.020444970577955246 0.032850001007318497
v 0.049994818866252899 0.027614917606115341 0.0091868815943598747
v 0.050228580832481384 -0.022804804146289825 0.0081926044076681137
v 0.050238866358995438 -0.030288908630609512 0.010735503397881985
v 0.050355646759271622 0.027814224362373352 0.031704101711511612
v 0.050402421504259109 -0.030387517064809799 0.03037671186029911
v 0.050476312637329102 -0.01615988090634346 0.0078500006347894669
v 0.050857756286859512 -0.023090464994311333 0.032556340098381042
v 0.051052343100309372 0.014235801994800568 0.0078500006347894669
v 0.051056560128927231 0.020885340869426727 0.0081926044076681137
v 0.051090359687805176 -0.030802272260189056 0.012686881236732006
v 0.051132276654243469 -0.030827544629573822 0.028704101219773293
v 0.051350396126508713 0.028363680467009544 0.010735503397881985
v 0.051383763551712036 -0.03097916767001152 0.01484999991953373
v 0.051383763551712036 -0.03097916767001152 0.026850000023841858
v 0.051428694278001785 -0.016464784741401672 0.032850001007318497
v 0.051448583602905273 0.030871395021677017 0.01484999991953373
v 0.051448583602905273 0.030871395021677017 0.026850000023841858
v 0.05151757225394249 0.028456021100282669 0.03037671186029911
v 0.051696103066205978 0.021146953105926514 0.032556340098381042
v 0.052005402743816376 -0.023611517623066902 0.0091868815943598747
v 0.052011057734489441 -0.010190672241151333 0.0078500006347894669
v 0.052015595138072968 0.014504401944577694 0.032850001007318497
v 0.052220728248357773 0.028844412416219711 0.012686881236732006
v 0.052263572812080383 0.02886807918548584 0.028704101219773293
v 0.052359823137521744 0.008212728425860405 0.0078500006347894669
v 0.052380744367837906 -0.023781929165124893 0.031704101711511612
v 0.052520625293254852 0.029010061174631119 0.01484999991953373
v 0.052520625293254852 0.029010061174631119 0.026850000023841858
v 0.052536427974700928 -0.01681942492723465 0.0081926044076681137
v 0.052842441946268082 -0.0040836511179804802 0.0078500006347894669
v 0.05286267027258873 0.021624151617288589 0.0091868815943598747
v 0.052959222346544266 0.0020785934757441282 0.0078500006347894669
v 0.052992399781942368 -0.010382948443293571 0.032850001007318497
v 0.05313597247004509 0.014816815033555031 0.0081926044076681137
v 0.05319451168179512 -0.017030108720064163 0.032556340098381042
v 0.053244195878505707 0.021780220791697502 0.031704101711511612
v 0.053347744047641754 0.0083676865324378014 0.032850001007318497
v 0.053415495902299881 -0.024251729249954224 0.010735503397881985
v 0.053589392453432083 -0.024330681189894676 0.03037671186029911
v 0.053801562637090683 0.015002413652837276 0.032556340098381042
v 0.053839467465877533 -0.0041607022285461426 0.032850001007318497
v 0.053958456963300705 0.0021178124006837606 0.032850001007318497
v 0.054133817553520203 -0.010606591589748859 0.0081926044076681137
v 0.054296005517244339 0.022210478782653809 0.010735503397881985
v 0.054320830851793289 -0.024662772193551064 0.012686881236732006
v 0.054365396499633789 -0.024683006107807159 0.028704101219773293
v 0.054394889622926712 -0.017414409667253494 0.0091868815943598747
v 0.054472770541906357 0.022282784804701805 0.03037671186029911
v 0.05449681356549263 0.0085479207336902618 0.0081926044076681137
v 0.05463278666138649 -0.024804404005408287 0.01484999991953373
v 0.05463278666138649 -0.024804404005408287 0.026850000023841858
v 0.054787479341030121 -0.017540091648697853 0.031704101711511612
v 0.054811906069517136 -0.010739450342953205 0.032556340098381042
v 0.054999131709337234 -0.0042503201402723789 0.0081926044076681137
v 0.055015642195940018 0.015340955927968025 0.0091868815943598747
v 0.05512068048119545 0.0021634283475577831 0.0081926044076681137
v 0.055179450660943985 0.0086549930274486542 0.032556340098381042
v 0.055216263979673386 0.022586919367313385 0.012686881236732006
v 0.055261563509702682 0.022605450823903084 0.028704101219773293
v 0.055412709712982178 0.015451677143573761 0.031704101711511612
v 0.055533364415168762 0.022716635838150978 0.01484999991953373
v 0.055533364415168762 0.022716635838150978 0.026850000023841858
v 0.055688060820102692 -0.0043035605922341347 0.032556340098381042
v 0.055734463036060333 0.02221868559718132 0.01484999991953373
v 0.055734463036060333 0.02221868559718132 0.026850000023841858
v 0.055811129510402679 0.0021905291359871626 0.032556340098381042
v 0.055869773030281067 -0.017886586487293243 0.010735503397881985
v 0.056048780679702759 -0.010981796309351921 0.0091868815943598747
v 0.056051664054393768 -0.017944816499948502 0.03037671186029911
v 0.056424621492624283 0.0088502997532486916 0.0091868815943598747
v 0.05645330622792244 -0.011061054654419422 0.031704101711511612
v 0.056507352739572525 0.015756916254758835 0.010735503397881985
v 0.05669131875038147 0.015808215364813805 0.03037671186029911
v 0.056816704571247101 -0.018189745023846626 0.012686881236732006
v 0.056831859052181244 0.0089141745120286942 0.031704101711511612
v 0.056863319128751755 -0.018204668536782265 0.028704101219773293
v 0.056944705545902252 -0.0044006742537021637 0.0091868815943598747
v 0.057070557028055191 0.0022399574518203735 0.0091868815943598747
v 0.057142995297908783 -0.018294205889105797 0.01484999991953373
v 0.057142995297908783 -0.018294205889105797 0.026850000023841858
v 0.057355698198080063 -0.0044324374757707119 0.031704101711511612
v 0.057465091347694397 0.016023978590965271 0.012686881236732006
v 0.057482451200485229 0.0022561228834092617 0.031704101711511612
v 0.057512238621711731 0.016037125140428543 0.028704101219773293
v 0.057568509131669998 -0.011279561556875706 0.010735503397881985
v 0.057755928486585617 -0.011316281743347645 0.03037671186029911
v 0.057795107364654541 0.016116002574563026 0.01484999991953373
v 0.057795107364654541 0.016116002574563026 0.026850000023841858
v 0.057904213666915894 -0.015719477087259293 0.01484999991953373
v 0.057904213666915894 -0.015719477087259293 0.026850000023841858
v 0.057954538613557816 0.0090902708470821381 0.010735503397881985
v 0.058143213391304016 0.0091198636218905449 0.03037671186029911
v 0.058488726615905762 -0.0045199943706393242 0.010735503397881985
v 0.058544233441352844 -0.0114707350730896 0.012686881236732006
v 0.058576840907335281 0.012990523129701614 0.01484999991953373
v 0.058576840907335281 0.012990523129701614 0.026850000023841858
v 0.058592259883880615 -0.011480147019028664 0.028704101219773293
v 0.058617986738681793 0.0023006955161690712 0.010735503397881985
v 0.058679141104221344 -0.0045347120612859726 0.03037671186029911
v 0.058808822184801102 0.0023081826511770487 0.03037671186029911
v 0.05888044461607933 -0.0115366131067276 0.01484999991953373
v 0.05888044461607933 -0.0115366131067276 0.026850000023841858
v 0.058936804533004761 0.0092443395406007767 0.012686881236732006
v 0.058985158801078796 0.0092519242316484451 0.028704101219773293
v 0.059275273233652115 0.0092974286526441574 0.01484999991953373
v 0.059275273233652115 0.0092974286526441574 0.026850000023841858
v 0.059480048716068268 -0.0045966063626110554 0.012686881236732006
v 0.05952884629368782 -0.0046003758907318115 0.028704101219773293
v 0.059611499309539795 0.0023396881297230721 0.012686881236732006
v 0.059660401195287704 0.0023416075855493546 0.028704101219773293
v 0.059675950556993484 -0.0062274276278913021 0.01484999991953373
v 0.059675950556993484 -0.0062274276278913021 0.026850000023841858
v 0.059821631759405136 -0.0046230028383433819 0.01484999991953373
v 0.059821631759405136 -0.0046230028383433819 0.026850000023841858
v 0.059902112931013107 0.0034259113017469645 0.01484999991953373
v 0.059902112931013107 0.0034259113017469645 0.026850000023841858
v 0.059953838586807251 0.0023531231563538313 0.01484999991953373
v 0.059953838586807251 0.0023531231563538313 0.026850000023841858
f 1 2 6
f 1 3 4
f 1 4 2
f 1 5 10
f 1 6 5
f 1 8 3
f 1 10 8
f 2 4 7
f 2 7 9
f 2 9 6
f 3 8 11
f 3 11 4
f 4 11 12
f 4 12 7
f 5 6 16
f 5 16 10
f 6 9 17
f 6 17 16
f 7 12 15
f 7 15 21
f 7 21 9
f 8 10 23
f 8 18 11
f 8 23 28
f 8 28 18
f 9 21 22
f 9 22 31
f 9 24 17
f 9 31 24
f 10 16 25
f 10 25 32
f 10 26 23
f 10 32 26
f 11 13 14
f 11 14 12
f 11 18 13
f 12 14 15
f 13 18 35
f 13 29 14
f 13 35 29
f 14 29 30
f 14 30 33
f 14 33 15
f 15 27 21
f 15 33 46
f 15 46 27
f 16 17 20
f 16 19 25
f 16 20 19
f 17 24 20
f 18 28 35
f 19 20 39
f 19 39 45
f 19 45 25
f 20 24 43
f 20 40 39
f 20 43 40
f 21 27 44
f 21 34 36
f 21 36 22
f 21 44 34
f 22 36 31
f 23 26 41
f 23 41 28
f 24 31 43
f 25 45 54
f 25 54 32
f 26 32 42
f 26 42 41
f 27 46 44
f 28 41 51
f 28 47 35
f 28 51 64
f 28 64 47
f 29 35 37
f 29 37 38
f 29 38 30
f 30 38 33
f 31 36 48
f 31 48 67
f 31 52 43
f 31 67 52
f 32 53 42
f 32 54 72
f 32 72 53
f 33 38 60
f 33 60 71
f 33 71 46
f 34 44 55
f 34 55 36
f 35 47 75
f 35 61 37
f 35 75 61
f 36 55 56
f 36 56 66
f 36 66 48
f 37 57 38
f 37 61 57
f 38 57 58
f 38 58 60
f 39 40 50
f 39 49 45
f 39 50 49
f 40 43 50
f 41 42 65
f 41 63 51
f 41 65 63
f 42 53 76
f 42 76 65
f 43 52 73
f 43 73 50
f 44 46 59
f 44 59 62
f 44 62 55
f 45 49 74
f 45 74 54
f 46 71 59
f 47 64 75
f 48 66 67
f 49 50 68
f 49 68 74
f 50 69 68
f 50 73 69
f 51 63 70
f 51 70 64
f 52 67 97
f 52 82 73
f 52 97 82
f 53 72 76
f 54 74 83
f 54 83 72
f 55 62 77
f 55 77 56
f 56 77 78
f 56 78 88
f 56 88 66
f 57 61 80
f 57 80 81
f 57 81 58
f 58 81 60
f 59 71 85
f 59 79 62
f 59 85 104
f 59 104 79
f 60 81 99
f 60 99 71
f 61 75 109
f 61 100 80
f 61 109 100
f 62 79 84
f 62 84 77
f 63 65 91
f 63 89 98
f 63 91 89
f 63 98 70
f 64 70 87
f 64 87 112
f 64 90 75
f 64 112 90
f 65 76 91
f 66 86 67
f 66 88 86
f 67 86 114
f 67 114 97
f 68 69 96
f 68 95 74
f 68 96 95
f 69 73 96
f 70 98 87
f 71 99 105
f 71 105 85
f 72 83 103
f 72 92 76
f 72 103 119
f 72 119 92
f 73 82 116
f 73 110 96
f 73 116 110
f 74 95 111
f 74 111 118
f 74 118 83
f 75 90 109
f 76 92 115
f 76 102 91
f 76 115 102
f 77 84 643
f 77 643 78
f 78 643 88
f 79 101 84
f 79 104 101
f 80 93 81
f 80 100 93
f 81 93 94
f 81 94 99
f 82 97 116
f 83 118 125
f 83 125 103
f 84 101 643
f 85 105 117
f 85 117 126
f 85 126 104
f 86 88 106
f 86 106 123
f 86 123 114
f 87 98 113
f 87 113 112
f 88 643 106
f 89 91 460
f 89 460 98
f 90 112 120
f 90 120 109
f 91 102 460
f 92 119 132
f 92 132 115
f 93 100 130
f 93 127 128
f 93 128 94
f 93 130 127
f 94 128 99
f 95 96 107
f 95 107 111
f 96 108 107
f 96 110 108
f 97 114 122
f 97 122 116
f 98 460 113
f 99 128 129
f 99 129 133
f 99 133 105
f 100 109 130
f 101 104 121
f 101 121 643
f 102 115 460
f 103 125 139
f 103 139 119
f 104 126 121
f 105 133 144
f 105 144 117
f 106 643 123
f 107 108 136
f 107 136 141
f 107 141 111
f 108 110 137
f 108 137 136
f 109 120 146
f 109 135 130
f 109 146 135
f 110 116 145
f 110 140 137
f 110 145 140
f 111 141 118
f 112 113 124
f 112 124 147
f 112 131 120
f 112 147 131
f 113 460 124
f 114 123 149
f 114 134 122
f 114 149 134
f 115 132 460
f 116 122 145
f 117 144 126
f 118 141 148
f 118 148 153
f 118 153 125
f 119 139 132
f 120 131 146
f 121 126 138
f 121 138 643
f 122 134 158
f 122 150 145
f 122 158 150
f 123 643 149
f 124 460 147
f 125 153 161
f 125 161 139
f 126 144 151
f 126 151 160
f 126 160 138
f 127 130 155
f 127 155 156
f 127 156 128
f 128 156 157
f 128 157 129
f 129 157 133
f 130 135 163
f 130 159 155
f 130 163 159
f 131 147 154
f 131 154 146
f 132 139 152
f 132 152 460
f 133 157 162
f 133 162 170
f 133 170 144
f 134 149 158
f 135 146 163
f 136 137 142
f 136 142 141
f 137 140 143
f 137 143 142
f 138 160 643
f 139 161 152
f 140 145 174
f 140 168 143
f 140 174 168
f 141 142 169
f 141 169 176
f 141 176 148
f 142 143 166
f 142 165 169
f 142 166 165
f 143 168 166
f 144 170 177
f 144 177 151
f 145 150 178
f 145 178 174
f 146 154 173
f 146 173 163
f 147 164 154
f 147 460 164
f 148 176 153
f 149 167 158
f 149 643 167
f 150 158 178
f 151 177 160
f 152 161 175
f 152 175 460
f 153 176 180
f 153 180 161
f 154 164 189
f 154 179 173
f 154 189 179
f 155 159 171
f 155 171 156
f 156 171 172
f 156 172 157
f 157 172 188
f 157 188 191
f 157 191 162
f 158 167 184
f 158 184 178
f 159 163 190
f 159 190 171
f 160 177 183
f 160 183 643
f 161 180 187
f 161 187 194
f 161 194 175
f 162 191 170
f 163 173 198
f 163 193 190
f 163 198 193
f 164 460 189
f 165 166 182
f 165 181 169
f 165 182 181
f 166 168 182
f 167 192 184
f 167 643 192
f 168 174 199
f 168 199 182
f 169 181 200
f 169 200 176
f 170 191 195
f 170 195 177
f 171 185 186
f 171 186 172
f 171 190 185
f 172 186 188
f 173 179 204
f 173 204 198
f 174 178 205
f 174 201 199
f 174 205 201
f 175 194 460
f 176 200 202
f 176 202 206
f 176 206 180
f 177 195 203
f 177 203 207
f 177 207 183
f 178 184 205
f 179 189 204
f 180 206 212
f 180 212 187
f 181 182 196
f 181 196 200
f 182 197 196
f 182 199 197
f 183 207 643
f 184 192 213
f 184 210 205
f 184 213 210
f 185 190 208
f 185 208 186
f 186 208 209
f 186 209 188
f 187 212 194
f 188 209 216
f 188 216 191
f 189 211 204
f 189 460 211
f 190 193 217
f 190 217 208
f 191 216 219
f 191 219 223
f 191 223 195
f 192 643 213
f 193 198 224
f 193 220 217
f 193 224 220
f 194 212 218
f 194 218 460
f 195 223 229
f 195 229 203
f 196 197 221
f 196 221 200
f 197 199 222
f 197 222 221
f 198 204 224
f 199 201 227
f 199 227 222
f 200 221 228
f 200 228 231
f 200 231 202
f 201 205 230
f 201 230 227
f 202 231 206
f 203 229 207
f 204 211 236
f 204 232 224
f 204 236 232
f 205 210 237
f 205 233 230
f 205 237 233
f 206 231 235
f 206 235 238
f 206 238 212
f 207 229 234
f 207 234 643
f 208 214 215
f 208 215 209
f 208 217 214
f 209 215 216
f 210 213 237
f 211 460 236
f 212 238 240
f 212 240 218
f 213 239 237
f 213 643 239
f 214 217 244
f 214 241 242
f 214 242 215
f 214 244 241
f 215 242 243
f 215 243 216
f 216 243 245
f 216 245 219
f 217 220 246
f 217 246 244
f 218 240 460
f 219 245 249
f 219 249 223
f 220 224 246
f 221 222 226
f 221 225 228
f 221 226 225
f 222 227 226
f 223 249 251
f 223 251 229
f 224 232 250
f 224 250 246
f 225 226 253
f 225 252 228
f 225 253 252
f 226 227 254
f 226 254 253
f 227 230 257
f 227 257 254
f 228 252 255
f 228 255 258
f 228 258 231
f 229 251 234
f 230 233 257
f 231 258 235
f 232 236 261
f 232 256 250
f 232 261 256
f 233 237 265
f 233 260 257
f 233 265 260
f 234 251 259
f 234 259 643
f 235 258 262
f 235 262 238
f 236 460 261
f 237 239 265
f 238 262 266
f 238 266 268
f 238 268 240
f 239 267 265
f 239 643 267
f 240 268 460
f 241 244 247
f 241 247 242
f 242 247 248
f 242 248 243
f 243 248 271
f 243 271 273
f 243 273 245
f 244 246 272
f 244 272 247
f 245 273 249
f 246 250 276
f 246 274 272
f 246 276 274
f 247 269 248
f 247 272 269
f 248 269 270
f 248 270 271
f 249 273 275
f 249 275 277
f 249 277 251
f 250 256 276
f 251 277 281
f 251 281 259
f 252 253 264
f 252 263 255
f 252 264 263
f 253 254 264
f 254 257 284
f 254 282 264
f 254 284 282
f 255 263 283
f 255 283 258
f 256 261 278
f 256 278 276
f 257 260 287
f 257 287 284
f 258 283 286
f 258 286 288
f 258 288 262
f 259 281 643
f 260 265 289
f 260 289 287
f 261 285 278
f 261 460 285
f 262 288 266
f 263 264 279
f 263 279 283
f 264 280 279
f 264 282 280
f 265 267 293
f 265 293 289
f 266 288 292
f 266 292 268
f 267 643 293
f 268 292 294
f 268 294 460
f 269 272 290
f 269 290 291
f 269 291 270
f 270 291 271
f 271 291 299
f 271 299 301
f 271 301 273
f 272 274 302
f 272 300 290
f 272 302 300
f 273 301 275
f 274 276 302
f 275 301 303
f 275 303 277
f 276 278 306
f 276 304 302
f 276 306 304
f 277 303 305
f 277 305 281
f 278 285 308
f 278 308 306
f 279 280 296
f 279 295 283
f 279 296 295
f 280 282 296
f 281 305 307
f 281 307 643
f 282 284 311
f 282 311 296
f 283 295 312
f 283 312 314
f 283 314 286
f 284 287 313
f 284 313 311
f 285 460 308
f 286 314 288
f 287 289 315
f 287 315 313
f 288 314 316
f 288 316 318
f 288 318 292
f 289 293 319
f 289 317 315
f 289 319 317
f 290 297 298
f 290 298 291
f 290 300 297
f 291 298 299
f 292 318 294
f 293 643 319
f 294 318 320
f 294 320 460
f 295 296 309
f 295 309 312
f 296 310 309
f 296 311 310
f 297 300 321
f 297 321 298
f 298 321 322
f 298 322 299
f 299 322 325
f 299 325 327
f 299 327 301
f 300 302 326
f 300 326 321
f 301 327 329
f 301 329 303
f 302 304 330
f 302 328 326
f 302 330 328
f 303 329 331
f 303 331 305
f 304 306 330
f 305 331 333
f 305 333 307
f 306 308 332
f 306 332 330
f 307 333 643
f 308 334 332
f 308 460 334
f 309 310 335
f 309 335 338
f 309 338 312
f 310 311 336
f 310 336 335
f 311 313 337
f 311 337 336
f 312 338 314
f 313 315 341
f 313 339 337
f 313 341 339
f 314 338 340
f 314 340 316
f 315 317 343
f 315 343 341
f 316 340 342
f 316 342 318
f 317 319 343
f 318 342 344
f 318 344 346
f 318 346 320
f 319 345 343
f 319 643 345
f 320 346 460
f 321 323 324
f 321 324 322
f 321 326 323
f 322 324 325
f 323 326 347
f 323 347 348
f 323 348 324
f 324 348 349
f 324 349 325
f 325 349 327
f 326 328 352
f 326 350 347
f 326 352 350
f 327 349 351
f 327 351 353
f 327 353 329
f 328 330 354
f 328 354 352
f 329 353 331
f 330 332 354
f 331 353 355
f 331 355 333
f 332 334 358
f 332 356 354
f 332 358 356
f 333 355 357
f 333 357 643
f 334 460 358
f 335 336 372
f 335 369 338
f 335 371 369
f 335 372 371
f 336 337 370
f 336 370 372
f 337 339 368
f 337 368 370
f 338 367 340
f 338 369 367
f 339 341 366
f 339 366 368
f 340 365 342
f 340 367 365
f 341 343 366
f 342 365 344
f 343 345 364
f 343 364 366
f 344 359 346
f 344 363 359
f 344 365 363
f 345 362 364
f 345 643 362
f 346 359 460
f 347 350 360
f 347 360 361
f 347 361 348
f 348 361 349
f 349 361 384
f 349 384 351
f 350 352 383
f 350 383 360
f 351 382 353
f 351 384 382
f 352 354 381
f 352 381 383
f 353 378 355
f 353 380 378
f 353 382 380
f 354 356 377
f 354 377 379
f 354 379 381
f 355 376 357
f 355 378 376
f 356 358 377
f 357 376 643
f 358 375 377
f 358 460 375
f 359 363 389
f 359 387 460
f 359 389 387
f 360 383 385
f 360 385 361
f 361 385 386
f 361 386 384
f 362 388 364
f 362 643 388
f 363 365 389
f 364 388 390
f 364 390 366
f 365 367 393
f 365 391 389
f 365 393 391
f 366 390 392
f 366 392 394
f 366 394 368
f 367 369 395
f 367 395 393
f 368 394 370
f 369 371 373
f 369 373 395
f 370 374 372
f 370 394 396
f 370 396 374
f 371 372 374
f 371 374 373
f 373 374 397
f 373 397 395
f 374 396 398
f 374 398 397
f 375 401 403
f 375 403 377
f 375 460 401
f 376 378 402
f 376 402 643
f 377 403 379
f 378 380 406
f 378 404 402
f 378 406 404
f 379 403 405
f 379 405 381
f 380 382 408
f 380 408 406
f 381 405 407
f 381 407 383
f 382 384 408
f 383 399 385
f 383 407 409
f 383 409 399
f 384 386 400
f 384 400 410
f 384 410 408
f 385 399 400
f 385 400 386
f 387 389 413
f 387 413 460
f 388 416 418
f 388 418 390
f 388 643 416
f 389 391 417
f 389 417 413
f 390 418 420
f 390 420 392
f 391 393 421
f 391 419 417
f 391 421 419
f 392 420 422
f 392 422 394
f 393 395 421
f 394 422 424
f 394 424 396
f 395 397 414
f 395 414 423
f 395 423 421
f 396 415 398
f 396 424 415
f 397 398 414
f 398 415 414
f 399 409 411
f 399 411 412
f 399 412 400
f 400 412 410
f 401 427 403
f 401 460 427
f 402 404 430
f 402 428 643
f 402 430 428
f 403 427 429
f 403 429 431
f 403 431 405
f 404 406 430
f 405 431 407
f 406 408 432
f 406 432 430
f 407 431 433
f 407 433 436
f 407 436 409
f 408 410 435
f 408 435 432
f 409 436 411
f 410 412 440
f 410 437 435
f 410 440 437
f 411 436 439
f 411 439 412
f 412 439 440
f 413 417 441
f 413 434 460
f 413 441 434
f 414 415 425
f 414 425 423
f 415 424 426
f 415 426 425
f 416 438 418
f 416 643 438
f 417 419 445
f 417 445 441
f 418 438 444
f 418 444 420
f 419 421 445
f 420 444 446
f 420 446 422
f 421 423 449
f 421 447 445
f 421 449 447
f 422 446 448
f 422 448 450
f 422 450 424
f 423 425 451
f 423 451 449
f 424 450 452
f 424 452 426
f 425 426 452
f 425 452 451
f 427 455 429
f 427 460 455
f 428 430 458
f 428 456 643
f 428 458 456
f 429 455 457
f 429 457 431
f 430 432 461
f 430 461 458
f 431 457 459
f 431 459 463
f 431 463 433
f 432 435 464
f 432 464 461
f 433 463 436
f 434 441 460
f 435 437 467
f 435 467 464
f 436 442 439
f 436 463 466
f 436 466 442
f 437 440 443
f 437 443 467
f 438 462 470
f 438 470 444
f 438 643 462
f 439 442 443
f 439 443 440
f 441 445 465
f 441 465 460
f 442 466 468
f 442 468 443
f 443 468 469
f 443 469 467
f 444 470 472
f 444 472 446
f 445 447 473
f 445 471 465
f 445 473 471
f 446 472 448
f 447 449 473
f 448 472 474
f 448 474 476
f 448 476 450
f 449 451 453
f 449 453 475
f 449 475 473
f 450 454 452
f 450 476 454
f 451 452 453
f 452 454 453
f 453 454 477
f 453 477 475
f 454 476 478
f 454 478 477
f 455 460 479
f 455 479 483
f 455 483 457
f 456 458 482
f 456 482 643
f 457 483 459
f 458 461 488
f 458 484 482
f 458 488 484
f 459 483 486
f 459 486 463
f 460 465 489
f 460 485 510
f 460 489 485
f 460 503 479
f 460 510 534
f 460 527 503
f 460 534 555
f 460 546 527
f 460 555 576
f 460 569 546
f 460 576 597
f 460 589 569
f 460 597 610
f 460 608 589
f 460 610 627
f 460 623 608
f 460 627 634
f 460 632 623
f 460 634 632
f 461 464 488
f 462 487 470
f 462 643 487
f 463 486 492
f 463 492 495
f 463 495 466
f 464 467 496
f 464 493 488
f 464 496 493
f 465 471 489
f 466 480 468
f 466 495 480
f 467 469 481
f 467 481 496
f 468 480 481
f 468 481 469
f 470 487 494
f 470 494 500
f 470 500 472
f 471 473 499
f 471 499 489
f 472 500 502
f 472 502 474
f 473 475 504
f 473 501 499
f 473 504 501
f 474 502 505
f 474 505 476
f 475 477 490
f 475 490 504
f 476 491 478
f 476 505 491
f 477 478 491
f 477 491 490
f 479 503 509
f 479 509 483
f 480 495 497
f 480 497 481
f 481 497 498
f 481 498 496
f 482 484 508
f 482 508 643
f 483 509 513
f 483 513 486
f 484 488 514
f 484 511 508
f 484 514 511
f 485 489 515
f 485 515 510
f 486 513 492
f 487 512 494
f 487 643 512
f 488 493 514
f 489 499 515
f 490 491 506
f 490 506 504
f 491 505 507
f 491 507 506
f 492 513 519
f 492 519 521
f 492 521 495
f 493 496 520
f 493 520 514
f 494 512 516
f 494 516 526
f 494 526 500
f 495 517 497
f 495 521 517
f 496 498 518
f 496 518 522
f 496 522 520
f 497 517 518
f 497 518 498
f 499 501 528
f 499 523 515
f 499 528 523
f 500 526 530
f 500 530 502
f 501 504 528
f 502 530 505
f 503 527 509
f 504 506 531
f 504 531 533
f 504 533 528
f 505 530 535
f 505 532 507
f 505 535 532
f 506 507 532
f 506 532 531
f 508 511 539
f 508 529 643
f 508 539 529
f 509 527 536
f 509 536 541
f 509 541 513
f 510 515 534
f 511 514 539
f 512 540 544
f 512 544 516
f 512 643 540
f 513 541 545
f 513 545 519
f 514 520 547
f 514 543 539
f 514 547 543
f 515 523 548
f 515 542 534
f 515 548 542
f 516 544 526
f 517 521 524
f 517 524 518
f 518 524 525
f 518 525 522
f 519 545 521
f 520 522 547
f 521 545 550
f 521 550 553
f 521 553 524
f 522 525 554
f 522 551 547
f 522 554 551
f 523 528 556
f 523 556 548
f 524 553 554
f 524 554 525
f 526 544 549
f 526 549 530
f 527 546 558
f 527 558 536
f 528 533 556
f 529 539 552
f 529 552 643
f 530 549 557
f 530 557 564
f 530 564 535
f 531 532 537
f 531 537 533
f 532 535 538
f 532 538 537
f 533 537 562
f 533 562 556
f 534 542 567
f 534 567 555
f 535 564 538
f 536 558 541
f 537 538 566
f 537 565 562
f 537 566 565
f 538 564 566
f 539 543 563
f 539 563 552
f 540 559 544
f 540 643 559
f 541 558 568
f 541 568 545
f 542 548 567
f 543 547 578
f 543 571 563
f 543 578 571
f 544 559 570
f 544 570 579
f 544 579 549
f 545 568 575
f 545 575 580
f 545 580 550
f 546 569 558
f 547 551 581
f 547 581 578
f 548 556 577
f 548 577 567
f 549 579 588
f 549 588 557
f 550 560 553
f 550 580 560
f 551 554 561
f 551 561 581
f 552 563 574
f 552 574 643
f 553 560 554
f 554 560 561
f 555 567 576
f 556 562 591
f 556 586 577
f 556 591 586
f 557 588 564
f 558 569 582
f 558 582 596
f 558 596 568
f 559 583 595
f 559 595 570
f 559 643 583
f 560 580 584
f 560 584 561
f 561 584 585
f 561 585 581
f 562 565 572
f 562 572 591
f 563 571 599
f 563 587 574
f 563 599 587
f 564 573 566
f 564 588 592
f 564 592 573
f 565 566 572
f 566 573 572
f 567 577 590
f 567 590 576
f 568 596 605
f 568 605 575
f 569 589 582
f 570 595 579
f 571 578 599
f 572 573 594
f 572 593 591
f 572 594 593
f 573 592 594
f 574 587 609
f 574 598 643
f 574 609 598
f 575 605 580
f 576 590 611
f 576 611 597
f 577 586 614
f 577 603 590
f 577 614 603
f 578 581 613
f 578 607 599
f 578 613 607
f 579 595 606
f 579 606 620
f 579 620 588
f 580 600 584
f 580 605 612
f 580 612 600
f 581 585 601
f 581 601 613
f 582 589 604
f 582 604 622
f 582 622 596
f 583 602 595
f 583 643 602
f 584 600 601
f 584 601 585
f 586 591 614
f 587 599 609
f 588 620 626
f 588 626 592
f 589 608 631
f 589 631 604
f 590 603 611
f 591 593 618
f 591 618 625
f 591 625 614
f 592 619 594
f 592 626 619
f 593 594 618
f 594 619 618
f 595 602 621
f 595 621 638
f 595 638 606
f 596 622 640
f 596 640 605
f 597 611 610
f 598 609 637
f 598 617 643
f 598 637 617
f 599 607 628
f 599 628 609
f 600 612 615
f 600 615 601
f 601 615 616
f 601 616 613
f 602 624 621
f 602 643 624
f 603 614 633
f 603 633 611
f 604 631 649
f 604 649 622
f 605 640 647
f 605 647 612
f 606 638 620
f 607 613 648
f 607 641 628
f 607 648 641
f 608 623 645
f 608 645 631
f 609 628 654
f 609 654 637
f 610 611 636
f 610 636 627
f 611 633 657
f 611 657 636
f 612 647 615
f 613 616 648
f 614 625 660
f 614 646 633
f 614 660 646
f 615 647 652
f 615 652 653
f 615 653 616
f 616 653 648
f 617 635 643
f 617 637 635
f 618 619 630
f 618 629 625
f 618 630 629
f 619 626 630
f 620 638 650
f 620 650 626
f 621 624 642
f 621 642 662
f 621 662 638
f 622 649 640
f 623 632 645
f 624 639 642
f 624 643 639
f 625 629 663
f 625 663 660
f 626 650 661
f 626 661 664
f 626 664 630
f 627 636 651
f 627 651 658
f 627 658 634
f 628 641 671
f 628 671 654
f 629 630 663
f 630 664 663
f 631 645 649
f 632 634 658
f 632 656 645
f 632 658 656
f 633 646 657
f 635 637 655
f 635 655 665
f 635 665 643
f 636 657 651
f 637 654 655
f 638 662 650
f 639 643 644
f 639 644 659
f 639 659 642
f 640 649 669
f 640 669 647
f 641 648 671
f 642 659 662
f 643 665 644
f 644 665 668
f 644 668 659
f 645 656 679
f 645 670 649
f 645 679 670
f 646 660 684
f 646 674 657
f 646 684 674
f 647 669 676
f 647 676 681
f 647 681 652
f 648 653 682
f 648 678 671
f 648 682 678
f 649 670 687
f 649 687 669
f 650 662 675
f 650 675 686
f 650 686 661
f 651 657 672
f 651 672 658
f 652 681 682
f 652 682 653
f 654 671 688
f 654 673 655
f 654 688 673
f 655 673 683
f 655 683 665
f 656 658 680
f 656 680 679
f 657 674 693
f 657 693 672
f 658 672 680
f 659 668 677
f 659 677 662
f 660 663 666
f 660 666 684
f 661 667 664
f 661 686 667
f 662 677 675
f 663 664 667
f 663 667 666
f 665 683 668
f 666 667 689
f 666 689 684
f 667 686 690
f 667 690 689
f 668 683 685
f 668 685 677
f 669 687 696
f 669 696 676
f 670 679 687
f 671 678 688
f 672 693 680
f 673 688 683
f 674 684 693
f 675 677 694
f 675 694 706
f 675 706 686
f 676 691 681
f 676 696 691
f 677 685 702
f 677 702 694
f 678 682 692
f 678 692 699
f 678 699 688
f 679 680 695
f 679 695 687
f 680 693 700
f 680 700 695
f 681 691 692
f 681 692 682
f 683 688 701
f 683 701 702
f 683 702 685
f 684 689 697
f 684 697 705
f 684 705 693
f 686 698 690
f 686 706 698
f 687 695 709
f 687 709 696
f 688 699 710
f 688 710 701
f 689 690 698
f 689 698 697
f 691 696 703
f 691 703 692
f 692 703 704
f 692 704 699
f 693 705 711
f 693 711 700
f 694 702 706
f 695 700 709
f 696 709 713
f 696 713 703
f 697 698 707
f 697 707 705
f 698 706 708
f 698 708 707
f 699 704 714
f 699 714 710
f 700 711 709
f 701 710 702
f 702 710 712
f 702 712 706
f 703 713 704
f 704 713 714
f 705 707 717
f 705 717 711
f 706 712 718
f 706 718 708
f 707 708 718
f 707 718 717
f 709 711 719
f 709 715 713
f 709 719 715
f 710 714 716
f 710 716 720
f 710 720 712
f 711 717 719
f 712 720 718
f 713 715 716
f 713 716 714
f 715 719 716
f 716 719 720
f 717 718 720
f 717 720 719
