# Exact connected-component conservative convex envelope; metres.
v -0.059986423701047897 -0.0012762215919792652 -0.026850000023841858
v -0.059986423701047897 -0.0012762215919792652 -0.01484999991953373
v -0.059972599148750305 -0.001813070266507566 -0.026850000023841858
v -0.059972599148750305 -0.001813070266507566 -0.01484999991953373
v -0.059777569025754929 0.0051615843549370766 -0.026850000023841858
v -0.059777569025754929 0.0051615843549370766 -0.01484999991953373
v -0.059679072350263596 -0.0018041948787868023 -0.028704101219773293
v -0.059630151838064194 -0.0018027143087238073 -0.012686881236732006
v -0.059484999626874924 0.0051363222301006317 -0.028704101219773293
v -0.059436235576868057 0.0051321098580956459 -0.012686881236732006
v -0.059414338320493698 0.0083628036081790924 -0.026850000023841858
v -0.059414338320493698 0.0083628036081790924 -0.01484999991953373
v -0.059356600046157837 -0.0087632033973932266 -0.026850000023841858
v -0.059356600046157837 -0.0087632033973932266 -0.01484999991953373
v -0.059066090732812881 -0.00872031319886446 -0.028704101219773293
v -0.059017669409513474 -0.0087131643667817116 -0.012686881236732006
v -0.059004895389080048 -0.010882196947932243 -0.026850000023841858
v -0.059004895389080048 -0.010882196947932243 -0.01484999991953373
v -0.058827228844165802 -0.0017784415977075696 -0.03037671186029911
v -0.058774154633283615 0.012066435068845749 -0.026850000023841858
v -0.058774154633283615 0.012066435068845749 -0.01484999991953373
v -0.05863633006811142 -0.0017726722871884704 -0.010735503397881985
v -0.058635920286178589 0.0050630061887204647 -0.03037671186029911
v -0.058486491441726685 0.012007378973066807 -0.028704101219773293
v -0.058445647358894348 0.0050465790554881096 -0.010735503397881985
v -0.058438550680875778 0.01199753675609827 -0.012686881236732006
v -0.058222990483045578 -0.0085958382114768028 -0.03037671186029911
v -0.058034054934978485 -0.0085679469630122185 -0.010735503397881985
v -0.057937908917665482 -0.015594829805195332 -0.026850000023841858
v -0.057937908917665482 -0.015594829805195332 -0.01484999991953373
v -0.057654339820146561 -0.015518505126237869 -0.028704101219773293
v -0.057651665061712265 0.011835986748337746 -0.03037671186029911
v -0.057607080787420273 -0.015505784191191196 -0.012686881236732006
v -0.057500440627336502 -0.0017383310478180647 -0.031704101711511612
v -0.057464584708213806 0.011797581799328327 -0.010735503397881985
v -0.057313453406095505 0.0049488148652017117 -0.031704101711511612
v -0.057303451001644135 0.017785238102078438 -0.026850000023841858
v -0.057303451001644135 0.017785238102078438 -0.01484999991953373
v -0.057088416069746017 -0.0017258757725358009 -0.0091868815943598747
v -0.056975916028022766 0.018808109685778618 -0.026850000023841858
v -0.056975916028022766 0.018808109685778618 -0.01484999991953373
v -0.056909836828708649 -0.0084019703790545464 -0.031704101711511612
v -0.05690276250243187 0.0049133552238345146 -0.0091868815943598747
v -0.056831393390893936 -0.015296994708478451 -0.03037671186029911
v -0.056697055697441101 0.018716055899858475 -0.028704101219773293
v -0.05665057897567749 0.018700713291764259 -0.012686881236732006
v -0.056646972894668579 -0.01524735614657402 -0.010735503397881985
v -0.056502040475606918 -0.0083417678251862526 -0.0091868815943598747
v -0.056495171040296555 -0.020206326618790627 -0.026850000023841858
v -0.056495171040296555 -0.020206326618790627 -0.01484999991953373
v -0.056351397186517715 0.011569038033485413 -0.031704101711511612
v -0.055947605520486832 0.01148613914847374 -0.0091868815943598747
v -0.055887773633003235 0.018448906019330025 -0.03037671186029911
v -0.055828597396612167 -0.0016877878224477172 -0.032556340098381042
v -0.055735703557729721 -0.022215565666556358 -0.026850000023841858
v -0.055735703557729721 -0.022215565666556358 -0.01484999991953373
v -0.055706415325403214 0.018389040604233742 -0.010735503397881985
v -0.055647041648626328 0.0048049283213913441 -0.032556340098381042
v -0.05554962158203125 -0.014951987192034721 -0.031704101711511612
v -0.055462915450334549 -0.02210683561861515 -0.028704101219773293
v -0.055417448282241821 -0.022088712081313133 -0.012686881236732006
v -0.055255163460969925 -0.0081576816737651825 -0.032556340098381042
v -0.055151574313640594 -0.014844847843050957 -0.0091868815943598747
v -0.055137928575277328 -0.0016669087344780564 -0.0081926044076681137
v -0.05495862290263176 0.0047454857267439365 -0.0081926044076681137
v -0.054712958633899689 0.011232667602598667 -0.032556340098381042
v -0.054671246558427811 -0.021791286766529083 -0.03037671186029911
v -0.054627284407615662 0.01803281158208847 -0.031704101711511612
v -0.054571587592363358 -0.0080567607656121254 -0.0081926044076681137
v -0.054493837058544159 -0.02172057144343853 -0.010735503397881985
v -0.054407175630331039 0.025295436382293701 -0.026850000023841858
v -0.054407175630331039 0.025295436382293701 -0.01484999991953373
v -0.054235845804214478 0.017903596162796021 -0.0091868815943598747
v -0.054140888154506683 0.025171631947159767 -0.028704101219773293
v -0.054096508771181107 0.025150997564196587 -0.012686881236732006
v -0.05403609573841095 0.011093704961240292 -0.0081926044076681137
v -0.053975339978933334 -0.0016317600384354591 -0.032850001007318497
v -0.053934499621391296 -0.014517256058752537 -0.032556340098381042
v -0.053799811750650406 0.0046454258263111115 -0.032850001007318497
v -0.053708434104919434 0.026747042313218117 -0.026850000023841858
v -0.053708434104919434 0.026747042313218117 -0.01484999991953373
v -0.053438194096088409 -0.021299805492162704 -0.031704101711511612
v -0.053420942276716232 -0.0078868819400668144 -0.032850001007318497
v -0.053368091583251953 0.024812337011098862 -0.03037671186029911
v -0.053267262876033783 -0.014337657019495964 -0.0081926044076681137
v -0.053194910287857056 0.024731820449233055 -0.010735503397881985
v -0.053055278956890106 -0.02114718034863472 -0.0091868815943598747
v -0.053038977086544037 0.017508501186966896 -0.032556340098381042
v -0.052975796163082123 -0.0016015430446714163 -0.0078500006347894669
v -0.052896738052368164 0.010859793052077293 -0.032850001007318497
v -0.052803520113229752 0.0045594004914164543 -0.0078500006347894669
v -0.052779771387577057 -0.028535870835185051 -0.026850000023841858
v -0.052779771387577057 -0.028535870835185051 -0.01484999991953373
v -0.052522249519824982 -0.029007121920585632 -0.026850000023841858
v -0.052522249519824982 -0.029007121920585632 -0.01484999991953373
v -0.052521448582410812 -0.028396207839250565 -0.028704101219773293
v -0.052478395402431488 -0.028372930362820625 -0.012686881236732006
v -0.052431665360927582 -0.0077408277429640293 -0.0078500006347894669
v -0.052382819354534149 0.017291901633143425 -0.0081926044076681137
v -0.052164431661367416 0.024252722039818764 -0.031704101711511612
v -0.052144117653369904 -0.014035346917808056 -0.032850001007318497
v -0.051917169243097305 0.010658686049282551 -0.0078500006347894669
v -0.05188446119427681 -0.020680505782365799 -0.032556340098381042
v -0.051790643483400345 0.024078935384750366 -0.0091868815943598747
v -0.051771767437458038 -0.027990885078907013 -0.03037671186029911
v -0.051603764295578003 -0.027900053188204765 -0.010735503397881985
v -0.05127832293510437 0.016927300021052361 -0.032850001007318497
v -0.051242589950561523 -0.02042466402053833 -0.0081926044076681137
v -0.051178485155105591 -0.013775433413684368 -0.0078500006347894669
v -0.051102675497531891 0.03144068643450737 -0.026850000023841858
v -0.051102675497531891 0.03144068643450737 -0.01484999991953373
v -0.050852559506893158 0.031286802142858505 -0.028704101219773293
v -0.050810873508453369 0.031261157244443893 -0.012686881236732006
v -0.050647731870412827 0.023547563701868057 -0.032556340098381042
v -0.050604108721017838 -0.027359578758478165 -0.031704101711511612
v -0.050328724086284637 0.016613829880952835 -0.0078500006347894669
v -0.05024150013923645 -0.027163531631231308 -0.0091868815943598747
v -0.050162132829427719 -0.019994007423520088 -0.032850001007318497
v -0.050126697868108749 0.030840221792459488 -0.03037671186029911
v -0.050021160393953323 0.023256251588463783 -0.0081926044076681137
v -0.049964036792516708 0.030740145593881607 -0.010735503397881985
v -0.049233205616474152 -0.019623748958110809 -0.0078500006347894669
v -0.049132779240608215 -0.026564091444015503 -0.032556340098381042
v -0.049110077321529388 -0.034470278769731522 -0.026850000023841858
v -0.049110077321529388 -0.034470278769731522 -0.01484999991953373
v -0.048996146768331528 0.030144654214382172 -0.031704101711511612
v -0.048966459929943085 0.022765893489122391 -0.032850001007318497
v -0.048869717866182327 -0.034301571547985077 -0.028704101219773293
v -0.048829656094312668 -0.034273449331521988 -0.012686881236732006
v -0.048722393810749054 0.03501611202955246 -0.026850000023841858
v -0.048722393810749054 0.03501611202955246 -0.01484999991953373
v -0.048645060509443283 0.029928648844361305 -0.0091868815943598747
v -0.048524945974349976 -0.026235461235046387 -0.0081926044076681137
v -0.048172160983085632 -0.033811956644058228 -0.03037671186029911
v -0.048059672117233276 0.022344302386045456 -0.0078500006347894669
v -0.048015840351581573 -0.033702235668897629 -0.010735503397881985
v -0.047571565955877304 0.029268188402056694 -0.032556340098381042
v -0.047501791268587112 -0.025682283565402031 -0.032850001007318497
v -0.047189034521579742 -0.037056650966405869 -0.026850000023841858
v -0.047189034521579742 -0.037056650966405869 -0.01484999991953373
v -0.047107093036174774 0.037160750478506088 -0.026850000023841858
v -0.047107093036174774 0.037160750478506088 -0.01484999991953373
v -0.047085687518119812 -0.033049363642930984 -0.031704101711511612
v -0.046983048319816589 0.02890610508620739 -0.0081926044076681137
v -0.046876538544893265 0.036978878080844879 -0.028704101219773293
v -0.046838108450174332 0.036948561668395996 -0.012686881236732006
v -0.046748291701078415 -0.032812543213367462 -0.0091868815943598747
v -0.046622131019830704 -0.025206686928868294 -0.0078500006347894669
v -0.046207431703805923 0.036451045423746109 -0.03037671186029911
v -0.046057485044002533 0.036332763731479645 -0.010735503397881985
v -0.045992407947778702 0.028296615928411484 -0.032850001007318497
v -0.045716658234596252 -0.032088443636894226 -0.032556340098381042
v -0.045165270566940308 0.035628929734230042 -0.031704101711511612
v -0.045151084661483765 -0.031691469252109528 -0.0081926044076681137
v -0.045140694826841354 0.027772605419158936 -0.0078500006347894669
v -0.04484163224697113 0.03537362813949585 -0.0091868815943598747
v -0.044776257127523422 -0.039938535541296005 -0.026850000023841858
v -0.044776257127523422 -0.039938535541296005 -0.01484999991953373
v -0.044557109475135803 -0.039743062108755112 -0.028704101219773293
v -0.044520583003759384 -0.039710484445095062 -0.012686881236732006
v -0.044199071824550629 -0.031023250892758369 -0.032850001007318497
v -0.043921109288930893 -0.03917577862739563 -0.03037671186029911
v -0.043852075934410095 0.034593008458614349 -0.032556340098381042
v -0.043778583407402039 -0.039048649370670319 -0.010735503397881985
v -0.043380569666624069 -0.030448747798800468 -0.0078500006347894669
v -0.043309569358825684 0.034165050834417343 -0.0081926044076681137
v -0.042930513620376587 -0.038292210549116135 -0.031704101711511612
v -0.042622890323400497 -0.038017820566892624 -0.0091868815943598747
v -0.042474471032619476 0.04237828403711319 -0.026850000023841858
v -0.042474471032619476 0.04237828403711319 -0.01484999991953373
v -0.042396385222673416 0.033444676548242569 -0.032850001007318497
v -0.042266588658094406 0.042170871049165726 -0.028704101219773293
v -0.042231939733028412 0.042136300355195999 -0.012686881236732006
v -0.041682295501232147 -0.037178851664066315 -0.032556340098381042
v -0.041663285344839096 0.041568934917449951 -0.03037671186029911
v -0.041611269116401672 0.032825332134962082 -0.0078500006347894669
v -0.041528083384037018 0.041434038430452347 -0.010735503397881985
v -0.041166637092828751 -0.036718904972076416 -0.0081926044076681137
v -0.040723614394664764 0.040631391108036041 -0.031704101711511612
v -0.040633641183376312 -0.044146426022052765 -0.026850000023841858
v -0.040633641183376312 -0.044146426022052765 -0.01484999991953373
v -0.040431804955005646 0.04034024104475975 -0.0091868815943598747
v -0.040298633277416229 -0.035944681614637375 -0.032850001007318497
v -0.039836917072534561 -0.044866692274808884 -0.026850000023841858
v -0.039836917072534561 -0.044866692274808884 -0.01484999991953373
v -0.039641942828893661 -0.044647097587585449 -0.028704101219773293
v -0.039609447121620178 -0.044610500335693359 -0.012686881236732006
v -0.039552360773086548 -0.035279039293527603 -0.0078500006347894669
v -0.039539556950330734 0.039450015872716904 -0.032556340098381042
v -0.039076101034879684 -0.04400981217622757 -0.03037671186029911
v -0.039050407707691193 0.038961973041296005 -0.0081926044076681137
v -0.038949295878410339 -0.043866999447345734 -0.010735503397881985
v -0.038227025419473648 0.03814045712351799 -0.032850001007318497
v -0.038194779306650162 -0.043017219752073288 -0.031704101711511612
v -0.037921089679002762 -0.042708974331617355 -0.0091868815943598747
v -0.037519119679927826 0.037434153258800507 -0.0078500006347894669
v -0.037267457693815231 0.047022722661495209 -0.026850000023841858
v -0.037267457693815231 0.047022722661495209 -0.01484999991953373
v -0.037085060030221939 0.046792581677436829 -0.028704101219773293
v -0.037084251642227173 -0.04176647961139679 -0.032556340098381042
v -0.037054657936096191 0.046754222363233566 -0.012686881236732006
v -0.03662547841668129 -0.041249778121709824 -0.0081926044076681137
v -0.036555714905261993 0.046124670654535294 -0.03037671186029911
v -0.036437090486288071 0.045974995940923691 -0.010735503397881985
v -0.035853225737810135 -0.040380023419857025 -0.032850001007318497
v -0.035731237381696701 0.045084375888109207 -0.031704101711511612
v -0.035475201904773712 0.04476131871342659 -0.0091868815943598747
v -0.035189274698495865 -0.039632242172956467 -0.0078500006347894669
v -0.035126484930515289 0.048642881214618683 -0.026850000023841858
v -0.035126484930515289 0.048642881214618683 -0.01484999991953373
v -0.034692339599132538 0.043773535639047623 -0.032556340098381042
v -0.034358847886323929 -0.049188103526830673 -0.026850000023841858
v -0.034358847886323929 -0.049188103526830673 -0.01484999991953373
v -0.034263152629137039 0.04323200136423111 -0.0081926044076681137
v -0.03419068455696106 -0.04894736036658287 -0.028704101219773293
v -0.034162659198045731 -0.048907235264778137 -0.012686881236732006
v -0.033702656626701355 -0.048248693346977234 -0.03037671186029911
v -0.03359328955411911 -0.048092126846313477 -0.010735503397881985
v -0.033540710806846619 0.042320452630519867 -0.032850001007318497
v -0.033025860786437988 -0.050092838704586029 -0.026850000023841858
v -0.033025860786437988 -0.050092838704586029 -0.01484999991953373
v -0.032942526042461395 -0.047160495072603226 -0.031704101711511612
v -0.032919589430093765 0.041536740958690643 -0.0078500006347894669
v -0.032706473022699356 -0.04682256281375885 -0.0091868815943598747
v -0.031984712928533554 -0.045789290219545364 -0.032556340098381042
v -0.031589020043611526 -0.045222818851470947 -0.0081926044076681137
v -0.031556464731693268 0.051031261682510376 -0.026850000023841858
v -0.031556464731693268 0.051031261682510376 -0.01484999991953373
v -0.031402014195919037 0.050781495869159698 -0.028704101219773293
v -0.031376272439956665 0.050739869475364685 -0.012686881236732006
v -0.030953787267208099 0.05005665123462677 -0.03037671186029911
v -0.030922964215278625 -0.044269293546676636 -0.032850001007318497
v -0.03085334412753582 0.049894217401742935 -0.010735503397881985
v -0.030350318178534508 -0.043449491262435913 -0.0078500006347894669
v -0.030255658552050591 0.048927675932645798 -0.031704101711511612
v -0.030038857832551003 0.04857708141207695 -0.0091868815943598747
v -0.029375964775681496 0.047505088150501251 -0.032556340098381042
v -0.029012549668550491 0.046917393803596497 -0.0081926044076681137
v -0.028416136279702187 -0.052844330668449402 -0.026850000023841858
v -0.028416136279702187 -0.052844330668449402 -0.01484999991953373
v -0.028400816023349762 0.045928135514259338 -0.032850001007318497
v -0.028277058154344559 -0.052585691213607788 -0.028704101219773293
v -0.028253879398107529 -0.052542585879564285 -0.012686881236732006
v -0.02787487581372261 0.045077614486217499 -0.0078500006347894669
v -0.027873435989022255 -0.051835093647241592 -0.03037671186029911
v -0.0277829859405756 -0.051666885614395142 -0.010735503397881985
v -0.027244780212640762 -0.050666008144617081 -0.031704101711511612
v -0.027049556374549866 -0.050302956253290176 -0.0091868815943598747
v -0.026868740096688271 0.053647655993700027 -0.026850000023841858
v -0.026868740096688271 0.053647655993700027 -0.01484999991953373
v -0.026452630758285522 -0.049192875623703003 -0.032556340098381042
v -0.026125378906726837 -0.048584301024675369 -0.0081926044076681137
v -0.025574523955583572 -0.047559898346662521 -0.032850001007318497
v -0.025418721139431 0.054349686950445175 -0.026850000023841858
v -0.025418721139431 0.054349686950445175 -0.01484999991953373
v -0.025294313207268715 0.054083682596683502 -0.028704101219773293
v -0.025273578241467476 0.054039347916841507 -0.012686881236732006
v -0.025100922212004662 -0.046679157763719559 -0.0078500006347894669
v -0.024933269247412682 0.053311701864004135 -0.03037671186029911
v -0.024852357804775238 0.053138703107833862 -0.010735503397881985
v -0.024562729522585869 -0.054741870611906052 -0.026850000023841858
v -0.024562729522585869 -0.054741870611906052 -0.01484999991953373
v -0.02437092550098896 0.052109312266111374 -0.031704101711511612
v -0.024196291342377663 0.051735918968915939 -0.0091868815943598747
v -0.023662330582737923 0.050594214349985123 -0.032556340098381042
v -0.023369599133729935 0.049968305975198746 -0.0081926044076681137
v -0.02287684939801693 0.048914719372987747 -0.032850001007318497
v -0.022453203797340393 0.048008888959884644 -0.0078500006347894669
v -0.022089146077632904 -0.055785927921533585 -0.026850000023841858
v -0.022089146077632904 -0.055785927921533585 -0.01484999991953373
v -0.021981034427881241 -0.055512893944978714 -0.028704101219773293
v -0.021963013336062431 -0.055467385798692703 -0.012686881236732006
v -0.021667281165719032 -0.054720509797334671 -0.03037671186029911
v -0.021596970036625862 -0.054542943835258484 -0.010735503397881985
v -0.021178597584366798 -0.053486347198486328 -0.031704101711511612
v -0.021026840433478355 -0.053103085607290268 -0.0091868815943598747
v -0.020562821999192238 -0.051931213587522507 -0.032556340098381042
v -0.020308436825871468 -0.051288764923810959 -0.0081926044076681137
v -0.019880229607224464 -0.050207335501909256 -0.032850001007318497
v -0.019512077793478966 -0.049277566373348236 -0.0078500006347894669
v -0.018937235698103905 0.056933127343654633 -0.026850000023841858
v -0.018937235698103905 0.056933127343654633 -0.01484999991953373
v -0.018844550475478172 0.05665447935461998 -0.028704101219773293
v -0.018829101696610451 0.056608036160469055 -0.012686881236732006
v -0.01857556588947773 0.055845804512500763 -0.03037671186029911
v -0.018515290692448616 0.055664584040641785 -0.010735503397881985
v -0.018156614154577255 0.054586261510848999 -0.031704101711511612
v -0.018026512116193771 0.054195117205381393 -0.0091868815943598747
v -0.017915109172463417 0.057262983173131943 -0.026850000023841858
v -0.017915109172463417 0.057262983173131943 -0.01484999991953373
v -0.017628705129027367 0.052999146282672882 -0.032556340098381042
v -0.01741061732172966 0.052343480288982391 -0.0081926044076681137
v -0.017043512314558029 0.051239814609289169 -0.032850001007318497
v -0.016727890819311142 0.050290931016206741 -0.0078500006347894669
v -0.015463434159755707 -0.057973112910985947 -0.026850000023841858
v -0.015463434159755707 -0.057973112910985947 -0.01484999991953373
v -0.015387753024697304 -0.057689376175403595 -0.028704101219773293
v -0.015375139191746712 -0.057642087340354919 -0.012686881236732006
v -0.015168108977377415 -0.056865926831960678 -0.03037671186029911
v -0.015118888579308987 -0.056681394577026367 -0.010735503397881985
v -0.014826009050011635 -0.055583376437425613 -0.031704101711511612
v -0.014719772152602673 -0.055185090750455856 -0.0091868815943598747
v -0.014394939877092838 -0.053967274725437164 -0.032556340098381042
v -0.014216854237020016 -0.053299631923437119 -0.0081926044076681137
v -0.013917091302573681 -0.052175804972648621 -0.032850001007318497
v -0.013659368269145489 -0.051209583878517151 -0.0078500006347894669
v -0.012199655175209045 0.058746647089719772 -0.026850000023841858
v -0.012199655175209045 0.058746647089719772 -0.01484999991953373
v -0.012139947153627872 0.058459118008613586 -0.028704101219773293
v -0.012129995971918106 0.058411199599504471 -0.012686881236732006
v -0.011966662481427193 0.057624682784080505 -0.03037671186029911
v -0.011927833780646324 0.05743769183754921 -0.010735503397881985
v -0.011696766130626202 0.056325022131204605 -0.031704101711511612
v -0.011612952686846256 0.055921420454978943 -0.0091868815943598747
v -0.011356682516634464 0.054687350988388062 -0.032556340098381042
v -0.011216185055673122 0.054010804742574692 -0.0081926044076681137
v -0.01097969152033329 0.052871983498334885 -0.032850001007318497
v -0.01077636331319809 0.051892869174480438 -0.0078500006347894669
v -0.0086286086589097977 -0.059376314282417297 -0.026850000023841858
v -0.0086286086589097977 -0.059376314282417297 -0.01484999991953373
v -0.0085863778367638588 -0.05908571183681488 -0.028704101219773293
v -0.008579338900744915 -0.05903727188706398 -0.012686881236732006
v -0.008497484028339386 0.05939522385597229 -0.026850000023841858
v -0.008497484028339386 0.05939522385597229 -0.01484999991953373
v -0.0084638148546218872 -0.058242332190275192 -0.03037671186029911
v -0.008436352014541626 -0.058053333312273026 -0.010735503397881985
v -0.0082729244604706764 -0.056928738951683044 -0.031704101711511612
v -0.0082136467099189758 -0.056520808488130569 -0.0091868815943598747
v -0.0080323880538344383 -0.055273517966270447 -0.032556340098381042
v -0.0079330168664455414 -0.054589711129665375 -0.0081926044076681137
v -0.0077657471410930157 -0.053438685834407806 -0.032850001007318497
v -0.0076219365000724792 -0.052449081093072891 -0.0078500006347894669
v -0.0059636449441313744 -0.059702888131141663 -0.026850000023841858
v -0.0059636449441313744 -0.059702888131141663 -0.01484999991953373
v -0.0052970969118177891 0.059765715152025223 -0.026850000023841858
v -0.0052970969118177891 0.059765715152025223 -0.01484999991953373
v -0.005271171685308218 0.059473201632499695 -0.028704101219773293
v -0.0052668489515781403 0.059424448758363724 -0.012686881236732006
v -0.0051959306001663208 0.058624289929866791 -0.03037671186029911
v -0.0051790722645819187 0.058434054255485535 -0.010735503397881985
v -0.0050787413492798805 0.057302083820104599 -0.031704101711511612
v -0.0050423508509993553 0.056891478598117828 -0.0091868815943598747
v -0.0049310768954455853 0.055636007338762283 -0.032556340098381042
v -0.0048700743354856968 0.05494772270321846 -0.0081926044076681137
v -0.0047673871740698814 0.053789142519235611 -0.032850001007318497
v -0.0046791033819317818 0.052793048322200775 -0.0078500006347894669
v -0.0016770975198596716 -0.05997655913233757 -0.026850000023841858
v -0.0016770975198596716 -0.05997655913233757 -0.01484999991953373
v -0.0016688876785337925 -0.05968300998210907 -0.028704101219773293
v -0.0016675180522724986 -0.05963408574461937 -0.012686881236732006
v -0.0016450657276436687 -0.058831106871366501 -0.03037671186029911
v -0.001639729249291122 -0.058640196919441223 -0.010735503397881985
v -0.0016079632332548499 -0.057504236698150635 -0.031704101711511612
v -0.0015964421909302473 -0.057092182338237762 -0.0091868815943598747
v -0.0015612106071785092 -0.055832277983427048 -0.032556340098381042
v -0.0015418974217027426 -0.055141568183898926 -0.0081926044076681137
v -0.0015093846013769507 -0.053978901356458664 -0.032850001007318497
v -0.001481433748267591 -0.05297929048538208 -0.0078500006347894669
v 0.0011402189265936613 0.059989165514707565 -0.026850000023841858
v 0.0011402189265936613 0.059989165514707565 -0.01484999991953373
v 0.001481433748267591 0.05297929048538208 -0.0078500006347894669
v 0.0015093846013769507 0.053978901356458664 -0.032850001007318497
v 0.0015418974217027426 0.055141568183898926 -0.0081926044076681137
v 0.0015612106071785092 0.055832277983427048 -0.032556340098381042
v 0.0015964421909302473 0.057092182338237762 -0.0091868815943598747
v 0.0016079632332548499 0.057504236698150635 -0.031704101711511612
v 0.001639729249291122 0.058640196919441223 -0.010735503397881985
v 0.0016450657276436687 0.058831106871366501 -0.03037671186029911
v 0.0016675180522724986 0.05963408574461937 -0.012686881236732006
v 0.0016688876785337925 0.05968300998210907 -0.028704101219773293
v 0.0016770975198596716 0.05997655913233757 -0.026850000023841858
v 0.0016770975198596716 0.05997655913233757 -0.01484999991953373
v 0.0036905973684042692 -0.0598863884806633 -0.026850000023841858
v 0.0036905973684042692 -0.0598863884806633 -0.01484999991953373
v 0.0046791033819317818 -0.052793048322200775 -0.0078500006347894669
v 0.0047673871740698814 -0.053789142519235611 -0.032850001007318497
v 0.0048700743354856968 -0.05494772270321846 -0.0081926044076681137
v 0.0049310768954455853 -0.055636007338762283 -0.032556340098381042
v 0.0050423508509993553 -0.056891478598117828 -0.0091868815943598747
v 0.0050787413492798805 -0.057302083820104599 -0.031704101711511612
v 0.0051790722645819187 -0.058434054255485535 -0.010735503397881985
v 0.0051959306001663208 -0.058624289929866791 -0.03037671186029911
v 0.0052668489515781403 -0.059424448758363724 -0.012686881236732006
v 0.005271171685308218 -0.059473201632499695 -0.028704101219773293
v 0.0052970969118177891 -0.059765715152025223 -0.026850000023841858
v 0.0052970969118177891 -0.059765715152025223 -0.01484999991953373
v 0.0076219365000724792 0.052449081093072891 -0.0078500006347894669
v 0.0077657471410930157 0.053438685834407806 -0.032850001007318497
v 0.0079330168664455414 0.054589711129665375 -0.0081926044076681137
v 0.0080323880538344383 0.055273517966270447 -0.032556340098381042
v 0.0082136467099189758 0.056520808488130569 -0.0091868815943598747
v 0.0082729244604706764 0.056928738951683044 -0.031704101711511612
v 0.008436352014541626 0.058053333312273026 -0.010735503397881985
v 0.0084638148546218872 0.058242332190275192 -0.03037671186029911
v 0.008579338900744915 0.05903727188706398 -0.012686881236732006
v 0.0085863778367638588 0.05908571183681488 -0.028704101219773293
v 0.0086286086589097977 0.059376314282417297 -0.026850000023841858
v 0.0086286086589097977 0.059376314282417297 -0.01484999991953373
v 0.010748394764959812 0.059029415249824524 -0.026850000023841858
v 0.010748394764959812 0.059029415249824524 -0.01484999991953373
v 0.01077636331319809 -0.051892869174480438 -0.0078500006347894669
v 0.01097969152033329 -0.052871983498334885 -0.032850001007318497
v 0.011216185055673122 -0.054010804742574692 -0.0081926044076681137
v 0.011356682516634464 -0.054687350988388062 -0.032556340098381042
v 0.011612952686846256 -0.055921420454978943 -0.0091868815943598747
v 0.011696766130626202 -0.056325022131204605 -0.031704101711511612
v 0.011927833780646324 -0.05743769183754921 -0.010735503397881985
v 0.011966662481427193 -0.057624682784080505 -0.03037671186029911
v 0.012129995971918106 -0.058411199599504471 -0.012686881236732006
v 0.012139947153627872 -0.058459118008613586 -0.028704101219773293
v 0.012199655175209045 -0.058746647089719772 -0.026850000023841858
v 0.012199655175209045 -0.058746647089719772 -0.01484999991953373
v 0.013249257579445839 -0.05851886048913002 -0.026850000023841858
v 0.013249257579445839 -0.05851886048913002 -0.01484999991953373
v 0.013659368269145489 0.051209583878517151 -0.0078500006347894669
v 0.013917091302573681 0.052175804972648621 -0.032850001007318497
v 0.014216854237020016 0.053299631923437119 -0.0081926044076681137
v 0.014394939877092838 0.053967274725437164 -0.032556340098381042
v 0.014719772152602673 0.055185090750455856 -0.0091868815943598747
v 0.014826009050011635 0.055583376437425613 -0.031704101711511612
v 0.015118888579308987 0.056681394577026367 -0.010735503397881985
v 0.015168108977377415 0.056865926831960678 -0.03037671186029911
v 0.015375139191746712 0.057642087340354919 -0.012686881236732006
v 0.015387753024697304 0.057689376175403595 -0.028704101219773293
v 0.015463434159755707 0.057973112910985947 -0.026850000023841858
v 0.015463434159755707 0.057973112910985947 -0.01484999991953373
v 0.016727890819311142 -0.050290931016206741 -0.0078500006347894669
v 0.017043512314558029 -0.051239814609289169 -0.032850001007318497
v 0.01741061732172966 -0.052343480288982391 -0.0081926044076681137
v 0.017628705129027367 -0.052999146282672882 -0.032556340098381042
v 0.018026512116193771 -0.054195117205381393 -0.0091868815943598747
v 0.018156614154577255 -0.054586261510848999 -0.031704101711511612
v 0.018515290692448616 -0.055664584040641785 -0.010735503397881985
v 0.01857556588947773 -0.055845804512500763 -0.03037671186029911
v 0.018829101696610451 -0.056608036160469055 -0.012686881236732006
v 0.018844550475478172 -0.05665447935461998 -0.028704101219773293
v 0.018937235698103905 -0.056933127343654633 -0.026850000023841858
v 0.018937235698103905 -0.056933127343654633 -0.01484999991953373
v 0.019512077793478966 0.049277566373348236 -0.0078500006347894669
v 0.019880229607224464 0.050207335501909256 -0.032850001007318497
v 0.020078189671039581 0.056540839374065399 -0.026850000023841858
v 0.020078189671039581 0.056540839374065399 -0.01484999991953373
v 0.020308436825871468 0.051288764923810959 -0.0081926044076681137
v 0.020562821999192238 0.051931213587522507 -0.032556340098381042
v 0.021026840433478355 0.053103085607290268 -0.0091868815943598747
v 0.021178597584366798 0.053486347198486328 -0.031704101711511612
v 0.021596970036625862 0.054542943835258484 -0.010735503397881985
v 0.021667281165719032 0.054720509797334671 -0.03037671186029911
v 0.021963013336062431 0.055467385798692703 -0.012686881236732006
v 0.021981034427881241 0.055512893944978714 -0.028704101219773293
v 0.022089146077632904 0.055785927921533585 -0.026850000023841858
v 0.022089146077632904 0.055785927921533585 -0.01484999991953373
v 0.022453203797340393 -0.048008888959884644 -0.0078500006347894669
v 0.022464768961071968 -0.055635727941989899 -0.026850000023841858
v 0.022464768961071968 -0.055635727941989899 -0.01484999991953373
v 0.02287684939801693 -0.048914719372987747 -0.032850001007318497
v 0.023369599133729935 -0.049968305975198746 -0.0081926044076681137
v 0.023662330582737923 -0.050594214349985123 -0.032556340098381042
v 0.024196291342377663 -0.051735918968915939 -0.0091868815943598747
v 0.02437092550098896 -0.052109312266111374 -0.031704101711511612
v 0.024852357804775238 -0.053138703107833862 -0.010735503397881985
v 0.024933269247412682 -0.053311701864004135 -0.03037671186029911
v 0.025100922212004662 0.046679157763719559 -0.0078500006347894669
v 0.025273578241467476 -0.054039347916841507 -0.012686881236732006
v 0.025294313207268715 -0.054083682596683502 -0.028704101219773293
v 0.025418721139431 -0.054349686950445175 -0.026850000023841858
v 0.025418721139431 -0.054349686950445175 -0.01484999991953373
v 0.025574523955583572 0.047559898346662521 -0.032850001007318497
v 0.026125378906726837 0.048584301024675369 -0.0081926044076681137
v 0.026452630758285522 0.049192875623703003 -0.032556340098381042
v 0.027049556374549866 0.050302956253290176 -0.0091868815943598747
v 0.027244780212640762 0.050666008144617081 -0.031704101711511612
v 0.0277829859405756 0.051666885614395142 -0.010735503397881985
v 0.027873435989022255 0.051835093647241592 -0.03037671186029911
v 0.02787487581372261 -0.045077614486217499 -0.0078500006347894669
v 0.028253879398107529 0.052542585879564285 -0.012686881236732006
v 0.028277058154344559 0.052585691213607788 -0.028704101219773293
v 0.028400816023349762 -0.045928135514259338 -0.032850001007318497
v 0.028416136279702187 0.052844330668449402 -0.026850000023841858
v 0.028416136279702187 0.052844330668449402 -0.01484999991953373
v 0.028887970373034477 0.052587881684303284 -0.026850000023841858
v 0.028887970373034477 0.052587881684303284 -0.01484999991953373
v 0.029012549668550491 -0.046917393803596497 -0.0081926044076681137
v 0.029375964775681496 -0.047505088150501251 -0.032556340098381042
v 0.030038857832551003 -0.04857708141207695 -0.0091868815943598747
v 0.030255658552050591 -0.048927675932645798 -0.031704101711511612
v 0.030350318178534508 0.043449491262435913 -0.0078500006347894669
v 0.03085334412753582 -0.049894217401742935 -0.010735503397881985
v 0.030922964215278625 0.044269293546676636 -0.032850001007318497
v 0.030953787267208099 -0.05005665123462677 -0.03037671186029911
v 0.031098457053303719 -0.051311656832695007 -0.026850000023841858
v 0.031098457053303719 -0.051311656832695007 -0.01484999991953373
v 0.031376272439956665 -0.050739869475364685 -0.012686881236732006
v 0.031402014195919037 -0.050781495869159698 -0.028704101219773293
v 0.031556464731693268 -0.051031261682510376 -0.026850000023841858
v 0.031556464731693268 -0.051031261682510376 -0.01484999991953373
v 0.031589020043611526 0.045222818851470947 -0.0081926044076681137
v 0.031984712928533554 0.045789290219545364 -0.032556340098381042
v 0.032706473022699356 0.04682256281375885 -0.0091868815943598747
v 0.032919589430093765 -0.041536740958690643 -0.0078500006347894669
v 0.032942526042461395 0.047160495072603226 -0.031704101711511612
v 0.033540710806846619 -0.042320452630519867 -0.032850001007318497
v 0.03359328955411911 0.048092126846313477 -0.010735503397881985
v 0.033702656626701355 0.048248693346977234 -0.03037671186029911
v 0.034162659198045731 0.048907235264778137 -0.012686881236732006
v 0.03419068455696106 0.04894736036658287 -0.028704101219773293
v 0.034263152629137039 -0.04323200136423111 -0.0081926044076681137
v 0.034358847886323929 0.049188103526830673 -0.026850000023841858
v 0.034358847886323929 0.049188103526830673 -0.01484999991953373
v 0.034692339599132538 -0.043773535639047623 -0.032556340098381042
v 0.035189274698495865 0.039632242172956467 -0.0078500006347894669
v 0.035475201904773712 -0.04476131871342659 -0.0091868815943598747
v 0.035731237381696701 -0.045084375888109207 -0.031704101711511612
v 0.035853225737810135 0.040380023419857025 -0.032850001007318497
v 0.036437090486288071 -0.045974995940923691 -0.010735503397881985
v 0.036555714905261993 -0.046124670654535294 -0.03037671186029911
v 0.03662547841668129 0.041249778121709824 -0.0081926044076681137
v 0.036949567496776581 0.047272924333810806 -0.026850000023841858
v 0.036949567496776581 0.047272924333810806 -0.01484999991953373
v 0.037054657936096191 -0.046754222363233566 -0.012686881236732006
v 0.037084251642227173 0.04176647961139679 -0.032556340098381042
v 0.037085060030221939 -0.046792581677436829 -0.028704101219773293
v 0.037267457693815231 -0.047022722661495209 -0.026850000023841858
v 0.037267457693815231 -0.047022722661495209 -0.01484999991953373
v 0.037519119679927826 -0.037434153258800507 -0.0078500006347894669
v 0.037921089679002762 0.042708974331617355 -0.0091868815943598747
v 0.038194779306650162 0.043017219752073288 -0.031704101711511612
v 0.038227025419473648 -0.03814045712351799 -0.032850001007318497
v 0.038926705718040466 -0.045658640563488007 -0.026850000023841858
v 0.038926705718040466 -0.045658640563488007 -0.01484999991953373
v 0.038949295878410339 0.043866999447345734 -0.010735503397881985
v 0.039050407707691193 -0.038961973041296005 -0.0081926044076681137
v 0.039076101034879684 0.04400981217622757 -0.03037671186029911
v 0.039539556950330734 -0.039450015872716904 -0.032556340098381042
v 0.039552360773086548 0.035279039293527603 -0.0078500006347894669
v 0.039609447121620178 0.044610500335693359 -0.012686881236732006
v 0.039641942828893661 0.044647097587585449 -0.028704101219773293
v 0.039836917072534561 0.044866692274808884 -0.026850000023841858
v 0.039836917072534561 0.044866692274808884 -0.01484999991953373
v 0.040298633277416229 0.035944681614637375 -0.032850001007318497
v 0.040431804955005646 -0.04034024104475975 -0.0091868815943598747
v 0.040723614394664764 -0.040631391108036041 -0.031704101711511612
v 0.041166637092828751 0.036718904972076416 -0.0081926044076681137
v 0.041528083384037018 -0.041434038430452347 -0.010735503397881985
v 0.041611269116401672 -0.032825332134962082 -0.0078500006347894669
v 0.041663285344839096 -0.041568934917449951 -0.03037671186029911
v 0.041682295501232147 0.037178851664066315 -0.032556340098381042
v 0.042231939733028412 -0.042136300355195999 -0.012686881236732006
v 0.042266588658094406 -0.042170871049165726 -0.028704101219773293
v 0.042396385222673416 -0.033444676548242569 -0.032850001007318497
v 0.042474471032619476 -0.04237828403711319 -0.026850000023841858
v 0.042474471032619476 -0.04237828403711319 -0.01484999991953373
v 0.042622890323400497 0.038017820566892624 -0.0091868815943598747
v 0.042930513620376587 0.038292210549116135 -0.031704101711511612
v 0.043309569358825684 -0.034165050834417343 -0.0081926044076681137
v 0.043380569666624069 0.030448747798800468 -0.0078500006347894669
v 0.043778583407402039 0.039048649370670319 -0.010735503397881985
v 0.043852075934410095 -0.034593008458614349 -0.032556340098381042
v 0.043921109288930893 0.03917577862739563 -0.03037671186029911
v 0.044054191559553146 0.040733624249696732 -0.026850000023841858
v 0.044054191559553146 0.040733624249696732 -0.01484999991953373
v 0.044199071824550629 0.031023250892758369 -0.032850001007318497
v 0.044520583003759384 0.039710484445095062 -0.012686881236732006
v 0.044557109475135803 0.039743062108755112 -0.028704101219773293
v 0.044776257127523422 0.039938535541296005 -0.026850000023841858
v 0.044776257127523422 0.039938535541296005 -0.01484999991953373
v 0.04484163224697113 -0.03537362813949585 -0.0091868815943598747
v 0.045140694826841354 -0.027772605419158936 -0.0078500006347894669
v 0.045151084661483765 0.031691469252109528 -0.0081926044076681137
v 0.045165270566940308 -0.035628929734230042 -0.031704101711511612
v 0.045716658234596252 0.032088443636894226 -0.032556340098381042
v 0.045746777206659317 -0.038823090493679047 -0.026850000023841858
v 0.045746777206659317 -0.038823090493679047 -0.01484999991953373
v 0.045992407947778702 -0.028296615928411484 -0.032850001007318497
v 0.046057485044002533 -0.036332763731479645 -0.010735503397881985
v 0.046207431703805923 -0.036451045423746109 -0.03037671186029911
v 0.046622131019830704 0.025206686928868294 -0.0078500006347894669
v 0.046748291701078415 0.032812543213367462 -0.0091868815943598747
v 0.046838108450174332 -0.036948561668395996 -0.012686881236732006
v 0.046876538544893265 -0.036978878080844879 -0.028704101219773293
v 0.046983048319816589 -0.02890610508620739 -0.0081926044076681137
v 0.047085687518119812 0.033049363642930984 -0.031704101711511612
v 0.047107093036174774 -0.037160750478506088 -0.026850000023841858
v 0.047107093036174774 -0.037160750478506088 -0.01484999991953373
v 0.047501791268587112 0.025682283565402031 -0.032850001007318497
v 0.047571565955877304 -0.029268188402056694 -0.032556340098381042
v 0.048015840351581573 0.033702235668897629 -0.010735503397881985
v 0.048059672117233276 -0.022344302386045456 -0.0078500006347894669
v 0.048172160983085632 0.033811956644058228 -0.03037671186029911
v 0.048524945974349976 0.026235461235046387 -0.0081926044076681137
v 0.048645060509443283 -0.029928648844361305 -0.0091868815943598747
v 0.048829656094312668 0.034273449331521988 -0.012686881236732006
v 0.048869717866182327 0.034301571547985077 -0.028704101219773293
v 0.048966459929943085 -0.022765893489122391 -0.032850001007318497
v 0.048996146768331528 -0.030144654214382172 -0.031704101711511612
v 0.049110077321529388 0.034470278769731522 -0.026850000023841858
v 0.049110077321529388 0.034470278769731522 -0.01484999991953373
v 0.049132779240608215 0.026564091444015503 -0.032556340098381042
v 0.049233205616474152 0.019623748958110809 -0.0078500006347894669
v 0.049964036792516708 -0.030740145593881607 -0.010735503397881985
v 0.050017833709716797 0.033139348030090332 -0.026850000023841858
v 0.050017833709716797 0.033139348030090332 -0.01484999991953373
v 0.050021160393953323 -0.023256251588463783 -0.0081926044076681137
v 0.050126697868108749 -0.030840221792459488 -0.03037671186029911
v 0.050162132829427719 0.019994007423520088 -0.032850001007318497
v 0.05024150013923645 0.027163531631231308 -0.0091868815943598747
v 0.050328724086284637 -0.016613829880952835 -0.0078500006347894669
v 0.050604108721017838 0.027359578758478165 -0.031704101711511612
v 0.050647731870412827 -0.023547563701868057 -0.032556340098381042
v 0.050810873508453369 -0.031261157244443893 -0.012686881236732006
v 0.050852559506893158 -0.031286802142858505 -0.028704101219773293
v 0.051102675497531891 -0.03144068643450737 -0.026850000023841858
v 0.051102675497531891 -0.03144068643450737 -0.01484999991953373
v 0.051178485155105591 0.013775433413684368 -0.0078500006347894669
v 0.051242589950561523 0.02042466402053833 -0.0081926044076681137
v 0.05127832293510437 -0.016927300021052361 -0.032850001007318497
v 0.051382031291723251 -0.030982043594121933 -0.026850000023841858
v 0.051382031291723251 -0.030982043594121933 -0.01484999991953373
v 0.051603764295578003 0.027900053188204765 -0.010735503397881985
v 0.051771767437458038 0.027990885078907013 -0.03037671186029911
v 0.051790643483400345 -0.024078935384750366 -0.0091868815943598747
v 0.05188446119427681 0.020680505782365799 -0.032556340098381042
v 0.051917169243097305 -0.010658686049282551 -0.0078500006347894669
v 0.052144117653369904 0.014035346917808056 -0.032850001007318497
v 0.052164431661367416 -0.024252722039818764 -0.031704101711511612
v 0.052382819354534149 -0.017291901633143425 -0.0081926044076681137
v 0.052431665360927582 0.0077408277429640293 -0.0078500006347894669
v 0.052478395402431488 0.028372930362820625 -0.012686881236732006
v 0.052521448582410812 0.028396207839250565 -0.028704101219773293
v 0.052779771387577057 0.028535870835185051 -0.026850000023841858
v 0.052779771387577057 0.028535870835185051 -0.01484999991953373
v 0.052803520113229752 -0.0045594004914164543 -0.0078500006347894669
v 0.052896738052368164 -0.010859793052077293 -0.032850001007318497
v 0.052975796163082123 0.0016015430446714163 -0.0078500006347894669
v 0.053038977086544037 -0.017508501186966896 -0.032556340098381042
v 0.053055278956890106 0.02114718034863472 -0.0091868815943598747
v 0.053194910287857056 -0.024731820449233055 -0.010735503397881985
v 0.053267262876033783 0.014337657019495964 -0.0081926044076681137
v 0.053368091583251953 -0.024812337011098862 -0.03037671186029911
v 0.053420942276716232 0.0078868819400668144 -0.032850001007318497
v 0.053438194096088409 0.021299805492162704 -0.031704101711511612
v 0.053799811750650406 -0.0046454258263111115 -0.032850001007318497
v 0.053934499621391296 0.014517256058752537 -0.032556340098381042
v 0.053975339978933334 0.0016317600384354591 -0.032850001007318497
v 0.05403609573841095 -0.011093704961240292 -0.0081926044076681137
v 0.054096508771181107 -0.025150997564196587 -0.012686881236732006
v 0.054140888154506683 -0.025171631947159767 -0.028704101219773293
v 0.054235845804214478 -0.017903596162796021 -0.0091868815943598747
v 0.054407175630331039 -0.025295436382293701 -0.026850000023841858
v 0.054407175630331039 -0.025295436382293701 -0.01484999991953373
v 0.054493837058544159 0.02172057144343853 -0.010735503397881985
v 0.054571587592363358 0.0080567607656121254 -0.0081926044076681137
v 0.054627284407615662 -0.01803281158208847 -0.031704101711511612
v 0.054671246558427811 0.021791286766529083 -0.03037671186029911
v 0.054686043411493301 0.024686776101589203 -0.026850000023841858
v 0.054686043411493301 0.024686776101589203 -0.01484999991953373
v 0.054712958633899689 -0.011232667602598667 -0.032556340098381042
v 0.05495862290263176 -0.0047454857267439365 -0.0081926044076681137
v 0.055137928575277328 0.0016669087344780564 -0.0081926044076681137
v 0.055151574313640594 0.014844847843050957 -0.0091868815943598747
v 0.055255163460969925 0.0081576816737651825 -0.032556340098381042
v 0.055417448282241821 0.022088712081313133 -0.012686881236732006
v 0.055462915450334549 0.02210683561861515 -0.028704101219773293
v 0.05554962158203125 0.014951987192034721 -0.031704101711511612
v 0.055647041648626328 -0.0048049283213913441 -0.032556340098381042
v 0.05568651482462883 -0.02233857661485672 -0.026850000023841858
v 0.05568651482462883 -0.02233857661485672 -0.01484999991953373
v 0.055706415325403214 -0.018389040604233742 -0.010735503397881985
v 0.055735703557729721 0.022215565666556358 -0.026850000023841858
v 0.055735703557729721 0.022215565666556358 -0.01484999991953373
v 0.055828597396612167 0.0016877878224477172 -0.032556340098381042
v 0.055887773633003235 -0.018448906019330025 -0.03037671186029911
v 0.055947605520486832 -0.01148613914847374 -0.0091868815943598747
v 0.056351397186517715 -0.011569038033485413 -0.031704101711511612
v 0.056502040475606918 0.0083417678251862526 -0.0091868815943598747
v 0.056646972894668579 0.01524735614657402 -0.010735503397881985
v 0.05665057897567749 -0.018700713291764259 -0.012686881236732006
v 0.056697055697441101 -0.018716055899858475 -0.028704101219773293
v 0.056831393390893936 0.015296994708478451 -0.03037671186029911
v 0.05690276250243187 -0.0049133552238345146 -0.0091868815943598747
v 0.056909836828708649 0.0084019703790545464 -0.031704101711511612
v 0.056975916028022766 -0.018808109685778618 -0.026850000023841858
v 0.056975916028022766 -0.018808109685778618 -0.01484999991953373
v 0.057088416069746017 0.0017258757725358009 -0.0091868815943598747
v 0.057313453406095505 -0.0049488148652017117 -0.031704101711511612
v 0.057464584708213806 -0.011797581799328327 -0.010735503397881985
v 0.057500440627336502 0.0017383310478180647 -0.031704101711511612
v 0.057607080787420273 0.015505784191191196 -0.012686881236732006
v 0.057651665061712265 -0.011835986748337746 -0.03037671186029911
v 0.057654339820146561 0.015518505126237869 -0.028704101219773293
v 0.057937908917665482 0.015594829805195332 -0.026850000023841858
v 0.057937908917665482 0.015594829805195332 -0.01484999991953373
v 0.058034054934978485 0.0085679469630122185 -0.010735503397881985
v 0.058222990483045578 0.0085958382114768028 -0.03037671186029911
v 0.058438550680875778 -0.01199753675609827 -0.012686881236732006
v 0.058445647358894348 -0.0050465790554881096 -0.010735503397881985
v 0.058486491441726685 -0.012007378973066807 -0.028704101219773293
v 0.05854874849319458 -0.013116550631821156 -0.026850000023841858
v 0.05854874849319458 -0.013116550631821156 -0.01484999991953373
v 0.058635920286178589 -0.0050630061887204647 -0.03037671186029911
v 0.05863633006811142 0.0017726722871884704 -0.010735503397881985
v 0.058774154633283615 -0.012066435068845749 -0.026850000023841858
v 0.058774154633283615 -0.012066435068845749 -0.01484999991953373
v 0.058827228844165802 0.0017784415977075696 -0.03037671186029911
v 0.059017669409513474 0.0087131643667817116 -0.012686881236732006
v 0.059066090732812881 0.00872031319886446 -0.028704101219773293
v 0.059356600046157837 0.0087632033973932266 -0.026850000023841858
v 0.059356600046157837 0.0087632033973932266 -0.01484999991953373
v 0.059436235576868057 -0.0051321098580956459 -0.012686881236732006
v 0.059484999626874924 -0.0051363222301006317 -0.028704101219773293
v 0.059630151838064194 0.0018027143087238073 -0.012686881236732006
v 0.059679072350263596 0.0018041948787868023 -0.028704101219773293
v 0.059689216315746307 0.0060989861376583576 -0.026850000023841858
v 0.059689216315746307 0.0060989861376583576 -0.01484999991953373
v 0.059777569025754929 -0.0051615843549370766 -0.026850000023841858
v 0.059777569025754929 -0.0051615843549370766 -0.01484999991953373
v 0.05989459902048111 -0.0035548151936382055 -0.026850000023841858
v 0.05989459902048111 -0.0035548151936382055 -0.01484999991953373
v 0.059972599148750305 0.001813070266507566 -0.026850000023841858
v 0.059972599148750305 0.001813070266507566 -0.01484999991953373
f 1 2 6
f 1 3 2
f 1 5 9
f 1 6 5
f 1 7 3
f 1 9 7
f 2 3 4
f 2 4 8
f 2 8 10
f 2 10 6
f 3 7 15
f 3 13 4
f 3 15 13
f 4 13 14
f 4 14 8
f 5 6 11
f 5 11 9
f 6 10 12
f 6 12 11
f 7 9 19
f 7 19 15
f 8 14 16
f 8 16 22
f 8 22 25
f 8 25 10
f 9 11 24
f 9 23 19
f 9 24 32
f 9 32 23
f 10 25 26
f 10 26 12
f 11 12 21
f 11 20 24
f 11 21 20
f 12 26 21
f 13 15 17
f 13 17 14
f 14 17 18
f 14 18 16
f 15 19 27
f 15 27 44
f 15 31 17
f 15 44 31
f 16 18 33
f 16 28 22
f 16 33 28
f 17 29 30
f 17 30 18
f 17 31 29
f 18 30 33
f 19 23 36
f 19 34 42
f 19 36 34
f 19 42 27
f 20 21 37
f 20 37 24
f 21 26 38
f 21 38 37
f 22 28 48
f 22 39 25
f 22 48 39
f 23 32 51
f 23 51 36
f 24 37 45
f 24 45 53
f 24 53 32
f 25 35 26
f 25 39 43
f 25 43 52
f 25 52 35
f 26 35 57
f 26 46 38
f 26 57 46
f 27 42 44
f 28 33 47
f 28 47 48
f 29 31 49
f 29 49 30
f 30 49 50
f 30 50 33
f 31 44 60
f 31 60 49
f 32 53 51
f 33 50 61
f 33 61 70
f 33 70 47
f 34 36 54
f 34 54 42
f 35 52 57
f 36 51 66
f 36 58 54
f 36 66 58
f 37 38 41
f 37 40 45
f 37 41 40
f 38 46 41
f 39 48 69
f 39 64 65
f 39 65 43
f 39 69 64
f 40 41 71
f 40 71 74
f 40 74 45
f 41 46 75
f 41 72 71
f 41 75 72
f 42 54 62
f 42 59 44
f 42 62 78
f 42 78 59
f 43 65 52
f 44 59 67
f 44 67 60
f 45 74 53
f 46 57 75
f 47 63 48
f 47 70 87
f 47 87 63
f 48 63 85
f 48 85 69
f 49 55 56
f 49 56 50
f 49 60 55
f 50 56 61
f 51 53 68
f 51 68 88
f 51 88 66
f 52 65 76
f 52 73 57
f 52 76 73
f 53 74 84
f 53 84 100
f 53 100 68
f 54 58 79
f 54 77 83
f 54 79 77
f 54 83 62
f 55 60 92
f 55 92 56
f 56 92 93
f 56 93 97
f 56 97 61
f 57 73 104
f 57 86 75
f 57 104 86
f 58 66 90
f 58 90 79
f 59 78 82
f 59 82 67
f 60 67 105
f 60 96 92
f 60 105 96
f 61 97 70
f 62 83 78
f 63 87 108
f 63 108 85
f 64 69 98
f 64 89 65
f 64 98 89
f 65 89 91
f 65 91 102
f 65 102 76
f 66 88 90
f 67 82 105
f 68 100 88
f 69 85 98
f 70 97 106
f 70 106 87
f 71 72 80
f 71 80 74
f 72 75 81
f 72 81 80
f 73 76 99
f 73 99 104
f 74 80 112
f 74 112 84
f 75 86 121
f 75 113 81
f 75 121 113
f 76 102 116
f 76 116 99
f 77 79 83
f 78 83 101
f 78 101 118
f 78 103 82
f 78 118 103
f 79 90 107
f 79 101 83
f 79 107 127
f 79 118 101
f 79 127 151
f 79 138 118
f 79 151 171
f 79 161 138
f 79 171 193
f 79 183 161
f 79 193 219
f 79 205 183
f 79 219 241
f 79 232 205
f 79 241 267
f 79 253 232
f 79 267 293
f 79 279 253
f 79 293 317
f 79 305 279
f 79 317 345
f 79 331 305
f 79 345 362
f 79 357 331
f 79 362 388
f 79 376 357
f 79 388 416
f 79 402 376
f 79 416 440
f 79 428 402
f 79 440 468
f 79 456 428
f 79 468 489
f 79 478 456
f 79 489 514
f 79 502 478
f 79 514 540
f 79 528 502
f 79 540 562
f 79 550 528
f 79 562 585
f 79 574 550
f 79 585 605
f 79 594 574
f 79 605 624
f 79 616 594
f 79 624 640
f 79 633 616
f 79 640 644
f 79 642 633
f 79 644 642
f 80 81 111
f 80 110 112
f 80 111 110
f 81 113 111
f 82 103 123
f 82 115 105
f 82 123 115
f 84 112 119
f 84 119 126
f 84 126 100
f 85 108 109
f 85 109 98
f 86 104 121
f 87 106 117
f 87 117 108
f 88 100 114
f 88 107 90
f 88 114 127
f 88 127 107
f 89 98 439
f 89 439 91
f 91 439 102
f 92 94 93
f 92 96 94
f 93 94 95
f 93 95 97
f 94 96 128
f 94 124 125
f 94 125 95
f 94 128 124
f 95 125 129
f 95 129 97
f 96 105 134
f 96 134 128
f 97 129 136
f 97 136 106
f 98 109 439
f 99 116 135
f 99 120 104
f 99 135 120
f 100 126 137
f 100 137 114
f 102 439 116
f 103 118 123
f 104 120 132
f 104 132 121
f 105 115 143
f 105 143 134
f 106 136 117
f 108 117 133
f 108 122 109
f 108 133 148
f 108 148 122
f 109 122 439
f 110 111 130
f 110 130 112
f 111 113 131
f 111 131 130
f 112 130 145
f 112 145 119
f 113 121 150
f 113 146 131
f 113 150 146
f 114 137 127
f 115 123 152
f 115 152 143
f 116 439 135
f 117 136 147
f 117 147 133
f 118 138 123
f 119 145 149
f 119 149 126
f 120 135 144
f 120 144 132
f 121 132 150
f 122 148 439
f 123 138 161
f 123 161 152
f 124 128 139
f 124 139 140
f 124 140 125
f 125 140 129
f 126 149 153
f 126 153 163
f 126 163 137
f 127 137 151
f 128 134 162
f 128 159 139
f 128 162 159
f 129 140 160
f 129 160 136
f 130 131 141
f 130 141 145
f 131 142 141
f 131 146 142
f 132 144 166
f 132 156 150
f 132 166 156
f 133 147 154
f 133 154 165
f 133 165 148
f 134 143 167
f 134 167 162
f 135 155 144
f 135 439 155
f 136 160 164
f 136 164 147
f 137 163 151
f 139 157 140
f 139 159 157
f 140 157 158
f 140 158 160
f 141 142 170
f 141 169 145
f 141 170 169
f 142 146 170
f 143 152 167
f 144 155 176
f 144 176 166
f 145 169 172
f 145 172 175
f 145 175 149
f 146 150 173
f 146 173 170
f 147 164 168
f 147 168 178
f 147 178 154
f 148 165 439
f 149 175 179
f 149 179 153
f 150 156 182
f 150 177 173
f 150 182 177
f 151 163 171
f 152 161 183
f 152 174 167
f 152 183 174
f 153 179 163
f 154 178 165
f 155 439 176
f 156 166 182
f 157 159 180
f 157 180 158
f 158 180 181
f 158 181 160
f 159 162 186
f 159 186 180
f 160 181 187
f 160 187 164
f 162 167 194
f 162 190 186
f 162 194 190
f 163 179 189
f 163 189 193
f 163 193 171
f 164 187 192
f 164 192 195
f 164 195 168
f 165 178 188
f 165 188 439
f 166 176 191
f 166 191 182
f 167 174 194
f 168 195 178
f 169 170 198
f 169 197 199
f 169 198 197
f 169 199 172
f 170 173 201
f 170 201 198
f 172 199 175
f 173 177 204
f 173 204 201
f 174 183 205
f 174 200 194
f 174 205 200
f 175 199 203
f 175 203 179
f 176 196 191
f 176 439 196
f 177 182 204
f 178 195 202
f 178 202 188
f 179 203 206
f 179 206 211
f 179 211 189
f 180 184 185
f 180 185 181
f 180 186 184
f 181 185 187
f 182 191 214
f 182 207 204
f 182 214 207
f 184 186 215
f 184 212 185
f 184 215 212
f 185 212 213
f 185 213 216
f 185 216 187
f 186 190 217
f 186 217 215
f 187 216 218
f 187 218 192
f 188 202 208
f 188 208 439
f 189 211 193
f 190 194 217
f 191 196 223
f 191 223 214
f 192 218 195
f 193 211 219
f 194 200 225
f 194 222 217
f 194 225 222
f 195 218 224
f 195 224 202
f 196 439 223
f 197 198 209
f 197 209 199
f 198 201 210
f 198 210 209
f 199 209 229
f 199 229 231
f 199 231 203
f 200 205 225
f 201 204 233
f 201 230 210
f 201 233 230
f 202 224 226
f 202 226 234
f 202 234 208
f 203 231 235
f 203 235 206
f 204 207 236
f 204 236 233
f 205 232 225
f 206 235 211
f 207 214 238
f 207 238 236
f 208 234 439
f 209 210 227
f 209 227 229
f 210 228 227
f 210 230 228
f 211 235 237
f 211 237 241
f 211 241 219
f 212 215 220
f 212 220 221
f 212 221 213
f 213 221 216
f 214 223 238
f 215 217 242
f 215 242 220
f 216 221 243
f 216 243 218
f 217 222 247
f 217 245 242
f 217 247 245
f 218 243 246
f 218 246 248
f 218 248 224
f 220 239 221
f 220 242 239
f 221 239 240
f 221 240 243
f 222 225 247
f 223 244 238
f 223 439 244
f 224 248 252
f 224 252 226
f 225 232 253
f 225 251 247
f 225 253 251
f 226 252 234
f 227 228 250
f 227 249 229
f 227 250 249
f 228 230 250
f 229 249 256
f 229 256 259
f 229 259 231
f 230 233 257
f 230 257 250
f 231 259 235
f 233 236 264
f 233 260 257
f 233 264 260
f 234 252 258
f 234 258 439
f 235 259 263
f 235 263 237
f 236 238 264
f 237 263 265
f 237 265 267
f 237 267 241
f 238 244 266
f 238 266 264
f 239 242 261
f 239 261 262
f 239 262 240
f 240 262 243
f 242 245 271
f 242 271 261
f 243 262 272
f 243 272 274
f 243 274 246
f 244 268 266
f 244 439 268
f 245 247 273
f 245 273 271
f 246 274 248
f 247 251 277
f 247 275 273
f 247 277 275
f 248 274 276
f 248 276 278
f 248 278 252
f 249 250 255
f 249 254 256
f 249 255 254
f 250 257 255
f 251 253 277
f 252 278 258
f 253 279 277
f 254 255 281
f 254 281 283
f 254 283 256
f 255 257 282
f 255 282 281
f 256 283 259
f 257 260 286
f 257 284 282
f 257 286 284
f 258 278 280
f 258 280 439
f 259 283 285
f 259 285 287
f 259 287 263
f 260 264 286
f 261 269 262
f 261 271 269
f 262 269 270
f 262 270 272
f 263 287 291
f 263 291 265
f 264 266 288
f 264 288 286
f 265 291 267
f 266 268 294
f 266 292 288
f 266 294 292
f 267 291 293
f 268 439 294
f 269 271 297
f 269 295 296
f 269 296 270
f 269 297 295
f 270 296 298
f 270 298 272
f 271 273 299
f 271 299 297
f 272 298 274
f 273 275 301
f 273 301 299
f 274 298 300
f 274 300 302
f 274 302 276
f 275 277 303
f 275 303 301
f 276 302 278
f 277 279 303
f 278 302 304
f 278 304 306
f 278 306 280
f 279 305 303
f 280 306 439
f 281 282 290
f 281 289 283
f 281 290 289
f 282 284 290
f 283 289 309
f 283 309 285
f 284 286 310
f 284 310 290
f 285 309 311
f 285 311 313
f 285 313 287
f 286 288 314
f 286 312 310
f 286 314 312
f 287 313 291
f 288 292 316
f 288 316 314
f 289 290 307
f 289 307 309
f 290 308 307
f 290 310 308
f 291 313 315
f 291 315 317
f 291 317 293
f 292 294 316
f 294 318 316
f 294 439 318
f 295 297 321
f 295 319 320
f 295 320 296
f 295 321 319
f 296 320 298
f 297 299 325
f 297 325 321
f 298 320 322
f 298 322 326
f 298 326 300
f 299 301 327
f 299 327 325
f 300 326 302
f 301 303 327
f 302 326 328
f 302 328 304
f 303 305 329
f 303 329 327
f 304 328 330
f 304 330 332
f 304 332 306
f 305 331 329
f 306 332 439
f 307 308 324
f 307 323 309
f 307 324 323
f 308 310 324
f 309 323 337
f 309 337 311
f 310 312 340
f 310 338 324
f 310 340 338
f 311 337 339
f 311 339 313
f 312 314 340
f 313 339 341
f 313 341 343
f 313 343 315
f 314 316 344
f 314 342 340
f 314 344 342
f 315 343 317
f 316 318 346
f 316 346 344
f 317 343 345
f 318 439 346
f 319 321 333
f 319 333 320
f 320 333 334
f 320 334 322
f 321 325 351
f 321 349 333
f 321 351 349
f 322 334 350
f 322 350 326
f 323 324 336
f 323 335 337
f 323 336 335
f 324 338 336
f 325 327 353
f 325 353 351
f 326 350 352
f 326 352 354
f 326 354 328
f 327 329 353
f 328 354 356
f 328 356 330
f 329 331 357
f 329 355 353
f 329 357 355
f 330 356 332
f 332 356 358
f 332 358 439
f 333 347 348
f 333 348 334
f 333 349 347
f 334 348 350
f 335 336 359
f 335 359 337
f 336 338 360
f 336 360 359
f 337 359 370
f 337 368 339
f 337 370 368
f 338 340 369
f 338 369 360
f 339 366 341
f 339 368 366
f 340 342 365
f 340 365 367
f 340 367 369
f 341 366 343
f 342 344 365
f 343 362 345
f 343 364 362
f 343 366 364
f 344 346 363
f 344 363 365
f 346 361 363
f 346 439 361
f 347 349 373
f 347 373 348
f 348 373 374
f 348 374 350
f 349 351 384
f 349 384 373
f 350 374 383
f 350 381 352
f 350 383 381
f 351 353 382
f 351 382 384
f 352 381 354
f 353 355 378
f 353 378 380
f 353 380 382
f 354 377 356
f 354 379 377
f 354 381 379
f 355 357 378
f 356 375 358
f 356 377 375
f 357 376 378
f 358 375 439
f 359 360 372
f 359 371 370
f 359 372 371
f 360 369 372
f 361 387 363
f 361 439 387
f 362 364 390
f 362 390 388
f 363 387 389
f 363 389 391
f 363 391 365
f 364 366 390
f 365 391 393
f 365 393 367
f 366 368 394
f 366 392 390
f 366 394 392
f 367 393 369
f 368 370 396
f 368 396 394
f 369 393 395
f 369 395 372
f 370 371 396
f 371 372 397
f 371 397 396
f 372 395 398
f 372 398 397
f 373 384 385
f 373 385 386
f 373 386 374
f 374 386 383
f 375 377 403
f 375 401 439
f 375 403 401
f 376 402 378
f 377 379 405
f 377 405 403
f 378 402 404
f 378 404 406
f 378 406 380
f 379 381 405
f 380 406 382
f 381 383 409
f 381 407 405
f 381 409 407
f 382 406 408
f 382 408 384
f 383 386 409
f 384 408 410
f 384 410 411
f 384 411 385
f 385 411 386
f 386 411 412
f 386 412 409
f 387 415 417
f 387 417 389
f 387 439 415
f 388 390 416
f 389 417 391
f 390 392 418
f 390 418 416
f 391 417 419
f 391 419 393
f 392 394 422
f 392 420 418
f 392 422 420
f 393 419 421
f 393 421 423
f 393 423 395
f 394 396 424
f 394 424 422
f 395 400 398
f 395 423 400
f 396 397 399
f 396 399 424
f 397 398 399
f 398 400 399
f 399 400 426
f 399 425 424
f 399 426 425
f 400 423 426
f 401 403 427
f 401 427 439
f 402 428 430
f 402 430 404
f 403 405 431
f 403 429 427
f 403 431 429
f 404 430 406
f 405 407 433
f 405 433 431
f 406 430 432
f 406 432 434
f 406 434 408
f 407 409 433
f 408 434 410
f 409 412 414
f 409 414 435
f 409 435 433
f 410 413 411
f 410 434 436
f 410 436 413
f 411 413 414
f 411 414 412
f 413 436 437
f 413 437 438
f 413 438 414
f 414 438 435
f 415 439 443
f 415 443 417
f 416 418 440
f 417 443 419
f 418 420 446
f 418 444 440
f 418 446 444
f 419 443 445
f 419 445 447
f 419 447 421
f 420 422 448
f 420 448 446
f 421 447 423
f 422 424 450
f 422 450 448
f 423 442 426
f 423 447 449
f 423 449 442
f 424 425 441
f 424 441 450
f 425 426 442
f 425 442 441
f 427 429 457
f 427 453 439
f 427 457 453
f 428 456 430
f 429 431 457
f 430 456 458
f 430 458 460
f 430 460 432
f 431 433 459
f 431 459 457
f 432 460 462
f 432 462 434
f 433 435 464
f 433 461 459
f 433 464 461
f 434 462 436
f 435 438 455
f 435 455 464
f 436 454 437
f 436 462 465
f 436 465 454
f 437 454 455
f 437 455 438
f 439 453 475
f 439 463 443
f 439 475 500
f 439 487 463
f 439 500 525
f 439 511 487
f 439 525 545
f 439 535 511
f 439 545 568
f 439 556 535
f 439 568 588
f 439 577 556
f 439 588 607
f 439 599 577
f 439 607 623
f 439 614 599
f 439 623 632
f 439 627 614
f 439 632 634
f 439 634 627
f 440 444 468
f 441 442 451
f 441 451 450
f 442 449 452
f 442 452 451
f 443 463 469
f 443 469 471
f 443 471 445
f 444 446 472
f 444 470 468
f 444 472 470
f 445 471 447
f 446 448 472
f 447 471 473
f 447 473 476
f 447 476 449
f 448 450 474
f 448 474 472
f 449 476 452
f 450 451 479
f 450 477 474
f 450 479 477
f 451 452 480
f 451 480 479
f 452 476 480
f 453 457 475
f 454 465 466
f 454 466 455
f 455 466 467
f 455 467 464
f 456 478 484
f 456 484 458
f 457 459 483
f 457 483 475
f 458 484 460
f 459 461 488
f 459 485 483
f 459 488 485
f 460 484 486
f 460 486 462
f 461 464 488
f 462 486 490
f 462 490 494
f 462 494 465
f 463 487 469
f 464 467 492
f 464 492 493
f 464 493 488
f 465 491 466
f 465 494 491
f 466 491 467
f 467 491 492
f 468 470 498
f 468 498 489
f 469 487 497
f 469 497 499
f 469 499 471
f 470 472 498
f 471 499 503
f 471 503 473
f 472 474 504
f 472 501 498
f 472 504 501
f 473 503 476
f 474 477 504
f 475 483 500
f 476 482 480
f 476 503 505
f 476 505 482
f 477 479 481
f 477 481 506
f 477 506 504
f 478 502 510
f 478 510 484
f 479 480 481
f 480 482 481
f 481 482 509
f 481 508 506
f 481 509 508
f 482 505 509
f 483 485 512
f 483 507 500
f 483 512 507
f 484 510 486
f 485 488 515
f 485 515 512
f 486 510 513
f 486 513 516
f 486 516 490
f 487 511 517
f 487 517 497
f 488 493 520
f 488 520 515
f 489 498 514
f 490 516 522
f 490 522 494
f 491 494 495
f 491 495 496
f 491 496 492
f 492 496 493
f 493 496 520
f 494 522 495
f 495 522 523
f 495 523 524
f 495 524 496
f 496 524 520
f 497 517 499
f 498 501 527
f 498 521 514
f 498 527 521
f 499 517 526
f 499 526 503
f 500 507 532
f 500 532 525
f 501 504 527
f 502 528 510
f 503 526 531
f 503 531 536
f 503 536 505
f 504 506 537
f 504 533 527
f 504 537 533
f 505 519 509
f 505 536 519
f 506 508 518
f 506 518 537
f 507 512 541
f 507 541 532
f 508 509 518
f 509 519 518
f 510 528 534
f 510 534 542
f 510 542 513
f 511 535 517
f 512 515 541
f 513 542 516
f 514 521 547
f 514 547 540
f 515 520 548
f 515 544 541
f 515 548 544
f 516 542 546
f 516 546 522
f 517 535 543
f 517 543 526
f 518 519 539
f 518 538 537
f 518 539 538
f 519 536 539
f 520 524 530
f 520 530 548
f 521 527 547
f 522 529 523
f 522 546 549
f 522 549 529
f 523 529 524
f 524 529 530
f 525 532 545
f 526 543 553
f 526 553 557
f 526 557 531
f 527 533 559
f 527 554 547
f 527 559 554
f 528 550 558
f 528 558 534
f 529 549 551
f 529 551 552
f 529 552 530
f 530 552 548
f 531 557 536
f 532 541 555
f 532 555 545
f 533 537 559
f 534 558 542
f 535 556 543
f 536 557 563
f 536 561 539
f 536 563 561
f 537 538 560
f 537 560 564
f 537 564 559
f 538 539 560
f 539 561 560
f 540 547 571
f 540 571 562
f 541 544 575
f 541 567 555
f 541 575 567
f 542 558 570
f 542 570 576
f 542 576 546
f 543 556 569
f 543 569 578
f 543 578 553
f 544 548 575
f 545 555 581
f 545 581 568
f 546 576 580
f 546 580 549
f 547 554 571
f 548 552 573
f 548 573 579
f 548 579 575
f 549 572 551
f 549 580 572
f 550 574 558
f 551 572 552
f 552 572 573
f 553 578 557
f 554 559 589
f 554 582 571
f 554 589 582
f 555 567 591
f 555 591 581
f 556 577 590
f 556 590 569
f 557 578 587
f 557 587 563
f 558 574 586
f 558 586 595
f 558 595 570
f 559 564 593
f 559 593 589
f 560 561 566
f 560 565 564
f 560 566 565
f 561 563 566
f 562 571 598
f 562 598 585
f 563 587 592
f 563 592 597
f 563 597 566
f 564 565 593
f 565 566 596
f 565 596 593
f 566 597 596
f 567 575 591
f 568 581 588
f 569 590 578
f 570 595 576
f 571 582 608
f 571 608 598
f 572 580 583
f 572 583 584
f 572 584 573
f 573 584 579
f 574 594 586
f 575 579 610
f 575 600 591
f 575 610 600
f 576 595 604
f 576 604 580
f 577 599 615
f 577 615 590
f 578 590 606
f 578 606 587
f 579 584 613
f 579 613 610
f 580 604 611
f 580 611 612
f 580 612 583
f 581 591 603
f 581 603 588
f 582 589 620
f 582 620 608
f 583 612 584
f 584 612 613
f 585 598 605
f 586 594 609
f 586 609 625
f 586 625 595
f 587 606 619
f 587 619 628
f 587 628 592
f 588 603 626
f 588 626 607
f 589 593 629
f 589 629 620
f 590 615 606
f 591 600 621
f 591 621 603
f 592 602 597
f 592 628 602
f 593 596 601
f 593 601 629
f 594 616 635
f 594 635 609
f 595 625 639
f 595 639 604
f 596 597 602
f 596 602 601
f 598 608 641
f 598 622 605
f 598 641 622
f 599 614 615
f 600 610 646
f 600 637 621
f 600 646 637
f 601 602 630
f 601 630 629
f 602 628 631
f 602 631 630
f 603 621 626
f 604 639 611
f 605 622 643
f 605 643 624
f 606 615 636
f 606 636 619
f 607 626 645
f 607 645 623
f 608 620 641
f 609 635 625
f 610 613 618
f 610 618 646
f 611 617 612
f 611 639 647
f 611 647 617
f 612 617 618
f 612 618 613
f 614 627 638
f 614 638 615
f 615 638 660
f 615 660 636
f 616 633 635
f 617 647 649
f 617 649 618
f 618 649 650
f 618 650 646
f 619 636 651
f 619 651 628
f 620 629 663
f 620 654 641
f 620 663 654
f 621 637 668
f 621 648 626
f 621 668 648
f 622 641 643
f 623 645 658
f 623 658 632
f 624 643 640
f 625 635 653
f 625 653 672
f 625 672 639
f 626 648 645
f 627 634 659
f 627 652 638
f 627 659 652
f 628 651 662
f 628 656 631
f 628 662 656
f 629 630 655
f 629 655 663
f 630 631 656
f 630 656 655
f 632 658 634
f 633 642 665
f 633 657 635
f 633 665 657
f 634 658 659
f 635 657 674
f 635 674 653
f 636 660 676
f 636 676 651
f 637 646 668
f 638 652 675
f 638 675 660
f 639 672 647
f 640 643 661
f 640 661 671
f 640 671 644
f 641 654 664
f 641 664 643
f 642 644 671
f 642 671 665
f 643 664 681
f 643 681 661
f 645 648 673
f 645 673 658
f 646 650 667
f 646 667 677
f 646 677 668
f 647 666 649
f 647 672 678
f 647 678 666
f 648 668 673
f 649 666 667
f 649 667 650
f 651 676 688
f 651 688 662
f 652 659 684
f 652 684 675
f 653 674 672
f 654 663 679
f 654 679 664
f 655 656 669
f 655 669 663
f 656 662 670
f 656 670 669
f 657 665 685
f 657 685 674
f 658 673 680
f 658 680 684
f 658 684 659
f 660 675 676
f 661 681 671
f 662 688 670
f 663 669 691
f 663 690 679
f 663 691 690
f 664 679 681
f 665 671 685
f 666 678 682
f 666 682 683
f 666 683 667
f 667 683 677
f 668 677 695
f 668 686 673
f 668 695 686
f 669 670 692
f 669 692 691
f 670 688 692
f 671 681 687
f 671 687 685
f 672 674 689
f 672 689 697
f 672 697 678
f 673 686 696
f 673 696 680
f 674 685 700
f 674 700 689
f 675 684 701
f 675 693 676
f 675 701 693
f 676 693 688
f 677 683 699
f 677 699 695
f 678 697 698
f 678 698 682
f 679 690 706
f 679 694 681
f 679 706 694
f 680 696 684
f 681 694 704
f 681 704 687
f 682 698 683
f 683 698 699
f 684 696 701
f 685 687 704
f 685 704 700
f 686 695 696
f 688 693 705
f 688 705 708
f 688 708 692
f 689 700 710
f 689 710 697
f 690 691 706
f 691 692 707
f 691 707 706
f 692 708 707
f 693 701 705
f 694 706 704
f 695 699 703
f 695 703 716
f 695 709 696
f 695 716 709
f 696 709 711
f 696 711 701
f 697 702 698
f 697 710 702
f 698 702 703
f 698 703 699
f 700 704 710
f 701 711 705
f 702 710 715
f 702 715 703
f 703 715 716
f 704 706 712
f 704 712 710
f 705 711 714
f 705 714 708
f 706 707 713
f 706 713 712
f 707 708 713
f 708 714 713
f 709 716 718
f 709 718 711
f 710 712 717
f 710 717 715
f 711 718 720
f 711 720 714
f 712 713 719
f 712 719 717
f 713 714 720
f 713 720 719
f 715 717 718
f 715 718 716
f 717 719 718
f 718 719 720
