# Exact connected-component conservative convex envelope; metres.
v 0.11588209122419357 0.24017025530338287 -0.13595816493034363
v 0.11588229984045029 0.24321277439594269 -0.13591119647026062
v 0.11588522791862488 0.23720653355121613 -0.13526861369609833
v 0.11589153856039047 0.23449723422527313 -0.13388340175151825
v 0.1158936470746994 0.27297136187553406 -0.13342028856277466
v 0.11589725315570831 0.27565005421638489 -0.13262732326984406
v 0.11590063571929932 0.23220290243625641 -0.1318846195936203
v 0.11590410023927689 0.27800488471984863 -0.13112431764602661
v 0.11591199785470963 0.23045951128005981 -0.12939071655273438
v 0.11591364443302155 0.27985203266143799 -0.1290285736322403
v 0.11592493206262589 0.2293703705072403 -0.12654945254325867
v 0.1159251406788826 0.28104737401008606 -0.12650364637374878
v 0.11593769490718842 0.28149762749671936 -0.1237465962767601
v 0.1159503310918808 0.2811676561832428 -0.12097257375717163
v 0.11595971882343292 0.23958657681941986 -0.11890988051891327
v 0.11596205085515976 0.28008317947387695 -0.11839808523654938
v 0.11597195267677307 0.27832883596420288 -0.11622403562068939
v 0.11609108000993729 0.22248129546642303 -0.09006306529045105
v 0.11612310260534286 0.21581791341304779 -0.083031080663204193
v 0.11613449454307556 0.21549999713897705 -0.080529674887657166
v 0.11614753305912018 0.21591845154762268 -0.077667191624641418
v 0.11615552753210068 0.22358658909797668 -0.075910322368144989
v 0.11615552753210068 0.22741341590881348 -0.075910322368144989
v 0.11615947633981705 0.21713879704475403 -0.075044266879558563
v 0.11616776138544083 0.23232883214950562 -0.073224484920501709
v 0.11616932600736618 0.21905890107154846 -0.072880424559116364
v 0.11617527157068253 0.22995193302631378 -0.071575425565242767
v 0.11617626994848251 0.22151806950569153 -0.07135675847530365
v 0.11617936939001083 0.22720244526863098 -0.070675760507583618
v 0.11617971211671829 0.2243104875087738 -0.070600777864456177
v 0.12388201057910919 0.24017025530338287 -0.13599459826946259
v 0.12388221919536591 0.24321277439594269 -0.13594762980937958
v 0.1238851472735405 0.23720653355121613 -0.13530504703521729
v 0.12389145791530609 0.23449723422527313 -0.13391983509063721
v 0.12389356642961502 0.27297136187553406 -0.13345672190189362
v 0.12389717251062393 0.27565005421638489 -0.13266375660896301
v 0.12390055507421494 0.23220290243625641 -0.13192105293273926
v 0.12390358000993729 0.26511028409004211 -0.13125789165496826
v 0.1239040195941925 0.27800488471984863 -0.13116075098514557
v 0.12391191720962524 0.23045951128005981 -0.12942714989185333
v 0.12391356378793716 0.27985203266143799 -0.12906500697135925
v 0.1239248514175415 0.2293703705072403 -0.12658588588237762
v 0.12392506003379822 0.28104737401008606 -0.12654007971286774
v 0.12393761426210403 0.28149762749671936 -0.12378302216529846
v 0.12395025044679642 0.2811676561832428 -0.12100900709629059
v 0.12395226955413818 0.27149999141693115 -0.12056569010019302
v 0.12396197021007538 0.28008317947387695 -0.11843451112508774
v 0.12397187203168869 0.27832883596420288 -0.11626046895980835
v 0.12397503852844238 0.25242015719413757 -0.11556573957204819
v 0.12397503852844238 0.25533941388130188 -0.11556573957204819
v 0.12399867922067642 0.25738808512687683 -0.11037421226501465
v 0.12408787757158279 0.22364377975463867 -0.090786300599575043
v 0.12411236017942429 0.21675144135951996 -0.085409879684448242
v 0.12412302196025848 0.21581791341304779 -0.083067514002323151
v 0.12412570416927338 0.23011939227581024 -0.082479499280452728
v 0.12413441389799118 0.21549999713897705 -0.080566108226776123
v 0.1241474524140358 0.21591845154762268 -0.077703617513179779
v 0.12415939569473267 0.21713879704475403 -0.075080692768096924
v 0.12416768074035645 0.23232883214950562 -0.07326091080904007
v 0.1241692453622818 0.21905890107154846 -0.072916850447654724
v 0.12417519092559814 0.22995193302631378 -0.071611851453781128
v 0.12417618185281754 0.22151806950569153 -0.07139318436384201
v 0.12417928874492645 0.22720244526863098 -0.070712186396121979
v 0.12417962402105331 0.2243104875087738 -0.070637211203575134
f 1 2 32
f 1 3 2
f 1 31 3
f 1 32 31
f 2 3 7
f 2 5 32
f 2 6 5
f 2 7 6
f 3 4 7
f 3 31 33
f 3 33 4
f 4 33 34
f 4 34 37
f 4 37 7
f 5 6 36
f 5 35 32
f 5 36 35
f 6 7 15
f 6 8 39
f 6 12 8
f 6 13 12
f 6 15 22
f 6 16 13
f 6 22 23
f 6 23 16
f 6 39 36
f 7 9 11
f 7 11 19
f 7 18 22
f 7 19 18
f 7 22 15
f 7 37 40
f 7 40 9
f 8 10 39
f 8 12 10
f 9 40 11
f 10 12 41
f 10 41 39
f 11 40 42
f 11 42 54
f 11 54 19
f 12 13 43
f 12 43 41
f 13 14 44
f 13 16 14
f 13 44 43
f 14 16 47
f 14 45 44
f 14 47 45
f 16 17 47
f 16 23 25
f 16 25 17
f 17 25 59
f 17 48 47
f 17 59 48
f 18 19 22
f 19 20 26
f 19 26 22
f 19 54 20
f 20 21 24
f 20 24 26
f 20 54 56
f 20 56 57
f 20 57 21
f 21 57 58
f 21 58 24
f 22 26 23
f 23 26 27
f 23 27 25
f 24 58 26
f 25 27 59
f 26 28 30
f 26 29 27
f 26 30 29
f 26 58 60
f 26 60 28
f 27 29 63
f 27 61 59
f 27 63 61
f 28 60 62
f 28 62 30
f 29 30 63
f 30 62 64
f 30 64 63
f 31 32 35
f 31 34 33
f 31 35 38
f 31 38 50
f 31 40 34
f 31 50 40
f 34 40 37
f 35 36 39
f 35 39 41
f 35 41 45
f 35 45 38
f 38 45 46
f 38 46 50
f 40 49 52
f 40 50 49
f 40 52 53
f 40 53 42
f 41 43 45
f 42 53 54
f 43 44 45
f 45 47 48
f 45 48 61
f 45 51 46
f 45 55 51
f 45 61 63
f 45 63 55
f 46 51 50
f 48 59 61
f 49 50 52
f 50 51 52
f 51 55 52
f 52 55 57
f 52 57 53
f 53 56 54
f 53 57 56
f 55 63 57
f 57 63 58
f 58 63 60
f 60 63 62
f 62 63 64
