# Exact connected-component conservative convex envelope; metres.
v 0.11634029448032379 -0.040038079023361206 -0.03533591702580452
v 0.11634956300258636 -0.040703725069761276 -0.033300682902336121
v 0.11634956300258636 -0.040038079023361206 -0.033300682902336121
v 0.11636411398649216 -0.040711570531129837 -0.033300749957561493
v 0.11641538143157959 -0.040405977517366409 -0.034271560609340668
v 0.11643222719430923 -0.040436185896396637 -0.033301059156656265
v 0.11658205837011337 -0.040680442005395889 -0.033544301986694336
v 0.11658316105604172 -0.040765132755041122 -0.033301748335361481
v 0.11666297912597656 -0.040765132755041122 -0.033302109688520432
f 1 2 3
f 1 3 9
f 1 4 2
f 1 5 4
f 1 7 8
f 1 8 5
f 1 9 7
f 2 4 8
f 2 6 3
f 2 8 9
f 2 9 6
f 3 6 9
f 4 5 8
f 7 9 8
