# Exact connected-component conservative convex envelope; metres.
v -0.12336129695177078 -0.035018213093280792 0.0012000001734122634
v -0.12336129695177078 -0.035018213093280792 0.01119999960064888
v -0.12326394021511078 -0.030304454267024994 0.0012000001734122634
v -0.12326394021511078 -0.030304454267024994 0.01119999960064888
v -0.1219906359910965 -0.039529338479042053 0.0012000001734122634
v -0.1219906359910965 -0.039529338479042053 0.01119999960064888
v -0.12170818448066711 -0.025853764265775681 0.0012000001734122634
v -0.12170818448066711 -0.025853764265775681 0.01119999960064888
v -0.11928737908601761 -0.043392159044742584 0.0012000001734122634
v -0.11928737908601761 -0.043392159044742584 0.01119999960064888
v -0.11884774267673492 -0.022105854004621506 0.0012000001734122634
v -0.11884774267673492 -0.022105854004621506 0.01119999960064888
v -0.11551859229803085 -0.046225044876337051 0.0012000001734122634
v -0.11551859229803085 -0.046225044876337051 0.01119999960064888
v -0.11496519297361374 -0.019430996850132942 0.0012000001734122634
v -0.11496519297361374 -0.019430996850132942 0.01119999960064888
v -0.1110566109418869 -0.04774811863899231 0.0012000001734122634
v -0.1110566109418869 -0.04774811863899231 0.01119999960064888
v -0.10634227097034454 -0.047810900956392288 0.0012000001734122634
v -0.10634227097034454 -0.047810900956392288 0.01119999960064888
v -0.086236819624900818 -0.044885352253913879 0.0012000001734122634
v -0.071330033242702484 0.0014030947349965572 0.0012000001734122634
v -0.026672780513763428 -0.036218166351318359 0.0012000001734122634
v -0.01906462199985981 0.026357792317867279 0.0012000001734122634
v -0.013787775300443172 0.028877278789877892 0.0012000001734122634
v -0.013787775300443172 0.028877278789877892 0.01119999960064888
v -0.0068568475544452667 0.031256739050149918 0.0012000001734122634
v -0.0068568475544452667 0.031256739050149918 0.01119999960064888
v -0.005483516026288271 -0.033134907484054565 0.0012000001734122634
v 0.00043366220779716969 0.031997062265872955 0.0012000001734122634
v 0.00043366220779716969 0.031997062265872955 0.01119999960064888
v 0.0046078073792159557 -0.031666513532400131 0.0012000001734122634
v 0.0046078073792159557 -0.031666513532400131 0.01119999960064888
v 0.0057473680935800076 -0.031479641795158386 0.0012000001734122634
v 0.0077014295384287834 0.031059425324201584 0.0012000001734122634
v 0.0077014295384287834 0.031059425324201584 0.01119999960064888
v 0.0079952450469136238 -0.030985094606876373 0.0012000001734122634
v 0.010696332901716232 -0.03015938401222229 0.0012000001734122634
v 0.011690929532051086 -0.029787953943014145 0.0012000001734122634
v 0.011690929532051086 -0.029787953943014145 0.01119999960064888
v 0.014565326273441315 0.02849300391972065 0.0012000001734122634
v 0.014565326273441315 0.02849300391972065 0.01119999960064888
v 0.018160965293645859 -0.026347283273935318 0.0012000001734122634
v 0.018160965293645859 -0.026347283273935318 0.01119999960064888
v 0.020665401592850685 0.024432377889752388 0.0012000001734122634
v 0.020665401592850685 0.024432377889752388 0.01119999960064888
v 0.023678625002503395 -0.021524934098124504 0.0012000001734122634
v 0.023678625002503395 -0.021524934098124504 0.01119999960064888
v 0.025681763887405396 0.019090494140982628 0.0012000001734122634
v 0.025681763887405396 0.019090494140982628 0.01119999960064888
v 0.027954548597335815 -0.015573794953525066 0.0012000001734122634
v 0.027954548597335815 -0.015573794953525066 0.01119999960064888
v 0.02935134619474411 0.012747486121952534 0.0012000001734122634
v 0.02935134619474411 0.012747486121952534 0.01119999960064888
v 0.030189342796802521 0.010611486621201038 0.0012000001734122634
v 0.030764510855078697 -0.0088059501722455025 0.0012000001734122634
v 0.030764510855078697 -0.0088059501722455025 0.01119999960064888
v 0.030988659709692001 0.0079814093187451363 0.0012000001734122634
v 0.031453020870685577 0.0058913095854222775 0.0012000001734122634
v 0.03148171678185463 0.005735988263040781 0.0012000001734122634
v 0.03148171678185463 0.005735988263040781 0.01119999960064888
v 0.031961150467395782 -0.0015763132832944393 0.0012000001734122634
v 0.031961150467395782 -0.0015763132832944393 0.01119999960064888
f 1 2 3
f 1 3 38
f 1 5 6
f 1 6 2
f 1 38 5
f 2 4 3
f 2 6 4
f 3 4 8
f 3 7 38
f 3 8 7
f 4 6 8
f 5 9 6
f 5 38 9
f 6 9 10
f 6 10 14
f 6 12 8
f 6 14 18
f 6 16 12
f 6 18 20
f 6 20 33
f 6 26 16
f 6 28 26
f 6 31 28
f 6 33 40
f 6 36 31
f 6 40 44
f 6 42 36
f 6 44 48
f 6 46 42
f 6 48 52
f 6 50 46
f 6 52 57
f 6 54 50
f 6 57 63
f 6 61 54
f 6 63 61
f 7 8 12
f 7 11 38
f 7 12 11
f 9 13 10
f 9 38 13
f 10 13 14
f 11 12 15
f 11 15 38
f 12 16 15
f 13 17 18
f 13 18 14
f 13 38 17
f 15 16 22
f 15 22 38
f 16 26 22
f 17 19 18
f 17 38 19
f 18 19 20
f 19 21 20
f 19 38 21
f 20 21 33
f 21 23 33
f 21 38 23
f 22 24 38
f 22 26 24
f 23 29 33
f 23 38 29
f 24 25 38
f 24 26 25
f 25 26 28
f 25 27 38
f 25 28 27
f 27 28 31
f 27 30 38
f 27 31 30
f 29 32 33
f 29 38 32
f 30 31 35
f 30 35 38
f 31 36 35
f 32 34 33
f 32 38 34
f 33 34 37
f 33 37 40
f 34 38 37
f 35 36 42
f 35 41 38
f 35 42 41
f 37 38 40
f 38 39 40
f 38 41 45
f 38 43 39
f 38 45 49
f 38 47 43
f 38 49 53
f 38 51 47
f 38 53 55
f 38 55 58
f 38 56 51
f 38 58 59
f 38 59 60
f 38 60 62
f 38 62 56
f 39 43 44
f 39 44 40
f 41 42 46
f 41 46 45
f 43 47 44
f 44 47 48
f 45 46 49
f 46 50 49
f 47 51 52
f 47 52 48
f 49 50 54
f 49 54 53
f 51 56 52
f 52 56 57
f 53 54 55
f 54 58 55
f 54 61 58
f 56 62 57
f 57 62 63
f 58 61 59
f 59 61 60
f 60 61 63
f 60 63 62
