# Exact connected-component conservative convex envelope; metres.
v -0.043228365480899811 0.0048536877147853374 -0.014999999664723873
v -0.043228365480899811 0.0048536877147853374 9.238717013637654e-10
v -0.043058246374130249 -0.0061836349777877331 -0.014999999664723873
v -0.043058246374130249 -0.0061836349777877331 9.2387175687491663e-10
v -0.041522245854139328 -0.012967383489012718 -0.014999999664723873
v -0.041522245854139328 -0.012967383489012718 9.2387164585261417e-10
v -0.041209876537322998 0.01392824575304985 -0.014999999664723873
v -0.040614794939756393 0.015578457154333591 -0.014999999664723873
v -0.040614794939756393 0.015578457154333591 9.238717013637654e-10
v -0.040115393698215485 -0.016822762787342072 -0.014999999664723873
v -0.040115393698215485 -0.016822762787342072 9.2387175687491663e-10
v -0.035385835915803909 0.025300052016973495 -0.014999999664723873
v -0.035385835915803909 0.025300052016973495 9.238717013637654e-10
v -0.034589305520057678 -0.026378586888313293 -0.014999999664723873
v -0.034589305520057678 -0.026378586888313293 9.238717013637654e-10
v -0.030660673975944519 -0.030857302248477936 -0.014999999664723873
v -0.027878204360604286 0.033392447978258133 -0.014999999664723873
v -0.027878204360604286 0.033392447978258133 9.238717013637654e-10
v -0.026835842058062553 -0.034235764294862747 -0.014999999664723873
v -0.026835842058062553 -0.034235764294862747 9.238717013637654e-10
v -0.018575357273221016 0.039334539324045181 -0.014999999664723873
v -0.018575357273221016 0.039334539324045181 9.238717013637654e-10
v -0.017354285344481468 -0.039888329803943634 -0.014999999664723873
v -0.017354285344481468 -0.039888329803943634 9.238717013637654e-10
v -0.0080763502046465874 0.042743682861328125 -0.014999999664723873
v -0.0080763502046465874 0.042743682861328125 9.238717013637654e-10
v -0.006755197886377573 -0.04297228530049324 9.2387175687491663e-10
v 0.0029427343979477882 0.043400350958108902 -0.014999999664723873
v 0.0029427343979477882 0.043400350958108902 9.2387175687491663e-10
v 0.0042788898572325706 -0.043289043009281158 9.238717013637654e-10
v 0.010489417240023613 -0.055973406881093979 -0.014999999664723873
v 0.010489417240023613 -0.055973406881093979 -0.0099999997764825821
v 0.014281449839472771 -0.057462893426418304 -0.014999999664723873
v 0.014281449839472771 -0.057462893426418304 -0.0099999997764825821
v 0.01834171824157238 -0.057127762585878372 -0.014999999664723873
v 0.01834171824157238 -0.057127762585878372 -0.0099999997764825821
v 0.20929376780986786 -0.029991686344146729 9.2387175687491663e-10
v 0.20999999344348907 0.029999999329447746 -0.014999999664723873
v 0.20999999344348907 0.029999999329447746 9.238717013637654e-10
v 0.21783401072025299 -0.028959080576896667 -0.014999999664723873
v 0.21783401072025299 -0.028959080576896667 9.238717013637654e-10
v 0.21851356327533722 0.028766633942723274 -0.014999999664723873
v 0.21851356327533722 0.028766633942723274 9.2387164585261417e-10
v 0.22573010623455048 -0.025545330718159676 -0.014999999664723873
v 0.22573010623455048 -0.025545330718159676 9.238717013637654e-10
v 0.22632710635662079 0.025167947635054588 -0.014999999664723873
v 0.22632710635662079 0.025167947635054588 9.2387175687491663e-10
v 0.23233279585838318 -0.020031129941344261 -0.014999999664723873
v 0.23233279585838318 -0.020031129941344261 9.2387164585261417e-10
v 0.23279815912246704 0.019499840214848518 -0.014999999664723873
v 0.23279815912246704 0.019499840214848518 9.238717013637654e-10
v 0.23709918558597565 -0.012869881466031075 -0.014999999664723873
v 0.23709918558597565 -0.012869881466031075 9.238717013637654e-10
v 0.23739464581012726 0.012228370644152164 -0.014999999664723873
v 0.23739464581012726 0.012228370644152164 9.238717013637654e-10
v 0.23963737487792969 -0.0046504144556820393 -0.014999999664723873
v 0.23963737487792969 -0.0046504144556820393 9.238717013637654e-10
v 0.23973862826824188 0.0039514303207397461 -0.014999999664723873
v 0.23973862826824188 0.0039514303207397461 9.238717013637654e-10
f 1 2 7
f 1 3 2
f 1 7 46
f 1 46 3
f 2 3 4
f 2 4 53
f 2 9 7
f 2 53 9
f 3 5 6
f 3 6 4
f 3 46 5
f 4 6 53
f 5 10 6
f 5 46 10
f 6 10 11
f 6 11 53
f 7 8 46
f 7 9 8
f 8 9 13
f 8 12 46
f 8 13 12
f 9 53 13
f 10 14 11
f 10 46 14
f 11 14 15
f 11 15 53
f 12 13 18
f 12 17 46
f 12 18 17
f 13 53 18
f 14 16 15
f 14 46 16
f 15 16 20
f 15 20 53
f 16 19 20
f 16 46 19
f 17 18 21
f 17 21 46
f 18 22 21
f 18 53 22
f 19 23 20
f 19 46 23
f 20 23 24
f 20 24 53
f 21 22 25
f 21 25 46
f 22 26 25
f 22 53 26
f 23 31 32
f 23 32 24
f 23 46 31
f 24 27 53
f 24 32 34
f 24 34 27
f 25 26 29
f 25 28 46
f 25 29 28
f 26 53 29
f 27 30 53
f 27 34 30
f 28 29 38
f 28 38 46
f 29 39 38
f 29 53 39
f 30 34 37
f 30 37 53
f 31 33 32
f 31 46 33
f 32 33 34
f 33 35 36
f 33 36 34
f 33 46 35
f 34 36 37
f 35 40 36
f 35 46 40
f 36 40 41
f 36 41 37
f 37 41 53
f 38 39 43
f 38 42 46
f 38 43 42
f 39 53 43
f 40 44 45
f 40 45 41
f 40 46 44
f 41 45 53
f 42 43 46
f 43 47 46
f 43 53 47
f 44 46 48
f 44 48 45
f 45 48 49
f 45 49 53
f 46 47 51
f 46 50 54
f 46 51 50
f 46 52 48
f 46 54 58
f 46 56 52
f 46 58 56
f 47 53 51
f 48 52 53
f 48 53 49
f 50 51 54
f 51 53 55
f 51 55 54
f 52 56 53
f 53 56 57
f 53 57 59
f 53 59 55
f 54 55 59
f 54 59 58
f 56 58 59
f 56 59 57
