# Exact connected-component conservative convex envelope; metres.
v 0.13887196779251099 0.057180192321538925 -0.0080000003799796104
v 0.13887196779251099 0.057180192321538925 3.7997932578193172e-10
v 0.13911223411560059 0.053757689893245697 -0.0080000003799796104
v 0.13911223411560059 0.053757689893245697 3.7997932578193172e-10
v 0.13969781994819641 0.060510236769914627 -0.0080000003799796104
v 0.13969781994819641 0.060510236769914627 3.7997927027078049e-10
v 0.14039523899555206 0.050575684756040573 -0.0080000003799796104
v 0.14039523899555206 0.050575684756040573 3.7997932578193172e-10
v 0.14150944352149963 0.063423879444599152 -0.0080000003799796104
v 0.14150944352149963 0.063423879444599152 3.7997932578193172e-10
v 0.14259615540504456 0.047943733632564545 -0.0080000003799796104
v 0.14259615540504456 0.047943733632564545 3.7997932578193172e-10
v 0.14413058757781982 0.065637655556201935 -0.0080000003799796104
v 0.14413058757781982 0.065637655556201935 3.7997932578193172e-10
v 0.14550089836120605 0.046117875725030899 -0.0080000003799796104
v 0.14550089836120605 0.046117875725030899 3.7997927027078049e-10
v 0.14730627834796906 0.066936209797859192 -0.0080000003799796104
v 0.14730627834796906 0.066936209797859192 3.7997927027078049e-10
v 0.14882686734199524 0.045275740325450897 -0.0080000003799796104
v 0.14882686734199524 0.045275740325450897 3.7997932578193172e-10
v 0.15072757005691528 0.067193225026130676 -0.0080000003799796104
v 0.15072757005691528 0.067193225026130676 3.7997932578193172e-10
v 0.24560260772705078 0.067198611795902252 -0.0080000003799796104
v 0.24560260772705078 0.067198611795902252 3.7997949231538541e-10
v 0.24668054282665253 0.045232664793729782 -0.0080000003799796104
v 0.24668054282665253 0.045232664793729782 3.7997943680423418e-10
v 0.24908892810344696 0.066903844475746155 -0.0080000003799796104
v 0.24908892810344696 0.066903844475746155 3.7997949231538541e-10
v 0.25012123584747314 0.045867357403039932 -0.0080000003799796104
v 0.25012123584747314 0.045867357403039932 3.7997943680423418e-10
v 0.25230634212493896 0.065529212355613708 -0.0080000003799796104
v 0.25230634212493896 0.065529212355613708 3.7997949231538541e-10
v 0.2531886100769043 0.047550398856401443 -0.0080000003799796104
v 0.2531886100769043 0.047550398856401443 3.7997954782653665e-10
v 0.25492933392524719 0.063213780522346497 -0.0080000003799796104
v 0.25492933392524719 0.063213780522346497 3.7997949231538541e-10
v 0.25557228922843933 0.050111524760723114 -0.0080000003799796104
v 0.25557228922843933 0.050111524760723114 3.7997949231538541e-10
v 0.2566925585269928 0.060191791504621506 -0.0080000003799796104
v 0.2566925585269928 0.060191791504621506 3.7997949231538541e-10
v 0.25703117251396179 0.053291629999876022 -0.0080000003799796104
v 0.25703117251396179 0.053291629999876022 3.7997949231538541e-10
v 0.25741761922836304 0.056768987327814102 -0.0080000003799796104
v 0.25741761922836304 0.056768987327814102 3.7997943680423418e-10
f 1 2 5
f 1 3 2
f 1 5 13
f 1 13 3
f 2 3 4
f 2 4 8
f 2 6 5
f 2 8 6
f 3 7 8
f 3 8 4
f 3 13 7
f 5 6 10
f 5 9 13
f 5 10 9
f 6 8 10
f 7 11 8
f 7 13 11
f 8 11 12
f 8 12 16
f 8 14 10
f 8 16 20
f 8 18 14
f 8 20 26
f 8 22 18
f 8 24 22
f 8 26 30
f 8 28 24
f 8 30 34
f 8 32 28
f 8 34 38
f 8 36 32
f 8 38 42
f 8 40 36
f 8 42 44
f 8 44 40
f 9 10 13
f 10 14 13
f 11 13 15
f 11 15 16
f 11 16 12
f 13 14 18
f 13 17 21
f 13 18 17
f 13 19 15
f 13 21 23
f 13 23 27
f 13 25 19
f 13 27 31
f 13 29 25
f 13 31 35
f 13 33 29
f 13 35 39
f 13 37 33
f 13 39 43
f 13 41 37
f 13 43 41
f 15 19 16
f 16 19 20
f 17 18 21
f 18 22 21
f 19 25 26
f 19 26 20
f 21 22 24
f 21 24 23
f 23 24 28
f 23 28 27
f 25 29 30
f 25 30 26
f 27 28 31
f 28 32 31
f 29 33 30
f 30 33 34
f 31 32 36
f 31 36 35
f 33 37 38
f 33 38 34
f 35 36 39
f 36 40 39
f 37 41 38
f 38 41 42
f 39 40 44
f 39 44 43
f 41 43 44
f 41 44 42
