# Exact connected-component conservative convex envelope; metres.
v 0.22413021326065063 -0.0029724659398198128 0.024000000208616257
v 0.22476601600646973 -0.0028994083404541016 0.024639999493956566
v 0.22480335831642151 0.0065735070966184139 0.024000000208616257
v 0.22542263567447662 0.0064119435846805573 0.024639999493956566
v 0.22695091366767883 -0.012116983532905579 0.024000000208616257
v 0.22751741111278534 -0.011819174513220787 0.024639999493956566
v 0.22887945175170898 0.015231688506901264 0.024000000208616257
v 0.22939854860305786 0.014857331290841103 0.024639999493956566
v 0.23288452625274658 -0.019625037908554077 0.024000000208616257
v 0.2333051860332489 -0.019142705947160721 0.024639999493956566
v 0.23580799996852875 0.021832747384905815 0.024000000208616257
v 0.23615680634975433 0.021296152845025063 0.024639999493956566
v 0.23623296618461609 -0.022103173658251762 0.024000000208616257
v 0.23657132685184479 -0.021559933200478554 0.024639999493956566
v 0.24112968146800995 -0.024482628330588341 0.024000000208616257
v 0.24134770035743713 -0.023880902677774429 0.024639999493956566
v 0.24465325474739075 0.025485174730420113 0.024000000208616257
v 0.24478466808795929 0.024858813732862473 0.024639999493956566
v 0.25055873394012451 -0.025393852964043617 0.024639999493956566
v 0.25057283043861389 -0.02603369764983654 0.024000000208616257
v 0.25411686301231384 0.025064138695597649 0.024639999493956566
v 0.25422060489654541 0.0256956797093153 0.024000000208616257
v 0.25969433784484863 -0.023477219045162201 0.024639999493956566
v 0.25993859767913818 -0.024068774655461311 0.024000000208616257
v 0.26289308071136475 0.021884426474571228 0.024639999493956566
v 0.26321795582771301 0.022435847669839859 0.024000000208616257
v 0.26342868804931641 0.021559929475188255 0.024639999493956566
v 0.26376703381538391 0.022103173658251762 0.024000000208616257
v 0.26752063632011414 -0.018389860168099403 0.024639999493956566
v 0.26796212792396545 -0.018853222951292992 0.024000000208616257
v 0.26992800831794739 0.015749108046293259 0.024639999493956566
v 0.27043014764785767 0.016145935282111168 0.024000000208616257
v 0.27298069000244141 -0.010818848386406898 0.024639999493956566
v 0.27355974912643433 -0.011091448366641998 0.024000000208616257
v 0.27427154779434204 0.0074867773801088333 0.024639999493956566
v 0.27488312125205994 0.0076754181645810604 0.024000000208616257
v 0.27533707022666931 -0.0017866868292912841 0.024639999493956566
v 0.27597549557685852 -0.0018317087087780237 0.024000000208616257
f 1 2 3
f 1 3 13
f 1 5 2
f 1 13 5
f 2 4 3
f 2 5 6
f 2 6 14
f 2 14 4
f 3 4 8
f 3 7 13
f 3 8 7
f 4 14 8
f 5 9 10
f 5 10 6
f 5 13 9
f 6 10 14
f 7 8 12
f 7 11 13
f 7 12 11
f 8 14 12
f 9 13 10
f 10 13 14
f 11 12 18
f 11 17 13
f 11 18 17
f 12 14 18
f 13 15 14
f 13 17 22
f 13 20 15
f 13 22 26
f 13 24 20
f 13 26 28
f 13 28 32
f 13 30 24
f 13 32 36
f 13 34 30
f 13 36 38
f 13 38 34
f 14 15 16
f 14 16 19
f 14 19 23
f 14 21 18
f 14 23 29
f 14 25 21
f 14 27 25
f 14 29 33
f 14 31 27
f 14 33 37
f 14 35 31
f 14 37 35
f 15 19 16
f 15 20 19
f 17 18 22
f 18 21 22
f 19 20 23
f 20 24 23
f 21 25 22
f 22 25 26
f 23 24 30
f 23 30 29
f 25 27 26
f 26 27 28
f 27 31 32
f 27 32 28
f 29 30 33
f 30 34 33
f 31 35 32
f 32 35 36
f 33 34 37
f 34 38 37
f 35 37 38
f 35 38 36
