# Exact connected-component conservative convex envelope; metres.
v -0.12046909332275391 -0.033857624977827072 -0.0068000000901520252
v -0.12046909332275391 -0.033857624977827072 0.001200000406242907
v -0.12004462629556656 -0.029685176908969879 -0.0068000000901520252
v -0.12004462629556656 -0.029685176908969879 0.001200000406242907
v -0.11943181604146957 -0.03792131319642067 -0.0068000000901520252
v -0.11943181604146957 -0.03792131319642067 0.001200000406242907
v -0.11821024864912033 -0.025913624092936516 -0.0068000000901520252
v -0.11821024864912033 -0.025913624092936516 0.001200000406242907
v -0.11705948412418365 -0.041379861533641815 -0.0068000000901520252
v -0.11705948412418365 -0.041379861533641815 0.001200000406242907
v -0.1151900440454483 -0.023003669455647469 -0.0068000000901520252
v -0.1151900440454483 -0.023003669455647469 0.001200000406242907
v -0.1136418879032135 -0.043810810893774033 -0.0068000000901520252
v -0.1136418879032135 -0.043810810893774033 0.001200000406242907
v -0.11135291308164597 -0.021310752257704735 -0.0068000000901520252
v -0.11135291308164597 -0.021310752257704735 0.001200000406242907
v -0.1071675717830658 -0.021041668951511383 -0.0068000000901520252
v -0.1071675717830658 -0.021041668951511383 0.001200000406242907
v -0.10314524918794632 -0.022229284048080444 -0.0068000000901520252
v -0.10314524918794632 -0.022229284048080444 0.001200000406242907
v 0.0083484817296266556 -0.10163252055644989 -0.0068000000901520252
v 0.0083484817296266556 -0.10163252055644989 0.001200000406242907
v 0.012393895536661148 -0.10273893177509308 -0.0068000000901520252
v 0.012393895536661148 -0.10273893177509308 0.001200000406242907
v 0.016572976484894753 -0.10238566249608994 -0.0068000000901520252
v 0.016572976484894753 -0.10238566249608994 0.001200000406242907
v 0.018408598378300667 -0.079844094812870026 -0.0068000000901520252
v 0.018408598378300667 -0.079844094812870026 0.001200000406242907
v 0.020375251770019531 -0.10061585158109665 -0.0068000000901520252
v 0.020375251770019531 -0.10061585158109665 0.001200000406242907
v 0.021874435245990753 -0.08220575749874115 -0.0068000000901520252
v 0.021874435245990753 -0.08220575749874115 0.001200000406242907
v 0.023336276412010193 -0.097645699977874756 -0.0068000000901520252
v 0.023336276412010193 -0.097645699977874756 0.001200000406242907
v 0.024315899237990379 -0.085615858435630798 -0.0068000000901520252
v 0.024315899237990379 -0.085615858435630798 0.001200000406242907
v 0.025094365701079369 -0.09383799135684967 -0.0068000000901520252
v 0.025094365701079369 -0.09383799135684967 0.001200000406242907
v 0.025434765964746475 -0.089657843112945557 -0.0068000000901520252
v 0.025434765964746475 -0.089657843112945557 0.001200000406242907
f 1 2 4
f 1 3 35
f 1 4 3
f 1 5 2
f 1 35 5
f 2 5 6
f 2 6 4
f 3 4 7
f 3 7 35
f 4 6 10
f 4 8 7
f 4 10 14
f 4 12 8
f 4 14 22
f 4 16 12
f 4 18 16
f 4 20 18
f 4 22 24
f 4 24 26
f 4 26 30
f 4 28 20
f 4 30 34
f 4 32 28
f 4 34 38
f 4 36 32
f 4 38 40
f 4 40 36
f 5 9 10
f 5 10 6
f 5 35 9
f 7 8 12
f 7 11 35
f 7 12 11
f 9 13 10
f 9 35 13
f 10 13 14
f 11 12 15
f 11 15 35
f 12 16 15
f 13 21 14
f 13 35 21
f 14 21 22
f 15 16 17
f 15 17 35
f 16 18 17
f 17 18 20
f 17 19 35
f 17 20 19
f 19 20 27
f 19 27 35
f 20 28 27
f 21 23 24
f 21 24 22
f 21 35 23
f 23 25 24
f 23 35 25
f 24 25 26
f 25 29 30
f 25 30 26
f 25 35 29
f 27 28 32
f 27 31 35
f 27 32 31
f 29 33 30
f 29 35 33
f 30 33 34
f 31 32 36
f 31 36 35
f 33 35 37
f 33 37 38
f 33 38 34
f 35 36 39
f 35 39 37
f 36 40 39
f 37 39 38
f 38 39 40
