# Exact connected-component conservative convex envelope; metres.
v 0.0026873128954321146 -0.092872448265552521 -4.9960036108132044e-16
v 0.0026873128954321146 -0.092872448265552521 0.0080000003799796104
v 0.0027854456566274166 -0.08824901282787323 -4.4408920985006262e-16
v 0.0027854456566274166 -0.08824901282787323 0.0080000003799796104
v 0.0044981488026678562 -0.097127638757228851 -4.4408920985006262e-16
v 0.0044981488026678562 -0.097127638757228851 0.0080000003799796104
v 0.004775200504809618 -0.084074482321739197 -4.9960036108132044e-16
v 0.004775200504809618 -0.084074482321739197 0.0080000003799796104
v 0.0078979069367051125 -0.10026251524686813 -4.4408920985006262e-16
v 0.0078979069367051125 -0.10026251524686813 0.0080000003799796104
v 0.01228569820523262 -0.10172300785779953 -4.9960036108132044e-16
v 0.01228569820523262 -0.10172300785779953 0.0080000003799796104
v 0.016886023804545403 -0.10125099867582321 -4.9960036108132044e-16
v 0.016886023804545403 -0.10125099867582321 0.0080000003799796104
v 0.020885808393359184 -0.098929896950721741 -4.4408920985006262e-16
v 0.020885808393359184 -0.098929896950721741 0.0080000003799796104
v 0.12079761922359467 -0.0081409625709056854 -4.9960036108132044e-16
v 0.12079761922359467 -0.0081409625709056854 0.0080000003799796104
v 0.12263176590204239 -0.0059811831451952457 -4.4408920985006262e-16
v 0.12263176590204239 -0.0059811831451952457 0.0080000003799796104
v 0.14105302095413208 0.062859304249286652 -4.9960036108132044e-16
v 0.14105302095413208 0.062859304249286652 0.0080000003799796104
v 0.14467686414718628 0.065947681665420532 -6.106226635438361e-16
v 0.14467686414718628 0.065947681665420532 0.0080000003799796104
v 0.14926633238792419 0.067215338349342346 -5.5511151231257827e-16
v 0.14926633238792419 0.067215338349342346 0.0080000003799796104
v 0.15396158397197723 0.06642477959394455 -6.106226635438361e-16
v 0.15396158397197723 0.06642477959394455 0.0080000003799796104
v 0.15788289904594421 0.063724115490913391 -5.5511151231257827e-16
v 0.15788289904594421 0.063724115490913391 0.0080000003799796104
v 0.15915435552597046 0.050392687320709229 -4.9960036108132044e-16
v 0.15915435552597046 0.050392687320709229 0.0080000003799796104
v 0.16029559075832367 0.059619344770908356 -5.5511151231257827e-16
v 0.16029559075832367 0.059619344770908356 0.0080000003799796104
v 0.16074764728546143 0.054879516363143921 -4.9960036108132044e-16
v 0.16074764728546143 0.054879516363143921 0.0080000003799796104
f 1 2 3
f 1 3 33
f 1 5 6
f 1 6 2
f 1 33 5
f 2 4 3
f 2 6 4
f 3 4 8
f 3 7 33
f 3 8 7
f 4 6 8
f 5 9 6
f 5 33 9
f 6 9 10
f 6 10 12
f 6 12 14
f 6 14 16
f 6 16 18
f 6 18 20
f 6 20 32
f 6 22 8
f 6 24 22
f 6 26 24
f 6 28 26
f 6 30 28
f 6 32 36
f 6 34 30
f 6 36 34
f 7 8 21
f 7 21 33
f 8 22 21
f 9 11 10
f 9 33 11
f 10 11 12
f 11 13 14
f 11 14 12
f 11 33 13
f 13 15 14
f 13 33 15
f 14 15 16
f 15 17 16
f 15 33 17
f 16 17 18
f 17 19 20
f 17 20 18
f 17 33 19
f 19 31 20
f 19 33 31
f 20 31 32
f 21 22 23
f 21 23 33
f 22 24 23
f 23 24 26
f 23 25 33
f 23 26 25
f 25 26 28
f 25 27 33
f 25 28 27
f 27 28 29
f 27 29 33
f 28 30 29
f 29 30 33
f 30 34 33
f 31 33 35
f 31 35 36
f 31 36 32
f 33 34 36
f 33 36 35
