# Exact connected-component conservative convex envelope; metres.
v 0.22402450442314148 0.0018317061476409435 -0.030350001528859138
v 0.22466291487216949 0.0017866874113678932 -0.02971000038087368
v 0.22511687874794006 -0.0076754172332584858 -0.030350001528859138
v 0.22572845220565796 -0.007486776914447546 -0.02971000038087368
v 0.22644026577472687 0.011091449297964573 -0.030350001528859138
v 0.2270192950963974 0.010818852111697197 -0.02971000038087368
v 0.22956986725330353 -0.016145933419466019 -0.030350001528859138
v 0.23007197678089142 -0.015749100595712662 -0.02971000038087368
v 0.23203788697719574 0.018853224813938141 -0.030350001528859138
v 0.23247936367988586 0.018389860168099403 -0.02971000038087368
v 0.23623296618461609 -0.022103173658251762 -0.030350001528859138
v 0.23657132685184479 -0.021559933200478554 -0.02971000038087368
v 0.23678204417228699 -0.022435851395130157 -0.030350001528859138
v 0.23710691928863525 -0.021884426474571228 -0.02971000038087368
v 0.24006140232086182 0.024068774655461311 -0.030350001528859138
v 0.24030566215515137 0.023477219045162201 -0.02971000038087368
v 0.24577939510345459 -0.0256956797093153 -0.030350001528859138
v 0.24588312208652496 -0.025064149871468544 -0.02971000038087368
v 0.2494271844625473 0.026033693924546242 -0.030350001528859138
v 0.24944125115871429 0.025393854826688766 -0.02971000038087368
v 0.2552153468132019 -0.024858810007572174 -0.02971000038087368
v 0.25534674525260925 -0.025485171005129814 -0.030350001528859138
v 0.25865229964256287 0.023880904540419579 -0.02971000038087368
v 0.25887030363082886 0.024482632055878639 -0.030350001528859138
v 0.26384320855140686 -0.021296149119734764 -0.02971000038087368
v 0.26419201493263245 -0.021832743659615517 -0.030350001528859138
v 0.2666948139667511 0.019142705947160721 -0.02971000038087368
v 0.26711547374725342 0.019625045359134674 -0.030350001528859138
v 0.27060145139694214 -0.014857330359518528 -0.02971000038087368
v 0.27112054824829102 -0.015231684781610966 -0.030350001528859138
v 0.27248257398605347 0.011819181032478809 -0.02971000038087368
v 0.27304908633232117 0.012116984464228153 -0.030350001528859138
v 0.27457737922668457 -0.0064119431190192699 -0.02971000038087368
v 0.27519664168357849 -0.0065735033713281155 -0.030350001528859138
v 0.27523398399353027 0.0028994120657444 -0.02971000038087368
v 0.27586978673934937 0.0029724666383117437 -0.030350001528859138
f 1 2 6
f 1 3 2
f 1 5 32
f 1 6 5
f 1 32 3
f 2 3 4
f 2 4 23
f 2 23 6
f 3 7 8
f 3 8 4
f 3 32 7
f 4 8 23
f 5 6 9
f 5 9 32
f 6 10 9
f 6 23 10
f 7 11 8
f 7 32 11
f 8 11 12
f 8 12 23
f 9 10 16
f 9 15 32
f 9 16 15
f 10 23 16
f 11 13 12
f 11 32 13
f 12 13 14
f 12 14 23
f 13 17 18
f 13 18 14
f 13 32 17
f 14 18 23
f 15 16 20
f 15 19 32
f 15 20 19
f 16 23 20
f 17 22 18
f 17 32 22
f 18 21 23
f 18 22 21
f 19 20 24
f 19 24 32
f 20 23 24
f 21 22 26
f 21 25 23
f 21 26 25
f 22 32 26
f 23 25 29
f 23 27 28
f 23 28 24
f 23 29 33
f 23 31 27
f 23 33 35
f 23 35 31
f 24 28 32
f 25 26 30
f 25 30 29
f 26 32 30
f 27 31 32
f 27 32 28
f 29 30 33
f 30 32 34
f 30 34 33
f 31 35 32
f 32 35 36
f 32 36 34
f 33 34 35
f 34 36 35
