# Exact connected-component conservative convex envelope; metres.
v -0.12065499275922775 -0.039430096745491028 -0.01119999960064888
v -0.12065499275922775 -0.039430096745491028 -0.0012000000569969416
v -0.12039986252784729 -0.044137954711914062 -0.01119999960064888
v -0.12039986252784729 -0.044137954711914062 -0.0012000000569969416
v -0.11943613737821579 -0.034875601530075073 -0.01119999960064888
v -0.11943613737821579 -0.034875601530075073 -0.0012000000569969416
v -0.11869595944881439 -0.048534050583839417 -0.01119999960064888
v -0.11869595944881439 -0.048534050583839417 -0.0012000000569969416
v -0.11686373502016068 -0.030924433842301369 -0.01119999960064888
v -0.11686373502016068 -0.030924433842301369 -0.0012000000569969416
v -0.11571162194013596 -0.052184082567691803 -0.01119999960064888
v -0.11571162194013596 -0.052184082567691803 -0.0012000000569969416
v -0.11319191753864288 -0.027966948226094246 -0.01119999960064888
v -0.11319191753864288 -0.027966948226094246 -0.0012000000569969416
v -0.11174169927835464 -0.054727446287870407 -0.01119999960064888
v -0.11174169927835464 -0.054727446287870407 -0.0012000000569969416
v -0.10717839002609253 -0.055912856012582779 -0.01119999960064888
v -0.10717839002609253 -0.055912856012582779 -0.0012000000569969416
v -0.10247252881526947 -0.055623207241296768 -0.01119999960064888
v -0.10247252881526947 -0.055623207241296768 -0.0012000000569969416
v -0.082641884684562683 -0.051203545182943344 -0.01119999960064888
v -0.071235470473766327 -0.0039306515827775002 -0.01119999960064888
v -0.020980797708034515 0.024859588593244553 -0.01119999960064888
v -0.017198961228132248 0.027026152238249779 -0.01119999960064888
v -0.015906959772109985 0.02776632085442543 -0.01119999960064888
v -0.015906959772109985 0.02776632085442543 -0.0012000000569969416
v -0.0091732023283839226 0.030657012015581131 -0.01119999960064888
v -0.0091732023283839226 0.030657012015581131 -0.0012000000569969416
v -0.0029923261608928442 -0.03345201164484024 -0.01119999960064888
v -0.0019583902321755886 0.031940016895532608 -0.01119999960064888
v -0.0019583902321755886 0.031940016895532608 -0.0012000000569969416
v 0.0053591206669807434 0.031548056751489639 -0.01119999960064888
v 0.0053591206669807434 0.031548056751489639 -0.0012000000569969416
v 0.0069610676728188992 -0.031233692541718483 -0.01119999960064888
v 0.0069610676728188992 -0.031233692541718483 -0.0012000000569969416
v 0.0080834794789552689 -0.030962191522121429 -0.01119999960064888
v 0.010288119316101074 -0.030301066115498543 -0.01119999960064888
v 0.012395594269037247 0.02950168214738369 -0.01119999960064888
v 0.012395594269037247 0.02950168214738369 -0.0012000000569969416
v 0.012919959612190723 -0.029275836423039436 -0.01119999960064888
v 0.013884021900594234 -0.028831128031015396 -0.01119999960064888
v 0.013884021900594234 -0.028831128031015396 -0.0012000000569969416
v 0.018782028928399086 0.025908209383487701 -0.01119999960064888
v 0.018782028928399086 0.025908209383487701 -0.0012000000569969416
v 0.020078882575035095 -0.024916630238294601 -0.01119999960064888
v 0.020078882575035095 -0.024916630238294601 -0.0012000000569969416
v 0.024183517321944237 0.020956084132194519 -0.01119999960064888
v 0.024183517321944237 0.020956084132194519 -0.0012000000569969416
v 0.025220787152647972 -0.019695479422807693 -0.01119999960064888
v 0.025220787152647972 -0.019695479422807693 -0.0012000000569969416
v 0.028316795825958252 0.01490500196814537 -0.01119999960064888
v 0.028316795825958252 0.01490500196814537 -0.0012000000569969416
v 0.029040085151791573 -0.013441476970911026 -0.01119999960064888
v 0.029040085151791573 -0.013441476970911026 -0.0012000000569969416
v 0.029312051832675934 0.012837588787078857 -0.01119999960064888
v 0.030305655673146248 0.010274589061737061 -0.01119999960064888
v 0.03092489019036293 0.0082250302657485008 -0.01119999960064888
v 0.030965112149715424 0.00807228684425354 -0.01119999960064888
v 0.030965112149715424 0.00807228684425354 -0.0012000000569969416
v 0.031336493790149689 -0.006482589989900589 -0.01119999960064888
v 0.031336493790149689 -0.006482589989900589 -0.0012000000569969416
v 0.031989585608243942 0.00081625027814880013 -0.01119999960064888
v 0.031989585608243942 0.00081625027814880013 -0.0012000000569969416
f 1 2 5
f 1 3 4
f 1 4 2
f 1 5 40
f 1 40 3
f 2 4 6
f 2 6 5
f 3 7 4
f 3 40 7
f 4 7 8
f 4 8 12
f 4 10 6
f 4 12 16
f 4 14 10
f 4 16 18
f 4 18 20
f 4 20 35
f 4 26 14
f 4 28 26
f 4 31 28
f 4 33 31
f 4 35 42
f 4 39 33
f 4 42 46
f 4 44 39
f 4 46 50
f 4 48 44
f 4 50 54
f 4 52 48
f 4 54 61
f 4 59 52
f 4 61 63
f 4 63 59
f 5 6 10
f 5 9 40
f 5 10 9
f 7 11 8
f 7 40 11
f 8 11 12
f 9 10 14
f 9 13 40
f 9 14 13
f 11 15 12
f 11 40 15
f 12 15 16
f 13 14 22
f 13 22 40
f 14 23 22
f 14 26 23
f 15 17 16
f 15 40 17
f 16 17 18
f 17 19 20
f 17 20 18
f 17 40 19
f 19 21 20
f 19 40 21
f 20 21 35
f 21 29 35
f 21 40 29
f 22 23 40
f 23 24 40
f 23 26 24
f 24 25 40
f 24 26 25
f 25 26 28
f 25 27 40
f 25 28 27
f 27 28 31
f 27 30 40
f 27 31 30
f 29 34 35
f 29 40 34
f 30 31 32
f 30 32 40
f 31 33 32
f 32 33 39
f 32 38 40
f 32 39 38
f 34 36 35
f 34 40 36
f 35 36 37
f 35 37 42
f 36 40 37
f 37 40 42
f 38 39 44
f 38 43 40
f 38 44 43
f 40 41 42
f 40 43 47
f 40 45 41
f 40 47 51
f 40 49 45
f 40 51 55
f 40 53 49
f 40 55 56
f 40 56 57
f 40 57 58
f 40 58 62
f 40 60 53
f 40 62 60
f 41 45 46
f 41 46 42
f 43 44 47
f 44 48 47
f 45 49 46
f 46 49 50
f 47 48 52
f 47 52 51
f 49 53 54
f 49 54 50
f 51 52 55
f 52 56 55
f 52 59 56
f 53 60 54
f 54 60 61
f 56 59 57
f 57 59 58
f 58 59 63
f 58 63 62
f 60 62 61
f 61 62 63
