# Exact connected-component conservative convex envelope; metres.
v 0.0070228497497737408 -0.09331328421831131 -0.0080000003799796104
v 0.0070228497497737408 -0.09331328421831131 3.799816017391322e-10
v 0.0071405153721570969 -0.097936265170574188 -0.0080000003799796104
v 0.0071405153721570969 -0.097936265170574188 3.7998154622798097e-10
v 0.0088156899437308311 -0.089050479233264923 -0.0080000003799796104
v 0.0088156899437308311 -0.089050479233264923 3.7998157398355659e-10
v 0.0091478917747735977 -0.10210234671831131 -0.0080000003799796104
v 0.0091478917747735977 -0.10210234671831131 3.7998154622798097e-10
v 0.012690194882452488 -0.10507520288228989 -0.0080000003799796104
v 0.012690194882452488 -0.10507520288228989 3.7998154622798097e-10
v 0.017141344025731087 -0.10632941126823425 -0.0080000003799796104
v 0.017141344025731087 -0.10632941126823425 3.7998154622798097e-10
v 0.021714640781283379 -0.10564330220222473 -0.0080000003799796104
v 0.021714640781283379 -0.10564330220222473 3.7998157398355659e-10
v 0.025601785629987717 -0.10313812643289566 -0.0080000003799796104
v 0.025601785629987717 -0.10313812643289566 3.7998157398355659e-10
v 0.12116935104131699 -0.0077869868837296963 -0.0080000003799796104
v 0.12116935104131699 -0.0077869868837296963 3.7998154622798097e-10
v 0.12290074676275253 -0.0055439933203160763 -0.0080000003799796104
v 0.12290074676275253 -0.0055439933203160763 3.7998154622798097e-10
v 0.13809041678905487 0.064080923795700073 -0.0080000003799796104
v 0.13809041678905487 0.064080923795700073 3.799816017391322e-10
v 0.14156623184680939 0.067334994673728943 -0.0080000003799796104
v 0.14156623184680939 0.067334994673728943 3.799816017391322e-10
v 0.14609158039093018 0.068815380334854126 -0.0080000003799796104
v 0.14609158039093018 0.068815380334854126 3.799816017391322e-10
v 0.1508185863494873 0.068244725465774536 -0.0080000003799796104
v 0.1508185863494873 0.068244725465774536 3.799816017391322e-10
v 0.15486162900924683 0.065729938447475433 -0.0080000003799796104
v 0.15486162900924683 0.065729938447475433 3.799816017391322e-10
v 0.15675362944602966 0.052472338080406189 -0.0080000003799796104
v 0.15675362944602966 0.052472338080406189 3.7998157398355659e-10
v 0.1574631929397583 0.061742193996906281 -0.0080000003799796104
v 0.1574631929397583 0.061742193996906281 3.799816017391322e-10
v 0.15813587605953217 0.057028613984584808 -0.0080000003799796104
v 0.15813587605953217 0.057028613984584808 3.799816017391322e-10
f 1 2 5
f 1 3 4
f 1 4 2
f 1 5 19
f 1 19 3
f 2 4 6
f 2 6 5
f 3 7 4
f 3 19 7
f 4 7 8
f 4 8 10
f 4 10 12
f 4 12 14
f 4 14 16
f 4 16 18
f 4 18 20
f 4 20 32
f 4 22 6
f 4 24 22
f 4 26 24
f 4 28 26
f 4 30 28
f 4 32 36
f 4 34 30
f 4 36 34
f 5 6 22
f 5 21 19
f 5 22 21
f 7 9 8
f 7 19 9
f 8 9 10
f 9 11 10
f 9 19 11
f 10 11 12
f 11 13 14
f 11 14 12
f 11 19 13
f 13 15 14
f 13 19 15
f 14 15 16
f 15 17 16
f 15 19 17
f 16 17 18
f 17 19 18
f 18 19 20
f 19 21 23
f 19 23 25
f 19 25 27
f 19 27 29
f 19 29 33
f 19 31 32
f 19 32 20
f 19 33 35
f 19 35 31
f 21 22 23
f 22 24 23
f 23 24 26
f 23 26 25
f 25 26 27
f 26 28 27
f 27 28 29
f 28 30 29
f 29 30 34
f 29 34 33
f 31 35 36
f 31 36 32
f 33 34 35
f 34 36 35
