# Exact connected-component conservative convex envelope; metres.
v 0.21832035481929779 -0.0021126591600477695 -0.024640001356601715
v 0.21832035481929779 -0.0021126591600477695 -0.024000000208616257
v 0.21935087442398071 0.0082881711423397064 -0.024640001356601715
v 0.21935087442398071 0.0082881711423397064 -0.024000000208616257
v 0.22072283923625946 -0.012284549884498119 -0.024640001356601715
v 0.22072283923625946 -0.012284549884498119 -0.024000000208616257
v 0.22370269894599915 0.017790848389267921 -0.024640001356601715
v 0.22370269894599915 0.017790848389267921 -0.024000000208616257
v 0.22629792988300323 -0.021125217899680138 -0.024640001356601715
v 0.22629792988300323 -0.021125217899680138 -0.024000000208616257
v 0.2309042364358902 0.025365613400936127 -0.024640001356601715
v 0.2309042364358902 0.025365613400936127 -0.024000000208616257
v 0.23321415483951569 -0.026949912309646606 -0.024640001356601715
v 0.23444153368473053 -0.027676640078425407 -0.024640001356601715
v 0.23444153368473053 -0.027676640078425407 -0.024000000208616257
v 0.24017509818077087 0.03019162081182003 -0.024640001356601715
v 0.24017509818077087 0.03019162081182003 -0.024000000208616257
v 0.24427111446857452 -0.031228873878717422 -0.024640001356601715
v 0.24427111446857452 -0.031228873878717422 -0.024000000208616257
v 0.25051063299179077 0.031745892018079758 -0.024640001356601715
v 0.25051063299179077 0.031745892018079758 -0.024000000208616257
v 0.25472152233123779 -0.031396970152854919 -0.024640001356601715
v 0.25472152233123779 -0.031396970152854919 -0.024000000208616257
v 0.26079085469245911 0.029860010370612144 -0.024640001356601715
v 0.26079085469245911 0.029860010370612144 -0.024000000208616257
v 0.26466026902198792 -0.028162721544504166 -0.024640001356601715
v 0.26466026902198792 -0.028162721544504166 -0.024000000208616257
v 0.26990169286727905 0.02473832294344902 -0.024640001356601715
v 0.26990169286727905 0.02473832294344902 -0.024000000208616257
v 0.27301034331321716 -0.021876603364944458 -0.024640001356601715
v 0.27301034331321716 -0.021876603364944458 -0.024000000208616257
v 0.27642634510993958 0.017598571255803108 -0.024640001356601715
v 0.27685588598251343 0.016935862600803375 -0.024640001356601715
v 0.27685588598251343 0.016935862600803375 -0.024000000208616257
v 0.27886691689491272 -0.013219810090959072 -0.024640001356601715
v 0.27886691689491272 -0.013219810090959072 -0.024000000208616257
v 0.28089982271194458 0.007298134732991457 -0.024640001356601715
v 0.28089982271194458 0.007298134732991457 -0.024000000208616257
v 0.28159528970718384 -0.0031304555013775826 -0.024640001356601715
v 0.28159528970718384 -0.0031304555013775826 -0.024000000208616257
f 1 2 3
f 1 3 30
f 1 5 6
f 1 6 2
f 1 30 5
f 2 4 3
f 2 6 4
f 3 4 8
f 3 7 30
f 3 8 7
f 4 6 8
f 5 9 6
f 5 30 9
f 6 9 10
f 6 10 15
f 6 12 8
f 6 15 19
f 6 17 12
f 6 19 23
f 6 21 17
f 6 23 27
f 6 25 21
f 6 27 31
f 6 29 25
f 6 31 36
f 6 34 29
f 6 36 40
f 6 38 34
f 6 40 38
f 7 8 11
f 7 11 30
f 8 12 11
f 9 13 10
f 9 30 13
f 10 13 15
f 11 12 16
f 11 16 30
f 12 17 16
f 13 14 15
f 13 30 14
f 14 18 19
f 14 19 15
f 14 30 18
f 16 17 21
f 16 20 30
f 16 21 20
f 18 22 23
f 18 23 19
f 18 30 22
f 20 21 24
f 20 24 30
f 21 25 24
f 22 26 23
f 22 30 26
f 23 26 27
f 24 25 29
f 24 28 30
f 24 29 28
f 26 30 27
f 27 30 31
f 28 29 32
f 28 32 30
f 29 34 32
f 30 32 33
f 30 33 37
f 30 35 36
f 30 36 31
f 30 37 39
f 30 39 35
f 32 34 33
f 33 34 38
f 33 38 37
f 35 39 40
f 35 40 36
f 37 38 39
f 38 40 39
