# Exact connected-component conservative convex envelope; metres.
v 0.13620908558368683 0.058818534016609192 -4.7184478546569153e-16
v 0.13620908558368683 0.058818534016609192 0.0080000003799796104
v 0.13644935190677643 0.055396031588315964 -4.8572257327350599e-16
v 0.13644935190677643 0.055396031588315964 0.0080000003799796104
v 0.13703493773937225 0.062148578464984894 -4.7184478546569153e-16
v 0.13703493773937225 0.062148578464984894 0.0080000003799796104
v 0.13773235678672791 0.05221402645111084 -4.8572257327350599e-16
v 0.13773235678672791 0.05221402645111084 0.0080000003799796104
v 0.13884656131267548 0.06506221741437912 -4.7184478546569153e-16
v 0.13884656131267548 0.06506221741437912 0.0080000003799796104
v 0.1399332731962204 0.049582075327634811 -4.9960036108132044e-16
v 0.1399332731962204 0.049582075327634811 0.0080000003799796104
v 0.14146770536899567 0.067275993525981903 -4.7184478546569153e-16
v 0.14146770536899567 0.067275993525981903 0.0080000003799796104
v 0.1428380161523819 0.047756217420101166 -4.9960036108132044e-16
v 0.1428380161523819 0.047756217420101166 0.0080000003799796104
v 0.1446433961391449 0.06857454776763916 -4.7184478546569153e-16
v 0.1446433961391449 0.06857454776763916 0.0080000003799796104
v 0.14616398513317108 0.046914082020521164 -4.9960036108132044e-16
v 0.14616398513317108 0.046914082020521164 0.0080000003799796104
v 0.14806468784809113 0.068831562995910645 -4.5796699765787707e-16
v 0.14806468784809113 0.068831562995910645 0.0080000003799796104
v 0.24293972551822662 0.06883694976568222 -4.7184478546569153e-16
v 0.24293972551822662 0.06883694976568222 0.0080000003799796104
v 0.24401766061782837 0.046871006488800049 -4.8572257327350599e-16
v 0.24401766061782837 0.046871006488800049 0.0080000003799796104
v 0.2464260458946228 0.068542182445526123 -4.4408920985006262e-16
v 0.2464260458946228 0.068542182445526123 0.0080000003799796104
v 0.24745836853981018 0.047505699098110199 -4.7184478546569153e-16
v 0.24745836853981018 0.047505699098110199 0.0080000003799796104
v 0.24964345991611481 0.067167550325393677 -4.7184478546569153e-16
v 0.24964345991611481 0.067167550325393677 0.0080000003799796104
v 0.25052571296691895 0.04918874055147171 -4.7184478546569153e-16
v 0.25052571296691895 0.04918874055147171 0.0080000003799796104
v 0.25226643681526184 0.064852118492126465 -4.5796699765787707e-16
v 0.25226643681526184 0.064852118492126465 0.0080000003799796104
v 0.25290942192077637 0.051749866455793381 -4.7184478546569153e-16
v 0.25290942192077637 0.051749866455793381 0.0080000003799796104
v 0.25402966141700745 0.061830133199691772 -4.5796699765787707e-16
v 0.25402966141700745 0.061830133199691772 0.0080000003799796104
v 0.25436827540397644 0.054929971694946289 -4.7184478546569153e-16
v 0.25436827540397644 0.054929971694946289 0.0080000003799796104
v 0.25475472211837769 0.058407329022884369 -4.5796699765787707e-16
v 0.25475472211837769 0.058407329022884369 0.0080000003799796104
f 1 2 5
f 1 3 4
f 1 4 2
f 1 5 13
f 1 13 3
f 2 4 36
f 2 6 5
f 2 36 6
f 3 7 4
f 3 13 7
f 4 7 8
f 4 8 36
f 5 6 10
f 5 9 13
f 5 10 9
f 6 36 10
f 7 11 12
f 7 12 8
f 7 13 11
f 8 12 36
f 9 10 13
f 10 14 13
f 10 36 14
f 11 13 15
f 11 15 12
f 12 15 16
f 12 16 36
f 13 14 18
f 13 17 21
f 13 18 17
f 13 19 15
f 13 21 23
f 13 23 27
f 13 25 19
f 13 27 31
f 13 29 25
f 13 31 35
f 13 33 29
f 13 35 39
f 13 37 33
f 13 39 43
f 13 41 37
f 13 43 41
f 14 36 18
f 15 19 20
f 15 20 16
f 16 20 36
f 17 18 22
f 17 22 21
f 18 36 22
f 19 25 26
f 19 26 20
f 20 26 36
f 21 22 23
f 22 24 23
f 22 36 24
f 23 24 28
f 23 28 27
f 24 36 28
f 25 29 30
f 25 30 26
f 26 30 36
f 27 28 31
f 28 32 31
f 28 36 32
f 29 33 34
f 29 34 30
f 30 34 36
f 31 32 36
f 31 36 35
f 33 37 34
f 34 37 38
f 34 38 36
f 35 36 39
f 36 38 42
f 36 40 39
f 36 42 44
f 36 44 40
f 37 41 42
f 37 42 38
f 39 40 43
f 40 44 43
f 41 43 42
f 42 43 44
