# Exact connected-component conservative convex envelope; metres.
v -0.043228365480899811 0.0048536877147853374 -9.2387197891952155e-10
v -0.043228365480899811 0.0048536877147853374 0.014999999664723873
v -0.043058246374130249 -0.0061836349777877331 -9.2387197891952155e-10
v -0.043058246374130249 -0.0061836349777877331 0.014999999664723873
v -0.041522245854139328 -0.012967383489012718 -9.2387197891952155e-10
v -0.041209876537322998 0.01392824575304985 -9.2387197891952155e-10
v -0.040614794939756393 0.015578457154333591 -9.2387197891952155e-10
v -0.040614794939756393 0.015578457154333591 0.014999999664723873
v -0.040115393698215485 -0.016822762787342072 -9.2387197891952155e-10
v -0.040115393698215485 -0.016822762787342072 0.014999999664723873
v -0.035385835915803909 0.025300052016973495 -9.2387197891952155e-10
v -0.035385835915803909 0.025300052016973495 0.014999999664723873
v -0.034589305520057678 -0.026378586888313293 -9.2387197891952155e-10
v -0.034589305520057678 -0.026378586888313293 0.014999999664723873
v -0.027878204360604286 0.033392447978258133 -9.2387197891952155e-10
v -0.027878204360604286 0.033392447978258133 0.014999999664723873
v -0.026835842058062553 -0.034235764294862747 -9.2387197891952155e-10
v -0.026835842058062553 -0.034235764294862747 0.014999999664723873
v -0.018575357273221016 0.039334539324045181 -9.2387197891952155e-10
v -0.018575357273221016 0.039334539324045181 0.014999999664723873
v -0.017354285344481468 -0.039888329803943634 -9.2387197891952155e-10
v -0.017354285344481468 -0.039888329803943634 0.014999999664723873
v -0.0080763502046465874 0.042743682861328125 -9.2387197891952155e-10
v -0.0080763502046465874 0.042743682861328125 0.014999999664723873
v -0.006755197886377573 -0.04297228530049324 -9.2387197891952155e-10
v 0.0029427343979477882 0.043400350958108902 -9.2387197891952155e-10
v 0.0029427343979477882 0.043400350958108902 0.014999999664723873
v 0.0042788898572325706 -0.043289043009281158 -9.2387197891952155e-10
v 0.010489417240023613 -0.055973406881093979 0.0099999997764825821
v 0.010489417240023613 -0.055973406881093979 0.014999999664723873
v 0.014281449839472771 -0.057462893426418304 0.0099999997764825821
v 0.014281449839472771 -0.057462893426418304 0.014999999664723873
v 0.01834171824157238 -0.057127762585878372 0.0099999997764825821
v 0.01834171824157238 -0.057127762585878372 0.014999999664723873
v 0.20929376780986786 -0.029991686344146729 -9.2387197891952155e-10
v 0.20999999344348907 0.029999999329447746 -9.2387197891952155e-10
v 0.20999999344348907 0.029999999329447746 0.014999999664723873
v 0.21783401072025299 -0.028959080576896667 -9.2387197891952155e-10
v 0.21783401072025299 -0.028959080576896667 0.014999999664723873
v 0.21851356327533722 0.028766633942723274 -9.2387197891952155e-10
v 0.21851356327533722 0.028766633942723274 0.014999999664723873
v 0.22573010623455048 -0.025545330718159676 -9.2387197891952155e-10
v 0.22573010623455048 -0.025545330718159676 0.014999999664723873
v 0.22632710635662079 0.025167947635054588 -9.2387197891952155e-10
v 0.22632710635662079 0.025167947635054588 0.014999999664723873
v 0.23233279585838318 -0.020031129941344261 -9.2387197891952155e-10
v 0.23233279585838318 -0.020031129941344261 0.014999999664723873
v 0.23279815912246704 0.019499840214848518 -9.2387197891952155e-10
v 0.23279815912246704 0.019499840214848518 0.014999999664723873
v 0.23709918558597565 -0.012869881466031075 -9.2387197891952155e-10
v 0.23709918558597565 -0.012869881466031075 0.014999999664723873
v 0.23739464581012726 0.012228370644152164 -9.2387197891952155e-10
v 0.23739464581012726 0.012228370644152164 0.014999999664723873
v 0.23963737487792969 -0.0046504144556820393 -9.2387197891952155e-10
v 0.23963737487792969 -0.0046504144556820393 0.014999999664723873
v 0.23973862826824188 0.0039514303207397461 -9.2387197891952155e-10
v 0.23973862826824188 0.0039514303207397461 0.014999999664723873
f 1 2 6
f 1 3 2
f 1 6 50
f 1 50 3
f 2 3 4
f 2 4 51
f 2 8 6
f 2 51 8
f 3 5 4
f 3 50 5
f 4 5 10
f 4 10 51
f 5 9 10
f 5 50 9
f 6 7 50
f 6 8 7
f 7 8 11
f 7 11 50
f 8 12 11
f 8 51 12
f 9 13 14
f 9 14 10
f 9 50 13
f 10 14 51
f 11 12 15
f 11 15 50
f 12 16 15
f 12 51 16
f 13 17 18
f 13 18 14
f 13 50 17
f 14 18 51
f 15 16 20
f 15 19 50
f 15 20 19
f 16 51 20
f 17 21 22
f 17 22 18
f 17 50 21
f 18 22 51
f 19 20 23
f 19 23 50
f 20 24 23
f 20 51 24
f 21 25 31
f 21 29 22
f 21 31 29
f 21 50 25
f 22 29 30
f 22 30 51
f 23 24 27
f 23 26 50
f 23 27 26
f 24 51 27
f 25 28 31
f 25 50 28
f 26 27 37
f 26 36 50
f 26 37 36
f 27 51 37
f 28 35 31
f 28 50 35
f 29 31 32
f 29 32 30
f 30 32 51
f 31 33 34
f 31 34 32
f 31 35 33
f 32 34 51
f 33 35 38
f 33 38 34
f 34 38 39
f 34 39 51
f 35 50 38
f 36 37 40
f 36 40 50
f 37 41 40
f 37 51 41
f 38 42 43
f 38 43 39
f 38 50 42
f 39 43 51
f 40 41 45
f 40 44 50
f 40 45 44
f 41 51 45
f 42 46 43
f 42 50 46
f 43 46 47
f 43 47 51
f 44 45 49
f 44 48 50
f 44 49 48
f 45 51 49
f 46 50 51
f 46 51 47
f 48 49 52
f 48 52 50
f 49 51 53
f 49 53 52
f 50 52 56
f 50 54 51
f 50 56 54
f 51 54 55
f 51 55 57
f 51 57 53
f 52 53 57
f 52 57 56
f 54 56 55
f 55 56 57
