# Exact connected-component conservative convex envelope; metres.
v -0.11767268180847168 -0.042208950966596603 -0.0012000000569969416
v -0.11767268180847168 -0.042208950966596603 0.0068000005558133125
v -0.11736570298671722 -0.038026213645935059 -0.0012000000569969416
v -0.11736570298671722 -0.038026213645935059 0.0068000005558133125
v -0.11652154475450516 -0.046241864562034607 -0.0012000000569969416
v -0.11652154475450516 -0.046241864562034607 0.0068000005558133125
v -0.11563809961080551 -0.034204576164484024 -0.0012000000569969416
v -0.11563809961080551 -0.034204576164484024 0.0068000005558133125
v -0.1140529066324234 -0.04963233694434166 -0.0012000000569969416
v -0.1140529066324234 -0.04963233694434166 0.0068000005558133125
v -0.11270090937614441 -0.031210849061608315 -0.0012000000569969416
v -0.11270090937614441 -0.031210849061608315 0.0068000005558133125
v -0.11056830734014511 -0.051966235041618347 -0.0012000000569969416
v -0.11056830734014511 -0.051966235041618347 0.0068000005558133125
v -0.10891289263963699 -0.029410708695650101 -0.0012000000569969416
v -0.10891289263963699 -0.029410708695650101 0.0068000005558133125
v -0.10473677515983582 -0.029024047777056694 -0.0012000000569969416
v -0.10473677515983582 -0.029024047777056694 0.0068000005558133125
v -0.10068264603614807 -0.030098093673586845 -0.0012000000569969416
v -0.10068264603614807 -0.030098093673586845 0.0068000005558133125
v 0.012999656610190868 -0.10633495450019836 -0.0012000000569969416
v 0.012999656610190868 -0.10633495450019836 0.0068000005558133125
v 0.017074581235647202 -0.1073271855711937 -0.0012000000569969416
v 0.017074581235647202 -0.1073271855711937 0.0068000005558133125
v 0.021242076531052589 -0.10685654729604721 -0.0012000000569969416
v 0.021242076531052589 -0.10685654729604721 0.0068000005558133125
v 0.022443149238824844 -0.084272280335426331 -0.0012000000569969416
v 0.022443149238824844 -0.084272280335426331 0.0068000005558133125
v 0.024993084371089935 -0.10498052835464478 -0.0012000000569969416
v 0.024993084371089935 -0.10498052835464478 0.0068000005558133125
v 0.02597402036190033 -0.086535550653934479 -0.0012000000569969416
v 0.02597402036190033 -0.086535550653934479 0.0068000005558133125
v 0.027869423851370811 -0.10192828625440598 -0.0012000000569969416
v 0.027869423851370811 -0.10192828625440598 0.0068000005558133125
v 0.028510404750704765 -0.089875653386116028 -0.0012000000569969416
v 0.028510404750704765 -0.089875653386116028 0.0068000005558133125
v 0.029519753530621529 -0.098072655498981476 -0.0012000000569969416
v 0.029519753530621529 -0.098072655498981476 0.0068000005558133125
v 0.02974248118698597 -0.093884587287902832 -0.0012000000569969416
v 0.02974248118698597 -0.093884587287902832 0.0068000005558133125
f 1 2 4
f 1 3 35
f 1 4 3
f 1 5 2
f 1 35 5
f 2 5 6
f 2 6 8
f 2 8 4
f 3 4 8
f 3 7 35
f 3 8 7
f 5 9 10
f 5 10 6
f 5 35 9
f 6 10 8
f 7 8 11
f 7 11 35
f 8 10 14
f 8 12 11
f 8 14 22
f 8 16 12
f 8 18 16
f 8 20 18
f 8 22 24
f 8 24 26
f 8 26 30
f 8 28 20
f 8 30 34
f 8 32 28
f 8 34 38
f 8 36 32
f 8 38 40
f 8 40 36
f 9 13 10
f 9 35 13
f 10 13 14
f 11 12 15
f 11 15 35
f 12 16 15
f 13 21 14
f 13 35 21
f 14 21 22
f 15 16 17
f 15 17 35
f 16 18 17
f 17 18 20
f 17 19 35
f 17 20 19
f 19 20 27
f 19 27 35
f 20 28 27
f 21 23 24
f 21 24 22
f 21 35 23
f 23 25 26
f 23 26 24
f 23 35 25
f 25 29 26
f 25 35 29
f 26 29 30
f 27 28 32
f 27 31 35
f 27 32 31
f 29 33 34
f 29 34 30
f 29 35 33
f 31 32 36
f 31 36 35
f 33 35 37
f 33 37 34
f 34 37 38
f 35 36 39
f 35 39 37
f 36 40 39
f 37 39 38
f 38 39 40
