# https://github.com/mikedh/trimesh
v 0.16599563 -0.00375222 0.04258242
v 0.16799602 0.00251006 0.04266296
v 0.11148828 0.03533137 0.04949283
v 0.25253138 -0.02133176 0.00631442
v 0.25257334 -0.01524755 0.01553151
v 0.25259718 0.00552209 0.02076495
v 0.25259718 -0.00552209 0.02076495
v 0.25015032 -0.00000000 0.02146112
v 0.25257334 0.01524755 0.01553151
v 0.25253138 0.02133176 0.00631442
v 0.14803623 0.10929593 0.00761779
v -0.25239760 -0.00552209 0.02306456
v -0.25242144 -0.01524755 0.01783112
v -0.25246340 -0.02133176 0.00861403
v -0.25246340 0.02133176 0.00861403
v -0.25242144 0.01524755 0.01783112
v -0.25239760 0.00552209 0.02306456
v -0.24994448 -0.00000000 0.02373842
v -0.25252429 0.00539736 -0.00475508
v -0.25252429 -0.00539736 -0.00475508
v -0.11277115 0.04115611 0.05051405
v -0.14796072 -0.10929593 0.00896569
v 0.08971317 -0.03000000 -0.17299329
v 0.11494780 0.25650001 -0.12152470
v 0.11498515 0.25650001 -0.11332478
v 0.11491366 0.24150001 -0.12902462
v 0.11491701 0.24425000 -0.12828776
v 0.11498515 -0.25650001 -0.11332478
v 0.11494780 -0.25650001 -0.12152470
v 0.11491701 -0.24425000 -0.12828776
v 0.11491366 -0.24150001 -0.12902462
v 0.11518095 -0.24050000 -0.07032523
v 0.11219829 -0.24050000 -0.06651161
v 0.11479634 -0.23899999 -0.06652343
v 0.11369827 -0.24009807 -0.06651843
v -0.08399292 0.14532323 -0.15197545
v -0.09219284 0.14532323 -0.15193811
v -0.09219138 0.14713790 -0.15161815
v -0.09216121 0.18471554 -0.14499226
v 0.05835422 0.28197759 -0.11326690
v 0.00348539 0.28349999 -0.11301704
v 0.05070063 0.28349999 -0.11323205
v -0.05938336 0.28197759 -0.11273076
v -0.05172976 0.28349999 -0.11276560
v -0.11608060 0.24425000 -0.12723586
v -0.11608396 0.24150001 -0.12797272
v -0.11601247 0.25650001 -0.11227288
v -0.11604981 0.25650001 -0.12047280
v -0.10608069 0.24425000 -0.12728140
v -0.05171520 0.28349999 -0.10956564
v -0.05936878 0.28197759 -0.10953079
v 0.05071520 0.28349999 -0.11003208
v 0.00349997 0.28349999 -0.10981707
v 0.05836879 0.28197759 -0.11006694
v 0.11633850 -0.09950000 -0.14553128
v -0.11765906 -0.09950000 -0.14446571
v -0.08308504 -0.03000000 -0.17220642
v -0.08308504 0.03000000 -0.17220642
v -0.08382115 -0.25156924 -0.07033346
v -0.08381875 -0.25088239 -0.06980643
v -0.08262116 -0.25156924 -0.07033892
v -0.08261876 -0.25088239 -0.06981189
v -0.11279937 -0.24050000 -0.06548703
v -0.11429936 -0.24009807 -0.06548019
v -0.11539742 -0.23899999 -0.06547520
v 0.08317712 -0.25156924 -0.07109392
v 0.08317952 -0.25088239 -0.07056689
v 0.08197954 -0.25088239 -0.07056142
v -0.11429936 0.24009807 -0.06548019
v -0.11539742 0.23899999 -0.06547520
v -0.11279937 0.24050000 -0.06548703
v -0.09128495 -0.03000000 -0.17216907
v -0.09128495 0.03000000 -0.17216907
v 0.08971317 0.03000000 -0.17299329
v -0.14796072 0.10929593 0.00896569
v 0.10819833 0.24050000 -0.06649339
v 0.11219829 0.24050000 -0.06651161
v 0.11369827 0.24009807 -0.06651843
v 0.11479634 0.23899999 -0.06652343
v 0.09083690 0.18471554 -0.14582558
v 0.09083033 0.17654394 -0.14726645
v 0.09080527 0.14532323 -0.15277144
v -0.11581757 -0.24050000 -0.06947333
v -0.11581757 0.24050000 -0.06947333
v 0.11518005 0.24050000 -0.07052523
v -0.14082095 0.06309493 0.03964166
v -0.10919920 0.04392698 0.05049778
v -0.12158340 0.03228456 0.05055417
v -0.11277115 -0.04115611 0.05051405
v -0.10919920 -0.04392698 0.05049778
v -0.12158340 -0.03228456 0.05055417
v -0.14082095 -0.06309493 0.03964166
v -0.14182094 0.06282698 0.03964622
v -0.14255299 0.06209493 0.03964955
v -0.11952584 0.03760429 0.05054481
v -0.11463569 0.04220154 0.05052254
v -0.14255299 -0.06209493 0.03964955
v -0.14182094 -0.06282698 0.03964622
v -0.25263172 0.02300000 -0.02834989
v -0.25252125 0.02479896 -0.00408802
v -0.25251633 0.02342501 -0.00300763
v -0.25252521 0.02500000 -0.00496193
v -0.25263172 -0.02300000 -0.02834989
v -0.25252521 -0.02500000 -0.00496193
v -0.25252125 -0.02479896 -0.00408802
v -0.25262716 0.02473205 -0.02734990
v -0.25263050 0.02400000 -0.02808194
v -0.25262260 0.02500000 -0.02634991
v -0.25251633 -0.02342501 -0.00300763
v -0.25262260 -0.02500000 -0.02634991
v -0.25262716 -0.02473205 -0.02734990
v -0.25263050 -0.02400000 -0.02808194
v -0.11463569 -0.04220154 0.05052254
v -0.11952584 -0.03760429 0.05054481
v -0.16760050 0.00251006 0.04419118
v 0.11633850 0.09950000 -0.14553128
v -0.11765906 0.09950000 -0.14446571
v 0.14803623 -0.10929593 0.00761779
v 0.14117613 -0.06309493 0.03835752
v 0.12235345 -0.06309493 0.03844324
v 0.10965458 -0.04392698 0.04950118
v 0.12203877 -0.03228456 0.04944478
v 0.14217612 -0.06282698 0.03835297
v 0.14290817 -0.06209493 0.03834964
v 0.11998121 -0.03760429 0.04945415
v 0.11509106 -0.04220154 0.04947642
v 0.11148828 -0.03533137 0.04949283
v 0.25253272 0.00195472 0.00660763
v 0.25253272 -0.00195472 0.00660763
v 0.10965458 0.04392698 0.04950118
v 0.12203877 0.03228456 0.04944478
v 0.12235345 0.06309493 0.03844324
v 0.14117613 0.06309493 0.03835752
v 0.14290817 0.06209493 0.03834964
v 0.14217612 0.06282698 0.03835297
v 0.25236306 -0.02300000 -0.03064950
v 0.25236306 0.02300000 -0.03064950
v 0.25236428 0.02400000 -0.03038155
v 0.25246954 0.02500000 -0.00726154
v 0.25237215 0.02500000 -0.02864952
v 0.25236759 0.02473205 -0.02964951
v 0.25247672 -0.02423625 -0.00568941
v 0.25247353 -0.02479896 -0.00638763
v 0.25246954 -0.02500000 -0.00726154
v 0.25247353 0.02479896 -0.00638763
v 0.25247672 0.02423625 -0.00568941
v 0.25236759 -0.02473205 -0.02964951
v 0.25236428 -0.02400000 -0.03038155
v 0.25237215 -0.02500000 -0.02864952
v 0.11509106 0.04220154 0.04947642
v 0.11998121 0.03760429 0.04945415
v 0.05836879 -0.28197759 -0.11006694
v 0.05071520 -0.28349999 -0.11003208
v -0.05171520 -0.28349999 -0.10956564
v -0.05936878 -0.28197759 -0.10953079
v 0.05070063 -0.28349999 -0.11323205
v 0.05835422 -0.28197759 -0.11326690
v 0.00348539 -0.28349999 -0.11301704
v -0.05172976 -0.28349999 -0.11276560
v -0.05938336 -0.28197759 -0.11273076
v -0.11601247 -0.25650001 -0.11227288
v -0.11604981 -0.25650001 -0.12047280
v -0.11608396 -0.24150001 -0.12797272
v -0.11608060 -0.24425000 -0.12723586
v -0.10608069 -0.24425000 -0.12728140
v -0.09219002 -0.14883405 -0.15131907
v -0.09219284 -0.14532323 -0.15193811
v -0.09217062 -0.17299999 -0.14705801
v -0.09216121 -0.18471554 -0.14499226
v -0.08399292 -0.14532323 -0.15197545
v 0.09080527 -0.14532323 -0.15277144
v 0.09083033 -0.17654394 -0.14726645
v 0.09083690 -0.18471554 -0.14582558
f 99 117 73
f 56 103 72
f 163 56 72
f 103 56 163
f 49 45 41
f 45 49 39
f 46 73 117
f 46 117 99
f 45 39 46
f 63 60 92
f 73 46 37
f 51 43 47
f 90 92 121
f 121 92 120
f 54 25 24
f 54 42 52
f 52 77 54
f 78 25 54
f 54 77 78
f 31 23 55
f 167 163 72
f 57 167 72
f 26 137 116
f 116 74 26
f 137 74 116
f 164 159 162
f 163 169 164
f 123 121 119
f 119 121 120
f 120 92 68
f 68 119 120
f 67 119 68
f 59 155 154
f 59 60 63
f 111 110 105
f 162 110 111
f 104 161 105
f 105 110 104
f 162 161 104
f 104 110 162
f 38 46 39
f 38 37 46
f 26 74 82
f 6 2 8
f 6 8 7
f 123 5 7
f 7 8 2
f 48 47 43
f 42 24 27
f 26 80 27
f 41 42 27
f 27 80 39
f 27 49 41
f 27 39 49
f 140 24 25
f 140 141 24
f 40 42 54
f 54 24 40
f 40 24 42
f 41 45 44
f 45 48 44
f 44 48 43
f 69 75 93
f 93 71 69
f 51 47 69
f 69 71 51
f 86 71 93
f 93 87 86
f 76 133 77
f 76 53 71
f 52 53 76
f 77 52 76
f 145 25 10
f 6 146 10
f 10 146 145
f 30 31 148
f 168 169 163
f 160 161 162
f 160 155 161
f 162 159 160
f 160 159 154
f 154 155 160
f 159 164 158
f 158 30 156
f 105 161 14
f 161 83 14
f 114 115 12
f 17 115 95
f 118 5 123
f 123 35 118
f 118 35 5
f 32 35 28
f 66 154 153
f 67 68 66
f 28 35 152
f 152 66 153
f 35 66 152
f 153 156 152
f 33 119 67
f 67 66 33
f 33 66 35
f 33 35 123
f 123 119 33
f 62 92 60
f 62 68 92
f 112 105 103
f 112 111 105
f 162 111 112
f 112 164 162
f 103 163 112
f 163 164 112
f 105 14 13
f 73 37 58
f 58 82 74
f 81 80 26
f 26 82 81
f 39 80 81
f 81 38 39
f 81 82 38
f 126 121 123
f 123 125 126
f 124 125 123
f 123 7 124
f 124 7 125
f 2 125 1
f 1 7 2
f 125 7 1
f 128 146 6
f 139 25 145
f 145 140 139
f 139 140 25
f 51 71 50
f 71 53 50
f 50 43 51
f 50 44 43
f 133 76 132
f 71 86 132
f 132 76 71
f 25 78 85
f 85 10 25
f 6 10 9
f 78 11 9
f 141 140 138
f 145 146 138
f 138 140 145
f 24 141 138
f 138 27 24
f 138 137 26
f 26 27 138
f 129 7 142
f 55 23 136
f 136 31 55
f 136 148 31
f 163 167 166
f 166 168 163
f 30 158 165
f 165 158 164
f 165 169 30
f 165 164 169
f 22 13 64
f 64 83 161
f 161 155 64
f 64 59 63
f 155 59 64
f 95 115 88
f 94 95 93
f 93 17 94
f 94 17 95
f 93 75 16
f 16 17 93
f 75 69 16
f 18 17 12
f 12 115 18
f 115 17 18
f 5 35 34
f 35 32 34
f 61 59 154
f 154 66 61
f 61 66 68
f 68 62 61
f 157 152 156
f 109 20 103
f 109 13 20
f 103 105 109
f 105 13 109
f 12 13 98
f 98 13 22
f 22 64 98
f 98 92 90
f 63 92 98
f 98 64 63
f 36 58 37
f 82 58 36
f 37 38 36
f 38 82 36
f 89 126 114
f 122 125 2
f 122 126 125
f 79 85 78
f 10 85 79
f 78 9 79
f 79 9 10
f 4 7 5
f 4 142 7
f 5 34 4
f 4 34 32
f 4 32 28
f 147 148 149
f 168 166 171
f 171 57 23
f 23 31 171
f 65 13 14
f 65 64 13
f 65 14 83
f 83 64 65
f 115 114 91
f 91 88 115
f 99 19 101
f 19 16 101
f 28 152 29
f 152 157 29
f 29 149 28
f 147 149 29
f 29 148 147
f 30 148 29
f 156 30 29
f 29 157 156
f 97 114 12
f 12 98 97
f 97 98 114
f 113 89 114
f 113 98 90
f 114 98 113
f 126 89 113
f 90 121 113
f 121 126 113
f 133 132 130
f 130 86 87
f 130 132 86
f 133 130 135
f 135 130 150
f 135 11 78
f 135 9 11
f 77 133 135
f 135 78 77
f 135 134 6
f 6 9 135
f 95 150 21
f 151 2 6
f 6 134 151
f 134 135 151
f 151 135 150
f 3 150 95
f 148 142 143
f 143 149 148
f 143 4 28
f 142 4 143
f 30 169 173
f 173 31 30
f 170 166 167
f 170 171 166
f 167 57 170
f 57 171 170
f 84 69 47
f 47 15 84
f 70 16 69
f 70 15 16
f 69 84 70
f 70 84 15
f 16 15 100
f 100 101 16
f 100 15 47
f 99 101 100
f 95 21 96
f 93 95 96
f 96 87 93
f 96 21 150
f 96 130 87
f 150 130 96
f 131 122 2
f 2 151 131
f 131 151 150
f 114 126 127
f 28 149 144
f 144 143 28
f 149 143 144
f 172 173 169
f 169 168 172
f 168 171 172
f 172 171 31
f 31 173 172
f 47 48 102
f 102 100 47
f 108 102 48
f 100 102 108
f 100 108 106
f 106 108 48
f 99 100 107
f 100 106 107
f 107 106 48
f 107 48 45
f 107 46 99
f 45 46 107
f 72 103 73
f 73 103 99
f 99 103 20
f 20 19 99
f 153 154 158
f 158 156 153
f 154 159 158
f 72 73 58
f 58 57 72
f 58 74 23
f 23 57 58
f 128 7 129
f 6 7 128
f 50 52 42
f 50 42 41
f 41 44 50
f 50 53 52
f 142 128 129
f 146 128 142
f 142 138 146
f 148 138 142
f 23 74 136
f 136 74 137
f 136 138 148
f 137 138 136
f 19 20 16
f 20 13 16
f 12 17 16
f 16 13 12
f 61 62 60
f 60 59 61
f 91 114 95
f 95 88 91
f 131 150 126
f 126 122 131
f 95 114 127
f 127 3 95
f 126 150 127
f 150 3 127

