# https://github.com/mikedh/trimesh
v 0.06403030 -0.02200000 -0.10329264
v 0.06402908 -0.02300000 -0.10356059
v 0.06402574 -0.02373205 -0.10429263
v 0.06402119 -0.02400000 -0.10529263
v 0.06401664 0.02400000 -0.10629261
v 0.06401209 0.02373205 -0.10729261
v 0.06400875 0.02300000 -0.10802465
v 0.06400753 0.02200000 -0.10829259
v 0.06403030 0.02200000 -0.10329264
v 0.06402908 0.02300000 -0.10356059
v 0.06402574 0.02373205 -0.10429263
v 0.06402119 0.02400000 -0.10529263
v 0.06401664 -0.02400000 -0.10629261
v 0.06401209 -0.02373205 -0.10729261
v 0.06400875 -0.02300000 -0.10802465
v 0.06400753 -0.02200000 -0.10829259
v 0.07308108 -0.04300000 -0.09216217
v 0.08008101 -0.04300000 -0.09219404
v 0.08008450 -0.04284776 -0.09142869
v 0.07308456 -0.04284776 -0.09139681
v 0.08008745 -0.04241421 -0.09077985
v 0.07308752 -0.04241421 -0.09074797
v 0.08016863 0.02458579 -0.07295161
v 0.07316870 0.02458579 -0.07291973
v 0.07317068 0.02393694 -0.07248619
v 0.08017061 0.02393694 -0.07251807
v 0.07317137 0.02317157 -0.07233395
v 0.08017130 0.02317157 -0.07236583
v 0.07308752 0.04241421 -0.09074797
v 0.08008745 0.04241421 -0.09077985
v 0.08008450 0.04284776 -0.09142869
v 0.07308456 0.04284776 -0.09139681
v 0.08008101 0.04300000 -0.09219404
v 0.07308108 0.04300000 -0.09216217
v 0.08017130 -0.02317157 -0.07236583
v 0.07317137 -0.02317157 -0.07233395
v 0.07317068 -0.02393694 -0.07248619
v 0.08017061 -0.02393694 -0.07251807
v 0.07316870 -0.02458579 -0.07291973
v 0.08016863 -0.02458579 -0.07295161
v 0.08000737 0.04100000 -0.10836545
v 0.07300744 0.04100000 -0.10833357
v 0.07300866 0.04200000 -0.10806563
v 0.08000859 0.04200000 -0.10809751
v 0.07301199 0.04273205 -0.10733359
v 0.08001192 0.04273205 -0.10736547
v 0.07301655 0.04300000 -0.10633360
v 0.08001647 0.04300000 -0.10636547
v 0.07300744 -0.04100000 -0.10833357
v 0.08000737 -0.04100000 -0.10836545
v 0.08000859 -0.04200000 -0.10809751
v 0.07300866 -0.04200000 -0.10806563
v 0.08001192 -0.04273205 -0.10736547
v 0.07301199 -0.04273205 -0.10733359
v 0.08001647 -0.04300000 -0.10636547
v 0.07301655 -0.04300000 -0.10633360
v 0.07308792 0.04232500 -0.09065876
v 0.08009788 0.04012475 -0.08849040
v 0.08014933 0.02882500 -0.07719077
v 0.07309794 -0.04012475 -0.08845853
v 0.08009788 -0.04012475 -0.08849040
v 0.08014933 -0.02882500 -0.07719077
v 0.07025747 0.01429904 -0.10832106
v 0.07025747 -0.01429904 -0.10832106
v 0.08006577 0.04142894 -0.09554058
v 0.08016415 0.02082500 -0.07393686
v 0.08002103 -0.02165000 -0.10536548
v 0.08002103 0.02165000 -0.10536548
v 0.08006577 -0.04142894 -0.09554058
v 0.08016415 -0.02082500 -0.07393686
v 0.08004232 -0.04300000 -0.10069053
v 0.08004232 0.04300000 -0.10069053
v 0.08002934 0.04300000 -0.10354050
v 0.08002934 -0.04300000 -0.10354050
v 0.06401367 0.02000000 -0.10694261
v 0.06401367 -0.02000000 -0.10694261
f 8 41 63
f 36 38 35
f 42 41 8
f 30 31 32
f 50 49 16
f 22 60 2
f 22 61 60
f 2 60 39
f 60 61 39
f 45 43 7
f 7 42 8
f 7 43 42
f 32 31 33
f 27 25 9
f 29 30 32
f 32 11 29
f 50 16 64
f 15 49 52
f 15 16 49
f 52 54 15
f 2 16 15
f 76 16 2
f 12 11 32
f 12 47 5
f 5 7 12
f 9 25 10
f 8 75 10
f 10 7 8
f 11 12 10
f 10 12 7
f 2 39 37
f 36 1 37
f 37 1 2
f 37 38 36
f 37 39 38
f 40 61 38
f 38 39 40
f 18 20 17
f 38 61 70
f 45 7 6
f 6 7 5
f 6 47 45
f 5 47 6
f 68 44 65
f 65 44 31
f 32 33 34
f 34 12 32
f 47 12 34
f 24 10 25
f 26 27 28
f 25 27 26
f 26 24 25
f 23 24 26
f 14 54 56
f 14 15 54
f 57 29 11
f 11 10 57
f 30 29 57
f 10 24 57
f 62 39 61
f 61 40 62
f 62 40 39
f 20 18 19
f 51 67 69
f 69 70 61
f 61 19 69
f 69 19 51
f 48 73 46
f 46 73 44
f 46 47 48
f 45 47 46
f 72 33 31
f 31 44 72
f 44 73 72
f 59 24 23
f 3 22 2
f 3 20 22
f 61 22 21
f 21 19 61
f 22 20 21
f 20 19 21
f 53 55 56
f 56 54 53
f 58 59 23
f 23 26 58
f 31 30 58
f 26 66 58
f 24 59 58
f 58 66 65
f 58 65 31
f 30 57 58
f 58 57 24
f 4 56 17
f 17 20 4
f 20 3 4
f 2 15 4
f 4 3 2
f 51 19 71
f 71 19 18
f 13 14 56
f 56 4 13
f 15 14 13
f 13 4 15
f 74 53 51
f 51 71 74
f 55 53 74
f 52 49 51
f 51 49 50
f 44 50 41
f 44 51 50
f 41 42 44
f 42 43 44
f 36 35 27
f 27 35 28
f 27 1 36
f 9 1 27
f 64 63 41
f 41 50 64
f 8 63 64
f 64 16 8
f 8 16 76
f 76 75 8
f 10 1 9
f 2 1 10
f 75 76 10
f 10 76 2
f 51 44 67
f 67 44 68
f 28 35 26
f 26 35 38
f 69 67 68
f 68 65 69
f 46 44 43
f 46 43 45
f 72 73 48
f 48 47 72
f 47 34 72
f 72 34 33
f 66 26 38
f 38 70 66
f 66 69 65
f 70 69 66
f 52 51 53
f 53 54 52
f 74 18 17
f 17 56 74
f 56 55 74
f 74 71 18

