# https://github.com/mikedh/trimesh
v 0.12397504 0.25242016 -0.11556574
v 0.12397504 0.25533941 -0.11556574
v 0.12390358 0.26511028 -0.13125789
v 0.11609108 0.22248130 -0.09006307
v 0.12408788 0.22364378 -0.09078630
v 0.11590064 0.23220290 -0.13188462
v 0.11590410 0.27800488 -0.13112432
v 0.11592514 0.28104737 -0.12650365
v 0.11591364 0.27985203 -0.12902857
v 0.11595033 0.28116766 -0.12097257
v 0.11593769 0.28149763 -0.12374660
v 0.11589154 0.23449723 -0.13388340
v 0.11588523 0.23720653 -0.13526861
v 0.11616776 0.23232883 -0.07322448
v 0.11589725 0.27565005 -0.13262732
v 0.11589365 0.27297136 -0.13342029
v 0.11597195 0.27832884 -0.11622404
v 0.11596205 0.28008318 -0.11839809
v 0.11595972 0.23958658 -0.11890988
v 0.11588230 0.24321277 -0.13591120
v 0.11588209 0.24017026 -0.13595816
v 0.11617527 0.22995193 -0.07157543
v 0.11615553 0.22741342 -0.07591032
v 0.11617937 0.22720245 -0.07067576
v 0.11591200 0.23045951 -0.12939072
v 0.11592493 0.22937037 -0.12654945
v 0.11615948 0.21713880 -0.07504427
v 0.11616933 0.21905890 -0.07288042
v 0.11615553 0.22358659 -0.07591032
v 0.11617627 0.22151807 -0.07135676
v 0.11617971 0.22431049 -0.07060078
v 0.11612310 0.21581791 -0.08303108
v 0.11613449 0.21550000 -0.08052967
v 0.11614753 0.21591845 -0.07766719
v 0.12416768 0.23232883 -0.07326091
v 0.12389357 0.27297136 -0.13345672
v 0.12411236 0.21675144 -0.08540988
v 0.12412302 0.21581791 -0.08306751
v 0.12413441 0.21550000 -0.08056611
v 0.12395025 0.28116766 -0.12100901
v 0.12396197 0.28008318 -0.11843451
v 0.12397187 0.27832884 -0.11626047
v 0.12395227 0.27149999 -0.12056569
v 0.12392506 0.28104737 -0.12654008
v 0.12393761 0.28149763 -0.12378302
v 0.12389717 0.27565005 -0.13266376
v 0.12390402 0.27800488 -0.13116075
v 0.12391356 0.27985203 -0.12906501
v 0.12399868 0.25738809 -0.11037421
v 0.12412570 0.23011939 -0.08247950
v 0.12391192 0.23045951 -0.12942715
v 0.12392485 0.22937037 -0.12658589
v 0.12414745 0.21591845 -0.07770362
v 0.12415940 0.21713880 -0.07508069
v 0.12416925 0.21905890 -0.07291685
v 0.12390056 0.23220290 -0.13192105
v 0.12389146 0.23449723 -0.13391984
v 0.12388515 0.23720653 -0.13530505
v 0.12417618 0.22151807 -0.07139318
v 0.12417962 0.22431049 -0.07063721
v 0.12417929 0.22720245 -0.07071219
v 0.12417519 0.22995193 -0.07161185
v 0.12388201 0.24017026 -0.13599460
v 0.12388222 0.24321277 -0.13594763
f 29 32 28
f 28 23 29
f 4 32 29
f 35 17 14
f 8 9 7
f 63 64 36
f 16 20 15
f 15 8 7
f 11 8 15
f 29 23 15
f 13 20 21
f 29 15 19
f 49 43 40
f 2 43 49
f 17 35 42
f 31 28 30
f 31 24 28
f 61 24 31
f 60 61 31
f 28 24 22
f 14 23 22
f 23 28 22
f 45 10 40
f 11 10 45
f 44 45 40
f 44 8 11
f 11 45 44
f 20 13 6
f 32 4 6
f 6 15 20
f 6 19 15
f 6 4 29
f 29 19 6
f 30 28 55
f 2 49 5
f 32 6 26
f 26 6 25
f 57 58 63
f 3 36 40
f 40 43 3
f 63 36 3
f 3 2 63
f 3 43 2
f 40 61 50
f 50 49 40
f 61 53 50
f 53 5 50
f 50 5 49
f 40 10 41
f 17 42 41
f 41 42 40
f 62 61 40
f 40 42 62
f 62 42 35
f 40 36 48
f 48 44 40
f 33 28 32
f 53 34 33
f 37 38 52
f 37 5 53
f 30 55 59
f 60 31 59
f 59 31 30
f 59 61 60
f 59 55 61
f 28 33 27
f 27 33 34
f 2 5 1
f 12 6 13
f 17 41 18
f 18 41 10
f 18 10 11
f 11 15 18
f 18 15 23
f 14 17 18
f 18 23 14
f 47 36 46
f 47 48 36
f 53 33 39
f 39 37 53
f 38 37 39
f 51 37 52
f 51 56 57
f 51 57 63
f 5 37 51
f 51 1 5
f 63 2 51
f 2 1 51
f 54 53 61
f 61 55 54
f 21 20 64
f 64 63 21
f 36 64 20
f 36 20 16
f 15 36 16
f 46 36 15
f 21 63 58
f 58 13 21
f 52 38 26
f 26 38 32
f 62 22 24
f 62 24 61
f 62 35 14
f 14 22 62
f 8 44 48
f 9 8 48
f 13 58 12
f 58 57 12
f 56 12 57
f 6 12 56
f 46 15 47
f 47 15 7
f 9 48 47
f 7 9 47
f 32 38 39
f 39 33 32
f 52 26 51
f 51 26 25
f 6 56 51
f 25 6 51
f 54 27 34
f 54 34 53
f 54 55 28
f 28 27 54

