# https://github.com/mikedh/trimesh
v 0.12397504 -0.25242016 -0.11556574
v 0.12399868 -0.25738809 -0.11037421
v 0.12390358 -0.26511028 -0.13125789
v 0.12408788 -0.22364378 -0.09078630
v 0.11609108 -0.22248130 -0.09006307
v 0.11616776 -0.23232883 -0.07322448
v 0.11589365 -0.27297136 -0.13342029
v 0.11595033 -0.28116766 -0.12097257
v 0.11596205 -0.28008318 -0.11839809
v 0.11597195 -0.27832884 -0.11622404
v 0.11592514 -0.28104737 -0.12650365
v 0.11593769 -0.28149763 -0.12374660
v 0.11589725 -0.27565005 -0.13262732
v 0.11590410 -0.27800488 -0.13112432
v 0.11591364 -0.27985203 -0.12902857
v 0.11615553 -0.22741342 -0.07591032
v 0.11615948 -0.21713880 -0.07504427
v 0.11614753 -0.21591845 -0.07766719
v 0.11617527 -0.22995193 -0.07157543
v 0.11617937 -0.22720245 -0.07067576
v 0.11617971 -0.22431049 -0.07060078
v 0.11615553 -0.22358659 -0.07591032
v 0.11617627 -0.22151807 -0.07135676
v 0.11616933 -0.21905890 -0.07288042
v 0.11613449 -0.21550000 -0.08052967
v 0.11612310 -0.21581791 -0.08303108
v 0.11595972 -0.23958658 -0.11890988
v 0.11589154 -0.23449723 -0.13388340
v 0.11588523 -0.23720653 -0.13526861
v 0.11588209 -0.24017026 -0.13595816
v 0.11588230 -0.24321277 -0.13591120
v 0.11592493 -0.22937037 -0.12654945
v 0.11591200 -0.23045951 -0.12939072
v 0.11590064 -0.23220290 -0.13188462
v 0.12390402 -0.27800488 -0.13116075
v 0.12392506 -0.28104737 -0.12654008
v 0.12391356 -0.27985203 -0.12906501
v 0.12395025 -0.28116766 -0.12100901
v 0.12393761 -0.28149763 -0.12378302
v 0.12388201 -0.24017026 -0.13599460
v 0.12395227 -0.27149999 -0.12056569
v 0.12397504 -0.25533941 -0.11556574
v 0.12389717 -0.27565005 -0.13266376
v 0.12389357 -0.27297136 -0.13345672
v 0.12397187 -0.27832884 -0.11626047
v 0.12396197 -0.28008318 -0.11843451
v 0.12392485 -0.22937037 -0.12658589
v 0.12388222 -0.24321277 -0.13594763
v 0.12388515 -0.23720653 -0.13530505
v 0.12389146 -0.23449723 -0.13391984
v 0.12390056 -0.23220290 -0.13192105
v 0.12391192 -0.23045951 -0.12942715
v 0.12416768 -0.23232883 -0.07326091
v 0.12412570 -0.23011939 -0.08247950
v 0.12417519 -0.22995193 -0.07161185
v 0.12417929 -0.22720245 -0.07071219
v 0.12411236 -0.21675144 -0.08540988
v 0.12412302 -0.21581791 -0.08306751
v 0.12413441 -0.21550000 -0.08056611
v 0.12414745 -0.21591845 -0.07770362
v 0.12415940 -0.21713880 -0.07508069
v 0.12416925 -0.21905890 -0.07291685
v 0.12417618 -0.22151807 -0.07139318
v 0.12417962 -0.22431049 -0.07063721
f 24 26 22
f 22 16 24
f 22 26 5
f 6 10 53
f 14 15 11
f 44 48 40
f 13 31 7
f 14 11 13
f 13 11 12
f 13 16 22
f 34 5 26
f 22 5 34
f 31 13 34
f 38 41 2
f 2 41 42
f 45 53 10
f 23 24 21
f 24 20 21
f 21 20 56
f 21 56 64
f 19 20 24
f 19 16 6
f 19 24 16
f 38 8 39
f 39 8 12
f 38 39 36
f 12 11 36
f 36 39 12
f 30 31 29
f 31 34 29
f 27 13 22
f 22 34 27
f 27 34 13
f 62 24 23
f 4 2 42
f 32 34 26
f 33 34 32
f 52 42 40
f 38 44 3
f 3 41 38
f 3 44 40
f 40 42 3
f 42 41 3
f 54 56 38
f 38 2 54
f 54 60 56
f 54 4 60
f 2 4 54
f 46 8 38
f 46 45 10
f 38 45 46
f 38 56 55
f 55 45 38
f 53 45 55
f 37 44 38
f 38 36 37
f 28 29 34
f 26 24 25
f 25 18 60
f 63 62 23
f 63 21 64
f 23 21 63
f 64 56 63
f 56 62 63
f 17 25 24
f 18 25 17
f 40 49 50
f 50 52 40
f 50 51 52
f 47 58 57
f 57 52 47
f 60 4 57
f 4 52 57
f 1 4 42
f 42 52 1
f 1 52 4
f 9 46 10
f 8 46 9
f 12 8 9
f 9 13 12
f 16 13 9
f 9 10 6
f 6 16 9
f 43 44 35
f 44 37 35
f 59 25 60
f 60 57 59
f 59 57 58
f 56 60 61
f 61 62 56
f 48 31 30
f 30 40 48
f 31 48 44
f 7 31 44
f 7 44 13
f 13 44 43
f 29 40 30
f 29 49 40
f 32 58 47
f 26 58 32
f 52 32 47
f 33 32 52
f 20 19 55
f 56 20 55
f 6 53 55
f 55 19 6
f 37 36 11
f 37 11 15
f 33 52 51
f 51 34 33
f 49 29 50
f 29 28 50
f 34 51 50
f 50 28 34
f 35 13 43
f 14 13 35
f 35 37 15
f 35 15 14
f 59 58 26
f 26 25 59
f 18 17 61
f 60 18 61
f 24 62 61
f 61 17 24

