# https://github.com/mikedh/trimesh
v -0.11709204 -0.25207907 -0.12974726
v -0.11709348 -0.27800488 -0.13006331
v -0.11707072 -0.27300000 -0.12506627
v -0.11707244 -0.28104737 -0.12544264
v -0.11708394 -0.27985203 -0.12796757
v -0.11704725 -0.28116766 -0.11991157
v -0.11705988 -0.28149763 -0.12268558
v -0.11710032 -0.27565005 -0.13156632
v -0.11710393 -0.27297136 -0.13235928
v -0.11707072 -0.27000001 -0.12506627
v -0.11702563 -0.27832884 -0.11516303
v -0.11703552 -0.28008318 -0.11733707
v -0.11682982 -0.23232883 -0.07216347
v -0.11701076 -0.24817564 -0.11190018
v -0.11710604 -0.23449723 -0.13282239
v -0.11707499 -0.23796447 -0.12600371
v -0.11709694 -0.23220290 -0.13082361
v -0.11708558 -0.23045951 -0.12832971
v -0.11707265 -0.22937037 -0.12548845
v -0.11711527 -0.24321277 -0.13485019
v -0.11711549 -0.24017026 -0.13489716
v -0.11711235 -0.23720653 -0.13420761
v -0.11687918 -0.22196446 -0.08300416
v -0.11687918 -0.22903553 -0.08300416
v -0.11683811 -0.21713880 -0.07398326
v -0.11682825 -0.21905890 -0.07181942
v -0.11682131 -0.22151807 -0.07029574
v -0.11689440 -0.21824121 -0.08634682
v -0.11682231 -0.22995193 -0.07051442
v -0.11684205 -0.22741342 -0.07484931
v -0.11681821 -0.22720245 -0.06961475
v -0.11681787 -0.22431049 -0.06953977
v -0.11687447 -0.21581791 -0.08197007
v -0.11686309 -0.21550000 -0.07946867
v -0.11685005 -0.21591845 -0.07660618
v -0.12482975 -0.23232883 -0.07212704
v -0.12507249 -0.27149999 -0.12543176
v -0.12510386 -0.27297136 -0.13232285
v -0.12510397 -0.27017784 -0.13234389
v -0.12504718 -0.28116766 -0.11987513
v -0.12503546 -0.28008318 -0.11730064
v -0.12502556 -0.27832884 -0.11512659
v -0.12507237 -0.28104737 -0.12540621
v -0.12505981 -0.28149763 -0.12264916
v -0.12510026 -0.27565005 -0.13152988
v -0.12509342 -0.27800488 -0.13002688
v -0.12508386 -0.27985203 -0.12793113
v -0.12484692 -0.22196446 -0.07589674
v -0.12483804 -0.21713880 -0.07394683
v -0.12484998 -0.21591845 -0.07656975
v -0.12481815 -0.22720245 -0.06957832
v -0.12484025 -0.22550000 -0.07443229
v -0.12481780 -0.22431049 -0.06950334
v -0.12482125 -0.22151807 -0.07025932
v -0.12482818 -0.21905890 -0.07178298
v -0.12482224 -0.22995193 -0.07047798
v -0.12486301 -0.21550000 -0.07943223
v -0.12487441 -0.21581791 -0.08193365
v -0.12488507 -0.21675144 -0.08427601
v -0.12510598 -0.23449723 -0.13278596
v -0.12511228 -0.23720653 -0.13417117
v -0.12503417 -0.23023447 -0.11701541
v -0.12511542 -0.24017026 -0.13486072
v -0.12511522 -0.24321277 -0.13481377
v -0.12507258 -0.22937037 -0.12545203
v -0.12508552 -0.23045951 -0.12829328
v -0.12509687 -0.23220290 -0.13078718
f 13 12 29
f 20 8 9
f 5 8 7
f 9 8 45
f 32 12 30
f 6 40 7
f 7 12 6
f 6 12 40
f 40 12 41
f 42 13 36
f 36 41 42
f 42 41 12
f 63 60 61
f 49 25 35
f 27 53 32
f 33 18 19
f 24 28 23
f 16 20 17
f 17 28 16
f 17 18 33
f 33 28 17
f 17 20 21
f 21 15 17
f 4 5 7
f 9 45 38
f 8 5 2
f 40 41 44
f 7 40 44
f 44 4 7
f 64 60 63
f 63 21 64
f 21 20 64
f 64 20 9
f 9 38 64
f 11 12 13
f 13 42 11
f 11 42 12
f 52 51 49
f 22 15 21
f 22 21 63
f 63 61 22
f 22 61 60
f 60 15 22
f 31 12 32
f 31 29 12
f 33 58 34
f 34 35 33
f 57 34 58
f 35 34 57
f 53 27 54
f 54 51 53
f 49 51 54
f 49 54 55
f 55 54 27
f 16 28 1
f 1 20 16
f 8 20 1
f 67 60 66
f 46 2 5
f 5 47 46
f 50 62 49
f 50 59 62
f 58 59 50
f 50 57 58
f 49 35 50
f 35 57 50
f 62 59 65
f 65 64 62
f 60 64 65
f 66 60 65
f 65 59 58
f 65 18 66
f 65 19 18
f 65 58 33
f 33 19 65
f 49 62 48
f 48 52 49
f 62 52 48
f 56 52 36
f 51 52 56
f 36 13 56
f 13 29 56
f 26 55 27
f 26 35 25
f 33 35 26
f 26 28 33
f 26 23 28
f 24 23 26
f 32 30 26
f 26 27 32
f 26 12 24
f 26 30 12
f 28 10 14
f 14 1 28
f 10 1 14
f 8 1 3
f 3 1 10
f 7 8 3
f 3 12 7
f 24 12 3
f 3 28 24
f 3 10 28
f 45 46 39
f 39 46 64
f 39 38 45
f 39 64 38
f 64 46 37
f 62 64 37
f 37 41 36
f 36 52 37
f 37 52 62
f 41 37 43
f 43 37 46
f 43 44 41
f 43 46 47
f 4 44 43
f 5 4 43
f 43 47 5
f 53 51 31
f 32 53 31
f 18 17 67
f 66 18 67
f 67 15 60
f 67 17 15
f 8 2 46
f 46 45 8
f 56 31 51
f 29 31 56
f 49 55 26
f 26 25 49

