# https://github.com/mikedh/trimesh
v -0.11709204 0.25207907 -0.12974726
v -0.11707072 0.27000001 -0.12506627
v -0.11682982 0.23232883 -0.07216347
v -0.11710393 0.27297136 -0.13235928
v -0.11707072 0.27300000 -0.12506627
v -0.11702563 0.27832884 -0.11516303
v -0.11703552 0.28008318 -0.11733707
v -0.11704725 0.28116766 -0.11991157
v -0.11707244 0.28104737 -0.12544264
v -0.11705988 0.28149763 -0.12268558
v -0.11710032 0.27565005 -0.13156632
v -0.11709348 0.27800488 -0.13006331
v -0.11708394 0.27985203 -0.12796757
v -0.11687447 0.21581791 -0.08197007
v -0.11687918 0.22196446 -0.08300416
v -0.11687918 0.22903553 -0.08300416
v -0.11689440 0.21824121 -0.08634682
v -0.11684205 0.22741342 -0.07484931
v -0.11682231 0.22995193 -0.07051442
v -0.11681821 0.22720245 -0.06961475
v -0.11711235 0.23720653 -0.13420761
v -0.11683811 0.21713880 -0.07398326
v -0.11685005 0.21591845 -0.07660618
v -0.11686309 0.21550000 -0.07946867
v -0.11681787 0.22431049 -0.06953977
v -0.11682131 0.22151807 -0.07029574
v -0.11682825 0.21905890 -0.07181942
v -0.11710604 0.23449723 -0.13282239
v -0.11707499 0.23796447 -0.12600371
v -0.11709694 0.23220290 -0.13082361
v -0.11708558 0.23045951 -0.12832971
v -0.11707265 0.22937037 -0.12548845
v -0.11711549 0.24017026 -0.13489716
v -0.11711527 0.24321277 -0.13485019
v -0.11701076 0.24817564 -0.11190018
v -0.12509342 0.27800488 -0.13002688
v -0.12507237 0.28104737 -0.12540621
v -0.12508386 0.27985203 -0.12793113
v -0.12504718 0.28116766 -0.11987513
v -0.12505981 0.28149763 -0.12264916
v -0.12511542 0.24017026 -0.13486072
v -0.12511228 0.23720653 -0.13417117
v -0.12510598 0.23449723 -0.13278596
v -0.12509687 0.23220290 -0.13078718
v -0.12482975 0.23232883 -0.07212704
v -0.12510026 0.27565005 -0.13152988
v -0.12510386 0.27297136 -0.13232285
v -0.12507249 0.27149999 -0.12543176
v -0.12510397 0.27017784 -0.13234389
v -0.12502556 0.27832884 -0.11512659
v -0.12503546 0.28008318 -0.11730064
v -0.12503417 0.23023447 -0.11701541
v -0.12511522 0.24321277 -0.13481377
v -0.12482224 0.22995193 -0.07047798
v -0.12481815 0.22720245 -0.06957832
v -0.12484025 0.22550000 -0.07443229
v -0.12508552 0.23045951 -0.12829328
v -0.12507258 0.22937037 -0.12545203
v -0.12483804 0.21713880 -0.07394683
v -0.12484692 0.22196446 -0.07589674
v -0.12482818 0.21905890 -0.07178298
v -0.12482125 0.22151807 -0.07025932
v -0.12481780 0.22431049 -0.06950334
v -0.12488507 0.21675144 -0.08427601
v -0.12487441 0.21581791 -0.08193365
v -0.12486301 0.21550000 -0.07943223
v -0.12484998 0.21591845 -0.07656975
f 19 7 3
f 4 11 34
f 10 11 13
f 46 11 4
f 18 7 25
f 10 39 8
f 8 7 10
f 39 7 8
f 51 7 39
f 45 3 50
f 50 51 45
f 7 51 50
f 42 43 41
f 23 22 59
f 25 63 26
f 32 31 14
f 15 17 16
f 30 34 29
f 29 17 30
f 14 31 30
f 30 17 14
f 33 34 30
f 30 28 33
f 10 13 9
f 47 46 4
f 12 13 11
f 40 51 39
f 40 39 10
f 10 9 40
f 41 43 53
f 53 33 41
f 53 34 33
f 4 34 53
f 53 47 4
f 3 7 6
f 6 50 3
f 7 50 6
f 59 55 56
f 33 28 21
f 41 33 21
f 21 42 41
f 43 42 21
f 21 28 43
f 25 7 20
f 7 19 20
f 24 65 14
f 14 23 24
f 65 24 66
f 66 24 23
f 62 26 63
f 63 55 62
f 62 55 59
f 61 62 59
f 26 62 61
f 1 17 29
f 29 34 1
f 1 34 11
f 57 43 44
f 13 12 36
f 36 38 13
f 59 52 67
f 52 64 67
f 67 64 65
f 65 66 67
f 67 23 59
f 67 66 23
f 58 64 52
f 52 53 58
f 58 53 43
f 58 43 57
f 65 64 58
f 57 31 58
f 31 32 58
f 14 65 58
f 58 32 14
f 60 52 59
f 59 56 60
f 60 56 52
f 45 56 54
f 54 56 55
f 54 3 45
f 54 19 3
f 26 61 27
f 22 23 27
f 27 23 14
f 14 17 27
f 17 15 27
f 27 15 16
f 27 18 25
f 25 26 27
f 16 7 27
f 7 18 27
f 35 2 17
f 17 1 35
f 35 1 2
f 5 1 11
f 2 1 5
f 5 11 10
f 10 7 5
f 5 7 16
f 16 17 5
f 17 2 5
f 49 36 46
f 53 36 49
f 46 47 49
f 47 53 49
f 48 36 53
f 48 53 52
f 45 51 48
f 48 56 45
f 52 56 48
f 37 48 51
f 36 48 37
f 51 40 37
f 38 36 37
f 37 40 9
f 37 9 13
f 13 38 37
f 20 55 63
f 20 63 25
f 44 30 31
f 44 31 57
f 43 28 44
f 28 30 44
f 36 12 11
f 11 46 36
f 55 20 54
f 54 20 19
f 27 61 59
f 59 22 27

