# https://github.com/mikedh/trimesh
v 0.02529163 0.04285000 0.06398550
v 0.02528936 0.04235000 0.06348550
v 0.02578935 0.04248397 0.06348322
v 0.02554163 0.04291699 0.06398436
v -0.02521012 0.04248397 0.06371547
v -0.02495785 0.04291699 0.06421431
v -0.02471012 0.04235000 0.06371318
v -0.02470785 0.04285000 0.06421318
v 0.02927793 0.10924999 0.06096731
v 0.00541261 0.10924999 0.06107599
v -0.02533891 0.10924999 0.06121602
v -0.02872147 0.10924999 0.06123142
v 0.04625499 0.08476132 0.05588995
v 0.04625499 0.08255000 0.05588995
v 0.04625499 0.05933867 0.05588995
v -0.04574406 0.05933867 0.05630889
v -0.04574406 0.06155000 0.05630889
v -0.04574406 0.08476132 0.05630889
v 0.03180441 0.05893932 0.07775525
v -0.03119494 0.05893932 0.07804213
v 0.03112135 0.05895287 -0.07224319
v -0.03187800 0.05895287 -0.07195631
v 0.03180442 0.10193932 0.07775914
v -0.03119492 0.10193932 0.07804602
v -0.03187798 0.10195287 -0.07195242
v 0.03112137 0.10195287 -0.07223931
v -0.05080002 0.06103179 -0.06576935
v -0.05062697 0.06103179 -0.02776975
v -0.05080002 0.09046821 -0.06576935
v -0.05062697 0.09046821 -0.02776975
v -0.05032643 0.08279196 0.03822957
v -0.05032643 0.06870804 0.03822957
v -0.05030944 0.09296821 -0.02777119
v -0.05023019 0.09379566 -0.06577195
v -0.05048248 0.09296821 -0.06577080
v -0.05023019 0.05770434 -0.06577195
v -0.05048248 0.05853179 -0.06577080
v -0.05030944 0.05853179 -0.02777120
v -0.04543310 0.11225000 0.01479510
v -0.03943316 0.11225000 0.01476778
v -0.03946650 0.11173916 0.00744461
v -0.04546645 0.11173916 0.00747193
v -0.04550349 0.11012348 -0.00066256
v -0.04550495 0.04145905 -0.00098403
v -0.03946937 0.03984971 0.00681491
v -0.04546931 0.03984971 0.00684223
v -0.03943316 0.03925000 0.01476778
v -0.04543310 0.03925000 0.01479510
v -0.03925824 0.11225000 0.05317932
v -0.04525818 0.11225000 0.05320664
v -0.04524680 0.11158013 0.05570662
v -0.04523847 0.10975000 0.05753672
v -0.04523541 0.10725000 0.05820659
v -0.04523541 0.04425000 0.05820659
v -0.03924686 0.03991987 0.05567930
v -0.03925824 0.03925000 0.05317932
v -0.04525818 0.03925000 0.05320664
v -0.04524680 0.03991987 0.05570662
v -0.04523847 0.04175000 0.05753672
v 0.05019893 0.09046821 -0.06622928
v 0.05037197 0.09046821 -0.02822967
v 0.05019893 0.06103179 -0.06622928
v 0.05037197 0.06103179 -0.02822967
v 0.05067252 0.06870804 0.03776965
v 0.05067252 0.08279196 0.03776965
v 0.05005443 0.05853179 -0.02822823
v 0.04962910 0.05770434 -0.06622668
v 0.04988139 0.05853179 -0.06622783
v 0.04988139 0.09296821 -0.06622783
v 0.04962910 0.09379566 -0.06622668
v 0.05005443 0.09296821 -0.02822823
v 0.04556596 0.03925000 0.01438072
v 0.03953267 0.03976084 0.00708487
v 0.04553261 0.03976084 0.00705755
v 0.03949563 0.04137652 -0.00104963
v 0.04549557 0.04137652 -0.00107695
v 0.04549410 0.11004096 -0.00139842
v 0.04552974 0.11165029 0.00642785
v 0.04556596 0.11225000 0.01438072
v 0.04574087 0.03925000 0.05279226
v 0.04576364 0.05275000 0.05779221
v 0.04575226 0.03991987 0.05529223
v 0.04576059 0.04175000 0.05712234
v 0.04576364 0.04425000 0.05779221
v 0.03975232 0.03991987 0.05531956
v 0.04576364 0.10725000 0.05779221
v 0.04574087 0.11225000 0.05279226
v 0.04576059 0.10975000 0.05712234
v 0.04575226 0.11158013 0.05529223
f 22 25 26
f 26 25 42
f 38 57 32
f 39 42 34
f 27 22 37
f 22 36 37
f 37 38 27
f 21 22 26
f 21 62 68
f 60 62 21
f 26 60 21
f 87 65 71
f 28 32 27
f 27 38 28
f 28 38 32
f 80 66 64
f 56 80 85
f 26 42 41
f 41 78 26
f 78 41 79
f 87 71 79
f 43 42 25
f 25 34 43
f 43 34 42
f 29 22 27
f 25 22 29
f 27 32 29
f 33 50 39
f 32 57 58
f 57 38 48
f 38 37 48
f 48 37 36
f 36 46 48
f 45 46 76
f 76 46 75
f 75 21 76
f 22 21 75
f 44 36 22
f 44 46 36
f 22 75 44
f 44 75 46
f 64 66 63
f 68 62 63
f 63 66 68
f 76 21 67
f 67 21 68
f 61 71 65
f 15 84 64
f 64 84 83
f 72 67 68
f 68 66 72
f 66 80 72
f 2 85 82
f 82 85 80
f 82 80 64
f 64 83 82
f 40 79 41
f 40 42 39
f 40 41 42
f 78 79 70
f 35 34 25
f 25 29 35
f 29 33 35
f 39 34 35
f 35 33 39
f 50 51 49
f 54 53 17
f 54 20 24
f 24 53 54
f 52 53 24
f 24 51 52
f 87 49 89
f 89 49 51
f 89 65 87
f 59 20 54
f 59 54 32
f 32 58 59
f 56 85 55
f 55 85 2
f 2 7 55
f 7 58 55
f 74 45 76
f 76 67 74
f 67 72 74
f 46 45 74
f 74 72 47
f 47 48 74
f 69 79 71
f 69 70 79
f 69 61 60
f 71 61 69
f 69 60 26
f 26 70 69
f 26 78 77
f 77 70 26
f 78 70 77
f 30 33 29
f 50 33 31
f 31 51 50
f 33 30 31
f 52 51 31
f 31 29 32
f 31 30 29
f 31 53 52
f 32 54 16
f 16 17 32
f 54 17 16
f 51 24 12
f 23 24 20
f 23 89 9
f 84 15 81
f 81 23 84
f 23 81 86
f 5 58 7
f 7 8 5
f 5 59 58
f 73 48 46
f 46 74 73
f 73 74 48
f 18 17 53
f 53 31 18
f 32 17 18
f 18 31 32
f 19 23 20
f 19 83 84
f 84 23 19
f 11 12 24
f 24 23 11
f 51 12 11
f 65 86 13
f 13 86 81
f 65 89 88
f 88 86 65
f 89 23 88
f 23 86 88
f 6 5 8
f 59 5 6
f 6 8 20
f 20 59 6
f 83 19 4
f 20 8 1
f 1 19 20
f 1 4 19
f 10 23 9
f 10 11 23
f 9 89 10
f 10 89 51
f 51 11 10
f 14 15 64
f 14 81 15
f 14 13 81
f 3 82 83
f 83 4 3
f 2 82 3
f 3 1 2
f 4 1 3
f 64 63 61
f 61 65 64
f 61 62 60
f 61 63 62
f 72 56 57
f 72 48 47
f 72 80 56
f 57 48 72
f 49 40 39
f 39 50 49
f 87 79 49
f 79 40 49
f 57 56 55
f 55 58 57
f 1 8 7
f 1 7 2
f 64 65 14
f 65 13 14

