# https://github.com/mikedh/trimesh
v -0.06497747 -0.02400000 -0.10470520
v -0.06497291 -0.02373205 -0.10370521
v -0.06496958 -0.02300000 -0.10297316
v -0.06496836 -0.02200000 -0.10270522
v -0.06499112 0.02200000 -0.10770517
v -0.06498990 0.02300000 -0.10743722
v -0.06498657 0.02373205 -0.10670518
v -0.06498202 0.02400000 -0.10570519
v -0.06497747 0.02400000 -0.10470520
v -0.06497291 0.02373205 -0.10370521
v -0.06496958 0.02300000 -0.10297316
v -0.06496836 0.02200000 -0.10270522
v -0.06499112 -0.02200000 -0.10770517
v -0.06498990 -0.02300000 -0.10743722
v -0.06498657 -0.02373205 -0.10670518
v -0.06498202 -0.02400000 -0.10570519
v -0.07391095 -0.04241421 -0.09007858
v -0.08091088 -0.04241421 -0.09004670
v -0.08091383 -0.04284776 -0.09069555
v -0.07391391 -0.04284776 -0.09072742
v -0.08091732 -0.04300000 -0.09146091
v -0.07391740 -0.04300000 -0.09149278
v -0.08082703 0.02317157 -0.07163268
v -0.07382710 0.02317157 -0.07166456
v -0.07382780 0.02393694 -0.07181679
v -0.08082772 0.02393694 -0.07178492
v -0.07382977 0.02458579 -0.07225034
v -0.08082969 0.02458579 -0.07221846
v -0.07391740 0.04300000 -0.09149278
v -0.08091732 0.04300000 -0.09146091
v -0.08091383 0.04284776 -0.09069555
v -0.07391391 0.04284776 -0.09072742
v -0.08091088 0.04241421 -0.09004670
v -0.07391095 0.04241421 -0.09007858
v -0.08085891 0.01700000 -0.07863261
v -0.08085891 -0.01700000 -0.07863261
v -0.08082969 -0.02458579 -0.07221846
v -0.07382977 -0.02458579 -0.07225034
v -0.07382780 -0.02393694 -0.07181679
v -0.08082772 -0.02393694 -0.07178492
v -0.07382710 -0.02317157 -0.07166456
v -0.08082703 -0.02317157 -0.07163268
v -0.08098186 0.04300000 -0.10563233
v -0.07398193 0.04300000 -0.10566420
v -0.07398541 0.04284776 -0.10642956
v -0.08098534 0.04284776 -0.10639769
v -0.07398837 0.04241421 -0.10707840
v -0.08098830 0.04241421 -0.10704653
v -0.07399035 0.04176537 -0.10751195
v -0.08099027 0.04176537 -0.10748007
v -0.07399104 0.04100000 -0.10766418
v -0.08099096 0.04100000 -0.10763231
v -0.07398193 -0.04300000 -0.10566420
v -0.08098186 -0.04300000 -0.10563233
v -0.08098534 -0.04284776 -0.10639769
v -0.07398541 -0.04284776 -0.10642956
v -0.08098830 -0.04241421 -0.10704653
v -0.07398837 -0.04241421 -0.10707840
v -0.08099027 -0.04176537 -0.10748007
v -0.07399035 -0.04176537 -0.10751195
v -0.08099096 -0.04100000 -0.10763231
v -0.07399104 -0.04100000 -0.10766418
v -0.08083010 0.02467500 -0.07230768
v -0.07391055 0.04232500 -0.08998936
v -0.08090045 0.04012475 -0.08775726
v -0.08088930 0.03767500 -0.08530754
v -0.07388937 0.03767500 -0.08533941
v -0.08090045 -0.04012475 -0.08775726
v -0.08088930 -0.03767500 -0.08530754
v -0.07388937 -0.03767500 -0.08533941
v -0.08083010 -0.02467500 -0.07230768
v -0.06974108 -0.01429904 -0.10768354
v -0.06974108 0.01429904 -0.10768354
v -0.08083694 -0.02142894 -0.07380766
v -0.08083694 0.02142894 -0.07380766
f 3 2 4
f 4 39 3
f 20 2 17
f 12 25 24
f 11 12 10
f 11 25 12
f 52 5 73
f 61 72 13
f 10 7 8
f 18 54 21
f 74 54 18
f 68 69 18
f 18 17 68
f 16 22 53
f 38 17 2
f 2 3 38
f 38 3 39
f 36 54 74
f 61 13 62
f 51 5 52
f 6 47 7
f 6 7 10
f 9 32 10
f 10 8 9
f 54 57 55
f 74 18 71
f 40 42 71
f 71 18 69
f 19 18 21
f 20 17 19
f 17 18 19
f 1 16 2
f 22 16 1
f 20 22 1
f 1 2 20
f 68 17 70
f 70 38 68
f 17 38 70
f 41 39 4
f 32 31 34
f 10 32 34
f 31 30 33
f 33 34 31
f 59 57 54
f 47 6 49
f 49 6 5
f 5 51 49
f 29 9 8
f 8 44 29
f 32 9 29
f 40 71 37
f 68 38 37
f 37 69 68
f 37 71 69
f 15 14 2
f 2 16 15
f 13 14 60
f 60 62 13
f 7 47 45
f 45 8 7
f 45 44 8
f 46 48 43
f 43 45 46
f 44 45 43
f 43 33 30
f 75 33 43
f 43 35 75
f 25 11 27
f 27 11 10
f 10 34 27
f 23 26 63
f 63 33 75
f 56 16 53
f 56 15 16
f 53 54 56
f 54 55 56
f 50 43 48
f 65 27 67
f 67 27 34
f 65 33 66
f 33 63 66
f 28 63 26
f 28 27 65
f 65 66 28
f 28 66 63
f 58 60 14
f 14 15 58
f 15 56 58
f 65 67 64
f 64 67 34
f 64 33 65
f 34 33 64
f 10 12 2
f 2 12 4
f 22 54 53
f 21 54 22
f 23 24 26
f 26 24 25
f 73 72 61
f 73 61 52
f 72 73 13
f 13 73 5
f 21 22 19
f 19 22 20
f 10 2 14
f 14 6 10
f 14 13 5
f 5 6 14
f 74 75 35
f 35 36 74
f 4 12 41
f 12 24 41
f 41 24 23
f 23 42 41
f 41 40 39
f 41 42 40
f 29 30 31
f 29 31 32
f 39 40 37
f 37 38 39
f 60 59 61
f 61 62 60
f 45 48 46
f 47 48 45
f 30 29 43
f 43 29 44
f 36 35 43
f 54 36 43
f 63 42 23
f 63 71 42
f 74 71 63
f 63 75 74
f 50 49 51
f 50 51 52
f 50 48 47
f 47 49 50
f 52 61 50
f 61 59 50
f 54 43 50
f 50 59 54
f 28 26 25
f 25 27 28
f 59 60 58
f 57 59 58
f 58 55 57
f 58 56 55

