# https://github.com/mikedh/trimesh
v -0.06389423 -0.00433728 0.01500000
v -0.06911771 -0.02722227 0.01500000
v -0.07310667 -0.02429954 0.01500000
v -0.07556843 -0.01498213 0.01500000
v -0.07541223 -0.01992477 0.01500000
v -0.06425154 -0.02810229 0.01500000
v -0.06974729 -0.00730172 0.01500000
v -0.07354373 -0.01047051 0.01500000
v -0.00354595 0.02474725 0.01500000
v -0.01645465 0.01968975 0.01500000
v -0.01129574 0.02230261 0.01500000
v 0.26637635 0.02513593 0.00000000
v 0.27996144 -0.00152064 0.00000000
v 0.27868381 0.00878856 0.00000000
v -0.01129574 0.02230261 0.00000000
v 0.25682223 0.02921399 0.00000000
v 0.27201688 -0.02037784 0.00000000
v 0.26374730 -0.02666480 0.00000000
v 0.27764660 -0.01164752 0.00000000
v -0.00354595 0.02474725 0.00000000
v -0.06511609 -0.00495612 0.00000000
v -0.06911771 -0.02722227 0.00000000
v -0.07310667 -0.02429954 0.00000000
v -0.07541223 -0.01992477 0.00000000
v -0.07556843 -0.01498213 0.00000000
v -0.06425154 -0.02810229 0.00000000
v 0.24801017 -0.02993394 0.00000000
v 0.25232795 -0.02990954 0.00000000
v 0.25382939 -0.02975459 0.00000000
v 0.27763623 -0.01167216 0.00000000
v 0.27396694 0.01804401 0.00000000
v 0.25018299 0.02999944 0.00000000
v 0.25126484 0.02997333 0.00000000
v 0.25529149 0.02952965 0.00000000
v -0.07354373 -0.01047051 0.00000000
v -0.06974729 -0.00730172 0.00000000
v 0.25642756 0.02930336 0.00000000
v 0.26033661 -0.02494302 0.04085000
v 0.25303161 -0.02682927 0.04085000
v 0.27589524 0.00764441 0.04085000
v 0.26492319 0.02250110 0.04085000
v 0.25632736 0.02624813 0.04085000
v 0.27171901 0.01604009 0.04085000
v 0.26956788 -0.01860372 0.04085000
v 0.26202494 -0.02417439 0.04085000
v 0.24367264 -0.02624813 0.04085000
v 0.26864469 -0.02476642 0.03635000
v 0.24950142 -0.03099599 0.03635000
v 0.28146952 -0.01812715 0.03235000
v 0.28125480 -0.01885174 0.03235000
v 0.27952561 -0.02145901 0.03235000
v 0.27894163 -0.02193869 0.03235000
v 0.26011568 -0.03507026 0.03235000
v 0.25882435 -0.03541724 0.03235000
v 0.25806865 -0.03540933 0.03235000
v 0.26245514 -0.03411442 0.03235000
v 0.26182488 -0.03453146 0.03235000
v 0.23761286 -0.03413916 0.03235000
v 0.25069869 0.03649332 0.03235000
v 0.25382125 0.03629943 0.03235000
v 0.25452864 0.03603352 0.03235000
v 0.27626008 0.02535072 0.03235000
v 0.27399269 0.02750639 0.03235000
v 0.27331638 0.02784367 0.03235000
v 0.27663106 0.02469232 0.03235000
v 0.28627250 0.00179729 0.03235000
v 0.28641149 0.00254013 0.03235000
v 0.28606021 0.00564892 0.03235000
v 0.28575894 0.00634201 0.03235000
v 0.23538828 -0.01086456 0.05030000
v 0.23554361 -0.01212901 0.05030000
v 0.23620963 -0.01321500 0.05030000
v 0.23950593 -0.01595884 0.05030000
v 0.24095164 -0.01655982 0.05030000
v 0.24222195 -0.01646338 0.05030000
v 0.23975587 -0.01612041 0.05030000
v 0.23963131 0.01496769 0.05030000
v 0.24142627 0.01706755 0.05030000
v 0.24116138 0.01693189 0.05030000
v 0.24018295 0.01611601 0.05030000
v 0.24545066 0.01855029 0.05030000
v 0.24672417 0.01858411 0.05030000
v 0.24789688 0.01808641 0.05030000
v 0.26814672 0.00149570 0.05030000
v 0.26906779 -0.00110871 0.05030000
v 0.26908275 -0.00081147 0.05030000
v 0.26886541 0.00044381 0.05030000
v 0.26833969 -0.00533531 0.05030000
v 0.26773223 -0.00645510 0.05030000
v 0.26671484 -0.00722184 0.05030000
v 0.25984377 -0.03514755 0.02670000
v 0.26107264 -0.03477998 0.02670000
v 0.24729155 -0.00129007 -0.01310000
v 0.24700938 0.00023699 -0.01310000
v 0.24752854 0.00170055 -0.01310000
v 0.24870993 0.00270846 -0.01310000
v 0.25129008 -0.00270846 -0.01310000
v 0.24976301 -0.00299062 -0.01310000
v 0.24829945 -0.00247146 -0.01310000
v 0.25270846 0.00129007 -0.01310000
v 0.25299063 -0.00023699 -0.01310000
v 0.25247148 -0.00170055 -0.01310000
v 0.25023699 0.00299062 -0.01310000
v 0.25170055 0.00247146 -0.01310000
v 0.27894163 -0.02193869 0.02270000
v 0.27952561 -0.02145901 0.02270000
v 0.26182488 -0.03453146 0.02270000
v 0.26245514 -0.03411442 0.02270000
v 0.25882435 -0.03541724 0.02270000
v 0.26026121 -0.03502795 0.02270000
v 0.25806865 -0.03540933 0.02270000
v 0.25069869 0.03649332 0.02270000
v 0.25382125 0.03629943 0.02270000
v 0.25452864 0.03603352 0.02270000
v 0.27399269 0.02750639 0.02270000
v 0.27331638 0.02784367 0.02270000
v 0.27626008 0.02535072 0.02270000
v 0.27663106 0.02469232 0.02270000
v 0.28575894 0.00634201 0.02270000
v 0.28606021 0.00564892 0.02270000
v 0.28641149 0.00254013 0.02270000
v 0.28627250 0.00179729 0.02270000
v 0.28125480 -0.01885174 0.02270000
v 0.28146952 -0.01812715 0.02270000
v 0.25139758 -0.00293416 -0.01303301
v 0.24974325 -0.00323985 -0.01303301
v 0.25025675 0.00323985 -0.01303301
v 0.25184226 0.00267742 -0.01303301
v 0.25293416 0.00139757 -0.01303301
v 0.25323984 -0.00025674 -0.01303301
v 0.25267741 -0.00184227 -0.01303301
v 0.26043871 -0.01500638 -0.00809262
v 0.25507388 -0.01756172 -0.00809262
v 0.25505203 -0.01756842 -0.00809202
v 0.25153700 -0.01821527 -0.00809262
v 0.26317498 -0.01267195 -0.00809262
v 0.26654339 -0.00777655 -0.00809262
v 0.25380924 0.01787361 -0.00810000
v 0.26035920 0.01505532 -0.00810000
v 0.26533210 0.00994501 -0.00810000
v 0.25332066 -0.01797079 -0.00810000
v 0.26797080 0.00332065 -0.00810000
v 0.26787359 -0.00380925 -0.00810000
v 0.26505533 -0.01035921 -0.00810000
v 0.25994501 -0.01533209 -0.00810000
v 0.24846299 0.01821527 -0.00809262
v 0.25438675 0.01774584 -0.00809262
v 0.25777656 0.01654339 -0.00809262
v 0.26267195 0.01317498 -0.00809262
v 0.26500639 0.01043872 -0.00809262
v 0.26756173 0.00507388 -0.00809262
v 0.26821527 0.00153701 -0.00809262
v 0.26774585 -0.00438675 -0.00809262
f 23 24 93
f 44 51 89
f 80 7 8
f 84 43 41
f 89 51 50
f 52 47 56
f 51 44 52
f 44 47 52
f 55 58 6
f 46 74 6
f 6 58 46
f 4 70 77
f 77 8 4
f 80 8 77
f 99 23 93
f 99 22 23
f 41 63 64
f 41 43 62
f 62 63 41
f 60 82 42
f 83 84 41
f 41 42 83
f 83 42 82
f 9 11 81
f 59 82 60
f 59 81 82
f 9 81 59
f 33 112 113
f 20 112 32
f 32 112 33
f 17 18 132
f 29 109 28
f 107 18 108
f 27 109 26
f 28 109 27
f 26 109 111
f 58 55 48
f 48 46 58
f 11 15 21
f 21 36 7
f 122 19 13
f 135 27 26
f 28 27 135
f 135 29 28
f 88 66 67
f 67 85 88
f 49 66 88
f 89 50 88
f 88 50 49
f 41 64 61
f 61 42 41
f 60 42 61
f 78 81 11
f 16 12 148
f 33 113 34
f 34 138 33
f 114 12 16
f 16 113 114
f 20 32 146
f 146 127 20
f 138 127 146
f 33 138 146
f 146 32 33
f 45 47 44
f 56 47 45
f 45 57 56
f 45 38 57
f 53 38 54
f 57 38 53
f 108 18 105
f 18 17 105
f 5 70 4
f 72 3 73
f 1 21 7
f 7 78 1
f 13 120 121
f 121 122 13
f 43 84 87
f 87 40 43
f 68 69 87
f 87 69 40
f 65 62 43
f 43 40 65
f 40 69 65
f 79 7 80
f 79 78 7
f 136 17 132
f 26 22 98
f 22 99 98
f 147 138 16
f 16 148 147
f 147 127 138
f 148 127 147
f 13 19 143
f 96 15 20
f 96 21 15
f 36 21 96
f 96 35 36
f 37 113 16
f 37 34 113
f 16 138 37
f 138 34 37
f 12 114 116
f 90 75 38
f 38 45 90
f 90 44 89
f 90 45 44
f 39 75 74
f 39 55 54
f 54 38 39
f 38 75 39
f 74 46 39
f 39 48 55
f 46 48 39
f 109 29 110
f 110 29 18
f 18 107 110
f 123 17 30
f 30 19 123
f 70 5 71
f 71 5 3
f 71 3 72
f 6 74 2
f 2 73 3
f 11 21 10
f 21 1 10
f 10 78 11
f 10 1 78
f 18 29 133
f 68 87 86
f 67 68 86
f 86 85 67
f 126 98 97
f 126 135 26
f 26 98 126
f 153 143 19
f 20 127 103
f 103 96 20
f 95 25 35
f 35 96 95
f 12 116 115
f 109 110 91
f 91 110 53
f 54 109 91
f 91 53 54
f 57 53 92
f 53 110 92
f 92 107 57
f 92 110 107
f 106 105 17
f 17 123 106
f 19 122 124
f 124 123 19
f 76 2 74
f 73 2 76
f 132 18 145
f 18 133 145
f 136 131 144
f 17 136 144
f 30 17 144
f 135 126 141
f 29 135 141
f 117 118 31
f 31 115 117
f 12 115 31
f 12 31 149
f 25 95 94
f 24 25 94
f 93 24 94
f 30 144 137
f 137 19 30
f 137 144 131
f 137 153 19
f 131 153 137
f 125 126 97
f 125 141 126
f 133 141 125
f 125 145 133
f 132 145 125
f 125 136 132
f 125 131 136
f 134 133 29
f 29 141 134
f 134 141 133
f 14 120 13
f 14 119 120
f 14 118 119
f 14 31 118
f 102 125 97
f 131 125 102
f 128 127 148
f 14 142 151
f 13 143 152
f 152 14 13
f 152 142 14
f 139 128 148
f 149 128 139
f 139 148 12
f 12 149 139
f 104 128 100
f 104 103 127
f 127 128 104
f 131 102 130
f 142 152 130
f 130 152 143
f 143 153 130
f 130 153 131
f 129 151 142
f 129 130 100
f 142 130 129
f 100 128 129
f 14 151 140
f 31 14 140
f 151 129 140
f 100 130 101
f 101 130 102
f 31 140 150
f 150 149 31
f 150 140 129
f 150 128 149
f 150 129 128
f 15 11 9
f 15 9 20
f 7 36 35
f 35 8 7
f 20 9 59
f 59 112 20
f 112 59 113
f 113 59 60
f 56 57 107
f 107 108 56
f 111 55 6
f 111 6 26
f 111 109 54
f 54 55 111
f 8 35 25
f 4 8 25
f 120 119 69
f 69 68 120
f 114 113 60
f 60 61 114
f 56 108 105
f 105 52 56
f 4 25 5
f 5 25 24
f 24 23 5
f 23 3 5
f 120 68 121
f 121 68 67
f 66 122 121
f 67 66 121
f 117 62 65
f 65 118 117
f 65 69 119
f 119 118 65
f 116 61 64
f 116 114 61
f 26 6 2
f 2 22 26
f 2 3 23
f 23 22 2
f 63 62 115
f 115 62 117
f 115 116 64
f 115 64 63
f 52 105 106
f 51 52 106
f 106 123 50
f 106 50 51
f 124 66 49
f 124 122 66
f 49 50 124
f 50 123 124
f 76 87 84
f 84 83 76
f 80 77 76
f 76 79 80
f 89 88 76
f 76 77 70
f 76 90 89
f 85 86 76
f 76 83 82
f 82 81 76
f 76 88 85
f 81 78 76
f 74 75 76
f 72 73 76
f 70 71 76
f 78 79 76
f 75 90 76
f 76 71 72
f 76 86 87
f 101 98 99
f 101 99 93
f 97 98 101
f 93 94 101
f 96 103 101
f 101 95 96
f 101 102 97
f 101 94 95
f 103 104 101
f 101 104 100

