# https://github.com/mikedh/trimesh
v 0.00427889 -0.04328904 0.00000000
v -0.00675520 -0.04297229 0.00000000
v -0.01735429 -0.03988833 0.00000000
v -0.02683584 -0.03423576 0.00000000
v -0.03458931 -0.02637859 0.00000000
v -0.04011539 -0.01682276 0.00000000
v -0.04152225 -0.01296738 0.00000000
v -0.04305825 -0.00618363 0.00000000
v -0.04061479 0.01557846 0.00000000
v -0.04322837 0.00485369 0.00000000
v -0.03538584 0.02530005 0.00000000
v -0.02787820 0.03339245 0.00000000
v -0.00807635 0.04274368 0.00000000
v -0.01857536 0.03933454 0.00000000
v 0.00294273 0.04340035 0.00000000
v 0.20999999 0.03000000 0.00000000
v 0.23233280 -0.02003113 0.00000000
v 0.23709919 -0.01286988 0.00000000
v 0.23963737 -0.00465041 0.00000000
v 0.20929377 -0.02999169 0.00000000
v 0.21783401 -0.02895908 0.00000000
v 0.22573011 -0.02554533 0.00000000
v 0.21851356 0.02876663 0.00000000
v 0.22632711 0.02516795 0.00000000
v 0.23279816 0.01949984 0.00000000
v 0.23739465 0.01222837 0.00000000
v 0.23973863 0.00395143 0.00000000
v -0.00807635 0.04274368 -0.01500000
v 0.00294273 0.04340035 -0.01500000
v 0.23973863 0.00395143 -0.01500000
v 0.23739465 0.01222837 -0.01500000
v 0.23963737 -0.00465041 -0.01500000
v 0.23709919 -0.01286988 -0.01500000
v 0.23233280 -0.02003113 -0.01500000
v 0.22573011 -0.02554533 -0.01500000
v 0.21783401 -0.02895908 -0.01500000
v 0.20999999 0.03000000 -0.01500000
v 0.23279816 0.01949984 -0.01500000
v 0.22632711 0.02516795 -0.01500000
v 0.21851356 0.02876663 -0.01500000
v -0.03066067 -0.03085730 -0.01500000
v -0.02683584 -0.03423576 -0.01500000
v -0.01735429 -0.03988833 -0.01500000
v -0.04011539 -0.01682276 -0.01500000
v -0.03458931 -0.02637859 -0.01500000
v -0.04152225 -0.01296738 -0.01500000
v -0.04120988 0.01392825 -0.01500000
v -0.04322837 0.00485369 -0.01500000
v -0.04305825 -0.00618363 -0.01500000
v -0.04061479 0.01557846 -0.01500000
v -0.01857536 0.03933454 -0.01500000
v -0.02787820 0.03339245 -0.01500000
v -0.03538584 0.02530005 -0.01500000
v 0.01834172 -0.05712776 -0.01500000
v 0.01428145 -0.05746289 -0.01500000
v 0.01048942 -0.05597341 -0.01500000
v 0.01834172 -0.05712776 -0.01000000
v 0.01428145 -0.05746289 -0.01000000
v 0.01048942 -0.05597341 -0.01000000
f 4 41 42
f 1 58 20
f 2 58 1
f 3 58 2
f 59 58 3
f 21 20 57
f 57 20 58
f 5 41 4
f 41 5 45
f 47 48 10
f 50 47 9
f 9 47 10
f 13 14 15
f 19 32 30
f 19 30 27
f 36 35 22
f 22 21 36
f 22 35 34
f 34 17 22
f 57 54 36
f 36 21 57
f 55 54 57
f 57 58 55
f 40 37 16
f 23 40 16
f 15 16 29
f 29 16 37
f 27 30 31
f 31 26 27
f 31 38 25
f 25 26 31
f 52 53 11
f 11 12 52
f 14 51 52
f 52 12 14
f 34 33 18
f 18 17 34
f 18 33 32
f 32 19 18
f 55 58 56
f 58 59 56
f 27 26 8
f 8 19 27
f 8 26 25
f 8 18 19
f 25 24 8
f 17 18 8
f 8 22 17
f 21 22 8
f 8 20 21
f 23 16 8
f 8 24 23
f 15 14 8
f 8 16 15
f 39 40 23
f 23 24 39
f 25 38 39
f 39 24 25
f 9 14 12
f 12 11 9
f 9 8 14
f 10 8 9
f 53 50 9
f 9 11 53
f 13 29 28
f 15 29 13
f 28 51 13
f 51 14 13
f 43 3 4
f 4 42 43
f 43 56 59
f 43 59 3
f 20 8 7
f 7 2 1
f 1 20 7
f 3 2 7
f 7 5 4
f 4 3 7
f 6 5 7
f 49 8 10
f 10 48 49
f 49 7 8
f 46 7 49
f 44 54 55
f 44 31 30
f 44 35 36
f 40 39 44
f 28 29 44
f 30 32 44
f 44 33 34
f 44 37 40
f 52 51 44
f 34 35 44
f 36 54 44
f 44 42 41
f 44 43 42
f 41 45 44
f 44 53 52
f 44 51 28
f 32 33 44
f 55 56 44
f 44 29 37
f 38 31 44
f 44 50 53
f 48 47 44
f 44 49 48
f 44 39 38
f 44 47 50
f 56 43 44
f 46 49 44
f 6 7 44
f 44 7 46
f 44 5 6
f 44 45 5

