# https://github.com/mikedh/trimesh
v 0.00089673 0.01096339 -0.01920000
v 0.00089673 0.01096339 -0.01120000
v -0.00252456 0.01070638 -0.01920000
v -0.00252456 0.01070638 -0.01120000
v -0.00570025 0.00940782 -0.01920000
v -0.00570025 0.00940782 -0.01120000
v -0.00832140 0.00719405 -0.01920000
v -0.00832140 0.00719405 -0.01120000
v -0.01013302 0.00428041 -0.01920000
v -0.01013302 0.00428041 -0.01120000
v -0.01095887 0.00095036 -0.01920000
v -0.01095887 0.00095036 -0.01120000
v -0.01071861 -0.00247214 -0.01920000
v -0.01071861 -0.00247214 -0.01120000
v -0.00943560 -0.00565414 -0.01920000
v -0.00943560 -0.00565414 -0.01120000
v -0.00723469 -0.00828610 -0.01920000
v -0.00723469 -0.00828610 -0.01120000
v -0.00432994 -0.01011195 -0.01920000
v -0.00432994 -0.01011195 -0.01120000
v -0.00100398 -0.01095409 -0.01920000
v -0.00100398 -0.01095409 -0.01120000
v 0.09684970 -0.01099716 -0.01920000
v 0.09684970 -0.01099716 -0.01120000
v 0.10029041 -0.01036247 -0.01920000
v 0.10029041 -0.01036247 -0.01120000
v 0.10335777 -0.00867943 -0.01920000
v 0.10335777 -0.00867943 -0.01120000
v 0.10574146 -0.00611830 -0.01920000
v 0.10574146 -0.00611830 -0.01120000
v 0.10720033 -0.00293820 -0.01920000
v 0.10720033 -0.00293820 -0.01120000
v 0.10758678 0.00053916 -0.01920000
v 0.10758678 0.00053916 -0.01120000
v 0.10686172 0.00396196 -0.01920000
v 0.10686172 0.00396196 -0.01120000
v 0.10509849 0.00698395 -0.01920000
v 0.10509849 0.00698395 -0.01120000
v 0.10247550 0.00929938 -0.01920000
v 0.10247550 0.00929938 -0.01120000
v 0.09925809 0.01067401 -0.01920000
v 0.09925809 0.01067401 -0.01120000
v 0.09577177 0.01096878 -0.01920000
v 0.09577177 0.01096878 -0.01120000
f 24 21 23
f 24 22 21
f 21 22 19
f 22 20 19
f 1 2 44
f 44 43 1
f 4 2 1
f 1 3 4
f 37 40 38
f 39 40 37
f 30 27 29
f 28 27 30
f 17 19 18
f 18 19 20
f 42 43 44
f 42 41 43
f 42 40 39
f 39 41 42
f 29 31 32
f 32 30 29
f 11 13 12
f 12 13 14
f 12 9 11
f 10 9 12
f 3 5 6
f 4 3 6
f 33 31 25
f 11 9 25
f 23 21 25
f 17 15 25
f 25 35 33
f 25 5 3
f 43 41 25
f 39 37 25
f 21 19 25
f 25 31 29
f 25 1 43
f 25 19 17
f 7 5 25
f 3 1 25
f 25 37 35
f 25 41 39
f 29 27 25
f 25 13 11
f 25 15 13
f 25 9 7
f 25 24 23
f 25 26 24
f 25 27 28
f 28 26 25
f 35 37 36
f 36 37 38
f 13 15 16
f 14 13 16
f 17 18 16
f 16 15 17
f 7 9 8
f 8 9 10
f 8 5 7
f 8 6 5
f 34 18 20
f 34 12 14
f 44 2 34
f 22 24 34
f 34 20 22
f 34 2 4
f 38 40 34
f 34 42 44
f 28 30 34
f 24 26 34
f 34 36 38
f 30 32 34
f 40 42 34
f 34 26 28
f 4 6 34
f 10 12 34
f 14 16 34
f 34 8 10
f 34 16 18
f 6 8 34
f 34 31 33
f 34 32 31
f 33 35 34
f 35 36 34

