# https://github.com/mikedh/trimesh
v 0.01057857 -0.03076178 -0.01000000
v -0.00971700 -0.03048901 -0.01000000
v 0.03604997 0.02689967 -0.01000000
v 0.11564868 -0.01483049 -0.01000000
v 0.12014116 -0.01339988 -0.01000000
v 0.12396763 -0.01064542 -0.01000000
v 0.12675008 -0.00683925 -0.01000000
v 0.09556109 0.01787628 -0.01000000
v 0.06784134 -0.02207929 -0.01000000
v 0.00365251 0.03179087 -0.01000000
v -0.00252615 0.03190013 -0.01000000
v -0.00146653 0.03196638 -0.01000000
v 0.00135795 0.03197118 -0.01000000
v -0.00252615 -0.03190013 -0.01000000
v -0.02221962 0.02302799 -0.01000000
v -0.03012247 0.01079986 -0.01000000
v -0.02687574 0.01736936 -0.01000000
v -0.03180724 0.00350704 -0.01000000
v -0.03178954 -0.00366400 -0.01000000
v -0.03197037 -0.00137664 -0.01000000
v -0.03197056 0.00137222 -0.01000000
v -0.02687574 -0.01736936 -0.01000000
v -0.03012247 -0.01079986 -0.01000000
v 0.00967634 -0.03089858 -0.01000000
v 0.00479718 -0.03163838 -0.01000000
v 0.12821360 -0.00235738 -0.01000000
v 0.12821360 0.00235738 -0.01000000
v 0.11564868 0.01483049 -0.01000000
v 0.12675008 0.00683924 -0.01000000
v 0.12396764 0.01064542 -0.01000000
v 0.12014116 0.01339988 -0.01000000
v 0.00479718 0.03163838 -0.01000000
v -0.00971700 0.03048901 -0.01000000
v -0.01639828 0.02747902 -0.01000000
v -0.03178954 0.00366400 -0.01000000
v -0.02221962 -0.02302800 -0.01000000
v -0.01639828 -0.02747902 -0.01000000
v 0.12675008 0.00683924 -0.00000000
v 0.12821360 0.00235738 -0.00000000
v 0.12821360 -0.00235738 -0.00000000
v 0.12675008 -0.00683925 -0.00000000
v 0.12396763 -0.01064542 -0.00000000
v 0.11564868 0.01483049 -0.00000000
v 0.00479718 0.03163838 -0.00000000
v 0.12014116 0.01339988 -0.00000000
v 0.12396764 0.01064542 -0.00000000
v 0.12014116 -0.01339988 -0.00000000
v 0.11564868 -0.01483049 -0.00000000
v 0.00479718 -0.03163838 -0.00000000
v -0.02687574 0.01736936 -0.00000000
v -0.02221962 0.02302799 -0.00000000
v -0.01427734 0.02554722 -0.00000000
v -0.01639828 0.02747902 -0.00000000
v -0.00971700 0.03048901 -0.00000000
v -0.00252615 0.03190013 -0.00000000
v -0.03178954 -0.00366400 -0.00000000
v -0.03012247 0.01079986 -0.00000000
v -0.00971700 -0.03048901 -0.00000000
v -0.00252615 -0.03190013 -0.00000000
v -0.02221962 -0.02302800 -0.00000000
v -0.01639828 -0.02747902 -0.00000000
v -0.03178954 0.00366400 -0.00000000
v -0.02687574 -0.01736936 -0.00000000
v -0.03012247 -0.01079986 -0.00000000
f 56 62 21
f 44 32 10
f 13 44 10
f 3 44 43
f 3 32 44
f 43 44 55
f 55 12 11
f 13 12 55
f 55 44 13
f 20 56 21
f 20 19 56
f 21 62 18
f 62 35 18
f 43 28 8
f 8 3 43
f 39 41 40
f 61 58 60
f 4 48 9
f 49 9 48
f 9 49 1
f 24 49 25
f 24 1 49
f 53 34 15
f 53 15 51
f 6 7 41
f 42 6 41
f 58 2 14
f 14 59 58
f 47 5 6
f 47 6 42
f 4 5 47
f 47 48 4
f 64 19 23
f 56 19 64
f 16 35 57
f 57 35 62
f 62 56 57
f 56 64 57
f 51 15 17
f 17 50 51
f 16 57 17
f 17 57 50
f 26 27 40
f 40 27 39
f 40 7 26
f 40 41 7
f 45 31 28
f 45 28 43
f 30 31 45
f 45 46 30
f 36 37 61
f 60 36 61
f 61 37 2
f 2 58 61
f 49 59 14
f 14 25 49
f 33 34 54
f 34 53 54
f 54 11 33
f 54 55 11
f 63 22 36
f 63 36 60
f 23 22 63
f 63 64 23
f 39 27 38
f 27 29 38
f 30 46 38
f 38 29 30
f 26 7 24
f 15 34 24
f 14 2 24
f 28 31 24
f 24 25 14
f 24 20 21
f 36 22 24
f 24 12 13
f 24 37 36
f 24 17 15
f 24 22 23
f 2 37 24
f 24 5 4
f 21 18 24
f 13 10 24
f 24 7 6
f 24 27 26
f 6 5 24
f 24 34 33
f 33 11 24
f 23 19 24
f 24 35 16
f 24 10 32
f 32 3 24
f 24 8 28
f 24 31 30
f 30 29 24
f 11 12 24
f 19 20 24
f 24 18 35
f 16 17 24
f 3 8 24
f 24 29 27
f 4 9 24
f 9 1 24
f 52 57 64
f 50 57 52
f 55 54 52
f 43 55 52
f 52 41 39
f 48 47 52
f 52 47 42
f 42 41 52
f 52 38 46
f 46 45 52
f 39 38 52
f 52 45 43
f 51 50 52
f 52 53 51
f 52 54 53
f 52 49 48
f 52 58 59
f 59 49 52
f 60 58 52
f 64 63 52
f 52 63 60

