# https://github.com/mikedh/trimesh
v -0.00450000 0.00779423 -0.00800000
v -0.00450000 0.00779423 -0.00000000
v -0.00307818 0.00845723 -0.00000000
v -0.00307818 0.00845723 -0.00800000
v -0.00156283 0.00886327 -0.00000000
v -0.00156283 0.00886327 -0.00800000
v 0.00000000 0.00900000 -0.00000000
v 0.00000000 0.00900000 -0.00800000
v 0.00000000 -0.00900000 -0.00800000
v 0.00000000 -0.00900000 -0.00000000
v -0.00156283 -0.00886327 -0.00000000
v -0.00156283 -0.00886327 -0.00800000
v -0.00307818 -0.00845723 -0.00000000
v -0.00307818 -0.00845723 -0.00800000
v -0.00450000 -0.00779423 -0.00000000
v -0.00450000 -0.00779423 -0.00800000
v 0.01800000 -0.00900000 -0.00800000
v 0.02042705 -0.00776336 -0.00800000
v 0.02085317 -0.00692705 -0.00800000
v 0.02100000 -0.00600000 -0.00800000
v 0.02100000 0.00600000 -0.00800000
v 0.01976336 0.00842705 -0.00800000
v 0.02042705 0.00776336 -0.00800000
v 0.01800000 0.00900000 -0.00800000
v 0.02085317 0.00692705 -0.00800000
v 0.01892705 -0.00885317 -0.00800000
v 0.01976336 -0.00842705 -0.00800000
v 0.01892705 0.00885317 -0.00800000
v -0.00889778 0.00424056 -0.00800000
v -0.00900000 0.00346410 -0.00800000
v -0.00900000 -0.00346410 -0.00800000
v -0.00812132 -0.00558542 -0.00800000
v -0.00750000 -0.00606218 -0.00800000
v -0.00859808 0.00496410 -0.00800000
v -0.00812132 0.00558542 -0.00800000
v -0.00750000 0.00606218 -0.00800000
v -0.00889778 -0.00424056 -0.00800000
v -0.00859808 -0.00496410 -0.00800000
v 0.01800000 0.00900000 -0.00000000
v -0.00900000 0.00346410 -0.00000000
v -0.00900000 -0.00346410 -0.00000000
v 0.01892705 0.00885317 -0.00000000
v 0.01976336 0.00842705 -0.00000000
v 0.02042705 0.00776336 -0.00000000
v -0.00812132 0.00558542 -0.00000000
v 0.01976336 -0.00842705 -0.00000000
v 0.02042705 -0.00776336 -0.00000000
v 0.02085317 -0.00692705 -0.00000000
v 0.02100000 -0.00600000 -0.00000000
v 0.00698973 0.00037897 -0.00000000
v 0.02100000 0.00600000 -0.00000000
v 0.02085317 0.00692705 -0.00000000
v -0.00889778 0.00424056 -0.00000000
v -0.00859808 0.00496410 -0.00000000
v -0.00750000 0.00606218 -0.00000000
v 0.01800000 -0.00900000 -0.00000000
v 0.01892705 -0.00885317 -0.00000000
v -0.00889778 -0.00424056 -0.00000000
v -0.00750000 -0.00606218 -0.00000000
v -0.00812132 -0.00558542 -0.00000000
v -0.00859808 -0.00496410 -0.00000000
f 5 39 7
f 9 17 10
f 10 17 56
f 20 21 49
f 49 21 51
f 19 49 48
f 20 49 19
f 13 10 56
f 11 10 13
f 9 10 12
f 12 10 11
f 7 8 6
f 7 6 5
f 24 8 7
f 7 39 24
f 56 17 57
f 17 26 57
f 57 26 27
f 27 46 57
f 30 31 41
f 41 40 30
f 11 13 14
f 14 12 11
f 22 44 23
f 43 44 22
f 28 24 42
f 24 39 42
f 42 22 28
f 43 22 42
f 47 19 48
f 47 18 19
f 47 46 27
f 27 18 47
f 58 37 38
f 58 38 61
f 31 37 58
f 58 41 31
f 29 21 20
f 29 31 30
f 29 24 28
f 29 17 9
f 29 32 38
f 38 37 29
f 29 35 36
f 29 26 17
f 6 8 29
f 20 19 29
f 28 22 29
f 9 12 29
f 27 26 29
f 29 8 24
f 29 14 16
f 29 25 21
f 29 37 31
f 29 18 27
f 36 1 29
f 29 4 6
f 16 33 29
f 23 25 29
f 19 18 29
f 34 35 29
f 1 4 29
f 12 14 29
f 33 32 29
f 29 22 23
f 30 40 29
f 40 53 29
f 29 53 54
f 54 34 29
f 5 6 3
f 6 4 3
f 3 4 1
f 1 2 3
f 55 1 36
f 55 2 1
f 38 32 60
f 61 38 60
f 60 32 33
f 33 59 60
f 40 41 60
f 41 58 60
f 60 58 61
f 16 14 15
f 15 14 13
f 15 33 16
f 15 59 33
f 13 60 15
f 15 60 59
f 51 21 52
f 21 25 52
f 52 43 51
f 52 44 43
f 52 25 23
f 23 44 52
f 54 53 45
f 45 3 2
f 2 55 45
f 45 53 40
f 40 60 45
f 45 60 5
f 5 3 45
f 45 35 34
f 45 34 54
f 36 35 45
f 45 55 36
f 50 60 13
f 5 60 50
f 50 39 5
f 50 42 39
f 51 43 50
f 43 42 50
f 50 13 56
f 56 57 50
f 50 57 46
f 50 47 48
f 46 47 50
f 50 49 51
f 48 49 50

