# https://github.com/mikedh/trimesh
v 0.02100000 -0.00600000 0.00300000
v 0.02100000 0.00600000 0.00300000
v -0.00450000 0.00779423 -0.00500000
v -0.00450000 0.00779423 0.00300000
v -0.00307818 0.00845723 0.00300000
v -0.00307818 0.00845723 -0.00500000
v -0.00156283 0.00886327 0.00300000
v -0.00156283 0.00886327 -0.00500000
v 0.00000000 0.00900000 0.00300000
v 0.00000000 0.00900000 -0.00500000
v 0.00000000 -0.00900000 -0.00500000
v 0.00000000 -0.00900000 0.00300000
v -0.00156283 -0.00886327 0.00300000
v -0.00156283 -0.00886327 -0.00500000
v -0.00307818 -0.00845723 0.00300000
v -0.00307818 -0.00845723 -0.00500000
v -0.00450000 -0.00779423 0.00300000
v -0.00450000 -0.00779423 -0.00500000
v -0.00900000 0.00346410 -0.00500000
v -0.00889778 0.00424056 -0.00500000
v -0.00900000 -0.00346410 -0.00500000
v -0.00889778 -0.00424056 -0.00500000
v -0.00750000 -0.00606218 -0.00500000
v -0.00812132 -0.00558542 -0.00500000
v -0.00859808 -0.00496410 -0.00500000
v -0.00750000 0.00606218 -0.00500000
v -0.00812132 0.00558542 -0.00500000
v -0.00859808 0.00496410 -0.00500000
v 0.01800000 0.00900000 0.00300000
v 0.01892705 0.00885317 0.00300000
v 0.01976336 0.00842705 0.00300000
v 0.02042705 0.00776336 0.00300000
v 0.01800000 -0.00900000 0.00300000
v 0.01892705 -0.00885317 0.00300000
v 0.01976336 -0.00842705 0.00300000
v 0.02042705 -0.00776336 0.00300000
v 0.02085317 -0.00692705 0.00300000
v 0.02085317 0.00692705 0.00300000
v -0.00812132 0.00558542 0.00300000
v -0.00750000 0.00606218 0.00300000
v -0.00750000 -0.00606218 0.00300000
v -0.00812132 -0.00558542 0.00300000
v -0.00859808 -0.00496410 0.00300000
v -0.00889778 -0.00424056 0.00300000
v -0.00859808 0.00496410 0.00300000
v -0.00889778 0.00424056 0.00300000
v -0.00900000 0.00346410 0.00300000
v -0.00900000 -0.00346410 0.00300000
v 0.02100000 0.00600000 -0.01200000
v 0.02100000 -0.00600000 -0.01200000
v 0.01000000 -0.00900000 -0.01200000
v 0.01800000 -0.00900000 -0.01200000
v 0.01000000 0.00900000 -0.01200000
v 0.01800000 0.00900000 -0.01200000
v 0.00800000 0.00700000 -0.01200000
v 0.00800000 -0.00700000 -0.01200000
v 0.01892705 0.00885317 -0.01200000
v 0.01976336 0.00842705 -0.01200000
v 0.02042705 0.00776336 -0.01200000
v 0.02085317 0.00692705 -0.01200000
v 0.00858579 0.00841421 -0.01200000
v 0.00923463 0.00884776 -0.01200000
v 0.00815224 0.00776537 -0.01200000
v 0.01976336 -0.00842705 -0.01200000
v 0.02042705 -0.00776336 -0.01200000
v 0.02085317 -0.00692705 -0.01200000
v 0.01892705 -0.00885317 -0.01200000
v 0.00858579 -0.00841421 -0.01200000
v 0.00815224 -0.00776537 -0.01200000
v 0.00923463 -0.00884776 -0.01200000
f 11 14 51
f 8 10 53
f 22 21 56
f 20 55 19
f 20 63 55
f 27 26 61
f 51 14 70
f 14 16 70
f 69 22 56
f 63 20 28
f 28 61 63
f 27 61 28
f 26 3 62
f 62 61 26
f 62 3 6
f 6 8 62
f 62 8 53
f 68 70 23
f 24 68 23
f 25 69 68
f 25 68 24
f 22 69 25
f 18 70 16
f 18 23 70
f 21 55 56
f 19 55 21
f 9 29 54
f 54 10 9
f 53 10 54
f 11 33 12
f 51 52 11
f 11 52 33
f 19 21 48
f 48 47 19
f 60 2 49
f 60 38 2
f 47 46 20
f 19 47 20
f 13 11 12
f 14 11 13
f 9 10 7
f 10 8 7
f 4 3 40
f 40 3 26
f 44 48 21
f 21 22 44
f 57 30 31
f 31 58 57
f 57 54 29
f 29 30 57
f 65 66 37
f 37 36 65
f 28 46 45
f 28 20 46
f 35 64 65
f 65 36 35
f 14 13 15
f 15 16 14
f 5 3 4
f 6 3 5
f 5 7 8
f 5 8 6
f 39 28 45
f 27 28 39
f 39 40 26
f 39 26 27
f 41 42 23
f 23 42 24
f 25 42 43
f 24 42 25
f 43 44 25
f 25 44 22
f 65 64 59
f 59 52 51
f 59 66 65
f 49 50 59
f 59 67 52
f 53 54 59
f 56 55 59
f 51 70 59
f 59 69 56
f 50 66 59
f 59 60 49
f 55 63 59
f 59 62 53
f 59 57 58
f 63 61 59
f 59 70 68
f 68 69 59
f 54 57 59
f 64 67 59
f 61 62 59
f 31 32 59
f 59 58 31
f 38 60 59
f 59 32 38
f 1 66 50
f 1 37 66
f 49 2 1
f 1 50 49
f 12 33 34
f 17 15 34
f 34 29 9
f 36 37 34
f 34 13 12
f 34 5 4
f 34 44 43
f 45 46 34
f 9 7 34
f 2 38 34
f 34 46 47
f 34 32 31
f 31 30 34
f 47 48 34
f 34 30 29
f 37 1 34
f 34 41 17
f 43 42 34
f 4 40 34
f 48 44 34
f 38 32 34
f 34 39 45
f 34 35 36
f 34 15 13
f 34 42 41
f 7 5 34
f 40 39 34
f 34 1 2
f 33 52 34
f 52 67 34
f 34 67 64
f 64 35 34
f 18 15 17
f 16 15 18
f 17 41 18
f 41 23 18

