# https://github.com/mikedh/trimesh
v 0.01600000 -0.00537332 -0.00232636
v 0.01600000 -0.00443141 -0.00024230
v 0.01600000 -0.00272327 0.00127847
v 0.01600000 -0.00054425 0.00197301
v 0.01600000 0.00365726 -0.00760785
v 0.01600000 0.00272327 -0.00827847
v 0.01600000 0.00167026 -0.00874025
v 0.01600000 -0.00060554 -0.00896656
v 0.01600000 -0.00277664 -0.00824766
v 0.01600000 -0.00446764 -0.00670784
v 0.01600000 -0.00538613 -0.00461336
v 0.01600000 0.00172887 0.00172121
v 0.01600000 0.00370306 0.00056661
v 0.01600000 0.00503695 -0.00129113
v 0.01600000 0.00549991 -0.00353081
v 0.01600000 0.00501189 -0.00576517
v 0.14100000 0.00001961 -0.00000005
v 0.14100000 -0.00173299 -0.00045915
v 0.14100000 -0.00302124 -0.00173305
v 0.14100000 -0.00349995 -0.00348039
v 0.14100000 -0.00304085 -0.00523299
v 0.14100000 -0.00176695 -0.00652124
v 0.14100000 -0.00001961 -0.00699995
v 0.14100000 0.00173299 -0.00654085
v 0.14100000 0.00302124 -0.00526695
v 0.14100000 0.00349995 -0.00351961
v 0.14100000 0.00304085 -0.00176701
v 0.14100000 0.00176695 -0.00047876
v 0.12180000 -0.00443631 0.00053970
v 0.13750000 -0.00483427 0.00005385
v 0.13750000 -0.00297084 0.00171288
v 0.12180000 -0.00546751 -0.00102891
v 0.13750000 -0.00586180 -0.00221967
v 0.12180000 -0.00596352 -0.00283941
v 0.13750000 -0.00587578 -0.00471457
v 0.12180000 -0.00521288 -0.00647084
v 0.13750000 -0.00487378 -0.00699946
v 0.12180000 -0.00403970 -0.00793631
v 0.13750000 -0.00302906 -0.00867926
v 0.12180000 -0.00247109 -0.00896751
v 0.13750000 -0.00066059 -0.00946352
v 0.12180000 0.00121457 -0.00937578
v 0.13750000 0.00182210 -0.00921664
v 0.13750000 0.00297084 -0.00871288
v 0.13750000 0.00398974 -0.00798129
v 0.12180000 0.00443631 -0.00753970
v 0.13750000 0.00546751 -0.00597109
v 0.12180000 0.00596352 -0.00416059
v 0.13750000 0.00599991 -0.00353362
v 0.12180000 0.00587578 -0.00228543
v 0.13750000 0.00549486 -0.00109033
v 0.12180000 0.00521288 -0.00052916
v 0.13750000 0.00403970 0.00093631
v 0.12180000 0.00247109 0.00196751
v 0.13750000 0.00188604 0.00219586
v 0.12180000 0.00066059 0.00246352
v 0.13750000 -0.00059373 0.00247055
v 0.12180000 -0.00121457 0.00237578
v 0.02020000 -0.00121457 0.00237578
v 0.02020000 0.00066059 0.00246352
v 0.02020000 0.00521288 -0.00052916
v 0.02020000 0.00587578 -0.00228543
v 0.02020000 0.00443631 -0.00753970
v 0.02020000 -0.00247109 -0.00896751
v 0.02020000 -0.00403970 -0.00793631
v 0.02020000 -0.00596352 -0.00283941
v 0.02020000 -0.00546751 -0.00102891
v 0.02020000 -0.00443631 0.00053970
v 0.02020000 -0.00521288 -0.00647084
v 0.02020000 0.00121457 -0.00937578
v 0.02020000 0.00596352 -0.00416059
v 0.02020000 0.00247109 0.00196751
v 0.01650000 -0.00297084 0.00171288
v 0.01650000 -0.00483427 0.00005385
v 0.01650000 -0.00586180 -0.00221967
v 0.01650000 -0.00587578 -0.00471457
v 0.01650000 -0.00487378 -0.00699946
v 0.01650000 -0.00302906 -0.00867926
v 0.01650000 -0.00066059 -0.00946352
v 0.01650000 0.00182210 -0.00921664
v 0.01650000 0.00546751 -0.00597109
v 0.01650000 0.00398974 -0.00798129
v 0.01650000 0.00297084 -0.00871288
v 0.01650000 0.00599991 -0.00353362
v 0.01650000 0.00549486 -0.00109033
v 0.01650000 0.00403970 0.00093631
v 0.01650000 0.00188604 0.00219586
v 0.01650000 -0.00059373 0.00247055
f 49 26 47
f 46 47 45
f 25 47 26
f 24 45 25
f 45 47 25
f 43 23 41
f 24 23 43
f 35 20 33
f 57 17 55
f 57 18 17
f 31 18 57
f 55 17 28
f 39 40 41
f 39 37 38
f 37 39 22
f 41 23 22
f 22 39 41
f 49 47 48
f 83 6 82
f 83 80 6
f 6 80 7
f 7 80 79
f 79 8 7
f 44 45 24
f 24 43 44
f 13 12 87
f 87 86 13
f 13 86 85
f 85 14 13
f 72 86 87
f 82 81 63
f 87 12 88
f 36 37 35
f 30 18 31
f 37 22 21
f 21 20 35
f 35 37 21
f 11 76 75
f 35 33 34
f 64 78 79
f 81 16 15
f 15 14 85
f 79 80 70
f 42 43 41
f 49 50 51
f 51 27 26
f 51 26 49
f 85 86 61
f 82 6 5
f 5 81 82
f 5 16 81
f 4 88 12
f 3 88 4
f 56 57 55
f 18 30 19
f 19 30 33
f 19 33 20
f 75 76 66
f 78 65 77
f 69 76 77
f 11 10 77
f 76 11 77
f 9 8 79
f 79 78 9
f 78 77 9
f 9 77 10
f 84 15 85
f 84 85 62
f 81 15 84
f 71 81 84
f 3 2 74
f 74 2 75
f 31 57 58
f 1 11 75
f 75 2 1
f 87 88 60
f 33 30 32
f 3 74 73
f 73 88 3
f 67 74 75
f 53 51 52
f 27 51 53
f 53 28 27
f 55 28 53
f 53 54 55
f 88 73 59
f 29 30 31
f 68 73 74
f 47 81 48
f 48 81 71
f 44 83 82
f 82 45 44
f 44 43 80
f 80 83 44
f 63 45 82
f 63 46 45
f 63 81 47
f 47 46 63
f 35 76 36
f 36 76 69
f 41 40 64
f 64 79 41
f 40 39 64
f 39 78 64
f 65 78 39
f 65 39 38
f 41 79 42
f 79 70 42
f 80 43 42
f 42 70 80
f 87 55 54
f 54 72 87
f 51 50 62
f 62 85 51
f 61 51 85
f 52 51 61
f 20 21 19
f 26 27 19
f 19 23 24
f 24 25 19
f 17 18 19
f 19 28 17
f 19 25 26
f 27 28 19
f 19 22 23
f 19 21 22
f 66 34 33
f 66 33 75
f 66 76 35
f 35 34 66
f 77 36 69
f 37 36 77
f 77 65 38
f 38 37 77
f 62 50 84
f 84 50 49
f 49 48 84
f 84 48 71
f 1 2 3
f 6 7 1
f 1 4 12
f 12 13 1
f 1 5 6
f 14 15 1
f 1 7 8
f 1 13 14
f 1 10 11
f 1 15 16
f 8 9 1
f 16 5 1
f 3 4 1
f 1 9 10
f 60 55 87
f 60 56 55
f 60 88 57
f 57 56 60
f 30 74 67
f 67 32 30
f 75 33 67
f 33 32 67
f 52 61 53
f 53 61 86
f 72 54 53
f 86 72 53
f 59 73 31
f 31 58 59
f 57 88 59
f 59 58 57
f 31 73 68
f 68 29 31
f 68 74 30
f 30 29 68

