# https://github.com/mikedh/trimesh
v 0.01580258 0.00005258 -0.00100055
v 0.01580258 0.00120811 -0.00131129
v 0.01580258 -0.00247488 -0.00314652
v 0.01580258 -0.00202713 -0.00203688
v 0.01580258 -0.00111499 -0.00126241
v 0.01580258 -0.00064921 -0.00591423
v 0.01580258 -0.00169680 -0.00533599
v 0.01580258 -0.00235567 -0.00433715
v 0.01580258 0.00231838 -0.00443548
v 0.01580258 0.00161808 -0.00540573
v 0.01580258 0.00054710 -0.00593940
v 0.01580258 0.00208688 -0.00212343
v 0.01580258 0.00248756 -0.00325093
v 0.09580258 0.00006310 -0.00050066
v 0.01630258 -0.00133799 -0.00081490
v 0.09580258 -0.00133799 -0.00081490
v 0.01630258 -0.00243256 -0.00174425
v 0.09580258 -0.00243256 -0.00174425
v 0.01630258 -0.00296986 -0.00307583
v 0.09580258 -0.00296986 -0.00307583
v 0.01630258 -0.00282680 -0.00450458
v 0.09580258 -0.00282680 -0.00450458
v 0.01630258 -0.00203616 -0.00570319
v 0.09580258 -0.00203616 -0.00570319
v 0.01630258 -0.00077906 -0.00639708
v 0.09580258 -0.00077906 -0.00639708
v 0.01630258 0.00065652 -0.00642728
v 0.09580258 0.00065652 -0.00642728
v 0.01630258 0.00194170 -0.00578688
v 0.09580258 0.00194170 -0.00578688
v 0.01630258 0.00278205 -0.00462258
v 0.09580258 0.00278205 -0.00462258
v 0.01630258 0.00298507 -0.00320111
v 0.09580258 0.00298507 -0.00320111
v 0.01630258 0.00250425 -0.00184811
v 0.09580258 0.00250425 -0.00184811
v 0.01630258 0.00144973 -0.00087354
v 0.09580258 0.00144973 -0.00087354
v 0.01630258 0.00006310 -0.00050066
f 25 11 27
f 15 39 5
f 5 39 1
f 31 13 33
f 3 21 19
f 19 4 3
f 6 25 7
f 11 25 6
f 23 21 7
f 7 25 23
f 17 4 19
f 17 5 4
f 15 5 17
f 27 11 29
f 10 29 11
f 31 29 10
f 7 21 8
f 21 3 8
f 33 13 12
f 33 12 35
f 35 12 37
f 13 31 9
f 31 10 9
f 37 12 2
f 39 37 2
f 1 39 2
f 14 39 16
f 16 39 15
f 22 20 19
f 19 21 22
f 24 22 23
f 23 22 21
f 37 39 14
f 14 38 37
f 32 31 34
f 34 31 33
f 24 23 26
f 26 23 25
f 27 28 26
f 26 25 27
f 19 20 18
f 18 17 19
f 18 16 15
f 15 17 18
f 30 31 32
f 30 29 31
f 30 28 27
f 27 29 30
f 7 8 2
f 2 5 1
f 2 10 11
f 4 5 2
f 2 6 7
f 2 3 4
f 11 6 2
f 13 9 2
f 2 8 3
f 2 12 13
f 2 9 10
f 32 34 36
f 14 16 36
f 36 38 14
f 24 26 36
f 36 22 24
f 36 18 20
f 20 22 36
f 36 30 32
f 36 26 28
f 16 18 36
f 28 30 36
f 36 37 38
f 36 35 37
f 36 34 33
f 33 35 36

