# https://github.com/mikedh/trimesh
v 0.23739465 0.01222837 -0.00000000
v -0.01735429 -0.03988833 -0.00000000
v -0.00675520 -0.04297229 -0.00000000
v 0.00427889 -0.04328904 -0.00000000
v -0.04152225 -0.01296738 -0.00000000
v -0.04011539 -0.01682276 -0.00000000
v -0.03458931 -0.02637859 -0.00000000
v -0.02683584 -0.03423576 -0.00000000
v -0.04305825 -0.00618363 -0.00000000
v -0.04120988 0.01392825 -0.00000000
v -0.04322837 0.00485369 -0.00000000
v 0.00294273 0.04340035 -0.00000000
v -0.00807635 0.04274368 -0.00000000
v -0.01857536 0.03933454 -0.00000000
v -0.02787820 0.03339245 -0.00000000
v -0.03538584 0.02530005 -0.00000000
v -0.04061479 0.01557846 -0.00000000
v 0.23973863 0.00395143 -0.00000000
v 0.23963737 -0.00465041 -0.00000000
v 0.23709919 -0.01286988 -0.00000000
v 0.23233280 -0.02003113 -0.00000000
v 0.22573011 -0.02554533 -0.00000000
v 0.21783401 -0.02895908 -0.00000000
v 0.20929377 -0.02999169 -0.00000000
v 0.20999999 0.03000000 -0.00000000
v 0.21851356 0.02876663 -0.00000000
v 0.22632711 0.02516795 -0.00000000
v 0.23279816 0.01949984 -0.00000000
v -0.01735429 -0.03988833 0.01500000
v 0.20999999 0.03000000 0.01500000
v 0.21851356 0.02876663 0.01500000
v 0.22632711 0.02516795 0.01500000
v 0.23279816 0.01949984 0.01500000
v 0.23739465 0.01222837 0.01500000
v 0.23973863 0.00395143 0.01500000
v 0.23963737 -0.00465041 0.01500000
v 0.23709919 -0.01286988 0.01500000
v 0.23233280 -0.02003113 0.01500000
v 0.22573011 -0.02554533 0.01500000
v 0.21783401 -0.02895908 0.01500000
v -0.00807635 0.04274368 0.01500000
v 0.00294273 0.04340035 0.01500000
v -0.01857536 0.03933454 0.01500000
v -0.02787820 0.03339245 0.01500000
v -0.04305825 -0.00618363 0.01500000
v -0.04322837 0.00485369 0.01500000
v -0.04061479 0.01557846 0.01500000
v -0.03538584 0.02530005 0.01500000
v -0.04011539 -0.01682276 0.01500000
v -0.02683584 -0.03423576 0.01500000
v -0.03458931 -0.02637859 0.01500000
v 0.01048942 -0.05597341 0.01500000
v 0.01428145 -0.05746289 0.01500000
v 0.01834172 -0.05712776 0.01500000
v 0.01048942 -0.05597341 0.01000000
v 0.01428145 -0.05746289 0.01000000
v 0.01834172 -0.05712776 0.01000000
f 24 56 4
f 4 56 3
f 3 56 2
f 2 56 55
f 57 24 23
f 56 24 57
f 5 6 49
f 9 5 45
f 45 5 49
f 10 46 47
f 11 46 10
f 47 17 10
f 26 25 30
f 31 26 30
f 30 25 12
f 12 42 30
f 43 14 15
f 43 15 44
f 40 54 57
f 57 23 40
f 57 54 53
f 53 56 57
f 32 27 26
f 32 26 31
f 28 27 32
f 32 33 28
f 15 16 48
f 44 15 48
f 16 17 48
f 48 17 47
f 41 42 12
f 12 13 41
f 41 13 14
f 14 43 41
f 52 56 53
f 52 55 56
f 28 33 1
f 33 34 1
f 35 19 18
f 36 19 35
f 18 1 35
f 35 1 34
f 50 51 7
f 8 50 7
f 7 51 49
f 49 6 7
f 11 9 45
f 45 46 11
f 40 23 39
f 23 22 39
f 39 22 21
f 21 38 39
f 4 3 20
f 26 27 20
f 20 24 4
f 20 9 11
f 20 22 23
f 12 25 20
f 18 19 20
f 20 13 12
f 20 2 8
f 20 16 15
f 20 25 26
f 15 14 20
f 8 7 20
f 20 27 28
f 6 5 20
f 14 13 20
f 11 10 20
f 23 24 20
f 20 3 2
f 20 1 18
f 20 17 16
f 21 22 20
f 28 1 20
f 20 5 9
f 20 7 6
f 20 10 17
f 20 37 38
f 20 38 21
f 36 37 20
f 20 19 36
f 29 45 49
f 53 54 29
f 36 35 29
f 31 30 29
f 29 43 44
f 29 37 36
f 29 54 40
f 29 32 31
f 29 52 53
f 49 51 29
f 29 30 42
f 44 48 29
f 42 41 29
f 33 32 29
f 29 34 33
f 29 51 50
f 47 46 29
f 29 48 47
f 29 41 43
f 38 37 29
f 40 39 29
f 29 35 34
f 46 45 29
f 29 39 38
f 8 2 29
f 29 50 8
f 55 52 29
f 2 55 29

