# https://github.com/mikedh/trimesh
v -0.06389423 -0.00433728 -0.01500000
v -0.00354595 0.02474725 -0.01500000
v -0.01129574 0.02230261 -0.01500000
v -0.06974729 -0.00730172 -0.01500000
v -0.07556843 -0.01498213 -0.01500000
v -0.07354373 -0.01047051 -0.01500000
v -0.07541223 -0.01992477 -0.01500000
v -0.07310667 -0.02429954 -0.01500000
v -0.06911771 -0.02722227 -0.01500000
v -0.06425154 -0.02810229 -0.01500000
v 0.24801017 -0.02993394 0.00000000
v 0.25382939 -0.02975459 0.00000000
v 0.25722933 -0.02911592 0.00000000
v 0.27936471 -0.00614121 0.00000000
v 0.27916685 -0.00702111 0.00000000
v -0.06425154 -0.02810229 0.00000000
v -0.06911771 -0.02722227 0.00000000
v -0.06511609 -0.00495612 0.00000000
v -0.06974729 -0.00730172 0.00000000
v -0.07354373 -0.01047051 0.00000000
v -0.07310667 -0.02429954 0.00000000
v -0.07541223 -0.01992477 0.00000000
v -0.07556843 -0.01498213 0.00000000
v -0.00354595 0.02474725 0.00000000
v -0.01129574 0.02230261 0.00000000
v 0.25126484 0.02997333 0.00000000
v 0.25529149 0.02952965 0.00000000
v 0.25682223 0.02921399 0.00000000
v 0.25642756 0.02930336 0.00000000
v 0.25540915 0.02950833 0.00000000
v 0.26637635 0.02513593 0.00000000
v 0.27396694 0.01804401 0.00000000
v 0.27868381 0.00878856 0.00000000
v 0.25716239 0.02913246 0.00000000
v 0.25938594 0.02849393 0.00000000
v 0.26603040 0.02535798 0.00000000
v 0.27968541 -0.00433311 0.00000000
v 0.27996144 -0.00152064 0.00000000
v 0.27764660 -0.01164752 0.00000000
v 0.27201688 -0.02037784 0.00000000
v 0.26374730 -0.02666480 0.00000000
v 0.26304930 -0.02701325 0.00000000
v 0.27957591 -0.00502645 0.00000000
v 0.25303161 -0.02682927 -0.04085000
v 0.26033661 -0.02494302 -0.04085000
v 0.27589524 0.00764441 -0.04085000
v 0.25632736 0.02624813 -0.04085000
v 0.24367264 -0.02624813 -0.04085000
v 0.26956788 -0.01860372 -0.04085000
v 0.26202494 -0.02417439 -0.04085000
v 0.27171901 0.01604009 -0.04085000
v 0.26492319 0.02250110 -0.04085000
v 0.26864469 -0.02476642 -0.03635000
v 0.24950142 -0.03099599 -0.03635000
v 0.28146952 -0.01812715 -0.03235000
v 0.28125480 -0.01885174 -0.03235000
v 0.27952561 -0.02145901 -0.03235000
v 0.27894163 -0.02193869 -0.03235000
v 0.28627250 0.00179729 -0.03235000
v 0.28641149 0.00254013 -0.03235000
v 0.28606021 0.00564892 -0.03235000
v 0.28575894 0.00634201 -0.03235000
v 0.27663106 0.02469232 -0.03235000
v 0.27626008 0.02535072 -0.03235000
v 0.27399269 0.02750639 -0.03235000
v 0.27331638 0.02784367 -0.03235000
v 0.25069869 0.03649332 -0.03235000
v 0.25382125 0.03629943 -0.03235000
v 0.25452864 0.03603352 -0.03235000
v 0.23761286 -0.03413916 -0.03235000
v 0.26011568 -0.03507026 -0.03235000
v 0.25882435 -0.03541724 -0.03235000
v 0.25806865 -0.03540933 -0.03235000
v 0.26245514 -0.03411442 -0.03235000
v 0.26182488 -0.03453146 -0.03235000
v 0.26083413 -0.03485500 -0.02685000
v 0.24222195 -0.01646338 -0.05030000
v 0.23620963 -0.01321500 -0.05030000
v 0.23554361 -0.01212901 -0.05030000
v 0.23538828 -0.01086456 -0.05030000
v 0.23950593 -0.01595884 -0.05030000
v 0.23975587 -0.01612041 -0.05030000
v 0.24095164 -0.01655982 -0.05030000
v 0.24545066 0.01855029 -0.05030000
v 0.24672417 0.01858411 -0.05030000
v 0.24789688 0.01808641 -0.05030000
v 0.24142627 0.01706755 -0.05030000
v 0.24116138 0.01693189 -0.05030000
v 0.23963131 0.01496769 -0.05030000
v 0.24018295 0.01611601 -0.05030000
v 0.26833969 -0.00533531 -0.05030000
v 0.26906779 -0.00110871 -0.05030000
v 0.26908275 -0.00081147 -0.05030000
v 0.26886541 0.00044381 -0.05030000
v 0.26814672 0.00149570 -0.05030000
v 0.26773223 -0.00645510 -0.05030000
v 0.26671484 -0.00722184 -0.05030000
v 0.25984377 -0.03514755 -0.02670000
v 0.26107264 -0.03477998 -0.02670000
v 0.25023699 0.00299062 0.01310000
v 0.24870993 0.00270846 0.01310000
v 0.24752854 0.00170055 0.01310000
v 0.24700938 0.00023699 0.01310000
v 0.25299063 -0.00023699 0.01310000
v 0.25270846 0.00129007 0.01310000
v 0.25170055 0.00247146 0.01310000
v 0.24976301 -0.00299062 0.01310000
v 0.25129008 -0.00270846 0.01310000
v 0.25247148 -0.00170055 0.01310000
v 0.24729155 -0.00129007 0.01310000
v 0.24829945 -0.00247146 0.01310000
v 0.27952561 -0.02145901 -0.02270000
v 0.27894163 -0.02193869 -0.02270000
v 0.26245514 -0.03411442 -0.02270000
v 0.26182488 -0.03453146 -0.02270000
v 0.26026121 -0.03502795 -0.02270000
v 0.25882435 -0.03541724 -0.02270000
v 0.25806865 -0.03540933 -0.02270000
v 0.25069869 0.03649332 -0.02270000
v 0.25382125 0.03629943 -0.02270000
v 0.25452864 0.03603352 -0.02270000
v 0.27331638 0.02784367 -0.02270000
v 0.27399269 0.02750639 -0.02270000
v 0.27626008 0.02535072 -0.02270000
v 0.27663106 0.02469232 -0.02270000
v 0.28575894 0.00634201 -0.02270000
v 0.28606021 0.00564892 -0.02270000
v 0.28641149 0.00254013 -0.02270000
v 0.28627250 0.00179729 -0.02270000
v 0.28146952 -0.01812715 -0.02270000
v 0.28125480 -0.01885174 -0.02270000
v 0.25323984 -0.00025674 0.01303301
v 0.25293416 0.00139757 0.01303301
v 0.25184226 0.00267742 0.01303301
v 0.25025675 0.00323985 0.01303301
v 0.24974325 -0.00323985 0.01303301
v 0.25139758 -0.00293416 0.01303301
v 0.25267741 -0.00184227 0.01303301
v 0.26043871 -0.01500638 0.00809262
v 0.25507388 -0.01756172 0.00809262
v 0.25153700 -0.01821527 0.00809262
v 0.26317498 -0.01267195 0.00809262
v 0.26654339 -0.00777655 0.00809262
v 0.25380924 0.01787361 0.00810000
v 0.25332066 -0.01797079 0.00810000
v 0.25994501 -0.01533209 0.00810000
v 0.26505533 -0.01035921 0.00810000
v 0.26787359 -0.00380925 0.00810000
v 0.26797080 0.00332065 0.00810000
v 0.26533210 0.00994501 0.00810000
v 0.26035920 0.01505532 0.00810000
v 0.24846299 0.01821527 0.00809262
v 0.25438675 0.01774584 0.00809262
v 0.25777656 0.01654339 0.00809262
v 0.26267195 0.01317498 0.00809262
v 0.26500639 0.01043872 0.00809262
v 0.26756173 0.00507388 0.00809262
v 0.26821527 0.00153701 0.00809262
v 0.26774585 -0.00438675 0.00809262
f 6 4 90
f 68 85 67
f 131 130 15
f 112 131 40
f 16 117 11
f 11 117 12
f 44 45 72
f 77 44 83
f 45 44 77
f 10 70 73
f 73 44 72
f 89 80 5
f 5 6 89
f 89 6 90
f 52 64 51
f 51 95 52
f 47 85 68
f 52 95 86
f 86 47 52
f 85 47 86
f 87 1 3
f 4 1 87
f 4 19 18
f 18 1 4
f 25 3 18
f 3 1 18
f 2 67 84
f 84 67 85
f 84 3 2
f 84 87 3
f 15 130 129
f 118 117 16
f 83 44 48
f 10 83 48
f 48 70 10
f 45 77 97
f 96 49 97
f 96 56 57
f 57 49 96
f 54 73 70
f 44 73 54
f 70 48 54
f 54 48 44
f 150 33 32
f 110 22 21
f 103 22 110
f 158 33 149
f 158 38 33
f 60 59 91
f 91 92 60
f 91 56 96
f 90 4 88
f 4 87 88
f 24 26 119
f 26 120 119
f 101 19 20
f 20 102 101
f 101 18 19
f 25 18 101
f 101 24 25
f 100 24 101
f 23 22 103
f 103 102 23
f 23 102 20
f 112 40 113
f 40 41 113
f 45 97 50
f 50 97 49
f 50 75 45
f 49 53 50
f 49 57 58
f 58 53 49
f 5 80 7
f 81 8 78
f 60 92 93
f 93 61 60
f 63 51 64
f 62 46 63
f 63 46 51
f 127 126 33
f 127 38 128
f 33 38 127
f 149 33 157
f 33 150 157
f 152 26 24
f 135 24 100
f 135 152 24
f 128 38 37
f 39 131 15
f 39 40 131
f 15 159 39
f 159 143 39
f 142 40 147
f 40 39 147
f 147 39 143
f 132 158 149
f 38 158 148
f 148 37 38
f 148 132 159
f 158 132 148
f 148 159 15
f 56 91 55
f 55 91 59
f 69 47 68
f 52 47 69
f 69 66 52
f 36 154 151
f 32 33 125
f 33 126 125
f 65 64 52
f 52 66 65
f 98 117 72
f 98 116 117
f 142 147 138
f 138 147 143
f 138 143 159
f 159 132 138
f 12 117 13
f 117 116 13
f 116 115 13
f 74 50 53
f 75 50 74
f 53 58 74
f 79 7 80
f 8 7 79
f 78 8 79
f 9 83 10
f 8 81 9
f 61 93 94
f 95 51 94
f 51 46 94
f 62 61 94
f 94 46 62
f 156 150 32
f 32 155 156
f 26 152 144
f 152 135 144
f 14 148 15
f 15 129 14
f 32 123 31
f 123 36 31
f 31 155 32
f 151 155 31
f 31 36 151
f 122 36 123
f 124 123 32
f 32 125 124
f 71 98 72
f 72 45 71
f 45 75 71
f 116 98 71
f 75 115 99
f 99 115 116
f 139 40 142
f 139 41 40
f 139 146 41
f 140 13 42
f 42 146 140
f 41 146 42
f 42 115 41
f 42 13 115
f 114 113 41
f 41 115 114
f 83 9 82
f 82 9 81
f 134 156 155
f 134 155 151
f 151 154 134
f 154 135 134
f 153 135 154
f 153 144 135
f 37 148 43
f 148 14 43
f 128 37 43
f 43 129 128
f 43 14 129
f 116 71 76
f 76 99 116
f 76 71 75
f 75 99 76
f 109 132 104
f 109 138 132
f 107 17 16
f 104 132 105
f 154 36 35
f 35 153 154
f 35 121 120
f 122 121 35
f 36 122 35
f 16 11 141
f 141 11 12
f 17 107 111
f 21 17 111
f 111 110 21
f 106 105 134
f 106 135 100
f 106 134 135
f 133 157 150
f 150 156 133
f 149 157 133
f 156 134 133
f 134 105 133
f 133 132 149
f 133 105 132
f 136 107 16
f 16 141 136
f 108 107 136
f 34 35 120
f 153 35 34
f 144 153 34
f 26 144 27
f 144 30 27
f 27 120 26
f 27 30 120
f 145 136 141
f 145 141 12
f 12 13 145
f 145 13 140
f 120 30 29
f 29 30 144
f 108 136 137
f 136 145 137
f 137 145 140
f 140 146 137
f 146 139 137
f 137 109 108
f 138 109 137
f 142 138 137
f 137 139 142
f 28 34 120
f 120 29 28
f 144 34 28
f 28 29 144
f 24 3 25
f 2 3 24
f 6 20 19
f 4 6 19
f 60 128 129
f 129 59 60
f 118 73 72
f 72 117 118
f 16 10 118
f 10 73 118
f 56 131 57
f 57 131 112
f 2 24 119
f 119 67 2
f 68 67 119
f 119 120 68
f 23 20 6
f 23 6 5
f 58 57 112
f 112 113 58
f 7 23 5
f 22 23 7
f 21 22 7
f 7 8 21
f 127 128 60
f 60 61 127
f 127 61 62
f 62 126 127
f 55 131 56
f 130 131 55
f 55 129 130
f 59 129 55
f 125 126 62
f 62 63 125
f 9 10 16
f 16 17 9
f 21 8 9
f 9 17 21
f 122 65 66
f 123 65 122
f 124 65 123
f 64 65 124
f 124 125 63
f 124 63 64
f 114 58 113
f 114 74 58
f 114 115 75
f 75 74 114
f 82 86 95
f 82 84 85
f 82 89 90
f 90 88 82
f 96 97 82
f 82 77 83
f 80 89 82
f 82 79 80
f 95 94 82
f 85 86 82
f 82 91 96
f 87 84 82
f 82 97 77
f 92 91 82
f 82 88 87
f 82 81 78
f 82 93 92
f 78 79 82
f 82 94 93
f 121 122 66
f 66 69 121
f 68 120 121
f 121 69 68
f 103 110 106
f 110 111 106
f 106 102 103
f 100 101 106
f 106 101 102
f 106 109 104
f 108 109 106
f 106 107 108
f 104 105 106
f 106 111 107

