# https://github.com/mikedh/trimesh
v 0.00024154 0.01199757 0.01000000
v 0.00024154 0.01199757 0.01800000
v -0.00390183 0.01134794 0.01000000
v -0.00390183 0.01134794 0.01800000
v -0.00756859 0.00931217 0.01000000
v -0.00756859 0.00931217 0.01800000
v -0.01031085 0.00613891 0.01000000
v -0.01031085 0.00613891 0.01800000
v -0.01179365 0.00221580 0.01000000
v -0.01179365 0.00221580 0.01800000
v -0.01183586 -0.00197797 0.01000000
v -0.01183586 -0.00197797 0.01800000
v -0.01043233 -0.00593014 0.01000000
v -0.01043233 -0.00593014 0.01800000
v -0.00775449 -0.00915794 0.01000000
v -0.00775449 -0.00915794 0.01800000
v -0.00412945 -0.01126710 0.01000000
v -0.00412945 -0.01126710 0.01800000
v -0.00000000 -0.01200000 0.01000000
v -0.00000000 -0.01200000 0.01800000
v 0.13499999 -0.01200000 0.01800000
v 0.13499999 -0.01200000 0.01000000
v 0.13912944 -0.01126710 0.01000000
v 0.13912944 -0.01126710 0.01800000
v 0.14275450 -0.00915794 0.01000000
v 0.14275450 -0.00915794 0.01800000
v 0.14543232 -0.00593013 0.01000000
v 0.14543232 -0.00593013 0.01800000
v 0.14683586 -0.00197797 0.01000000
v 0.14683586 -0.00197797 0.01800000
v 0.14679365 0.00221580 0.01000000
v 0.14679365 0.00221580 0.01800000
v 0.14531085 0.00613891 0.01000000
v 0.14531085 0.00613891 0.01800000
v 0.14256859 0.00931216 0.01000000
v 0.14256859 0.00931216 0.01800000
v 0.13890183 0.01134794 0.01000000
v 0.13890183 0.01134794 0.01800000
v 0.13475847 0.01199757 0.01000000
v 0.13475847 0.01199757 0.01800000
f 2 39 1
f 40 39 2
f 12 10 9
f 11 12 9
f 8 5 7
f 6 5 8
f 7 9 8
f 8 9 10
f 3 2 1
f 3 4 2
f 6 4 3
f 3 5 6
f 29 31 30
f 30 31 32
f 27 30 28
f 29 30 27
f 38 39 40
f 38 37 39
f 35 37 38
f 38 36 35
f 19 22 21
f 20 19 21
f 21 22 23
f 21 23 24
f 18 17 19
f 18 19 20
f 15 17 18
f 18 16 15
f 14 12 11
f 11 13 14
f 14 13 15
f 15 16 14
f 25 13 11
f 25 22 19
f 39 37 25
f 19 17 25
f 1 39 25
f 7 5 25
f 25 3 1
f 11 9 25
f 25 31 29
f 25 9 7
f 25 37 35
f 29 27 25
f 23 22 25
f 5 3 25
f 25 17 15
f 15 13 25
f 35 33 25
f 25 33 31
f 32 31 34
f 31 33 34
f 35 36 34
f 34 33 35
f 6 8 26
f 26 38 40
f 32 34 26
f 26 4 6
f 40 2 26
f 26 10 12
f 20 21 26
f 2 4 26
f 26 8 10
f 26 18 20
f 26 30 32
f 12 14 26
f 28 30 26
f 36 38 26
f 26 21 24
f 16 18 26
f 26 14 16
f 26 34 36
f 24 23 26
f 23 25 26
f 26 27 28
f 26 25 27

