# https://github.com/mikedh/trimesh
v 0.01057857 -0.03076178 0.00000000
v -0.00971700 -0.03048901 0.00000000
v 0.03604997 0.02689967 0.00000000
v 0.11564868 -0.01483049 0.00000000
v 0.12014116 -0.01339988 0.00000000
v 0.12396763 -0.01064542 0.00000000
v 0.12675008 -0.00683925 0.00000000
v 0.09556109 0.01787628 0.00000000
v 0.06784134 -0.02207929 0.00000000
v 0.00365251 0.03179087 0.00000000
v -0.00252615 0.03190013 0.00000000
v -0.00146653 0.03196638 0.00000000
v 0.00135795 0.03197118 0.00000000
v -0.00252615 -0.03190013 0.00000000
v -0.02221962 0.02302799 0.00000000
v -0.03012247 0.01079986 0.00000000
v -0.02687574 0.01736936 0.00000000
v -0.03180724 0.00350704 0.00000000
v -0.03178954 -0.00366400 0.00000000
v -0.03197037 -0.00137664 0.00000000
v -0.03197056 0.00137222 0.00000000
v -0.02687574 -0.01736936 0.00000000
v -0.03012247 -0.01079986 0.00000000
v 0.00967634 -0.03089858 0.00000000
v 0.00479718 -0.03163838 0.00000000
v 0.12821360 -0.00235738 0.00000000
v 0.12821360 0.00235738 0.00000000
v 0.11564868 0.01483049 0.00000000
v 0.12675008 0.00683924 0.00000000
v 0.12396764 0.01064542 0.00000000
v 0.12014116 0.01339988 0.00000000
v 0.00479718 0.03163838 0.00000000
v -0.00971700 0.03048901 0.00000000
v -0.01639828 0.02747902 0.00000000
v -0.03178954 0.00366400 0.00000000
v -0.02221962 -0.02302800 0.00000000
v -0.01639828 -0.02747902 0.00000000
v 0.12675008 0.00683924 0.01000000
v 0.12821360 0.00235738 0.01000000
v 0.12821360 -0.00235738 0.01000000
v 0.12675008 -0.00683925 0.01000000
v 0.12396763 -0.01064542 0.01000000
v 0.11564868 0.01483049 0.01000000
v 0.00479718 0.03163838 0.01000000
v 0.12014116 0.01339988 0.01000000
v 0.12396764 0.01064542 0.01000000
v 0.12014116 -0.01339988 0.01000000
v 0.11564868 -0.01483049 0.01000000
v 0.00479718 -0.03163838 0.01000000
v -0.02687574 0.01736936 0.01000000
v -0.02221962 0.02302799 0.01000000
v -0.01639828 0.02747902 0.01000000
v -0.00971700 0.03048901 0.01000000
v -0.00252615 0.03190013 0.01000000
v -0.03178954 -0.00366400 0.01000000
v -0.03012247 0.01079986 0.01000000
v -0.00971700 -0.03048901 0.01000000
v -0.00252615 -0.03190013 0.01000000
v -0.02221962 -0.02302800 0.01000000
v -0.01639828 -0.02747902 0.01000000
v -0.03178954 0.00366400 0.01000000
v -0.02687574 -0.01736936 0.01000000
v -0.03012247 -0.01079986 0.01000000
f 55 61 21
f 9 48 49
f 4 48 9
f 13 54 44
f 44 3 32
f 43 3 44
f 1 9 49
f 8 43 28
f 8 3 43
f 13 44 10
f 10 44 32
f 20 19 55
f 20 55 21
f 21 61 18
f 61 35 18
f 49 25 24
f 24 1 49
f 12 54 13
f 12 11 54
f 36 37 60
f 59 36 60
f 60 37 2
f 2 57 60
f 14 25 58
f 58 25 49
f 58 2 14
f 58 57 2
f 63 19 23
f 55 19 63
f 5 47 48
f 5 48 4
f 6 7 42
f 42 7 41
f 42 5 6
f 47 5 42
f 40 7 26
f 41 7 40
f 39 40 27
f 27 40 26
f 62 22 36
f 62 36 59
f 23 22 62
f 62 63 23
f 16 35 56
f 56 35 61
f 17 50 51
f 51 15 17
f 17 56 50
f 16 56 17
f 53 11 33
f 54 11 53
f 51 52 34
f 34 15 51
f 52 53 34
f 34 53 33
f 43 45 31
f 28 43 31
f 31 45 46
f 46 30 31
f 38 45 43
f 38 42 41
f 51 50 38
f 43 44 38
f 41 40 38
f 49 48 38
f 59 60 38
f 38 58 49
f 38 52 51
f 61 55 38
f 48 47 38
f 38 60 57
f 57 58 38
f 38 44 54
f 54 53 38
f 55 63 38
f 38 62 59
f 47 42 38
f 38 56 61
f 46 45 38
f 38 40 39
f 63 62 38
f 50 56 38
f 38 53 52
f 29 8 28
f 29 24 25
f 13 10 29
f 14 2 29
f 29 37 36
f 29 27 26
f 29 25 14
f 36 22 29
f 29 17 15
f 29 20 21
f 26 7 29
f 29 22 23
f 2 37 29
f 4 9 29
f 21 18 29
f 29 7 6
f 29 5 4
f 32 3 29
f 29 12 13
f 15 34 29
f 23 19 29
f 29 35 16
f 6 5 29
f 9 1 29
f 3 8 29
f 33 11 29
f 29 10 32
f 28 31 29
f 19 20 29
f 29 18 35
f 16 17 29
f 1 24 29
f 11 12 29
f 29 34 33
f 29 31 30
f 29 30 46
f 46 38 29
f 39 27 29
f 29 38 39

