# https://github.com/mikedh/trimesh
v 0.19940110 0.01094407 0.01120000
v 0.20412973 0.01038701 0.01120000
v 0.20817997 0.00788386 0.01120000
v 0.21079300 0.00390362 0.01120000
v 0.21147922 -0.00080801 0.01120000
v 0.21011008 -0.00536824 0.01120000
v 0.20694210 -0.00892270 0.01120000
v 0.20256881 -0.01080542 0.01120000
v -0.01074759 -0.00234292 0.01120000
v -0.00883485 -0.00655328 0.01120000
v -0.00536061 -0.00960541 0.01120000
v -0.00093893 -0.01095985 0.01120000
v 0.13356838 -0.02248307 0.01120000
v 0.13639918 -0.02235930 0.01120000
v -0.00100146 0.01095432 0.01120000
v -0.00541534 0.00957466 0.01120000
v -0.00887210 0.00650275 0.01120000
v -0.01076079 0.00228154 0.01120000
v 0.19940110 0.01094407 0.00320000
v 0.20412973 0.01038701 0.00320000
v 0.20817997 0.00788386 0.00320000
v 0.21079300 0.00390362 0.00320000
v 0.21147922 -0.00080801 0.00320000
v 0.21011008 -0.00536824 0.00320000
v 0.20694210 -0.00892270 0.00320000
v 0.20256881 -0.01080542 0.00320000
v -0.00536061 -0.00960541 0.00320000
v -0.00093893 -0.01095985 0.00320000
v 0.13356838 -0.02248307 0.00320000
v 0.13639918 -0.02235930 0.00320000
v -0.00883485 -0.00655328 0.00320000
v -0.01074759 -0.00234292 0.00320000
v -0.01076079 0.00228154 0.00320000
v -0.00887210 0.00650275 0.00320000
v -0.00541534 0.00957466 0.00320000
v -0.00100146 0.01095432 0.00320000
f 13 12 29
f 29 12 28
f 19 36 15
f 15 1 19
f 13 29 14
f 29 30 14
f 8 14 26
f 26 14 30
f 7 26 25
f 8 26 7
f 33 32 9
f 18 33 9
f 28 12 27
f 12 11 27
f 17 34 33
f 17 33 18
f 6 24 23
f 6 23 5
f 6 7 25
f 25 24 6
f 19 1 20
f 1 2 20
f 20 2 3
f 3 21 20
f 22 4 5
f 5 23 22
f 3 4 22
f 22 21 3
f 10 9 31
f 31 9 32
f 31 11 10
f 31 27 11
f 35 29 28
f 25 26 35
f 28 27 35
f 35 26 30
f 35 36 19
f 35 30 29
f 35 31 32
f 23 24 35
f 19 20 35
f 35 32 33
f 33 34 35
f 35 24 25
f 35 22 23
f 35 20 21
f 21 22 35
f 27 31 35
f 13 14 16
f 16 2 1
f 16 11 12
f 16 12 13
f 5 4 16
f 18 9 16
f 16 17 18
f 1 15 16
f 10 11 16
f 16 14 8
f 8 7 16
f 3 2 16
f 16 4 3
f 16 9 10
f 16 6 5
f 7 6 16
f 16 15 36
f 36 35 16
f 34 17 16
f 16 35 34

