# https://github.com/mikedh/trimesh
v 0.01600000 -0.00172887 0.00872121
v 0.01600000 0.00054425 0.00897301
v 0.01600000 0.00272327 0.00827847
v 0.01600000 0.00443141 0.00675770
v 0.01600000 -0.00167026 -0.00174025
v 0.01600000 -0.00272327 -0.00127847
v 0.01600000 -0.00365726 -0.00060785
v 0.01600000 -0.00501189 0.00123483
v 0.01600000 -0.00549991 0.00346919
v 0.01600000 -0.00503695 0.00570887
v 0.01600000 -0.00370306 0.00756661
v 0.01600000 0.00537332 0.00467364
v 0.01600000 0.00538613 0.00238664
v 0.01600000 0.00446764 0.00029216
v 0.01600000 0.00277664 -0.00124766
v 0.01600000 0.00060554 -0.00196656
v 0.14100000 0.00302124 0.00526695
v 0.14100000 0.00173299 0.00654085
v 0.14100000 -0.00001961 0.00699995
v 0.14100000 -0.00176695 0.00652124
v 0.14100000 -0.00304085 0.00523299
v 0.14100000 -0.00349995 0.00348039
v 0.14100000 -0.00302124 0.00173305
v 0.14100000 -0.00173299 0.00045915
v 0.14100000 0.00001961 0.00000005
v 0.14100000 0.00176695 0.00047876
v 0.14100000 0.00304085 0.00176701
v 0.14100000 0.00349995 0.00351961
v 0.12180000 0.00121457 0.00937578
v 0.13750000 0.00059373 0.00947055
v 0.13750000 0.00297084 0.00871288
v 0.12180000 -0.00066059 0.00946352
v 0.13750000 -0.00188604 0.00919586
v 0.12180000 -0.00247109 0.00896751
v 0.13750000 -0.00403970 0.00793631
v 0.12180000 -0.00521288 0.00647084
v 0.13750000 -0.00549486 0.00590967
v 0.12180000 -0.00587578 0.00471457
v 0.13750000 -0.00599991 0.00346638
v 0.12180000 -0.00596352 0.00283941
v 0.13750000 -0.00546751 0.00102891
v 0.12180000 -0.00443631 -0.00053970
v 0.13750000 -0.00398974 -0.00098129
v 0.13750000 -0.00297084 -0.00171288
v 0.13750000 -0.00182210 -0.00221664
v 0.12180000 -0.00121457 -0.00237578
v 0.13750000 0.00066059 -0.00246352
v 0.12180000 0.00247109 -0.00196751
v 0.13750000 0.00302906 -0.00167926
v 0.12180000 0.00403970 -0.00093631
v 0.13750000 0.00487378 0.00000054
v 0.12180000 0.00521288 0.00052916
v 0.13750000 0.00587578 0.00228543
v 0.12180000 0.00596352 0.00416059
v 0.13750000 0.00586180 0.00478033
v 0.12180000 0.00546751 0.00597109
v 0.13750000 0.00483427 0.00705385
v 0.12180000 0.00443631 0.00753970
v 0.02020000 0.00443631 0.00753970
v 0.02020000 0.00546751 0.00597109
v 0.02020000 0.00521288 0.00052916
v 0.02020000 0.00403970 -0.00093631
v 0.02020000 -0.00121457 -0.00237578
v 0.02020000 -0.00596352 0.00283941
v 0.02020000 -0.00587578 0.00471457
v 0.02020000 -0.00247109 0.00896751
v 0.02020000 -0.00066059 0.00946352
v 0.02020000 0.00121457 0.00937578
v 0.02020000 -0.00521288 0.00647084
v 0.02020000 -0.00443631 -0.00053970
v 0.02020000 0.00247109 -0.00196751
v 0.02020000 0.00596352 0.00416059
v 0.01650000 0.00297084 0.00871288
v 0.01650000 0.00059373 0.00947055
v 0.01650000 -0.00188604 0.00919586
v 0.01650000 -0.00403970 0.00793631
v 0.01650000 -0.00549486 0.00590967
v 0.01650000 -0.00599991 0.00346638
v 0.01650000 -0.00546751 0.00102891
v 0.01650000 -0.00398974 -0.00098129
v 0.01650000 0.00066059 -0.00246352
v 0.01650000 -0.00182210 -0.00221664
v 0.01650000 -0.00297084 -0.00171288
v 0.01650000 0.00302906 -0.00167926
v 0.01650000 0.00487378 0.00000054
v 0.01650000 0.00587578 0.00228543
v 0.01650000 0.00586180 0.00478033
v 0.01650000 0.00483427 0.00705385
f 22 37 39
f 21 37 22
f 47 26 25
f 25 45 47
f 24 45 25
f 20 19 33
f 41 22 39
f 76 77 69
f 88 3 73
f 17 28 55
f 55 28 53
f 35 20 33
f 36 37 35
f 21 20 35
f 35 37 21
f 39 37 38
f 22 41 23
f 23 41 43
f 23 43 24
f 43 41 42
f 86 13 87
f 59 88 73
f 3 88 4
f 88 87 4
f 79 7 80
f 40 41 39
f 24 43 44
f 44 45 24
f 47 45 46
f 77 76 11
f 11 10 77
f 85 13 86
f 26 51 27
f 27 51 53
f 53 28 27
f 54 55 53
f 17 55 57
f 57 18 17
f 31 18 57
f 33 19 30
f 19 18 30
f 30 18 31
f 86 87 72
f 60 87 88
f 12 87 13
f 12 4 87
f 70 79 80
f 78 79 64
f 78 65 77
f 7 79 8
f 73 3 2
f 13 85 14
f 14 85 15
f 53 51 52
f 6 5 83
f 6 83 80
f 80 7 6
f 83 5 82
f 56 57 55
f 31 57 58
f 33 30 32
f 29 30 31
f 34 35 33
f 77 10 9
f 9 78 77
f 79 78 9
f 9 8 79
f 61 85 86
f 47 48 49
f 49 51 26
f 49 26 47
f 81 82 5
f 76 66 75
f 2 1 75
f 75 1 11
f 75 11 76
f 51 49 50
f 85 62 84
f 15 85 84
f 71 81 84
f 84 81 15
f 15 81 16
f 16 81 5
f 82 81 63
f 2 75 74
f 73 2 74
f 74 68 73
f 67 74 75
f 69 77 37
f 37 36 69
f 69 36 35
f 35 76 69
f 65 37 77
f 65 38 37
f 64 79 40
f 40 79 41
f 44 43 80
f 80 83 44
f 27 28 17
f 17 18 27
f 27 20 21
f 24 25 27
f 21 22 27
f 27 25 26
f 27 23 24
f 19 20 27
f 27 18 19
f 22 23 27
f 72 53 86
f 72 54 53
f 55 54 72
f 72 87 55
f 41 79 70
f 70 42 41
f 80 43 70
f 43 42 70
f 39 38 78
f 38 65 78
f 64 40 78
f 78 40 39
f 82 44 83
f 45 44 82
f 88 57 56
f 56 60 88
f 55 87 56
f 87 60 56
f 58 59 73
f 73 31 58
f 58 57 88
f 88 59 58
f 76 35 34
f 34 66 76
f 86 53 61
f 53 52 61
f 51 85 61
f 61 52 51
f 71 48 81
f 81 48 47
f 75 34 33
f 66 34 75
f 68 31 73
f 68 29 31
f 50 85 51
f 50 62 85
f 62 50 84
f 84 50 49
f 84 48 71
f 84 49 48
f 13 14 16
f 16 2 3
f 16 12 13
f 7 8 16
f 3 4 16
f 10 11 16
f 11 1 16
f 4 12 16
f 16 6 7
f 16 9 10
f 16 14 15
f 5 6 16
f 8 9 16
f 16 1 2
f 45 82 63
f 63 46 45
f 63 81 47
f 47 46 63
f 29 68 74
f 30 29 74
f 33 32 67
f 67 75 33
f 67 32 30
f 30 74 67

