# https://github.com/mikedh/trimesh
v -0.00450000 -0.00779423 0.00800000
v -0.00450000 -0.00779423 0.00000000
v -0.00307818 -0.00845723 0.00000000
v -0.00307818 -0.00845723 0.00800000
v -0.00156283 -0.00886327 0.00000000
v -0.00156283 -0.00886327 0.00800000
v 0.00000000 -0.00900000 0.00000000
v 0.00000000 -0.00900000 0.00800000
v 0.00000000 0.00900000 0.00800000
v 0.00000000 0.00900000 -0.00000000
v -0.00156283 0.00886327 0.00000000
v -0.00156283 0.00886327 0.00800000
v -0.00307818 0.00845723 0.00000000
v -0.00307818 0.00845723 0.00800000
v -0.00450000 0.00779423 0.00000000
v -0.00450000 0.00779423 0.00800000
v 0.01800000 0.00900000 0.00800000
v 0.02042705 0.00776336 0.00800000
v 0.02085317 0.00692705 0.00800000
v 0.02100000 0.00600000 0.00800000
v 0.02100000 -0.00600000 0.00800000
v 0.01976336 -0.00842705 0.00800000
v 0.02042705 -0.00776336 0.00800000
v 0.01800000 -0.00900000 0.00800000
v 0.02085317 -0.00692705 0.00800000
v 0.01892705 0.00885317 0.00800000
v 0.01976336 0.00842705 0.00800000
v 0.01892705 -0.00885317 0.00800000
v -0.00889778 -0.00424056 0.00800000
v -0.00900000 -0.00346410 0.00800000
v -0.00900000 0.00346410 0.00800000
v -0.00812132 0.00558542 0.00800000
v -0.00750000 0.00606218 0.00800000
v -0.00859808 -0.00496410 0.00800000
v -0.00812132 -0.00558542 0.00800000
v -0.00750000 -0.00606218 0.00800000
v -0.00889778 0.00424056 0.00800000
v -0.00859808 0.00496410 0.00800000
v 0.01800000 -0.00900000 0.00000000
v -0.00900000 -0.00346410 0.00000000
v -0.00900000 0.00346410 -0.00000000
v 0.01892705 -0.00885317 0.00000000
v 0.01976336 -0.00842705 0.00000000
v 0.02042705 -0.00776336 0.00000000
v -0.00812132 -0.00558542 -0.00000000
v 0.01976336 0.00842705 0.00000000
v 0.02042705 0.00776336 0.00000000
v 0.02085317 0.00692705 0.00000000
v 0.02100000 0.00600000 0.00000000
v 0.02100000 -0.00600000 0.00000000
v 0.02085317 -0.00692705 -0.00000000
v -0.00889778 -0.00424056 -0.00000000
v -0.00859808 -0.00496410 0.00000000
v -0.00750000 -0.00606218 -0.00000000
v 0.01800000 0.00900000 -0.00000000
v 0.01892705 0.00885317 0.00000000
v -0.00889778 0.00424056 -0.00000000
v -0.00750000 0.00606218 0.00000000
v -0.00812132 0.00558542 0.00000000
v -0.00859808 0.00496410 0.00000000
f 3 2 5
f 9 17 55
f 55 10 9
f 30 31 40
f 40 31 41
f 20 21 49
f 21 50 49
f 11 12 9
f 9 10 11
f 11 14 12
f 13 14 11
f 15 33 16
f 58 33 15
f 16 14 15
f 15 14 13
f 56 26 27
f 56 27 46
f 56 55 17
f 17 26 56
f 25 51 50
f 25 50 21
f 44 25 23
f 51 25 44
f 48 19 20
f 20 49 48
f 41 31 57
f 31 37 57
f 57 37 38
f 38 60 57
f 54 1 36
f 2 1 54
f 28 24 39
f 42 28 39
f 43 22 28
f 43 28 42
f 23 22 43
f 43 44 23
f 27 18 47
f 46 27 47
f 47 18 19
f 19 48 47
f 30 40 29
f 40 52 29
f 34 29 53
f 53 29 52
f 45 54 35
f 35 54 36
f 34 53 35
f 35 53 45
f 59 33 58
f 59 32 33
f 59 60 38
f 38 32 59
f 4 26 17
f 9 12 4
f 4 21 20
f 4 17 9
f 4 31 30
f 38 37 4
f 4 25 21
f 6 8 4
f 4 24 28
f 20 19 4
f 4 18 27
f 28 22 4
f 4 32 38
f 4 14 16
f 27 26 4
f 4 22 23
f 4 37 31
f 16 33 4
f 4 35 36
f 12 14 4
f 19 18 4
f 23 25 4
f 30 29 4
f 33 32 4
f 36 1 4
f 4 29 34
f 34 35 4
f 4 8 24
f 4 5 6
f 4 3 5
f 4 1 2
f 2 3 4
f 7 8 6
f 6 5 7
f 7 39 24
f 24 8 7
f 7 49 50
f 7 43 42
f 7 56 46
f 7 48 49
f 55 56 7
f 7 11 10
f 10 55 7
f 58 15 7
f 7 53 52
f 7 57 60
f 13 11 7
f 7 15 13
f 5 2 7
f 7 54 45
f 7 52 40
f 51 44 7
f 42 39 7
f 50 51 7
f 41 57 7
f 46 47 7
f 7 40 41
f 2 54 7
f 7 59 58
f 44 43 7
f 7 47 48
f 45 53 7
f 60 59 7

