# https://github.com/mikedh/trimesh
v 0.01580258 -0.00005258 0.00599945
v 0.01580258 0.00111499 0.00573759
v 0.01580258 -0.00248756 0.00374907
v 0.01580258 -0.00208688 0.00487657
v 0.01580258 -0.00120811 0.00568871
v 0.01580258 -0.00054710 0.00106060
v 0.01580258 -0.00161808 0.00159427
v 0.01580258 -0.00231838 0.00256452
v 0.01580258 0.00235567 0.00266285
v 0.01580258 0.00169680 0.00166401
v 0.01580258 0.00064921 0.00108577
v 0.01580258 0.00202713 0.00496312
v 0.01580258 0.00247488 0.00385348
v 0.09580258 -0.00006310 0.00649934
v 0.01630258 -0.00144973 0.00612646
v 0.09580258 -0.00144973 0.00612646
v 0.01630258 -0.00250425 0.00515189
v 0.09580258 -0.00250425 0.00515189
v 0.01630258 -0.00298507 0.00379889
v 0.09580258 -0.00298507 0.00379889
v 0.01630258 -0.00278205 0.00237742
v 0.09580258 -0.00278205 0.00237742
v 0.01630258 -0.00194170 0.00121312
v 0.09580258 -0.00194170 0.00121312
v 0.01630258 -0.00065652 0.00057272
v 0.09580258 -0.00065652 0.00057272
v 0.01630258 0.00077906 0.00060292
v 0.09580258 0.00077906 0.00060292
v 0.01630258 0.00203616 0.00129681
v 0.09580258 0.00203616 0.00129681
v 0.01630258 0.00282680 0.00249542
v 0.09580258 0.00282680 0.00249542
v 0.01630258 0.00296986 0.00392417
v 0.09580258 0.00296986 0.00392417
v 0.01630258 0.00243256 0.00525575
v 0.09580258 0.00243256 0.00525575
v 0.01630258 0.00133799 0.00618511
v 0.09580258 0.00133799 0.00618511
v 0.01630258 -0.00006310 0.00649934
f 39 37 1
f 1 37 2
f 37 12 2
f 19 3 21
f 33 31 13
f 13 12 33
f 10 27 11
f 25 6 11
f 11 27 25
f 10 31 29
f 29 27 10
f 33 12 35
f 35 12 37
f 15 39 1
f 23 6 25
f 6 23 7
f 7 23 21
f 9 31 10
f 9 13 31
f 5 15 1
f 8 21 3
f 8 7 21
f 19 17 4
f 4 3 19
f 4 17 15
f 15 5 4
f 38 39 14
f 37 39 38
f 33 34 32
f 32 31 33
f 29 32 30
f 31 32 29
f 14 39 15
f 15 16 14
f 20 21 22
f 19 21 20
f 28 29 30
f 27 29 28
f 28 26 25
f 25 27 28
f 36 34 33
f 33 35 36
f 37 38 36
f 36 35 37
f 22 21 24
f 21 23 24
f 25 26 24
f 24 23 25
f 18 20 22
f 18 38 14
f 14 16 18
f 18 28 30
f 30 32 18
f 34 36 18
f 18 32 34
f 22 24 18
f 26 28 18
f 18 36 38
f 18 24 26
f 16 15 18
f 15 17 18
f 19 20 18
f 18 17 19
f 4 9 10
f 1 2 4
f 6 7 4
f 4 2 12
f 10 11 4
f 12 13 4
f 4 11 6
f 4 5 1
f 13 9 4
f 4 8 3
f 7 8 4

